G04 #@! TF.GenerationSoftware,KiCad,Pcbnew,(6.0.0-rc1-dev-1491-g0a4812be0)*
G04 #@! TF.CreationDate,2019-04-29T15:17:20+02:00
G04 #@! TF.ProjectId,datalogger,64617461-6c6f-4676-9765-722e6b696361,v. 1.0*
G04 #@! TF.SameCoordinates,Original*
G04 #@! TF.FileFunction,Legend,Top*
G04 #@! TF.FilePolarity,Positive*
%FSLAX46Y46*%
G04 Gerber Fmt 4.6, Leading zero omitted, Abs format (unit mm)*
G04 Created by KiCad (PCBNEW (6.0.0-rc1-dev-1491-g0a4812be0)) date 2019-04-29 15:17:20*
%MOMM*%
%LPD*%
G04 APERTURE LIST*
%ADD10C,0.150000*%
%ADD11C,0.120000*%
%ADD12C,0.010000*%
G04 APERTURE END LIST*
D10*
X148142857Y-110547619D02*
X148190476Y-110500000D01*
X148285714Y-110452380D01*
X148523809Y-110452380D01*
X148619047Y-110500000D01*
X148666666Y-110547619D01*
X148714285Y-110642857D01*
X148714285Y-110738095D01*
X148666666Y-110880952D01*
X148095238Y-111452380D01*
X148714285Y-111452380D01*
X149333333Y-110452380D02*
X149428571Y-110452380D01*
X149523809Y-110500000D01*
X149571428Y-110547619D01*
X149619047Y-110642857D01*
X149666666Y-110833333D01*
X149666666Y-111071428D01*
X149619047Y-111261904D01*
X149571428Y-111357142D01*
X149523809Y-111404761D01*
X149428571Y-111452380D01*
X149333333Y-111452380D01*
X149238095Y-111404761D01*
X149190476Y-111357142D01*
X149142857Y-111261904D01*
X149095238Y-111071428D01*
X149095238Y-110833333D01*
X149142857Y-110642857D01*
X149190476Y-110547619D01*
X149238095Y-110500000D01*
X149333333Y-110452380D01*
X150619047Y-111452380D02*
X150047619Y-111452380D01*
X150333333Y-111452380D02*
X150333333Y-110452380D01*
X150238095Y-110595238D01*
X150142857Y-110690476D01*
X150047619Y-110738095D01*
X151095238Y-111452380D02*
X151285714Y-111452380D01*
X151380952Y-111404761D01*
X151428571Y-111357142D01*
X151523809Y-111214285D01*
X151571428Y-111023809D01*
X151571428Y-110642857D01*
X151523809Y-110547619D01*
X151476190Y-110500000D01*
X151380952Y-110452380D01*
X151190476Y-110452380D01*
X151095238Y-110500000D01*
X151047619Y-110547619D01*
X151000000Y-110642857D01*
X151000000Y-110880952D01*
X151047619Y-110976190D01*
X151095238Y-111023809D01*
X151190476Y-111071428D01*
X151380952Y-111071428D01*
X151476190Y-111023809D01*
X151523809Y-110976190D01*
X151571428Y-110880952D01*
X152000000Y-111071428D02*
X152761904Y-111071428D01*
X153428571Y-110452380D02*
X153523809Y-110452380D01*
X153619047Y-110500000D01*
X153666666Y-110547619D01*
X153714285Y-110642857D01*
X153761904Y-110833333D01*
X153761904Y-111071428D01*
X153714285Y-111261904D01*
X153666666Y-111357142D01*
X153619047Y-111404761D01*
X153523809Y-111452380D01*
X153428571Y-111452380D01*
X153333333Y-111404761D01*
X153285714Y-111357142D01*
X153238095Y-111261904D01*
X153190476Y-111071428D01*
X153190476Y-110833333D01*
X153238095Y-110642857D01*
X153285714Y-110547619D01*
X153333333Y-110500000D01*
X153428571Y-110452380D01*
X154619047Y-110785714D02*
X154619047Y-111452380D01*
X154380952Y-110404761D02*
X154142857Y-111119047D01*
X154761904Y-111119047D01*
X155142857Y-111071428D02*
X155904761Y-111071428D01*
X156333333Y-110547619D02*
X156380952Y-110500000D01*
X156476190Y-110452380D01*
X156714285Y-110452380D01*
X156809523Y-110500000D01*
X156857142Y-110547619D01*
X156904761Y-110642857D01*
X156904761Y-110738095D01*
X156857142Y-110880952D01*
X156285714Y-111452380D01*
X156904761Y-111452380D01*
X157380952Y-111452380D02*
X157571428Y-111452380D01*
X157666666Y-111404761D01*
X157714285Y-111357142D01*
X157809523Y-111214285D01*
X157857142Y-111023809D01*
X157857142Y-110642857D01*
X157809523Y-110547619D01*
X157761904Y-110500000D01*
X157666666Y-110452380D01*
X157476190Y-110452380D01*
X157380952Y-110500000D01*
X157333333Y-110547619D01*
X157285714Y-110642857D01*
X157285714Y-110880952D01*
X157333333Y-110976190D01*
X157380952Y-111023809D01*
X157476190Y-111071428D01*
X157666666Y-111071428D01*
X157761904Y-111023809D01*
X157809523Y-110976190D01*
X157857142Y-110880952D01*
X151333333Y-109285714D02*
X151571428Y-109952380D01*
X151809523Y-109285714D01*
X152190476Y-109857142D02*
X152238095Y-109904761D01*
X152190476Y-109952380D01*
X152142857Y-109904761D01*
X152190476Y-109857142D01*
X152190476Y-109952380D01*
X153190476Y-109952380D02*
X152619047Y-109952380D01*
X152904761Y-109952380D02*
X152904761Y-108952380D01*
X152809523Y-109095238D01*
X152714285Y-109190476D01*
X152619047Y-109238095D01*
X153619047Y-109857142D02*
X153666666Y-109904761D01*
X153619047Y-109952380D01*
X153571428Y-109904761D01*
X153619047Y-109857142D01*
X153619047Y-109952380D01*
X154285714Y-108952380D02*
X154380952Y-108952380D01*
X154476190Y-109000000D01*
X154523809Y-109047619D01*
X154571428Y-109142857D01*
X154619047Y-109333333D01*
X154619047Y-109571428D01*
X154571428Y-109761904D01*
X154523809Y-109857142D01*
X154476190Y-109904761D01*
X154380952Y-109952380D01*
X154285714Y-109952380D01*
X154190476Y-109904761D01*
X154142857Y-109857142D01*
X154095238Y-109761904D01*
X154047619Y-109571428D01*
X154047619Y-109333333D01*
X154095238Y-109142857D01*
X154142857Y-109047619D01*
X154190476Y-109000000D01*
X154285714Y-108952380D01*
X98718857Y-79684571D02*
X98861714Y-79732190D01*
X98909333Y-79779809D01*
X98956952Y-79875047D01*
X98956952Y-80017904D01*
X98909333Y-80113142D01*
X98861714Y-80160761D01*
X98766476Y-80208380D01*
X98385523Y-80208380D01*
X98385523Y-79208380D01*
X98718857Y-79208380D01*
X98814095Y-79256000D01*
X98861714Y-79303619D01*
X98909333Y-79398857D01*
X98909333Y-79494095D01*
X98861714Y-79589333D01*
X98814095Y-79636952D01*
X98718857Y-79684571D01*
X98385523Y-79684571D01*
X99337904Y-79922666D02*
X99814095Y-79922666D01*
X99242666Y-80208380D02*
X99576000Y-79208380D01*
X99909333Y-80208380D01*
X100099809Y-79208380D02*
X100671238Y-79208380D01*
X100385523Y-80208380D02*
X100385523Y-79208380D01*
X101004571Y-79827428D02*
X101766476Y-79827428D01*
X101385523Y-80208380D02*
X101385523Y-79446476D01*
X120523142Y-97607380D02*
X120523142Y-96607380D01*
X120761238Y-96607380D01*
X120904095Y-96655000D01*
X120999333Y-96750238D01*
X121046952Y-96845476D01*
X121094571Y-97035952D01*
X121094571Y-97178809D01*
X121046952Y-97369285D01*
X120999333Y-97464523D01*
X120904095Y-97559761D01*
X120761238Y-97607380D01*
X120523142Y-97607380D01*
X121380285Y-96607380D02*
X121951714Y-96607380D01*
X121666000Y-97607380D02*
X121666000Y-96607380D01*
X122856476Y-97607380D02*
X122523142Y-97131190D01*
X122285047Y-97607380D02*
X122285047Y-96607380D01*
X122666000Y-96607380D01*
X122761238Y-96655000D01*
X122808857Y-96702619D01*
X122856476Y-96797857D01*
X122856476Y-96940714D01*
X122808857Y-97035952D01*
X122761238Y-97083571D01*
X122666000Y-97131190D01*
X122285047Y-97131190D01*
X109347095Y-96655000D02*
X109251857Y-96607380D01*
X109109000Y-96607380D01*
X108966142Y-96655000D01*
X108870904Y-96750238D01*
X108823285Y-96845476D01*
X108775666Y-97035952D01*
X108775666Y-97178809D01*
X108823285Y-97369285D01*
X108870904Y-97464523D01*
X108966142Y-97559761D01*
X109109000Y-97607380D01*
X109204238Y-97607380D01*
X109347095Y-97559761D01*
X109394714Y-97512142D01*
X109394714Y-97178809D01*
X109204238Y-97178809D01*
X109823285Y-97607380D02*
X109823285Y-96607380D01*
X110394714Y-97607380D01*
X110394714Y-96607380D01*
X110870904Y-97607380D02*
X110870904Y-96607380D01*
X111109000Y-96607380D01*
X111251857Y-96655000D01*
X111347095Y-96750238D01*
X111394714Y-96845476D01*
X111442333Y-97035952D01*
X111442333Y-97178809D01*
X111394714Y-97369285D01*
X111347095Y-97464523D01*
X111251857Y-97559761D01*
X111109000Y-97607380D01*
X110870904Y-97607380D01*
X112998380Y-96607380D02*
X113617428Y-96607380D01*
X113284095Y-96988333D01*
X113426952Y-96988333D01*
X113522190Y-97035952D01*
X113569809Y-97083571D01*
X113617428Y-97178809D01*
X113617428Y-97416904D01*
X113569809Y-97512142D01*
X113522190Y-97559761D01*
X113426952Y-97607380D01*
X113141238Y-97607380D01*
X113046000Y-97559761D01*
X112998380Y-97512142D01*
X114046000Y-97512142D02*
X114093619Y-97559761D01*
X114046000Y-97607380D01*
X113998380Y-97559761D01*
X114046000Y-97512142D01*
X114046000Y-97607380D01*
X114426952Y-96607380D02*
X115046000Y-96607380D01*
X114712666Y-96988333D01*
X114855523Y-96988333D01*
X114950761Y-97035952D01*
X114998380Y-97083571D01*
X115046000Y-97178809D01*
X115046000Y-97416904D01*
X114998380Y-97512142D01*
X114950761Y-97559761D01*
X114855523Y-97607380D01*
X114569809Y-97607380D01*
X114474571Y-97559761D01*
X114426952Y-97512142D01*
X118364095Y-96607380D02*
X118935523Y-96607380D01*
X118649809Y-97607380D02*
X118649809Y-96607380D01*
X119173619Y-96607380D02*
X119840285Y-97607380D01*
X119840285Y-96607380D02*
X119173619Y-97607380D01*
X116546333Y-97607380D02*
X116213000Y-97131190D01*
X115974904Y-97607380D02*
X115974904Y-96607380D01*
X116355857Y-96607380D01*
X116451095Y-96655000D01*
X116498714Y-96702619D01*
X116546333Y-96797857D01*
X116546333Y-96940714D01*
X116498714Y-97035952D01*
X116451095Y-97083571D01*
X116355857Y-97131190D01*
X115974904Y-97131190D01*
X116879666Y-96607380D02*
X117546333Y-97607380D01*
X117546333Y-96607380D02*
X116879666Y-97607380D01*
X165722380Y-89190476D02*
X165722380Y-88523809D01*
X166722380Y-88952380D01*
X165722380Y-87952380D02*
X165722380Y-87857142D01*
X165770000Y-87761904D01*
X165817619Y-87714285D01*
X165912857Y-87666666D01*
X166103333Y-87619047D01*
X166341428Y-87619047D01*
X166531904Y-87666666D01*
X166627142Y-87714285D01*
X166674761Y-87761904D01*
X166722380Y-87857142D01*
X166722380Y-87952380D01*
X166674761Y-88047619D01*
X166627142Y-88095238D01*
X166531904Y-88142857D01*
X166341428Y-88190476D01*
X166103333Y-88190476D01*
X165912857Y-88142857D01*
X165817619Y-88095238D01*
X165770000Y-88047619D01*
X165722380Y-87952380D01*
X166674761Y-87142857D02*
X166722380Y-87142857D01*
X166817619Y-87190476D01*
X166865238Y-87238095D01*
X165722380Y-86523809D02*
X165722380Y-86428571D01*
X165770000Y-86333333D01*
X165817619Y-86285714D01*
X165912857Y-86238095D01*
X166103333Y-86190476D01*
X166341428Y-86190476D01*
X166531904Y-86238095D01*
X166627142Y-86285714D01*
X166674761Y-86333333D01*
X166722380Y-86428571D01*
X166722380Y-86523809D01*
X166674761Y-86619047D01*
X166627142Y-86666666D01*
X166531904Y-86714285D01*
X166341428Y-86761904D01*
X166103333Y-86761904D01*
X165912857Y-86714285D01*
X165817619Y-86666666D01*
X165770000Y-86619047D01*
X165722380Y-86523809D01*
X165722380Y-85571428D02*
X165722380Y-85476190D01*
X165770000Y-85380952D01*
X165817619Y-85333333D01*
X165912857Y-85285714D01*
X166103333Y-85238095D01*
X166341428Y-85238095D01*
X166531904Y-85285714D01*
X166627142Y-85333333D01*
X166674761Y-85380952D01*
X166722380Y-85476190D01*
X166722380Y-85571428D01*
X166674761Y-85666666D01*
X166627142Y-85714285D01*
X166531904Y-85761904D01*
X166341428Y-85809523D01*
X166103333Y-85809523D01*
X165912857Y-85761904D01*
X165817619Y-85714285D01*
X165770000Y-85666666D01*
X165722380Y-85571428D01*
X165722380Y-84619047D02*
X165722380Y-84523809D01*
X165770000Y-84428571D01*
X165817619Y-84380952D01*
X165912857Y-84333333D01*
X166103333Y-84285714D01*
X166341428Y-84285714D01*
X166531904Y-84333333D01*
X166627142Y-84380952D01*
X166674761Y-84428571D01*
X166722380Y-84523809D01*
X166722380Y-84619047D01*
X166674761Y-84714285D01*
X166627142Y-84761904D01*
X166531904Y-84809523D01*
X166341428Y-84857142D01*
X166103333Y-84857142D01*
X165912857Y-84809523D01*
X165817619Y-84761904D01*
X165770000Y-84714285D01*
X165722380Y-84619047D01*
X166722380Y-83095238D02*
X166055714Y-83095238D01*
X166150952Y-83095238D02*
X166103333Y-83047619D01*
X166055714Y-82952380D01*
X166055714Y-82809523D01*
X166103333Y-82714285D01*
X166198571Y-82666666D01*
X166722380Y-82666666D01*
X166198571Y-82666666D02*
X166103333Y-82619047D01*
X166055714Y-82523809D01*
X166055714Y-82380952D01*
X166103333Y-82285714D01*
X166198571Y-82238095D01*
X166722380Y-82238095D01*
X166722380Y-81761904D02*
X166055714Y-81761904D01*
X166150952Y-81761904D02*
X166103333Y-81714285D01*
X166055714Y-81619047D01*
X166055714Y-81476190D01*
X166103333Y-81380952D01*
X166198571Y-81333333D01*
X166722380Y-81333333D01*
X166198571Y-81333333D02*
X166103333Y-81285714D01*
X166055714Y-81190476D01*
X166055714Y-81047619D01*
X166103333Y-80952380D01*
X166198571Y-80904761D01*
X166722380Y-80904761D01*
D11*
X165000000Y-120000000D02*
X165000000Y-50000000D01*
X160000000Y-120000000D02*
X165586421Y-120000000D01*
X160000000Y-50000000D02*
X165586421Y-50000000D01*
X165000000Y-50000000D02*
X165586421Y-51126504D01*
X165000000Y-50000000D02*
X164413579Y-51126504D01*
X165000000Y-120000000D02*
X165586421Y-118873496D01*
X165000000Y-120000000D02*
X164413579Y-118873496D01*
D10*
X120809523Y-125722380D02*
X121476190Y-125722380D01*
X121047619Y-126722380D01*
X122047619Y-125722380D02*
X122142857Y-125722380D01*
X122238095Y-125770000D01*
X122285714Y-125817619D01*
X122333333Y-125912857D01*
X122380952Y-126103333D01*
X122380952Y-126341428D01*
X122333333Y-126531904D01*
X122285714Y-126627142D01*
X122238095Y-126674761D01*
X122142857Y-126722380D01*
X122047619Y-126722380D01*
X121952380Y-126674761D01*
X121904761Y-126627142D01*
X121857142Y-126531904D01*
X121809523Y-126341428D01*
X121809523Y-126103333D01*
X121857142Y-125912857D01*
X121904761Y-125817619D01*
X121952380Y-125770000D01*
X122047619Y-125722380D01*
X122857142Y-126674761D02*
X122857142Y-126722380D01*
X122809523Y-126817619D01*
X122761904Y-126865238D01*
X123476190Y-125722380D02*
X123571428Y-125722380D01*
X123666666Y-125770000D01*
X123714285Y-125817619D01*
X123761904Y-125912857D01*
X123809523Y-126103333D01*
X123809523Y-126341428D01*
X123761904Y-126531904D01*
X123714285Y-126627142D01*
X123666666Y-126674761D01*
X123571428Y-126722380D01*
X123476190Y-126722380D01*
X123380952Y-126674761D01*
X123333333Y-126627142D01*
X123285714Y-126531904D01*
X123238095Y-126341428D01*
X123238095Y-126103333D01*
X123285714Y-125912857D01*
X123333333Y-125817619D01*
X123380952Y-125770000D01*
X123476190Y-125722380D01*
X124428571Y-125722380D02*
X124523809Y-125722380D01*
X124619047Y-125770000D01*
X124666666Y-125817619D01*
X124714285Y-125912857D01*
X124761904Y-126103333D01*
X124761904Y-126341428D01*
X124714285Y-126531904D01*
X124666666Y-126627142D01*
X124619047Y-126674761D01*
X124523809Y-126722380D01*
X124428571Y-126722380D01*
X124333333Y-126674761D01*
X124285714Y-126627142D01*
X124238095Y-126531904D01*
X124190476Y-126341428D01*
X124190476Y-126103333D01*
X124238095Y-125912857D01*
X124285714Y-125817619D01*
X124333333Y-125770000D01*
X124428571Y-125722380D01*
X125380952Y-125722380D02*
X125476190Y-125722380D01*
X125571428Y-125770000D01*
X125619047Y-125817619D01*
X125666666Y-125912857D01*
X125714285Y-126103333D01*
X125714285Y-126341428D01*
X125666666Y-126531904D01*
X125619047Y-126627142D01*
X125571428Y-126674761D01*
X125476190Y-126722380D01*
X125380952Y-126722380D01*
X125285714Y-126674761D01*
X125238095Y-126627142D01*
X125190476Y-126531904D01*
X125142857Y-126341428D01*
X125142857Y-126103333D01*
X125190476Y-125912857D01*
X125238095Y-125817619D01*
X125285714Y-125770000D01*
X125380952Y-125722380D01*
X126904761Y-126722380D02*
X126904761Y-126055714D01*
X126904761Y-126150952D02*
X126952380Y-126103333D01*
X127047619Y-126055714D01*
X127190476Y-126055714D01*
X127285714Y-126103333D01*
X127333333Y-126198571D01*
X127333333Y-126722380D01*
X127333333Y-126198571D02*
X127380952Y-126103333D01*
X127476190Y-126055714D01*
X127619047Y-126055714D01*
X127714285Y-126103333D01*
X127761904Y-126198571D01*
X127761904Y-126722380D01*
X128238095Y-126722380D02*
X128238095Y-126055714D01*
X128238095Y-126150952D02*
X128285714Y-126103333D01*
X128380952Y-126055714D01*
X128523809Y-126055714D01*
X128619047Y-126103333D01*
X128666666Y-126198571D01*
X128666666Y-126722380D01*
X128666666Y-126198571D02*
X128714285Y-126103333D01*
X128809523Y-126055714D01*
X128952380Y-126055714D01*
X129047619Y-126103333D01*
X129095238Y-126198571D01*
X129095238Y-126722380D01*
D11*
X90000000Y-125000000D02*
X160000000Y-125000000D01*
X90000000Y-120000000D02*
X90000000Y-125586421D01*
X160000000Y-120000000D02*
X160000000Y-125586421D01*
X160000000Y-125000000D02*
X158873496Y-125586421D01*
X160000000Y-125000000D02*
X158873496Y-124413579D01*
X90000000Y-125000000D02*
X91126504Y-125586421D01*
X90000000Y-125000000D02*
X91126504Y-124413579D01*
D10*
X102523000Y-64871000D02*
X102523000Y-65796000D01*
X106773000Y-64871000D02*
X106773000Y-61621000D01*
X102523000Y-64871000D02*
X102523000Y-61621000D01*
X106773000Y-64871000D02*
X106708000Y-64871000D01*
X106773000Y-61621000D02*
X106708000Y-61621000D01*
X102523000Y-61621000D02*
X102588000Y-61621000D01*
D11*
X119728064Y-118004000D02*
X118523936Y-118004000D01*
X119728064Y-116184000D02*
X118523936Y-116184000D01*
X119728064Y-115464000D02*
X118523936Y-115464000D01*
X119728064Y-113644000D02*
X118523936Y-113644000D01*
X119728064Y-112924000D02*
X118523936Y-112924000D01*
X119728064Y-111104000D02*
X118523936Y-111104000D01*
X125665173Y-112147185D02*
G75*
G03X125201170Y-117495000I1080827J-2787815D01*
G01*
X127826827Y-112147185D02*
G75*
G02X128290830Y-117495000I-1080827J-2787815D01*
G01*
X125665571Y-112680521D02*
G75*
G03X125666000Y-117189684I1080429J-2254479D01*
G01*
X127826429Y-112680521D02*
G75*
G02X127826000Y-117189684I-1080429J-2254479D01*
G01*
X125201000Y-117495000D02*
X125666000Y-117495000D01*
X127826000Y-117495000D02*
X128291000Y-117495000D01*
X103653000Y-98646064D02*
X103653000Y-97441936D01*
X101833000Y-98646064D02*
X101833000Y-97441936D01*
D10*
X156591000Y-78994000D02*
X155828999Y-78994001D01*
X156591000Y-73279000D02*
X156591000Y-78994000D01*
X156591000Y-82550000D02*
X155828999Y-82550000D01*
X156591000Y-88265000D02*
X156591000Y-82550000D01*
X154432000Y-88265000D02*
X154432000Y-85471000D01*
X156591000Y-88265000D02*
X154432000Y-88265000D01*
X154432000Y-73279000D02*
X154432000Y-76073000D01*
X156591000Y-73279000D02*
X154432000Y-73279000D01*
X141351001Y-78994000D02*
X143002000Y-78994000D01*
X141351001Y-82549999D02*
X143002000Y-82550000D01*
X154398376Y-85443954D02*
G75*
G02X141351001Y-82549999I-5808376J4671954D01*
G01*
X141309095Y-78983706D02*
G75*
G02X154432000Y-76073000I7280905J-1788294D01*
G01*
X154178000Y-82550000D02*
X155829000Y-82550000D01*
X154178000Y-78994000D02*
X154178000Y-82550000D01*
X154305000Y-78994000D02*
X154178000Y-78994000D01*
X155829000Y-78994000D02*
X154305000Y-78994000D01*
X143002000Y-78994000D02*
X143002000Y-82550000D01*
X158748000Y-106537000D02*
X158748000Y-99187000D01*
X158748000Y-99187000D02*
X158798000Y-97837000D01*
X158798000Y-97837000D02*
X158948000Y-96687000D01*
X158948000Y-96687000D02*
X159148000Y-95587000D01*
X159148000Y-95587000D02*
X159448000Y-94537000D01*
X145448000Y-96387000D02*
X144148000Y-96387000D01*
X153648000Y-106537000D02*
X146448000Y-106537000D01*
X156448000Y-106537000D02*
X158748000Y-106537000D01*
X159448000Y-94537000D02*
X159448000Y-91837000D01*
X159448000Y-91837000D02*
X156448000Y-91837000D01*
X146448000Y-91837000D02*
X153648000Y-91837000D01*
X146048000Y-96837000D02*
X146048000Y-97137000D01*
X146048000Y-97137000D02*
X146348000Y-97137000D01*
X146348000Y-97137000D02*
X146348000Y-96837000D01*
X146348000Y-96837000D02*
X146048000Y-96837000D01*
X145448000Y-96387000D02*
X145448000Y-93387000D01*
X96253000Y-75079000D02*
X96253000Y-76079000D01*
X96253000Y-71479000D02*
X96253000Y-70479000D01*
X96678000Y-71479000D02*
X96253000Y-71479000D01*
X96678000Y-72204000D02*
X96678000Y-71479000D01*
X93103000Y-77429000D02*
X94503000Y-77429000D01*
X90553000Y-77429000D02*
X90703000Y-77429000D01*
X90553000Y-77129000D02*
X90553000Y-77429000D01*
X90103000Y-77129000D02*
X90553000Y-77129000D01*
X90553000Y-69429000D02*
X90103000Y-69429000D01*
X90553000Y-69129000D02*
X90553000Y-69429000D01*
X90703000Y-69129000D02*
X90553000Y-69129000D01*
X94503000Y-69129000D02*
X93103000Y-69129000D01*
D11*
X131513000Y-87014064D02*
X131513000Y-85809936D01*
X129693000Y-87014064D02*
X129693000Y-85809936D01*
X133509936Y-74697000D02*
X134714064Y-74697000D01*
X133509936Y-72877000D02*
X134714064Y-72877000D01*
X107728936Y-68982000D02*
X108933064Y-68982000D01*
X107728936Y-67162000D02*
X108933064Y-67162000D01*
X102091000Y-58564000D02*
X102091000Y-56264000D01*
X109491000Y-58564000D02*
X102091000Y-58564000D01*
X109491000Y-56264000D02*
X109491000Y-58564000D01*
X109491000Y-51164000D02*
X109491000Y-53464000D01*
X102091000Y-51164000D02*
X109491000Y-51164000D01*
X102091000Y-53464000D02*
X102091000Y-51164000D01*
X121992000Y-51104000D02*
X111142000Y-51104000D01*
X121992000Y-56204000D02*
X121992000Y-51104000D01*
X121492000Y-55904000D02*
X121992000Y-56204000D01*
X121492000Y-61304000D02*
X121492000Y-55904000D01*
X121992000Y-61054000D02*
X121492000Y-61304000D01*
X121992000Y-61104000D02*
X121992000Y-61054000D01*
X121992000Y-63004000D02*
X121992000Y-61104000D01*
X121492000Y-62754000D02*
X121992000Y-63004000D01*
X121492000Y-63704000D02*
X121492000Y-62754000D01*
X111142000Y-63704000D02*
X121492000Y-63704000D01*
X111142000Y-51104000D02*
X111142000Y-63704000D01*
X101922000Y-83358000D02*
X101322000Y-83058000D01*
X101922000Y-82758000D02*
X101922000Y-83358000D01*
X101322000Y-83058000D02*
X101922000Y-82758000D01*
X96622000Y-85808000D02*
X96622000Y-85308000D01*
X91122000Y-85808000D02*
X96622000Y-85808000D01*
X91122000Y-85308000D02*
X91122000Y-85808000D01*
X96622000Y-85308000D02*
X91122000Y-85308000D01*
X96622000Y-83308000D02*
X96622000Y-82808000D01*
X91122000Y-83308000D02*
X96622000Y-83308000D01*
X91122000Y-82808000D02*
X91122000Y-83308000D01*
X96622000Y-82808000D02*
X91122000Y-82808000D01*
X97732000Y-86698000D02*
X97732000Y-84308000D01*
X102232000Y-86698000D02*
X97732000Y-86698000D01*
X102232000Y-88118000D02*
X102232000Y-86698000D01*
X90512000Y-88118000D02*
X102232000Y-88118000D01*
X90512000Y-84308000D02*
X90512000Y-88118000D01*
X97732000Y-81918000D02*
X97732000Y-84308000D01*
X102232000Y-81918000D02*
X97732000Y-81918000D01*
X102232000Y-80498000D02*
X102232000Y-81918000D01*
X90512000Y-80498000D02*
X102232000Y-80498000D01*
X90512000Y-84308000D02*
X90512000Y-80498000D01*
X134996000Y-86927252D02*
X134996000Y-86404748D01*
X133576000Y-86927252D02*
X133576000Y-86404748D01*
X102738422Y-68782000D02*
X103255578Y-68782000D01*
X102738422Y-67362000D02*
X103255578Y-67362000D01*
X99239000Y-63495422D02*
X99239000Y-64012578D01*
X100659000Y-63495422D02*
X100659000Y-64012578D01*
X99027064Y-58526000D02*
X97822936Y-58526000D01*
X99027064Y-60346000D02*
X97822936Y-60346000D01*
X107421000Y-62135936D02*
X107421000Y-63340064D01*
X109241000Y-62135936D02*
X109241000Y-63340064D01*
X95836500Y-97957500D02*
G75*
G03X100886500Y-97957500I2525000J0D01*
G01*
X95836500Y-91707500D02*
G75*
G02X100886500Y-91707500I2525000J0D01*
G01*
X95836500Y-91707500D02*
X95836500Y-97957500D01*
X100886500Y-91707500D02*
X100886500Y-97957500D01*
X106449000Y-110505000D02*
G75*
G03X106449000Y-115555000I0J-2525000D01*
G01*
X112699000Y-110505000D02*
G75*
G02X112699000Y-115555000I0J-2525000D01*
G01*
X112699000Y-110505000D02*
X106449000Y-110505000D01*
X112699000Y-115555000D02*
X106449000Y-115555000D01*
D10*
X130482000Y-61825000D02*
X130482000Y-60600000D01*
X127357000Y-61825000D02*
X127357000Y-65175000D01*
X130707000Y-61825000D02*
X130707000Y-65175000D01*
X127357000Y-61825000D02*
X127657000Y-61825000D01*
X127357000Y-65175000D02*
X127657000Y-65175000D01*
X130707000Y-65175000D02*
X130407000Y-65175000D01*
X130707000Y-61825000D02*
X130482000Y-61825000D01*
D11*
X113558000Y-82595000D02*
X113558000Y-78695000D01*
X108438000Y-84095000D02*
X108438000Y-78695000D01*
X120310000Y-80507000D02*
X120310000Y-83457000D01*
X123530000Y-82307000D02*
X123530000Y-80507000D01*
D10*
X135093000Y-95340500D02*
X136493000Y-95340500D01*
X135093000Y-90240500D02*
X130943000Y-90240500D01*
X135093000Y-95390500D02*
X130943000Y-95390500D01*
X135093000Y-90240500D02*
X135093000Y-90385500D01*
X130943000Y-90240500D02*
X130943000Y-90385500D01*
X130943000Y-95390500D02*
X130943000Y-95245500D01*
X135093000Y-95390500D02*
X135093000Y-95340500D01*
X101579500Y-111603000D02*
X102954500Y-111603000D01*
X101579500Y-101478000D02*
X97429500Y-101478000D01*
X101579500Y-111628000D02*
X97429500Y-111628000D01*
X101579500Y-101478000D02*
X101579500Y-101583000D01*
X97429500Y-101478000D02*
X97429500Y-101583000D01*
X97429500Y-111628000D02*
X97429500Y-111523000D01*
X101579500Y-111628000D02*
X101579500Y-111603000D01*
X138622000Y-108047000D02*
X140147000Y-108047000D01*
X138622000Y-97672000D02*
X130872000Y-97672000D01*
X138622000Y-108322000D02*
X130872000Y-108322000D01*
X138622000Y-97672000D02*
X138622000Y-98027000D01*
X130872000Y-97672000D02*
X130872000Y-98027000D01*
X130872000Y-108322000D02*
X130872000Y-107967000D01*
X138622000Y-108322000D02*
X138622000Y-108047000D01*
X112275000Y-100384000D02*
X110850000Y-100384000D01*
X119525000Y-100159000D02*
X119200000Y-100159000D01*
X119525000Y-107409000D02*
X119200000Y-107409000D01*
X112275000Y-107409000D02*
X112600000Y-107409000D01*
X112275000Y-100159000D02*
X112600000Y-100159000D01*
X112275000Y-107409000D02*
X112275000Y-107084000D01*
X119525000Y-107409000D02*
X119525000Y-107084000D01*
X119525000Y-100159000D02*
X119525000Y-100484000D01*
X112275000Y-100159000D02*
X112275000Y-100384000D01*
D11*
X152772000Y-62335500D02*
X152472000Y-62335500D01*
X152472000Y-63225500D02*
X152822000Y-63225500D01*
X152472000Y-63225500D02*
X152472000Y-62335500D01*
X155022000Y-63715500D02*
X155022000Y-68695500D01*
X159262000Y-62335500D02*
X155412000Y-62335500D01*
X159262000Y-70075500D02*
X159262000Y-62335500D01*
X155412000Y-70075500D02*
X159262000Y-70075500D01*
X152772000Y-70075500D02*
X152472000Y-70075500D01*
X152472000Y-70075500D02*
X152472000Y-69185500D01*
X152472000Y-69185500D02*
X152822000Y-69185500D01*
X133596748Y-62178000D02*
X134119252Y-62178000D01*
X133596748Y-60758000D02*
X134119252Y-60758000D01*
X93493000Y-65118064D02*
X93493000Y-63913936D01*
X91673000Y-65118064D02*
X91673000Y-63913936D01*
X125883000Y-85809936D02*
X125883000Y-87014064D01*
X127703000Y-85809936D02*
X127703000Y-87014064D01*
X134714064Y-65130000D02*
X133509936Y-65130000D01*
X134714064Y-66950000D02*
X133509936Y-66950000D01*
X132667936Y-83385000D02*
X133872064Y-83385000D01*
X132667936Y-81565000D02*
X133872064Y-81565000D01*
X95483000Y-63913936D02*
X95483000Y-65118064D01*
X97303000Y-63913936D02*
X97303000Y-65118064D01*
X126386000Y-64610064D02*
X126386000Y-63405936D01*
X124566000Y-64610064D02*
X124566000Y-63405936D01*
X126698936Y-79067000D02*
X127903064Y-79067000D01*
X126698936Y-77247000D02*
X127903064Y-77247000D01*
X104954000Y-84955748D02*
X104954000Y-85478252D01*
X106374000Y-84955748D02*
X106374000Y-85478252D01*
X108564000Y-87281936D02*
X108564000Y-88486064D01*
X110384000Y-87281936D02*
X110384000Y-88486064D01*
X121785748Y-87197000D02*
X122308252Y-87197000D01*
X121785748Y-85777000D02*
X122308252Y-85777000D01*
X114546748Y-75386000D02*
X115069252Y-75386000D01*
X114546748Y-73966000D02*
X115069252Y-73966000D01*
X112120000Y-87281936D02*
X112120000Y-88486064D01*
X113940000Y-87281936D02*
X113940000Y-88486064D01*
X109212748Y-75386000D02*
X109735252Y-75386000D01*
X109212748Y-73966000D02*
X109735252Y-73966000D01*
X123592000Y-74262064D02*
X123592000Y-73057936D01*
X121772000Y-74262064D02*
X121772000Y-73057936D01*
X104742064Y-73316000D02*
X103537936Y-73316000D01*
X104742064Y-76036000D02*
X103537936Y-76036000D01*
X108256000Y-99433748D02*
X108256000Y-99956252D01*
X109676000Y-99433748D02*
X109676000Y-99956252D01*
X105970000Y-99433748D02*
X105970000Y-99956252D01*
X107390000Y-99433748D02*
X107390000Y-99956252D01*
X100068748Y-114883000D02*
X100591252Y-114883000D01*
X100068748Y-113463000D02*
X100591252Y-113463000D01*
X157092748Y-60400000D02*
X157615252Y-60400000D01*
X157092748Y-58980000D02*
X157615252Y-58980000D01*
X152040000Y-59276064D02*
X152040000Y-58071936D01*
X150220000Y-59276064D02*
X150220000Y-58071936D01*
X143331000Y-89796252D02*
X143331000Y-89273748D01*
X141911000Y-89796252D02*
X141911000Y-89273748D01*
X140029000Y-89796252D02*
X140029000Y-89273748D01*
X138609000Y-89796252D02*
X138609000Y-89273748D01*
X131760000Y-76719000D02*
X131760000Y-79149000D01*
X131770000Y-76699000D02*
X132770000Y-76699000D01*
X134820000Y-76699000D02*
X134820000Y-78549000D01*
X133770000Y-76699000D02*
X134820000Y-76699000D01*
X125848000Y-82346000D02*
X125848000Y-80886000D01*
X129008000Y-82346000D02*
X129008000Y-80186000D01*
X129008000Y-82346000D02*
X128078000Y-82346000D01*
X125848000Y-82346000D02*
X126778000Y-82346000D01*
D10*
X121324000Y-91822000D02*
X122674000Y-91822000D01*
X121324000Y-88672000D02*
X116674000Y-88672000D01*
X121324000Y-91922000D02*
X116674000Y-91922000D01*
X121324000Y-88672000D02*
X121324000Y-88872000D01*
X116674000Y-88672000D02*
X116674000Y-88872000D01*
X116674000Y-91922000D02*
X116674000Y-91722000D01*
X121324000Y-91922000D02*
X121324000Y-91822000D01*
D11*
X123554000Y-58564000D02*
X123554000Y-56264000D01*
X130954000Y-58564000D02*
X123554000Y-58564000D01*
X130954000Y-56264000D02*
X130954000Y-58564000D01*
X130954000Y-51164000D02*
X130954000Y-53464000D01*
X123554000Y-51164000D02*
X130954000Y-51164000D01*
X123554000Y-53464000D02*
X123554000Y-51164000D01*
X147078000Y-109756000D02*
X147078000Y-112296000D01*
X147078000Y-109756000D02*
X144538000Y-109756000D01*
X146828000Y-110006000D02*
X146828000Y-119356000D01*
X131048000Y-110006000D02*
X146828000Y-110006000D01*
X131048000Y-119356000D02*
X131048000Y-110006000D01*
X146828000Y-119356000D02*
X131048000Y-119356000D01*
X147104000Y-59546000D02*
X147104000Y-58946000D01*
X145504000Y-59546000D02*
X147104000Y-59546000D01*
X145504000Y-58946000D02*
X145504000Y-59546000D01*
X144564000Y-59546000D02*
X144564000Y-58946000D01*
X142964000Y-59546000D02*
X144564000Y-59546000D01*
X142964000Y-58946000D02*
X142964000Y-59546000D01*
X142024000Y-59546000D02*
X142024000Y-58946000D01*
X140424000Y-59546000D02*
X142024000Y-59546000D01*
X140424000Y-58946000D02*
X140424000Y-59546000D01*
X139484000Y-59546000D02*
X139484000Y-58946000D01*
X137884000Y-59546000D02*
X139484000Y-59546000D01*
X137884000Y-58946000D02*
X137884000Y-59546000D01*
X146054000Y-64966000D02*
X146054000Y-63966000D01*
X138934000Y-64966000D02*
X138934000Y-63966000D01*
X146054000Y-63436000D02*
X146304000Y-63966000D01*
X138934000Y-63436000D02*
X146054000Y-63436000D01*
X138684000Y-63966000D02*
X138934000Y-63436000D01*
X146304000Y-63966000D02*
X146304000Y-64966000D01*
X138684000Y-63966000D02*
X146304000Y-63966000D01*
X138684000Y-64966000D02*
X138684000Y-63966000D01*
X137014000Y-59976000D02*
X137014000Y-63976000D01*
X147684000Y-58946000D02*
X137304000Y-58946000D01*
X147684000Y-64966000D02*
X147684000Y-58946000D01*
X137304000Y-64966000D02*
X147684000Y-64966000D01*
X137304000Y-58946000D02*
X137304000Y-64966000D01*
X147104000Y-51926000D02*
X147104000Y-51326000D01*
X145504000Y-51926000D02*
X147104000Y-51926000D01*
X145504000Y-51326000D02*
X145504000Y-51926000D01*
X144564000Y-51926000D02*
X144564000Y-51326000D01*
X142964000Y-51926000D02*
X144564000Y-51926000D01*
X142964000Y-51326000D02*
X142964000Y-51926000D01*
X142024000Y-51926000D02*
X142024000Y-51326000D01*
X140424000Y-51926000D02*
X142024000Y-51926000D01*
X140424000Y-51326000D02*
X140424000Y-51926000D01*
X139484000Y-51926000D02*
X139484000Y-51326000D01*
X137884000Y-51926000D02*
X139484000Y-51926000D01*
X137884000Y-51326000D02*
X137884000Y-51926000D01*
X136944000Y-51926000D02*
X136944000Y-51326000D01*
X135344000Y-51926000D02*
X136944000Y-51926000D01*
X135344000Y-51326000D02*
X135344000Y-51926000D01*
X146054000Y-57346000D02*
X146054000Y-56346000D01*
X136394000Y-57346000D02*
X136394000Y-56346000D01*
X146054000Y-55816000D02*
X146304000Y-56346000D01*
X136394000Y-55816000D02*
X146054000Y-55816000D01*
X136144000Y-56346000D02*
X136394000Y-55816000D01*
X146304000Y-56346000D02*
X146304000Y-57346000D01*
X136144000Y-56346000D02*
X146304000Y-56346000D01*
X136144000Y-57346000D02*
X136144000Y-56346000D01*
X134474000Y-52356000D02*
X134474000Y-56356000D01*
X147684000Y-51326000D02*
X134764000Y-51326000D01*
X147684000Y-57346000D02*
X147684000Y-51326000D01*
X134764000Y-57346000D02*
X147684000Y-57346000D01*
X134764000Y-51326000D02*
X134764000Y-57346000D01*
X107670000Y-96330000D02*
X107670000Y-95000000D01*
X109000000Y-96330000D02*
X107670000Y-96330000D01*
X110270000Y-96330000D02*
X110270000Y-93670000D01*
X110270000Y-93670000D02*
X123030000Y-93670000D01*
X110270000Y-96330000D02*
X123030000Y-96330000D01*
X123030000Y-96330000D02*
X123030000Y-93670000D01*
X116901000Y-72056000D02*
X116901000Y-67996000D01*
X113731000Y-72056000D02*
X116901000Y-72056000D01*
X113731000Y-67996000D02*
X113731000Y-72056000D01*
X120457000Y-72056000D02*
X120457000Y-67996000D01*
X117287000Y-72056000D02*
X120457000Y-72056000D01*
X117287000Y-67996000D02*
X117287000Y-72056000D01*
X141310000Y-66898000D02*
X141310000Y-68738000D01*
X141550000Y-66898000D02*
X141550000Y-68738000D01*
X141430000Y-66898000D02*
X141430000Y-68738000D01*
X145314000Y-67818000D02*
X144134000Y-67818000D01*
X139674000Y-67818000D02*
X140854000Y-67818000D01*
X144134000Y-66898000D02*
X140854000Y-66898000D01*
X144134000Y-68738000D02*
X144134000Y-66898000D01*
X140854000Y-68738000D02*
X144134000Y-68738000D01*
X140854000Y-66898000D02*
X140854000Y-68738000D01*
X128630000Y-70390936D02*
X128630000Y-71595064D01*
X130450000Y-70390936D02*
X130450000Y-71595064D01*
X133509936Y-70887000D02*
X134714064Y-70887000D01*
X133509936Y-69067000D02*
X134714064Y-69067000D01*
X126078064Y-67670000D02*
X124873936Y-67670000D01*
X126078064Y-69490000D02*
X124873936Y-69490000D01*
X104754000Y-78772936D02*
X104754000Y-79977064D01*
X106574000Y-78772936D02*
X106574000Y-79977064D01*
X122181252Y-76760000D02*
X121658748Y-76760000D01*
X122181252Y-78180000D02*
X121658748Y-78180000D01*
X114914000Y-78772936D02*
X114914000Y-79977064D01*
X116734000Y-78772936D02*
X116734000Y-79977064D01*
X101769500Y-90710936D02*
X101769500Y-91915064D01*
X103589500Y-90710936D02*
X103589500Y-91915064D01*
X126163000Y-95496748D02*
X126163000Y-96019252D01*
X127583000Y-95496748D02*
X127583000Y-96019252D01*
X93270000Y-109720748D02*
X93270000Y-110243252D01*
X94690000Y-109720748D02*
X94690000Y-110243252D01*
X100068748Y-116851500D02*
X100591252Y-116851500D01*
X100068748Y-115431500D02*
X100591252Y-115431500D01*
X142696000Y-105417252D02*
X142696000Y-104894748D01*
X141276000Y-105417252D02*
X141276000Y-104894748D01*
X126090000Y-100362936D02*
X126090000Y-101567064D01*
X127910000Y-100362936D02*
X127910000Y-101567064D01*
X151840000Y-53093252D02*
X151840000Y-52570748D01*
X150420000Y-53093252D02*
X150420000Y-52570748D01*
X142501252Y-94286000D02*
X141978748Y-94286000D01*
X142501252Y-95706000D02*
X141978748Y-95706000D01*
X123976000Y-103029252D02*
X123976000Y-102506748D01*
X122556000Y-103029252D02*
X122556000Y-102506748D01*
X112427936Y-118131000D02*
X113632064Y-118131000D01*
X112427936Y-116311000D02*
X113632064Y-116311000D01*
X106647064Y-116311000D02*
X105442936Y-116311000D01*
X106647064Y-118131000D02*
X105442936Y-118131000D01*
X124842000Y-106570748D02*
X124842000Y-107093252D01*
X126262000Y-106570748D02*
X126262000Y-107093252D01*
X123976000Y-107093252D02*
X123976000Y-106570748D01*
X122556000Y-107093252D02*
X122556000Y-106570748D01*
X108835847Y-106698918D02*
X108835847Y-106176414D01*
X107415847Y-106698918D02*
X107415847Y-106176414D01*
X105383847Y-106176414D02*
X105383847Y-106698918D01*
X106803847Y-106176414D02*
X106803847Y-106698918D01*
D12*
G36*
X153376964Y-97290018D02*
G01*
X153433812Y-97591570D01*
X153853338Y-97764512D01*
X154104984Y-97593395D01*
X154175458Y-97545750D01*
X154239163Y-97503210D01*
X154293126Y-97467715D01*
X154334373Y-97441210D01*
X154359934Y-97425636D01*
X154366895Y-97422278D01*
X154379435Y-97430914D01*
X154406231Y-97454792D01*
X154444280Y-97490859D01*
X154490579Y-97536067D01*
X154542123Y-97587364D01*
X154595909Y-97641701D01*
X154648935Y-97696028D01*
X154698195Y-97747295D01*
X154740687Y-97792451D01*
X154773407Y-97828446D01*
X154793351Y-97852230D01*
X154798119Y-97860190D01*
X154791257Y-97874865D01*
X154772020Y-97907014D01*
X154742430Y-97953492D01*
X154704510Y-98011156D01*
X154660282Y-98076860D01*
X154634654Y-98114336D01*
X154587941Y-98182768D01*
X154546432Y-98244520D01*
X154512140Y-98296519D01*
X154487080Y-98335692D01*
X154473264Y-98358965D01*
X154471188Y-98363855D01*
X154475895Y-98377755D01*
X154488723Y-98410150D01*
X154507738Y-98456485D01*
X154531003Y-98512206D01*
X154556584Y-98572758D01*
X154582545Y-98633586D01*
X154606950Y-98690136D01*
X154627863Y-98737852D01*
X154643349Y-98772181D01*
X154651472Y-98788568D01*
X154651952Y-98789212D01*
X154664707Y-98792341D01*
X154698677Y-98799321D01*
X154750340Y-98809467D01*
X154816176Y-98822092D01*
X154892664Y-98836509D01*
X154937290Y-98844823D01*
X155019021Y-98860384D01*
X155092843Y-98875192D01*
X155155021Y-98888436D01*
X155201822Y-98899305D01*
X155229509Y-98906989D01*
X155235074Y-98909427D01*
X155240526Y-98925930D01*
X155244924Y-98963200D01*
X155248272Y-99016880D01*
X155250574Y-99082612D01*
X155251832Y-99156037D01*
X155252048Y-99232796D01*
X155251227Y-99308532D01*
X155249371Y-99378886D01*
X155246482Y-99439500D01*
X155242565Y-99486016D01*
X155237622Y-99514075D01*
X155234657Y-99519916D01*
X155216934Y-99526917D01*
X155179381Y-99536927D01*
X155126964Y-99548769D01*
X155064652Y-99561267D01*
X155042900Y-99565310D01*
X154938024Y-99584520D01*
X154855180Y-99599991D01*
X154791630Y-99612337D01*
X154744637Y-99622173D01*
X154711463Y-99630114D01*
X154689371Y-99636776D01*
X154675624Y-99642773D01*
X154667484Y-99648719D01*
X154666345Y-99649894D01*
X154654977Y-99668826D01*
X154637635Y-99705669D01*
X154616050Y-99755913D01*
X154591954Y-99815046D01*
X154567079Y-99878556D01*
X154543157Y-99941932D01*
X154521919Y-100000662D01*
X154505097Y-100050235D01*
X154494422Y-100086139D01*
X154491627Y-100103862D01*
X154491860Y-100104483D01*
X154501331Y-100118970D01*
X154522818Y-100150844D01*
X154554063Y-100196789D01*
X154592807Y-100253485D01*
X154636793Y-100317617D01*
X154649319Y-100335842D01*
X154693984Y-100401914D01*
X154733288Y-100462200D01*
X154765088Y-100513235D01*
X154787245Y-100551560D01*
X154797617Y-100573711D01*
X154798119Y-100576432D01*
X154789405Y-100590736D01*
X154765325Y-100619072D01*
X154728976Y-100658396D01*
X154683453Y-100705661D01*
X154631852Y-100757823D01*
X154577267Y-100811835D01*
X154522794Y-100864653D01*
X154471529Y-100913231D01*
X154426567Y-100954523D01*
X154391004Y-100985485D01*
X154367935Y-101003070D01*
X154361554Y-101005941D01*
X154346699Y-100999178D01*
X154316286Y-100980939D01*
X154275268Y-100954297D01*
X154243709Y-100932852D01*
X154186525Y-100893503D01*
X154118806Y-100847171D01*
X154050880Y-100800913D01*
X154014361Y-100776155D01*
X153890752Y-100692547D01*
X153786991Y-100748650D01*
X153739720Y-100773228D01*
X153699523Y-100792331D01*
X153672326Y-100803227D01*
X153665402Y-100804743D01*
X153657077Y-100793549D01*
X153640654Y-100761917D01*
X153617357Y-100712765D01*
X153588414Y-100649010D01*
X153555050Y-100573571D01*
X153518491Y-100489364D01*
X153479964Y-100399308D01*
X153440694Y-100306321D01*
X153401908Y-100213320D01*
X153364830Y-100123223D01*
X153330689Y-100038948D01*
X153300708Y-99963413D01*
X153276116Y-99899534D01*
X153258136Y-99850231D01*
X153247997Y-99818421D01*
X153246366Y-99807496D01*
X153259291Y-99793561D01*
X153287589Y-99770940D01*
X153325346Y-99744333D01*
X153328515Y-99742228D01*
X153426100Y-99664114D01*
X153504786Y-99572982D01*
X153563891Y-99471745D01*
X153602732Y-99363318D01*
X153620628Y-99250614D01*
X153616897Y-99136548D01*
X153590857Y-99024034D01*
X153541825Y-98915985D01*
X153527400Y-98892345D01*
X153452369Y-98796887D01*
X153363730Y-98720232D01*
X153264549Y-98662780D01*
X153157895Y-98624929D01*
X153046836Y-98607078D01*
X152934439Y-98609625D01*
X152823773Y-98632970D01*
X152717906Y-98677510D01*
X152619905Y-98743645D01*
X152589590Y-98770487D01*
X152512438Y-98854512D01*
X152456218Y-98942966D01*
X152417653Y-99042115D01*
X152396174Y-99140303D01*
X152390872Y-99250697D01*
X152408552Y-99361640D01*
X152447419Y-99469381D01*
X152505677Y-99570169D01*
X152581531Y-99660256D01*
X152673183Y-99735892D01*
X152685228Y-99743864D01*
X152723389Y-99769974D01*
X152752399Y-99792595D01*
X152766268Y-99807039D01*
X152766469Y-99807496D01*
X152763492Y-99823121D01*
X152751689Y-99858582D01*
X152732286Y-99910962D01*
X152706512Y-99977345D01*
X152675591Y-100054814D01*
X152640751Y-100140450D01*
X152603217Y-100231337D01*
X152564217Y-100324559D01*
X152524977Y-100417197D01*
X152486724Y-100506335D01*
X152450683Y-100589055D01*
X152418083Y-100662441D01*
X152390148Y-100723575D01*
X152368105Y-100769541D01*
X152353182Y-100797421D01*
X152347172Y-100804743D01*
X152328809Y-100799041D01*
X152294448Y-100783749D01*
X152250016Y-100761599D01*
X152225583Y-100748650D01*
X152121822Y-100692547D01*
X151998213Y-100776155D01*
X151935114Y-100818987D01*
X151866030Y-100866122D01*
X151801293Y-100910503D01*
X151768866Y-100932852D01*
X151723259Y-100963477D01*
X151684640Y-100987747D01*
X151658048Y-101002587D01*
X151649410Y-101005724D01*
X151636839Y-100997261D01*
X151609016Y-100973636D01*
X151568639Y-100937302D01*
X151518405Y-100890711D01*
X151461012Y-100836317D01*
X151424714Y-100801392D01*
X151361210Y-100738996D01*
X151306327Y-100683188D01*
X151262286Y-100636354D01*
X151231305Y-100600882D01*
X151215602Y-100579161D01*
X151214095Y-100574752D01*
X151221086Y-100557985D01*
X151240406Y-100524082D01*
X151269909Y-100476476D01*
X151307455Y-100418599D01*
X151350900Y-100353884D01*
X151363255Y-100335842D01*
X151408273Y-100270267D01*
X151448660Y-100211228D01*
X151482160Y-100162042D01*
X151506514Y-100126028D01*
X151519464Y-100106502D01*
X151520715Y-100104483D01*
X151518844Y-100088922D01*
X151508913Y-100054709D01*
X151492653Y-100006355D01*
X151471795Y-99948371D01*
X151448073Y-99885270D01*
X151423216Y-99821563D01*
X151398958Y-99761761D01*
X151377029Y-99710376D01*
X151359162Y-99671919D01*
X151347087Y-99650902D01*
X151346229Y-99649894D01*
X151338846Y-99643888D01*
X151326375Y-99637948D01*
X151306080Y-99631460D01*
X151275222Y-99623809D01*
X151231066Y-99614380D01*
X151170874Y-99602559D01*
X151091907Y-99587729D01*
X150991430Y-99569277D01*
X150969675Y-99565310D01*
X150905198Y-99552853D01*
X150848989Y-99540666D01*
X150806013Y-99529926D01*
X150781240Y-99521809D01*
X150777918Y-99519916D01*
X150772444Y-99503138D01*
X150767994Y-99465645D01*
X150764572Y-99411794D01*
X150762181Y-99345944D01*
X150760823Y-99272453D01*
X150760501Y-99195680D01*
X150761219Y-99119983D01*
X150762979Y-99049720D01*
X150765784Y-98989250D01*
X150769638Y-98942930D01*
X150774543Y-98915119D01*
X150777500Y-98909427D01*
X150793963Y-98903686D01*
X150831449Y-98894345D01*
X150886225Y-98882215D01*
X150954555Y-98868107D01*
X151032706Y-98852830D01*
X151075284Y-98844823D01*
X151156071Y-98829721D01*
X151228113Y-98816040D01*
X151287889Y-98804467D01*
X151331879Y-98795687D01*
X151356561Y-98790387D01*
X151360623Y-98789212D01*
X151367489Y-98775965D01*
X151382002Y-98744057D01*
X151402229Y-98698047D01*
X151426234Y-98642492D01*
X151452082Y-98581953D01*
X151477840Y-98520986D01*
X151501573Y-98464151D01*
X151521346Y-98416006D01*
X151535224Y-98381110D01*
X151541274Y-98364021D01*
X151541386Y-98363274D01*
X151534528Y-98349793D01*
X151515302Y-98318770D01*
X151485728Y-98273289D01*
X151447827Y-98216432D01*
X151403620Y-98151283D01*
X151377921Y-98113862D01*
X151331093Y-98045247D01*
X151289501Y-97982952D01*
X151255175Y-97930129D01*
X151230143Y-97889927D01*
X151216435Y-97865500D01*
X151214456Y-97860024D01*
X151222966Y-97847278D01*
X151246493Y-97820063D01*
X151282032Y-97781428D01*
X151326577Y-97734423D01*
X151377123Y-97682095D01*
X151430664Y-97627495D01*
X151484195Y-97573670D01*
X151534711Y-97523670D01*
X151579206Y-97480543D01*
X151614675Y-97447339D01*
X151638113Y-97427106D01*
X151645954Y-97422278D01*
X151658720Y-97429067D01*
X151689256Y-97448142D01*
X151734590Y-97477561D01*
X151791756Y-97515381D01*
X151857784Y-97559661D01*
X151907590Y-97593395D01*
X152159236Y-97764512D01*
X152368999Y-97678041D01*
X152578763Y-97591570D01*
X152635611Y-97290018D01*
X152692460Y-96988466D01*
X153320115Y-96988466D01*
X153376964Y-97290018D01*
X153376964Y-97290018D01*
G37*
X153376964Y-97290018D02*
X153433812Y-97591570D01*
X153853338Y-97764512D01*
X154104984Y-97593395D01*
X154175458Y-97545750D01*
X154239163Y-97503210D01*
X154293126Y-97467715D01*
X154334373Y-97441210D01*
X154359934Y-97425636D01*
X154366895Y-97422278D01*
X154379435Y-97430914D01*
X154406231Y-97454792D01*
X154444280Y-97490859D01*
X154490579Y-97536067D01*
X154542123Y-97587364D01*
X154595909Y-97641701D01*
X154648935Y-97696028D01*
X154698195Y-97747295D01*
X154740687Y-97792451D01*
X154773407Y-97828446D01*
X154793351Y-97852230D01*
X154798119Y-97860190D01*
X154791257Y-97874865D01*
X154772020Y-97907014D01*
X154742430Y-97953492D01*
X154704510Y-98011156D01*
X154660282Y-98076860D01*
X154634654Y-98114336D01*
X154587941Y-98182768D01*
X154546432Y-98244520D01*
X154512140Y-98296519D01*
X154487080Y-98335692D01*
X154473264Y-98358965D01*
X154471188Y-98363855D01*
X154475895Y-98377755D01*
X154488723Y-98410150D01*
X154507738Y-98456485D01*
X154531003Y-98512206D01*
X154556584Y-98572758D01*
X154582545Y-98633586D01*
X154606950Y-98690136D01*
X154627863Y-98737852D01*
X154643349Y-98772181D01*
X154651472Y-98788568D01*
X154651952Y-98789212D01*
X154664707Y-98792341D01*
X154698677Y-98799321D01*
X154750340Y-98809467D01*
X154816176Y-98822092D01*
X154892664Y-98836509D01*
X154937290Y-98844823D01*
X155019021Y-98860384D01*
X155092843Y-98875192D01*
X155155021Y-98888436D01*
X155201822Y-98899305D01*
X155229509Y-98906989D01*
X155235074Y-98909427D01*
X155240526Y-98925930D01*
X155244924Y-98963200D01*
X155248272Y-99016880D01*
X155250574Y-99082612D01*
X155251832Y-99156037D01*
X155252048Y-99232796D01*
X155251227Y-99308532D01*
X155249371Y-99378886D01*
X155246482Y-99439500D01*
X155242565Y-99486016D01*
X155237622Y-99514075D01*
X155234657Y-99519916D01*
X155216934Y-99526917D01*
X155179381Y-99536927D01*
X155126964Y-99548769D01*
X155064652Y-99561267D01*
X155042900Y-99565310D01*
X154938024Y-99584520D01*
X154855180Y-99599991D01*
X154791630Y-99612337D01*
X154744637Y-99622173D01*
X154711463Y-99630114D01*
X154689371Y-99636776D01*
X154675624Y-99642773D01*
X154667484Y-99648719D01*
X154666345Y-99649894D01*
X154654977Y-99668826D01*
X154637635Y-99705669D01*
X154616050Y-99755913D01*
X154591954Y-99815046D01*
X154567079Y-99878556D01*
X154543157Y-99941932D01*
X154521919Y-100000662D01*
X154505097Y-100050235D01*
X154494422Y-100086139D01*
X154491627Y-100103862D01*
X154491860Y-100104483D01*
X154501331Y-100118970D01*
X154522818Y-100150844D01*
X154554063Y-100196789D01*
X154592807Y-100253485D01*
X154636793Y-100317617D01*
X154649319Y-100335842D01*
X154693984Y-100401914D01*
X154733288Y-100462200D01*
X154765088Y-100513235D01*
X154787245Y-100551560D01*
X154797617Y-100573711D01*
X154798119Y-100576432D01*
X154789405Y-100590736D01*
X154765325Y-100619072D01*
X154728976Y-100658396D01*
X154683453Y-100705661D01*
X154631852Y-100757823D01*
X154577267Y-100811835D01*
X154522794Y-100864653D01*
X154471529Y-100913231D01*
X154426567Y-100954523D01*
X154391004Y-100985485D01*
X154367935Y-101003070D01*
X154361554Y-101005941D01*
X154346699Y-100999178D01*
X154316286Y-100980939D01*
X154275268Y-100954297D01*
X154243709Y-100932852D01*
X154186525Y-100893503D01*
X154118806Y-100847171D01*
X154050880Y-100800913D01*
X154014361Y-100776155D01*
X153890752Y-100692547D01*
X153786991Y-100748650D01*
X153739720Y-100773228D01*
X153699523Y-100792331D01*
X153672326Y-100803227D01*
X153665402Y-100804743D01*
X153657077Y-100793549D01*
X153640654Y-100761917D01*
X153617357Y-100712765D01*
X153588414Y-100649010D01*
X153555050Y-100573571D01*
X153518491Y-100489364D01*
X153479964Y-100399308D01*
X153440694Y-100306321D01*
X153401908Y-100213320D01*
X153364830Y-100123223D01*
X153330689Y-100038948D01*
X153300708Y-99963413D01*
X153276116Y-99899534D01*
X153258136Y-99850231D01*
X153247997Y-99818421D01*
X153246366Y-99807496D01*
X153259291Y-99793561D01*
X153287589Y-99770940D01*
X153325346Y-99744333D01*
X153328515Y-99742228D01*
X153426100Y-99664114D01*
X153504786Y-99572982D01*
X153563891Y-99471745D01*
X153602732Y-99363318D01*
X153620628Y-99250614D01*
X153616897Y-99136548D01*
X153590857Y-99024034D01*
X153541825Y-98915985D01*
X153527400Y-98892345D01*
X153452369Y-98796887D01*
X153363730Y-98720232D01*
X153264549Y-98662780D01*
X153157895Y-98624929D01*
X153046836Y-98607078D01*
X152934439Y-98609625D01*
X152823773Y-98632970D01*
X152717906Y-98677510D01*
X152619905Y-98743645D01*
X152589590Y-98770487D01*
X152512438Y-98854512D01*
X152456218Y-98942966D01*
X152417653Y-99042115D01*
X152396174Y-99140303D01*
X152390872Y-99250697D01*
X152408552Y-99361640D01*
X152447419Y-99469381D01*
X152505677Y-99570169D01*
X152581531Y-99660256D01*
X152673183Y-99735892D01*
X152685228Y-99743864D01*
X152723389Y-99769974D01*
X152752399Y-99792595D01*
X152766268Y-99807039D01*
X152766469Y-99807496D01*
X152763492Y-99823121D01*
X152751689Y-99858582D01*
X152732286Y-99910962D01*
X152706512Y-99977345D01*
X152675591Y-100054814D01*
X152640751Y-100140450D01*
X152603217Y-100231337D01*
X152564217Y-100324559D01*
X152524977Y-100417197D01*
X152486724Y-100506335D01*
X152450683Y-100589055D01*
X152418083Y-100662441D01*
X152390148Y-100723575D01*
X152368105Y-100769541D01*
X152353182Y-100797421D01*
X152347172Y-100804743D01*
X152328809Y-100799041D01*
X152294448Y-100783749D01*
X152250016Y-100761599D01*
X152225583Y-100748650D01*
X152121822Y-100692547D01*
X151998213Y-100776155D01*
X151935114Y-100818987D01*
X151866030Y-100866122D01*
X151801293Y-100910503D01*
X151768866Y-100932852D01*
X151723259Y-100963477D01*
X151684640Y-100987747D01*
X151658048Y-101002587D01*
X151649410Y-101005724D01*
X151636839Y-100997261D01*
X151609016Y-100973636D01*
X151568639Y-100937302D01*
X151518405Y-100890711D01*
X151461012Y-100836317D01*
X151424714Y-100801392D01*
X151361210Y-100738996D01*
X151306327Y-100683188D01*
X151262286Y-100636354D01*
X151231305Y-100600882D01*
X151215602Y-100579161D01*
X151214095Y-100574752D01*
X151221086Y-100557985D01*
X151240406Y-100524082D01*
X151269909Y-100476476D01*
X151307455Y-100418599D01*
X151350900Y-100353884D01*
X151363255Y-100335842D01*
X151408273Y-100270267D01*
X151448660Y-100211228D01*
X151482160Y-100162042D01*
X151506514Y-100126028D01*
X151519464Y-100106502D01*
X151520715Y-100104483D01*
X151518844Y-100088922D01*
X151508913Y-100054709D01*
X151492653Y-100006355D01*
X151471795Y-99948371D01*
X151448073Y-99885270D01*
X151423216Y-99821563D01*
X151398958Y-99761761D01*
X151377029Y-99710376D01*
X151359162Y-99671919D01*
X151347087Y-99650902D01*
X151346229Y-99649894D01*
X151338846Y-99643888D01*
X151326375Y-99637948D01*
X151306080Y-99631460D01*
X151275222Y-99623809D01*
X151231066Y-99614380D01*
X151170874Y-99602559D01*
X151091907Y-99587729D01*
X150991430Y-99569277D01*
X150969675Y-99565310D01*
X150905198Y-99552853D01*
X150848989Y-99540666D01*
X150806013Y-99529926D01*
X150781240Y-99521809D01*
X150777918Y-99519916D01*
X150772444Y-99503138D01*
X150767994Y-99465645D01*
X150764572Y-99411794D01*
X150762181Y-99345944D01*
X150760823Y-99272453D01*
X150760501Y-99195680D01*
X150761219Y-99119983D01*
X150762979Y-99049720D01*
X150765784Y-98989250D01*
X150769638Y-98942930D01*
X150774543Y-98915119D01*
X150777500Y-98909427D01*
X150793963Y-98903686D01*
X150831449Y-98894345D01*
X150886225Y-98882215D01*
X150954555Y-98868107D01*
X151032706Y-98852830D01*
X151075284Y-98844823D01*
X151156071Y-98829721D01*
X151228113Y-98816040D01*
X151287889Y-98804467D01*
X151331879Y-98795687D01*
X151356561Y-98790387D01*
X151360623Y-98789212D01*
X151367489Y-98775965D01*
X151382002Y-98744057D01*
X151402229Y-98698047D01*
X151426234Y-98642492D01*
X151452082Y-98581953D01*
X151477840Y-98520986D01*
X151501573Y-98464151D01*
X151521346Y-98416006D01*
X151535224Y-98381110D01*
X151541274Y-98364021D01*
X151541386Y-98363274D01*
X151534528Y-98349793D01*
X151515302Y-98318770D01*
X151485728Y-98273289D01*
X151447827Y-98216432D01*
X151403620Y-98151283D01*
X151377921Y-98113862D01*
X151331093Y-98045247D01*
X151289501Y-97982952D01*
X151255175Y-97930129D01*
X151230143Y-97889927D01*
X151216435Y-97865500D01*
X151214456Y-97860024D01*
X151222966Y-97847278D01*
X151246493Y-97820063D01*
X151282032Y-97781428D01*
X151326577Y-97734423D01*
X151377123Y-97682095D01*
X151430664Y-97627495D01*
X151484195Y-97573670D01*
X151534711Y-97523670D01*
X151579206Y-97480543D01*
X151614675Y-97447339D01*
X151638113Y-97427106D01*
X151645954Y-97422278D01*
X151658720Y-97429067D01*
X151689256Y-97448142D01*
X151734590Y-97477561D01*
X151791756Y-97515381D01*
X151857784Y-97559661D01*
X151907590Y-97593395D01*
X152159236Y-97764512D01*
X152368999Y-97678041D01*
X152578763Y-97591570D01*
X152635611Y-97290018D01*
X152692460Y-96988466D01*
X153320115Y-96988466D01*
X153376964Y-97290018D01*
G36*
X154799460Y-101458030D02*
G01*
X154842711Y-101471245D01*
X154870558Y-101487941D01*
X154879629Y-101501145D01*
X154877132Y-101516797D01*
X154860931Y-101541385D01*
X154847232Y-101558800D01*
X154818992Y-101590283D01*
X154797775Y-101603529D01*
X154779688Y-101602664D01*
X154726035Y-101589010D01*
X154686630Y-101589630D01*
X154654632Y-101605104D01*
X154643890Y-101614161D01*
X154609505Y-101646027D01*
X154609505Y-102062179D01*
X154471188Y-102062179D01*
X154471188Y-101458614D01*
X154540347Y-101458614D01*
X154581869Y-101460256D01*
X154603291Y-101466087D01*
X154609502Y-101477461D01*
X154609505Y-101477798D01*
X154612439Y-101489713D01*
X154625704Y-101488159D01*
X154644084Y-101479563D01*
X154682046Y-101463568D01*
X154712872Y-101453945D01*
X154752536Y-101451478D01*
X154799460Y-101458030D01*
X154799460Y-101458030D01*
G37*
X154799460Y-101458030D02*
X154842711Y-101471245D01*
X154870558Y-101487941D01*
X154879629Y-101501145D01*
X154877132Y-101516797D01*
X154860931Y-101541385D01*
X154847232Y-101558800D01*
X154818992Y-101590283D01*
X154797775Y-101603529D01*
X154779688Y-101602664D01*
X154726035Y-101589010D01*
X154686630Y-101589630D01*
X154654632Y-101605104D01*
X154643890Y-101614161D01*
X154609505Y-101646027D01*
X154609505Y-102062179D01*
X154471188Y-102062179D01*
X154471188Y-101458614D01*
X154540347Y-101458614D01*
X154581869Y-101460256D01*
X154603291Y-101466087D01*
X154609502Y-101477461D01*
X154609505Y-101477798D01*
X154612439Y-101489713D01*
X154625704Y-101488159D01*
X154644084Y-101479563D01*
X154682046Y-101463568D01*
X154712872Y-101453945D01*
X154752536Y-101451478D01*
X154799460Y-101458030D01*
G36*
X152245988Y-101469002D02*
G01*
X152277283Y-101483950D01*
X152307591Y-101505541D01*
X152330682Y-101530391D01*
X152347500Y-101562087D01*
X152358994Y-101604214D01*
X152366109Y-101660358D01*
X152369793Y-101734106D01*
X152370992Y-101829044D01*
X152371011Y-101838985D01*
X152371287Y-102062179D01*
X152232970Y-102062179D01*
X152232970Y-101856418D01*
X152232872Y-101780189D01*
X152232191Y-101724939D01*
X152230349Y-101686501D01*
X152226767Y-101660706D01*
X152220868Y-101643384D01*
X152212073Y-101630368D01*
X152199820Y-101617507D01*
X152156953Y-101589873D01*
X152110157Y-101584745D01*
X152065576Y-101602217D01*
X152050072Y-101615221D01*
X152038690Y-101627447D01*
X152030519Y-101640540D01*
X152025026Y-101658615D01*
X152021680Y-101685787D01*
X152019949Y-101726170D01*
X152019303Y-101783879D01*
X152019208Y-101854132D01*
X152019208Y-102062179D01*
X151880891Y-102062179D01*
X151880891Y-101458614D01*
X151950050Y-101458614D01*
X151991572Y-101460256D01*
X152012994Y-101466087D01*
X152019205Y-101477461D01*
X152019208Y-101477798D01*
X152022090Y-101488938D01*
X152034801Y-101487674D01*
X152060074Y-101475434D01*
X152117395Y-101457424D01*
X152182963Y-101455421D01*
X152245988Y-101469002D01*
X152245988Y-101469002D01*
G37*
X152245988Y-101469002D02*
X152277283Y-101483950D01*
X152307591Y-101505541D01*
X152330682Y-101530391D01*
X152347500Y-101562087D01*
X152358994Y-101604214D01*
X152366109Y-101660358D01*
X152369793Y-101734106D01*
X152370992Y-101829044D01*
X152371011Y-101838985D01*
X152371287Y-102062179D01*
X152232970Y-102062179D01*
X152232970Y-101856418D01*
X152232872Y-101780189D01*
X152232191Y-101724939D01*
X152230349Y-101686501D01*
X152226767Y-101660706D01*
X152220868Y-101643384D01*
X152212073Y-101630368D01*
X152199820Y-101617507D01*
X152156953Y-101589873D01*
X152110157Y-101584745D01*
X152065576Y-101602217D01*
X152050072Y-101615221D01*
X152038690Y-101627447D01*
X152030519Y-101640540D01*
X152025026Y-101658615D01*
X152021680Y-101685787D01*
X152019949Y-101726170D01*
X152019303Y-101783879D01*
X152019208Y-101854132D01*
X152019208Y-102062179D01*
X151880891Y-102062179D01*
X151880891Y-101458614D01*
X151950050Y-101458614D01*
X151991572Y-101460256D01*
X152012994Y-101466087D01*
X152019205Y-101477461D01*
X152019208Y-101477798D01*
X152022090Y-101488938D01*
X152034801Y-101487674D01*
X152060074Y-101475434D01*
X152117395Y-101457424D01*
X152182963Y-101455421D01*
X152245988Y-101469002D01*
G36*
X155677898Y-101456457D02*
G01*
X155710096Y-101464279D01*
X155771825Y-101492921D01*
X155824610Y-101536667D01*
X155861141Y-101589117D01*
X155866160Y-101600893D01*
X155873045Y-101631740D01*
X155877864Y-101677371D01*
X155879505Y-101723492D01*
X155879505Y-101810693D01*
X155697178Y-101810693D01*
X155621979Y-101810978D01*
X155569003Y-101812704D01*
X155535325Y-101817181D01*
X155518020Y-101825720D01*
X155514163Y-101839630D01*
X155520829Y-101860222D01*
X155532770Y-101884315D01*
X155566080Y-101924525D01*
X155612368Y-101944558D01*
X155668944Y-101943905D01*
X155733031Y-101922101D01*
X155788417Y-101895193D01*
X155834375Y-101931532D01*
X155880333Y-101967872D01*
X155837096Y-102007819D01*
X155779374Y-102045563D01*
X155708386Y-102068320D01*
X155632029Y-102074688D01*
X155558199Y-102063268D01*
X155546287Y-102059393D01*
X155481399Y-102025506D01*
X155433130Y-101974986D01*
X155400465Y-101906325D01*
X155382385Y-101818014D01*
X155382175Y-101816121D01*
X155380556Y-101719878D01*
X155387100Y-101685542D01*
X155514852Y-101685542D01*
X155526584Y-101690822D01*
X155558438Y-101694867D01*
X155605397Y-101697176D01*
X155635154Y-101697525D01*
X155690648Y-101697306D01*
X155725346Y-101695916D01*
X155743601Y-101692251D01*
X155749766Y-101685210D01*
X155748195Y-101673690D01*
X155746878Y-101669233D01*
X155724382Y-101627355D01*
X155689003Y-101593604D01*
X155657780Y-101578773D01*
X155616301Y-101579668D01*
X155574269Y-101598164D01*
X155539012Y-101628786D01*
X155517854Y-101666062D01*
X155514852Y-101685542D01*
X155387100Y-101685542D01*
X155396690Y-101635229D01*
X155428698Y-101564191D01*
X155474701Y-101508779D01*
X155532821Y-101471009D01*
X155601180Y-101452896D01*
X155677898Y-101456457D01*
X155677898Y-101456457D01*
G37*
X155677898Y-101456457D02*
X155710096Y-101464279D01*
X155771825Y-101492921D01*
X155824610Y-101536667D01*
X155861141Y-101589117D01*
X155866160Y-101600893D01*
X155873045Y-101631740D01*
X155877864Y-101677371D01*
X155879505Y-101723492D01*
X155879505Y-101810693D01*
X155697178Y-101810693D01*
X155621979Y-101810978D01*
X155569003Y-101812704D01*
X155535325Y-101817181D01*
X155518020Y-101825720D01*
X155514163Y-101839630D01*
X155520829Y-101860222D01*
X155532770Y-101884315D01*
X155566080Y-101924525D01*
X155612368Y-101944558D01*
X155668944Y-101943905D01*
X155733031Y-101922101D01*
X155788417Y-101895193D01*
X155834375Y-101931532D01*
X155880333Y-101967872D01*
X155837096Y-102007819D01*
X155779374Y-102045563D01*
X155708386Y-102068320D01*
X155632029Y-102074688D01*
X155558199Y-102063268D01*
X155546287Y-102059393D01*
X155481399Y-102025506D01*
X155433130Y-101974986D01*
X155400465Y-101906325D01*
X155382385Y-101818014D01*
X155382175Y-101816121D01*
X155380556Y-101719878D01*
X155387100Y-101685542D01*
X155514852Y-101685542D01*
X155526584Y-101690822D01*
X155558438Y-101694867D01*
X155605397Y-101697176D01*
X155635154Y-101697525D01*
X155690648Y-101697306D01*
X155725346Y-101695916D01*
X155743601Y-101692251D01*
X155749766Y-101685210D01*
X155748195Y-101673690D01*
X155746878Y-101669233D01*
X155724382Y-101627355D01*
X155689003Y-101593604D01*
X155657780Y-101578773D01*
X155616301Y-101579668D01*
X155574269Y-101598164D01*
X155539012Y-101628786D01*
X155517854Y-101666062D01*
X155514852Y-101685542D01*
X155387100Y-101685542D01*
X155396690Y-101635229D01*
X155428698Y-101564191D01*
X155474701Y-101508779D01*
X155532821Y-101471009D01*
X155601180Y-101452896D01*
X155677898Y-101456457D01*
G36*
X155217226Y-101463880D02*
G01*
X155290080Y-101494830D01*
X155313027Y-101509895D01*
X155342354Y-101533048D01*
X155360764Y-101551253D01*
X155363961Y-101557183D01*
X155354935Y-101570340D01*
X155331837Y-101592667D01*
X155313344Y-101608250D01*
X155262728Y-101648926D01*
X155222760Y-101615295D01*
X155191874Y-101593584D01*
X155161759Y-101586090D01*
X155127292Y-101587920D01*
X155072561Y-101601528D01*
X155034886Y-101629772D01*
X155011991Y-101675433D01*
X155001597Y-101741289D01*
X155001595Y-101741331D01*
X155002494Y-101814939D01*
X155016463Y-101868946D01*
X155044328Y-101905716D01*
X155063325Y-101918168D01*
X155113776Y-101933673D01*
X155167663Y-101933683D01*
X155214546Y-101918638D01*
X155225644Y-101911287D01*
X155253476Y-101892511D01*
X155275236Y-101889434D01*
X155298704Y-101903409D01*
X155324649Y-101928510D01*
X155365716Y-101970880D01*
X155320121Y-102008464D01*
X155249674Y-102050882D01*
X155170233Y-102071785D01*
X155087215Y-102070272D01*
X155032694Y-102056411D01*
X154968970Y-102022135D01*
X154918005Y-101968212D01*
X154894851Y-101930149D01*
X154876099Y-101875536D01*
X154866715Y-101806369D01*
X154866643Y-101731407D01*
X154875824Y-101659409D01*
X154894199Y-101599137D01*
X154897093Y-101592958D01*
X154939952Y-101532351D01*
X154997979Y-101488224D01*
X155066591Y-101461493D01*
X155141201Y-101453073D01*
X155217226Y-101463880D01*
X155217226Y-101463880D01*
G37*
X155217226Y-101463880D02*
X155290080Y-101494830D01*
X155313027Y-101509895D01*
X155342354Y-101533048D01*
X155360764Y-101551253D01*
X155363961Y-101557183D01*
X155354935Y-101570340D01*
X155331837Y-101592667D01*
X155313344Y-101608250D01*
X155262728Y-101648926D01*
X155222760Y-101615295D01*
X155191874Y-101593584D01*
X155161759Y-101586090D01*
X155127292Y-101587920D01*
X155072561Y-101601528D01*
X155034886Y-101629772D01*
X155011991Y-101675433D01*
X155001597Y-101741289D01*
X155001595Y-101741331D01*
X155002494Y-101814939D01*
X155016463Y-101868946D01*
X155044328Y-101905716D01*
X155063325Y-101918168D01*
X155113776Y-101933673D01*
X155167663Y-101933683D01*
X155214546Y-101918638D01*
X155225644Y-101911287D01*
X155253476Y-101892511D01*
X155275236Y-101889434D01*
X155298704Y-101903409D01*
X155324649Y-101928510D01*
X155365716Y-101970880D01*
X155320121Y-102008464D01*
X155249674Y-102050882D01*
X155170233Y-102071785D01*
X155087215Y-102070272D01*
X155032694Y-102056411D01*
X154968970Y-102022135D01*
X154918005Y-101968212D01*
X154894851Y-101930149D01*
X154876099Y-101875536D01*
X154866715Y-101806369D01*
X154866643Y-101731407D01*
X154875824Y-101659409D01*
X154894199Y-101599137D01*
X154897093Y-101592958D01*
X154939952Y-101532351D01*
X154997979Y-101488224D01*
X155066591Y-101461493D01*
X155141201Y-101453073D01*
X155217226Y-101463880D01*
G36*
X153993367Y-101654342D02*
G01*
X153994555Y-101746563D01*
X153998897Y-101816610D01*
X154007558Y-101867381D01*
X154021704Y-101901772D01*
X154042500Y-101922679D01*
X154071110Y-101933000D01*
X154106535Y-101935636D01*
X154143636Y-101932682D01*
X154171818Y-101921889D01*
X154192243Y-101900360D01*
X154206079Y-101865199D01*
X154214491Y-101813510D01*
X154218643Y-101742394D01*
X154219703Y-101654342D01*
X154219703Y-101458614D01*
X154358020Y-101458614D01*
X154358020Y-102062179D01*
X154288862Y-102062179D01*
X154247170Y-102060489D01*
X154225701Y-102054556D01*
X154219703Y-102043293D01*
X154216091Y-102033261D01*
X154201714Y-102035383D01*
X154172736Y-102049580D01*
X154106319Y-102071480D01*
X154035875Y-102069928D01*
X153968377Y-102046147D01*
X153936233Y-102027362D01*
X153911715Y-102007022D01*
X153893804Y-101981573D01*
X153881479Y-101947458D01*
X153873723Y-101901121D01*
X153869516Y-101839007D01*
X153867840Y-101757561D01*
X153867624Y-101694578D01*
X153867624Y-101458614D01*
X153993367Y-101458614D01*
X153993367Y-101654342D01*
X153993367Y-101654342D01*
G37*
X153993367Y-101654342D02*
X153994555Y-101746563D01*
X153998897Y-101816610D01*
X154007558Y-101867381D01*
X154021704Y-101901772D01*
X154042500Y-101922679D01*
X154071110Y-101933000D01*
X154106535Y-101935636D01*
X154143636Y-101932682D01*
X154171818Y-101921889D01*
X154192243Y-101900360D01*
X154206079Y-101865199D01*
X154214491Y-101813510D01*
X154218643Y-101742394D01*
X154219703Y-101654342D01*
X154219703Y-101458614D01*
X154358020Y-101458614D01*
X154358020Y-102062179D01*
X154288862Y-102062179D01*
X154247170Y-102060489D01*
X154225701Y-102054556D01*
X154219703Y-102043293D01*
X154216091Y-102033261D01*
X154201714Y-102035383D01*
X154172736Y-102049580D01*
X154106319Y-102071480D01*
X154035875Y-102069928D01*
X153968377Y-102046147D01*
X153936233Y-102027362D01*
X153911715Y-102007022D01*
X153893804Y-101981573D01*
X153881479Y-101947458D01*
X153873723Y-101901121D01*
X153869516Y-101839007D01*
X153867840Y-101757561D01*
X153867624Y-101694578D01*
X153867624Y-101458614D01*
X153993367Y-101458614D01*
X153993367Y-101654342D01*
G36*
X153610762Y-101466055D02*
G01*
X153674363Y-101500692D01*
X153724123Y-101555372D01*
X153747568Y-101599842D01*
X153757634Y-101639121D01*
X153764156Y-101695116D01*
X153766951Y-101759621D01*
X153765836Y-101824429D01*
X153760626Y-101881334D01*
X153754541Y-101911727D01*
X153734014Y-101953306D01*
X153698463Y-101997468D01*
X153655619Y-102036087D01*
X153613211Y-102061034D01*
X153612177Y-102061430D01*
X153559553Y-102072331D01*
X153497188Y-102072601D01*
X153437924Y-102062676D01*
X153415040Y-102054722D01*
X153356102Y-102021300D01*
X153313890Y-101977511D01*
X153286156Y-101919538D01*
X153270651Y-101843565D01*
X153267143Y-101803771D01*
X153267590Y-101753766D01*
X153402376Y-101753766D01*
X153406917Y-101826732D01*
X153419986Y-101882334D01*
X153440756Y-101917861D01*
X153455552Y-101928020D01*
X153493464Y-101935104D01*
X153538527Y-101933007D01*
X153577487Y-101922812D01*
X153587704Y-101917204D01*
X153614659Y-101884538D01*
X153632451Y-101834545D01*
X153640024Y-101773705D01*
X153636325Y-101708497D01*
X153628057Y-101669253D01*
X153604320Y-101623805D01*
X153566849Y-101595396D01*
X153521720Y-101585573D01*
X153475011Y-101595887D01*
X153439132Y-101621112D01*
X153420277Y-101641925D01*
X153409272Y-101662439D01*
X153404026Y-101690203D01*
X153402449Y-101732762D01*
X153402376Y-101753766D01*
X153267590Y-101753766D01*
X153268094Y-101697580D01*
X153285388Y-101610501D01*
X153319029Y-101542530D01*
X153369018Y-101493664D01*
X153435356Y-101463899D01*
X153449601Y-101460448D01*
X153535210Y-101452345D01*
X153610762Y-101466055D01*
X153610762Y-101466055D01*
G37*
X153610762Y-101466055D02*
X153674363Y-101500692D01*
X153724123Y-101555372D01*
X153747568Y-101599842D01*
X153757634Y-101639121D01*
X153764156Y-101695116D01*
X153766951Y-101759621D01*
X153765836Y-101824429D01*
X153760626Y-101881334D01*
X153754541Y-101911727D01*
X153734014Y-101953306D01*
X153698463Y-101997468D01*
X153655619Y-102036087D01*
X153613211Y-102061034D01*
X153612177Y-102061430D01*
X153559553Y-102072331D01*
X153497188Y-102072601D01*
X153437924Y-102062676D01*
X153415040Y-102054722D01*
X153356102Y-102021300D01*
X153313890Y-101977511D01*
X153286156Y-101919538D01*
X153270651Y-101843565D01*
X153267143Y-101803771D01*
X153267590Y-101753766D01*
X153402376Y-101753766D01*
X153406917Y-101826732D01*
X153419986Y-101882334D01*
X153440756Y-101917861D01*
X153455552Y-101928020D01*
X153493464Y-101935104D01*
X153538527Y-101933007D01*
X153577487Y-101922812D01*
X153587704Y-101917204D01*
X153614659Y-101884538D01*
X153632451Y-101834545D01*
X153640024Y-101773705D01*
X153636325Y-101708497D01*
X153628057Y-101669253D01*
X153604320Y-101623805D01*
X153566849Y-101595396D01*
X153521720Y-101585573D01*
X153475011Y-101595887D01*
X153439132Y-101621112D01*
X153420277Y-101641925D01*
X153409272Y-101662439D01*
X153404026Y-101690203D01*
X153402449Y-101732762D01*
X153402376Y-101753766D01*
X153267590Y-101753766D01*
X153268094Y-101697580D01*
X153285388Y-101610501D01*
X153319029Y-101542530D01*
X153369018Y-101493664D01*
X153435356Y-101463899D01*
X153449601Y-101460448D01*
X153535210Y-101452345D01*
X153610762Y-101466055D01*
G36*
X153014017Y-101456452D02*
G01*
X153061634Y-101465482D01*
X153111034Y-101484370D01*
X153116312Y-101486777D01*
X153153774Y-101506476D01*
X153179717Y-101524781D01*
X153188103Y-101536508D01*
X153180117Y-101555632D01*
X153160720Y-101583850D01*
X153152110Y-101594384D01*
X153116628Y-101635847D01*
X153070885Y-101608858D01*
X153027350Y-101590878D01*
X152977050Y-101581267D01*
X152928812Y-101580660D01*
X152891467Y-101589691D01*
X152882505Y-101595327D01*
X152865437Y-101621171D01*
X152863363Y-101650941D01*
X152876134Y-101674197D01*
X152883688Y-101678708D01*
X152906325Y-101684309D01*
X152946115Y-101690892D01*
X152995166Y-101697183D01*
X153004215Y-101698170D01*
X153082996Y-101711798D01*
X153140136Y-101734946D01*
X153178030Y-101769752D01*
X153199079Y-101818354D01*
X153205635Y-101877718D01*
X153196577Y-101945198D01*
X153167164Y-101998188D01*
X153117278Y-102036783D01*
X153046800Y-102061081D01*
X152968565Y-102070667D01*
X152904766Y-102070552D01*
X152853016Y-102061845D01*
X152817673Y-102049825D01*
X152773017Y-102028880D01*
X152731747Y-102004574D01*
X152717079Y-101993876D01*
X152679357Y-101963084D01*
X152724852Y-101917049D01*
X152770347Y-101871013D01*
X152822072Y-101905243D01*
X152873952Y-101930952D01*
X152929351Y-101944399D01*
X152982605Y-101945818D01*
X153028049Y-101935443D01*
X153060016Y-101913507D01*
X153070338Y-101894998D01*
X153068789Y-101865314D01*
X153043140Y-101842615D01*
X152993460Y-101826940D01*
X152939031Y-101819695D01*
X152855264Y-101805873D01*
X152793033Y-101779796D01*
X152751507Y-101740699D01*
X152729853Y-101687820D01*
X152726853Y-101625126D01*
X152741671Y-101559642D01*
X152775454Y-101510144D01*
X152828505Y-101476408D01*
X152901126Y-101458207D01*
X152954928Y-101454639D01*
X153014017Y-101456452D01*
X153014017Y-101456452D01*
G37*
X153014017Y-101456452D02*
X153061634Y-101465482D01*
X153111034Y-101484370D01*
X153116312Y-101486777D01*
X153153774Y-101506476D01*
X153179717Y-101524781D01*
X153188103Y-101536508D01*
X153180117Y-101555632D01*
X153160720Y-101583850D01*
X153152110Y-101594384D01*
X153116628Y-101635847D01*
X153070885Y-101608858D01*
X153027350Y-101590878D01*
X152977050Y-101581267D01*
X152928812Y-101580660D01*
X152891467Y-101589691D01*
X152882505Y-101595327D01*
X152865437Y-101621171D01*
X152863363Y-101650941D01*
X152876134Y-101674197D01*
X152883688Y-101678708D01*
X152906325Y-101684309D01*
X152946115Y-101690892D01*
X152995166Y-101697183D01*
X153004215Y-101698170D01*
X153082996Y-101711798D01*
X153140136Y-101734946D01*
X153178030Y-101769752D01*
X153199079Y-101818354D01*
X153205635Y-101877718D01*
X153196577Y-101945198D01*
X153167164Y-101998188D01*
X153117278Y-102036783D01*
X153046800Y-102061081D01*
X152968565Y-102070667D01*
X152904766Y-102070552D01*
X152853016Y-102061845D01*
X152817673Y-102049825D01*
X152773017Y-102028880D01*
X152731747Y-102004574D01*
X152717079Y-101993876D01*
X152679357Y-101963084D01*
X152724852Y-101917049D01*
X152770347Y-101871013D01*
X152822072Y-101905243D01*
X152873952Y-101930952D01*
X152929351Y-101944399D01*
X152982605Y-101945818D01*
X153028049Y-101935443D01*
X153060016Y-101913507D01*
X153070338Y-101894998D01*
X153068789Y-101865314D01*
X153043140Y-101842615D01*
X152993460Y-101826940D01*
X152939031Y-101819695D01*
X152855264Y-101805873D01*
X152793033Y-101779796D01*
X152751507Y-101740699D01*
X152729853Y-101687820D01*
X152726853Y-101625126D01*
X152741671Y-101559642D01*
X152775454Y-101510144D01*
X152828505Y-101476408D01*
X152901126Y-101458207D01*
X152954928Y-101454639D01*
X153014017Y-101456452D01*
G36*
X151643301Y-101472614D02*
G01*
X151655832Y-101478514D01*
X151699201Y-101510283D01*
X151740210Y-101556646D01*
X151770832Y-101607696D01*
X151779541Y-101631166D01*
X151787488Y-101673091D01*
X151792226Y-101723757D01*
X151792801Y-101744679D01*
X151792871Y-101810693D01*
X151412917Y-101810693D01*
X151421017Y-101845273D01*
X151440896Y-101886170D01*
X151475653Y-101921514D01*
X151517002Y-101944282D01*
X151543351Y-101949010D01*
X151579084Y-101943273D01*
X151621718Y-101928882D01*
X151636201Y-101922262D01*
X151689760Y-101895513D01*
X151735467Y-101930376D01*
X151761842Y-101953955D01*
X151775876Y-101973417D01*
X151776586Y-101979129D01*
X151764049Y-101992973D01*
X151736572Y-102014012D01*
X151711634Y-102030425D01*
X151644336Y-102059930D01*
X151568890Y-102073284D01*
X151494112Y-102069812D01*
X151434505Y-102051663D01*
X151373059Y-102012784D01*
X151329392Y-101961595D01*
X151302074Y-101895367D01*
X151289678Y-101811371D01*
X151288579Y-101772936D01*
X151292978Y-101684861D01*
X151293518Y-101682299D01*
X151419418Y-101682299D01*
X151422885Y-101690558D01*
X151437137Y-101695113D01*
X151466530Y-101697065D01*
X151515425Y-101697517D01*
X151534252Y-101697525D01*
X151591533Y-101696843D01*
X151627859Y-101694364D01*
X151647396Y-101689443D01*
X151654310Y-101681434D01*
X151654555Y-101678862D01*
X151646664Y-101658423D01*
X151626915Y-101629789D01*
X151618425Y-101619763D01*
X151586906Y-101591408D01*
X151554051Y-101580259D01*
X151536349Y-101579327D01*
X151488461Y-101590981D01*
X151448301Y-101622285D01*
X151422827Y-101667752D01*
X151422375Y-101669233D01*
X151419418Y-101682299D01*
X151293518Y-101682299D01*
X151307608Y-101615510D01*
X151333962Y-101560025D01*
X151366193Y-101520639D01*
X151425783Y-101477931D01*
X151495832Y-101455109D01*
X151570339Y-101453046D01*
X151643301Y-101472614D01*
X151643301Y-101472614D01*
G37*
X151643301Y-101472614D02*
X151655832Y-101478514D01*
X151699201Y-101510283D01*
X151740210Y-101556646D01*
X151770832Y-101607696D01*
X151779541Y-101631166D01*
X151787488Y-101673091D01*
X151792226Y-101723757D01*
X151792801Y-101744679D01*
X151792871Y-101810693D01*
X151412917Y-101810693D01*
X151421017Y-101845273D01*
X151440896Y-101886170D01*
X151475653Y-101921514D01*
X151517002Y-101944282D01*
X151543351Y-101949010D01*
X151579084Y-101943273D01*
X151621718Y-101928882D01*
X151636201Y-101922262D01*
X151689760Y-101895513D01*
X151735467Y-101930376D01*
X151761842Y-101953955D01*
X151775876Y-101973417D01*
X151776586Y-101979129D01*
X151764049Y-101992973D01*
X151736572Y-102014012D01*
X151711634Y-102030425D01*
X151644336Y-102059930D01*
X151568890Y-102073284D01*
X151494112Y-102069812D01*
X151434505Y-102051663D01*
X151373059Y-102012784D01*
X151329392Y-101961595D01*
X151302074Y-101895367D01*
X151289678Y-101811371D01*
X151288579Y-101772936D01*
X151292978Y-101684861D01*
X151293518Y-101682299D01*
X151419418Y-101682299D01*
X151422885Y-101690558D01*
X151437137Y-101695113D01*
X151466530Y-101697065D01*
X151515425Y-101697517D01*
X151534252Y-101697525D01*
X151591533Y-101696843D01*
X151627859Y-101694364D01*
X151647396Y-101689443D01*
X151654310Y-101681434D01*
X151654555Y-101678862D01*
X151646664Y-101658423D01*
X151626915Y-101629789D01*
X151618425Y-101619763D01*
X151586906Y-101591408D01*
X151554051Y-101580259D01*
X151536349Y-101579327D01*
X151488461Y-101590981D01*
X151448301Y-101622285D01*
X151422827Y-101667752D01*
X151422375Y-101669233D01*
X151419418Y-101682299D01*
X151293518Y-101682299D01*
X151307608Y-101615510D01*
X151333962Y-101560025D01*
X151366193Y-101520639D01*
X151425783Y-101477931D01*
X151495832Y-101455109D01*
X151570339Y-101453046D01*
X151643301Y-101472614D01*
G36*
X150461739Y-101465148D02*
G01*
X150527521Y-101494231D01*
X150577460Y-101542793D01*
X150611626Y-101610908D01*
X150630093Y-101698651D01*
X150631417Y-101712351D01*
X150632454Y-101808939D01*
X150619007Y-101893602D01*
X150591892Y-101962221D01*
X150577373Y-101984294D01*
X150526799Y-102031011D01*
X150462391Y-102061268D01*
X150390334Y-102073824D01*
X150316815Y-102067439D01*
X150260928Y-102047772D01*
X150212868Y-102014629D01*
X150173588Y-101971175D01*
X150172908Y-101970158D01*
X150156956Y-101943338D01*
X150146590Y-101916368D01*
X150140312Y-101882332D01*
X150136627Y-101834310D01*
X150135003Y-101794931D01*
X150134328Y-101759219D01*
X150260045Y-101759219D01*
X150261274Y-101794770D01*
X150265734Y-101842094D01*
X150273603Y-101872465D01*
X150287793Y-101894072D01*
X150301083Y-101906694D01*
X150348198Y-101933122D01*
X150397495Y-101936653D01*
X150443407Y-101917639D01*
X150466362Y-101896331D01*
X150482904Y-101874859D01*
X150492579Y-101854313D01*
X150496826Y-101827574D01*
X150497080Y-101787523D01*
X150495772Y-101750638D01*
X150492957Y-101697947D01*
X150488495Y-101663772D01*
X150480452Y-101641480D01*
X150466897Y-101624442D01*
X150456155Y-101614703D01*
X150411223Y-101589123D01*
X150362751Y-101587847D01*
X150322106Y-101602999D01*
X150287433Y-101634642D01*
X150266776Y-101686620D01*
X150260045Y-101759219D01*
X150134328Y-101759219D01*
X150133521Y-101716621D01*
X150136052Y-101658056D01*
X150143638Y-101614007D01*
X150157319Y-101579248D01*
X150178135Y-101548551D01*
X150185853Y-101539436D01*
X150234111Y-101494021D01*
X150285872Y-101467493D01*
X150349172Y-101456379D01*
X150380039Y-101455471D01*
X150461739Y-101465148D01*
X150461739Y-101465148D01*
G37*
X150461739Y-101465148D02*
X150527521Y-101494231D01*
X150577460Y-101542793D01*
X150611626Y-101610908D01*
X150630093Y-101698651D01*
X150631417Y-101712351D01*
X150632454Y-101808939D01*
X150619007Y-101893602D01*
X150591892Y-101962221D01*
X150577373Y-101984294D01*
X150526799Y-102031011D01*
X150462391Y-102061268D01*
X150390334Y-102073824D01*
X150316815Y-102067439D01*
X150260928Y-102047772D01*
X150212868Y-102014629D01*
X150173588Y-101971175D01*
X150172908Y-101970158D01*
X150156956Y-101943338D01*
X150146590Y-101916368D01*
X150140312Y-101882332D01*
X150136627Y-101834310D01*
X150135003Y-101794931D01*
X150134328Y-101759219D01*
X150260045Y-101759219D01*
X150261274Y-101794770D01*
X150265734Y-101842094D01*
X150273603Y-101872465D01*
X150287793Y-101894072D01*
X150301083Y-101906694D01*
X150348198Y-101933122D01*
X150397495Y-101936653D01*
X150443407Y-101917639D01*
X150466362Y-101896331D01*
X150482904Y-101874859D01*
X150492579Y-101854313D01*
X150496826Y-101827574D01*
X150497080Y-101787523D01*
X150495772Y-101750638D01*
X150492957Y-101697947D01*
X150488495Y-101663772D01*
X150480452Y-101641480D01*
X150466897Y-101624442D01*
X150456155Y-101614703D01*
X150411223Y-101589123D01*
X150362751Y-101587847D01*
X150322106Y-101602999D01*
X150287433Y-101634642D01*
X150266776Y-101686620D01*
X150260045Y-101759219D01*
X150134328Y-101759219D01*
X150133521Y-101716621D01*
X150136052Y-101658056D01*
X150143638Y-101614007D01*
X150157319Y-101579248D01*
X150178135Y-101548551D01*
X150185853Y-101539436D01*
X150234111Y-101494021D01*
X150285872Y-101467493D01*
X150349172Y-101456379D01*
X150380039Y-101455471D01*
X150461739Y-101465148D01*
G36*
X155032581Y-102404970D02*
G01*
X155092685Y-102420597D01*
X155143021Y-102452848D01*
X155167393Y-102476940D01*
X155207345Y-102533895D01*
X155230242Y-102599965D01*
X155238108Y-102681182D01*
X155238148Y-102687748D01*
X155238218Y-102753763D01*
X154858264Y-102753763D01*
X154866363Y-102788342D01*
X154880987Y-102819659D01*
X154906581Y-102852291D01*
X154911935Y-102857500D01*
X154957943Y-102885694D01*
X155010410Y-102890475D01*
X155070803Y-102871926D01*
X155081040Y-102866931D01*
X155112439Y-102851745D01*
X155133470Y-102843094D01*
X155137139Y-102842293D01*
X155149948Y-102850063D01*
X155174378Y-102869072D01*
X155186779Y-102879460D01*
X155212476Y-102903321D01*
X155220915Y-102919077D01*
X155215058Y-102933571D01*
X155211928Y-102937534D01*
X155190725Y-102954879D01*
X155155738Y-102975959D01*
X155131337Y-102988265D01*
X155062072Y-103009946D01*
X154985388Y-103016971D01*
X154912765Y-103008647D01*
X154892426Y-103002686D01*
X154829476Y-102968952D01*
X154782815Y-102917045D01*
X154752173Y-102846459D01*
X154737282Y-102756692D01*
X154735647Y-102709753D01*
X154740421Y-102641413D01*
X154860990Y-102641413D01*
X154872652Y-102646465D01*
X154903998Y-102650429D01*
X154949571Y-102652768D01*
X154980446Y-102653169D01*
X155035981Y-102652783D01*
X155071033Y-102650975D01*
X155090262Y-102646773D01*
X155098330Y-102639203D01*
X155099901Y-102628218D01*
X155089121Y-102594381D01*
X155061980Y-102560940D01*
X155026277Y-102535272D01*
X154990560Y-102524772D01*
X154942048Y-102534086D01*
X154900053Y-102561013D01*
X154870936Y-102599827D01*
X154860990Y-102641413D01*
X154740421Y-102641413D01*
X154742599Y-102610236D01*
X154764055Y-102530949D01*
X154800470Y-102471263D01*
X154852297Y-102430549D01*
X154919990Y-102408179D01*
X154956662Y-102403871D01*
X155032581Y-102404970D01*
X155032581Y-102404970D01*
G37*
X155032581Y-102404970D02*
X155092685Y-102420597D01*
X155143021Y-102452848D01*
X155167393Y-102476940D01*
X155207345Y-102533895D01*
X155230242Y-102599965D01*
X155238108Y-102681182D01*
X155238148Y-102687748D01*
X155238218Y-102753763D01*
X154858264Y-102753763D01*
X154866363Y-102788342D01*
X154880987Y-102819659D01*
X154906581Y-102852291D01*
X154911935Y-102857500D01*
X154957943Y-102885694D01*
X155010410Y-102890475D01*
X155070803Y-102871926D01*
X155081040Y-102866931D01*
X155112439Y-102851745D01*
X155133470Y-102843094D01*
X155137139Y-102842293D01*
X155149948Y-102850063D01*
X155174378Y-102869072D01*
X155186779Y-102879460D01*
X155212476Y-102903321D01*
X155220915Y-102919077D01*
X155215058Y-102933571D01*
X155211928Y-102937534D01*
X155190725Y-102954879D01*
X155155738Y-102975959D01*
X155131337Y-102988265D01*
X155062072Y-103009946D01*
X154985388Y-103016971D01*
X154912765Y-103008647D01*
X154892426Y-103002686D01*
X154829476Y-102968952D01*
X154782815Y-102917045D01*
X154752173Y-102846459D01*
X154737282Y-102756692D01*
X154735647Y-102709753D01*
X154740421Y-102641413D01*
X154860990Y-102641413D01*
X154872652Y-102646465D01*
X154903998Y-102650429D01*
X154949571Y-102652768D01*
X154980446Y-102653169D01*
X155035981Y-102652783D01*
X155071033Y-102650975D01*
X155090262Y-102646773D01*
X155098330Y-102639203D01*
X155099901Y-102628218D01*
X155089121Y-102594381D01*
X155061980Y-102560940D01*
X155026277Y-102535272D01*
X154990560Y-102524772D01*
X154942048Y-102534086D01*
X154900053Y-102561013D01*
X154870936Y-102599827D01*
X154860990Y-102641413D01*
X154740421Y-102641413D01*
X154742599Y-102610236D01*
X154764055Y-102530949D01*
X154800470Y-102471263D01*
X154852297Y-102430549D01*
X154919990Y-102408179D01*
X154956662Y-102403871D01*
X155032581Y-102404970D01*
G36*
X154635255Y-102401486D02*
G01*
X154683595Y-102411015D01*
X154711114Y-102425125D01*
X154740064Y-102448568D01*
X154698876Y-102500571D01*
X154673482Y-102532064D01*
X154656238Y-102547428D01*
X154639102Y-102549776D01*
X154614027Y-102542217D01*
X154602257Y-102537941D01*
X154554270Y-102531631D01*
X154510324Y-102545156D01*
X154478060Y-102575710D01*
X154472819Y-102585452D01*
X154467112Y-102611258D01*
X154462706Y-102658817D01*
X154459811Y-102724758D01*
X154458631Y-102805710D01*
X154458614Y-102817226D01*
X154458614Y-103017822D01*
X154320297Y-103017822D01*
X154320297Y-102401683D01*
X154389456Y-102401683D01*
X154429333Y-102402725D01*
X154450107Y-102407358D01*
X154457789Y-102417849D01*
X154458614Y-102427745D01*
X154458614Y-102453806D01*
X154491745Y-102427745D01*
X154529735Y-102409965D01*
X154580770Y-102401174D01*
X154635255Y-102401486D01*
X154635255Y-102401486D01*
G37*
X154635255Y-102401486D02*
X154683595Y-102411015D01*
X154711114Y-102425125D01*
X154740064Y-102448568D01*
X154698876Y-102500571D01*
X154673482Y-102532064D01*
X154656238Y-102547428D01*
X154639102Y-102549776D01*
X154614027Y-102542217D01*
X154602257Y-102537941D01*
X154554270Y-102531631D01*
X154510324Y-102545156D01*
X154478060Y-102575710D01*
X154472819Y-102585452D01*
X154467112Y-102611258D01*
X154462706Y-102658817D01*
X154459811Y-102724758D01*
X154458631Y-102805710D01*
X154458614Y-102817226D01*
X154458614Y-103017822D01*
X154320297Y-103017822D01*
X154320297Y-102401683D01*
X154389456Y-102401683D01*
X154429333Y-102402725D01*
X154450107Y-102407358D01*
X154457789Y-102417849D01*
X154458614Y-102427745D01*
X154458614Y-102453806D01*
X154491745Y-102427745D01*
X154529735Y-102409965D01*
X154580770Y-102401174D01*
X154635255Y-102401486D01*
G36*
X154038411Y-102405417D02*
G01*
X154091411Y-102418290D01*
X154106731Y-102425110D01*
X154136428Y-102442974D01*
X154159220Y-102463093D01*
X154176083Y-102488962D01*
X154187998Y-102524073D01*
X154195942Y-102571920D01*
X154200894Y-102635996D01*
X154203831Y-102719794D01*
X154204947Y-102775768D01*
X154209052Y-103017822D01*
X154138932Y-103017822D01*
X154096393Y-103016038D01*
X154074476Y-103009942D01*
X154068812Y-102999706D01*
X154065821Y-102988637D01*
X154052451Y-102990754D01*
X154034233Y-102999629D01*
X153988624Y-103013233D01*
X153930007Y-103016899D01*
X153868354Y-103010903D01*
X153813638Y-102995521D01*
X153808730Y-102993386D01*
X153758723Y-102958255D01*
X153725756Y-102909419D01*
X153710587Y-102852333D01*
X153711746Y-102831824D01*
X153835508Y-102831824D01*
X153846413Y-102859425D01*
X153878745Y-102879204D01*
X153930910Y-102889819D01*
X153958787Y-102891228D01*
X154005247Y-102887620D01*
X154036129Y-102873597D01*
X154043664Y-102866931D01*
X154064076Y-102830666D01*
X154068812Y-102797773D01*
X154068812Y-102753763D01*
X154007513Y-102753763D01*
X153936256Y-102757395D01*
X153886276Y-102768818D01*
X153854696Y-102788824D01*
X153847626Y-102797743D01*
X153835508Y-102831824D01*
X153711746Y-102831824D01*
X153713971Y-102792456D01*
X153736663Y-102735244D01*
X153767624Y-102696580D01*
X153786376Y-102679864D01*
X153804733Y-102668878D01*
X153828619Y-102662180D01*
X153863957Y-102658326D01*
X153916669Y-102655873D01*
X153937577Y-102655168D01*
X154068812Y-102650879D01*
X154068620Y-102611158D01*
X154063537Y-102569405D01*
X154045162Y-102544158D01*
X154008039Y-102528030D01*
X154007043Y-102527742D01*
X153954410Y-102521400D01*
X153902906Y-102529684D01*
X153864630Y-102549827D01*
X153849272Y-102559773D01*
X153832730Y-102558397D01*
X153807275Y-102543987D01*
X153792328Y-102533817D01*
X153763091Y-102512088D01*
X153744980Y-102495800D01*
X153742074Y-102491137D01*
X153754040Y-102467005D01*
X153789396Y-102438185D01*
X153804753Y-102428461D01*
X153848901Y-102411714D01*
X153908398Y-102402227D01*
X153974487Y-102400095D01*
X154038411Y-102405417D01*
X154038411Y-102405417D01*
G37*
X154038411Y-102405417D02*
X154091411Y-102418290D01*
X154106731Y-102425110D01*
X154136428Y-102442974D01*
X154159220Y-102463093D01*
X154176083Y-102488962D01*
X154187998Y-102524073D01*
X154195942Y-102571920D01*
X154200894Y-102635996D01*
X154203831Y-102719794D01*
X154204947Y-102775768D01*
X154209052Y-103017822D01*
X154138932Y-103017822D01*
X154096393Y-103016038D01*
X154074476Y-103009942D01*
X154068812Y-102999706D01*
X154065821Y-102988637D01*
X154052451Y-102990754D01*
X154034233Y-102999629D01*
X153988624Y-103013233D01*
X153930007Y-103016899D01*
X153868354Y-103010903D01*
X153813638Y-102995521D01*
X153808730Y-102993386D01*
X153758723Y-102958255D01*
X153725756Y-102909419D01*
X153710587Y-102852333D01*
X153711746Y-102831824D01*
X153835508Y-102831824D01*
X153846413Y-102859425D01*
X153878745Y-102879204D01*
X153930910Y-102889819D01*
X153958787Y-102891228D01*
X154005247Y-102887620D01*
X154036129Y-102873597D01*
X154043664Y-102866931D01*
X154064076Y-102830666D01*
X154068812Y-102797773D01*
X154068812Y-102753763D01*
X154007513Y-102753763D01*
X153936256Y-102757395D01*
X153886276Y-102768818D01*
X153854696Y-102788824D01*
X153847626Y-102797743D01*
X153835508Y-102831824D01*
X153711746Y-102831824D01*
X153713971Y-102792456D01*
X153736663Y-102735244D01*
X153767624Y-102696580D01*
X153786376Y-102679864D01*
X153804733Y-102668878D01*
X153828619Y-102662180D01*
X153863957Y-102658326D01*
X153916669Y-102655873D01*
X153937577Y-102655168D01*
X154068812Y-102650879D01*
X154068620Y-102611158D01*
X154063537Y-102569405D01*
X154045162Y-102544158D01*
X154008039Y-102528030D01*
X154007043Y-102527742D01*
X153954410Y-102521400D01*
X153902906Y-102529684D01*
X153864630Y-102549827D01*
X153849272Y-102559773D01*
X153832730Y-102558397D01*
X153807275Y-102543987D01*
X153792328Y-102533817D01*
X153763091Y-102512088D01*
X153744980Y-102495800D01*
X153742074Y-102491137D01*
X153754040Y-102467005D01*
X153789396Y-102438185D01*
X153804753Y-102428461D01*
X153848901Y-102411714D01*
X153908398Y-102402227D01*
X153974487Y-102400095D01*
X154038411Y-102405417D01*
G36*
X153281524Y-102404237D02*
G01*
X153331255Y-102407971D01*
X153461291Y-102797773D01*
X153481678Y-102728614D01*
X153493946Y-102685874D01*
X153510085Y-102628115D01*
X153527512Y-102564625D01*
X153536726Y-102530570D01*
X153571388Y-102401683D01*
X153714391Y-102401683D01*
X153671646Y-102536857D01*
X153650596Y-102603342D01*
X153625167Y-102683539D01*
X153598610Y-102767193D01*
X153574902Y-102841782D01*
X153520902Y-103011535D01*
X153462598Y-103015328D01*
X153404295Y-103019122D01*
X153372679Y-102914734D01*
X153353182Y-102849889D01*
X153331904Y-102778400D01*
X153313308Y-102715263D01*
X153312574Y-102712750D01*
X153298684Y-102669969D01*
X153286429Y-102640779D01*
X153277846Y-102629741D01*
X153276082Y-102631018D01*
X153269891Y-102648130D01*
X153258128Y-102684787D01*
X153242225Y-102736378D01*
X153223614Y-102798294D01*
X153213543Y-102832352D01*
X153159007Y-103017822D01*
X153043264Y-103017822D01*
X152950737Y-102725471D01*
X152924744Y-102643462D01*
X152901066Y-102568987D01*
X152880820Y-102505544D01*
X152865126Y-102456632D01*
X152855102Y-102425749D01*
X152852055Y-102416726D01*
X152854467Y-102407487D01*
X152873408Y-102403441D01*
X152912823Y-102403846D01*
X152918993Y-102404152D01*
X152992086Y-102407971D01*
X153039957Y-102584010D01*
X153057553Y-102648211D01*
X153073277Y-102704649D01*
X153085746Y-102748422D01*
X153093574Y-102774630D01*
X153095020Y-102778903D01*
X153101014Y-102773990D01*
X153113101Y-102748532D01*
X153129893Y-102705997D01*
X153150003Y-102649850D01*
X153167003Y-102599130D01*
X153231794Y-102400504D01*
X153281524Y-102404237D01*
X153281524Y-102404237D01*
G37*
X153281524Y-102404237D02*
X153331255Y-102407971D01*
X153461291Y-102797773D01*
X153481678Y-102728614D01*
X153493946Y-102685874D01*
X153510085Y-102628115D01*
X153527512Y-102564625D01*
X153536726Y-102530570D01*
X153571388Y-102401683D01*
X153714391Y-102401683D01*
X153671646Y-102536857D01*
X153650596Y-102603342D01*
X153625167Y-102683539D01*
X153598610Y-102767193D01*
X153574902Y-102841782D01*
X153520902Y-103011535D01*
X153462598Y-103015328D01*
X153404295Y-103019122D01*
X153372679Y-102914734D01*
X153353182Y-102849889D01*
X153331904Y-102778400D01*
X153313308Y-102715263D01*
X153312574Y-102712750D01*
X153298684Y-102669969D01*
X153286429Y-102640779D01*
X153277846Y-102629741D01*
X153276082Y-102631018D01*
X153269891Y-102648130D01*
X153258128Y-102684787D01*
X153242225Y-102736378D01*
X153223614Y-102798294D01*
X153213543Y-102832352D01*
X153159007Y-103017822D01*
X153043264Y-103017822D01*
X152950737Y-102725471D01*
X152924744Y-102643462D01*
X152901066Y-102568987D01*
X152880820Y-102505544D01*
X152865126Y-102456632D01*
X152855102Y-102425749D01*
X152852055Y-102416726D01*
X152854467Y-102407487D01*
X152873408Y-102403441D01*
X152912823Y-102403846D01*
X152918993Y-102404152D01*
X152992086Y-102407971D01*
X153039957Y-102584010D01*
X153057553Y-102648211D01*
X153073277Y-102704649D01*
X153085746Y-102748422D01*
X153093574Y-102774630D01*
X153095020Y-102778903D01*
X153101014Y-102773990D01*
X153113101Y-102748532D01*
X153129893Y-102705997D01*
X153150003Y-102649850D01*
X153167003Y-102599130D01*
X153231794Y-102400504D01*
X153281524Y-102404237D01*
G36*
X152798812Y-103017822D02*
G01*
X152729654Y-103017822D01*
X152689512Y-103016645D01*
X152668606Y-103011772D01*
X152661078Y-103001186D01*
X152660495Y-102994029D01*
X152659226Y-102979676D01*
X152651221Y-102976923D01*
X152630185Y-102985771D01*
X152613827Y-102994029D01*
X152551023Y-103013597D01*
X152482752Y-103014729D01*
X152427248Y-103000135D01*
X152375562Y-102964877D01*
X152336162Y-102912835D01*
X152314587Y-102851450D01*
X152314038Y-102848018D01*
X152310833Y-102810571D01*
X152309239Y-102756813D01*
X152309367Y-102716155D01*
X152446721Y-102716155D01*
X152449903Y-102770194D01*
X152457141Y-102814735D01*
X152466940Y-102839888D01*
X152504011Y-102874260D01*
X152548026Y-102886582D01*
X152593416Y-102876618D01*
X152632203Y-102846895D01*
X152646892Y-102826905D01*
X152655481Y-102803050D01*
X152659504Y-102768230D01*
X152660495Y-102715930D01*
X152658722Y-102664139D01*
X152654037Y-102618634D01*
X152647397Y-102588181D01*
X152646290Y-102585452D01*
X152619509Y-102553000D01*
X152580421Y-102535183D01*
X152536685Y-102532306D01*
X152495962Y-102544674D01*
X152465913Y-102572593D01*
X152462796Y-102578148D01*
X152453039Y-102612022D01*
X152447723Y-102660728D01*
X152446721Y-102716155D01*
X152309367Y-102716155D01*
X152309432Y-102695540D01*
X152310336Y-102662563D01*
X152316486Y-102580981D01*
X152329267Y-102519730D01*
X152350529Y-102474449D01*
X152382122Y-102440779D01*
X152412793Y-102421014D01*
X152455646Y-102407120D01*
X152508944Y-102402354D01*
X152563520Y-102406236D01*
X152610208Y-102418282D01*
X152634876Y-102432693D01*
X152660495Y-102455878D01*
X152660495Y-102162773D01*
X152798812Y-102162773D01*
X152798812Y-103017822D01*
X152798812Y-103017822D01*
G37*
X152798812Y-103017822D02*
X152729654Y-103017822D01*
X152689512Y-103016645D01*
X152668606Y-103011772D01*
X152661078Y-103001186D01*
X152660495Y-102994029D01*
X152659226Y-102979676D01*
X152651221Y-102976923D01*
X152630185Y-102985771D01*
X152613827Y-102994029D01*
X152551023Y-103013597D01*
X152482752Y-103014729D01*
X152427248Y-103000135D01*
X152375562Y-102964877D01*
X152336162Y-102912835D01*
X152314587Y-102851450D01*
X152314038Y-102848018D01*
X152310833Y-102810571D01*
X152309239Y-102756813D01*
X152309367Y-102716155D01*
X152446721Y-102716155D01*
X152449903Y-102770194D01*
X152457141Y-102814735D01*
X152466940Y-102839888D01*
X152504011Y-102874260D01*
X152548026Y-102886582D01*
X152593416Y-102876618D01*
X152632203Y-102846895D01*
X152646892Y-102826905D01*
X152655481Y-102803050D01*
X152659504Y-102768230D01*
X152660495Y-102715930D01*
X152658722Y-102664139D01*
X152654037Y-102618634D01*
X152647397Y-102588181D01*
X152646290Y-102585452D01*
X152619509Y-102553000D01*
X152580421Y-102535183D01*
X152536685Y-102532306D01*
X152495962Y-102544674D01*
X152465913Y-102572593D01*
X152462796Y-102578148D01*
X152453039Y-102612022D01*
X152447723Y-102660728D01*
X152446721Y-102716155D01*
X152309367Y-102716155D01*
X152309432Y-102695540D01*
X152310336Y-102662563D01*
X152316486Y-102580981D01*
X152329267Y-102519730D01*
X152350529Y-102474449D01*
X152382122Y-102440779D01*
X152412793Y-102421014D01*
X152455646Y-102407120D01*
X152508944Y-102402354D01*
X152563520Y-102406236D01*
X152610208Y-102418282D01*
X152634876Y-102432693D01*
X152660495Y-102455878D01*
X152660495Y-102162773D01*
X152798812Y-102162773D01*
X152798812Y-103017822D01*
G36*
X152006644Y-102403020D02*
G01*
X152025461Y-102408660D01*
X152031527Y-102421053D01*
X152031782Y-102426647D01*
X152032871Y-102442230D01*
X152040368Y-102444676D01*
X152060619Y-102433993D01*
X152072649Y-102426694D01*
X152110600Y-102411063D01*
X152155928Y-102403334D01*
X152203456Y-102402740D01*
X152248005Y-102408513D01*
X152284398Y-102419884D01*
X152307457Y-102436088D01*
X152312004Y-102456355D01*
X152309709Y-102461843D01*
X152292980Y-102484626D01*
X152267037Y-102512647D01*
X152262345Y-102517177D01*
X152237617Y-102538005D01*
X152216282Y-102544735D01*
X152186445Y-102540038D01*
X152174492Y-102536917D01*
X152137295Y-102529421D01*
X152111141Y-102532792D01*
X152089054Y-102544681D01*
X152068822Y-102560635D01*
X152053921Y-102580700D01*
X152043566Y-102608702D01*
X152036971Y-102648467D01*
X152033351Y-102703823D01*
X152031922Y-102778594D01*
X152031782Y-102823740D01*
X152031782Y-103017822D01*
X151906040Y-103017822D01*
X151906040Y-102401683D01*
X151968911Y-102401683D01*
X152006644Y-102403020D01*
X152006644Y-102403020D01*
G37*
X152006644Y-102403020D02*
X152025461Y-102408660D01*
X152031527Y-102421053D01*
X152031782Y-102426647D01*
X152032871Y-102442230D01*
X152040368Y-102444676D01*
X152060619Y-102433993D01*
X152072649Y-102426694D01*
X152110600Y-102411063D01*
X152155928Y-102403334D01*
X152203456Y-102402740D01*
X152248005Y-102408513D01*
X152284398Y-102419884D01*
X152307457Y-102436088D01*
X152312004Y-102456355D01*
X152309709Y-102461843D01*
X152292980Y-102484626D01*
X152267037Y-102512647D01*
X152262345Y-102517177D01*
X152237617Y-102538005D01*
X152216282Y-102544735D01*
X152186445Y-102540038D01*
X152174492Y-102536917D01*
X152137295Y-102529421D01*
X152111141Y-102532792D01*
X152089054Y-102544681D01*
X152068822Y-102560635D01*
X152053921Y-102580700D01*
X152043566Y-102608702D01*
X152036971Y-102648467D01*
X152033351Y-102703823D01*
X152031922Y-102778594D01*
X152031782Y-102823740D01*
X152031782Y-103017822D01*
X151906040Y-103017822D01*
X151906040Y-102401683D01*
X151968911Y-102401683D01*
X152006644Y-102403020D01*
G36*
X151615790Y-102406555D02*
G01*
X151674945Y-102422339D01*
X151719977Y-102450948D01*
X151751754Y-102488419D01*
X151761634Y-102504411D01*
X151768927Y-102521163D01*
X151774026Y-102542592D01*
X151777321Y-102572616D01*
X151779203Y-102615154D01*
X151780063Y-102674122D01*
X151780293Y-102753440D01*
X151780297Y-102774484D01*
X151780297Y-103017822D01*
X151719941Y-103017822D01*
X151681443Y-103015126D01*
X151652977Y-103008295D01*
X151645845Y-103004083D01*
X151626348Y-102996813D01*
X151606434Y-103004083D01*
X151573647Y-103013160D01*
X151526022Y-103016813D01*
X151473236Y-103015228D01*
X151424964Y-103008589D01*
X151396782Y-103000072D01*
X151342247Y-102965063D01*
X151308165Y-102916479D01*
X151292843Y-102851882D01*
X151292701Y-102850223D01*
X151294045Y-102821566D01*
X151415644Y-102821566D01*
X151426274Y-102854161D01*
X151443590Y-102872505D01*
X151478348Y-102886379D01*
X151524227Y-102891917D01*
X151571012Y-102889191D01*
X151608486Y-102878274D01*
X151618985Y-102871269D01*
X151637332Y-102838904D01*
X151641980Y-102802111D01*
X151641980Y-102753763D01*
X151572418Y-102753763D01*
X151506333Y-102758850D01*
X151456236Y-102773263D01*
X151425071Y-102795729D01*
X151415644Y-102821566D01*
X151294045Y-102821566D01*
X151296013Y-102779647D01*
X151319290Y-102723845D01*
X151363052Y-102681647D01*
X151369101Y-102677808D01*
X151395093Y-102665309D01*
X151427265Y-102657740D01*
X151472240Y-102654061D01*
X151525669Y-102653216D01*
X151641980Y-102653169D01*
X151641980Y-102604411D01*
X151637047Y-102566581D01*
X151624457Y-102541236D01*
X151622983Y-102539887D01*
X151594966Y-102528800D01*
X151552674Y-102524503D01*
X151505936Y-102526615D01*
X151464582Y-102534756D01*
X151440043Y-102546965D01*
X151426747Y-102556746D01*
X151412706Y-102558613D01*
X151393329Y-102550600D01*
X151364024Y-102530739D01*
X151320197Y-102497063D01*
X151316175Y-102493909D01*
X151318236Y-102482236D01*
X151335432Y-102462822D01*
X151361567Y-102441248D01*
X151390448Y-102423096D01*
X151399522Y-102418809D01*
X151432620Y-102410256D01*
X151481120Y-102404155D01*
X151535305Y-102401708D01*
X151537839Y-102401703D01*
X151615790Y-102406555D01*
X151615790Y-102406555D01*
G37*
X151615790Y-102406555D02*
X151674945Y-102422339D01*
X151719977Y-102450948D01*
X151751754Y-102488419D01*
X151761634Y-102504411D01*
X151768927Y-102521163D01*
X151774026Y-102542592D01*
X151777321Y-102572616D01*
X151779203Y-102615154D01*
X151780063Y-102674122D01*
X151780293Y-102753440D01*
X151780297Y-102774484D01*
X151780297Y-103017822D01*
X151719941Y-103017822D01*
X151681443Y-103015126D01*
X151652977Y-103008295D01*
X151645845Y-103004083D01*
X151626348Y-102996813D01*
X151606434Y-103004083D01*
X151573647Y-103013160D01*
X151526022Y-103016813D01*
X151473236Y-103015228D01*
X151424964Y-103008589D01*
X151396782Y-103000072D01*
X151342247Y-102965063D01*
X151308165Y-102916479D01*
X151292843Y-102851882D01*
X151292701Y-102850223D01*
X151294045Y-102821566D01*
X151415644Y-102821566D01*
X151426274Y-102854161D01*
X151443590Y-102872505D01*
X151478348Y-102886379D01*
X151524227Y-102891917D01*
X151571012Y-102889191D01*
X151608486Y-102878274D01*
X151618985Y-102871269D01*
X151637332Y-102838904D01*
X151641980Y-102802111D01*
X151641980Y-102753763D01*
X151572418Y-102753763D01*
X151506333Y-102758850D01*
X151456236Y-102773263D01*
X151425071Y-102795729D01*
X151415644Y-102821566D01*
X151294045Y-102821566D01*
X151296013Y-102779647D01*
X151319290Y-102723845D01*
X151363052Y-102681647D01*
X151369101Y-102677808D01*
X151395093Y-102665309D01*
X151427265Y-102657740D01*
X151472240Y-102654061D01*
X151525669Y-102653216D01*
X151641980Y-102653169D01*
X151641980Y-102604411D01*
X151637047Y-102566581D01*
X151624457Y-102541236D01*
X151622983Y-102539887D01*
X151594966Y-102528800D01*
X151552674Y-102524503D01*
X151505936Y-102526615D01*
X151464582Y-102534756D01*
X151440043Y-102546965D01*
X151426747Y-102556746D01*
X151412706Y-102558613D01*
X151393329Y-102550600D01*
X151364024Y-102530739D01*
X151320197Y-102497063D01*
X151316175Y-102493909D01*
X151318236Y-102482236D01*
X151335432Y-102462822D01*
X151361567Y-102441248D01*
X151390448Y-102423096D01*
X151399522Y-102418809D01*
X151432620Y-102410256D01*
X151481120Y-102404155D01*
X151535305Y-102401708D01*
X151537839Y-102401703D01*
X151615790Y-102406555D01*
G36*
X151091241Y-101469184D02*
G01*
X151117753Y-101482282D01*
X151150447Y-101505106D01*
X151174275Y-101529996D01*
X151190594Y-101561249D01*
X151200760Y-101603166D01*
X151206128Y-101660044D01*
X151208056Y-101736184D01*
X151208169Y-101768917D01*
X151207839Y-101840656D01*
X151206473Y-101891927D01*
X151203500Y-101927404D01*
X151198351Y-101951763D01*
X151190457Y-101969680D01*
X151182243Y-101981902D01*
X151129813Y-102033905D01*
X151068070Y-102065184D01*
X151001464Y-102074592D01*
X150934442Y-102060980D01*
X150913208Y-102051354D01*
X150862376Y-102024859D01*
X150862376Y-102440052D01*
X150899475Y-102420868D01*
X150948357Y-102406025D01*
X151008439Y-102402222D01*
X151068436Y-102409243D01*
X151113744Y-102425013D01*
X151151325Y-102455047D01*
X151183436Y-102498024D01*
X151185850Y-102502436D01*
X151196033Y-102523221D01*
X151203470Y-102544170D01*
X151208589Y-102569548D01*
X151211819Y-102603618D01*
X151213587Y-102650641D01*
X151214323Y-102714882D01*
X151214456Y-102787176D01*
X151214456Y-103017822D01*
X151076139Y-103017822D01*
X151076139Y-102592533D01*
X151037451Y-102559979D01*
X150997262Y-102533940D01*
X150959203Y-102529205D01*
X150920934Y-102541389D01*
X150900538Y-102553320D01*
X150885358Y-102570313D01*
X150874562Y-102595995D01*
X150867317Y-102633991D01*
X150862792Y-102687926D01*
X150860156Y-102761425D01*
X150859228Y-102810347D01*
X150856089Y-103011535D01*
X150790074Y-103015336D01*
X150724060Y-103019136D01*
X150724060Y-101770650D01*
X150862376Y-101770650D01*
X150865903Y-101840254D01*
X150877785Y-101888569D01*
X150899980Y-101918631D01*
X150934441Y-101933471D01*
X150969258Y-101936436D01*
X151008671Y-101933028D01*
X151034829Y-101919617D01*
X151051186Y-101901896D01*
X151064063Y-101882835D01*
X151071728Y-101861601D01*
X151075139Y-101831849D01*
X151075251Y-101787236D01*
X151074103Y-101749880D01*
X151071468Y-101693604D01*
X151067544Y-101656658D01*
X151060937Y-101633223D01*
X151050251Y-101617480D01*
X151040167Y-101608380D01*
X150998030Y-101588537D01*
X150948160Y-101585332D01*
X150919524Y-101592168D01*
X150891172Y-101616464D01*
X150872391Y-101663728D01*
X150863288Y-101733624D01*
X150862376Y-101770650D01*
X150724060Y-101770650D01*
X150724060Y-101458614D01*
X150793218Y-101458614D01*
X150834740Y-101460256D01*
X150856162Y-101466087D01*
X150862374Y-101477461D01*
X150862376Y-101477798D01*
X150865258Y-101488938D01*
X150877970Y-101487673D01*
X150903243Y-101475433D01*
X150962131Y-101456707D01*
X151028385Y-101454739D01*
X151091241Y-101469184D01*
X151091241Y-101469184D01*
G37*
X151091241Y-101469184D02*
X151117753Y-101482282D01*
X151150447Y-101505106D01*
X151174275Y-101529996D01*
X151190594Y-101561249D01*
X151200760Y-101603166D01*
X151206128Y-101660044D01*
X151208056Y-101736184D01*
X151208169Y-101768917D01*
X151207839Y-101840656D01*
X151206473Y-101891927D01*
X151203500Y-101927404D01*
X151198351Y-101951763D01*
X151190457Y-101969680D01*
X151182243Y-101981902D01*
X151129813Y-102033905D01*
X151068070Y-102065184D01*
X151001464Y-102074592D01*
X150934442Y-102060980D01*
X150913208Y-102051354D01*
X150862376Y-102024859D01*
X150862376Y-102440052D01*
X150899475Y-102420868D01*
X150948357Y-102406025D01*
X151008439Y-102402222D01*
X151068436Y-102409243D01*
X151113744Y-102425013D01*
X151151325Y-102455047D01*
X151183436Y-102498024D01*
X151185850Y-102502436D01*
X151196033Y-102523221D01*
X151203470Y-102544170D01*
X151208589Y-102569548D01*
X151211819Y-102603618D01*
X151213587Y-102650641D01*
X151214323Y-102714882D01*
X151214456Y-102787176D01*
X151214456Y-103017822D01*
X151076139Y-103017822D01*
X151076139Y-102592533D01*
X151037451Y-102559979D01*
X150997262Y-102533940D01*
X150959203Y-102529205D01*
X150920934Y-102541389D01*
X150900538Y-102553320D01*
X150885358Y-102570313D01*
X150874562Y-102595995D01*
X150867317Y-102633991D01*
X150862792Y-102687926D01*
X150860156Y-102761425D01*
X150859228Y-102810347D01*
X150856089Y-103011535D01*
X150790074Y-103015336D01*
X150724060Y-103019136D01*
X150724060Y-101770650D01*
X150862376Y-101770650D01*
X150865903Y-101840254D01*
X150877785Y-101888569D01*
X150899980Y-101918631D01*
X150934441Y-101933471D01*
X150969258Y-101936436D01*
X151008671Y-101933028D01*
X151034829Y-101919617D01*
X151051186Y-101901896D01*
X151064063Y-101882835D01*
X151071728Y-101861601D01*
X151075139Y-101831849D01*
X151075251Y-101787236D01*
X151074103Y-101749880D01*
X151071468Y-101693604D01*
X151067544Y-101656658D01*
X151060937Y-101633223D01*
X151050251Y-101617480D01*
X151040167Y-101608380D01*
X150998030Y-101588537D01*
X150948160Y-101585332D01*
X150919524Y-101592168D01*
X150891172Y-101616464D01*
X150872391Y-101663728D01*
X150863288Y-101733624D01*
X150862376Y-101770650D01*
X150724060Y-101770650D01*
X150724060Y-101458614D01*
X150793218Y-101458614D01*
X150834740Y-101460256D01*
X150856162Y-101466087D01*
X150862374Y-101477461D01*
X150862376Y-101477798D01*
X150865258Y-101488938D01*
X150877970Y-101487673D01*
X150903243Y-101475433D01*
X150962131Y-101456707D01*
X151028385Y-101454739D01*
X151091241Y-101469184D01*
D10*
X101306380Y-65531904D02*
X102115904Y-65531904D01*
X102211142Y-65484285D01*
X102258761Y-65436666D01*
X102306380Y-65341428D01*
X102306380Y-65150952D01*
X102258761Y-65055714D01*
X102211142Y-65008095D01*
X102115904Y-64960476D01*
X101306380Y-64960476D01*
X101734952Y-64341428D02*
X101687333Y-64436666D01*
X101639714Y-64484285D01*
X101544476Y-64531904D01*
X101496857Y-64531904D01*
X101401619Y-64484285D01*
X101354000Y-64436666D01*
X101306380Y-64341428D01*
X101306380Y-64150952D01*
X101354000Y-64055714D01*
X101401619Y-64008095D01*
X101496857Y-63960476D01*
X101544476Y-63960476D01*
X101639714Y-64008095D01*
X101687333Y-64055714D01*
X101734952Y-64150952D01*
X101734952Y-64341428D01*
X101782571Y-64436666D01*
X101830190Y-64484285D01*
X101925428Y-64531904D01*
X102115904Y-64531904D01*
X102211142Y-64484285D01*
X102258761Y-64436666D01*
X102306380Y-64341428D01*
X102306380Y-64150952D01*
X102258761Y-64055714D01*
X102211142Y-64008095D01*
X102115904Y-63960476D01*
X101925428Y-63960476D01*
X101830190Y-64008095D01*
X101782571Y-64055714D01*
X101734952Y-64150952D01*
X118483142Y-119366380D02*
X118149809Y-118890190D01*
X117911714Y-119366380D02*
X117911714Y-118366380D01*
X118292666Y-118366380D01*
X118387904Y-118414000D01*
X118435523Y-118461619D01*
X118483142Y-118556857D01*
X118483142Y-118699714D01*
X118435523Y-118794952D01*
X118387904Y-118842571D01*
X118292666Y-118890190D01*
X117911714Y-118890190D01*
X118864095Y-118461619D02*
X118911714Y-118414000D01*
X119006952Y-118366380D01*
X119245047Y-118366380D01*
X119340285Y-118414000D01*
X119387904Y-118461619D01*
X119435523Y-118556857D01*
X119435523Y-118652095D01*
X119387904Y-118794952D01*
X118816476Y-119366380D01*
X119435523Y-119366380D01*
X120006952Y-118794952D02*
X119911714Y-118747333D01*
X119864095Y-118699714D01*
X119816476Y-118604476D01*
X119816476Y-118556857D01*
X119864095Y-118461619D01*
X119911714Y-118414000D01*
X120006952Y-118366380D01*
X120197428Y-118366380D01*
X120292666Y-118414000D01*
X120340285Y-118461619D01*
X120387904Y-118556857D01*
X120387904Y-118604476D01*
X120340285Y-118699714D01*
X120292666Y-118747333D01*
X120197428Y-118794952D01*
X120006952Y-118794952D01*
X119911714Y-118842571D01*
X119864095Y-118890190D01*
X119816476Y-118985428D01*
X119816476Y-119175904D01*
X119864095Y-119271142D01*
X119911714Y-119318761D01*
X120006952Y-119366380D01*
X120197428Y-119366380D01*
X120292666Y-119318761D01*
X120340285Y-119271142D01*
X120387904Y-119175904D01*
X120387904Y-118985428D01*
X120340285Y-118890190D01*
X120292666Y-118842571D01*
X120197428Y-118794952D01*
X122880380Y-115196857D02*
X122404190Y-115530190D01*
X122880380Y-115768285D02*
X121880380Y-115768285D01*
X121880380Y-115387333D01*
X121928000Y-115292095D01*
X121975619Y-115244476D01*
X122070857Y-115196857D01*
X122213714Y-115196857D01*
X122308952Y-115244476D01*
X122356571Y-115292095D01*
X122404190Y-115387333D01*
X122404190Y-115768285D01*
X121975619Y-114815904D02*
X121928000Y-114768285D01*
X121880380Y-114673047D01*
X121880380Y-114434952D01*
X121928000Y-114339714D01*
X121975619Y-114292095D01*
X122070857Y-114244476D01*
X122166095Y-114244476D01*
X122308952Y-114292095D01*
X122880380Y-114863523D01*
X122880380Y-114244476D01*
X121880380Y-113911142D02*
X121880380Y-113244476D01*
X122880380Y-113673047D01*
X118483142Y-110688380D02*
X118149809Y-110212190D01*
X117911714Y-110688380D02*
X117911714Y-109688380D01*
X118292666Y-109688380D01*
X118387904Y-109736000D01*
X118435523Y-109783619D01*
X118483142Y-109878857D01*
X118483142Y-110021714D01*
X118435523Y-110116952D01*
X118387904Y-110164571D01*
X118292666Y-110212190D01*
X117911714Y-110212190D01*
X118864095Y-109783619D02*
X118911714Y-109736000D01*
X119006952Y-109688380D01*
X119245047Y-109688380D01*
X119340285Y-109736000D01*
X119387904Y-109783619D01*
X119435523Y-109878857D01*
X119435523Y-109974095D01*
X119387904Y-110116952D01*
X118816476Y-110688380D01*
X119435523Y-110688380D01*
X120292666Y-109688380D02*
X120102190Y-109688380D01*
X120006952Y-109736000D01*
X119959333Y-109783619D01*
X119864095Y-109926476D01*
X119816476Y-110116952D01*
X119816476Y-110497904D01*
X119864095Y-110593142D01*
X119911714Y-110640761D01*
X120006952Y-110688380D01*
X120197428Y-110688380D01*
X120292666Y-110640761D01*
X120340285Y-110593142D01*
X120387904Y-110497904D01*
X120387904Y-110259809D01*
X120340285Y-110164571D01*
X120292666Y-110116952D01*
X120197428Y-110069333D01*
X120006952Y-110069333D01*
X119911714Y-110116952D01*
X119864095Y-110164571D01*
X119816476Y-110259809D01*
X126007904Y-111450380D02*
X126007904Y-110450380D01*
X126246000Y-110450380D01*
X126388857Y-110498000D01*
X126484095Y-110593238D01*
X126531714Y-110688476D01*
X126579333Y-110878952D01*
X126579333Y-111021809D01*
X126531714Y-111212285D01*
X126484095Y-111307523D01*
X126388857Y-111402761D01*
X126246000Y-111450380D01*
X126007904Y-111450380D01*
X127436476Y-110783714D02*
X127436476Y-111450380D01*
X127198380Y-110402761D02*
X126960285Y-111117047D01*
X127579333Y-111117047D01*
X104941642Y-98686857D02*
X104989261Y-98734476D01*
X105036880Y-98877333D01*
X105036880Y-98972571D01*
X104989261Y-99115428D01*
X104894023Y-99210666D01*
X104798785Y-99258285D01*
X104608309Y-99305904D01*
X104465452Y-99305904D01*
X104274976Y-99258285D01*
X104179738Y-99210666D01*
X104084500Y-99115428D01*
X104036880Y-98972571D01*
X104036880Y-98877333D01*
X104084500Y-98734476D01*
X104132119Y-98686857D01*
X105036880Y-97734476D02*
X105036880Y-98305904D01*
X105036880Y-98020190D02*
X104036880Y-98020190D01*
X104179738Y-98115428D01*
X104274976Y-98210666D01*
X104322595Y-98305904D01*
X104036880Y-96877333D02*
X104036880Y-97067809D01*
X104084500Y-97163047D01*
X104132119Y-97210666D01*
X104274976Y-97305904D01*
X104465452Y-97353523D01*
X104846404Y-97353523D01*
X104941642Y-97305904D01*
X104989261Y-97258285D01*
X105036880Y-97163047D01*
X105036880Y-96972571D01*
X104989261Y-96877333D01*
X104941642Y-96829714D01*
X104846404Y-96782095D01*
X104608309Y-96782095D01*
X104513071Y-96829714D01*
X104465452Y-96877333D01*
X104417833Y-96972571D01*
X104417833Y-97163047D01*
X104465452Y-97258285D01*
X104513071Y-97305904D01*
X104608309Y-97353523D01*
X147804285Y-81200571D02*
X147947142Y-81248190D01*
X147994761Y-81295809D01*
X148042380Y-81391047D01*
X148042380Y-81533904D01*
X147994761Y-81629142D01*
X147947142Y-81676761D01*
X147851904Y-81724380D01*
X147470952Y-81724380D01*
X147470952Y-80724380D01*
X147804285Y-80724380D01*
X147899523Y-80772000D01*
X147947142Y-80819619D01*
X147994761Y-80914857D01*
X147994761Y-81010095D01*
X147947142Y-81105333D01*
X147899523Y-81152952D01*
X147804285Y-81200571D01*
X147470952Y-81200571D01*
X148328095Y-80724380D02*
X148899523Y-80724380D01*
X148613809Y-81724380D02*
X148613809Y-80724380D01*
X149756666Y-81724380D02*
X149185238Y-81724380D01*
X149470952Y-81724380D02*
X149470952Y-80724380D01*
X149375714Y-80867238D01*
X149280476Y-80962476D01*
X149185238Y-81010095D01*
X96805380Y-73612333D02*
X97519666Y-73612333D01*
X97662523Y-73659952D01*
X97757761Y-73755190D01*
X97805380Y-73898047D01*
X97805380Y-73993285D01*
X96805380Y-72707571D02*
X96805380Y-72898047D01*
X96853000Y-72993285D01*
X96900619Y-73040904D01*
X97043476Y-73136142D01*
X97233952Y-73183761D01*
X97614904Y-73183761D01*
X97710142Y-73136142D01*
X97757761Y-73088523D01*
X97805380Y-72993285D01*
X97805380Y-72802809D01*
X97757761Y-72707571D01*
X97710142Y-72659952D01*
X97614904Y-72612333D01*
X97376809Y-72612333D01*
X97281571Y-72659952D01*
X97233952Y-72707571D01*
X97186333Y-72802809D01*
X97186333Y-72993285D01*
X97233952Y-73088523D01*
X97281571Y-73136142D01*
X97376809Y-73183761D01*
X129235380Y-87054857D02*
X128759190Y-87388190D01*
X129235380Y-87626285D02*
X128235380Y-87626285D01*
X128235380Y-87245333D01*
X128283000Y-87150095D01*
X128330619Y-87102476D01*
X128425857Y-87054857D01*
X128568714Y-87054857D01*
X128663952Y-87102476D01*
X128711571Y-87150095D01*
X128759190Y-87245333D01*
X128759190Y-87626285D01*
X128330619Y-86673904D02*
X128283000Y-86626285D01*
X128235380Y-86531047D01*
X128235380Y-86292952D01*
X128283000Y-86197714D01*
X128330619Y-86150095D01*
X128425857Y-86102476D01*
X128521095Y-86102476D01*
X128663952Y-86150095D01*
X129235380Y-86721523D01*
X129235380Y-86102476D01*
X128235380Y-85197714D02*
X128235380Y-85673904D01*
X128711571Y-85721523D01*
X128663952Y-85673904D01*
X128616333Y-85578666D01*
X128616333Y-85340571D01*
X128663952Y-85245333D01*
X128711571Y-85197714D01*
X128806809Y-85150095D01*
X129044904Y-85150095D01*
X129140142Y-85197714D01*
X129187761Y-85245333D01*
X129235380Y-85340571D01*
X129235380Y-85578666D01*
X129187761Y-85673904D01*
X129140142Y-85721523D01*
X133469142Y-72419380D02*
X133135809Y-71943190D01*
X132897714Y-72419380D02*
X132897714Y-71419380D01*
X133278666Y-71419380D01*
X133373904Y-71467000D01*
X133421523Y-71514619D01*
X133469142Y-71609857D01*
X133469142Y-71752714D01*
X133421523Y-71847952D01*
X133373904Y-71895571D01*
X133278666Y-71943190D01*
X132897714Y-71943190D01*
X133850095Y-71514619D02*
X133897714Y-71467000D01*
X133992952Y-71419380D01*
X134231047Y-71419380D01*
X134326285Y-71467000D01*
X134373904Y-71514619D01*
X134421523Y-71609857D01*
X134421523Y-71705095D01*
X134373904Y-71847952D01*
X133802476Y-72419380D01*
X134421523Y-72419380D01*
X135278666Y-71752714D02*
X135278666Y-72419380D01*
X135040571Y-71371761D02*
X134802476Y-72086047D01*
X135421523Y-72086047D01*
X107688142Y-70302380D02*
X107354809Y-69826190D01*
X107116714Y-70302380D02*
X107116714Y-69302380D01*
X107497666Y-69302380D01*
X107592904Y-69350000D01*
X107640523Y-69397619D01*
X107688142Y-69492857D01*
X107688142Y-69635714D01*
X107640523Y-69730952D01*
X107592904Y-69778571D01*
X107497666Y-69826190D01*
X107116714Y-69826190D01*
X108069095Y-69397619D02*
X108116714Y-69350000D01*
X108211952Y-69302380D01*
X108450047Y-69302380D01*
X108545285Y-69350000D01*
X108592904Y-69397619D01*
X108640523Y-69492857D01*
X108640523Y-69588095D01*
X108592904Y-69730952D01*
X108021476Y-70302380D01*
X108640523Y-70302380D01*
X108973857Y-69302380D02*
X109592904Y-69302380D01*
X109259571Y-69683333D01*
X109402428Y-69683333D01*
X109497666Y-69730952D01*
X109545285Y-69778571D01*
X109592904Y-69873809D01*
X109592904Y-70111904D01*
X109545285Y-70207142D01*
X109497666Y-70254761D01*
X109402428Y-70302380D01*
X109116714Y-70302380D01*
X109021476Y-70254761D01*
X108973857Y-70207142D01*
X105624333Y-59766380D02*
X105148142Y-59766380D01*
X105148142Y-58766380D01*
X105910047Y-58861619D02*
X105957666Y-58814000D01*
X106052904Y-58766380D01*
X106291000Y-58766380D01*
X106386238Y-58814000D01*
X106433857Y-58861619D01*
X106481476Y-58956857D01*
X106481476Y-59052095D01*
X106433857Y-59194952D01*
X105862428Y-59766380D01*
X106481476Y-59766380D01*
X111426666Y-64222380D02*
X111426666Y-64936666D01*
X111379047Y-65079523D01*
X111283809Y-65174761D01*
X111140952Y-65222380D01*
X111045714Y-65222380D01*
X112045714Y-64650952D02*
X111950476Y-64603333D01*
X111902857Y-64555714D01*
X111855238Y-64460476D01*
X111855238Y-64412857D01*
X111902857Y-64317619D01*
X111950476Y-64270000D01*
X112045714Y-64222380D01*
X112236190Y-64222380D01*
X112331428Y-64270000D01*
X112379047Y-64317619D01*
X112426666Y-64412857D01*
X112426666Y-64460476D01*
X112379047Y-64555714D01*
X112331428Y-64603333D01*
X112236190Y-64650952D01*
X112045714Y-64650952D01*
X111950476Y-64698571D01*
X111902857Y-64746190D01*
X111855238Y-64841428D01*
X111855238Y-65031904D01*
X111902857Y-65127142D01*
X111950476Y-65174761D01*
X112045714Y-65222380D01*
X112236190Y-65222380D01*
X112331428Y-65174761D01*
X112379047Y-65127142D01*
X112426666Y-65031904D01*
X112426666Y-64841428D01*
X112379047Y-64746190D01*
X112331428Y-64698571D01*
X112236190Y-64650952D01*
X113482857Y-65222380D02*
X113482857Y-64222380D01*
X113863809Y-64222380D01*
X113959047Y-64270000D01*
X114006666Y-64317619D01*
X114054285Y-64412857D01*
X114054285Y-64555714D01*
X114006666Y-64650952D01*
X113959047Y-64698571D01*
X113863809Y-64746190D01*
X113482857Y-64746190D01*
X114482857Y-65222380D02*
X114482857Y-64222380D01*
X114911428Y-65222380D02*
X114911428Y-64698571D01*
X114863809Y-64603333D01*
X114768571Y-64555714D01*
X114625714Y-64555714D01*
X114530476Y-64603333D01*
X114482857Y-64650952D01*
X115530476Y-65222380D02*
X115435238Y-65174761D01*
X115387619Y-65127142D01*
X115340000Y-65031904D01*
X115340000Y-64746190D01*
X115387619Y-64650952D01*
X115435238Y-64603333D01*
X115530476Y-64555714D01*
X115673333Y-64555714D01*
X115768571Y-64603333D01*
X115816190Y-64650952D01*
X115863809Y-64746190D01*
X115863809Y-65031904D01*
X115816190Y-65127142D01*
X115768571Y-65174761D01*
X115673333Y-65222380D01*
X115530476Y-65222380D01*
X116149523Y-64555714D02*
X116530476Y-64555714D01*
X116292380Y-64222380D02*
X116292380Y-65079523D01*
X116340000Y-65174761D01*
X116435238Y-65222380D01*
X116530476Y-65222380D01*
X117006666Y-65222380D02*
X116911428Y-65174761D01*
X116863809Y-65127142D01*
X116816190Y-65031904D01*
X116816190Y-64746190D01*
X116863809Y-64650952D01*
X116911428Y-64603333D01*
X117006666Y-64555714D01*
X117149523Y-64555714D01*
X117244761Y-64603333D01*
X117292380Y-64650952D01*
X117340000Y-64746190D01*
X117340000Y-65031904D01*
X117292380Y-65127142D01*
X117244761Y-65174761D01*
X117149523Y-65222380D01*
X117006666Y-65222380D01*
X118340000Y-65127142D02*
X118292380Y-65174761D01*
X118149523Y-65222380D01*
X118054285Y-65222380D01*
X117911428Y-65174761D01*
X117816190Y-65079523D01*
X117768571Y-64984285D01*
X117720952Y-64793809D01*
X117720952Y-64650952D01*
X117768571Y-64460476D01*
X117816190Y-64365238D01*
X117911428Y-64270000D01*
X118054285Y-64222380D01*
X118149523Y-64222380D01*
X118292380Y-64270000D01*
X118340000Y-64317619D01*
X119149523Y-65174761D02*
X119054285Y-65222380D01*
X118863809Y-65222380D01*
X118768571Y-65174761D01*
X118720952Y-65079523D01*
X118720952Y-64698571D01*
X118768571Y-64603333D01*
X118863809Y-64555714D01*
X119054285Y-64555714D01*
X119149523Y-64603333D01*
X119197142Y-64698571D01*
X119197142Y-64793809D01*
X118720952Y-64889047D01*
X119768571Y-65222380D02*
X119673333Y-65174761D01*
X119625714Y-65079523D01*
X119625714Y-64222380D01*
X120292380Y-65222380D02*
X120197142Y-65174761D01*
X120149523Y-65079523D01*
X120149523Y-64222380D01*
X94702380Y-79835333D02*
X95416666Y-79835333D01*
X95559523Y-79882952D01*
X95654761Y-79978190D01*
X95702380Y-80121047D01*
X95702380Y-80216285D01*
X94702380Y-79454380D02*
X94702380Y-78787714D01*
X95702380Y-79216285D01*
X132993142Y-87308857D02*
X133040761Y-87356476D01*
X133088380Y-87499333D01*
X133088380Y-87594571D01*
X133040761Y-87737428D01*
X132945523Y-87832666D01*
X132850285Y-87880285D01*
X132659809Y-87927904D01*
X132516952Y-87927904D01*
X132326476Y-87880285D01*
X132231238Y-87832666D01*
X132136000Y-87737428D01*
X132088380Y-87594571D01*
X132088380Y-87499333D01*
X132136000Y-87356476D01*
X132183619Y-87308857D01*
X132183619Y-86927904D02*
X132136000Y-86880285D01*
X132088380Y-86785047D01*
X132088380Y-86546952D01*
X132136000Y-86451714D01*
X132183619Y-86404095D01*
X132278857Y-86356476D01*
X132374095Y-86356476D01*
X132516952Y-86404095D01*
X133088380Y-86975523D01*
X133088380Y-86356476D01*
X132088380Y-86023142D02*
X132088380Y-85356476D01*
X133088380Y-85785047D01*
X99179142Y-68429142D02*
X99131523Y-68476761D01*
X98988666Y-68524380D01*
X98893428Y-68524380D01*
X98750571Y-68476761D01*
X98655333Y-68381523D01*
X98607714Y-68286285D01*
X98560095Y-68095809D01*
X98560095Y-67952952D01*
X98607714Y-67762476D01*
X98655333Y-67667238D01*
X98750571Y-67572000D01*
X98893428Y-67524380D01*
X98988666Y-67524380D01*
X99131523Y-67572000D01*
X99179142Y-67619619D01*
X99560095Y-67619619D02*
X99607714Y-67572000D01*
X99702952Y-67524380D01*
X99941047Y-67524380D01*
X100036285Y-67572000D01*
X100083904Y-67619619D01*
X100131523Y-67714857D01*
X100131523Y-67810095D01*
X100083904Y-67952952D01*
X99512476Y-68524380D01*
X100131523Y-68524380D01*
X100988666Y-67524380D02*
X100798190Y-67524380D01*
X100702952Y-67572000D01*
X100655333Y-67619619D01*
X100560095Y-67762476D01*
X100512476Y-67952952D01*
X100512476Y-68333904D01*
X100560095Y-68429142D01*
X100607714Y-68476761D01*
X100702952Y-68524380D01*
X100893428Y-68524380D01*
X100988666Y-68476761D01*
X101036285Y-68429142D01*
X101083904Y-68333904D01*
X101083904Y-68095809D01*
X101036285Y-68000571D01*
X100988666Y-67952952D01*
X100893428Y-67905333D01*
X100702952Y-67905333D01*
X100607714Y-67952952D01*
X100560095Y-68000571D01*
X100512476Y-68095809D01*
X98782142Y-64396857D02*
X98829761Y-64444476D01*
X98877380Y-64587333D01*
X98877380Y-64682571D01*
X98829761Y-64825428D01*
X98734523Y-64920666D01*
X98639285Y-64968285D01*
X98448809Y-65015904D01*
X98305952Y-65015904D01*
X98115476Y-64968285D01*
X98020238Y-64920666D01*
X97925000Y-64825428D01*
X97877380Y-64682571D01*
X97877380Y-64587333D01*
X97925000Y-64444476D01*
X97972619Y-64396857D01*
X97972619Y-64015904D02*
X97925000Y-63968285D01*
X97877380Y-63873047D01*
X97877380Y-63634952D01*
X97925000Y-63539714D01*
X97972619Y-63492095D01*
X98067857Y-63444476D01*
X98163095Y-63444476D01*
X98305952Y-63492095D01*
X98877380Y-64063523D01*
X98877380Y-63444476D01*
X97877380Y-62539714D02*
X97877380Y-63015904D01*
X98353571Y-63063523D01*
X98305952Y-63015904D01*
X98258333Y-62920666D01*
X98258333Y-62682571D01*
X98305952Y-62587333D01*
X98353571Y-62539714D01*
X98448809Y-62492095D01*
X98686904Y-62492095D01*
X98782142Y-62539714D01*
X98829761Y-62587333D01*
X98877380Y-62682571D01*
X98877380Y-62920666D01*
X98829761Y-63015904D01*
X98782142Y-63063523D01*
X97782142Y-58142142D02*
X97734523Y-58189761D01*
X97591666Y-58237380D01*
X97496428Y-58237380D01*
X97353571Y-58189761D01*
X97258333Y-58094523D01*
X97210714Y-57999285D01*
X97163095Y-57808809D01*
X97163095Y-57665952D01*
X97210714Y-57475476D01*
X97258333Y-57380238D01*
X97353571Y-57285000D01*
X97496428Y-57237380D01*
X97591666Y-57237380D01*
X97734523Y-57285000D01*
X97782142Y-57332619D01*
X98163095Y-57332619D02*
X98210714Y-57285000D01*
X98305952Y-57237380D01*
X98544047Y-57237380D01*
X98639285Y-57285000D01*
X98686904Y-57332619D01*
X98734523Y-57427857D01*
X98734523Y-57523095D01*
X98686904Y-57665952D01*
X98115476Y-58237380D01*
X98734523Y-58237380D01*
X99591666Y-57570714D02*
X99591666Y-58237380D01*
X99353571Y-57189761D02*
X99115476Y-57904047D01*
X99734523Y-57904047D01*
X110508142Y-63380857D02*
X110555761Y-63428476D01*
X110603380Y-63571333D01*
X110603380Y-63666571D01*
X110555761Y-63809428D01*
X110460523Y-63904666D01*
X110365285Y-63952285D01*
X110174809Y-63999904D01*
X110031952Y-63999904D01*
X109841476Y-63952285D01*
X109746238Y-63904666D01*
X109651000Y-63809428D01*
X109603380Y-63666571D01*
X109603380Y-63571333D01*
X109651000Y-63428476D01*
X109698619Y-63380857D01*
X109698619Y-62999904D02*
X109651000Y-62952285D01*
X109603380Y-62857047D01*
X109603380Y-62618952D01*
X109651000Y-62523714D01*
X109698619Y-62476095D01*
X109793857Y-62428476D01*
X109889095Y-62428476D01*
X110031952Y-62476095D01*
X110603380Y-63047523D01*
X110603380Y-62428476D01*
X109603380Y-61809428D02*
X109603380Y-61714190D01*
X109651000Y-61618952D01*
X109698619Y-61571333D01*
X109793857Y-61523714D01*
X109984333Y-61476095D01*
X110222428Y-61476095D01*
X110412904Y-61523714D01*
X110508142Y-61571333D01*
X110555761Y-61618952D01*
X110603380Y-61714190D01*
X110603380Y-61809428D01*
X110555761Y-61904666D01*
X110508142Y-61952285D01*
X110412904Y-61999904D01*
X110222428Y-62047523D01*
X109984333Y-62047523D01*
X109793857Y-61999904D01*
X109698619Y-61952285D01*
X109651000Y-61904666D01*
X109603380Y-61809428D01*
X94908690Y-92868690D02*
X95384880Y-92868690D01*
X94384880Y-93202023D02*
X94908690Y-92868690D01*
X94384880Y-92535357D01*
X94480119Y-92249642D02*
X94432500Y-92202023D01*
X94384880Y-92106785D01*
X94384880Y-91868690D01*
X94432500Y-91773452D01*
X94480119Y-91725833D01*
X94575357Y-91678214D01*
X94670595Y-91678214D01*
X94813452Y-91725833D01*
X95384880Y-92297261D01*
X95384880Y-91678214D01*
X102901809Y-114911190D02*
X102901809Y-115387380D01*
X102568476Y-114387380D02*
X102901809Y-114911190D01*
X103235142Y-114387380D01*
X104092285Y-115387380D02*
X103520857Y-115387380D01*
X103806571Y-115387380D02*
X103806571Y-114387380D01*
X103711333Y-114530238D01*
X103616095Y-114625476D01*
X103520857Y-114673095D01*
X131084380Y-64261904D02*
X131893904Y-64261904D01*
X131989142Y-64214285D01*
X132036761Y-64166666D01*
X132084380Y-64071428D01*
X132084380Y-63880952D01*
X132036761Y-63785714D01*
X131989142Y-63738095D01*
X131893904Y-63690476D01*
X131084380Y-63690476D01*
X131084380Y-63309523D02*
X131084380Y-62642857D01*
X132084380Y-63071428D01*
X107050380Y-83565904D02*
X107859904Y-83565904D01*
X107955142Y-83518285D01*
X108002761Y-83470666D01*
X108050380Y-83375428D01*
X108050380Y-83184952D01*
X108002761Y-83089714D01*
X107955142Y-83042095D01*
X107859904Y-82994476D01*
X107050380Y-82994476D01*
X107050380Y-82089714D02*
X107050380Y-82280190D01*
X107098000Y-82375428D01*
X107145619Y-82423047D01*
X107288476Y-82518285D01*
X107478952Y-82565904D01*
X107859904Y-82565904D01*
X107955142Y-82518285D01*
X108002761Y-82470666D01*
X108050380Y-82375428D01*
X108050380Y-82184952D01*
X108002761Y-82089714D01*
X107955142Y-82042095D01*
X107859904Y-81994476D01*
X107621809Y-81994476D01*
X107526571Y-82042095D01*
X107478952Y-82089714D01*
X107431333Y-82184952D01*
X107431333Y-82375428D01*
X107478952Y-82470666D01*
X107526571Y-82518285D01*
X107621809Y-82565904D01*
X118472380Y-82168904D02*
X119281904Y-82168904D01*
X119377142Y-82121285D01*
X119424761Y-82073666D01*
X119472380Y-81978428D01*
X119472380Y-81787952D01*
X119424761Y-81692714D01*
X119377142Y-81645095D01*
X119281904Y-81597476D01*
X118472380Y-81597476D01*
X118472380Y-80645095D02*
X118472380Y-81121285D01*
X118948571Y-81168904D01*
X118900952Y-81121285D01*
X118853333Y-81026047D01*
X118853333Y-80787952D01*
X118900952Y-80692714D01*
X118948571Y-80645095D01*
X119043809Y-80597476D01*
X119281904Y-80597476D01*
X119377142Y-80645095D01*
X119424761Y-80692714D01*
X119472380Y-80787952D01*
X119472380Y-81026047D01*
X119424761Y-81121285D01*
X119377142Y-81168904D01*
X134874095Y-95767880D02*
X134874095Y-96577404D01*
X134921714Y-96672642D01*
X134969333Y-96720261D01*
X135064571Y-96767880D01*
X135255047Y-96767880D01*
X135350285Y-96720261D01*
X135397904Y-96672642D01*
X135445523Y-96577404D01*
X135445523Y-95767880D01*
X136350285Y-96101214D02*
X136350285Y-96767880D01*
X136112190Y-95720261D02*
X135874095Y-96434547D01*
X136493142Y-96434547D01*
X100076095Y-112005380D02*
X100076095Y-112814904D01*
X100123714Y-112910142D01*
X100171333Y-112957761D01*
X100266571Y-113005380D01*
X100457047Y-113005380D01*
X100552285Y-112957761D01*
X100599904Y-112910142D01*
X100647523Y-112814904D01*
X100647523Y-112005380D01*
X101028476Y-112005380D02*
X101647523Y-112005380D01*
X101314190Y-112386333D01*
X101457047Y-112386333D01*
X101552285Y-112433952D01*
X101599904Y-112481571D01*
X101647523Y-112576809D01*
X101647523Y-112814904D01*
X101599904Y-112910142D01*
X101552285Y-112957761D01*
X101457047Y-113005380D01*
X101171333Y-113005380D01*
X101076095Y-112957761D01*
X101028476Y-112910142D01*
X138430095Y-108672380D02*
X138430095Y-109481904D01*
X138477714Y-109577142D01*
X138525333Y-109624761D01*
X138620571Y-109672380D01*
X138811047Y-109672380D01*
X138906285Y-109624761D01*
X138953904Y-109577142D01*
X139001523Y-109481904D01*
X139001523Y-108672380D01*
X139430095Y-108767619D02*
X139477714Y-108720000D01*
X139572952Y-108672380D01*
X139811047Y-108672380D01*
X139906285Y-108720000D01*
X139953904Y-108767619D01*
X140001523Y-108862857D01*
X140001523Y-108958095D01*
X139953904Y-109100952D01*
X139382476Y-109672380D01*
X140001523Y-109672380D01*
X110616895Y-98765980D02*
X110616895Y-99575504D01*
X110664514Y-99670742D01*
X110712133Y-99718361D01*
X110807371Y-99765980D01*
X110997847Y-99765980D01*
X111093085Y-99718361D01*
X111140704Y-99670742D01*
X111188323Y-99575504D01*
X111188323Y-98765980D01*
X112188323Y-99765980D02*
X111616895Y-99765980D01*
X111902609Y-99765980D02*
X111902609Y-98765980D01*
X111807371Y-98908838D01*
X111712133Y-99004076D01*
X111616895Y-99051695D01*
X154496761Y-67538833D02*
X154544380Y-67395976D01*
X154544380Y-67157880D01*
X154496761Y-67062642D01*
X154449142Y-67015023D01*
X154353904Y-66967404D01*
X154258666Y-66967404D01*
X154163428Y-67015023D01*
X154115809Y-67062642D01*
X154068190Y-67157880D01*
X154020571Y-67348357D01*
X153972952Y-67443595D01*
X153925333Y-67491214D01*
X153830095Y-67538833D01*
X153734857Y-67538833D01*
X153639619Y-67491214D01*
X153592000Y-67443595D01*
X153544380Y-67348357D01*
X153544380Y-67110261D01*
X153592000Y-66967404D01*
X153544380Y-66634071D02*
X154544380Y-66395976D01*
X153830095Y-66205500D01*
X154544380Y-66015023D01*
X153544380Y-65776928D01*
X154544380Y-64872166D02*
X154544380Y-65443595D01*
X154544380Y-65157880D02*
X153544380Y-65157880D01*
X153687238Y-65253119D01*
X153782476Y-65348357D01*
X153830095Y-65443595D01*
X133310380Y-60270380D02*
X132977047Y-59794190D01*
X132738952Y-60270380D02*
X132738952Y-59270380D01*
X133119904Y-59270380D01*
X133215142Y-59318000D01*
X133262761Y-59365619D01*
X133310380Y-59460857D01*
X133310380Y-59603714D01*
X133262761Y-59698952D01*
X133215142Y-59746571D01*
X133119904Y-59794190D01*
X132738952Y-59794190D01*
X133596095Y-59270380D02*
X134167523Y-59270380D01*
X133881809Y-60270380D02*
X133881809Y-59270380D01*
X135024666Y-60270380D02*
X134453238Y-60270380D01*
X134738952Y-60270380D02*
X134738952Y-59270380D01*
X134643714Y-59413238D01*
X134548476Y-59508476D01*
X134453238Y-59556095D01*
X93035380Y-60967857D02*
X92559190Y-61301190D01*
X93035380Y-61539285D02*
X92035380Y-61539285D01*
X92035380Y-61158333D01*
X92083000Y-61063095D01*
X92130619Y-61015476D01*
X92225857Y-60967857D01*
X92368714Y-60967857D01*
X92463952Y-61015476D01*
X92511571Y-61063095D01*
X92559190Y-61158333D01*
X92559190Y-61539285D01*
X92130619Y-60586904D02*
X92083000Y-60539285D01*
X92035380Y-60444047D01*
X92035380Y-60205952D01*
X92083000Y-60110714D01*
X92130619Y-60063095D01*
X92225857Y-60015476D01*
X92321095Y-60015476D01*
X92463952Y-60063095D01*
X93035380Y-60634523D01*
X93035380Y-60015476D01*
X92130619Y-59634523D02*
X92083000Y-59586904D01*
X92035380Y-59491666D01*
X92035380Y-59253571D01*
X92083000Y-59158333D01*
X92130619Y-59110714D01*
X92225857Y-59063095D01*
X92321095Y-59063095D01*
X92463952Y-59110714D01*
X93035380Y-59682142D01*
X93035380Y-59063095D01*
X125340380Y-87054857D02*
X124864190Y-87388190D01*
X125340380Y-87626285D02*
X124340380Y-87626285D01*
X124340380Y-87245333D01*
X124388000Y-87150095D01*
X124435619Y-87102476D01*
X124530857Y-87054857D01*
X124673714Y-87054857D01*
X124768952Y-87102476D01*
X124816571Y-87150095D01*
X124864190Y-87245333D01*
X124864190Y-87626285D01*
X124435619Y-86673904D02*
X124388000Y-86626285D01*
X124340380Y-86531047D01*
X124340380Y-86292952D01*
X124388000Y-86197714D01*
X124435619Y-86150095D01*
X124530857Y-86102476D01*
X124626095Y-86102476D01*
X124768952Y-86150095D01*
X125340380Y-86721523D01*
X125340380Y-86102476D01*
X125340380Y-85150095D02*
X125340380Y-85721523D01*
X125340380Y-85435809D02*
X124340380Y-85435809D01*
X124483238Y-85531047D01*
X124578476Y-85626285D01*
X124626095Y-85721523D01*
X133469142Y-64714380D02*
X133135809Y-64238190D01*
X132897714Y-64714380D02*
X132897714Y-63714380D01*
X133278666Y-63714380D01*
X133373904Y-63762000D01*
X133421523Y-63809619D01*
X133469142Y-63904857D01*
X133469142Y-64047714D01*
X133421523Y-64142952D01*
X133373904Y-64190571D01*
X133278666Y-64238190D01*
X132897714Y-64238190D01*
X133850095Y-63809619D02*
X133897714Y-63762000D01*
X133992952Y-63714380D01*
X134231047Y-63714380D01*
X134326285Y-63762000D01*
X134373904Y-63809619D01*
X134421523Y-63904857D01*
X134421523Y-64000095D01*
X134373904Y-64142952D01*
X133802476Y-64714380D01*
X134421523Y-64714380D01*
X135040571Y-63714380D02*
X135135809Y-63714380D01*
X135231047Y-63762000D01*
X135278666Y-63809619D01*
X135326285Y-63904857D01*
X135373904Y-64095333D01*
X135373904Y-64333428D01*
X135326285Y-64523904D01*
X135278666Y-64619142D01*
X135231047Y-64666761D01*
X135135809Y-64714380D01*
X135040571Y-64714380D01*
X134945333Y-64666761D01*
X134897714Y-64619142D01*
X134850095Y-64523904D01*
X134802476Y-64333428D01*
X134802476Y-64095333D01*
X134850095Y-63904857D01*
X134897714Y-63809619D01*
X134945333Y-63762000D01*
X135040571Y-63714380D01*
X132627142Y-81107380D02*
X132293809Y-80631190D01*
X132055714Y-81107380D02*
X132055714Y-80107380D01*
X132436666Y-80107380D01*
X132531904Y-80155000D01*
X132579523Y-80202619D01*
X132627142Y-80297857D01*
X132627142Y-80440714D01*
X132579523Y-80535952D01*
X132531904Y-80583571D01*
X132436666Y-80631190D01*
X132055714Y-80631190D01*
X133579523Y-81107380D02*
X133008095Y-81107380D01*
X133293809Y-81107380D02*
X133293809Y-80107380D01*
X133198571Y-80250238D01*
X133103333Y-80345476D01*
X133008095Y-80393095D01*
X134055714Y-81107380D02*
X134246190Y-81107380D01*
X134341428Y-81059761D01*
X134389047Y-81012142D01*
X134484285Y-80869285D01*
X134531904Y-80678809D01*
X134531904Y-80297857D01*
X134484285Y-80202619D01*
X134436666Y-80155000D01*
X134341428Y-80107380D01*
X134150952Y-80107380D01*
X134055714Y-80155000D01*
X134008095Y-80202619D01*
X133960476Y-80297857D01*
X133960476Y-80535952D01*
X134008095Y-80631190D01*
X134055714Y-80678809D01*
X134150952Y-80726428D01*
X134341428Y-80726428D01*
X134436666Y-80678809D01*
X134484285Y-80631190D01*
X134531904Y-80535952D01*
X95067380Y-65158857D02*
X94591190Y-65492190D01*
X95067380Y-65730285D02*
X94067380Y-65730285D01*
X94067380Y-65349333D01*
X94115000Y-65254095D01*
X94162619Y-65206476D01*
X94257857Y-65158857D01*
X94400714Y-65158857D01*
X94495952Y-65206476D01*
X94543571Y-65254095D01*
X94591190Y-65349333D01*
X94591190Y-65730285D01*
X95067380Y-64206476D02*
X95067380Y-64777904D01*
X95067380Y-64492190D02*
X94067380Y-64492190D01*
X94210238Y-64587428D01*
X94305476Y-64682666D01*
X94353095Y-64777904D01*
X94495952Y-63635047D02*
X94448333Y-63730285D01*
X94400714Y-63777904D01*
X94305476Y-63825523D01*
X94257857Y-63825523D01*
X94162619Y-63777904D01*
X94115000Y-63730285D01*
X94067380Y-63635047D01*
X94067380Y-63444571D01*
X94115000Y-63349333D01*
X94162619Y-63301714D01*
X94257857Y-63254095D01*
X94305476Y-63254095D01*
X94400714Y-63301714D01*
X94448333Y-63349333D01*
X94495952Y-63444571D01*
X94495952Y-63635047D01*
X94543571Y-63730285D01*
X94591190Y-63777904D01*
X94686428Y-63825523D01*
X94876904Y-63825523D01*
X94972142Y-63777904D01*
X95019761Y-63730285D01*
X95067380Y-63635047D01*
X95067380Y-63444571D01*
X95019761Y-63349333D01*
X94972142Y-63301714D01*
X94876904Y-63254095D01*
X94686428Y-63254095D01*
X94591190Y-63301714D01*
X94543571Y-63349333D01*
X94495952Y-63444571D01*
X124150380Y-64142857D02*
X123674190Y-64476190D01*
X124150380Y-64714285D02*
X123150380Y-64714285D01*
X123150380Y-64333333D01*
X123198000Y-64238095D01*
X123245619Y-64190476D01*
X123340857Y-64142857D01*
X123483714Y-64142857D01*
X123578952Y-64190476D01*
X123626571Y-64238095D01*
X123674190Y-64333333D01*
X123674190Y-64714285D01*
X124150380Y-63190476D02*
X124150380Y-63761904D01*
X124150380Y-63476190D02*
X123150380Y-63476190D01*
X123293238Y-63571428D01*
X123388476Y-63666666D01*
X123436095Y-63761904D01*
X123150380Y-62857142D02*
X123150380Y-62190476D01*
X124150380Y-62619047D01*
X126658142Y-76789380D02*
X126324809Y-76313190D01*
X126086714Y-76789380D02*
X126086714Y-75789380D01*
X126467666Y-75789380D01*
X126562904Y-75837000D01*
X126610523Y-75884619D01*
X126658142Y-75979857D01*
X126658142Y-76122714D01*
X126610523Y-76217952D01*
X126562904Y-76265571D01*
X126467666Y-76313190D01*
X126086714Y-76313190D01*
X127610523Y-76789380D02*
X127039095Y-76789380D01*
X127324809Y-76789380D02*
X127324809Y-75789380D01*
X127229571Y-75932238D01*
X127134333Y-76027476D01*
X127039095Y-76075095D01*
X128467666Y-75789380D02*
X128277190Y-75789380D01*
X128181952Y-75837000D01*
X128134333Y-75884619D01*
X128039095Y-76027476D01*
X127991476Y-76217952D01*
X127991476Y-76598904D01*
X128039095Y-76694142D01*
X128086714Y-76741761D01*
X128181952Y-76789380D01*
X128372428Y-76789380D01*
X128467666Y-76741761D01*
X128515285Y-76694142D01*
X128562904Y-76598904D01*
X128562904Y-76360809D01*
X128515285Y-76265571D01*
X128467666Y-76217952D01*
X128372428Y-76170333D01*
X128181952Y-76170333D01*
X128086714Y-76217952D01*
X128039095Y-76265571D01*
X127991476Y-76360809D01*
X104592380Y-85859857D02*
X104116190Y-86193190D01*
X104592380Y-86431285D02*
X103592380Y-86431285D01*
X103592380Y-86050333D01*
X103640000Y-85955095D01*
X103687619Y-85907476D01*
X103782857Y-85859857D01*
X103925714Y-85859857D01*
X104020952Y-85907476D01*
X104068571Y-85955095D01*
X104116190Y-86050333D01*
X104116190Y-86431285D01*
X104592380Y-84907476D02*
X104592380Y-85478904D01*
X104592380Y-85193190D02*
X103592380Y-85193190D01*
X103735238Y-85288428D01*
X103830476Y-85383666D01*
X103878095Y-85478904D01*
X103592380Y-84002714D02*
X103592380Y-84478904D01*
X104068571Y-84526523D01*
X104020952Y-84478904D01*
X103973333Y-84383666D01*
X103973333Y-84145571D01*
X104020952Y-84050333D01*
X104068571Y-84002714D01*
X104163809Y-83955095D01*
X104401904Y-83955095D01*
X104497142Y-84002714D01*
X104544761Y-84050333D01*
X104592380Y-84145571D01*
X104592380Y-84383666D01*
X104544761Y-84478904D01*
X104497142Y-84526523D01*
X108148380Y-89542857D02*
X107672190Y-89876190D01*
X108148380Y-90114285D02*
X107148380Y-90114285D01*
X107148380Y-89733333D01*
X107196000Y-89638095D01*
X107243619Y-89590476D01*
X107338857Y-89542857D01*
X107481714Y-89542857D01*
X107576952Y-89590476D01*
X107624571Y-89638095D01*
X107672190Y-89733333D01*
X107672190Y-90114285D01*
X108148380Y-88590476D02*
X108148380Y-89161904D01*
X108148380Y-88876190D02*
X107148380Y-88876190D01*
X107291238Y-88971428D01*
X107386476Y-89066666D01*
X107434095Y-89161904D01*
X107481714Y-87733333D02*
X108148380Y-87733333D01*
X107100761Y-87971428D02*
X107815047Y-88209523D01*
X107815047Y-87590476D01*
X121404142Y-85289380D02*
X121070809Y-84813190D01*
X120832714Y-85289380D02*
X120832714Y-84289380D01*
X121213666Y-84289380D01*
X121308904Y-84337000D01*
X121356523Y-84384619D01*
X121404142Y-84479857D01*
X121404142Y-84622714D01*
X121356523Y-84717952D01*
X121308904Y-84765571D01*
X121213666Y-84813190D01*
X120832714Y-84813190D01*
X122356523Y-85289380D02*
X121785095Y-85289380D01*
X122070809Y-85289380D02*
X122070809Y-84289380D01*
X121975571Y-84432238D01*
X121880333Y-84527476D01*
X121785095Y-84575095D01*
X122689857Y-84289380D02*
X123308904Y-84289380D01*
X122975571Y-84670333D01*
X123118428Y-84670333D01*
X123213666Y-84717952D01*
X123261285Y-84765571D01*
X123308904Y-84860809D01*
X123308904Y-85098904D01*
X123261285Y-85194142D01*
X123213666Y-85241761D01*
X123118428Y-85289380D01*
X122832714Y-85289380D01*
X122737476Y-85241761D01*
X122689857Y-85194142D01*
X114165142Y-73604380D02*
X113831809Y-73128190D01*
X113593714Y-73604380D02*
X113593714Y-72604380D01*
X113974666Y-72604380D01*
X114069904Y-72652000D01*
X114117523Y-72699619D01*
X114165142Y-72794857D01*
X114165142Y-72937714D01*
X114117523Y-73032952D01*
X114069904Y-73080571D01*
X113974666Y-73128190D01*
X113593714Y-73128190D01*
X115117523Y-73604380D02*
X114546095Y-73604380D01*
X114831809Y-73604380D02*
X114831809Y-72604380D01*
X114736571Y-72747238D01*
X114641333Y-72842476D01*
X114546095Y-72890095D01*
X115498476Y-72699619D02*
X115546095Y-72652000D01*
X115641333Y-72604380D01*
X115879428Y-72604380D01*
X115974666Y-72652000D01*
X116022285Y-72699619D01*
X116069904Y-72794857D01*
X116069904Y-72890095D01*
X116022285Y-73032952D01*
X115450857Y-73604380D01*
X116069904Y-73604380D01*
X111704380Y-88526857D02*
X111228190Y-88860190D01*
X111704380Y-89098285D02*
X110704380Y-89098285D01*
X110704380Y-88717333D01*
X110752000Y-88622095D01*
X110799619Y-88574476D01*
X110894857Y-88526857D01*
X111037714Y-88526857D01*
X111132952Y-88574476D01*
X111180571Y-88622095D01*
X111228190Y-88717333D01*
X111228190Y-89098285D01*
X111704380Y-87574476D02*
X111704380Y-88145904D01*
X111704380Y-87860190D02*
X110704380Y-87860190D01*
X110847238Y-87955428D01*
X110942476Y-88050666D01*
X110990095Y-88145904D01*
X111704380Y-86622095D02*
X111704380Y-87193523D01*
X111704380Y-86907809D02*
X110704380Y-86907809D01*
X110847238Y-87003047D01*
X110942476Y-87098285D01*
X110990095Y-87193523D01*
X108831142Y-73478380D02*
X108497809Y-73002190D01*
X108259714Y-73478380D02*
X108259714Y-72478380D01*
X108640666Y-72478380D01*
X108735904Y-72526000D01*
X108783523Y-72573619D01*
X108831142Y-72668857D01*
X108831142Y-72811714D01*
X108783523Y-72906952D01*
X108735904Y-72954571D01*
X108640666Y-73002190D01*
X108259714Y-73002190D01*
X109783523Y-73478380D02*
X109212095Y-73478380D01*
X109497809Y-73478380D02*
X109497809Y-72478380D01*
X109402571Y-72621238D01*
X109307333Y-72716476D01*
X109212095Y-72764095D01*
X110402571Y-72478380D02*
X110497809Y-72478380D01*
X110593047Y-72526000D01*
X110640666Y-72573619D01*
X110688285Y-72668857D01*
X110735904Y-72859333D01*
X110735904Y-73097428D01*
X110688285Y-73287904D01*
X110640666Y-73383142D01*
X110593047Y-73430761D01*
X110497809Y-73478380D01*
X110402571Y-73478380D01*
X110307333Y-73430761D01*
X110259714Y-73383142D01*
X110212095Y-73287904D01*
X110164476Y-73097428D01*
X110164476Y-72859333D01*
X110212095Y-72668857D01*
X110259714Y-72573619D01*
X110307333Y-72526000D01*
X110402571Y-72478380D01*
X121610380Y-73826666D02*
X121134190Y-74160000D01*
X121610380Y-74398095D02*
X120610380Y-74398095D01*
X120610380Y-74017142D01*
X120658000Y-73921904D01*
X120705619Y-73874285D01*
X120800857Y-73826666D01*
X120943714Y-73826666D01*
X121038952Y-73874285D01*
X121086571Y-73921904D01*
X121134190Y-74017142D01*
X121134190Y-74398095D01*
X121610380Y-73350476D02*
X121610380Y-73160000D01*
X121562761Y-73064761D01*
X121515142Y-73017142D01*
X121372285Y-72921904D01*
X121181809Y-72874285D01*
X120800857Y-72874285D01*
X120705619Y-72921904D01*
X120658000Y-72969523D01*
X120610380Y-73064761D01*
X120610380Y-73255238D01*
X120658000Y-73350476D01*
X120705619Y-73398095D01*
X120800857Y-73445714D01*
X121038952Y-73445714D01*
X121134190Y-73398095D01*
X121181809Y-73350476D01*
X121229428Y-73255238D01*
X121229428Y-73064761D01*
X121181809Y-72969523D01*
X121134190Y-72921904D01*
X121038952Y-72874285D01*
X103973333Y-72842380D02*
X103640000Y-72366190D01*
X103401904Y-72842380D02*
X103401904Y-71842380D01*
X103782857Y-71842380D01*
X103878095Y-71890000D01*
X103925714Y-71937619D01*
X103973333Y-72032857D01*
X103973333Y-72175714D01*
X103925714Y-72270952D01*
X103878095Y-72318571D01*
X103782857Y-72366190D01*
X103401904Y-72366190D01*
X104544761Y-72270952D02*
X104449523Y-72223333D01*
X104401904Y-72175714D01*
X104354285Y-72080476D01*
X104354285Y-72032857D01*
X104401904Y-71937619D01*
X104449523Y-71890000D01*
X104544761Y-71842380D01*
X104735238Y-71842380D01*
X104830476Y-71890000D01*
X104878095Y-71937619D01*
X104925714Y-72032857D01*
X104925714Y-72080476D01*
X104878095Y-72175714D01*
X104830476Y-72223333D01*
X104735238Y-72270952D01*
X104544761Y-72270952D01*
X104449523Y-72318571D01*
X104401904Y-72366190D01*
X104354285Y-72461428D01*
X104354285Y-72651904D01*
X104401904Y-72747142D01*
X104449523Y-72794761D01*
X104544761Y-72842380D01*
X104735238Y-72842380D01*
X104830476Y-72794761D01*
X104878095Y-72747142D01*
X104925714Y-72651904D01*
X104925714Y-72461428D01*
X104878095Y-72366190D01*
X104830476Y-72318571D01*
X104735238Y-72270952D01*
X108799333Y-102687380D02*
X108466000Y-102211190D01*
X108227904Y-102687380D02*
X108227904Y-101687380D01*
X108608857Y-101687380D01*
X108704095Y-101735000D01*
X108751714Y-101782619D01*
X108799333Y-101877857D01*
X108799333Y-102020714D01*
X108751714Y-102115952D01*
X108704095Y-102163571D01*
X108608857Y-102211190D01*
X108227904Y-102211190D01*
X109132666Y-101687380D02*
X109799333Y-101687380D01*
X109370761Y-102687380D01*
X106513333Y-102687380D02*
X106180000Y-102211190D01*
X105941904Y-102687380D02*
X105941904Y-101687380D01*
X106322857Y-101687380D01*
X106418095Y-101735000D01*
X106465714Y-101782619D01*
X106513333Y-101877857D01*
X106513333Y-102020714D01*
X106465714Y-102115952D01*
X106418095Y-102163571D01*
X106322857Y-102211190D01*
X105941904Y-102211190D01*
X107370476Y-101687380D02*
X107180000Y-101687380D01*
X107084761Y-101735000D01*
X107037142Y-101782619D01*
X106941904Y-101925476D01*
X106894285Y-102115952D01*
X106894285Y-102496904D01*
X106941904Y-102592142D01*
X106989523Y-102639761D01*
X107084761Y-102687380D01*
X107275238Y-102687380D01*
X107370476Y-102639761D01*
X107418095Y-102592142D01*
X107465714Y-102496904D01*
X107465714Y-102258809D01*
X107418095Y-102163571D01*
X107370476Y-102115952D01*
X107275238Y-102068333D01*
X107084761Y-102068333D01*
X106989523Y-102115952D01*
X106941904Y-102163571D01*
X106894285Y-102258809D01*
X97305833Y-114625380D02*
X96972500Y-114149190D01*
X96734404Y-114625380D02*
X96734404Y-113625380D01*
X97115357Y-113625380D01*
X97210595Y-113673000D01*
X97258214Y-113720619D01*
X97305833Y-113815857D01*
X97305833Y-113958714D01*
X97258214Y-114053952D01*
X97210595Y-114101571D01*
X97115357Y-114149190D01*
X96734404Y-114149190D01*
X98210595Y-113625380D02*
X97734404Y-113625380D01*
X97686785Y-114101571D01*
X97734404Y-114053952D01*
X97829642Y-114006333D01*
X98067738Y-114006333D01*
X98162976Y-114053952D01*
X98210595Y-114101571D01*
X98258214Y-114196809D01*
X98258214Y-114434904D01*
X98210595Y-114530142D01*
X98162976Y-114577761D01*
X98067738Y-114625380D01*
X97829642Y-114625380D01*
X97734404Y-114577761D01*
X97686785Y-114530142D01*
X157187333Y-58492380D02*
X156854000Y-58016190D01*
X156615904Y-58492380D02*
X156615904Y-57492380D01*
X156996857Y-57492380D01*
X157092095Y-57540000D01*
X157139714Y-57587619D01*
X157187333Y-57682857D01*
X157187333Y-57825714D01*
X157139714Y-57920952D01*
X157092095Y-57968571D01*
X156996857Y-58016190D01*
X156615904Y-58016190D01*
X158044476Y-57825714D02*
X158044476Y-58492380D01*
X157806380Y-57444761D02*
X157568285Y-58159047D01*
X158187333Y-58159047D01*
X149762380Y-58840666D02*
X149286190Y-59174000D01*
X149762380Y-59412095D02*
X148762380Y-59412095D01*
X148762380Y-59031142D01*
X148810000Y-58935904D01*
X148857619Y-58888285D01*
X148952857Y-58840666D01*
X149095714Y-58840666D01*
X149190952Y-58888285D01*
X149238571Y-58935904D01*
X149286190Y-59031142D01*
X149286190Y-59412095D01*
X148762380Y-58507333D02*
X148762380Y-57888285D01*
X149143333Y-58221619D01*
X149143333Y-58078761D01*
X149190952Y-57983523D01*
X149238571Y-57935904D01*
X149333809Y-57888285D01*
X149571904Y-57888285D01*
X149667142Y-57935904D01*
X149714761Y-57983523D01*
X149762380Y-58078761D01*
X149762380Y-58364476D01*
X149714761Y-58459714D01*
X149667142Y-58507333D01*
X141423380Y-89701666D02*
X140947190Y-90035000D01*
X141423380Y-90273095D02*
X140423380Y-90273095D01*
X140423380Y-89892142D01*
X140471000Y-89796904D01*
X140518619Y-89749285D01*
X140613857Y-89701666D01*
X140756714Y-89701666D01*
X140851952Y-89749285D01*
X140899571Y-89796904D01*
X140947190Y-89892142D01*
X140947190Y-90273095D01*
X140518619Y-89320714D02*
X140471000Y-89273095D01*
X140423380Y-89177857D01*
X140423380Y-88939761D01*
X140471000Y-88844523D01*
X140518619Y-88796904D01*
X140613857Y-88749285D01*
X140709095Y-88749285D01*
X140851952Y-88796904D01*
X141423380Y-89368333D01*
X141423380Y-88749285D01*
X138121380Y-89701666D02*
X137645190Y-90035000D01*
X138121380Y-90273095D02*
X137121380Y-90273095D01*
X137121380Y-89892142D01*
X137169000Y-89796904D01*
X137216619Y-89749285D01*
X137311857Y-89701666D01*
X137454714Y-89701666D01*
X137549952Y-89749285D01*
X137597571Y-89796904D01*
X137645190Y-89892142D01*
X137645190Y-90273095D01*
X138121380Y-88749285D02*
X138121380Y-89320714D01*
X138121380Y-89035000D02*
X137121380Y-89035000D01*
X137264238Y-89130238D01*
X137359476Y-89225476D01*
X137407095Y-89320714D01*
X131367619Y-77744238D02*
X131320000Y-77839476D01*
X131224761Y-77934714D01*
X131081904Y-78077571D01*
X131034285Y-78172809D01*
X131034285Y-78268047D01*
X131272380Y-78220428D02*
X131224761Y-78315666D01*
X131129523Y-78410904D01*
X130939047Y-78458523D01*
X130605714Y-78458523D01*
X130415238Y-78410904D01*
X130320000Y-78315666D01*
X130272380Y-78220428D01*
X130272380Y-78029952D01*
X130320000Y-77934714D01*
X130415238Y-77839476D01*
X130605714Y-77791857D01*
X130939047Y-77791857D01*
X131129523Y-77839476D01*
X131224761Y-77934714D01*
X131272380Y-78029952D01*
X131272380Y-78220428D01*
X130272380Y-77458523D02*
X130272380Y-76839476D01*
X130653333Y-77172809D01*
X130653333Y-77029952D01*
X130700952Y-76934714D01*
X130748571Y-76887095D01*
X130843809Y-76839476D01*
X131081904Y-76839476D01*
X131177142Y-76887095D01*
X131224761Y-76934714D01*
X131272380Y-77029952D01*
X131272380Y-77315666D01*
X131224761Y-77410904D01*
X131177142Y-77458523D01*
X130475619Y-81681238D02*
X130428000Y-81776476D01*
X130332761Y-81871714D01*
X130189904Y-82014571D01*
X130142285Y-82109809D01*
X130142285Y-82205047D01*
X130380380Y-82157428D02*
X130332761Y-82252666D01*
X130237523Y-82347904D01*
X130047047Y-82395523D01*
X129713714Y-82395523D01*
X129523238Y-82347904D01*
X129428000Y-82252666D01*
X129380380Y-82157428D01*
X129380380Y-81966952D01*
X129428000Y-81871714D01*
X129523238Y-81776476D01*
X129713714Y-81728857D01*
X130047047Y-81728857D01*
X130237523Y-81776476D01*
X130332761Y-81871714D01*
X130380380Y-81966952D01*
X130380380Y-82157428D01*
X129475619Y-81347904D02*
X129428000Y-81300285D01*
X129380380Y-81205047D01*
X129380380Y-80966952D01*
X129428000Y-80871714D01*
X129475619Y-80824095D01*
X129570857Y-80776476D01*
X129666095Y-80776476D01*
X129808952Y-80824095D01*
X130380380Y-81395523D01*
X130380380Y-80776476D01*
X118903761Y-93257619D02*
X118808523Y-93210000D01*
X118713285Y-93114761D01*
X118570428Y-92971904D01*
X118475190Y-92924285D01*
X118379952Y-92924285D01*
X118427571Y-93162380D02*
X118332333Y-93114761D01*
X118237095Y-93019523D01*
X118189476Y-92829047D01*
X118189476Y-92495714D01*
X118237095Y-92305238D01*
X118332333Y-92210000D01*
X118427571Y-92162380D01*
X118618047Y-92162380D01*
X118713285Y-92210000D01*
X118808523Y-92305238D01*
X118856142Y-92495714D01*
X118856142Y-92829047D01*
X118808523Y-93019523D01*
X118713285Y-93114761D01*
X118618047Y-93162380D01*
X118427571Y-93162380D01*
X119808523Y-93162380D02*
X119237095Y-93162380D01*
X119522809Y-93162380D02*
X119522809Y-92162380D01*
X119427571Y-92305238D01*
X119332333Y-92400476D01*
X119237095Y-92448095D01*
X127087333Y-59766380D02*
X126611142Y-59766380D01*
X126611142Y-58766380D01*
X127944476Y-59766380D02*
X127373047Y-59766380D01*
X127658761Y-59766380D02*
X127658761Y-58766380D01*
X127563523Y-58909238D01*
X127468285Y-59004476D01*
X127373047Y-59052095D01*
X147748666Y-114133380D02*
X147748666Y-114847666D01*
X147701047Y-114990523D01*
X147605809Y-115085761D01*
X147462952Y-115133380D01*
X147367714Y-115133380D01*
X148653428Y-114466714D02*
X148653428Y-115133380D01*
X148415333Y-114085761D02*
X148177238Y-114800047D01*
X148796285Y-114800047D01*
X148256666Y-63206380D02*
X148256666Y-63920666D01*
X148209047Y-64063523D01*
X148113809Y-64158761D01*
X147970952Y-64206380D01*
X147875714Y-64206380D01*
X148637619Y-63206380D02*
X149256666Y-63206380D01*
X148923333Y-63587333D01*
X149066190Y-63587333D01*
X149161428Y-63634952D01*
X149209047Y-63682571D01*
X149256666Y-63777809D01*
X149256666Y-64015904D01*
X149209047Y-64111142D01*
X149161428Y-64158761D01*
X149066190Y-64206380D01*
X148780476Y-64206380D01*
X148685238Y-64158761D01*
X148637619Y-64111142D01*
X148256666Y-55332380D02*
X148256666Y-56046666D01*
X148209047Y-56189523D01*
X148113809Y-56284761D01*
X147970952Y-56332380D01*
X147875714Y-56332380D01*
X148685238Y-55427619D02*
X148732857Y-55380000D01*
X148828095Y-55332380D01*
X149066190Y-55332380D01*
X149161428Y-55380000D01*
X149209047Y-55427619D01*
X149256666Y-55522857D01*
X149256666Y-55618095D01*
X149209047Y-55760952D01*
X148637619Y-56332380D01*
X149256666Y-56332380D01*
X106473666Y-94448380D02*
X106473666Y-95162666D01*
X106426047Y-95305523D01*
X106330809Y-95400761D01*
X106187952Y-95448380D01*
X106092714Y-95448380D01*
X107473666Y-95448380D02*
X106902238Y-95448380D01*
X107187952Y-95448380D02*
X107187952Y-94448380D01*
X107092714Y-94591238D01*
X106997476Y-94686476D01*
X106902238Y-94734095D01*
X114577904Y-66782880D02*
X114577904Y-65782880D01*
X114816000Y-65782880D01*
X114958857Y-65830500D01*
X115054095Y-65925738D01*
X115101714Y-66020976D01*
X115149333Y-66211452D01*
X115149333Y-66354309D01*
X115101714Y-66544785D01*
X115054095Y-66640023D01*
X114958857Y-66735261D01*
X114816000Y-66782880D01*
X114577904Y-66782880D01*
X115482666Y-65782880D02*
X116101714Y-65782880D01*
X115768380Y-66163833D01*
X115911238Y-66163833D01*
X116006476Y-66211452D01*
X116054095Y-66259071D01*
X116101714Y-66354309D01*
X116101714Y-66592404D01*
X116054095Y-66687642D01*
X116006476Y-66735261D01*
X115911238Y-66782880D01*
X115625523Y-66782880D01*
X115530285Y-66735261D01*
X115482666Y-66687642D01*
X118133904Y-66746380D02*
X118133904Y-65746380D01*
X118372000Y-65746380D01*
X118514857Y-65794000D01*
X118610095Y-65889238D01*
X118657714Y-65984476D01*
X118705333Y-66174952D01*
X118705333Y-66317809D01*
X118657714Y-66508285D01*
X118610095Y-66603523D01*
X118514857Y-66698761D01*
X118372000Y-66746380D01*
X118133904Y-66746380D01*
X119086285Y-65841619D02*
X119133904Y-65794000D01*
X119229142Y-65746380D01*
X119467238Y-65746380D01*
X119562476Y-65794000D01*
X119610095Y-65841619D01*
X119657714Y-65936857D01*
X119657714Y-66032095D01*
X119610095Y-66174952D01*
X119038666Y-66746380D01*
X119657714Y-66746380D01*
X147851904Y-68270380D02*
X147851904Y-67270380D01*
X148090000Y-67270380D01*
X148232857Y-67318000D01*
X148328095Y-67413238D01*
X148375714Y-67508476D01*
X148423333Y-67698952D01*
X148423333Y-67841809D01*
X148375714Y-68032285D01*
X148328095Y-68127523D01*
X148232857Y-68222761D01*
X148090000Y-68270380D01*
X147851904Y-68270380D01*
X149375714Y-68270380D02*
X148804285Y-68270380D01*
X149090000Y-68270380D02*
X149090000Y-67270380D01*
X148994761Y-67413238D01*
X148899523Y-67508476D01*
X148804285Y-67556095D01*
X138422095Y-70302380D02*
X138422095Y-69302380D01*
X138993523Y-70302380D02*
X138564952Y-69730952D01*
X138993523Y-69302380D02*
X138422095Y-69873809D01*
X128897142Y-68302142D02*
X128849523Y-68349761D01*
X128706666Y-68397380D01*
X128611428Y-68397380D01*
X128468571Y-68349761D01*
X128373333Y-68254523D01*
X128325714Y-68159285D01*
X128278095Y-67968809D01*
X128278095Y-67825952D01*
X128325714Y-67635476D01*
X128373333Y-67540238D01*
X128468571Y-67445000D01*
X128611428Y-67397380D01*
X128706666Y-67397380D01*
X128849523Y-67445000D01*
X128897142Y-67492619D01*
X129278095Y-67492619D02*
X129325714Y-67445000D01*
X129420952Y-67397380D01*
X129659047Y-67397380D01*
X129754285Y-67445000D01*
X129801904Y-67492619D01*
X129849523Y-67587857D01*
X129849523Y-67683095D01*
X129801904Y-67825952D01*
X129230476Y-68397380D01*
X129849523Y-68397380D01*
X130182857Y-67397380D02*
X130801904Y-67397380D01*
X130468571Y-67778333D01*
X130611428Y-67778333D01*
X130706666Y-67825952D01*
X130754285Y-67873571D01*
X130801904Y-67968809D01*
X130801904Y-68206904D01*
X130754285Y-68302142D01*
X130706666Y-68349761D01*
X130611428Y-68397380D01*
X130325714Y-68397380D01*
X130230476Y-68349761D01*
X130182857Y-68302142D01*
X133469142Y-68556142D02*
X133421523Y-68603761D01*
X133278666Y-68651380D01*
X133183428Y-68651380D01*
X133040571Y-68603761D01*
X132945333Y-68508523D01*
X132897714Y-68413285D01*
X132850095Y-68222809D01*
X132850095Y-68079952D01*
X132897714Y-67889476D01*
X132945333Y-67794238D01*
X133040571Y-67699000D01*
X133183428Y-67651380D01*
X133278666Y-67651380D01*
X133421523Y-67699000D01*
X133469142Y-67746619D01*
X133850095Y-67746619D02*
X133897714Y-67699000D01*
X133992952Y-67651380D01*
X134231047Y-67651380D01*
X134326285Y-67699000D01*
X134373904Y-67746619D01*
X134421523Y-67841857D01*
X134421523Y-67937095D01*
X134373904Y-68079952D01*
X133802476Y-68651380D01*
X134421523Y-68651380D01*
X134802476Y-67746619D02*
X134850095Y-67699000D01*
X134945333Y-67651380D01*
X135183428Y-67651380D01*
X135278666Y-67699000D01*
X135326285Y-67746619D01*
X135373904Y-67841857D01*
X135373904Y-67937095D01*
X135326285Y-68079952D01*
X134754857Y-68651380D01*
X135373904Y-68651380D01*
X122547142Y-67159142D02*
X122499523Y-67206761D01*
X122356666Y-67254380D01*
X122261428Y-67254380D01*
X122118571Y-67206761D01*
X122023333Y-67111523D01*
X121975714Y-67016285D01*
X121928095Y-66825809D01*
X121928095Y-66682952D01*
X121975714Y-66492476D01*
X122023333Y-66397238D01*
X122118571Y-66302000D01*
X122261428Y-66254380D01*
X122356666Y-66254380D01*
X122499523Y-66302000D01*
X122547142Y-66349619D01*
X122928095Y-66349619D02*
X122975714Y-66302000D01*
X123070952Y-66254380D01*
X123309047Y-66254380D01*
X123404285Y-66302000D01*
X123451904Y-66349619D01*
X123499523Y-66444857D01*
X123499523Y-66540095D01*
X123451904Y-66682952D01*
X122880476Y-67254380D01*
X123499523Y-67254380D01*
X124451904Y-67254380D02*
X123880476Y-67254380D01*
X124166190Y-67254380D02*
X124166190Y-66254380D01*
X124070952Y-66397238D01*
X123975714Y-66492476D01*
X123880476Y-66540095D01*
X104306642Y-80017857D02*
X104354261Y-80065476D01*
X104401880Y-80208333D01*
X104401880Y-80303571D01*
X104354261Y-80446428D01*
X104259023Y-80541666D01*
X104163785Y-80589285D01*
X103973309Y-80636904D01*
X103830452Y-80636904D01*
X103639976Y-80589285D01*
X103544738Y-80541666D01*
X103449500Y-80446428D01*
X103401880Y-80303571D01*
X103401880Y-80208333D01*
X103449500Y-80065476D01*
X103497119Y-80017857D01*
X104401880Y-79065476D02*
X104401880Y-79636904D01*
X104401880Y-79351190D02*
X103401880Y-79351190D01*
X103544738Y-79446428D01*
X103639976Y-79541666D01*
X103687595Y-79636904D01*
X104401880Y-78589285D02*
X104401880Y-78398809D01*
X104354261Y-78303571D01*
X104306642Y-78255952D01*
X104163785Y-78160714D01*
X103973309Y-78113095D01*
X103592357Y-78113095D01*
X103497119Y-78160714D01*
X103449500Y-78208333D01*
X103401880Y-78303571D01*
X103401880Y-78494047D01*
X103449500Y-78589285D01*
X103497119Y-78636904D01*
X103592357Y-78684523D01*
X103830452Y-78684523D01*
X103925690Y-78636904D01*
X103973309Y-78589285D01*
X104020928Y-78494047D01*
X104020928Y-78303571D01*
X103973309Y-78208333D01*
X103925690Y-78160714D01*
X103830452Y-78113095D01*
X119245142Y-76303142D02*
X119197523Y-76350761D01*
X119054666Y-76398380D01*
X118959428Y-76398380D01*
X118816571Y-76350761D01*
X118721333Y-76255523D01*
X118673714Y-76160285D01*
X118626095Y-75969809D01*
X118626095Y-75826952D01*
X118673714Y-75636476D01*
X118721333Y-75541238D01*
X118816571Y-75446000D01*
X118959428Y-75398380D01*
X119054666Y-75398380D01*
X119197523Y-75446000D01*
X119245142Y-75493619D01*
X120197523Y-76398380D02*
X119626095Y-76398380D01*
X119911809Y-76398380D02*
X119911809Y-75398380D01*
X119816571Y-75541238D01*
X119721333Y-75636476D01*
X119626095Y-75684095D01*
X120768952Y-75826952D02*
X120673714Y-75779333D01*
X120626095Y-75731714D01*
X120578476Y-75636476D01*
X120578476Y-75588857D01*
X120626095Y-75493619D01*
X120673714Y-75446000D01*
X120768952Y-75398380D01*
X120959428Y-75398380D01*
X121054666Y-75446000D01*
X121102285Y-75493619D01*
X121149904Y-75588857D01*
X121149904Y-75636476D01*
X121102285Y-75731714D01*
X121054666Y-75779333D01*
X120959428Y-75826952D01*
X120768952Y-75826952D01*
X120673714Y-75874571D01*
X120626095Y-75922190D01*
X120578476Y-76017428D01*
X120578476Y-76207904D01*
X120626095Y-76303142D01*
X120673714Y-76350761D01*
X120768952Y-76398380D01*
X120959428Y-76398380D01*
X121054666Y-76350761D01*
X121102285Y-76303142D01*
X121149904Y-76207904D01*
X121149904Y-76017428D01*
X121102285Y-75922190D01*
X121054666Y-75874571D01*
X120959428Y-75826952D01*
X116435142Y-83954857D02*
X116482761Y-84002476D01*
X116530380Y-84145333D01*
X116530380Y-84240571D01*
X116482761Y-84383428D01*
X116387523Y-84478666D01*
X116292285Y-84526285D01*
X116101809Y-84573904D01*
X115958952Y-84573904D01*
X115768476Y-84526285D01*
X115673238Y-84478666D01*
X115578000Y-84383428D01*
X115530380Y-84240571D01*
X115530380Y-84145333D01*
X115578000Y-84002476D01*
X115625619Y-83954857D01*
X116530380Y-83002476D02*
X116530380Y-83573904D01*
X116530380Y-83288190D02*
X115530380Y-83288190D01*
X115673238Y-83383428D01*
X115768476Y-83478666D01*
X115816095Y-83573904D01*
X115530380Y-82669142D02*
X115530380Y-82002476D01*
X116530380Y-82431047D01*
X104687642Y-91955857D02*
X104735261Y-92003476D01*
X104782880Y-92146333D01*
X104782880Y-92241571D01*
X104735261Y-92384428D01*
X104640023Y-92479666D01*
X104544785Y-92527285D01*
X104354309Y-92574904D01*
X104211452Y-92574904D01*
X104020976Y-92527285D01*
X103925738Y-92479666D01*
X103830500Y-92384428D01*
X103782880Y-92241571D01*
X103782880Y-92146333D01*
X103830500Y-92003476D01*
X103878119Y-91955857D01*
X104782880Y-91003476D02*
X104782880Y-91574904D01*
X104782880Y-91289190D02*
X103782880Y-91289190D01*
X103925738Y-91384428D01*
X104020976Y-91479666D01*
X104068595Y-91574904D01*
X103782880Y-90098714D02*
X103782880Y-90574904D01*
X104259071Y-90622523D01*
X104211452Y-90574904D01*
X104163833Y-90479666D01*
X104163833Y-90241571D01*
X104211452Y-90146333D01*
X104259071Y-90098714D01*
X104354309Y-90051095D01*
X104592404Y-90051095D01*
X104687642Y-90098714D01*
X104735261Y-90146333D01*
X104782880Y-90241571D01*
X104782880Y-90479666D01*
X104735261Y-90574904D01*
X104687642Y-90622523D01*
X125579142Y-95384857D02*
X125626761Y-95432476D01*
X125674380Y-95575333D01*
X125674380Y-95670571D01*
X125626761Y-95813428D01*
X125531523Y-95908666D01*
X125436285Y-95956285D01*
X125245809Y-96003904D01*
X125102952Y-96003904D01*
X124912476Y-95956285D01*
X124817238Y-95908666D01*
X124722000Y-95813428D01*
X124674380Y-95670571D01*
X124674380Y-95575333D01*
X124722000Y-95432476D01*
X124769619Y-95384857D01*
X125674380Y-94432476D02*
X125674380Y-95003904D01*
X125674380Y-94718190D02*
X124674380Y-94718190D01*
X124817238Y-94813428D01*
X124912476Y-94908666D01*
X124960095Y-95003904D01*
X125007714Y-93575333D02*
X125674380Y-93575333D01*
X124626761Y-93813428D02*
X125341047Y-94051523D01*
X125341047Y-93432476D01*
X92686142Y-110624857D02*
X92733761Y-110672476D01*
X92781380Y-110815333D01*
X92781380Y-110910571D01*
X92733761Y-111053428D01*
X92638523Y-111148666D01*
X92543285Y-111196285D01*
X92352809Y-111243904D01*
X92209952Y-111243904D01*
X92019476Y-111196285D01*
X91924238Y-111148666D01*
X91829000Y-111053428D01*
X91781380Y-110910571D01*
X91781380Y-110815333D01*
X91829000Y-110672476D01*
X91876619Y-110624857D01*
X92781380Y-109672476D02*
X92781380Y-110243904D01*
X92781380Y-109958190D02*
X91781380Y-109958190D01*
X91924238Y-110053428D01*
X92019476Y-110148666D01*
X92067095Y-110243904D01*
X91781380Y-109339142D02*
X91781380Y-108720095D01*
X92162333Y-109053428D01*
X92162333Y-108910571D01*
X92209952Y-108815333D01*
X92257571Y-108767714D01*
X92352809Y-108720095D01*
X92590904Y-108720095D01*
X92686142Y-108767714D01*
X92733761Y-108815333D01*
X92781380Y-108910571D01*
X92781380Y-109196285D01*
X92733761Y-109291523D01*
X92686142Y-109339142D01*
X99687142Y-118149642D02*
X99639523Y-118197261D01*
X99496666Y-118244880D01*
X99401428Y-118244880D01*
X99258571Y-118197261D01*
X99163333Y-118102023D01*
X99115714Y-118006785D01*
X99068095Y-117816309D01*
X99068095Y-117673452D01*
X99115714Y-117482976D01*
X99163333Y-117387738D01*
X99258571Y-117292500D01*
X99401428Y-117244880D01*
X99496666Y-117244880D01*
X99639523Y-117292500D01*
X99687142Y-117340119D01*
X100639523Y-118244880D02*
X100068095Y-118244880D01*
X100353809Y-118244880D02*
X100353809Y-117244880D01*
X100258571Y-117387738D01*
X100163333Y-117482976D01*
X100068095Y-117530595D01*
X101020476Y-117340119D02*
X101068095Y-117292500D01*
X101163333Y-117244880D01*
X101401428Y-117244880D01*
X101496666Y-117292500D01*
X101544285Y-117340119D01*
X101591904Y-117435357D01*
X101591904Y-117530595D01*
X101544285Y-117673452D01*
X100972857Y-118244880D01*
X101591904Y-118244880D01*
X141343142Y-108180142D02*
X141295523Y-108227761D01*
X141152666Y-108275380D01*
X141057428Y-108275380D01*
X140914571Y-108227761D01*
X140819333Y-108132523D01*
X140771714Y-108037285D01*
X140724095Y-107846809D01*
X140724095Y-107703952D01*
X140771714Y-107513476D01*
X140819333Y-107418238D01*
X140914571Y-107323000D01*
X141057428Y-107275380D01*
X141152666Y-107275380D01*
X141295523Y-107323000D01*
X141343142Y-107370619D01*
X142295523Y-108275380D02*
X141724095Y-108275380D01*
X142009809Y-108275380D02*
X142009809Y-107275380D01*
X141914571Y-107418238D01*
X141819333Y-107513476D01*
X141724095Y-107561095D01*
X143247904Y-108275380D02*
X142676476Y-108275380D01*
X142962190Y-108275380D02*
X142962190Y-107275380D01*
X142866952Y-107418238D01*
X142771714Y-107513476D01*
X142676476Y-107561095D01*
X125579142Y-100718857D02*
X125626761Y-100766476D01*
X125674380Y-100909333D01*
X125674380Y-101004571D01*
X125626761Y-101147428D01*
X125531523Y-101242666D01*
X125436285Y-101290285D01*
X125245809Y-101337904D01*
X125102952Y-101337904D01*
X124912476Y-101290285D01*
X124817238Y-101242666D01*
X124722000Y-101147428D01*
X124674380Y-101004571D01*
X124674380Y-100909333D01*
X124722000Y-100766476D01*
X124769619Y-100718857D01*
X125674380Y-99766476D02*
X125674380Y-100337904D01*
X125674380Y-100052190D02*
X124674380Y-100052190D01*
X124817238Y-100147428D01*
X124912476Y-100242666D01*
X124960095Y-100337904D01*
X124674380Y-99147428D02*
X124674380Y-99052190D01*
X124722000Y-98956952D01*
X124769619Y-98909333D01*
X124864857Y-98861714D01*
X125055333Y-98814095D01*
X125293428Y-98814095D01*
X125483904Y-98861714D01*
X125579142Y-98909333D01*
X125626761Y-98956952D01*
X125674380Y-99052190D01*
X125674380Y-99147428D01*
X125626761Y-99242666D01*
X125579142Y-99290285D01*
X125483904Y-99337904D01*
X125293428Y-99385523D01*
X125055333Y-99385523D01*
X124864857Y-99337904D01*
X124769619Y-99290285D01*
X124722000Y-99242666D01*
X124674380Y-99147428D01*
X149837142Y-52998666D02*
X149884761Y-53046285D01*
X149932380Y-53189142D01*
X149932380Y-53284380D01*
X149884761Y-53427238D01*
X149789523Y-53522476D01*
X149694285Y-53570095D01*
X149503809Y-53617714D01*
X149360952Y-53617714D01*
X149170476Y-53570095D01*
X149075238Y-53522476D01*
X148980000Y-53427238D01*
X148932380Y-53284380D01*
X148932380Y-53189142D01*
X148980000Y-53046285D01*
X149027619Y-52998666D01*
X149932380Y-52522476D02*
X149932380Y-52332000D01*
X149884761Y-52236761D01*
X149837142Y-52189142D01*
X149694285Y-52093904D01*
X149503809Y-52046285D01*
X149122857Y-52046285D01*
X149027619Y-52093904D01*
X148980000Y-52141523D01*
X148932380Y-52236761D01*
X148932380Y-52427238D01*
X148980000Y-52522476D01*
X149027619Y-52570095D01*
X149122857Y-52617714D01*
X149360952Y-52617714D01*
X149456190Y-52570095D01*
X149503809Y-52522476D01*
X149551428Y-52427238D01*
X149551428Y-52236761D01*
X149503809Y-52141523D01*
X149456190Y-52093904D01*
X149360952Y-52046285D01*
X140057142Y-95162666D02*
X140104761Y-95210285D01*
X140152380Y-95353142D01*
X140152380Y-95448380D01*
X140104761Y-95591238D01*
X140009523Y-95686476D01*
X139914285Y-95734095D01*
X139723809Y-95781714D01*
X139580952Y-95781714D01*
X139390476Y-95734095D01*
X139295238Y-95686476D01*
X139200000Y-95591238D01*
X139152380Y-95448380D01*
X139152380Y-95353142D01*
X139200000Y-95210285D01*
X139247619Y-95162666D01*
X139580952Y-94591238D02*
X139533333Y-94686476D01*
X139485714Y-94734095D01*
X139390476Y-94781714D01*
X139342857Y-94781714D01*
X139247619Y-94734095D01*
X139200000Y-94686476D01*
X139152380Y-94591238D01*
X139152380Y-94400761D01*
X139200000Y-94305523D01*
X139247619Y-94257904D01*
X139342857Y-94210285D01*
X139390476Y-94210285D01*
X139485714Y-94257904D01*
X139533333Y-94305523D01*
X139580952Y-94400761D01*
X139580952Y-94591238D01*
X139628571Y-94686476D01*
X139676190Y-94734095D01*
X139771428Y-94781714D01*
X139961904Y-94781714D01*
X140057142Y-94734095D01*
X140104761Y-94686476D01*
X140152380Y-94591238D01*
X140152380Y-94400761D01*
X140104761Y-94305523D01*
X140057142Y-94257904D01*
X139961904Y-94210285D01*
X139771428Y-94210285D01*
X139676190Y-94257904D01*
X139628571Y-94305523D01*
X139580952Y-94400761D01*
X125325142Y-103798666D02*
X125372761Y-103846285D01*
X125420380Y-103989142D01*
X125420380Y-104084380D01*
X125372761Y-104227238D01*
X125277523Y-104322476D01*
X125182285Y-104370095D01*
X124991809Y-104417714D01*
X124848952Y-104417714D01*
X124658476Y-104370095D01*
X124563238Y-104322476D01*
X124468000Y-104227238D01*
X124420380Y-104084380D01*
X124420380Y-103989142D01*
X124468000Y-103846285D01*
X124515619Y-103798666D01*
X124420380Y-103465333D02*
X124420380Y-102798666D01*
X125420380Y-103227238D01*
X110339142Y-117387666D02*
X110386761Y-117435285D01*
X110434380Y-117578142D01*
X110434380Y-117673380D01*
X110386761Y-117816238D01*
X110291523Y-117911476D01*
X110196285Y-117959095D01*
X110005809Y-118006714D01*
X109862952Y-118006714D01*
X109672476Y-117959095D01*
X109577238Y-117911476D01*
X109482000Y-117816238D01*
X109434380Y-117673380D01*
X109434380Y-117578142D01*
X109482000Y-117435285D01*
X109529619Y-117387666D01*
X109434380Y-116530523D02*
X109434380Y-116721000D01*
X109482000Y-116816238D01*
X109529619Y-116863857D01*
X109672476Y-116959095D01*
X109862952Y-117006714D01*
X110243904Y-117006714D01*
X110339142Y-116959095D01*
X110386761Y-116911476D01*
X110434380Y-116816238D01*
X110434380Y-116625761D01*
X110386761Y-116530523D01*
X110339142Y-116482904D01*
X110243904Y-116435285D01*
X110005809Y-116435285D01*
X109910571Y-116482904D01*
X109862952Y-116530523D01*
X109815333Y-116625761D01*
X109815333Y-116816238D01*
X109862952Y-116911476D01*
X109910571Y-116959095D01*
X110005809Y-117006714D01*
X103354142Y-117387666D02*
X103401761Y-117435285D01*
X103449380Y-117578142D01*
X103449380Y-117673380D01*
X103401761Y-117816238D01*
X103306523Y-117911476D01*
X103211285Y-117959095D01*
X103020809Y-118006714D01*
X102877952Y-118006714D01*
X102687476Y-117959095D01*
X102592238Y-117911476D01*
X102497000Y-117816238D01*
X102449380Y-117673380D01*
X102449380Y-117578142D01*
X102497000Y-117435285D01*
X102544619Y-117387666D01*
X102449380Y-116482904D02*
X102449380Y-116959095D01*
X102925571Y-117006714D01*
X102877952Y-116959095D01*
X102830333Y-116863857D01*
X102830333Y-116625761D01*
X102877952Y-116530523D01*
X102925571Y-116482904D01*
X103020809Y-116435285D01*
X103258904Y-116435285D01*
X103354142Y-116482904D01*
X103401761Y-116530523D01*
X103449380Y-116625761D01*
X103449380Y-116863857D01*
X103401761Y-116959095D01*
X103354142Y-117006714D01*
X125385333Y-109729142D02*
X125337714Y-109776761D01*
X125194857Y-109824380D01*
X125099619Y-109824380D01*
X124956761Y-109776761D01*
X124861523Y-109681523D01*
X124813904Y-109586285D01*
X124766285Y-109395809D01*
X124766285Y-109252952D01*
X124813904Y-109062476D01*
X124861523Y-108967238D01*
X124956761Y-108872000D01*
X125099619Y-108824380D01*
X125194857Y-108824380D01*
X125337714Y-108872000D01*
X125385333Y-108919619D01*
X126242476Y-109157714D02*
X126242476Y-109824380D01*
X126004380Y-108776761D02*
X125766285Y-109491047D01*
X126385333Y-109491047D01*
X123099333Y-109729142D02*
X123051714Y-109776761D01*
X122908857Y-109824380D01*
X122813619Y-109824380D01*
X122670761Y-109776761D01*
X122575523Y-109681523D01*
X122527904Y-109586285D01*
X122480285Y-109395809D01*
X122480285Y-109252952D01*
X122527904Y-109062476D01*
X122575523Y-108967238D01*
X122670761Y-108872000D01*
X122813619Y-108824380D01*
X122908857Y-108824380D01*
X123051714Y-108872000D01*
X123099333Y-108919619D01*
X123432666Y-108824380D02*
X124051714Y-108824380D01*
X123718380Y-109205333D01*
X123861238Y-109205333D01*
X123956476Y-109252952D01*
X124004095Y-109300571D01*
X124051714Y-109395809D01*
X124051714Y-109633904D01*
X124004095Y-109729142D01*
X123956476Y-109776761D01*
X123861238Y-109824380D01*
X123575523Y-109824380D01*
X123480285Y-109776761D01*
X123432666Y-109729142D01*
X107959180Y-109588808D02*
X107911561Y-109636427D01*
X107768704Y-109684046D01*
X107673466Y-109684046D01*
X107530608Y-109636427D01*
X107435370Y-109541189D01*
X107387751Y-109445951D01*
X107340132Y-109255475D01*
X107340132Y-109112618D01*
X107387751Y-108922142D01*
X107435370Y-108826904D01*
X107530608Y-108731666D01*
X107673466Y-108684046D01*
X107768704Y-108684046D01*
X107911561Y-108731666D01*
X107959180Y-108779285D01*
X108340132Y-108779285D02*
X108387751Y-108731666D01*
X108482989Y-108684046D01*
X108721085Y-108684046D01*
X108816323Y-108731666D01*
X108863942Y-108779285D01*
X108911561Y-108874523D01*
X108911561Y-108969761D01*
X108863942Y-109112618D01*
X108292513Y-109684046D01*
X108911561Y-109684046D01*
X105927180Y-109588808D02*
X105879561Y-109636427D01*
X105736704Y-109684046D01*
X105641466Y-109684046D01*
X105498608Y-109636427D01*
X105403370Y-109541189D01*
X105355751Y-109445951D01*
X105308132Y-109255475D01*
X105308132Y-109112618D01*
X105355751Y-108922142D01*
X105403370Y-108826904D01*
X105498608Y-108731666D01*
X105641466Y-108684046D01*
X105736704Y-108684046D01*
X105879561Y-108731666D01*
X105927180Y-108779285D01*
X106879561Y-109684046D02*
X106308132Y-109684046D01*
X106593847Y-109684046D02*
X106593847Y-108684046D01*
X106498608Y-108826904D01*
X106403370Y-108922142D01*
X106308132Y-108969761D01*
M02*
