M48
; DRILL file {KiCad (6.0.0-rc1-dev-1491-g0a4812be0)} date 2019-06-06 13:34:39
; FORMAT={-:-/ absolute / inch / decimal}
; #@! TF.CreationDate,2019-06-06T13:34:39+02:00
; #@! TF.GenerationSoftware,Kicad,Pcbnew,(6.0.0-rc1-dev-1491-g0a4812be0)
; #@! TF.FileFunction,Plated,1,2,PTH
FMAT,2
INCH
T1C0.0079
T2C0.0157
T3C0.0197
T4C0.0217
T5C0.0236
T6C0.0295
T7C0.0315
T8C0.0335
T9C0.0354
T10C0.0394
T11C0.0400
T12C0.0472
T13C0.0512
T14C0.0520
T15C0.1063
%
G90
G05
T1
X4.3188Y-3.1374
X4.3188Y-3.2126
X4.37Y-3.1374
X4.37Y-3.2126
X4.4212Y-3.1374
X4.4212Y-3.2126
T2
X3.77Y-4.435
X3.911Y-4.1909
X4.3067Y-2.82
X4.5Y-3.29
X4.5357Y-3.9813
X4.55Y-3.855
X4.5593Y-4.1805
X4.59Y-4.1
X4.63Y-4.11
X4.643Y-4.0449
X4.6605Y-3.9808
X4.7117Y-3.8636
X4.9341Y-3.818
X5.035Y-3.9808
X5.175Y-4.2958
X5.2989Y-4.1909
X5.3221Y-4.13
X5.4164Y-3.4642
X5.6432Y-3.9966
T3
X3.5953Y-4.5669
X3.6186Y-4.5106
X3.6186Y-4.6233
X3.675Y-4.4872
X3.675Y-4.6467
X3.7314Y-4.5106
X3.7314Y-4.6233
X3.7547Y-4.5669
X6.062Y-2.126
X6.0854Y-2.0696
X6.0854Y-2.1824
X6.1417Y-2.0463
X6.1417Y-2.2057
X6.1981Y-2.0696
X6.1981Y-2.1824
X6.2215Y-2.126
X6.062Y-4.5669
X6.0854Y-4.5106
X6.0854Y-4.6233
X6.1417Y-4.4872
X6.1417Y-4.6467
X6.1981Y-4.5106
X6.1981Y-4.6233
X6.2215Y-4.5669
X3.6211Y-2.126
X3.6444Y-2.0696
X3.6444Y-2.1824
X3.7008Y-2.0463
X3.7008Y-2.2057
X3.7572Y-2.0696
X3.7572Y-2.1824
X3.7805Y-2.126
T5
X3.6283Y-3.937
X3.6283Y-4.0157
X3.6283Y-4.0945
X3.6283Y-4.1732
X3.7008Y-3.937
X3.7008Y-4.0157
X3.7008Y-4.0945
X3.7008Y-4.1732
X4.0525Y-4.435
X4.115Y-2.49
X4.23Y-3.409
X4.24Y-4.075
X4.46Y-2.06
X4.46Y-2.45
X4.48Y-2.41
X4.48Y-2.49
X4.5Y-2.03
X4.5Y-2.09
X4.51Y-2.45
X4.53Y-2.41
X4.53Y-2.49
X4.54Y-2.06
X4.56Y-2.45
X4.58Y-2.03
X4.58Y-2.09
X4.58Y-2.41
X4.58Y-2.49
X4.61Y-2.45
X4.62Y-2.06
X4.63Y-2.41
X4.63Y-2.49
X4.66Y-2.03
X4.66Y-2.09
X4.66Y-2.45
X4.66Y-3.315
X4.68Y-2.41
X4.68Y-2.49
X4.7Y-2.06
X4.71Y-2.45
X4.7244Y-3.1496
X4.7244Y-3.248
X4.74Y-2.03
X4.74Y-2.09
X4.78Y-2.06
X4.8031Y-3.189
X5.19Y-3.93
X5.545Y-3.285
X5.8661Y-3.3465
X5.9055Y-3.2677
X5.9055Y-3.4252
X5.9449Y-3.3465
X5.9843Y-3.2677
X5.9843Y-3.4252
X6.0236Y-3.3465
X6.063Y-3.2677
X6.063Y-3.4252
X6.1024Y-3.3465
T6
X5.46Y-2.67
X5.76Y-2.67
T7
X4.015Y-2.34
X4.4127Y-2.6
X3.8725Y-3.6375
X3.8725Y-3.8296
X4.2179Y-4.45
X4.41Y-4.45
T9
X4.99Y-4.45
X4.99Y-4.5
X4.99Y-4.55
X4.99Y-4.6
T10
X3.93Y-3.27
X3.93Y-3.3684
X6.165Y-2.5179
X6.165Y-2.6951
X4.2913Y-3.7402
X4.3913Y-3.7402
X4.4913Y-3.7402
X4.5913Y-3.7402
X4.6913Y-3.7402
X4.7913Y-3.7402
T11
X5.37Y-4.465
X5.37Y-4.565
X5.47Y-4.465
X5.47Y-4.565
X5.57Y-4.465
X5.57Y-4.565
T12
X5.46Y-2.44
X5.56Y-2.44
X5.66Y-2.44
X5.76Y-2.44
X5.36Y-2.14
X5.46Y-2.14
X5.56Y-2.14
X5.66Y-2.14
X5.76Y-2.14
T13
X6.0666Y-2.4687
X6.0666Y-2.7443
T14
X4.48Y-2.26
X4.6769Y-2.26
T15
X3.675Y-4.5669
X6.1417Y-2.126
X6.1417Y-4.5669
X3.7008Y-2.126
T4
G00X3.631Y-2.7324
M15
G01X3.6054Y-2.7324
M16
G05
G00X3.631Y-3.0376
M15
G01X3.6054Y-3.0376
M16
G05
T8
G00X3.7787Y-2.7383
M15
G01X3.757Y-2.7383
M16
G05
G00X3.7787Y-3.0317
M15
G01X3.757Y-3.0317
M16
G05
T0
M30
