M48
; DRILL file {KiCad (6.0.0-rc1-dev-1491-g0a4812be0)} date 2019-06-12 10:43:44
; FORMAT={-:-/ absolute / inch / decimal}
; #@! TF.CreationDate,2019-06-12T10:43:44+02:00
; #@! TF.GenerationSoftware,Kicad,Pcbnew,(6.0.0-rc1-dev-1491-g0a4812be0)
; #@! TF.FileFunction,Plated,1,2,PTH
FMAT,2
INCH
T1C0.0079
T2C0.0157
T3C0.0197
T4C0.0217
T5C0.0236
T6C0.0295
T7C0.0315
T8C0.0335
T9C0.0354
T10C0.0394
T11C0.0400
T12C0.0472
T13C0.0512
T14C0.0520
T15C0.1063
%
G90
G05
T1
X4.3188Y-3.1374
X4.3188Y-3.2126
X4.37Y-3.1374
X4.37Y-3.2126
X4.4212Y-3.1374
X4.4212Y-3.2126
T2
X3.66Y-4.01
X3.66Y-4.05
X3.66Y-4.09
X3.66Y-4.13
X3.66Y-4.17
X3.7Y-3.97
X3.7Y-4.01
X3.7Y-4.05
X3.7Y-4.09
X3.7Y-4.13
X3.7Y-4.17
X3.77Y-4.435
X3.91Y-2.05
X3.91Y-2.1
X3.91Y-2.15
X3.91Y-2.2
X3.911Y-4.1909
X3.96Y-2.05
X3.96Y-2.1
X3.96Y-2.15
X3.96Y-2.2
X4.02Y-2.05
X4.04Y-2.79
X4.06Y-2.05
X4.06Y-2.5
X4.09Y-2.79
X4.1Y-2.05
X4.115Y-2.49
X4.14Y-2.05
X4.14Y-2.79
X4.17Y-2.49
X4.19Y-2.79
X4.3067Y-2.82
X4.5Y-3.29
X4.52Y-2.41
X4.52Y-2.47
X4.52Y-2.53
X4.5357Y-3.9813
X4.55Y-3.855
X4.5583Y-4.1815
X4.58Y-2.41
X4.58Y-2.47
X4.58Y-2.53
X4.59Y-4.1
X4.6108Y-3.45
X4.63Y-4.11
X4.64Y-2.41
X4.64Y-2.47
X4.64Y-2.53
X4.643Y-4.0449
X4.6605Y-3.9808
X4.7117Y-3.8636
X4.8982Y-3.1565
X4.9341Y-3.818
X5.035Y-3.9808
X5.23Y-4.29
X5.26Y-4.25
X5.29Y-4.29
X5.2989Y-4.1909
X5.3221Y-4.13
X5.4164Y-3.4642
X5.6432Y-3.9966
X5.66Y-4.42
X5.7Y-4.38
X5.72Y-4.29
X5.72Y-4.34
T3
X3.6211Y-2.126
X3.6444Y-2.0696
X3.6444Y-2.1824
X3.7008Y-2.0463
X3.7008Y-2.2057
X3.7572Y-2.0696
X3.7572Y-2.1824
X3.7805Y-2.126
X6.062Y-4.5669
X6.0854Y-4.5106
X6.0854Y-4.6233
X6.1417Y-4.4872
X6.1417Y-4.6467
X6.1981Y-4.5106
X6.1981Y-4.6233
X6.2215Y-4.5669
X6.062Y-2.126
X6.0854Y-2.0696
X6.0854Y-2.1824
X6.1417Y-2.0463
X6.1417Y-2.2057
X6.1981Y-2.0696
X6.1981Y-2.1824
X6.2215Y-2.126
X3.5953Y-4.5669
X3.6186Y-4.5106
X3.6186Y-4.6233
X3.675Y-4.4872
X3.675Y-4.6467
X3.7314Y-4.5106
X3.7314Y-4.6233
X3.7547Y-4.5669
T5
X4.015Y-2.34
X4.0525Y-4.435
X4.23Y-3.409
X4.24Y-4.075
X4.66Y-3.315
X4.83Y-2.7
X5.19Y-3.93
X5.545Y-3.285
T6
X5.46Y-2.67
X5.76Y-2.67
T7
X4.2179Y-4.45
X4.41Y-4.45
X3.8725Y-3.6375
X3.8725Y-3.8296
T9
X4.99Y-4.45
X4.99Y-4.5
X4.99Y-4.55
X4.99Y-4.6
T10
X4.2913Y-3.7402
X4.3913Y-3.7402
X4.4913Y-3.7402
X4.5913Y-3.7402
X4.6913Y-3.7402
X4.7913Y-3.7402
X6.165Y-2.5179
X6.165Y-2.6951
X3.93Y-3.27
X3.93Y-3.3684
T11
X5.37Y-4.465
X5.37Y-4.565
X5.47Y-4.465
X5.47Y-4.565
X5.57Y-4.465
X5.57Y-4.565
T12
X5.36Y-2.14
X5.46Y-2.14
X5.56Y-2.14
X5.66Y-2.14
X5.76Y-2.14
X5.46Y-2.44
X5.56Y-2.44
X5.66Y-2.44
X5.76Y-2.44
T13
X6.0666Y-2.4687
X6.0666Y-2.7443
T14
X4.48Y-2.26
X4.6769Y-2.26
T15
X3.7008Y-2.126
X6.1417Y-4.5669
X6.1417Y-2.126
X3.675Y-4.5669
T4
G00X3.631Y-2.7324
M15
G01X3.6054Y-2.7324
M16
G05
G00X3.631Y-3.0376
M15
G01X3.6054Y-3.0376
M16
G05
T8
G00X3.7787Y-2.7383
M15
G01X3.757Y-2.7383
M16
G05
G00X3.7787Y-3.0317
M15
G01X3.757Y-3.0317
M16
G05
T0
M30
