G04 #@! TF.GenerationSoftware,KiCad,Pcbnew,(6.0.0-rc1-dev-1491-g0a4812be0)*
G04 #@! TF.CreationDate,2019-06-11T15:11:38+02:00
G04 #@! TF.ProjectId,datalogger,64617461-6c6f-4676-9765-722e6b696361,v. 1.1*
G04 #@! TF.SameCoordinates,Original*
G04 #@! TF.FileFunction,Soldermask,Top*
G04 #@! TF.FilePolarity,Negative*
%FSLAX46Y46*%
G04 Gerber Fmt 4.6, Leading zero omitted, Abs format (unit mm)*
G04 Created by KiCad (PCBNEW (6.0.0-rc1-dev-1491-g0a4812be0)) date 2019-06-11 15:11:38*
%MOMM*%
%LPD*%
G04 APERTURE LIST*
%ADD10C,0.100000*%
G04 APERTURE END LIST*
D10*
X154727000Y-62705500D02*
G75*
G03X154727000Y-62705500I-635000J0D01*
G01*
X154727000Y-69705500D02*
G75*
G03X154727000Y-69705500I-635000J0D01*
G01*
X157036500Y-68455500D02*
G75*
G03X157036500Y-68455500I-444500J0D01*
G01*
X157036500Y-63955500D02*
G75*
G03X157036500Y-63955500I-444500J0D01*
G01*
G36*
X156344566Y-113263643D02*
G01*
X156802437Y-113354719D01*
X157303087Y-113562095D01*
X157705531Y-113831000D01*
X157753663Y-113863161D01*
X158136839Y-114246337D01*
X158136841Y-114246340D01*
X158437905Y-114696913D01*
X158645281Y-115197563D01*
X158695100Y-115448022D01*
X158751000Y-115729049D01*
X158751000Y-116270951D01*
X158718191Y-116435895D01*
X158645281Y-116802437D01*
X158437905Y-117303087D01*
X158147636Y-117737504D01*
X158136839Y-117753663D01*
X157753663Y-118136839D01*
X157753660Y-118136841D01*
X157303087Y-118437905D01*
X156802437Y-118645281D01*
X156536694Y-118698140D01*
X156270951Y-118751000D01*
X155729049Y-118751000D01*
X155463306Y-118698140D01*
X155197563Y-118645281D01*
X154696913Y-118437905D01*
X154246340Y-118136841D01*
X154246337Y-118136839D01*
X153863161Y-117753663D01*
X153852364Y-117737504D01*
X153562095Y-117303087D01*
X153354719Y-116802437D01*
X153281809Y-116435895D01*
X153249000Y-116270951D01*
X153249000Y-115729049D01*
X153304900Y-115448022D01*
X153354719Y-115197563D01*
X153562095Y-114696913D01*
X153863159Y-114246340D01*
X153863161Y-114246337D01*
X154246337Y-113863161D01*
X154294469Y-113831000D01*
X154696913Y-113562095D01*
X155197563Y-113354719D01*
X155655434Y-113263643D01*
X155729049Y-113249000D01*
X156270951Y-113249000D01*
X156344566Y-113263643D01*
X156344566Y-113263643D01*
G37*
G36*
X93689566Y-113263643D02*
G01*
X94147437Y-113354719D01*
X94648087Y-113562095D01*
X95050531Y-113831000D01*
X95098663Y-113863161D01*
X95481839Y-114246337D01*
X95481841Y-114246340D01*
X95782905Y-114696913D01*
X95990281Y-115197563D01*
X96040100Y-115448022D01*
X96096000Y-115729049D01*
X96096000Y-116270951D01*
X96063191Y-116435895D01*
X95990281Y-116802437D01*
X95782905Y-117303087D01*
X95492636Y-117737504D01*
X95481839Y-117753663D01*
X95098663Y-118136839D01*
X95098660Y-118136841D01*
X94648087Y-118437905D01*
X94147437Y-118645281D01*
X93881694Y-118698140D01*
X93615951Y-118751000D01*
X93074049Y-118751000D01*
X92808306Y-118698140D01*
X92542563Y-118645281D01*
X92041913Y-118437905D01*
X91591340Y-118136841D01*
X91591337Y-118136839D01*
X91208161Y-117753663D01*
X91197364Y-117737504D01*
X90907095Y-117303087D01*
X90699719Y-116802437D01*
X90626809Y-116435895D01*
X90594000Y-116270951D01*
X90594000Y-115729049D01*
X90649900Y-115448022D01*
X90699719Y-115197563D01*
X90907095Y-114696913D01*
X91208159Y-114246340D01*
X91208161Y-114246337D01*
X91591337Y-113863161D01*
X91639469Y-113831000D01*
X92041913Y-113562095D01*
X92542563Y-113354719D01*
X93000434Y-113263643D01*
X93074049Y-113249000D01*
X93615951Y-113249000D01*
X93689566Y-113263643D01*
X93689566Y-113263643D01*
G37*
G36*
X108145562Y-116299181D02*
G01*
X108180477Y-116309773D01*
X108212665Y-116326978D01*
X108240873Y-116350127D01*
X108264022Y-116378335D01*
X108281227Y-116410523D01*
X108291819Y-116445438D01*
X108296000Y-116487895D01*
X108296000Y-117954105D01*
X108291819Y-117996562D01*
X108281227Y-118031477D01*
X108264022Y-118063665D01*
X108240873Y-118091873D01*
X108212665Y-118115022D01*
X108180477Y-118132227D01*
X108145562Y-118142819D01*
X108103105Y-118147000D01*
X106961895Y-118147000D01*
X106919438Y-118142819D01*
X106884523Y-118132227D01*
X106852335Y-118115022D01*
X106824127Y-118091873D01*
X106800978Y-118063665D01*
X106783773Y-118031477D01*
X106773181Y-117996562D01*
X106769000Y-117954105D01*
X106769000Y-116487895D01*
X106773181Y-116445438D01*
X106783773Y-116410523D01*
X106800978Y-116378335D01*
X106824127Y-116350127D01*
X106852335Y-116326978D01*
X106884523Y-116309773D01*
X106919438Y-116299181D01*
X106961895Y-116295000D01*
X108103105Y-116295000D01*
X108145562Y-116299181D01*
X108145562Y-116299181D01*
G37*
G36*
X105170562Y-116299181D02*
G01*
X105205477Y-116309773D01*
X105237665Y-116326978D01*
X105265873Y-116350127D01*
X105289022Y-116378335D01*
X105306227Y-116410523D01*
X105316819Y-116445438D01*
X105321000Y-116487895D01*
X105321000Y-117954105D01*
X105316819Y-117996562D01*
X105306227Y-118031477D01*
X105289022Y-118063665D01*
X105265873Y-118091873D01*
X105237665Y-118115022D01*
X105205477Y-118132227D01*
X105170562Y-118142819D01*
X105128105Y-118147000D01*
X103986895Y-118147000D01*
X103944438Y-118142819D01*
X103909523Y-118132227D01*
X103877335Y-118115022D01*
X103849127Y-118091873D01*
X103825978Y-118063665D01*
X103808773Y-118031477D01*
X103798181Y-117996562D01*
X103794000Y-117954105D01*
X103794000Y-116487895D01*
X103798181Y-116445438D01*
X103808773Y-116410523D01*
X103825978Y-116378335D01*
X103849127Y-116350127D01*
X103877335Y-116326978D01*
X103909523Y-116309773D01*
X103944438Y-116299181D01*
X103986895Y-116295000D01*
X105128105Y-116295000D01*
X105170562Y-116299181D01*
X105170562Y-116299181D01*
G37*
G36*
X115130562Y-116299181D02*
G01*
X115165477Y-116309773D01*
X115197665Y-116326978D01*
X115225873Y-116350127D01*
X115249022Y-116378335D01*
X115266227Y-116410523D01*
X115276819Y-116445438D01*
X115281000Y-116487895D01*
X115281000Y-117954105D01*
X115276819Y-117996562D01*
X115266227Y-118031477D01*
X115249022Y-118063665D01*
X115225873Y-118091873D01*
X115197665Y-118115022D01*
X115165477Y-118132227D01*
X115130562Y-118142819D01*
X115088105Y-118147000D01*
X113946895Y-118147000D01*
X113904438Y-118142819D01*
X113869523Y-118132227D01*
X113837335Y-118115022D01*
X113809127Y-118091873D01*
X113785978Y-118063665D01*
X113768773Y-118031477D01*
X113758181Y-117996562D01*
X113754000Y-117954105D01*
X113754000Y-116487895D01*
X113758181Y-116445438D01*
X113768773Y-116410523D01*
X113785978Y-116378335D01*
X113809127Y-116350127D01*
X113837335Y-116326978D01*
X113869523Y-116309773D01*
X113904438Y-116299181D01*
X113946895Y-116295000D01*
X115088105Y-116295000D01*
X115130562Y-116299181D01*
X115130562Y-116299181D01*
G37*
G36*
X112155562Y-116299181D02*
G01*
X112190477Y-116309773D01*
X112222665Y-116326978D01*
X112250873Y-116350127D01*
X112274022Y-116378335D01*
X112291227Y-116410523D01*
X112301819Y-116445438D01*
X112306000Y-116487895D01*
X112306000Y-117954105D01*
X112301819Y-117996562D01*
X112291227Y-118031477D01*
X112274022Y-118063665D01*
X112250873Y-118091873D01*
X112222665Y-118115022D01*
X112190477Y-118132227D01*
X112155562Y-118142819D01*
X112113105Y-118147000D01*
X110971895Y-118147000D01*
X110929438Y-118142819D01*
X110894523Y-118132227D01*
X110862335Y-118115022D01*
X110834127Y-118091873D01*
X110810978Y-118063665D01*
X110793773Y-118031477D01*
X110783181Y-117996562D01*
X110779000Y-117954105D01*
X110779000Y-116487895D01*
X110783181Y-116445438D01*
X110793773Y-116410523D01*
X110810978Y-116378335D01*
X110834127Y-116350127D01*
X110862335Y-116326978D01*
X110894523Y-116309773D01*
X110929438Y-116299181D01*
X110971895Y-116295000D01*
X112113105Y-116295000D01*
X112155562Y-116299181D01*
X112155562Y-116299181D01*
G37*
G36*
X121226562Y-116172181D02*
G01*
X121261477Y-116182773D01*
X121293665Y-116199978D01*
X121321873Y-116223127D01*
X121345022Y-116251335D01*
X121362227Y-116283523D01*
X121372819Y-116318438D01*
X121377000Y-116360895D01*
X121377000Y-117827105D01*
X121372819Y-117869562D01*
X121362227Y-117904477D01*
X121345022Y-117936665D01*
X121321873Y-117964873D01*
X121293665Y-117988022D01*
X121261477Y-118005227D01*
X121226562Y-118015819D01*
X121184105Y-118020000D01*
X120042895Y-118020000D01*
X120000438Y-118015819D01*
X119965523Y-118005227D01*
X119933335Y-117988022D01*
X119905127Y-117964873D01*
X119881978Y-117936665D01*
X119864773Y-117904477D01*
X119854181Y-117869562D01*
X119850000Y-117827105D01*
X119850000Y-116360895D01*
X119854181Y-116318438D01*
X119864773Y-116283523D01*
X119881978Y-116251335D01*
X119905127Y-116223127D01*
X119933335Y-116199978D01*
X119965523Y-116182773D01*
X120000438Y-116172181D01*
X120042895Y-116168000D01*
X121184105Y-116168000D01*
X121226562Y-116172181D01*
X121226562Y-116172181D01*
G37*
G36*
X118251562Y-116172181D02*
G01*
X118286477Y-116182773D01*
X118318665Y-116199978D01*
X118346873Y-116223127D01*
X118370022Y-116251335D01*
X118387227Y-116283523D01*
X118397819Y-116318438D01*
X118402000Y-116360895D01*
X118402000Y-117827105D01*
X118397819Y-117869562D01*
X118387227Y-117904477D01*
X118370022Y-117936665D01*
X118346873Y-117964873D01*
X118318665Y-117988022D01*
X118286477Y-118005227D01*
X118251562Y-118015819D01*
X118209105Y-118020000D01*
X117067895Y-118020000D01*
X117025438Y-118015819D01*
X116990523Y-118005227D01*
X116958335Y-117988022D01*
X116930127Y-117964873D01*
X116906978Y-117936665D01*
X116889773Y-117904477D01*
X116879181Y-117869562D01*
X116875000Y-117827105D01*
X116875000Y-116360895D01*
X116879181Y-116318438D01*
X116889773Y-116283523D01*
X116906978Y-116251335D01*
X116930127Y-116223127D01*
X116958335Y-116199978D01*
X116990523Y-116182773D01*
X117025438Y-116172181D01*
X117067895Y-116168000D01*
X118209105Y-116168000D01*
X118251562Y-116172181D01*
X118251562Y-116172181D01*
G37*
G36*
X127225877Y-112452479D02*
G01*
X127336338Y-112485987D01*
X127438137Y-112540400D01*
X127527369Y-112613631D01*
X127600600Y-112702863D01*
X127655013Y-112804662D01*
X127688521Y-112915123D01*
X127699835Y-113030000D01*
X127688521Y-113144877D01*
X127655013Y-113255338D01*
X127600600Y-113357137D01*
X127527369Y-113446369D01*
X127438137Y-113519600D01*
X127372357Y-113554760D01*
X127351982Y-113568373D01*
X127334655Y-113585700D01*
X127321041Y-113606075D01*
X127311664Y-113628714D01*
X127306883Y-113652747D01*
X127306883Y-113677252D01*
X127311663Y-113701285D01*
X127321041Y-113723924D01*
X127334654Y-113744299D01*
X127351981Y-113761626D01*
X127372357Y-113775240D01*
X127438137Y-113810400D01*
X127527369Y-113883631D01*
X127600600Y-113972863D01*
X127655013Y-114074662D01*
X127688521Y-114185123D01*
X127699835Y-114300000D01*
X127688521Y-114414877D01*
X127655013Y-114525338D01*
X127600600Y-114627137D01*
X127527369Y-114716369D01*
X127471312Y-114762374D01*
X127453985Y-114779701D01*
X127440372Y-114800076D01*
X127430994Y-114822715D01*
X127426214Y-114846749D01*
X127426214Y-114871253D01*
X127430995Y-114895286D01*
X127440372Y-114917925D01*
X127453986Y-114938300D01*
X127471313Y-114955627D01*
X127491688Y-114969240D01*
X127514327Y-114978618D01*
X127550612Y-114984000D01*
X127697000Y-114984000D01*
X127697000Y-116156000D01*
X127550612Y-116156000D01*
X127526226Y-116158402D01*
X127502777Y-116165515D01*
X127481166Y-116177066D01*
X127462224Y-116192612D01*
X127446678Y-116211554D01*
X127435127Y-116233165D01*
X127428014Y-116256614D01*
X127425612Y-116281000D01*
X127428014Y-116305386D01*
X127435127Y-116328835D01*
X127446678Y-116350446D01*
X127471312Y-116377626D01*
X127527369Y-116423631D01*
X127600600Y-116512863D01*
X127655013Y-116614662D01*
X127688521Y-116725123D01*
X127699835Y-116840000D01*
X127688521Y-116954877D01*
X127655013Y-117065338D01*
X127600600Y-117167137D01*
X127527369Y-117256369D01*
X127438137Y-117329600D01*
X127336338Y-117384013D01*
X127225877Y-117417521D01*
X127139786Y-117426000D01*
X126352214Y-117426000D01*
X126266123Y-117417521D01*
X126155662Y-117384013D01*
X126053863Y-117329600D01*
X125964631Y-117256369D01*
X125891400Y-117167137D01*
X125836987Y-117065338D01*
X125803479Y-116954877D01*
X125792165Y-116840000D01*
X125803479Y-116725123D01*
X125836987Y-116614662D01*
X125891400Y-116512863D01*
X125964631Y-116423631D01*
X126020688Y-116377626D01*
X126038015Y-116360299D01*
X126051628Y-116339924D01*
X126061006Y-116317285D01*
X126065786Y-116293251D01*
X126065786Y-116268747D01*
X126061005Y-116244714D01*
X126051628Y-116222075D01*
X126038014Y-116201700D01*
X126020687Y-116184373D01*
X126000312Y-116170760D01*
X125977673Y-116161382D01*
X125941388Y-116156000D01*
X125795000Y-116156000D01*
X125795000Y-114984000D01*
X125941388Y-114984000D01*
X125965774Y-114981598D01*
X125989223Y-114974485D01*
X126010834Y-114962934D01*
X126029776Y-114947388D01*
X126045322Y-114928446D01*
X126056873Y-114906835D01*
X126063986Y-114883386D01*
X126066388Y-114859000D01*
X126063986Y-114834614D01*
X126056873Y-114811165D01*
X126045322Y-114789554D01*
X126020688Y-114762374D01*
X125964631Y-114716369D01*
X125891400Y-114627137D01*
X125836987Y-114525338D01*
X125803479Y-114414877D01*
X125792165Y-114300000D01*
X125803479Y-114185123D01*
X125836987Y-114074662D01*
X125891400Y-113972863D01*
X125964631Y-113883631D01*
X126053863Y-113810400D01*
X126119643Y-113775240D01*
X126140018Y-113761627D01*
X126157345Y-113744300D01*
X126170959Y-113723925D01*
X126180336Y-113701286D01*
X126185117Y-113677253D01*
X126185117Y-113652748D01*
X126180337Y-113628715D01*
X126170959Y-113606076D01*
X126157346Y-113585701D01*
X126140019Y-113568374D01*
X126119643Y-113554760D01*
X126053863Y-113519600D01*
X125964631Y-113446369D01*
X125891400Y-113357137D01*
X125836987Y-113255338D01*
X125803479Y-113144877D01*
X125792165Y-113030000D01*
X125803479Y-112915123D01*
X125836987Y-112804662D01*
X125891400Y-112702863D01*
X125964631Y-112613631D01*
X126053863Y-112540400D01*
X126155662Y-112485987D01*
X126266123Y-112452479D01*
X126352214Y-112444000D01*
X127139786Y-112444000D01*
X127225877Y-112452479D01*
X127225877Y-112452479D01*
G37*
G36*
X99768677Y-115394965D02*
G01*
X99806364Y-115406398D01*
X99841103Y-115424966D01*
X99871548Y-115449952D01*
X99896534Y-115480397D01*
X99915102Y-115515136D01*
X99926535Y-115552823D01*
X99931000Y-115598161D01*
X99931000Y-116684839D01*
X99926535Y-116730177D01*
X99915102Y-116767864D01*
X99896534Y-116802603D01*
X99871548Y-116833048D01*
X99841103Y-116858034D01*
X99806364Y-116876602D01*
X99768677Y-116888035D01*
X99723339Y-116892500D01*
X98886661Y-116892500D01*
X98841323Y-116888035D01*
X98803636Y-116876602D01*
X98768897Y-116858034D01*
X98738452Y-116833048D01*
X98713466Y-116802603D01*
X98694898Y-116767864D01*
X98683465Y-116730177D01*
X98679000Y-116684839D01*
X98679000Y-115598161D01*
X98683465Y-115552823D01*
X98694898Y-115515136D01*
X98713466Y-115480397D01*
X98738452Y-115449952D01*
X98768897Y-115424966D01*
X98803636Y-115406398D01*
X98841323Y-115394965D01*
X98886661Y-115390500D01*
X99723339Y-115390500D01*
X99768677Y-115394965D01*
X99768677Y-115394965D01*
G37*
G36*
X101818677Y-115394965D02*
G01*
X101856364Y-115406398D01*
X101891103Y-115424966D01*
X101921548Y-115449952D01*
X101946534Y-115480397D01*
X101965102Y-115515136D01*
X101976535Y-115552823D01*
X101981000Y-115598161D01*
X101981000Y-116684839D01*
X101976535Y-116730177D01*
X101965102Y-116767864D01*
X101946534Y-116802603D01*
X101921548Y-116833048D01*
X101891103Y-116858034D01*
X101856364Y-116876602D01*
X101818677Y-116888035D01*
X101773339Y-116892500D01*
X100936661Y-116892500D01*
X100891323Y-116888035D01*
X100853636Y-116876602D01*
X100818897Y-116858034D01*
X100788452Y-116833048D01*
X100763466Y-116802603D01*
X100744898Y-116767864D01*
X100733465Y-116730177D01*
X100729000Y-116684839D01*
X100729000Y-115598161D01*
X100733465Y-115552823D01*
X100744898Y-115515136D01*
X100763466Y-115480397D01*
X100788452Y-115449952D01*
X100818897Y-115424966D01*
X100853636Y-115406398D01*
X100891323Y-115394965D01*
X100936661Y-115390500D01*
X101773339Y-115390500D01*
X101818677Y-115394965D01*
X101818677Y-115394965D01*
G37*
G36*
X136577294Y-115049633D02*
G01*
X136749694Y-115101931D01*
X136749696Y-115101932D01*
X136908583Y-115186859D01*
X137047849Y-115301151D01*
X137162141Y-115440417D01*
X137200115Y-115511462D01*
X137247069Y-115599306D01*
X137299367Y-115771706D01*
X137317025Y-115951000D01*
X137299367Y-116130294D01*
X137247841Y-116300148D01*
X137247068Y-116302696D01*
X137162141Y-116461583D01*
X137047849Y-116600849D01*
X136908583Y-116715141D01*
X136749696Y-116800068D01*
X136749694Y-116800069D01*
X136577294Y-116852367D01*
X136442931Y-116865600D01*
X136353069Y-116865600D01*
X136218706Y-116852367D01*
X136046306Y-116800069D01*
X136046304Y-116800068D01*
X135887417Y-116715141D01*
X135748151Y-116600849D01*
X135633859Y-116461583D01*
X135548932Y-116302696D01*
X135548159Y-116300148D01*
X135496633Y-116130294D01*
X135478975Y-115951000D01*
X135496633Y-115771706D01*
X135548931Y-115599306D01*
X135595885Y-115511462D01*
X135633859Y-115440417D01*
X135748151Y-115301151D01*
X135887417Y-115186859D01*
X136046304Y-115101932D01*
X136046306Y-115101931D01*
X136218706Y-115049633D01*
X136353069Y-115036400D01*
X136442931Y-115036400D01*
X136577294Y-115049633D01*
X136577294Y-115049633D01*
G37*
G36*
X141657294Y-115049633D02*
G01*
X141829694Y-115101931D01*
X141829696Y-115101932D01*
X141988583Y-115186859D01*
X142127849Y-115301151D01*
X142242141Y-115440417D01*
X142280115Y-115511462D01*
X142327069Y-115599306D01*
X142379367Y-115771706D01*
X142397025Y-115951000D01*
X142379367Y-116130294D01*
X142327841Y-116300148D01*
X142327068Y-116302696D01*
X142242141Y-116461583D01*
X142127849Y-116600849D01*
X141988583Y-116715141D01*
X141829696Y-116800068D01*
X141829694Y-116800069D01*
X141657294Y-116852367D01*
X141522931Y-116865600D01*
X141433069Y-116865600D01*
X141298706Y-116852367D01*
X141126306Y-116800069D01*
X141126304Y-116800068D01*
X140967417Y-116715141D01*
X140828151Y-116600849D01*
X140713859Y-116461583D01*
X140628932Y-116302696D01*
X140628159Y-116300148D01*
X140576633Y-116130294D01*
X140558975Y-115951000D01*
X140576633Y-115771706D01*
X140628931Y-115599306D01*
X140675885Y-115511462D01*
X140713859Y-115440417D01*
X140828151Y-115301151D01*
X140967417Y-115186859D01*
X141126304Y-115101932D01*
X141126306Y-115101931D01*
X141298706Y-115049633D01*
X141433069Y-115036400D01*
X141522931Y-115036400D01*
X141657294Y-115049633D01*
X141657294Y-115049633D01*
G37*
G36*
X139117294Y-115049633D02*
G01*
X139289694Y-115101931D01*
X139289696Y-115101932D01*
X139448583Y-115186859D01*
X139587849Y-115301151D01*
X139702141Y-115440417D01*
X139740115Y-115511462D01*
X139787069Y-115599306D01*
X139839367Y-115771706D01*
X139857025Y-115951000D01*
X139839367Y-116130294D01*
X139787841Y-116300148D01*
X139787068Y-116302696D01*
X139702141Y-116461583D01*
X139587849Y-116600849D01*
X139448583Y-116715141D01*
X139289696Y-116800068D01*
X139289694Y-116800069D01*
X139117294Y-116852367D01*
X138982931Y-116865600D01*
X138893069Y-116865600D01*
X138758706Y-116852367D01*
X138586306Y-116800069D01*
X138586304Y-116800068D01*
X138427417Y-116715141D01*
X138288151Y-116600849D01*
X138173859Y-116461583D01*
X138088932Y-116302696D01*
X138088159Y-116300148D01*
X138036633Y-116130294D01*
X138018975Y-115951000D01*
X138036633Y-115771706D01*
X138088931Y-115599306D01*
X138135885Y-115511462D01*
X138173859Y-115440417D01*
X138288151Y-115301151D01*
X138427417Y-115186859D01*
X138586304Y-115101932D01*
X138586306Y-115101931D01*
X138758706Y-115049633D01*
X138893069Y-115036400D01*
X138982931Y-115036400D01*
X139117294Y-115049633D01*
X139117294Y-115049633D01*
G37*
G36*
X121226562Y-113632181D02*
G01*
X121261477Y-113642773D01*
X121293665Y-113659978D01*
X121321873Y-113683127D01*
X121345022Y-113711335D01*
X121362227Y-113743523D01*
X121372819Y-113778438D01*
X121377000Y-113820895D01*
X121377000Y-115287105D01*
X121372819Y-115329562D01*
X121362227Y-115364477D01*
X121345022Y-115396665D01*
X121321873Y-115424873D01*
X121293665Y-115448022D01*
X121261477Y-115465227D01*
X121226562Y-115475819D01*
X121184105Y-115480000D01*
X120042895Y-115480000D01*
X120000438Y-115475819D01*
X119965523Y-115465227D01*
X119933335Y-115448022D01*
X119905127Y-115424873D01*
X119881978Y-115396665D01*
X119864773Y-115364477D01*
X119854181Y-115329562D01*
X119850000Y-115287105D01*
X119850000Y-113820895D01*
X119854181Y-113778438D01*
X119864773Y-113743523D01*
X119881978Y-113711335D01*
X119905127Y-113683127D01*
X119933335Y-113659978D01*
X119965523Y-113642773D01*
X120000438Y-113632181D01*
X120042895Y-113628000D01*
X121184105Y-113628000D01*
X121226562Y-113632181D01*
X121226562Y-113632181D01*
G37*
G36*
X118251562Y-113632181D02*
G01*
X118286477Y-113642773D01*
X118318665Y-113659978D01*
X118346873Y-113683127D01*
X118370022Y-113711335D01*
X118387227Y-113743523D01*
X118397819Y-113778438D01*
X118402000Y-113820895D01*
X118402000Y-115287105D01*
X118397819Y-115329562D01*
X118387227Y-115364477D01*
X118370022Y-115396665D01*
X118346873Y-115424873D01*
X118318665Y-115448022D01*
X118286477Y-115465227D01*
X118251562Y-115475819D01*
X118209105Y-115480000D01*
X117067895Y-115480000D01*
X117025438Y-115475819D01*
X116990523Y-115465227D01*
X116958335Y-115448022D01*
X116930127Y-115424873D01*
X116906978Y-115396665D01*
X116889773Y-115364477D01*
X116879181Y-115329562D01*
X116875000Y-115287105D01*
X116875000Y-113820895D01*
X116879181Y-113778438D01*
X116889773Y-113743523D01*
X116906978Y-113711335D01*
X116930127Y-113683127D01*
X116958335Y-113659978D01*
X116990523Y-113642773D01*
X117025438Y-113632181D01*
X117067895Y-113628000D01*
X118209105Y-113628000D01*
X118251562Y-113632181D01*
X118251562Y-113632181D01*
G37*
G36*
X99768677Y-113426465D02*
G01*
X99806364Y-113437898D01*
X99841103Y-113456466D01*
X99871548Y-113481452D01*
X99896534Y-113511897D01*
X99915102Y-113546636D01*
X99926535Y-113584323D01*
X99931000Y-113629661D01*
X99931000Y-114716339D01*
X99926535Y-114761677D01*
X99915102Y-114799364D01*
X99896534Y-114834103D01*
X99871548Y-114864548D01*
X99841103Y-114889534D01*
X99806364Y-114908102D01*
X99768677Y-114919535D01*
X99723339Y-114924000D01*
X98886661Y-114924000D01*
X98841323Y-114919535D01*
X98803636Y-114908102D01*
X98768897Y-114889534D01*
X98738452Y-114864548D01*
X98713466Y-114834103D01*
X98694898Y-114799364D01*
X98683465Y-114761677D01*
X98679000Y-114716339D01*
X98679000Y-113629661D01*
X98683465Y-113584323D01*
X98694898Y-113546636D01*
X98713466Y-113511897D01*
X98738452Y-113481452D01*
X98768897Y-113456466D01*
X98803636Y-113437898D01*
X98841323Y-113426465D01*
X98886661Y-113422000D01*
X99723339Y-113422000D01*
X99768677Y-113426465D01*
X99768677Y-113426465D01*
G37*
G36*
X101818677Y-113426465D02*
G01*
X101856364Y-113437898D01*
X101891103Y-113456466D01*
X101921548Y-113481452D01*
X101946534Y-113511897D01*
X101965102Y-113546636D01*
X101976535Y-113584323D01*
X101981000Y-113629661D01*
X101981000Y-114716339D01*
X101976535Y-114761677D01*
X101965102Y-114799364D01*
X101946534Y-114834103D01*
X101921548Y-114864548D01*
X101891103Y-114889534D01*
X101856364Y-114908102D01*
X101818677Y-114919535D01*
X101773339Y-114924000D01*
X100936661Y-114924000D01*
X100891323Y-114919535D01*
X100853636Y-114908102D01*
X100818897Y-114889534D01*
X100788452Y-114864548D01*
X100763466Y-114834103D01*
X100744898Y-114799364D01*
X100733465Y-114761677D01*
X100729000Y-114716339D01*
X100729000Y-113629661D01*
X100733465Y-113584323D01*
X100744898Y-113546636D01*
X100763466Y-113511897D01*
X100788452Y-113481452D01*
X100818897Y-113456466D01*
X100853636Y-113437898D01*
X100891323Y-113426465D01*
X100936661Y-113422000D01*
X101773339Y-113422000D01*
X101818677Y-113426465D01*
X101818677Y-113426465D01*
G37*
G36*
X142392600Y-114325600D02*
G01*
X140563400Y-114325600D01*
X140563400Y-112496400D01*
X142392600Y-112496400D01*
X142392600Y-114325600D01*
X142392600Y-114325600D01*
G37*
G36*
X139117294Y-112509633D02*
G01*
X139289694Y-112561931D01*
X139289696Y-112561932D01*
X139448583Y-112646859D01*
X139587849Y-112761151D01*
X139702141Y-112900417D01*
X139729235Y-112951107D01*
X139787069Y-113059306D01*
X139839367Y-113231706D01*
X139857025Y-113411000D01*
X139839367Y-113590294D01*
X139787069Y-113762694D01*
X139787068Y-113762696D01*
X139702141Y-113921583D01*
X139587849Y-114060849D01*
X139448583Y-114175141D01*
X139368783Y-114217795D01*
X139289694Y-114260069D01*
X139117294Y-114312367D01*
X138982931Y-114325600D01*
X138893069Y-114325600D01*
X138758706Y-114312367D01*
X138586306Y-114260069D01*
X138507217Y-114217795D01*
X138427417Y-114175141D01*
X138288151Y-114060849D01*
X138173859Y-113921583D01*
X138088932Y-113762696D01*
X138088931Y-113762694D01*
X138036633Y-113590294D01*
X138018975Y-113411000D01*
X138036633Y-113231706D01*
X138088931Y-113059306D01*
X138146765Y-112951107D01*
X138173859Y-112900417D01*
X138288151Y-112761151D01*
X138427417Y-112646859D01*
X138586304Y-112561932D01*
X138586306Y-112561931D01*
X138758706Y-112509633D01*
X138893069Y-112496400D01*
X138982931Y-112496400D01*
X139117294Y-112509633D01*
X139117294Y-112509633D01*
G37*
G36*
X136577294Y-112509633D02*
G01*
X136749694Y-112561931D01*
X136749696Y-112561932D01*
X136908583Y-112646859D01*
X137047849Y-112761151D01*
X137162141Y-112900417D01*
X137189235Y-112951107D01*
X137247069Y-113059306D01*
X137299367Y-113231706D01*
X137317025Y-113411000D01*
X137299367Y-113590294D01*
X137247069Y-113762694D01*
X137247068Y-113762696D01*
X137162141Y-113921583D01*
X137047849Y-114060849D01*
X136908583Y-114175141D01*
X136828783Y-114217795D01*
X136749694Y-114260069D01*
X136577294Y-114312367D01*
X136442931Y-114325600D01*
X136353069Y-114325600D01*
X136218706Y-114312367D01*
X136046306Y-114260069D01*
X135967217Y-114217795D01*
X135887417Y-114175141D01*
X135748151Y-114060849D01*
X135633859Y-113921583D01*
X135548932Y-113762696D01*
X135548931Y-113762694D01*
X135496633Y-113590294D01*
X135478975Y-113411000D01*
X135496633Y-113231706D01*
X135548931Y-113059306D01*
X135606765Y-112951107D01*
X135633859Y-112900417D01*
X135748151Y-112761151D01*
X135887417Y-112646859D01*
X136046304Y-112561932D01*
X136046306Y-112561931D01*
X136218706Y-112509633D01*
X136353069Y-112496400D01*
X136442931Y-112496400D01*
X136577294Y-112509633D01*
X136577294Y-112509633D01*
G37*
G36*
X107367643Y-112259781D02*
G01*
X107513415Y-112320162D01*
X107644611Y-112407824D01*
X107756176Y-112519389D01*
X107843838Y-112650585D01*
X107904219Y-112796357D01*
X107935000Y-112951107D01*
X107935000Y-113108893D01*
X107904219Y-113263643D01*
X107843838Y-113409415D01*
X107756176Y-113540611D01*
X107644611Y-113652176D01*
X107513415Y-113739838D01*
X107367643Y-113800219D01*
X107212893Y-113831000D01*
X107055107Y-113831000D01*
X106900357Y-113800219D01*
X106754585Y-113739838D01*
X106623389Y-113652176D01*
X106511824Y-113540611D01*
X106424162Y-113409415D01*
X106363781Y-113263643D01*
X106333000Y-113108893D01*
X106333000Y-112951107D01*
X106363781Y-112796357D01*
X106424162Y-112650585D01*
X106511824Y-112519389D01*
X106623389Y-112407824D01*
X106754585Y-112320162D01*
X106900357Y-112259781D01*
X107055107Y-112229000D01*
X107212893Y-112229000D01*
X107367643Y-112259781D01*
X107367643Y-112259781D01*
G37*
G36*
X112247643Y-112259781D02*
G01*
X112393415Y-112320162D01*
X112524611Y-112407824D01*
X112636176Y-112519389D01*
X112723838Y-112650585D01*
X112784219Y-112796357D01*
X112815000Y-112951107D01*
X112815000Y-113108893D01*
X112784219Y-113263643D01*
X112723838Y-113409415D01*
X112636176Y-113540611D01*
X112524611Y-113652176D01*
X112393415Y-113739838D01*
X112247643Y-113800219D01*
X112092893Y-113831000D01*
X111935107Y-113831000D01*
X111780357Y-113800219D01*
X111634585Y-113739838D01*
X111503389Y-113652176D01*
X111391824Y-113540611D01*
X111304162Y-113409415D01*
X111243781Y-113263643D01*
X111213000Y-113108893D01*
X111213000Y-112951107D01*
X111243781Y-112796357D01*
X111304162Y-112650585D01*
X111391824Y-112519389D01*
X111503389Y-112407824D01*
X111634585Y-112320162D01*
X111780357Y-112259781D01*
X111935107Y-112229000D01*
X112092893Y-112229000D01*
X112247643Y-112259781D01*
X112247643Y-112259781D01*
G37*
G36*
X118251562Y-111092181D02*
G01*
X118286477Y-111102773D01*
X118318665Y-111119978D01*
X118346873Y-111143127D01*
X118370022Y-111171335D01*
X118387227Y-111203523D01*
X118397819Y-111238438D01*
X118402000Y-111280895D01*
X118402000Y-112747105D01*
X118397819Y-112789562D01*
X118387227Y-112824477D01*
X118370022Y-112856665D01*
X118346873Y-112884873D01*
X118318665Y-112908022D01*
X118286477Y-112925227D01*
X118251562Y-112935819D01*
X118209105Y-112940000D01*
X117067895Y-112940000D01*
X117025438Y-112935819D01*
X116990523Y-112925227D01*
X116958335Y-112908022D01*
X116930127Y-112884873D01*
X116906978Y-112856665D01*
X116889773Y-112824477D01*
X116879181Y-112789562D01*
X116875000Y-112747105D01*
X116875000Y-111280895D01*
X116879181Y-111238438D01*
X116889773Y-111203523D01*
X116906978Y-111171335D01*
X116930127Y-111143127D01*
X116958335Y-111119978D01*
X116990523Y-111102773D01*
X117025438Y-111092181D01*
X117067895Y-111088000D01*
X118209105Y-111088000D01*
X118251562Y-111092181D01*
X118251562Y-111092181D01*
G37*
G36*
X121226562Y-111092181D02*
G01*
X121261477Y-111102773D01*
X121293665Y-111119978D01*
X121321873Y-111143127D01*
X121345022Y-111171335D01*
X121362227Y-111203523D01*
X121372819Y-111238438D01*
X121377000Y-111280895D01*
X121377000Y-112747105D01*
X121372819Y-112789562D01*
X121362227Y-112824477D01*
X121345022Y-112856665D01*
X121321873Y-112884873D01*
X121293665Y-112908022D01*
X121261477Y-112925227D01*
X121226562Y-112935819D01*
X121184105Y-112940000D01*
X120042895Y-112940000D01*
X120000438Y-112935819D01*
X119965523Y-112925227D01*
X119933335Y-112908022D01*
X119905127Y-112884873D01*
X119881978Y-112856665D01*
X119864773Y-112824477D01*
X119854181Y-112789562D01*
X119850000Y-112747105D01*
X119850000Y-111280895D01*
X119854181Y-111238438D01*
X119864773Y-111203523D01*
X119881978Y-111171335D01*
X119905127Y-111143127D01*
X119933335Y-111119978D01*
X119965523Y-111102773D01*
X120000438Y-111092181D01*
X120042895Y-111088000D01*
X121184105Y-111088000D01*
X121226562Y-111092181D01*
X121226562Y-111092181D01*
G37*
G36*
X94568677Y-110385465D02*
G01*
X94606364Y-110396898D01*
X94641103Y-110415466D01*
X94671548Y-110440452D01*
X94696534Y-110470897D01*
X94715102Y-110505636D01*
X94726535Y-110543323D01*
X94731000Y-110588661D01*
X94731000Y-111425339D01*
X94726535Y-111470677D01*
X94715102Y-111508364D01*
X94696534Y-111543103D01*
X94671548Y-111573548D01*
X94641103Y-111598534D01*
X94606364Y-111617102D01*
X94568677Y-111628535D01*
X94523339Y-111633000D01*
X93436661Y-111633000D01*
X93391323Y-111628535D01*
X93353636Y-111617102D01*
X93318897Y-111598534D01*
X93288452Y-111573548D01*
X93263466Y-111543103D01*
X93244898Y-111508364D01*
X93233465Y-111470677D01*
X93229000Y-111425339D01*
X93229000Y-110588661D01*
X93233465Y-110543323D01*
X93244898Y-110505636D01*
X93263466Y-110470897D01*
X93288452Y-110440452D01*
X93318897Y-110415466D01*
X93353636Y-110396898D01*
X93391323Y-110385465D01*
X93436661Y-110381000D01*
X94523339Y-110381000D01*
X94568677Y-110385465D01*
X94568677Y-110385465D01*
G37*
G36*
X97605500Y-111349000D02*
G01*
X96003500Y-111349000D01*
X96003500Y-110647000D01*
X97605500Y-110647000D01*
X97605500Y-111349000D01*
X97605500Y-111349000D01*
G37*
G36*
X103005500Y-111349000D02*
G01*
X101403500Y-111349000D01*
X101403500Y-110647000D01*
X103005500Y-110647000D01*
X103005500Y-111349000D01*
X103005500Y-111349000D01*
G37*
G36*
X103005500Y-110079000D02*
G01*
X101403500Y-110079000D01*
X101403500Y-109377000D01*
X103005500Y-109377000D01*
X103005500Y-110079000D01*
X103005500Y-110079000D01*
G37*
G36*
X97605500Y-110079000D02*
G01*
X96003500Y-110079000D01*
X96003500Y-109377000D01*
X97605500Y-109377000D01*
X97605500Y-110079000D01*
X97605500Y-110079000D01*
G37*
G36*
X94568677Y-108335465D02*
G01*
X94606364Y-108346898D01*
X94641103Y-108365466D01*
X94671548Y-108390452D01*
X94696534Y-108420897D01*
X94715102Y-108455636D01*
X94726535Y-108493323D01*
X94731000Y-108538661D01*
X94731000Y-109375339D01*
X94726535Y-109420677D01*
X94715102Y-109458364D01*
X94696534Y-109493103D01*
X94671548Y-109523548D01*
X94641103Y-109548534D01*
X94606364Y-109567102D01*
X94568677Y-109578535D01*
X94523339Y-109583000D01*
X93436661Y-109583000D01*
X93391323Y-109578535D01*
X93353636Y-109567102D01*
X93318897Y-109548534D01*
X93288452Y-109523548D01*
X93263466Y-109493103D01*
X93244898Y-109458364D01*
X93233465Y-109420677D01*
X93229000Y-109375339D01*
X93229000Y-108538661D01*
X93233465Y-108493323D01*
X93244898Y-108455636D01*
X93263466Y-108420897D01*
X93288452Y-108390452D01*
X93318897Y-108365466D01*
X93353636Y-108346898D01*
X93391323Y-108335465D01*
X93436661Y-108331000D01*
X94523339Y-108331000D01*
X94568677Y-108335465D01*
X94568677Y-108335465D01*
G37*
G36*
X119026000Y-108885000D02*
G01*
X112774000Y-108885000D01*
X112774000Y-107183000D01*
X119026000Y-107183000D01*
X119026000Y-108885000D01*
X119026000Y-108885000D01*
G37*
G36*
X103005500Y-108809000D02*
G01*
X101403500Y-108809000D01*
X101403500Y-108107000D01*
X103005500Y-108107000D01*
X103005500Y-108809000D01*
X103005500Y-108809000D01*
G37*
G36*
X97605500Y-108809000D02*
G01*
X96003500Y-108809000D01*
X96003500Y-108107000D01*
X97605500Y-108107000D01*
X97605500Y-108809000D01*
X97605500Y-108809000D01*
G37*
G36*
X123854677Y-107235465D02*
G01*
X123892364Y-107246898D01*
X123927103Y-107265466D01*
X123957548Y-107290452D01*
X123982534Y-107320897D01*
X124001102Y-107355636D01*
X124012535Y-107393323D01*
X124017000Y-107438661D01*
X124017000Y-108275339D01*
X124012535Y-108320677D01*
X124001102Y-108358364D01*
X123982534Y-108393103D01*
X123957548Y-108423548D01*
X123927103Y-108448534D01*
X123892364Y-108467102D01*
X123854677Y-108478535D01*
X123809339Y-108483000D01*
X122722661Y-108483000D01*
X122677323Y-108478535D01*
X122639636Y-108467102D01*
X122604897Y-108448534D01*
X122574452Y-108423548D01*
X122549466Y-108393103D01*
X122530898Y-108358364D01*
X122519465Y-108320677D01*
X122515000Y-108275339D01*
X122515000Y-107438661D01*
X122519465Y-107393323D01*
X122530898Y-107355636D01*
X122549466Y-107320897D01*
X122574452Y-107290452D01*
X122604897Y-107265466D01*
X122639636Y-107246898D01*
X122677323Y-107235465D01*
X122722661Y-107231000D01*
X123809339Y-107231000D01*
X123854677Y-107235465D01*
X123854677Y-107235465D01*
G37*
G36*
X126140677Y-107235465D02*
G01*
X126178364Y-107246898D01*
X126213103Y-107265466D01*
X126243548Y-107290452D01*
X126268534Y-107320897D01*
X126287102Y-107355636D01*
X126298535Y-107393323D01*
X126303000Y-107438661D01*
X126303000Y-108275339D01*
X126298535Y-108320677D01*
X126287102Y-108358364D01*
X126268534Y-108393103D01*
X126243548Y-108423548D01*
X126213103Y-108448534D01*
X126178364Y-108467102D01*
X126140677Y-108478535D01*
X126095339Y-108483000D01*
X125008661Y-108483000D01*
X124963323Y-108478535D01*
X124925636Y-108467102D01*
X124890897Y-108448534D01*
X124860452Y-108423548D01*
X124835466Y-108393103D01*
X124816898Y-108358364D01*
X124805465Y-108320677D01*
X124801000Y-108275339D01*
X124801000Y-107438661D01*
X124805465Y-107393323D01*
X124816898Y-107355636D01*
X124835466Y-107320897D01*
X124860452Y-107290452D01*
X124890897Y-107265466D01*
X124925636Y-107246898D01*
X124963323Y-107235465D01*
X125008661Y-107231000D01*
X126095339Y-107231000D01*
X126140677Y-107235465D01*
X126140677Y-107235465D01*
G37*
G36*
X108714524Y-106841131D02*
G01*
X108752211Y-106852564D01*
X108786950Y-106871132D01*
X108817395Y-106896118D01*
X108842381Y-106926563D01*
X108860949Y-106961302D01*
X108872382Y-106998989D01*
X108876847Y-107044327D01*
X108876847Y-107881005D01*
X108872382Y-107926343D01*
X108860949Y-107964030D01*
X108842381Y-107998769D01*
X108817395Y-108029214D01*
X108786950Y-108054200D01*
X108752211Y-108072768D01*
X108714524Y-108084201D01*
X108669186Y-108088666D01*
X107582508Y-108088666D01*
X107537170Y-108084201D01*
X107499483Y-108072768D01*
X107464744Y-108054200D01*
X107434299Y-108029214D01*
X107409313Y-107998769D01*
X107390745Y-107964030D01*
X107379312Y-107926343D01*
X107374847Y-107881005D01*
X107374847Y-107044327D01*
X107379312Y-106998989D01*
X107390745Y-106961302D01*
X107409313Y-106926563D01*
X107434299Y-106896118D01*
X107464744Y-106871132D01*
X107499483Y-106852564D01*
X107537170Y-106841131D01*
X107582508Y-106836666D01*
X108669186Y-106836666D01*
X108714524Y-106841131D01*
X108714524Y-106841131D01*
G37*
G36*
X106682524Y-106841131D02*
G01*
X106720211Y-106852564D01*
X106754950Y-106871132D01*
X106785395Y-106896118D01*
X106810381Y-106926563D01*
X106828949Y-106961302D01*
X106840382Y-106998989D01*
X106844847Y-107044327D01*
X106844847Y-107881005D01*
X106840382Y-107926343D01*
X106828949Y-107964030D01*
X106810381Y-107998769D01*
X106785395Y-108029214D01*
X106754950Y-108054200D01*
X106720211Y-108072768D01*
X106682524Y-108084201D01*
X106637186Y-108088666D01*
X105550508Y-108088666D01*
X105505170Y-108084201D01*
X105467483Y-108072768D01*
X105432744Y-108054200D01*
X105402299Y-108029214D01*
X105377313Y-107998769D01*
X105358745Y-107964030D01*
X105347312Y-107926343D01*
X105342847Y-107881005D01*
X105342847Y-107044327D01*
X105347312Y-106998989D01*
X105358745Y-106961302D01*
X105377313Y-106926563D01*
X105402299Y-106896118D01*
X105432744Y-106871132D01*
X105467483Y-106852564D01*
X105505170Y-106841131D01*
X105550508Y-106836666D01*
X106637186Y-106836666D01*
X106682524Y-106841131D01*
X106682524Y-106841131D01*
G37*
G36*
X130898000Y-107793000D02*
G01*
X129296000Y-107793000D01*
X129296000Y-107091000D01*
X130898000Y-107091000D01*
X130898000Y-107793000D01*
X130898000Y-107793000D01*
G37*
G36*
X140198000Y-107793000D02*
G01*
X138596000Y-107793000D01*
X138596000Y-107091000D01*
X140198000Y-107091000D01*
X140198000Y-107793000D01*
X140198000Y-107793000D01*
G37*
G36*
X156199000Y-107588000D02*
G01*
X153897000Y-107588000D01*
X153897000Y-106286000D01*
X156199000Y-106286000D01*
X156199000Y-107588000D01*
X156199000Y-107588000D01*
G37*
G36*
X145799000Y-106161000D02*
G01*
X145801402Y-106185386D01*
X145808515Y-106208835D01*
X145820066Y-106230446D01*
X145835612Y-106249388D01*
X145854554Y-106264934D01*
X145876165Y-106276485D01*
X145899614Y-106283598D01*
X145924000Y-106286000D01*
X146199000Y-106286000D01*
X146199000Y-107588000D01*
X144697000Y-107588000D01*
X144697000Y-106313000D01*
X144694598Y-106288614D01*
X144687485Y-106265165D01*
X144675934Y-106243554D01*
X144660388Y-106224612D01*
X144641446Y-106209066D01*
X144619835Y-106197515D01*
X144596386Y-106190402D01*
X144572000Y-106188000D01*
X144097000Y-106188000D01*
X144097000Y-105386000D01*
X145799000Y-105386000D01*
X145799000Y-106161000D01*
X145799000Y-106161000D01*
G37*
G36*
X103005500Y-107539000D02*
G01*
X101403500Y-107539000D01*
X101403500Y-106837000D01*
X103005500Y-106837000D01*
X103005500Y-107539000D01*
X103005500Y-107539000D01*
G37*
G36*
X97605500Y-107539000D02*
G01*
X96003500Y-107539000D01*
X96003500Y-106837000D01*
X97605500Y-106837000D01*
X97605500Y-107539000D01*
X97605500Y-107539000D01*
G37*
G36*
X112501000Y-106910000D02*
G01*
X110799000Y-106910000D01*
X110799000Y-100658000D01*
X112501000Y-100658000D01*
X112501000Y-106910000D01*
X112501000Y-106910000D01*
G37*
G36*
X121001000Y-106910000D02*
G01*
X119299000Y-106910000D01*
X119299000Y-100658000D01*
X121001000Y-100658000D01*
X121001000Y-106910000D01*
X121001000Y-106910000D01*
G37*
G36*
X142574677Y-105559465D02*
G01*
X142612364Y-105570898D01*
X142647103Y-105589466D01*
X142677548Y-105614452D01*
X142702534Y-105644897D01*
X142721102Y-105679636D01*
X142732535Y-105717323D01*
X142737000Y-105762661D01*
X142737000Y-106599339D01*
X142732535Y-106644677D01*
X142721102Y-106682364D01*
X142702534Y-106717103D01*
X142677548Y-106747548D01*
X142647103Y-106772534D01*
X142612364Y-106791102D01*
X142574677Y-106802535D01*
X142529339Y-106807000D01*
X141442661Y-106807000D01*
X141397323Y-106802535D01*
X141359636Y-106791102D01*
X141324897Y-106772534D01*
X141294452Y-106747548D01*
X141269466Y-106717103D01*
X141250898Y-106682364D01*
X141239465Y-106644677D01*
X141235000Y-106599339D01*
X141235000Y-105762661D01*
X141239465Y-105717323D01*
X141250898Y-105679636D01*
X141269466Y-105644897D01*
X141294452Y-105614452D01*
X141324897Y-105589466D01*
X141359636Y-105570898D01*
X141397323Y-105559465D01*
X141442661Y-105555000D01*
X142529339Y-105555000D01*
X142574677Y-105559465D01*
X142574677Y-105559465D01*
G37*
G36*
X130898000Y-106523000D02*
G01*
X129296000Y-106523000D01*
X129296000Y-105821000D01*
X130898000Y-105821000D01*
X130898000Y-106523000D01*
X130898000Y-106523000D01*
G37*
G36*
X140198000Y-106523000D02*
G01*
X138596000Y-106523000D01*
X138596000Y-105821000D01*
X140198000Y-105821000D01*
X140198000Y-106523000D01*
X140198000Y-106523000D01*
G37*
G36*
X126140677Y-105185465D02*
G01*
X126178364Y-105196898D01*
X126213103Y-105215466D01*
X126243548Y-105240452D01*
X126268534Y-105270897D01*
X126287102Y-105305636D01*
X126298535Y-105343323D01*
X126303000Y-105388661D01*
X126303000Y-106225339D01*
X126298535Y-106270677D01*
X126287102Y-106308364D01*
X126268534Y-106343103D01*
X126243548Y-106373548D01*
X126213103Y-106398534D01*
X126178364Y-106417102D01*
X126140677Y-106428535D01*
X126095339Y-106433000D01*
X125008661Y-106433000D01*
X124963323Y-106428535D01*
X124925636Y-106417102D01*
X124890897Y-106398534D01*
X124860452Y-106373548D01*
X124835466Y-106343103D01*
X124816898Y-106308364D01*
X124805465Y-106270677D01*
X124801000Y-106225339D01*
X124801000Y-105388661D01*
X124805465Y-105343323D01*
X124816898Y-105305636D01*
X124835466Y-105270897D01*
X124860452Y-105240452D01*
X124890897Y-105215466D01*
X124925636Y-105196898D01*
X124963323Y-105185465D01*
X125008661Y-105181000D01*
X126095339Y-105181000D01*
X126140677Y-105185465D01*
X126140677Y-105185465D01*
G37*
G36*
X123854677Y-105185465D02*
G01*
X123892364Y-105196898D01*
X123927103Y-105215466D01*
X123957548Y-105240452D01*
X123982534Y-105270897D01*
X124001102Y-105305636D01*
X124012535Y-105343323D01*
X124017000Y-105388661D01*
X124017000Y-106225339D01*
X124012535Y-106270677D01*
X124001102Y-106308364D01*
X123982534Y-106343103D01*
X123957548Y-106373548D01*
X123927103Y-106398534D01*
X123892364Y-106417102D01*
X123854677Y-106428535D01*
X123809339Y-106433000D01*
X122722661Y-106433000D01*
X122677323Y-106428535D01*
X122639636Y-106417102D01*
X122604897Y-106398534D01*
X122574452Y-106373548D01*
X122549466Y-106343103D01*
X122530898Y-106308364D01*
X122519465Y-106270677D01*
X122515000Y-106225339D01*
X122515000Y-105388661D01*
X122519465Y-105343323D01*
X122530898Y-105305636D01*
X122549466Y-105270897D01*
X122574452Y-105240452D01*
X122604897Y-105215466D01*
X122639636Y-105196898D01*
X122677323Y-105185465D01*
X122722661Y-105181000D01*
X123809339Y-105181000D01*
X123854677Y-105185465D01*
X123854677Y-105185465D01*
G37*
G36*
X97605500Y-106269000D02*
G01*
X96003500Y-106269000D01*
X96003500Y-105567000D01*
X97605500Y-105567000D01*
X97605500Y-106269000D01*
X97605500Y-106269000D01*
G37*
G36*
X103005500Y-106269000D02*
G01*
X101403500Y-106269000D01*
X101403500Y-105567000D01*
X103005500Y-105567000D01*
X103005500Y-106269000D01*
X103005500Y-106269000D01*
G37*
G36*
X108714524Y-104791131D02*
G01*
X108752211Y-104802564D01*
X108786950Y-104821132D01*
X108817395Y-104846118D01*
X108842381Y-104876563D01*
X108860949Y-104911302D01*
X108872382Y-104948989D01*
X108876847Y-104994327D01*
X108876847Y-105831005D01*
X108872382Y-105876343D01*
X108860949Y-105914030D01*
X108842381Y-105948769D01*
X108817395Y-105979214D01*
X108786950Y-106004200D01*
X108752211Y-106022768D01*
X108714524Y-106034201D01*
X108669186Y-106038666D01*
X107582508Y-106038666D01*
X107537170Y-106034201D01*
X107499483Y-106022768D01*
X107464744Y-106004200D01*
X107434299Y-105979214D01*
X107409313Y-105948769D01*
X107390745Y-105914030D01*
X107379312Y-105876343D01*
X107374847Y-105831005D01*
X107374847Y-104994327D01*
X107379312Y-104948989D01*
X107390745Y-104911302D01*
X107409313Y-104876563D01*
X107434299Y-104846118D01*
X107464744Y-104821132D01*
X107499483Y-104802564D01*
X107537170Y-104791131D01*
X107582508Y-104786666D01*
X108669186Y-104786666D01*
X108714524Y-104791131D01*
X108714524Y-104791131D01*
G37*
G36*
X106682524Y-104791131D02*
G01*
X106720211Y-104802564D01*
X106754950Y-104821132D01*
X106785395Y-104846118D01*
X106810381Y-104876563D01*
X106828949Y-104911302D01*
X106840382Y-104948989D01*
X106844847Y-104994327D01*
X106844847Y-105831005D01*
X106840382Y-105876343D01*
X106828949Y-105914030D01*
X106810381Y-105948769D01*
X106785395Y-105979214D01*
X106754950Y-106004200D01*
X106720211Y-106022768D01*
X106682524Y-106034201D01*
X106637186Y-106038666D01*
X105550508Y-106038666D01*
X105505170Y-106034201D01*
X105467483Y-106022768D01*
X105432744Y-106004200D01*
X105402299Y-105979214D01*
X105377313Y-105948769D01*
X105358745Y-105914030D01*
X105347312Y-105876343D01*
X105342847Y-105831005D01*
X105342847Y-104994327D01*
X105347312Y-104948989D01*
X105358745Y-104911302D01*
X105377313Y-104876563D01*
X105402299Y-104846118D01*
X105432744Y-104821132D01*
X105467483Y-104802564D01*
X105505170Y-104791131D01*
X105550508Y-104786666D01*
X106637186Y-104786666D01*
X106682524Y-104791131D01*
X106682524Y-104791131D01*
G37*
G36*
X140198000Y-105253000D02*
G01*
X138596000Y-105253000D01*
X138596000Y-104551000D01*
X140198000Y-104551000D01*
X140198000Y-105253000D01*
X140198000Y-105253000D01*
G37*
G36*
X130898000Y-105253000D02*
G01*
X129296000Y-105253000D01*
X129296000Y-104551000D01*
X130898000Y-104551000D01*
X130898000Y-105253000D01*
X130898000Y-105253000D01*
G37*
G36*
X145799000Y-105088000D02*
G01*
X144097000Y-105088000D01*
X144097000Y-104286000D01*
X145799000Y-104286000D01*
X145799000Y-105088000D01*
X145799000Y-105088000D01*
G37*
G36*
X103005500Y-104999000D02*
G01*
X101403500Y-104999000D01*
X101403500Y-104297000D01*
X103005500Y-104297000D01*
X103005500Y-104999000D01*
X103005500Y-104999000D01*
G37*
G36*
X97605500Y-104999000D02*
G01*
X96003500Y-104999000D01*
X96003500Y-104297000D01*
X97605500Y-104297000D01*
X97605500Y-104999000D01*
X97605500Y-104999000D01*
G37*
G36*
X142574677Y-103509465D02*
G01*
X142612364Y-103520898D01*
X142647103Y-103539466D01*
X142677548Y-103564452D01*
X142702534Y-103594897D01*
X142721102Y-103629636D01*
X142732535Y-103667323D01*
X142737000Y-103712661D01*
X142737000Y-104549339D01*
X142732535Y-104594677D01*
X142721102Y-104632364D01*
X142702534Y-104667103D01*
X142677548Y-104697548D01*
X142647103Y-104722534D01*
X142612364Y-104741102D01*
X142574677Y-104752535D01*
X142529339Y-104757000D01*
X141442661Y-104757000D01*
X141397323Y-104752535D01*
X141359636Y-104741102D01*
X141324897Y-104722534D01*
X141294452Y-104697548D01*
X141269466Y-104667103D01*
X141250898Y-104632364D01*
X141239465Y-104594677D01*
X141235000Y-104549339D01*
X141235000Y-103712661D01*
X141239465Y-103667323D01*
X141250898Y-103629636D01*
X141269466Y-103594897D01*
X141294452Y-103564452D01*
X141324897Y-103539466D01*
X141359636Y-103520898D01*
X141397323Y-103509465D01*
X141442661Y-103505000D01*
X142529339Y-103505000D01*
X142574677Y-103509465D01*
X142574677Y-103509465D01*
G37*
G36*
X123854677Y-103171465D02*
G01*
X123892364Y-103182898D01*
X123927103Y-103201466D01*
X123957548Y-103226452D01*
X123982534Y-103256897D01*
X124001102Y-103291636D01*
X124012535Y-103329323D01*
X124017000Y-103374661D01*
X124017000Y-104211339D01*
X124012535Y-104256677D01*
X124001102Y-104294364D01*
X123982534Y-104329103D01*
X123957548Y-104359548D01*
X123927103Y-104384534D01*
X123892364Y-104403102D01*
X123854677Y-104414535D01*
X123809339Y-104419000D01*
X122722661Y-104419000D01*
X122677323Y-104414535D01*
X122639636Y-104403102D01*
X122604897Y-104384534D01*
X122574452Y-104359548D01*
X122549466Y-104329103D01*
X122530898Y-104294364D01*
X122519465Y-104256677D01*
X122515000Y-104211339D01*
X122515000Y-103374661D01*
X122519465Y-103329323D01*
X122530898Y-103291636D01*
X122549466Y-103256897D01*
X122574452Y-103226452D01*
X122604897Y-103201466D01*
X122639636Y-103182898D01*
X122677323Y-103171465D01*
X122722661Y-103167000D01*
X123809339Y-103167000D01*
X123854677Y-103171465D01*
X123854677Y-103171465D01*
G37*
G36*
X145799000Y-103988000D02*
G01*
X144097000Y-103988000D01*
X144097000Y-103186000D01*
X145799000Y-103186000D01*
X145799000Y-103988000D01*
X145799000Y-103988000D01*
G37*
G36*
X130898000Y-103983000D02*
G01*
X129296000Y-103983000D01*
X129296000Y-103281000D01*
X130898000Y-103281000D01*
X130898000Y-103983000D01*
X130898000Y-103983000D01*
G37*
G36*
X140198000Y-103983000D02*
G01*
X138596000Y-103983000D01*
X138596000Y-103281000D01*
X140198000Y-103281000D01*
X140198000Y-103983000D01*
X140198000Y-103983000D01*
G37*
G36*
X103005500Y-103729000D02*
G01*
X101403500Y-103729000D01*
X101403500Y-103027000D01*
X103005500Y-103027000D01*
X103005500Y-103729000D01*
X103005500Y-103729000D01*
G37*
G36*
X97605500Y-103729000D02*
G01*
X96003500Y-103729000D01*
X96003500Y-103027000D01*
X97605500Y-103027000D01*
X97605500Y-103729000D01*
X97605500Y-103729000D01*
G37*
G36*
X127775562Y-101693181D02*
G01*
X127810477Y-101703773D01*
X127842665Y-101720978D01*
X127870873Y-101744127D01*
X127894022Y-101772335D01*
X127911227Y-101804523D01*
X127921819Y-101839438D01*
X127926000Y-101881895D01*
X127926000Y-103023105D01*
X127921819Y-103065562D01*
X127911227Y-103100477D01*
X127894022Y-103132665D01*
X127870873Y-103160873D01*
X127842665Y-103184022D01*
X127810477Y-103201227D01*
X127775562Y-103211819D01*
X127733105Y-103216000D01*
X126266895Y-103216000D01*
X126224438Y-103211819D01*
X126189523Y-103201227D01*
X126157335Y-103184022D01*
X126129127Y-103160873D01*
X126105978Y-103132665D01*
X126088773Y-103100477D01*
X126078181Y-103065562D01*
X126074000Y-103023105D01*
X126074000Y-101881895D01*
X126078181Y-101839438D01*
X126088773Y-101804523D01*
X126105978Y-101772335D01*
X126129127Y-101744127D01*
X126157335Y-101720978D01*
X126189523Y-101703773D01*
X126224438Y-101693181D01*
X126266895Y-101689000D01*
X127733105Y-101689000D01*
X127775562Y-101693181D01*
X127775562Y-101693181D01*
G37*
G36*
X145799000Y-102888000D02*
G01*
X144097000Y-102888000D01*
X144097000Y-102086000D01*
X145799000Y-102086000D01*
X145799000Y-102888000D01*
X145799000Y-102888000D01*
G37*
G36*
X130898000Y-102713000D02*
G01*
X129296000Y-102713000D01*
X129296000Y-102011000D01*
X130898000Y-102011000D01*
X130898000Y-102713000D01*
X130898000Y-102713000D01*
G37*
G36*
X140198000Y-102713000D02*
G01*
X138596000Y-102713000D01*
X138596000Y-102011000D01*
X140198000Y-102011000D01*
X140198000Y-102713000D01*
X140198000Y-102713000D01*
G37*
G36*
X97605500Y-102459000D02*
G01*
X96003500Y-102459000D01*
X96003500Y-101757000D01*
X97605500Y-101757000D01*
X97605500Y-102459000D01*
X97605500Y-102459000D01*
G37*
G36*
X103005500Y-102459000D02*
G01*
X101403500Y-102459000D01*
X101403500Y-101757000D01*
X103005500Y-101757000D01*
X103005500Y-102459000D01*
X103005500Y-102459000D01*
G37*
G36*
X123854677Y-101121465D02*
G01*
X123892364Y-101132898D01*
X123927103Y-101151466D01*
X123957548Y-101176452D01*
X123982534Y-101206897D01*
X124001102Y-101241636D01*
X124012535Y-101279323D01*
X124017000Y-101324661D01*
X124017000Y-102161339D01*
X124012535Y-102206677D01*
X124001102Y-102244364D01*
X123982534Y-102279103D01*
X123957548Y-102309548D01*
X123927103Y-102334534D01*
X123892364Y-102353102D01*
X123854677Y-102364535D01*
X123809339Y-102369000D01*
X122722661Y-102369000D01*
X122677323Y-102364535D01*
X122639636Y-102353102D01*
X122604897Y-102334534D01*
X122574452Y-102309548D01*
X122549466Y-102279103D01*
X122530898Y-102244364D01*
X122519465Y-102206677D01*
X122515000Y-102161339D01*
X122515000Y-101324661D01*
X122519465Y-101279323D01*
X122530898Y-101241636D01*
X122549466Y-101206897D01*
X122574452Y-101176452D01*
X122604897Y-101151466D01*
X122639636Y-101132898D01*
X122677323Y-101121465D01*
X122722661Y-101117000D01*
X123809339Y-101117000D01*
X123854677Y-101121465D01*
X123854677Y-101121465D01*
G37*
G36*
X145799000Y-101788000D02*
G01*
X144097000Y-101788000D01*
X144097000Y-100986000D01*
X145799000Y-100986000D01*
X145799000Y-101788000D01*
X145799000Y-101788000D01*
G37*
G36*
X140198000Y-101443000D02*
G01*
X138596000Y-101443000D01*
X138596000Y-100741000D01*
X140198000Y-100741000D01*
X140198000Y-101443000D01*
X140198000Y-101443000D01*
G37*
G36*
X130898000Y-101443000D02*
G01*
X129296000Y-101443000D01*
X129296000Y-100741000D01*
X130898000Y-100741000D01*
X130898000Y-101443000D01*
X130898000Y-101443000D01*
G37*
G36*
X109554677Y-100098465D02*
G01*
X109592364Y-100109898D01*
X109627103Y-100128466D01*
X109657548Y-100153452D01*
X109682534Y-100183897D01*
X109701102Y-100218636D01*
X109712535Y-100256323D01*
X109717000Y-100301661D01*
X109717000Y-101138339D01*
X109712535Y-101183677D01*
X109701102Y-101221364D01*
X109682534Y-101256103D01*
X109657548Y-101286548D01*
X109627103Y-101311534D01*
X109592364Y-101330102D01*
X109554677Y-101341535D01*
X109509339Y-101346000D01*
X108422661Y-101346000D01*
X108377323Y-101341535D01*
X108339636Y-101330102D01*
X108304897Y-101311534D01*
X108274452Y-101286548D01*
X108249466Y-101256103D01*
X108230898Y-101221364D01*
X108219465Y-101183677D01*
X108215000Y-101138339D01*
X108215000Y-100301661D01*
X108219465Y-100256323D01*
X108230898Y-100218636D01*
X108249466Y-100183897D01*
X108274452Y-100153452D01*
X108304897Y-100128466D01*
X108339636Y-100109898D01*
X108377323Y-100098465D01*
X108422661Y-100094000D01*
X109509339Y-100094000D01*
X109554677Y-100098465D01*
X109554677Y-100098465D01*
G37*
G36*
X107268677Y-100098465D02*
G01*
X107306364Y-100109898D01*
X107341103Y-100128466D01*
X107371548Y-100153452D01*
X107396534Y-100183897D01*
X107415102Y-100218636D01*
X107426535Y-100256323D01*
X107431000Y-100301661D01*
X107431000Y-101138339D01*
X107426535Y-101183677D01*
X107415102Y-101221364D01*
X107396534Y-101256103D01*
X107371548Y-101286548D01*
X107341103Y-101311534D01*
X107306364Y-101330102D01*
X107268677Y-101341535D01*
X107223339Y-101346000D01*
X106136661Y-101346000D01*
X106091323Y-101341535D01*
X106053636Y-101330102D01*
X106018897Y-101311534D01*
X105988452Y-101286548D01*
X105963466Y-101256103D01*
X105944898Y-101221364D01*
X105933465Y-101183677D01*
X105929000Y-101138339D01*
X105929000Y-100301661D01*
X105933465Y-100256323D01*
X105944898Y-100218636D01*
X105963466Y-100183897D01*
X105988452Y-100153452D01*
X106018897Y-100128466D01*
X106053636Y-100109898D01*
X106091323Y-100098465D01*
X106136661Y-100094000D01*
X107223339Y-100094000D01*
X107268677Y-100098465D01*
X107268677Y-100098465D01*
G37*
G36*
X145799000Y-100688000D02*
G01*
X144097000Y-100688000D01*
X144097000Y-99886000D01*
X145799000Y-99886000D01*
X145799000Y-100688000D01*
X145799000Y-100688000D01*
G37*
G36*
X119026000Y-100385000D02*
G01*
X112774000Y-100385000D01*
X112774000Y-98683000D01*
X119026000Y-98683000D01*
X119026000Y-100385000D01*
X119026000Y-100385000D01*
G37*
G36*
X103518562Y-98772181D02*
G01*
X103553477Y-98782773D01*
X103585665Y-98799978D01*
X103613873Y-98823127D01*
X103637022Y-98851335D01*
X103654227Y-98883523D01*
X103664819Y-98918438D01*
X103669000Y-98960895D01*
X103669000Y-100102105D01*
X103664819Y-100144562D01*
X103654227Y-100179477D01*
X103637022Y-100211665D01*
X103613873Y-100239873D01*
X103585665Y-100263022D01*
X103553477Y-100280227D01*
X103518562Y-100290819D01*
X103476105Y-100295000D01*
X102009895Y-100295000D01*
X101967438Y-100290819D01*
X101932523Y-100280227D01*
X101900335Y-100263022D01*
X101872127Y-100239873D01*
X101848978Y-100211665D01*
X101831773Y-100179477D01*
X101821181Y-100144562D01*
X101817000Y-100102105D01*
X101817000Y-98960895D01*
X101821181Y-98918438D01*
X101831773Y-98883523D01*
X101848978Y-98851335D01*
X101872127Y-98823127D01*
X101900335Y-98799978D01*
X101932523Y-98782773D01*
X101967438Y-98772181D01*
X102009895Y-98768000D01*
X103476105Y-98768000D01*
X103518562Y-98772181D01*
X103518562Y-98772181D01*
G37*
G36*
X127775562Y-98718181D02*
G01*
X127810477Y-98728773D01*
X127842665Y-98745978D01*
X127870873Y-98769127D01*
X127894022Y-98797335D01*
X127911227Y-98829523D01*
X127921819Y-98864438D01*
X127926000Y-98906895D01*
X127926000Y-100048105D01*
X127921819Y-100090562D01*
X127911227Y-100125477D01*
X127894022Y-100157665D01*
X127870873Y-100185873D01*
X127842665Y-100209022D01*
X127810477Y-100226227D01*
X127775562Y-100236819D01*
X127733105Y-100241000D01*
X126266895Y-100241000D01*
X126224438Y-100236819D01*
X126189523Y-100226227D01*
X126157335Y-100209022D01*
X126129127Y-100185873D01*
X126105978Y-100157665D01*
X126088773Y-100125477D01*
X126078181Y-100090562D01*
X126074000Y-100048105D01*
X126074000Y-98906895D01*
X126078181Y-98864438D01*
X126088773Y-98829523D01*
X126105978Y-98797335D01*
X126129127Y-98769127D01*
X126157335Y-98745978D01*
X126189523Y-98728773D01*
X126224438Y-98718181D01*
X126266895Y-98714000D01*
X127733105Y-98714000D01*
X127775562Y-98718181D01*
X127775562Y-98718181D01*
G37*
G36*
X130898000Y-100173000D02*
G01*
X129296000Y-100173000D01*
X129296000Y-99471000D01*
X130898000Y-99471000D01*
X130898000Y-100173000D01*
X130898000Y-100173000D01*
G37*
G36*
X140198000Y-100173000D02*
G01*
X138596000Y-100173000D01*
X138596000Y-99471000D01*
X140198000Y-99471000D01*
X140198000Y-100173000D01*
X140198000Y-100173000D01*
G37*
G36*
X145799000Y-99588000D02*
G01*
X144097000Y-99588000D01*
X144097000Y-98786000D01*
X145799000Y-98786000D01*
X145799000Y-99588000D01*
X145799000Y-99588000D01*
G37*
G36*
X107268677Y-98048465D02*
G01*
X107306364Y-98059898D01*
X107341103Y-98078466D01*
X107371548Y-98103452D01*
X107396534Y-98133897D01*
X107415102Y-98168636D01*
X107426535Y-98206323D01*
X107431000Y-98251661D01*
X107431000Y-99088339D01*
X107426535Y-99133677D01*
X107415102Y-99171364D01*
X107396534Y-99206103D01*
X107371548Y-99236548D01*
X107341103Y-99261534D01*
X107306364Y-99280102D01*
X107268677Y-99291535D01*
X107223339Y-99296000D01*
X106136661Y-99296000D01*
X106091323Y-99291535D01*
X106053636Y-99280102D01*
X106018897Y-99261534D01*
X105988452Y-99236548D01*
X105963466Y-99206103D01*
X105944898Y-99171364D01*
X105933465Y-99133677D01*
X105929000Y-99088339D01*
X105929000Y-98251661D01*
X105933465Y-98206323D01*
X105944898Y-98168636D01*
X105963466Y-98133897D01*
X105988452Y-98103452D01*
X106018897Y-98078466D01*
X106053636Y-98059898D01*
X106091323Y-98048465D01*
X106136661Y-98044000D01*
X107223339Y-98044000D01*
X107268677Y-98048465D01*
X107268677Y-98048465D01*
G37*
G36*
X109554677Y-98048465D02*
G01*
X109592364Y-98059898D01*
X109627103Y-98078466D01*
X109657548Y-98103452D01*
X109682534Y-98133897D01*
X109701102Y-98168636D01*
X109712535Y-98206323D01*
X109717000Y-98251661D01*
X109717000Y-99088339D01*
X109712535Y-99133677D01*
X109701102Y-99171364D01*
X109682534Y-99206103D01*
X109657548Y-99236548D01*
X109627103Y-99261534D01*
X109592364Y-99280102D01*
X109554677Y-99291535D01*
X109509339Y-99296000D01*
X108422661Y-99296000D01*
X108377323Y-99291535D01*
X108339636Y-99280102D01*
X108304897Y-99261534D01*
X108274452Y-99236548D01*
X108249466Y-99206103D01*
X108230898Y-99171364D01*
X108219465Y-99133677D01*
X108215000Y-99088339D01*
X108215000Y-98251661D01*
X108219465Y-98206323D01*
X108230898Y-98168636D01*
X108249466Y-98133897D01*
X108274452Y-98103452D01*
X108304897Y-98078466D01*
X108339636Y-98059898D01*
X108377323Y-98048465D01*
X108422661Y-98044000D01*
X109509339Y-98044000D01*
X109554677Y-98048465D01*
X109554677Y-98048465D01*
G37*
G36*
X140198000Y-98903000D02*
G01*
X138596000Y-98903000D01*
X138596000Y-98201000D01*
X140198000Y-98201000D01*
X140198000Y-98903000D01*
X140198000Y-98903000D01*
G37*
G36*
X130898000Y-98903000D02*
G01*
X129296000Y-98903000D01*
X129296000Y-98201000D01*
X130898000Y-98201000D01*
X130898000Y-98903000D01*
X130898000Y-98903000D01*
G37*
G36*
X145799000Y-98488000D02*
G01*
X144097000Y-98488000D01*
X144097000Y-97686000D01*
X145799000Y-97686000D01*
X145799000Y-98488000D01*
X145799000Y-98488000D01*
G37*
G36*
X98595143Y-96502281D02*
G01*
X98740915Y-96562662D01*
X98872111Y-96650324D01*
X98983676Y-96761889D01*
X99071338Y-96893085D01*
X99131719Y-97038857D01*
X99162500Y-97193607D01*
X99162500Y-97351393D01*
X99131719Y-97506143D01*
X99071338Y-97651915D01*
X98983676Y-97783111D01*
X98872111Y-97894676D01*
X98740915Y-97982338D01*
X98595143Y-98042719D01*
X98440393Y-98073500D01*
X98282607Y-98073500D01*
X98127857Y-98042719D01*
X97982085Y-97982338D01*
X97850889Y-97894676D01*
X97739324Y-97783111D01*
X97651662Y-97651915D01*
X97591281Y-97506143D01*
X97560500Y-97351393D01*
X97560500Y-97193607D01*
X97591281Y-97038857D01*
X97651662Y-96893085D01*
X97739324Y-96761889D01*
X97850889Y-96650324D01*
X97982085Y-96562662D01*
X98127857Y-96502281D01*
X98282607Y-96471500D01*
X98440393Y-96471500D01*
X98595143Y-96502281D01*
X98595143Y-96502281D01*
G37*
G36*
X127461677Y-96161465D02*
G01*
X127499364Y-96172898D01*
X127534103Y-96191466D01*
X127564548Y-96216452D01*
X127589534Y-96246897D01*
X127608102Y-96281636D01*
X127619535Y-96319323D01*
X127624000Y-96364661D01*
X127624000Y-97201339D01*
X127619535Y-97246677D01*
X127608102Y-97284364D01*
X127589534Y-97319103D01*
X127564548Y-97349548D01*
X127534103Y-97374534D01*
X127499364Y-97393102D01*
X127461677Y-97404535D01*
X127416339Y-97409000D01*
X126329661Y-97409000D01*
X126284323Y-97404535D01*
X126246636Y-97393102D01*
X126211897Y-97374534D01*
X126181452Y-97349548D01*
X126156466Y-97319103D01*
X126137898Y-97284364D01*
X126126465Y-97246677D01*
X126122000Y-97201339D01*
X126122000Y-96364661D01*
X126126465Y-96319323D01*
X126137898Y-96281636D01*
X126156466Y-96246897D01*
X126181452Y-96216452D01*
X126211897Y-96191466D01*
X126246636Y-96172898D01*
X126284323Y-96161465D01*
X126329661Y-96157000D01*
X127416339Y-96157000D01*
X127461677Y-96161465D01*
X127461677Y-96161465D01*
G37*
G36*
X145799000Y-97388000D02*
G01*
X144097000Y-97388000D01*
X144097000Y-96586000D01*
X145799000Y-96586000D01*
X145799000Y-97388000D01*
X145799000Y-97388000D01*
G37*
G36*
X103518562Y-95797181D02*
G01*
X103553477Y-95807773D01*
X103585665Y-95824978D01*
X103613873Y-95848127D01*
X103637022Y-95876335D01*
X103654227Y-95908523D01*
X103664819Y-95943438D01*
X103669000Y-95985895D01*
X103669000Y-97127105D01*
X103664819Y-97169562D01*
X103654227Y-97204477D01*
X103637022Y-97236665D01*
X103613873Y-97264873D01*
X103585665Y-97288022D01*
X103553477Y-97305227D01*
X103518562Y-97315819D01*
X103476105Y-97320000D01*
X102009895Y-97320000D01*
X101967438Y-97315819D01*
X101932523Y-97305227D01*
X101900335Y-97288022D01*
X101872127Y-97264873D01*
X101848978Y-97236665D01*
X101831773Y-97204477D01*
X101821181Y-97169562D01*
X101817000Y-97127105D01*
X101817000Y-95985895D01*
X101821181Y-95943438D01*
X101831773Y-95908523D01*
X101848978Y-95876335D01*
X101872127Y-95848127D01*
X101900335Y-95824978D01*
X101932523Y-95807773D01*
X101967438Y-95797181D01*
X102009895Y-95793000D01*
X103476105Y-95793000D01*
X103518562Y-95797181D01*
X103518562Y-95797181D01*
G37*
G36*
X116730443Y-94105519D02*
G01*
X116796627Y-94112037D01*
X116909853Y-94146384D01*
X116966467Y-94163557D01*
X117086958Y-94227962D01*
X117122991Y-94247222D01*
X117126656Y-94250230D01*
X117260186Y-94359814D01*
X117336382Y-94452661D01*
X117372778Y-94497009D01*
X117372779Y-94497011D01*
X117456443Y-94653533D01*
X117456443Y-94653534D01*
X117507963Y-94823373D01*
X117525359Y-95000000D01*
X117507963Y-95176627D01*
X117489334Y-95238038D01*
X117456443Y-95346467D01*
X117387832Y-95474827D01*
X117372778Y-95502991D01*
X117352315Y-95527925D01*
X117260186Y-95640186D01*
X117185923Y-95701131D01*
X117122991Y-95752778D01*
X117122989Y-95752779D01*
X116966467Y-95836443D01*
X116927949Y-95848127D01*
X116796627Y-95887963D01*
X116730443Y-95894481D01*
X116664260Y-95901000D01*
X116575740Y-95901000D01*
X116509557Y-95894481D01*
X116443373Y-95887963D01*
X116312051Y-95848127D01*
X116273533Y-95836443D01*
X116117011Y-95752779D01*
X116117009Y-95752778D01*
X116054077Y-95701131D01*
X115979814Y-95640186D01*
X115887685Y-95527925D01*
X115867222Y-95502991D01*
X115852168Y-95474827D01*
X115783557Y-95346467D01*
X115750666Y-95238038D01*
X115732037Y-95176627D01*
X115714641Y-95000000D01*
X115732037Y-94823373D01*
X115783557Y-94653534D01*
X115783557Y-94653533D01*
X115867221Y-94497011D01*
X115867222Y-94497009D01*
X115903618Y-94452661D01*
X115979814Y-94359814D01*
X116113344Y-94250230D01*
X116117009Y-94247222D01*
X116153042Y-94227962D01*
X116273533Y-94163557D01*
X116330147Y-94146384D01*
X116443373Y-94112037D01*
X116509557Y-94105519D01*
X116575740Y-94099000D01*
X116664260Y-94099000D01*
X116730443Y-94105519D01*
X116730443Y-94105519D01*
G37*
G36*
X121810443Y-94105519D02*
G01*
X121876627Y-94112037D01*
X121989853Y-94146384D01*
X122046467Y-94163557D01*
X122166958Y-94227962D01*
X122202991Y-94247222D01*
X122206656Y-94250230D01*
X122340186Y-94359814D01*
X122416382Y-94452661D01*
X122452778Y-94497009D01*
X122452779Y-94497011D01*
X122536443Y-94653533D01*
X122536443Y-94653534D01*
X122587963Y-94823373D01*
X122605359Y-95000000D01*
X122587963Y-95176627D01*
X122569334Y-95238038D01*
X122536443Y-95346467D01*
X122467832Y-95474827D01*
X122452778Y-95502991D01*
X122432315Y-95527925D01*
X122340186Y-95640186D01*
X122265923Y-95701131D01*
X122202991Y-95752778D01*
X122202989Y-95752779D01*
X122046467Y-95836443D01*
X122007949Y-95848127D01*
X121876627Y-95887963D01*
X121810443Y-95894481D01*
X121744260Y-95901000D01*
X121655740Y-95901000D01*
X121589557Y-95894481D01*
X121523373Y-95887963D01*
X121392051Y-95848127D01*
X121353533Y-95836443D01*
X121197011Y-95752779D01*
X121197009Y-95752778D01*
X121134077Y-95701131D01*
X121059814Y-95640186D01*
X120967685Y-95527925D01*
X120947222Y-95502991D01*
X120932168Y-95474827D01*
X120863557Y-95346467D01*
X120830666Y-95238038D01*
X120812037Y-95176627D01*
X120794641Y-95000000D01*
X120812037Y-94823373D01*
X120863557Y-94653534D01*
X120863557Y-94653533D01*
X120947221Y-94497011D01*
X120947222Y-94497009D01*
X120983618Y-94452661D01*
X121059814Y-94359814D01*
X121193344Y-94250230D01*
X121197009Y-94247222D01*
X121233042Y-94227962D01*
X121353533Y-94163557D01*
X121410147Y-94146384D01*
X121523373Y-94112037D01*
X121589557Y-94105519D01*
X121655740Y-94099000D01*
X121744260Y-94099000D01*
X121810443Y-94105519D01*
X121810443Y-94105519D01*
G37*
G36*
X119270443Y-94105519D02*
G01*
X119336627Y-94112037D01*
X119449853Y-94146384D01*
X119506467Y-94163557D01*
X119626958Y-94227962D01*
X119662991Y-94247222D01*
X119666656Y-94250230D01*
X119800186Y-94359814D01*
X119876382Y-94452661D01*
X119912778Y-94497009D01*
X119912779Y-94497011D01*
X119996443Y-94653533D01*
X119996443Y-94653534D01*
X120047963Y-94823373D01*
X120065359Y-95000000D01*
X120047963Y-95176627D01*
X120029334Y-95238038D01*
X119996443Y-95346467D01*
X119927832Y-95474827D01*
X119912778Y-95502991D01*
X119892315Y-95527925D01*
X119800186Y-95640186D01*
X119725923Y-95701131D01*
X119662991Y-95752778D01*
X119662989Y-95752779D01*
X119506467Y-95836443D01*
X119467949Y-95848127D01*
X119336627Y-95887963D01*
X119270443Y-95894481D01*
X119204260Y-95901000D01*
X119115740Y-95901000D01*
X119049557Y-95894481D01*
X118983373Y-95887963D01*
X118852051Y-95848127D01*
X118813533Y-95836443D01*
X118657011Y-95752779D01*
X118657009Y-95752778D01*
X118594077Y-95701131D01*
X118519814Y-95640186D01*
X118427685Y-95527925D01*
X118407222Y-95502991D01*
X118392168Y-95474827D01*
X118323557Y-95346467D01*
X118290666Y-95238038D01*
X118272037Y-95176627D01*
X118254641Y-95000000D01*
X118272037Y-94823373D01*
X118323557Y-94653534D01*
X118323557Y-94653533D01*
X118407221Y-94497011D01*
X118407222Y-94497009D01*
X118443618Y-94452661D01*
X118519814Y-94359814D01*
X118653344Y-94250230D01*
X118657009Y-94247222D01*
X118693042Y-94227962D01*
X118813533Y-94163557D01*
X118870147Y-94146384D01*
X118983373Y-94112037D01*
X119049557Y-94105519D01*
X119115740Y-94099000D01*
X119204260Y-94099000D01*
X119270443Y-94105519D01*
X119270443Y-94105519D01*
G37*
G36*
X114190443Y-94105519D02*
G01*
X114256627Y-94112037D01*
X114369853Y-94146384D01*
X114426467Y-94163557D01*
X114546958Y-94227962D01*
X114582991Y-94247222D01*
X114586656Y-94250230D01*
X114720186Y-94359814D01*
X114796382Y-94452661D01*
X114832778Y-94497009D01*
X114832779Y-94497011D01*
X114916443Y-94653533D01*
X114916443Y-94653534D01*
X114967963Y-94823373D01*
X114985359Y-95000000D01*
X114967963Y-95176627D01*
X114949334Y-95238038D01*
X114916443Y-95346467D01*
X114847832Y-95474827D01*
X114832778Y-95502991D01*
X114812315Y-95527925D01*
X114720186Y-95640186D01*
X114645923Y-95701131D01*
X114582991Y-95752778D01*
X114582989Y-95752779D01*
X114426467Y-95836443D01*
X114387949Y-95848127D01*
X114256627Y-95887963D01*
X114190443Y-95894481D01*
X114124260Y-95901000D01*
X114035740Y-95901000D01*
X113969557Y-95894481D01*
X113903373Y-95887963D01*
X113772051Y-95848127D01*
X113733533Y-95836443D01*
X113577011Y-95752779D01*
X113577009Y-95752778D01*
X113514077Y-95701131D01*
X113439814Y-95640186D01*
X113347685Y-95527925D01*
X113327222Y-95502991D01*
X113312168Y-95474827D01*
X113243557Y-95346467D01*
X113210666Y-95238038D01*
X113192037Y-95176627D01*
X113174641Y-95000000D01*
X113192037Y-94823373D01*
X113243557Y-94653534D01*
X113243557Y-94653533D01*
X113327221Y-94497011D01*
X113327222Y-94497009D01*
X113363618Y-94452661D01*
X113439814Y-94359814D01*
X113573344Y-94250230D01*
X113577009Y-94247222D01*
X113613042Y-94227962D01*
X113733533Y-94163557D01*
X113790147Y-94146384D01*
X113903373Y-94112037D01*
X113969557Y-94105519D01*
X114035740Y-94099000D01*
X114124260Y-94099000D01*
X114190443Y-94105519D01*
X114190443Y-94105519D01*
G37*
G36*
X111650443Y-94105519D02*
G01*
X111716627Y-94112037D01*
X111829853Y-94146384D01*
X111886467Y-94163557D01*
X112006958Y-94227962D01*
X112042991Y-94247222D01*
X112046656Y-94250230D01*
X112180186Y-94359814D01*
X112256382Y-94452661D01*
X112292778Y-94497009D01*
X112292779Y-94497011D01*
X112376443Y-94653533D01*
X112376443Y-94653534D01*
X112427963Y-94823373D01*
X112445359Y-95000000D01*
X112427963Y-95176627D01*
X112409334Y-95238038D01*
X112376443Y-95346467D01*
X112307832Y-95474827D01*
X112292778Y-95502991D01*
X112272315Y-95527925D01*
X112180186Y-95640186D01*
X112105923Y-95701131D01*
X112042991Y-95752778D01*
X112042989Y-95752779D01*
X111886467Y-95836443D01*
X111847949Y-95848127D01*
X111716627Y-95887963D01*
X111650443Y-95894481D01*
X111584260Y-95901000D01*
X111495740Y-95901000D01*
X111429557Y-95894481D01*
X111363373Y-95887963D01*
X111232051Y-95848127D01*
X111193533Y-95836443D01*
X111037011Y-95752779D01*
X111037009Y-95752778D01*
X110974077Y-95701131D01*
X110899814Y-95640186D01*
X110807685Y-95527925D01*
X110787222Y-95502991D01*
X110772168Y-95474827D01*
X110703557Y-95346467D01*
X110670666Y-95238038D01*
X110652037Y-95176627D01*
X110634641Y-95000000D01*
X110652037Y-94823373D01*
X110703557Y-94653534D01*
X110703557Y-94653533D01*
X110787221Y-94497011D01*
X110787222Y-94497009D01*
X110823618Y-94452661D01*
X110899814Y-94359814D01*
X111033344Y-94250230D01*
X111037009Y-94247222D01*
X111073042Y-94227962D01*
X111193533Y-94163557D01*
X111250147Y-94146384D01*
X111363373Y-94112037D01*
X111429557Y-94105519D01*
X111495740Y-94099000D01*
X111584260Y-94099000D01*
X111650443Y-94105519D01*
X111650443Y-94105519D01*
G37*
G36*
X109901000Y-95901000D02*
G01*
X108099000Y-95901000D01*
X108099000Y-94099000D01*
X109901000Y-94099000D01*
X109901000Y-95901000D01*
X109901000Y-95901000D01*
G37*
G36*
X143728677Y-94249465D02*
G01*
X143766364Y-94260898D01*
X143801103Y-94279466D01*
X143831548Y-94304452D01*
X143856534Y-94334897D01*
X143875102Y-94369636D01*
X143886535Y-94407323D01*
X143891000Y-94452661D01*
X143891000Y-95539339D01*
X143886535Y-95584677D01*
X143875102Y-95622364D01*
X143856534Y-95657103D01*
X143831548Y-95687548D01*
X143801103Y-95712534D01*
X143766364Y-95731102D01*
X143728677Y-95742535D01*
X143683339Y-95747000D01*
X142846661Y-95747000D01*
X142801323Y-95742535D01*
X142763636Y-95731102D01*
X142728897Y-95712534D01*
X142698452Y-95687548D01*
X142673466Y-95657103D01*
X142654898Y-95622364D01*
X142643465Y-95584677D01*
X142639000Y-95539339D01*
X142639000Y-94452661D01*
X142643465Y-94407323D01*
X142654898Y-94369636D01*
X142673466Y-94334897D01*
X142698452Y-94304452D01*
X142728897Y-94279466D01*
X142763636Y-94260898D01*
X142801323Y-94249465D01*
X142846661Y-94245000D01*
X143683339Y-94245000D01*
X143728677Y-94249465D01*
X143728677Y-94249465D01*
G37*
G36*
X141678677Y-94249465D02*
G01*
X141716364Y-94260898D01*
X141751103Y-94279466D01*
X141781548Y-94304452D01*
X141806534Y-94334897D01*
X141825102Y-94369636D01*
X141836535Y-94407323D01*
X141841000Y-94452661D01*
X141841000Y-95539339D01*
X141836535Y-95584677D01*
X141825102Y-95622364D01*
X141806534Y-95657103D01*
X141781548Y-95687548D01*
X141751103Y-95712534D01*
X141716364Y-95731102D01*
X141678677Y-95742535D01*
X141633339Y-95747000D01*
X140796661Y-95747000D01*
X140751323Y-95742535D01*
X140713636Y-95731102D01*
X140678897Y-95712534D01*
X140648452Y-95687548D01*
X140623466Y-95657103D01*
X140604898Y-95622364D01*
X140593465Y-95584677D01*
X140589000Y-95539339D01*
X140589000Y-94452661D01*
X140593465Y-94407323D01*
X140604898Y-94369636D01*
X140623466Y-94334897D01*
X140648452Y-94304452D01*
X140678897Y-94279466D01*
X140713636Y-94260898D01*
X140751323Y-94249465D01*
X140796661Y-94245000D01*
X141633339Y-94245000D01*
X141678677Y-94249465D01*
X141678677Y-94249465D01*
G37*
G36*
X127461677Y-94111465D02*
G01*
X127499364Y-94122898D01*
X127534103Y-94141466D01*
X127564548Y-94166452D01*
X127589534Y-94196897D01*
X127608102Y-94231636D01*
X127619535Y-94269323D01*
X127624000Y-94314661D01*
X127624000Y-95151339D01*
X127619535Y-95196677D01*
X127608102Y-95234364D01*
X127589534Y-95269103D01*
X127564548Y-95299548D01*
X127534103Y-95324534D01*
X127499364Y-95343102D01*
X127461677Y-95354535D01*
X127416339Y-95359000D01*
X126329661Y-95359000D01*
X126284323Y-95354535D01*
X126246636Y-95343102D01*
X126211897Y-95324534D01*
X126181452Y-95299548D01*
X126156466Y-95269103D01*
X126137898Y-95234364D01*
X126126465Y-95196677D01*
X126122000Y-95151339D01*
X126122000Y-94314661D01*
X126126465Y-94269323D01*
X126137898Y-94231636D01*
X126156466Y-94196897D01*
X126181452Y-94166452D01*
X126211897Y-94141466D01*
X126246636Y-94122898D01*
X126284323Y-94111465D01*
X126329661Y-94107000D01*
X127416339Y-94107000D01*
X127461677Y-94111465D01*
X127461677Y-94111465D01*
G37*
G36*
X131144000Y-95071500D02*
G01*
X129492000Y-95071500D01*
X129492000Y-94369500D01*
X131144000Y-94369500D01*
X131144000Y-95071500D01*
X131144000Y-95071500D01*
G37*
G36*
X136544000Y-95071500D02*
G01*
X134892000Y-95071500D01*
X134892000Y-94369500D01*
X136544000Y-94369500D01*
X136544000Y-95071500D01*
X136544000Y-95071500D01*
G37*
G36*
X136544000Y-93801500D02*
G01*
X134892000Y-93801500D01*
X134892000Y-93099500D01*
X136544000Y-93099500D01*
X136544000Y-93801500D01*
X136544000Y-93801500D01*
G37*
G36*
X131144000Y-93801500D02*
G01*
X129492000Y-93801500D01*
X129492000Y-93099500D01*
X131144000Y-93099500D01*
X131144000Y-93801500D01*
X131144000Y-93801500D01*
G37*
G36*
X103455062Y-92041181D02*
G01*
X103489977Y-92051773D01*
X103522165Y-92068978D01*
X103550373Y-92092127D01*
X103573522Y-92120335D01*
X103590727Y-92152523D01*
X103601319Y-92187438D01*
X103605500Y-92229895D01*
X103605500Y-93371105D01*
X103601319Y-93413562D01*
X103590727Y-93448477D01*
X103573522Y-93480665D01*
X103550373Y-93508873D01*
X103522165Y-93532022D01*
X103489977Y-93549227D01*
X103455062Y-93559819D01*
X103412605Y-93564000D01*
X101946395Y-93564000D01*
X101903938Y-93559819D01*
X101869023Y-93549227D01*
X101836835Y-93532022D01*
X101808627Y-93508873D01*
X101785478Y-93480665D01*
X101768273Y-93448477D01*
X101757681Y-93413562D01*
X101753500Y-93371105D01*
X101753500Y-92229895D01*
X101757681Y-92187438D01*
X101768273Y-92152523D01*
X101785478Y-92120335D01*
X101808627Y-92092127D01*
X101836835Y-92068978D01*
X101869023Y-92051773D01*
X101903938Y-92041181D01*
X101946395Y-92037000D01*
X103412605Y-92037000D01*
X103455062Y-92041181D01*
X103455062Y-92041181D01*
G37*
G36*
X98595143Y-91622281D02*
G01*
X98740915Y-91682662D01*
X98872111Y-91770324D01*
X98983676Y-91881889D01*
X99071338Y-92013085D01*
X99131719Y-92158857D01*
X99162500Y-92313607D01*
X99162500Y-92471393D01*
X99131719Y-92626143D01*
X99071338Y-92771915D01*
X98983676Y-92903111D01*
X98872111Y-93014676D01*
X98740915Y-93102338D01*
X98595143Y-93162719D01*
X98440393Y-93193500D01*
X98282607Y-93193500D01*
X98127857Y-93162719D01*
X97982085Y-93102338D01*
X97850889Y-93014676D01*
X97739324Y-92903111D01*
X97651662Y-92771915D01*
X97591281Y-92626143D01*
X97560500Y-92471393D01*
X97560500Y-92313607D01*
X97591281Y-92158857D01*
X97651662Y-92013085D01*
X97739324Y-91881889D01*
X97850889Y-91770324D01*
X97982085Y-91682662D01*
X98127857Y-91622281D01*
X98282607Y-91591500D01*
X98440393Y-91591500D01*
X98595143Y-91622281D01*
X98595143Y-91622281D01*
G37*
G36*
X146199000Y-93188000D02*
G01*
X144697000Y-93188000D01*
X144697000Y-91486000D01*
X146199000Y-91486000D01*
X146199000Y-93188000D01*
X146199000Y-93188000D01*
G37*
G36*
X136544000Y-92531500D02*
G01*
X134892000Y-92531500D01*
X134892000Y-91829500D01*
X136544000Y-91829500D01*
X136544000Y-92531500D01*
X136544000Y-92531500D01*
G37*
G36*
X131144000Y-92531500D02*
G01*
X129492000Y-92531500D01*
X129492000Y-91829500D01*
X131144000Y-91829500D01*
X131144000Y-92531500D01*
X131144000Y-92531500D01*
G37*
G36*
X139907677Y-91144965D02*
G01*
X139945364Y-91156398D01*
X139980103Y-91174966D01*
X140010548Y-91199952D01*
X140035534Y-91230397D01*
X140054102Y-91265136D01*
X140065535Y-91302823D01*
X140070000Y-91348161D01*
X140070000Y-92184839D01*
X140065535Y-92230177D01*
X140054102Y-92267864D01*
X140035534Y-92302603D01*
X140010548Y-92333048D01*
X139980103Y-92358034D01*
X139945364Y-92376602D01*
X139907677Y-92388035D01*
X139862339Y-92392500D01*
X138775661Y-92392500D01*
X138730323Y-92388035D01*
X138692636Y-92376602D01*
X138657897Y-92358034D01*
X138627452Y-92333048D01*
X138602466Y-92302603D01*
X138583898Y-92267864D01*
X138572465Y-92230177D01*
X138568000Y-92184839D01*
X138568000Y-91348161D01*
X138572465Y-91302823D01*
X138583898Y-91265136D01*
X138602466Y-91230397D01*
X138627452Y-91199952D01*
X138657897Y-91174966D01*
X138692636Y-91156398D01*
X138730323Y-91144965D01*
X138775661Y-91140500D01*
X139862339Y-91140500D01*
X139907677Y-91144965D01*
X139907677Y-91144965D01*
G37*
G36*
X143209677Y-91144965D02*
G01*
X143247364Y-91156398D01*
X143282103Y-91174966D01*
X143312548Y-91199952D01*
X143337534Y-91230397D01*
X143356102Y-91265136D01*
X143367535Y-91302823D01*
X143372000Y-91348161D01*
X143372000Y-92184839D01*
X143367535Y-92230177D01*
X143356102Y-92267864D01*
X143337534Y-92302603D01*
X143312548Y-92333048D01*
X143282103Y-92358034D01*
X143247364Y-92376602D01*
X143209677Y-92388035D01*
X143164339Y-92392500D01*
X142077661Y-92392500D01*
X142032323Y-92388035D01*
X141994636Y-92376602D01*
X141959897Y-92358034D01*
X141929452Y-92333048D01*
X141904466Y-92302603D01*
X141885898Y-92267864D01*
X141874465Y-92230177D01*
X141870000Y-92184839D01*
X141870000Y-91348161D01*
X141874465Y-91302823D01*
X141885898Y-91265136D01*
X141904466Y-91230397D01*
X141929452Y-91199952D01*
X141959897Y-91174966D01*
X141994636Y-91156398D01*
X142032323Y-91144965D01*
X142077661Y-91140500D01*
X143164339Y-91140500D01*
X143209677Y-91144965D01*
X143209677Y-91144965D01*
G37*
G36*
X156199000Y-92088000D02*
G01*
X153897000Y-92088000D01*
X153897000Y-90786000D01*
X156199000Y-90786000D01*
X156199000Y-92088000D01*
X156199000Y-92088000D01*
G37*
G36*
X116825000Y-91548000D02*
G01*
X115273000Y-91548000D01*
X115273000Y-89046000D01*
X116825000Y-89046000D01*
X116825000Y-91548000D01*
X116825000Y-91548000D01*
G37*
G36*
X122725000Y-91548000D02*
G01*
X121173000Y-91548000D01*
X121173000Y-89046000D01*
X122725000Y-89046000D01*
X122725000Y-91548000D01*
X122725000Y-91548000D01*
G37*
G36*
X131144000Y-91261500D02*
G01*
X129492000Y-91261500D01*
X129492000Y-90559500D01*
X131144000Y-90559500D01*
X131144000Y-91261500D01*
X131144000Y-91261500D01*
G37*
G36*
X136544000Y-91261500D02*
G01*
X134892000Y-91261500D01*
X134892000Y-90559500D01*
X136544000Y-90559500D01*
X136544000Y-91261500D01*
X136544000Y-91261500D01*
G37*
G36*
X103455062Y-89066181D02*
G01*
X103489977Y-89076773D01*
X103522165Y-89093978D01*
X103550373Y-89117127D01*
X103573522Y-89145335D01*
X103590727Y-89177523D01*
X103601319Y-89212438D01*
X103605500Y-89254895D01*
X103605500Y-90396105D01*
X103601319Y-90438562D01*
X103590727Y-90473477D01*
X103573522Y-90505665D01*
X103550373Y-90533873D01*
X103522165Y-90557022D01*
X103489977Y-90574227D01*
X103455062Y-90584819D01*
X103412605Y-90589000D01*
X101946395Y-90589000D01*
X101903938Y-90584819D01*
X101869023Y-90574227D01*
X101836835Y-90557022D01*
X101808627Y-90533873D01*
X101785478Y-90505665D01*
X101768273Y-90473477D01*
X101757681Y-90438562D01*
X101753500Y-90396105D01*
X101753500Y-89254895D01*
X101757681Y-89212438D01*
X101768273Y-89177523D01*
X101785478Y-89145335D01*
X101808627Y-89117127D01*
X101836835Y-89093978D01*
X101869023Y-89076773D01*
X101903938Y-89066181D01*
X101946395Y-89062000D01*
X103412605Y-89062000D01*
X103455062Y-89066181D01*
X103455062Y-89066181D01*
G37*
G36*
X143209677Y-89094965D02*
G01*
X143247364Y-89106398D01*
X143282103Y-89124966D01*
X143312548Y-89149952D01*
X143337534Y-89180397D01*
X143356102Y-89215136D01*
X143367535Y-89252823D01*
X143372000Y-89298161D01*
X143372000Y-90134839D01*
X143367535Y-90180177D01*
X143356102Y-90217864D01*
X143337534Y-90252603D01*
X143312548Y-90283048D01*
X143282103Y-90308034D01*
X143247364Y-90326602D01*
X143209677Y-90338035D01*
X143164339Y-90342500D01*
X142077661Y-90342500D01*
X142032323Y-90338035D01*
X141994636Y-90326602D01*
X141959897Y-90308034D01*
X141929452Y-90283048D01*
X141904466Y-90252603D01*
X141885898Y-90217864D01*
X141874465Y-90180177D01*
X141870000Y-90134839D01*
X141870000Y-89298161D01*
X141874465Y-89252823D01*
X141885898Y-89215136D01*
X141904466Y-89180397D01*
X141929452Y-89149952D01*
X141959897Y-89124966D01*
X141994636Y-89106398D01*
X142032323Y-89094965D01*
X142077661Y-89090500D01*
X143164339Y-89090500D01*
X143209677Y-89094965D01*
X143209677Y-89094965D01*
G37*
G36*
X139907677Y-89094965D02*
G01*
X139945364Y-89106398D01*
X139980103Y-89124966D01*
X140010548Y-89149952D01*
X140035534Y-89180397D01*
X140054102Y-89215136D01*
X140065535Y-89252823D01*
X140070000Y-89298161D01*
X140070000Y-90134839D01*
X140065535Y-90180177D01*
X140054102Y-90217864D01*
X140035534Y-90252603D01*
X140010548Y-90283048D01*
X139980103Y-90308034D01*
X139945364Y-90326602D01*
X139907677Y-90338035D01*
X139862339Y-90342500D01*
X138775661Y-90342500D01*
X138730323Y-90338035D01*
X138692636Y-90326602D01*
X138657897Y-90308034D01*
X138627452Y-90283048D01*
X138602466Y-90252603D01*
X138583898Y-90217864D01*
X138572465Y-90180177D01*
X138568000Y-90134839D01*
X138568000Y-89298161D01*
X138572465Y-89252823D01*
X138583898Y-89215136D01*
X138602466Y-89180397D01*
X138627452Y-89149952D01*
X138657897Y-89124966D01*
X138692636Y-89106398D01*
X138730323Y-89094965D01*
X138775661Y-89090500D01*
X139862339Y-89090500D01*
X139907677Y-89094965D01*
X139907677Y-89094965D01*
G37*
G36*
X110249562Y-88612181D02*
G01*
X110284477Y-88622773D01*
X110316665Y-88639978D01*
X110344873Y-88663127D01*
X110368022Y-88691335D01*
X110385227Y-88723523D01*
X110395819Y-88758438D01*
X110400000Y-88800895D01*
X110400000Y-89942105D01*
X110395819Y-89984562D01*
X110385227Y-90019477D01*
X110368022Y-90051665D01*
X110344873Y-90079873D01*
X110316665Y-90103022D01*
X110284477Y-90120227D01*
X110249562Y-90130819D01*
X110207105Y-90135000D01*
X108740895Y-90135000D01*
X108698438Y-90130819D01*
X108663523Y-90120227D01*
X108631335Y-90103022D01*
X108603127Y-90079873D01*
X108579978Y-90051665D01*
X108562773Y-90019477D01*
X108552181Y-89984562D01*
X108548000Y-89942105D01*
X108548000Y-88800895D01*
X108552181Y-88758438D01*
X108562773Y-88723523D01*
X108579978Y-88691335D01*
X108603127Y-88663127D01*
X108631335Y-88639978D01*
X108663523Y-88622773D01*
X108698438Y-88612181D01*
X108740895Y-88608000D01*
X110207105Y-88608000D01*
X110249562Y-88612181D01*
X110249562Y-88612181D01*
G37*
G36*
X113805562Y-88612181D02*
G01*
X113840477Y-88622773D01*
X113872665Y-88639978D01*
X113900873Y-88663127D01*
X113924022Y-88691335D01*
X113941227Y-88723523D01*
X113951819Y-88758438D01*
X113956000Y-88800895D01*
X113956000Y-89942105D01*
X113951819Y-89984562D01*
X113941227Y-90019477D01*
X113924022Y-90051665D01*
X113900873Y-90079873D01*
X113872665Y-90103022D01*
X113840477Y-90120227D01*
X113805562Y-90130819D01*
X113763105Y-90135000D01*
X112296895Y-90135000D01*
X112254438Y-90130819D01*
X112219523Y-90120227D01*
X112187335Y-90103022D01*
X112159127Y-90079873D01*
X112135978Y-90051665D01*
X112118773Y-90019477D01*
X112108181Y-89984562D01*
X112104000Y-89942105D01*
X112104000Y-88800895D01*
X112108181Y-88758438D01*
X112118773Y-88723523D01*
X112135978Y-88691335D01*
X112159127Y-88663127D01*
X112187335Y-88639978D01*
X112219523Y-88622773D01*
X112254438Y-88612181D01*
X112296895Y-88608000D01*
X113763105Y-88608000D01*
X113805562Y-88612181D01*
X113805562Y-88612181D01*
G37*
G36*
X131378562Y-87140181D02*
G01*
X131413477Y-87150773D01*
X131445665Y-87167978D01*
X131473873Y-87191127D01*
X131497022Y-87219335D01*
X131514227Y-87251523D01*
X131524819Y-87286438D01*
X131529000Y-87328895D01*
X131529000Y-88470105D01*
X131524819Y-88512562D01*
X131514227Y-88547477D01*
X131497022Y-88579665D01*
X131473873Y-88607873D01*
X131445665Y-88631022D01*
X131413477Y-88648227D01*
X131378562Y-88658819D01*
X131336105Y-88663000D01*
X129869895Y-88663000D01*
X129827438Y-88658819D01*
X129792523Y-88648227D01*
X129760335Y-88631022D01*
X129732127Y-88607873D01*
X129708978Y-88579665D01*
X129691773Y-88547477D01*
X129681181Y-88512562D01*
X129677000Y-88470105D01*
X129677000Y-87328895D01*
X129681181Y-87286438D01*
X129691773Y-87251523D01*
X129708978Y-87219335D01*
X129732127Y-87191127D01*
X129760335Y-87167978D01*
X129792523Y-87150773D01*
X129827438Y-87140181D01*
X129869895Y-87136000D01*
X131336105Y-87136000D01*
X131378562Y-87140181D01*
X131378562Y-87140181D01*
G37*
G36*
X127568562Y-87140181D02*
G01*
X127603477Y-87150773D01*
X127635665Y-87167978D01*
X127663873Y-87191127D01*
X127687022Y-87219335D01*
X127704227Y-87251523D01*
X127714819Y-87286438D01*
X127719000Y-87328895D01*
X127719000Y-88470105D01*
X127714819Y-88512562D01*
X127704227Y-88547477D01*
X127687022Y-88579665D01*
X127663873Y-88607873D01*
X127635665Y-88631022D01*
X127603477Y-88648227D01*
X127568562Y-88658819D01*
X127526105Y-88663000D01*
X126059895Y-88663000D01*
X126017438Y-88658819D01*
X125982523Y-88648227D01*
X125950335Y-88631022D01*
X125922127Y-88607873D01*
X125898978Y-88579665D01*
X125881773Y-88547477D01*
X125871181Y-88512562D01*
X125867000Y-88470105D01*
X125867000Y-87328895D01*
X125871181Y-87286438D01*
X125881773Y-87251523D01*
X125898978Y-87219335D01*
X125922127Y-87191127D01*
X125950335Y-87167978D01*
X125982523Y-87150773D01*
X126017438Y-87140181D01*
X126059895Y-87136000D01*
X127526105Y-87136000D01*
X127568562Y-87140181D01*
X127568562Y-87140181D01*
G37*
G36*
X134874677Y-87069465D02*
G01*
X134912364Y-87080898D01*
X134947103Y-87099466D01*
X134977548Y-87124452D01*
X135002534Y-87154897D01*
X135021102Y-87189636D01*
X135032535Y-87227323D01*
X135037000Y-87272661D01*
X135037000Y-88109339D01*
X135032535Y-88154677D01*
X135021102Y-88192364D01*
X135002534Y-88227103D01*
X134977548Y-88257548D01*
X134947103Y-88282534D01*
X134912364Y-88301102D01*
X134874677Y-88312535D01*
X134829339Y-88317000D01*
X133742661Y-88317000D01*
X133697323Y-88312535D01*
X133659636Y-88301102D01*
X133624897Y-88282534D01*
X133594452Y-88257548D01*
X133569466Y-88227103D01*
X133550898Y-88192364D01*
X133539465Y-88154677D01*
X133535000Y-88109339D01*
X133535000Y-87272661D01*
X133539465Y-87227323D01*
X133550898Y-87189636D01*
X133569466Y-87154897D01*
X133594452Y-87124452D01*
X133624897Y-87099466D01*
X133659636Y-87080898D01*
X133697323Y-87069465D01*
X133742661Y-87065000D01*
X134829339Y-87065000D01*
X134874677Y-87069465D01*
X134874677Y-87069465D01*
G37*
G36*
X123535677Y-85740465D02*
G01*
X123573364Y-85751898D01*
X123608103Y-85770466D01*
X123638548Y-85795452D01*
X123663534Y-85825897D01*
X123682102Y-85860636D01*
X123693535Y-85898323D01*
X123698000Y-85943661D01*
X123698000Y-87030339D01*
X123693535Y-87075677D01*
X123682102Y-87113364D01*
X123663534Y-87148103D01*
X123638548Y-87178548D01*
X123608103Y-87203534D01*
X123573364Y-87222102D01*
X123535677Y-87233535D01*
X123490339Y-87238000D01*
X122653661Y-87238000D01*
X122608323Y-87233535D01*
X122570636Y-87222102D01*
X122535897Y-87203534D01*
X122505452Y-87178548D01*
X122480466Y-87148103D01*
X122461898Y-87113364D01*
X122450465Y-87075677D01*
X122446000Y-87030339D01*
X122446000Y-85943661D01*
X122450465Y-85898323D01*
X122461898Y-85860636D01*
X122480466Y-85825897D01*
X122505452Y-85795452D01*
X122535897Y-85770466D01*
X122570636Y-85751898D01*
X122608323Y-85740465D01*
X122653661Y-85736000D01*
X123490339Y-85736000D01*
X123535677Y-85740465D01*
X123535677Y-85740465D01*
G37*
G36*
X121485677Y-85740465D02*
G01*
X121523364Y-85751898D01*
X121558103Y-85770466D01*
X121588548Y-85795452D01*
X121613534Y-85825897D01*
X121632102Y-85860636D01*
X121643535Y-85898323D01*
X121648000Y-85943661D01*
X121648000Y-87030339D01*
X121643535Y-87075677D01*
X121632102Y-87113364D01*
X121613534Y-87148103D01*
X121588548Y-87178548D01*
X121558103Y-87203534D01*
X121523364Y-87222102D01*
X121485677Y-87233535D01*
X121440339Y-87238000D01*
X120603661Y-87238000D01*
X120558323Y-87233535D01*
X120520636Y-87222102D01*
X120485897Y-87203534D01*
X120455452Y-87178548D01*
X120430466Y-87148103D01*
X120411898Y-87113364D01*
X120400465Y-87075677D01*
X120396000Y-87030339D01*
X120396000Y-85943661D01*
X120400465Y-85898323D01*
X120411898Y-85860636D01*
X120430466Y-85825897D01*
X120455452Y-85795452D01*
X120485897Y-85770466D01*
X120520636Y-85751898D01*
X120558323Y-85740465D01*
X120603661Y-85736000D01*
X121440339Y-85736000D01*
X121485677Y-85740465D01*
X121485677Y-85740465D01*
G37*
G36*
X110249562Y-85637181D02*
G01*
X110284477Y-85647773D01*
X110316665Y-85664978D01*
X110344873Y-85688127D01*
X110368022Y-85716335D01*
X110385227Y-85748523D01*
X110395819Y-85783438D01*
X110400000Y-85825895D01*
X110400000Y-86967105D01*
X110395819Y-87009562D01*
X110385227Y-87044477D01*
X110368022Y-87076665D01*
X110344873Y-87104873D01*
X110316665Y-87128022D01*
X110284477Y-87145227D01*
X110249562Y-87155819D01*
X110207105Y-87160000D01*
X108740895Y-87160000D01*
X108698438Y-87155819D01*
X108663523Y-87145227D01*
X108631335Y-87128022D01*
X108603127Y-87104873D01*
X108579978Y-87076665D01*
X108562773Y-87044477D01*
X108552181Y-87009562D01*
X108548000Y-86967105D01*
X108548000Y-85825895D01*
X108552181Y-85783438D01*
X108562773Y-85748523D01*
X108579978Y-85716335D01*
X108603127Y-85688127D01*
X108631335Y-85664978D01*
X108663523Y-85647773D01*
X108698438Y-85637181D01*
X108740895Y-85633000D01*
X110207105Y-85633000D01*
X110249562Y-85637181D01*
X110249562Y-85637181D01*
G37*
G36*
X113805562Y-85637181D02*
G01*
X113840477Y-85647773D01*
X113872665Y-85664978D01*
X113900873Y-85688127D01*
X113924022Y-85716335D01*
X113941227Y-85748523D01*
X113951819Y-85783438D01*
X113956000Y-85825895D01*
X113956000Y-86967105D01*
X113951819Y-87009562D01*
X113941227Y-87044477D01*
X113924022Y-87076665D01*
X113900873Y-87104873D01*
X113872665Y-87128022D01*
X113840477Y-87145227D01*
X113805562Y-87155819D01*
X113763105Y-87160000D01*
X112296895Y-87160000D01*
X112254438Y-87155819D01*
X112219523Y-87145227D01*
X112187335Y-87128022D01*
X112159127Y-87104873D01*
X112135978Y-87076665D01*
X112118773Y-87044477D01*
X112108181Y-87009562D01*
X112104000Y-86967105D01*
X112104000Y-85825895D01*
X112108181Y-85783438D01*
X112118773Y-85748523D01*
X112135978Y-85716335D01*
X112159127Y-85688127D01*
X112187335Y-85664978D01*
X112219523Y-85647773D01*
X112254438Y-85637181D01*
X112296895Y-85633000D01*
X113763105Y-85633000D01*
X113805562Y-85637181D01*
X113805562Y-85637181D01*
G37*
G36*
X106252677Y-85620465D02*
G01*
X106290364Y-85631898D01*
X106325103Y-85650466D01*
X106355548Y-85675452D01*
X106380534Y-85705897D01*
X106399102Y-85740636D01*
X106410535Y-85778323D01*
X106415000Y-85823661D01*
X106415000Y-86660339D01*
X106410535Y-86705677D01*
X106399102Y-86743364D01*
X106380534Y-86778103D01*
X106355548Y-86808548D01*
X106325103Y-86833534D01*
X106290364Y-86852102D01*
X106252677Y-86863535D01*
X106207339Y-86868000D01*
X105120661Y-86868000D01*
X105075323Y-86863535D01*
X105037636Y-86852102D01*
X105002897Y-86833534D01*
X104972452Y-86808548D01*
X104947466Y-86778103D01*
X104928898Y-86743364D01*
X104917465Y-86705677D01*
X104913000Y-86660339D01*
X104913000Y-85823661D01*
X104917465Y-85778323D01*
X104928898Y-85740636D01*
X104947466Y-85705897D01*
X104972452Y-85675452D01*
X105002897Y-85650466D01*
X105037636Y-85631898D01*
X105075323Y-85620465D01*
X105120661Y-85616000D01*
X106207339Y-85616000D01*
X106252677Y-85620465D01*
X106252677Y-85620465D01*
G37*
G36*
X100082443Y-84663519D02*
G01*
X100148627Y-84670037D01*
X100261853Y-84704384D01*
X100318467Y-84721557D01*
X100387671Y-84758548D01*
X100474991Y-84805222D01*
X100510729Y-84834552D01*
X100612186Y-84917814D01*
X100691943Y-85015000D01*
X100724778Y-85055009D01*
X100724779Y-85055011D01*
X100808443Y-85211533D01*
X100815281Y-85234075D01*
X100859963Y-85381373D01*
X100877359Y-85558000D01*
X100859963Y-85734627D01*
X100829492Y-85835075D01*
X100808443Y-85904467D01*
X100787493Y-85943661D01*
X100724778Y-86060991D01*
X100695448Y-86096729D01*
X100612186Y-86198186D01*
X100510729Y-86281448D01*
X100474991Y-86310778D01*
X100474989Y-86310779D01*
X100318467Y-86394443D01*
X100261853Y-86411616D01*
X100148627Y-86445963D01*
X100082442Y-86452482D01*
X100016260Y-86459000D01*
X99627740Y-86459000D01*
X99561558Y-86452482D01*
X99495373Y-86445963D01*
X99382147Y-86411616D01*
X99325533Y-86394443D01*
X99169011Y-86310779D01*
X99169009Y-86310778D01*
X99133271Y-86281448D01*
X99031814Y-86198186D01*
X98948552Y-86096729D01*
X98919222Y-86060991D01*
X98856507Y-85943661D01*
X98835557Y-85904467D01*
X98814508Y-85835075D01*
X98784037Y-85734627D01*
X98766641Y-85558000D01*
X98784037Y-85381373D01*
X98828719Y-85234075D01*
X98835557Y-85211533D01*
X98919221Y-85055011D01*
X98919222Y-85055009D01*
X98952057Y-85015000D01*
X99031814Y-84917814D01*
X99133271Y-84834552D01*
X99169009Y-84805222D01*
X99256329Y-84758548D01*
X99325533Y-84721557D01*
X99382147Y-84704384D01*
X99495373Y-84670037D01*
X99561557Y-84663519D01*
X99627740Y-84657000D01*
X100016260Y-84657000D01*
X100082443Y-84663519D01*
X100082443Y-84663519D01*
G37*
G36*
X134874677Y-85019465D02*
G01*
X134912364Y-85030898D01*
X134947103Y-85049466D01*
X134977548Y-85074452D01*
X135002534Y-85104897D01*
X135021102Y-85139636D01*
X135032535Y-85177323D01*
X135037000Y-85222661D01*
X135037000Y-86059339D01*
X135032535Y-86104677D01*
X135021102Y-86142364D01*
X135002534Y-86177103D01*
X134977548Y-86207548D01*
X134947103Y-86232534D01*
X134912364Y-86251102D01*
X134874677Y-86262535D01*
X134829339Y-86267000D01*
X133742661Y-86267000D01*
X133697323Y-86262535D01*
X133659636Y-86251102D01*
X133624897Y-86232534D01*
X133594452Y-86207548D01*
X133569466Y-86177103D01*
X133550898Y-86142364D01*
X133539465Y-86104677D01*
X133535000Y-86059339D01*
X133535000Y-85222661D01*
X133539465Y-85177323D01*
X133550898Y-85139636D01*
X133569466Y-85104897D01*
X133594452Y-85074452D01*
X133624897Y-85049466D01*
X133659636Y-85030898D01*
X133697323Y-85019465D01*
X133742661Y-85015000D01*
X134829339Y-85015000D01*
X134874677Y-85019465D01*
X134874677Y-85019465D01*
G37*
G36*
X131378562Y-84165181D02*
G01*
X131413477Y-84175773D01*
X131445665Y-84192978D01*
X131473873Y-84216127D01*
X131497022Y-84244335D01*
X131514227Y-84276523D01*
X131524819Y-84311438D01*
X131529000Y-84353895D01*
X131529000Y-85495105D01*
X131524819Y-85537562D01*
X131514227Y-85572477D01*
X131497022Y-85604665D01*
X131473873Y-85632873D01*
X131445665Y-85656022D01*
X131413477Y-85673227D01*
X131378562Y-85683819D01*
X131336105Y-85688000D01*
X129869895Y-85688000D01*
X129827438Y-85683819D01*
X129792523Y-85673227D01*
X129760335Y-85656022D01*
X129732127Y-85632873D01*
X129708978Y-85604665D01*
X129691773Y-85572477D01*
X129681181Y-85537562D01*
X129677000Y-85495105D01*
X129677000Y-84353895D01*
X129681181Y-84311438D01*
X129691773Y-84276523D01*
X129708978Y-84244335D01*
X129732127Y-84216127D01*
X129760335Y-84192978D01*
X129792523Y-84175773D01*
X129827438Y-84165181D01*
X129869895Y-84161000D01*
X131336105Y-84161000D01*
X131378562Y-84165181D01*
X131378562Y-84165181D01*
G37*
G36*
X127568562Y-84165181D02*
G01*
X127603477Y-84175773D01*
X127635665Y-84192978D01*
X127663873Y-84216127D01*
X127687022Y-84244335D01*
X127704227Y-84276523D01*
X127714819Y-84311438D01*
X127719000Y-84353895D01*
X127719000Y-85495105D01*
X127714819Y-85537562D01*
X127704227Y-85572477D01*
X127687022Y-85604665D01*
X127663873Y-85632873D01*
X127635665Y-85656022D01*
X127603477Y-85673227D01*
X127568562Y-85683819D01*
X127526105Y-85688000D01*
X126059895Y-85688000D01*
X126017438Y-85683819D01*
X125982523Y-85673227D01*
X125950335Y-85656022D01*
X125922127Y-85632873D01*
X125898978Y-85604665D01*
X125881773Y-85572477D01*
X125871181Y-85537562D01*
X125867000Y-85495105D01*
X125867000Y-84353895D01*
X125871181Y-84311438D01*
X125881773Y-84276523D01*
X125898978Y-84244335D01*
X125922127Y-84216127D01*
X125950335Y-84192978D01*
X125982523Y-84175773D01*
X126017438Y-84165181D01*
X126059895Y-84161000D01*
X127526105Y-84161000D01*
X127568562Y-84165181D01*
X127568562Y-84165181D01*
G37*
G36*
X106252677Y-83570465D02*
G01*
X106290364Y-83581898D01*
X106325103Y-83600466D01*
X106355548Y-83625452D01*
X106380534Y-83655897D01*
X106399102Y-83690636D01*
X106410535Y-83728323D01*
X106415000Y-83773661D01*
X106415000Y-84610339D01*
X106410535Y-84655677D01*
X106399102Y-84693364D01*
X106380534Y-84728103D01*
X106355548Y-84758548D01*
X106325103Y-84783534D01*
X106290364Y-84802102D01*
X106252677Y-84813535D01*
X106207339Y-84818000D01*
X105120661Y-84818000D01*
X105075323Y-84813535D01*
X105037636Y-84802102D01*
X105002897Y-84783534D01*
X104972452Y-84758548D01*
X104947466Y-84728103D01*
X104928898Y-84693364D01*
X104917465Y-84655677D01*
X104913000Y-84610339D01*
X104913000Y-83773661D01*
X104917465Y-83728323D01*
X104928898Y-83690636D01*
X104947466Y-83655897D01*
X104972452Y-83625452D01*
X105002897Y-83600466D01*
X105037636Y-83581898D01*
X105075323Y-83570465D01*
X105120661Y-83566000D01*
X106207339Y-83566000D01*
X106252677Y-83570465D01*
X106252677Y-83570465D01*
G37*
G36*
X113162928Y-82446764D02*
G01*
X113184011Y-82453160D01*
X113203442Y-82463546D01*
X113220475Y-82477525D01*
X113234454Y-82494558D01*
X113244840Y-82513989D01*
X113251236Y-82535072D01*
X113254000Y-82563140D01*
X113254000Y-84026860D01*
X113251236Y-84054928D01*
X113244840Y-84076011D01*
X113234454Y-84095442D01*
X113220475Y-84112475D01*
X113203442Y-84126454D01*
X113184011Y-84136840D01*
X113162928Y-84143236D01*
X113134860Y-84146000D01*
X112671140Y-84146000D01*
X112643072Y-84143236D01*
X112621989Y-84136840D01*
X112602558Y-84126454D01*
X112585525Y-84112475D01*
X112571546Y-84095442D01*
X112561160Y-84076011D01*
X112554764Y-84054928D01*
X112552000Y-84026860D01*
X112552000Y-82563140D01*
X112554764Y-82535072D01*
X112561160Y-82513989D01*
X112571546Y-82494558D01*
X112585525Y-82477525D01*
X112602558Y-82463546D01*
X112621989Y-82453160D01*
X112643072Y-82446764D01*
X112671140Y-82444000D01*
X113134860Y-82444000D01*
X113162928Y-82446764D01*
X113162928Y-82446764D01*
G37*
G36*
X109352928Y-82446764D02*
G01*
X109374011Y-82453160D01*
X109393442Y-82463546D01*
X109410475Y-82477525D01*
X109424454Y-82494558D01*
X109434840Y-82513989D01*
X109441236Y-82535072D01*
X109444000Y-82563140D01*
X109444000Y-84026860D01*
X109441236Y-84054928D01*
X109434840Y-84076011D01*
X109424454Y-84095442D01*
X109410475Y-84112475D01*
X109393442Y-84126454D01*
X109374011Y-84136840D01*
X109352928Y-84143236D01*
X109324860Y-84146000D01*
X108861140Y-84146000D01*
X108833072Y-84143236D01*
X108811989Y-84136840D01*
X108792558Y-84126454D01*
X108775525Y-84112475D01*
X108761546Y-84095442D01*
X108751160Y-84076011D01*
X108744764Y-84054928D01*
X108742000Y-84026860D01*
X108742000Y-82563140D01*
X108744764Y-82535072D01*
X108751160Y-82513989D01*
X108761546Y-82494558D01*
X108775525Y-82477525D01*
X108792558Y-82463546D01*
X108811989Y-82453160D01*
X108833072Y-82446764D01*
X108861140Y-82444000D01*
X109324860Y-82444000D01*
X109352928Y-82446764D01*
X109352928Y-82446764D01*
G37*
G36*
X111892928Y-82446764D02*
G01*
X111914011Y-82453160D01*
X111933442Y-82463546D01*
X111950475Y-82477525D01*
X111964454Y-82494558D01*
X111974840Y-82513989D01*
X111981236Y-82535072D01*
X111984000Y-82563140D01*
X111984000Y-84026860D01*
X111981236Y-84054928D01*
X111974840Y-84076011D01*
X111964454Y-84095442D01*
X111950475Y-84112475D01*
X111933442Y-84126454D01*
X111914011Y-84136840D01*
X111892928Y-84143236D01*
X111864860Y-84146000D01*
X111401140Y-84146000D01*
X111373072Y-84143236D01*
X111351989Y-84136840D01*
X111332558Y-84126454D01*
X111315525Y-84112475D01*
X111301546Y-84095442D01*
X111291160Y-84076011D01*
X111284764Y-84054928D01*
X111282000Y-84026860D01*
X111282000Y-82563140D01*
X111284764Y-82535072D01*
X111291160Y-82513989D01*
X111301546Y-82494558D01*
X111315525Y-82477525D01*
X111332558Y-82463546D01*
X111351989Y-82453160D01*
X111373072Y-82446764D01*
X111401140Y-82444000D01*
X111864860Y-82444000D01*
X111892928Y-82446764D01*
X111892928Y-82446764D01*
G37*
G36*
X110622928Y-82446764D02*
G01*
X110644011Y-82453160D01*
X110663442Y-82463546D01*
X110680475Y-82477525D01*
X110694454Y-82494558D01*
X110704840Y-82513989D01*
X110711236Y-82535072D01*
X110714000Y-82563140D01*
X110714000Y-84026860D01*
X110711236Y-84054928D01*
X110704840Y-84076011D01*
X110694454Y-84095442D01*
X110680475Y-84112475D01*
X110663442Y-84126454D01*
X110644011Y-84136840D01*
X110622928Y-84143236D01*
X110594860Y-84146000D01*
X110131140Y-84146000D01*
X110103072Y-84143236D01*
X110081989Y-84136840D01*
X110062558Y-84126454D01*
X110045525Y-84112475D01*
X110031546Y-84095442D01*
X110021160Y-84076011D01*
X110014764Y-84054928D01*
X110012000Y-84026860D01*
X110012000Y-82563140D01*
X110014764Y-82535072D01*
X110021160Y-82513989D01*
X110031546Y-82494558D01*
X110045525Y-82477525D01*
X110062558Y-82463546D01*
X110081989Y-82453160D01*
X110103072Y-82446764D01*
X110131140Y-82444000D01*
X110594860Y-82444000D01*
X110622928Y-82446764D01*
X110622928Y-82446764D01*
G37*
G36*
X100730600Y-82160989D02*
G01*
X100763649Y-82171014D01*
X100794106Y-82187294D01*
X100820799Y-82209201D01*
X100842706Y-82235894D01*
X100858986Y-82266351D01*
X100869011Y-82299400D01*
X100873000Y-82339904D01*
X100873000Y-83776096D01*
X100869011Y-83816600D01*
X100858986Y-83849649D01*
X100842706Y-83880106D01*
X100820799Y-83906799D01*
X100794106Y-83928706D01*
X100763649Y-83944986D01*
X100730600Y-83955011D01*
X100690096Y-83959000D01*
X98953904Y-83959000D01*
X98913400Y-83955011D01*
X98880351Y-83944986D01*
X98849894Y-83928706D01*
X98823201Y-83906799D01*
X98801294Y-83880106D01*
X98785014Y-83849649D01*
X98774989Y-83816600D01*
X98771000Y-83776096D01*
X98771000Y-82339904D01*
X98774989Y-82299400D01*
X98785014Y-82266351D01*
X98801294Y-82235894D01*
X98823201Y-82209201D01*
X98849894Y-82187294D01*
X98880351Y-82171014D01*
X98913400Y-82160989D01*
X98953904Y-82157000D01*
X100690096Y-82157000D01*
X100730600Y-82160989D01*
X100730600Y-82160989D01*
G37*
G36*
X123246000Y-83588000D02*
G01*
X120594000Y-83588000D01*
X120594000Y-81926000D01*
X123246000Y-81926000D01*
X123246000Y-83588000D01*
X123246000Y-83588000D01*
G37*
G36*
X132395562Y-81553181D02*
G01*
X132430477Y-81563773D01*
X132462665Y-81580978D01*
X132490873Y-81604127D01*
X132514022Y-81632335D01*
X132531227Y-81664523D01*
X132541819Y-81699438D01*
X132546000Y-81741895D01*
X132546000Y-83208105D01*
X132541819Y-83250562D01*
X132531227Y-83285477D01*
X132514022Y-83317665D01*
X132490873Y-83345873D01*
X132462665Y-83369022D01*
X132430477Y-83386227D01*
X132395562Y-83396819D01*
X132353105Y-83401000D01*
X131211895Y-83401000D01*
X131169438Y-83396819D01*
X131134523Y-83386227D01*
X131102335Y-83369022D01*
X131074127Y-83345873D01*
X131050978Y-83317665D01*
X131033773Y-83285477D01*
X131023181Y-83250562D01*
X131019000Y-83208105D01*
X131019000Y-81741895D01*
X131023181Y-81699438D01*
X131033773Y-81664523D01*
X131050978Y-81632335D01*
X131074127Y-81604127D01*
X131102335Y-81580978D01*
X131134523Y-81563773D01*
X131169438Y-81553181D01*
X131211895Y-81549000D01*
X132353105Y-81549000D01*
X132395562Y-81553181D01*
X132395562Y-81553181D01*
G37*
G36*
X135370562Y-81553181D02*
G01*
X135405477Y-81563773D01*
X135437665Y-81580978D01*
X135465873Y-81604127D01*
X135489022Y-81632335D01*
X135506227Y-81664523D01*
X135516819Y-81699438D01*
X135521000Y-81741895D01*
X135521000Y-83208105D01*
X135516819Y-83250562D01*
X135506227Y-83285477D01*
X135489022Y-83317665D01*
X135465873Y-83345873D01*
X135437665Y-83369022D01*
X135405477Y-83386227D01*
X135370562Y-83396819D01*
X135328105Y-83401000D01*
X134186895Y-83401000D01*
X134144438Y-83396819D01*
X134109523Y-83386227D01*
X134077335Y-83369022D01*
X134049127Y-83345873D01*
X134025978Y-83317665D01*
X134008773Y-83285477D01*
X133998181Y-83250562D01*
X133994000Y-83208105D01*
X133994000Y-81741895D01*
X133998181Y-81699438D01*
X134008773Y-81664523D01*
X134025978Y-81632335D01*
X134049127Y-81604127D01*
X134077335Y-81580978D01*
X134109523Y-81563773D01*
X134144438Y-81553181D01*
X134186895Y-81549000D01*
X135328105Y-81549000D01*
X135370562Y-81553181D01*
X135370562Y-81553181D01*
G37*
G36*
X127879000Y-83087000D02*
G01*
X126977000Y-83087000D01*
X126977000Y-82085000D01*
X127879000Y-82085000D01*
X127879000Y-83087000D01*
X127879000Y-83087000D01*
G37*
G36*
X158541000Y-82323000D02*
G01*
X154439000Y-82323000D01*
X154439000Y-79221000D01*
X158541000Y-79221000D01*
X158541000Y-82323000D01*
X158541000Y-82323000D01*
G37*
G36*
X142741000Y-82323000D02*
G01*
X138639000Y-82323000D01*
X138639000Y-79221000D01*
X142741000Y-79221000D01*
X142741000Y-82323000D01*
X142741000Y-82323000D01*
G37*
G36*
X112468285Y-79392710D02*
G01*
X112498608Y-79401908D01*
X112526556Y-79416847D01*
X112551051Y-79436949D01*
X112571153Y-79461444D01*
X112586092Y-79489392D01*
X112595290Y-79519715D01*
X112599000Y-79557386D01*
X112599000Y-81732614D01*
X112595290Y-81770285D01*
X112586092Y-81800608D01*
X112571153Y-81828556D01*
X112551051Y-81853051D01*
X112526556Y-81873153D01*
X112498608Y-81888092D01*
X112468285Y-81897290D01*
X112430614Y-81901000D01*
X109565386Y-81901000D01*
X109527715Y-81897290D01*
X109497392Y-81888092D01*
X109469444Y-81873153D01*
X109444949Y-81853051D01*
X109424847Y-81828556D01*
X109409908Y-81800608D01*
X109400710Y-81770285D01*
X109397000Y-81732614D01*
X109397000Y-79557386D01*
X109400710Y-79519715D01*
X109409908Y-79489392D01*
X109424847Y-79461444D01*
X109444949Y-79436949D01*
X109469444Y-79416847D01*
X109497392Y-79401908D01*
X109527715Y-79392710D01*
X109565386Y-79389000D01*
X112430614Y-79389000D01*
X112468285Y-79392710D01*
X112468285Y-79392710D01*
G37*
G36*
X106439562Y-80103181D02*
G01*
X106474477Y-80113773D01*
X106506665Y-80130978D01*
X106534873Y-80154127D01*
X106558022Y-80182335D01*
X106575227Y-80214523D01*
X106585819Y-80249438D01*
X106590000Y-80291895D01*
X106590000Y-81433105D01*
X106585819Y-81475562D01*
X106575227Y-81510477D01*
X106558022Y-81542665D01*
X106534873Y-81570873D01*
X106506665Y-81594022D01*
X106474477Y-81611227D01*
X106439562Y-81621819D01*
X106397105Y-81626000D01*
X104930895Y-81626000D01*
X104888438Y-81621819D01*
X104853523Y-81611227D01*
X104821335Y-81594022D01*
X104793127Y-81570873D01*
X104769978Y-81542665D01*
X104752773Y-81510477D01*
X104742181Y-81475562D01*
X104738000Y-81433105D01*
X104738000Y-80291895D01*
X104742181Y-80249438D01*
X104752773Y-80214523D01*
X104769978Y-80182335D01*
X104793127Y-80154127D01*
X104821335Y-80130978D01*
X104853523Y-80113773D01*
X104888438Y-80103181D01*
X104930895Y-80099000D01*
X106397105Y-80099000D01*
X106439562Y-80103181D01*
X106439562Y-80103181D01*
G37*
G36*
X116599562Y-80103181D02*
G01*
X116634477Y-80113773D01*
X116666665Y-80130978D01*
X116694873Y-80154127D01*
X116718022Y-80182335D01*
X116735227Y-80214523D01*
X116745819Y-80249438D01*
X116750000Y-80291895D01*
X116750000Y-81433105D01*
X116745819Y-81475562D01*
X116735227Y-81510477D01*
X116718022Y-81542665D01*
X116694873Y-81570873D01*
X116666665Y-81594022D01*
X116634477Y-81611227D01*
X116599562Y-81621819D01*
X116557105Y-81626000D01*
X115090895Y-81626000D01*
X115048438Y-81621819D01*
X115013523Y-81611227D01*
X114981335Y-81594022D01*
X114953127Y-81570873D01*
X114929978Y-81542665D01*
X114912773Y-81510477D01*
X114902181Y-81475562D01*
X114898000Y-81433105D01*
X114898000Y-80291895D01*
X114902181Y-80249438D01*
X114912773Y-80214523D01*
X114929978Y-80182335D01*
X114953127Y-80154127D01*
X114981335Y-80130978D01*
X115013523Y-80113773D01*
X115048438Y-80103181D01*
X115090895Y-80099000D01*
X116557105Y-80099000D01*
X116599562Y-80103181D01*
X116599562Y-80103181D01*
G37*
G36*
X145044472Y-80097938D02*
G01*
X145172049Y-80150782D01*
X145286865Y-80227500D01*
X145384500Y-80325135D01*
X145461218Y-80439951D01*
X145514062Y-80567528D01*
X145541000Y-80702956D01*
X145541000Y-80841044D01*
X145514062Y-80976472D01*
X145461218Y-81104049D01*
X145384500Y-81218865D01*
X145286865Y-81316500D01*
X145172049Y-81393218D01*
X145044472Y-81446062D01*
X144909044Y-81473000D01*
X144770956Y-81473000D01*
X144635528Y-81446062D01*
X144507951Y-81393218D01*
X144393135Y-81316500D01*
X144295500Y-81218865D01*
X144218782Y-81104049D01*
X144165938Y-80976472D01*
X144139000Y-80841044D01*
X144139000Y-80702956D01*
X144165938Y-80567528D01*
X144218782Y-80439951D01*
X144295500Y-80325135D01*
X144393135Y-80227500D01*
X144507951Y-80150782D01*
X144635528Y-80097938D01*
X144770956Y-80071000D01*
X144909044Y-80071000D01*
X145044472Y-80097938D01*
X145044472Y-80097938D01*
G37*
G36*
X152500721Y-80242174D02*
G01*
X152600995Y-80283709D01*
X152691245Y-80344012D01*
X152767988Y-80420755D01*
X152828291Y-80511005D01*
X152869826Y-80611279D01*
X152891000Y-80717730D01*
X152891000Y-80826270D01*
X152869826Y-80932721D01*
X152828291Y-81032995D01*
X152767988Y-81123245D01*
X152691245Y-81199988D01*
X152600995Y-81260291D01*
X152500721Y-81301826D01*
X152394270Y-81323000D01*
X152285730Y-81323000D01*
X152179279Y-81301826D01*
X152079005Y-81260291D01*
X151988755Y-81199988D01*
X151912012Y-81123245D01*
X151851709Y-81032995D01*
X151810174Y-80932721D01*
X151789000Y-80826270D01*
X151789000Y-80717730D01*
X151810174Y-80611279D01*
X151851709Y-80511005D01*
X151912012Y-80420755D01*
X151988755Y-80344012D01*
X152079005Y-80283709D01*
X152179279Y-80242174D01*
X152285730Y-80221000D01*
X152394270Y-80221000D01*
X152500721Y-80242174D01*
X152500721Y-80242174D01*
G37*
G36*
X128829000Y-81087000D02*
G01*
X127927000Y-81087000D01*
X127927000Y-80085000D01*
X128829000Y-80085000D01*
X128829000Y-81087000D01*
X128829000Y-81087000D01*
G37*
G36*
X126929000Y-81087000D02*
G01*
X126027000Y-81087000D01*
X126027000Y-80085000D01*
X126929000Y-80085000D01*
X126929000Y-81087000D01*
X126929000Y-81087000D01*
G37*
G36*
X123246000Y-80888000D02*
G01*
X120594000Y-80888000D01*
X120594000Y-79226000D01*
X123246000Y-79226000D01*
X123246000Y-80888000D01*
X123246000Y-80888000D01*
G37*
G36*
X132696000Y-79620000D02*
G01*
X131944000Y-79620000D01*
X131944000Y-78298000D01*
X132696000Y-78298000D01*
X132696000Y-79620000D01*
X132696000Y-79620000D01*
G37*
G36*
X134596000Y-79620000D02*
G01*
X133844000Y-79620000D01*
X133844000Y-78298000D01*
X134596000Y-78298000D01*
X134596000Y-79620000D01*
X134596000Y-79620000D01*
G37*
G36*
X126426562Y-77235181D02*
G01*
X126461477Y-77245773D01*
X126493665Y-77262978D01*
X126521873Y-77286127D01*
X126545022Y-77314335D01*
X126562227Y-77346523D01*
X126572819Y-77381438D01*
X126577000Y-77423895D01*
X126577000Y-78890105D01*
X126572819Y-78932562D01*
X126562227Y-78967477D01*
X126545022Y-78999665D01*
X126521873Y-79027873D01*
X126493665Y-79051022D01*
X126461477Y-79068227D01*
X126426562Y-79078819D01*
X126384105Y-79083000D01*
X125242895Y-79083000D01*
X125200438Y-79078819D01*
X125165523Y-79068227D01*
X125133335Y-79051022D01*
X125105127Y-79027873D01*
X125081978Y-78999665D01*
X125064773Y-78967477D01*
X125054181Y-78932562D01*
X125050000Y-78890105D01*
X125050000Y-77423895D01*
X125054181Y-77381438D01*
X125064773Y-77346523D01*
X125081978Y-77314335D01*
X125105127Y-77286127D01*
X125133335Y-77262978D01*
X125165523Y-77245773D01*
X125200438Y-77235181D01*
X125242895Y-77231000D01*
X126384105Y-77231000D01*
X126426562Y-77235181D01*
X126426562Y-77235181D01*
G37*
G36*
X129401562Y-77235181D02*
G01*
X129436477Y-77245773D01*
X129468665Y-77262978D01*
X129496873Y-77286127D01*
X129520022Y-77314335D01*
X129537227Y-77346523D01*
X129547819Y-77381438D01*
X129552000Y-77423895D01*
X129552000Y-78890105D01*
X129547819Y-78932562D01*
X129537227Y-78967477D01*
X129520022Y-78999665D01*
X129496873Y-79027873D01*
X129468665Y-79051022D01*
X129436477Y-79068227D01*
X129401562Y-79078819D01*
X129359105Y-79083000D01*
X128217895Y-79083000D01*
X128175438Y-79078819D01*
X128140523Y-79068227D01*
X128108335Y-79051022D01*
X128080127Y-79027873D01*
X128056978Y-78999665D01*
X128039773Y-78967477D01*
X128029181Y-78932562D01*
X128025000Y-78890105D01*
X128025000Y-77423895D01*
X128029181Y-77381438D01*
X128039773Y-77346523D01*
X128056978Y-77314335D01*
X128080127Y-77286127D01*
X128108335Y-77262978D01*
X128140523Y-77245773D01*
X128175438Y-77235181D01*
X128217895Y-77231000D01*
X129359105Y-77231000D01*
X129401562Y-77235181D01*
X129401562Y-77235181D01*
G37*
G36*
X113162928Y-77146764D02*
G01*
X113184011Y-77153160D01*
X113203442Y-77163546D01*
X113220475Y-77177525D01*
X113234454Y-77194558D01*
X113244840Y-77213989D01*
X113251236Y-77235072D01*
X113254000Y-77263140D01*
X113254000Y-78726860D01*
X113251236Y-78754928D01*
X113244840Y-78776011D01*
X113234454Y-78795442D01*
X113220475Y-78812475D01*
X113203442Y-78826454D01*
X113184011Y-78836840D01*
X113162928Y-78843236D01*
X113134860Y-78846000D01*
X112671140Y-78846000D01*
X112643072Y-78843236D01*
X112621989Y-78836840D01*
X112602558Y-78826454D01*
X112585525Y-78812475D01*
X112571546Y-78795442D01*
X112561160Y-78776011D01*
X112554764Y-78754928D01*
X112552000Y-78726860D01*
X112552000Y-77263140D01*
X112554764Y-77235072D01*
X112561160Y-77213989D01*
X112571546Y-77194558D01*
X112585525Y-77177525D01*
X112602558Y-77163546D01*
X112621989Y-77153160D01*
X112643072Y-77146764D01*
X112671140Y-77144000D01*
X113134860Y-77144000D01*
X113162928Y-77146764D01*
X113162928Y-77146764D01*
G37*
G36*
X111892928Y-77146764D02*
G01*
X111914011Y-77153160D01*
X111933442Y-77163546D01*
X111950475Y-77177525D01*
X111964454Y-77194558D01*
X111974840Y-77213989D01*
X111981236Y-77235072D01*
X111984000Y-77263140D01*
X111984000Y-78726860D01*
X111981236Y-78754928D01*
X111974840Y-78776011D01*
X111964454Y-78795442D01*
X111950475Y-78812475D01*
X111933442Y-78826454D01*
X111914011Y-78836840D01*
X111892928Y-78843236D01*
X111864860Y-78846000D01*
X111401140Y-78846000D01*
X111373072Y-78843236D01*
X111351989Y-78836840D01*
X111332558Y-78826454D01*
X111315525Y-78812475D01*
X111301546Y-78795442D01*
X111291160Y-78776011D01*
X111284764Y-78754928D01*
X111282000Y-78726860D01*
X111282000Y-77263140D01*
X111284764Y-77235072D01*
X111291160Y-77213989D01*
X111301546Y-77194558D01*
X111315525Y-77177525D01*
X111332558Y-77163546D01*
X111351989Y-77153160D01*
X111373072Y-77146764D01*
X111401140Y-77144000D01*
X111864860Y-77144000D01*
X111892928Y-77146764D01*
X111892928Y-77146764D01*
G37*
G36*
X109352928Y-77146764D02*
G01*
X109374011Y-77153160D01*
X109393442Y-77163546D01*
X109410475Y-77177525D01*
X109424454Y-77194558D01*
X109434840Y-77213989D01*
X109441236Y-77235072D01*
X109444000Y-77263140D01*
X109444000Y-78726860D01*
X109441236Y-78754928D01*
X109434840Y-78776011D01*
X109424454Y-78795442D01*
X109410475Y-78812475D01*
X109393442Y-78826454D01*
X109374011Y-78836840D01*
X109352928Y-78843236D01*
X109324860Y-78846000D01*
X108861140Y-78846000D01*
X108833072Y-78843236D01*
X108811989Y-78836840D01*
X108792558Y-78826454D01*
X108775525Y-78812475D01*
X108761546Y-78795442D01*
X108751160Y-78776011D01*
X108744764Y-78754928D01*
X108742000Y-78726860D01*
X108742000Y-77263140D01*
X108744764Y-77235072D01*
X108751160Y-77213989D01*
X108761546Y-77194558D01*
X108775525Y-77177525D01*
X108792558Y-77163546D01*
X108811989Y-77153160D01*
X108833072Y-77146764D01*
X108861140Y-77144000D01*
X109324860Y-77144000D01*
X109352928Y-77146764D01*
X109352928Y-77146764D01*
G37*
G36*
X110622928Y-77146764D02*
G01*
X110644011Y-77153160D01*
X110663442Y-77163546D01*
X110680475Y-77177525D01*
X110694454Y-77194558D01*
X110704840Y-77213989D01*
X110711236Y-77235072D01*
X110714000Y-77263140D01*
X110714000Y-78726860D01*
X110711236Y-78754928D01*
X110704840Y-78776011D01*
X110694454Y-78795442D01*
X110680475Y-78812475D01*
X110663442Y-78826454D01*
X110644011Y-78836840D01*
X110622928Y-78843236D01*
X110594860Y-78846000D01*
X110131140Y-78846000D01*
X110103072Y-78843236D01*
X110081989Y-78836840D01*
X110062558Y-78826454D01*
X110045525Y-78812475D01*
X110031546Y-78795442D01*
X110021160Y-78776011D01*
X110014764Y-78754928D01*
X110012000Y-78726860D01*
X110012000Y-77263140D01*
X110014764Y-77235072D01*
X110021160Y-77213989D01*
X110031546Y-77194558D01*
X110045525Y-77177525D01*
X110062558Y-77163546D01*
X110081989Y-77153160D01*
X110103072Y-77146764D01*
X110131140Y-77144000D01*
X110594860Y-77144000D01*
X110622928Y-77146764D01*
X110622928Y-77146764D01*
G37*
G36*
X106439562Y-77128181D02*
G01*
X106474477Y-77138773D01*
X106506665Y-77155978D01*
X106534873Y-77179127D01*
X106558022Y-77207335D01*
X106575227Y-77239523D01*
X106585819Y-77274438D01*
X106590000Y-77316895D01*
X106590000Y-78458105D01*
X106585819Y-78500562D01*
X106575227Y-78535477D01*
X106558022Y-78567665D01*
X106534873Y-78595873D01*
X106506665Y-78619022D01*
X106474477Y-78636227D01*
X106439562Y-78646819D01*
X106397105Y-78651000D01*
X104930895Y-78651000D01*
X104888438Y-78646819D01*
X104853523Y-78636227D01*
X104821335Y-78619022D01*
X104793127Y-78595873D01*
X104769978Y-78567665D01*
X104752773Y-78535477D01*
X104742181Y-78500562D01*
X104738000Y-78458105D01*
X104738000Y-77316895D01*
X104742181Y-77274438D01*
X104752773Y-77239523D01*
X104769978Y-77207335D01*
X104793127Y-77179127D01*
X104821335Y-77155978D01*
X104853523Y-77138773D01*
X104888438Y-77128181D01*
X104930895Y-77124000D01*
X106397105Y-77124000D01*
X106439562Y-77128181D01*
X106439562Y-77128181D01*
G37*
G36*
X116599562Y-77128181D02*
G01*
X116634477Y-77138773D01*
X116666665Y-77155978D01*
X116694873Y-77179127D01*
X116718022Y-77207335D01*
X116735227Y-77239523D01*
X116745819Y-77274438D01*
X116750000Y-77316895D01*
X116750000Y-78458105D01*
X116745819Y-78500562D01*
X116735227Y-78535477D01*
X116718022Y-78567665D01*
X116694873Y-78595873D01*
X116666665Y-78619022D01*
X116634477Y-78636227D01*
X116599562Y-78646819D01*
X116557105Y-78651000D01*
X115090895Y-78651000D01*
X115048438Y-78646819D01*
X115013523Y-78636227D01*
X114981335Y-78619022D01*
X114953127Y-78595873D01*
X114929978Y-78567665D01*
X114912773Y-78535477D01*
X114902181Y-78500562D01*
X114898000Y-78458105D01*
X114898000Y-77316895D01*
X114902181Y-77274438D01*
X114912773Y-77239523D01*
X114929978Y-77207335D01*
X114953127Y-77179127D01*
X114981335Y-77155978D01*
X115013523Y-77138773D01*
X115048438Y-77128181D01*
X115090895Y-77124000D01*
X116557105Y-77124000D01*
X116599562Y-77128181D01*
X116599562Y-77128181D01*
G37*
G36*
X123408677Y-76723465D02*
G01*
X123446364Y-76734898D01*
X123481103Y-76753466D01*
X123511548Y-76778452D01*
X123536534Y-76808897D01*
X123555102Y-76843636D01*
X123566535Y-76881323D01*
X123571000Y-76926661D01*
X123571000Y-78013339D01*
X123566535Y-78058677D01*
X123555102Y-78096364D01*
X123536534Y-78131103D01*
X123511548Y-78161548D01*
X123481103Y-78186534D01*
X123446364Y-78205102D01*
X123408677Y-78216535D01*
X123363339Y-78221000D01*
X122526661Y-78221000D01*
X122481323Y-78216535D01*
X122443636Y-78205102D01*
X122408897Y-78186534D01*
X122378452Y-78161548D01*
X122353466Y-78131103D01*
X122334898Y-78096364D01*
X122323465Y-78058677D01*
X122319000Y-78013339D01*
X122319000Y-76926661D01*
X122323465Y-76881323D01*
X122334898Y-76843636D01*
X122353466Y-76808897D01*
X122378452Y-76778452D01*
X122408897Y-76753466D01*
X122443636Y-76734898D01*
X122481323Y-76723465D01*
X122526661Y-76719000D01*
X123363339Y-76719000D01*
X123408677Y-76723465D01*
X123408677Y-76723465D01*
G37*
G36*
X121358677Y-76723465D02*
G01*
X121396364Y-76734898D01*
X121431103Y-76753466D01*
X121461548Y-76778452D01*
X121486534Y-76808897D01*
X121505102Y-76843636D01*
X121516535Y-76881323D01*
X121521000Y-76926661D01*
X121521000Y-78013339D01*
X121516535Y-78058677D01*
X121505102Y-78096364D01*
X121486534Y-78131103D01*
X121461548Y-78161548D01*
X121431103Y-78186534D01*
X121396364Y-78205102D01*
X121358677Y-78216535D01*
X121313339Y-78221000D01*
X120476661Y-78221000D01*
X120431323Y-78216535D01*
X120393636Y-78205102D01*
X120358897Y-78186534D01*
X120328452Y-78161548D01*
X120303466Y-78131103D01*
X120284898Y-78096364D01*
X120273465Y-78058677D01*
X120269000Y-78013339D01*
X120269000Y-76926661D01*
X120273465Y-76881323D01*
X120284898Y-76843636D01*
X120303466Y-76808897D01*
X120328452Y-76778452D01*
X120358897Y-76753466D01*
X120393636Y-76734898D01*
X120431323Y-76723465D01*
X120476661Y-76719000D01*
X121313339Y-76719000D01*
X121358677Y-76723465D01*
X121358677Y-76723465D01*
G37*
G36*
X94741413Y-75334525D02*
G01*
X94816456Y-75357290D01*
X94826425Y-75360314D01*
X94904774Y-75402193D01*
X94973448Y-75458552D01*
X95029807Y-75527226D01*
X95071686Y-75605575D01*
X95071687Y-75605579D01*
X95097475Y-75690587D01*
X95106182Y-75779000D01*
X95097475Y-75867413D01*
X95084252Y-75911000D01*
X95071686Y-75952425D01*
X95063005Y-75968665D01*
X95029807Y-76030775D01*
X95004496Y-76061615D01*
X94980850Y-76090429D01*
X94967239Y-76110798D01*
X94957862Y-76133437D01*
X94953081Y-76157471D01*
X94953081Y-76181975D01*
X94957861Y-76206008D01*
X94967238Y-76228648D01*
X94980852Y-76249022D01*
X94998179Y-76266350D01*
X95018553Y-76279964D01*
X95041192Y-76289341D01*
X95065226Y-76294122D01*
X95089730Y-76294122D01*
X95113763Y-76289342D01*
X95122212Y-76285843D01*
X95129599Y-76283602D01*
X95129601Y-76283601D01*
X95275878Y-76239229D01*
X95275881Y-76239228D01*
X95389882Y-76228000D01*
X96016118Y-76228000D01*
X96130119Y-76239228D01*
X96130122Y-76239229D01*
X96276399Y-76283601D01*
X96276401Y-76283602D01*
X96411210Y-76355659D01*
X96529369Y-76452631D01*
X96626341Y-76570790D01*
X96626342Y-76570792D01*
X96698399Y-76705601D01*
X96702463Y-76719000D01*
X96742772Y-76851881D01*
X96757754Y-77004000D01*
X96742772Y-77156119D01*
X96742771Y-77156122D01*
X96706881Y-77274438D01*
X96698398Y-77302401D01*
X96626341Y-77437210D01*
X96529369Y-77555369D01*
X96411210Y-77652341D01*
X96365043Y-77677018D01*
X96276399Y-77724399D01*
X96157352Y-77760511D01*
X96130119Y-77768772D01*
X96016118Y-77780000D01*
X95389882Y-77780000D01*
X95275881Y-77768772D01*
X95248648Y-77760511D01*
X95129601Y-77724399D01*
X95040957Y-77677018D01*
X94994790Y-77652341D01*
X94876631Y-77555369D01*
X94779659Y-77437210D01*
X94707602Y-77302401D01*
X94699120Y-77274438D01*
X94663229Y-77156122D01*
X94663228Y-77156119D01*
X94648246Y-77004000D01*
X94663228Y-76851881D01*
X94703537Y-76719000D01*
X94707601Y-76705601D01*
X94779658Y-76570792D01*
X94779659Y-76570790D01*
X94876632Y-76452630D01*
X94913105Y-76422696D01*
X94930432Y-76405369D01*
X94944046Y-76384994D01*
X94953423Y-76362355D01*
X94958203Y-76338322D01*
X94958203Y-76313817D01*
X94953422Y-76289784D01*
X94944044Y-76267145D01*
X94930430Y-76246771D01*
X94913103Y-76229444D01*
X94892728Y-76215830D01*
X94870089Y-76206453D01*
X94846056Y-76201673D01*
X94821551Y-76201673D01*
X94797524Y-76206453D01*
X94776489Y-76212833D01*
X94741411Y-76223475D01*
X94675158Y-76230000D01*
X94630842Y-76230000D01*
X94564587Y-76223475D01*
X94489544Y-76200710D01*
X94479575Y-76197686D01*
X94401226Y-76155807D01*
X94332552Y-76099448D01*
X94276193Y-76030774D01*
X94234314Y-75952425D01*
X94221748Y-75911000D01*
X94208525Y-75867413D01*
X94199818Y-75779000D01*
X94208525Y-75690587D01*
X94234313Y-75605579D01*
X94234314Y-75605575D01*
X94276193Y-75527226D01*
X94332552Y-75458552D01*
X94401226Y-75402193D01*
X94479575Y-75360314D01*
X94489544Y-75357290D01*
X94564587Y-75334525D01*
X94630842Y-75328000D01*
X94675158Y-75328000D01*
X94741413Y-75334525D01*
X94741413Y-75334525D01*
G37*
G36*
X92350714Y-76537058D02*
G01*
X92350717Y-76537059D01*
X92468719Y-76572854D01*
X92468721Y-76572855D01*
X92577471Y-76630983D01*
X92672790Y-76709210D01*
X92751017Y-76804529D01*
X92776327Y-76851881D01*
X92809146Y-76913281D01*
X92816667Y-76938075D01*
X92844942Y-77031286D01*
X92857028Y-77154000D01*
X92844942Y-77276714D01*
X92844941Y-77276717D01*
X92810003Y-77391895D01*
X92809145Y-77394721D01*
X92751017Y-77503471D01*
X92672790Y-77598790D01*
X92577471Y-77677017D01*
X92577469Y-77677018D01*
X92468719Y-77735146D01*
X92372683Y-77764278D01*
X92350714Y-77770942D01*
X92258747Y-77780000D01*
X91547253Y-77780000D01*
X91455286Y-77770942D01*
X91433317Y-77764278D01*
X91337281Y-77735146D01*
X91228531Y-77677018D01*
X91228529Y-77677017D01*
X91133210Y-77598790D01*
X91054983Y-77503471D01*
X90996855Y-77394721D01*
X90995998Y-77391895D01*
X90961059Y-77276717D01*
X90961058Y-77276714D01*
X90948972Y-77154000D01*
X90961058Y-77031286D01*
X90989333Y-76938075D01*
X90996854Y-76913281D01*
X91029673Y-76851881D01*
X91054983Y-76804529D01*
X91133210Y-76709210D01*
X91228529Y-76630983D01*
X91337279Y-76572855D01*
X91337281Y-76572854D01*
X91455283Y-76537059D01*
X91455286Y-76537058D01*
X91547253Y-76528000D01*
X92258747Y-76528000D01*
X92350714Y-76537058D01*
X92350714Y-76537058D01*
G37*
G36*
X133646000Y-77000000D02*
G01*
X132894000Y-77000000D01*
X132894000Y-75678000D01*
X133646000Y-75678000D01*
X133646000Y-77000000D01*
X133646000Y-77000000D01*
G37*
G36*
X106240562Y-73304181D02*
G01*
X106275477Y-73314773D01*
X106307665Y-73331978D01*
X106335873Y-73355127D01*
X106359022Y-73383335D01*
X106376227Y-73415523D01*
X106386819Y-73450438D01*
X106391000Y-73492895D01*
X106391000Y-75859105D01*
X106386819Y-75901562D01*
X106376227Y-75936477D01*
X106359022Y-75968665D01*
X106335873Y-75996873D01*
X106307665Y-76020022D01*
X106275477Y-76037227D01*
X106240562Y-76047819D01*
X106198105Y-76052000D01*
X105056895Y-76052000D01*
X105014438Y-76047819D01*
X104979523Y-76037227D01*
X104947335Y-76020022D01*
X104919127Y-75996873D01*
X104895978Y-75968665D01*
X104878773Y-75936477D01*
X104868181Y-75901562D01*
X104864000Y-75859105D01*
X104864000Y-73492895D01*
X104868181Y-73450438D01*
X104878773Y-73415523D01*
X104895978Y-73383335D01*
X104919127Y-73355127D01*
X104947335Y-73331978D01*
X104979523Y-73314773D01*
X105014438Y-73304181D01*
X105056895Y-73300000D01*
X106198105Y-73300000D01*
X106240562Y-73304181D01*
X106240562Y-73304181D01*
G37*
G36*
X103265562Y-73304181D02*
G01*
X103300477Y-73314773D01*
X103332665Y-73331978D01*
X103360873Y-73355127D01*
X103384022Y-73383335D01*
X103401227Y-73415523D01*
X103411819Y-73450438D01*
X103416000Y-73492895D01*
X103416000Y-75859105D01*
X103411819Y-75901562D01*
X103401227Y-75936477D01*
X103384022Y-75968665D01*
X103360873Y-75996873D01*
X103332665Y-76020022D01*
X103300477Y-76037227D01*
X103265562Y-76047819D01*
X103223105Y-76052000D01*
X102081895Y-76052000D01*
X102039438Y-76047819D01*
X102004523Y-76037227D01*
X101972335Y-76020022D01*
X101944127Y-75996873D01*
X101920978Y-75968665D01*
X101903773Y-75936477D01*
X101893181Y-75901562D01*
X101889000Y-75859105D01*
X101889000Y-73492895D01*
X101893181Y-73450438D01*
X101903773Y-73415523D01*
X101920978Y-73383335D01*
X101944127Y-73355127D01*
X101972335Y-73331978D01*
X102004523Y-73314773D01*
X102039438Y-73304181D01*
X102081895Y-73300000D01*
X103223105Y-73300000D01*
X103265562Y-73304181D01*
X103265562Y-73304181D01*
G37*
G36*
X123457562Y-74388181D02*
G01*
X123492477Y-74398773D01*
X123524665Y-74415978D01*
X123552873Y-74439127D01*
X123576022Y-74467335D01*
X123593227Y-74499523D01*
X123603819Y-74534438D01*
X123608000Y-74576895D01*
X123608000Y-75718105D01*
X123603819Y-75760562D01*
X123593227Y-75795477D01*
X123576022Y-75827665D01*
X123552873Y-75855873D01*
X123524665Y-75879022D01*
X123492477Y-75896227D01*
X123457562Y-75906819D01*
X123415105Y-75911000D01*
X121948895Y-75911000D01*
X121906438Y-75906819D01*
X121871523Y-75896227D01*
X121839335Y-75879022D01*
X121811127Y-75855873D01*
X121787978Y-75827665D01*
X121770773Y-75795477D01*
X121760181Y-75760562D01*
X121756000Y-75718105D01*
X121756000Y-74576895D01*
X121760181Y-74534438D01*
X121770773Y-74499523D01*
X121787978Y-74467335D01*
X121811127Y-74439127D01*
X121839335Y-74415978D01*
X121871523Y-74398773D01*
X121906438Y-74388181D01*
X121948895Y-74384000D01*
X123415105Y-74384000D01*
X123457562Y-74388181D01*
X123457562Y-74388181D01*
G37*
G36*
X108912677Y-73929465D02*
G01*
X108950364Y-73940898D01*
X108985103Y-73959466D01*
X109015548Y-73984452D01*
X109040534Y-74014897D01*
X109059102Y-74049636D01*
X109070535Y-74087323D01*
X109075000Y-74132661D01*
X109075000Y-75219339D01*
X109070535Y-75264677D01*
X109059102Y-75302364D01*
X109040534Y-75337103D01*
X109015548Y-75367548D01*
X108985103Y-75392534D01*
X108950364Y-75411102D01*
X108912677Y-75422535D01*
X108867339Y-75427000D01*
X108030661Y-75427000D01*
X107985323Y-75422535D01*
X107947636Y-75411102D01*
X107912897Y-75392534D01*
X107882452Y-75367548D01*
X107857466Y-75337103D01*
X107838898Y-75302364D01*
X107827465Y-75264677D01*
X107823000Y-75219339D01*
X107823000Y-74132661D01*
X107827465Y-74087323D01*
X107838898Y-74049636D01*
X107857466Y-74014897D01*
X107882452Y-73984452D01*
X107912897Y-73959466D01*
X107947636Y-73940898D01*
X107985323Y-73929465D01*
X108030661Y-73925000D01*
X108867339Y-73925000D01*
X108912677Y-73929465D01*
X108912677Y-73929465D01*
G37*
G36*
X110962677Y-73929465D02*
G01*
X111000364Y-73940898D01*
X111035103Y-73959466D01*
X111065548Y-73984452D01*
X111090534Y-74014897D01*
X111109102Y-74049636D01*
X111120535Y-74087323D01*
X111125000Y-74132661D01*
X111125000Y-75219339D01*
X111120535Y-75264677D01*
X111109102Y-75302364D01*
X111090534Y-75337103D01*
X111065548Y-75367548D01*
X111035103Y-75392534D01*
X111000364Y-75411102D01*
X110962677Y-75422535D01*
X110917339Y-75427000D01*
X110080661Y-75427000D01*
X110035323Y-75422535D01*
X109997636Y-75411102D01*
X109962897Y-75392534D01*
X109932452Y-75367548D01*
X109907466Y-75337103D01*
X109888898Y-75302364D01*
X109877465Y-75264677D01*
X109873000Y-75219339D01*
X109873000Y-74132661D01*
X109877465Y-74087323D01*
X109888898Y-74049636D01*
X109907466Y-74014897D01*
X109932452Y-73984452D01*
X109962897Y-73959466D01*
X109997636Y-73940898D01*
X110035323Y-73929465D01*
X110080661Y-73925000D01*
X110917339Y-73925000D01*
X110962677Y-73929465D01*
X110962677Y-73929465D01*
G37*
G36*
X116296677Y-73929465D02*
G01*
X116334364Y-73940898D01*
X116369103Y-73959466D01*
X116399548Y-73984452D01*
X116424534Y-74014897D01*
X116443102Y-74049636D01*
X116454535Y-74087323D01*
X116459000Y-74132661D01*
X116459000Y-75219339D01*
X116454535Y-75264677D01*
X116443102Y-75302364D01*
X116424534Y-75337103D01*
X116399548Y-75367548D01*
X116369103Y-75392534D01*
X116334364Y-75411102D01*
X116296677Y-75422535D01*
X116251339Y-75427000D01*
X115414661Y-75427000D01*
X115369323Y-75422535D01*
X115331636Y-75411102D01*
X115296897Y-75392534D01*
X115266452Y-75367548D01*
X115241466Y-75337103D01*
X115222898Y-75302364D01*
X115211465Y-75264677D01*
X115207000Y-75219339D01*
X115207000Y-74132661D01*
X115211465Y-74087323D01*
X115222898Y-74049636D01*
X115241466Y-74014897D01*
X115266452Y-73984452D01*
X115296897Y-73959466D01*
X115331636Y-73940898D01*
X115369323Y-73929465D01*
X115414661Y-73925000D01*
X116251339Y-73925000D01*
X116296677Y-73929465D01*
X116296677Y-73929465D01*
G37*
G36*
X114246677Y-73929465D02*
G01*
X114284364Y-73940898D01*
X114319103Y-73959466D01*
X114349548Y-73984452D01*
X114374534Y-74014897D01*
X114393102Y-74049636D01*
X114404535Y-74087323D01*
X114409000Y-74132661D01*
X114409000Y-75219339D01*
X114404535Y-75264677D01*
X114393102Y-75302364D01*
X114374534Y-75337103D01*
X114349548Y-75367548D01*
X114319103Y-75392534D01*
X114284364Y-75411102D01*
X114246677Y-75422535D01*
X114201339Y-75427000D01*
X113364661Y-75427000D01*
X113319323Y-75422535D01*
X113281636Y-75411102D01*
X113246897Y-75392534D01*
X113216452Y-75367548D01*
X113191466Y-75337103D01*
X113172898Y-75302364D01*
X113161465Y-75264677D01*
X113157000Y-75219339D01*
X113157000Y-74132661D01*
X113161465Y-74087323D01*
X113172898Y-74049636D01*
X113191466Y-74014897D01*
X113216452Y-73984452D01*
X113246897Y-73959466D01*
X113281636Y-73940898D01*
X113319323Y-73929465D01*
X113364661Y-73925000D01*
X114201339Y-73925000D01*
X114246677Y-73929465D01*
X114246677Y-73929465D01*
G37*
G36*
X128283562Y-73372181D02*
G01*
X128318477Y-73382773D01*
X128350665Y-73399978D01*
X128378873Y-73423127D01*
X128402022Y-73451335D01*
X128419227Y-73483523D01*
X128429819Y-73518438D01*
X128434000Y-73560895D01*
X128434000Y-74702105D01*
X128429819Y-74744562D01*
X128419227Y-74779477D01*
X128402022Y-74811665D01*
X128378873Y-74839873D01*
X128350665Y-74863022D01*
X128318477Y-74880227D01*
X128283562Y-74890819D01*
X128241105Y-74895000D01*
X126774895Y-74895000D01*
X126732438Y-74890819D01*
X126697523Y-74880227D01*
X126665335Y-74863022D01*
X126637127Y-74839873D01*
X126613978Y-74811665D01*
X126596773Y-74779477D01*
X126586181Y-74744562D01*
X126582000Y-74702105D01*
X126582000Y-73560895D01*
X126586181Y-73518438D01*
X126596773Y-73483523D01*
X126613978Y-73451335D01*
X126637127Y-73423127D01*
X126665335Y-73399978D01*
X126697523Y-73382773D01*
X126732438Y-73372181D01*
X126774895Y-73368000D01*
X128241105Y-73368000D01*
X128283562Y-73372181D01*
X128283562Y-73372181D01*
G37*
G36*
X96454000Y-74855000D02*
G01*
X95052000Y-74855000D01*
X95052000Y-71703000D01*
X96454000Y-71703000D01*
X96454000Y-74855000D01*
X96454000Y-74855000D01*
G37*
G36*
X131652677Y-72539465D02*
G01*
X131690364Y-72550898D01*
X131725103Y-72569466D01*
X131755548Y-72594452D01*
X131780534Y-72624897D01*
X131799102Y-72659636D01*
X131810535Y-72697323D01*
X131815000Y-72742661D01*
X131815000Y-73579339D01*
X131810535Y-73624677D01*
X131799102Y-73662364D01*
X131780534Y-73697103D01*
X131755548Y-73727548D01*
X131725103Y-73752534D01*
X131690364Y-73771102D01*
X131652677Y-73782535D01*
X131607339Y-73787000D01*
X130520661Y-73787000D01*
X130475323Y-73782535D01*
X130437636Y-73771102D01*
X130402897Y-73752534D01*
X130372452Y-73727548D01*
X130347466Y-73697103D01*
X130328898Y-73662364D01*
X130317465Y-73624677D01*
X130313000Y-73579339D01*
X130313000Y-72742661D01*
X130317465Y-72697323D01*
X130328898Y-72659636D01*
X130347466Y-72624897D01*
X130372452Y-72594452D01*
X130402897Y-72569466D01*
X130437636Y-72550898D01*
X130475323Y-72539465D01*
X130520661Y-72535000D01*
X131607339Y-72535000D01*
X131652677Y-72539465D01*
X131652677Y-72539465D01*
G37*
G36*
X123457562Y-71413181D02*
G01*
X123492477Y-71423773D01*
X123524665Y-71440978D01*
X123552873Y-71464127D01*
X123576022Y-71492335D01*
X123593227Y-71524523D01*
X123603819Y-71559438D01*
X123608000Y-71601895D01*
X123608000Y-72743105D01*
X123603819Y-72785562D01*
X123593227Y-72820477D01*
X123576022Y-72852665D01*
X123552873Y-72880873D01*
X123524665Y-72904022D01*
X123492477Y-72921227D01*
X123457562Y-72931819D01*
X123415105Y-72936000D01*
X121948895Y-72936000D01*
X121906438Y-72931819D01*
X121871523Y-72921227D01*
X121839335Y-72904022D01*
X121811127Y-72880873D01*
X121787978Y-72852665D01*
X121770773Y-72820477D01*
X121760181Y-72785562D01*
X121756000Y-72743105D01*
X121756000Y-71601895D01*
X121760181Y-71559438D01*
X121770773Y-71524523D01*
X121787978Y-71492335D01*
X121811127Y-71464127D01*
X121839335Y-71440978D01*
X121871523Y-71423773D01*
X121906438Y-71413181D01*
X121948895Y-71409000D01*
X123415105Y-71409000D01*
X123457562Y-71413181D01*
X123457562Y-71413181D01*
G37*
G36*
X128283562Y-70397181D02*
G01*
X128318477Y-70407773D01*
X128350665Y-70424978D01*
X128378873Y-70448127D01*
X128402022Y-70476335D01*
X128419227Y-70508523D01*
X128429819Y-70543438D01*
X128434000Y-70585895D01*
X128434000Y-71727105D01*
X128429819Y-71769562D01*
X128419227Y-71804477D01*
X128402022Y-71836665D01*
X128378873Y-71864873D01*
X128350665Y-71888022D01*
X128318477Y-71905227D01*
X128283562Y-71915819D01*
X128241105Y-71920000D01*
X126774895Y-71920000D01*
X126732438Y-71915819D01*
X126697523Y-71905227D01*
X126665335Y-71888022D01*
X126637127Y-71864873D01*
X126613978Y-71836665D01*
X126596773Y-71804477D01*
X126586181Y-71769562D01*
X126582000Y-71727105D01*
X126582000Y-70585895D01*
X126586181Y-70543438D01*
X126596773Y-70508523D01*
X126613978Y-70476335D01*
X126637127Y-70448127D01*
X126665335Y-70424978D01*
X126697523Y-70407773D01*
X126732438Y-70397181D01*
X126774895Y-70393000D01*
X128241105Y-70393000D01*
X128283562Y-70397181D01*
X128283562Y-70397181D01*
G37*
G36*
X116541562Y-70324181D02*
G01*
X116576477Y-70334773D01*
X116608665Y-70351978D01*
X116636873Y-70375127D01*
X116660022Y-70403335D01*
X116677227Y-70435523D01*
X116687819Y-70470438D01*
X116692000Y-70512895D01*
X116692000Y-71654105D01*
X116687819Y-71696562D01*
X116677227Y-71731477D01*
X116660022Y-71763665D01*
X116636873Y-71791873D01*
X116608665Y-71815022D01*
X116576477Y-71832227D01*
X116541562Y-71842819D01*
X116499105Y-71847000D01*
X114132895Y-71847000D01*
X114090438Y-71842819D01*
X114055523Y-71832227D01*
X114023335Y-71815022D01*
X113995127Y-71791873D01*
X113971978Y-71763665D01*
X113954773Y-71731477D01*
X113944181Y-71696562D01*
X113940000Y-71654105D01*
X113940000Y-70512895D01*
X113944181Y-70470438D01*
X113954773Y-70435523D01*
X113971978Y-70403335D01*
X113995127Y-70375127D01*
X114023335Y-70351978D01*
X114055523Y-70334773D01*
X114090438Y-70324181D01*
X114132895Y-70320000D01*
X116499105Y-70320000D01*
X116541562Y-70324181D01*
X116541562Y-70324181D01*
G37*
G36*
X120097562Y-70324181D02*
G01*
X120132477Y-70334773D01*
X120164665Y-70351978D01*
X120192873Y-70375127D01*
X120216022Y-70403335D01*
X120233227Y-70435523D01*
X120243819Y-70470438D01*
X120248000Y-70512895D01*
X120248000Y-71654105D01*
X120243819Y-71696562D01*
X120233227Y-71731477D01*
X120216022Y-71763665D01*
X120192873Y-71791873D01*
X120164665Y-71815022D01*
X120132477Y-71832227D01*
X120097562Y-71842819D01*
X120055105Y-71847000D01*
X117688895Y-71847000D01*
X117646438Y-71842819D01*
X117611523Y-71832227D01*
X117579335Y-71815022D01*
X117551127Y-71791873D01*
X117527978Y-71763665D01*
X117510773Y-71731477D01*
X117500181Y-71696562D01*
X117496000Y-71654105D01*
X117496000Y-70512895D01*
X117500181Y-70470438D01*
X117510773Y-70435523D01*
X117527978Y-70403335D01*
X117551127Y-70375127D01*
X117579335Y-70351978D01*
X117611523Y-70334773D01*
X117646438Y-70324181D01*
X117688895Y-70320000D01*
X120055105Y-70320000D01*
X120097562Y-70324181D01*
X120097562Y-70324181D01*
G37*
G36*
X131652677Y-70489465D02*
G01*
X131690364Y-70500898D01*
X131725103Y-70519466D01*
X131755548Y-70544452D01*
X131780534Y-70574897D01*
X131799102Y-70609636D01*
X131810535Y-70647323D01*
X131815000Y-70692661D01*
X131815000Y-71529339D01*
X131810535Y-71574677D01*
X131799102Y-71612364D01*
X131780534Y-71647103D01*
X131755548Y-71677548D01*
X131725103Y-71702534D01*
X131690364Y-71721102D01*
X131652677Y-71732535D01*
X131607339Y-71737000D01*
X130520661Y-71737000D01*
X130475323Y-71732535D01*
X130437636Y-71721102D01*
X130402897Y-71702534D01*
X130372452Y-71677548D01*
X130347466Y-71647103D01*
X130328898Y-71612364D01*
X130317465Y-71574677D01*
X130313000Y-71529339D01*
X130313000Y-70692661D01*
X130317465Y-70647323D01*
X130328898Y-70609636D01*
X130347466Y-70574897D01*
X130372452Y-70544452D01*
X130402897Y-70519466D01*
X130437636Y-70500898D01*
X130475323Y-70489465D01*
X130520661Y-70485000D01*
X131607339Y-70485000D01*
X131652677Y-70489465D01*
X131652677Y-70489465D01*
G37*
G36*
X96130119Y-68789228D02*
G01*
X96130122Y-68789229D01*
X96276399Y-68833601D01*
X96276401Y-68833602D01*
X96411210Y-68905659D01*
X96529369Y-69002631D01*
X96626341Y-69120790D01*
X96698398Y-69255599D01*
X96742772Y-69401881D01*
X96757754Y-69554000D01*
X96742772Y-69706119D01*
X96742771Y-69706122D01*
X96699494Y-69848790D01*
X96698398Y-69852401D01*
X96626341Y-69987210D01*
X96529369Y-70105369D01*
X96411210Y-70202341D01*
X96411208Y-70202342D01*
X96276399Y-70274399D01*
X96219509Y-70291656D01*
X96130119Y-70318772D01*
X96016118Y-70330000D01*
X95389882Y-70330000D01*
X95275881Y-70318772D01*
X95186491Y-70291656D01*
X95129601Y-70274399D01*
X95129599Y-70274398D01*
X95122208Y-70272156D01*
X95113754Y-70268655D01*
X95089721Y-70263877D01*
X95065216Y-70263879D01*
X95041183Y-70268662D01*
X95018545Y-70278041D01*
X94998172Y-70291656D01*
X94980846Y-70308985D01*
X94967234Y-70329361D01*
X94957858Y-70352001D01*
X94953080Y-70376034D01*
X94953082Y-70400539D01*
X94957865Y-70424572D01*
X94967244Y-70447210D01*
X94980850Y-70467571D01*
X94999445Y-70490230D01*
X95029807Y-70527225D01*
X95034300Y-70535631D01*
X95071686Y-70605575D01*
X95071687Y-70605579D01*
X95097475Y-70690587D01*
X95106182Y-70779000D01*
X95097475Y-70867413D01*
X95074710Y-70942456D01*
X95071686Y-70952425D01*
X95029807Y-71030774D01*
X94973448Y-71099448D01*
X94904774Y-71155807D01*
X94826425Y-71197686D01*
X94816456Y-71200710D01*
X94741413Y-71223475D01*
X94675158Y-71230000D01*
X94630842Y-71230000D01*
X94564587Y-71223475D01*
X94489544Y-71200710D01*
X94479575Y-71197686D01*
X94401226Y-71155807D01*
X94332552Y-71099448D01*
X94276193Y-71030774D01*
X94234314Y-70952425D01*
X94231290Y-70942456D01*
X94208525Y-70867413D01*
X94199818Y-70779000D01*
X94208525Y-70690587D01*
X94234313Y-70605579D01*
X94234314Y-70605575D01*
X94276193Y-70527226D01*
X94332552Y-70458552D01*
X94401226Y-70402193D01*
X94479575Y-70360314D01*
X94492719Y-70356327D01*
X94564587Y-70334525D01*
X94630842Y-70328000D01*
X94675158Y-70328000D01*
X94741411Y-70334525D01*
X94776489Y-70345167D01*
X94797524Y-70351547D01*
X94821551Y-70356327D01*
X94846055Y-70356327D01*
X94870089Y-70351547D01*
X94892728Y-70342170D01*
X94913103Y-70328556D01*
X94930430Y-70311230D01*
X94944044Y-70290855D01*
X94953422Y-70268216D01*
X94958203Y-70244183D01*
X94958203Y-70219679D01*
X94953423Y-70195645D01*
X94944046Y-70173006D01*
X94930432Y-70152631D01*
X94913105Y-70135304D01*
X94876632Y-70105370D01*
X94779659Y-69987210D01*
X94707602Y-69852401D01*
X94706507Y-69848790D01*
X94663229Y-69706122D01*
X94663228Y-69706119D01*
X94648246Y-69554000D01*
X94663228Y-69401881D01*
X94707602Y-69255599D01*
X94779659Y-69120790D01*
X94876631Y-69002631D01*
X94994790Y-68905659D01*
X95129599Y-68833602D01*
X95129601Y-68833601D01*
X95275878Y-68789229D01*
X95275881Y-68789228D01*
X95389882Y-68778000D01*
X96016118Y-68778000D01*
X96130119Y-68789228D01*
X96130119Y-68789228D01*
G37*
G36*
X154427734Y-68598732D02*
G01*
X154637202Y-68685496D01*
X154825723Y-68811462D01*
X154986038Y-68971777D01*
X155112004Y-69160298D01*
X155198768Y-69369766D01*
X155243000Y-69592135D01*
X155243000Y-69818865D01*
X155198768Y-70041234D01*
X155112004Y-70250702D01*
X154986038Y-70439223D01*
X154825723Y-70599538D01*
X154637202Y-70725504D01*
X154427734Y-70812268D01*
X154205365Y-70856500D01*
X153978635Y-70856500D01*
X153756266Y-70812268D01*
X153546798Y-70725504D01*
X153358277Y-70599538D01*
X153197962Y-70439223D01*
X153071996Y-70250702D01*
X152985232Y-70041234D01*
X152941000Y-69818865D01*
X152941000Y-69592135D01*
X152985232Y-69369766D01*
X153071996Y-69160298D01*
X153197962Y-68971777D01*
X153358277Y-68811462D01*
X153546798Y-68685496D01*
X153756266Y-68598732D01*
X153978635Y-68554500D01*
X154205365Y-68554500D01*
X154427734Y-68598732D01*
X154427734Y-68598732D01*
G37*
G36*
X92350714Y-68787058D02*
G01*
X92357871Y-68789229D01*
X92468719Y-68822854D01*
X92468721Y-68822855D01*
X92577471Y-68880983D01*
X92672790Y-68959210D01*
X92751017Y-69054529D01*
X92809145Y-69163279D01*
X92844942Y-69281286D01*
X92857028Y-69404000D01*
X92844942Y-69526714D01*
X92844941Y-69526717D01*
X92825097Y-69592136D01*
X92809145Y-69644721D01*
X92751017Y-69753471D01*
X92672790Y-69848790D01*
X92577471Y-69927017D01*
X92577469Y-69927018D01*
X92468719Y-69985146D01*
X92372683Y-70014278D01*
X92350714Y-70020942D01*
X92258747Y-70030000D01*
X91547253Y-70030000D01*
X91455286Y-70020942D01*
X91433317Y-70014278D01*
X91337281Y-69985146D01*
X91228531Y-69927018D01*
X91228529Y-69927017D01*
X91133210Y-69848790D01*
X91054983Y-69753471D01*
X90996855Y-69644721D01*
X90980904Y-69592136D01*
X90961059Y-69526717D01*
X90961058Y-69526714D01*
X90948972Y-69404000D01*
X90961058Y-69281286D01*
X90996855Y-69163279D01*
X91054983Y-69054529D01*
X91133210Y-68959210D01*
X91228529Y-68880983D01*
X91337279Y-68822855D01*
X91337281Y-68822854D01*
X91448129Y-68789229D01*
X91455286Y-68787058D01*
X91547253Y-68778000D01*
X92258747Y-68778000D01*
X92350714Y-68787058D01*
X92350714Y-68787058D01*
G37*
G36*
X128259000Y-69398000D02*
G01*
X126597000Y-69398000D01*
X126597000Y-66746000D01*
X128259000Y-66746000D01*
X128259000Y-69398000D01*
X128259000Y-69398000D01*
G37*
G36*
X130959000Y-69398000D02*
G01*
X129297000Y-69398000D01*
X129297000Y-68646000D01*
X130959000Y-68646000D01*
X130959000Y-69398000D01*
X130959000Y-69398000D01*
G37*
G36*
X156854812Y-67589124D02*
G01*
X157018784Y-67657044D01*
X157166354Y-67755647D01*
X157291853Y-67881146D01*
X157390456Y-68028716D01*
X157458376Y-68192688D01*
X157493000Y-68366759D01*
X157493000Y-68544241D01*
X157458376Y-68718312D01*
X157390456Y-68882284D01*
X157291853Y-69029854D01*
X157166354Y-69155353D01*
X157018784Y-69253956D01*
X156854812Y-69321876D01*
X156680741Y-69356500D01*
X156503259Y-69356500D01*
X156329188Y-69321876D01*
X156165216Y-69253956D01*
X156017646Y-69155353D01*
X155892147Y-69029854D01*
X155793544Y-68882284D01*
X155725624Y-68718312D01*
X155691000Y-68544241D01*
X155691000Y-68366759D01*
X155725624Y-68192688D01*
X155793544Y-68028716D01*
X155892147Y-67881146D01*
X156017646Y-67755647D01*
X156165216Y-67657044D01*
X156329188Y-67589124D01*
X156503259Y-67554500D01*
X156680741Y-67554500D01*
X156854812Y-67589124D01*
X156854812Y-67589124D01*
G37*
G36*
X107456562Y-67150181D02*
G01*
X107491477Y-67160773D01*
X107523665Y-67177978D01*
X107551873Y-67201127D01*
X107575022Y-67229335D01*
X107592227Y-67261523D01*
X107602819Y-67296438D01*
X107607000Y-67338895D01*
X107607000Y-68805105D01*
X107602819Y-68847562D01*
X107592227Y-68882477D01*
X107575022Y-68914665D01*
X107551873Y-68942873D01*
X107523665Y-68966022D01*
X107491477Y-68983227D01*
X107456562Y-68993819D01*
X107414105Y-68998000D01*
X106272895Y-68998000D01*
X106230438Y-68993819D01*
X106195523Y-68983227D01*
X106163335Y-68966022D01*
X106135127Y-68942873D01*
X106111978Y-68914665D01*
X106094773Y-68882477D01*
X106084181Y-68847562D01*
X106080000Y-68805105D01*
X106080000Y-67338895D01*
X106084181Y-67296438D01*
X106094773Y-67261523D01*
X106111978Y-67229335D01*
X106135127Y-67201127D01*
X106163335Y-67177978D01*
X106195523Y-67160773D01*
X106230438Y-67150181D01*
X106272895Y-67146000D01*
X107414105Y-67146000D01*
X107456562Y-67150181D01*
X107456562Y-67150181D01*
G37*
G36*
X110431562Y-67150181D02*
G01*
X110466477Y-67160773D01*
X110498665Y-67177978D01*
X110526873Y-67201127D01*
X110550022Y-67229335D01*
X110567227Y-67261523D01*
X110577819Y-67296438D01*
X110582000Y-67338895D01*
X110582000Y-68805105D01*
X110577819Y-68847562D01*
X110567227Y-68882477D01*
X110550022Y-68914665D01*
X110526873Y-68942873D01*
X110498665Y-68966022D01*
X110466477Y-68983227D01*
X110431562Y-68993819D01*
X110389105Y-68998000D01*
X109247895Y-68998000D01*
X109205438Y-68993819D01*
X109170523Y-68983227D01*
X109138335Y-68966022D01*
X109110127Y-68942873D01*
X109086978Y-68914665D01*
X109069773Y-68882477D01*
X109059181Y-68847562D01*
X109055000Y-68805105D01*
X109055000Y-67338895D01*
X109059181Y-67296438D01*
X109069773Y-67261523D01*
X109086978Y-67229335D01*
X109110127Y-67201127D01*
X109138335Y-67177978D01*
X109170523Y-67160773D01*
X109205438Y-67150181D01*
X109247895Y-67146000D01*
X110389105Y-67146000D01*
X110431562Y-67150181D01*
X110431562Y-67150181D01*
G37*
G36*
X120097562Y-67349181D02*
G01*
X120132477Y-67359773D01*
X120164665Y-67376978D01*
X120192873Y-67400127D01*
X120216022Y-67428335D01*
X120233227Y-67460523D01*
X120243819Y-67495438D01*
X120248000Y-67537895D01*
X120248000Y-68679105D01*
X120243819Y-68721562D01*
X120233227Y-68756477D01*
X120216022Y-68788665D01*
X120192873Y-68816873D01*
X120164665Y-68840022D01*
X120132477Y-68857227D01*
X120097562Y-68867819D01*
X120055105Y-68872000D01*
X117688895Y-68872000D01*
X117646438Y-68867819D01*
X117611523Y-68857227D01*
X117579335Y-68840022D01*
X117551127Y-68816873D01*
X117527978Y-68788665D01*
X117510773Y-68756477D01*
X117500181Y-68721562D01*
X117496000Y-68679105D01*
X117496000Y-67537895D01*
X117500181Y-67495438D01*
X117510773Y-67460523D01*
X117527978Y-67428335D01*
X117551127Y-67400127D01*
X117579335Y-67376978D01*
X117611523Y-67359773D01*
X117646438Y-67349181D01*
X117688895Y-67345000D01*
X120055105Y-67345000D01*
X120097562Y-67349181D01*
X120097562Y-67349181D01*
G37*
G36*
X116541562Y-67349181D02*
G01*
X116576477Y-67359773D01*
X116608665Y-67376978D01*
X116636873Y-67400127D01*
X116660022Y-67428335D01*
X116677227Y-67460523D01*
X116687819Y-67495438D01*
X116692000Y-67537895D01*
X116692000Y-68679105D01*
X116687819Y-68721562D01*
X116677227Y-68756477D01*
X116660022Y-68788665D01*
X116636873Y-68816873D01*
X116608665Y-68840022D01*
X116576477Y-68857227D01*
X116541562Y-68867819D01*
X116499105Y-68872000D01*
X114132895Y-68872000D01*
X114090438Y-68867819D01*
X114055523Y-68857227D01*
X114023335Y-68840022D01*
X113995127Y-68816873D01*
X113971978Y-68788665D01*
X113954773Y-68756477D01*
X113944181Y-68721562D01*
X113940000Y-68679105D01*
X113940000Y-67537895D01*
X113944181Y-67495438D01*
X113954773Y-67460523D01*
X113971978Y-67428335D01*
X113995127Y-67400127D01*
X114023335Y-67376978D01*
X114055523Y-67359773D01*
X114090438Y-67349181D01*
X114132895Y-67345000D01*
X116499105Y-67345000D01*
X116541562Y-67349181D01*
X116541562Y-67349181D01*
G37*
G36*
X102431466Y-67325565D02*
G01*
X102470137Y-67337296D01*
X102505779Y-67356348D01*
X102537017Y-67381983D01*
X102562652Y-67413221D01*
X102581704Y-67448863D01*
X102593435Y-67487534D01*
X102598000Y-67533888D01*
X102598000Y-68610112D01*
X102593435Y-68656466D01*
X102581704Y-68695137D01*
X102562652Y-68730779D01*
X102537017Y-68762017D01*
X102505779Y-68787652D01*
X102470137Y-68806704D01*
X102431466Y-68818435D01*
X102385112Y-68823000D01*
X101733888Y-68823000D01*
X101687534Y-68818435D01*
X101648863Y-68806704D01*
X101613221Y-68787652D01*
X101581983Y-68762017D01*
X101556348Y-68730779D01*
X101537296Y-68695137D01*
X101525565Y-68656466D01*
X101521000Y-68610112D01*
X101521000Y-67533888D01*
X101525565Y-67487534D01*
X101537296Y-67448863D01*
X101556348Y-67413221D01*
X101581983Y-67381983D01*
X101613221Y-67356348D01*
X101648863Y-67337296D01*
X101687534Y-67325565D01*
X101733888Y-67321000D01*
X102385112Y-67321000D01*
X102431466Y-67325565D01*
X102431466Y-67325565D01*
G37*
G36*
X104306466Y-67325565D02*
G01*
X104345137Y-67337296D01*
X104380779Y-67356348D01*
X104412017Y-67381983D01*
X104437652Y-67413221D01*
X104456704Y-67448863D01*
X104468435Y-67487534D01*
X104473000Y-67533888D01*
X104473000Y-68610112D01*
X104468435Y-68656466D01*
X104456704Y-68695137D01*
X104437652Y-68730779D01*
X104412017Y-68762017D01*
X104380779Y-68787652D01*
X104345137Y-68806704D01*
X104306466Y-68818435D01*
X104260112Y-68823000D01*
X103608888Y-68823000D01*
X103562534Y-68818435D01*
X103523863Y-68806704D01*
X103488221Y-68787652D01*
X103456983Y-68762017D01*
X103431348Y-68730779D01*
X103412296Y-68695137D01*
X103400565Y-68656466D01*
X103396000Y-68610112D01*
X103396000Y-67533888D01*
X103400565Y-67487534D01*
X103412296Y-67448863D01*
X103431348Y-67413221D01*
X103456983Y-67381983D01*
X103488221Y-67356348D01*
X103523863Y-67337296D01*
X103562534Y-67325565D01*
X103608888Y-67321000D01*
X104260112Y-67321000D01*
X104306466Y-67325565D01*
X104306466Y-67325565D01*
G37*
G36*
X139485000Y-68619000D02*
G01*
X137883000Y-68619000D01*
X137883000Y-67017000D01*
X139485000Y-67017000D01*
X139485000Y-68619000D01*
X139485000Y-68619000D01*
G37*
G36*
X146461025Y-67028590D02*
G01*
X146612012Y-67074392D01*
X146751165Y-67148770D01*
X146873133Y-67248867D01*
X146973230Y-67370835D01*
X147047608Y-67509988D01*
X147093410Y-67660975D01*
X147108875Y-67818000D01*
X147093410Y-67975025D01*
X147047608Y-68126012D01*
X146973230Y-68265165D01*
X146873133Y-68387133D01*
X146751165Y-68487230D01*
X146612012Y-68561608D01*
X146461025Y-68607410D01*
X146343346Y-68619000D01*
X146264654Y-68619000D01*
X146146975Y-68607410D01*
X145995988Y-68561608D01*
X145856835Y-68487230D01*
X145734867Y-68387133D01*
X145634770Y-68265165D01*
X145560392Y-68126012D01*
X145514590Y-67975025D01*
X145499125Y-67818000D01*
X145514590Y-67660975D01*
X145560392Y-67509988D01*
X145634770Y-67370835D01*
X145734867Y-67248867D01*
X145856835Y-67148770D01*
X145995988Y-67074392D01*
X146146975Y-67028590D01*
X146264654Y-67017000D01*
X146343346Y-67017000D01*
X146461025Y-67028590D01*
X146461025Y-67028590D01*
G37*
G36*
X133176677Y-66443465D02*
G01*
X133214364Y-66454898D01*
X133249103Y-66473466D01*
X133279548Y-66498452D01*
X133304534Y-66528897D01*
X133323102Y-66563636D01*
X133334535Y-66601323D01*
X133339000Y-66646661D01*
X133339000Y-67483339D01*
X133334535Y-67528677D01*
X133323102Y-67566364D01*
X133304534Y-67601103D01*
X133279548Y-67631548D01*
X133249103Y-67656534D01*
X133214364Y-67675102D01*
X133176677Y-67686535D01*
X133131339Y-67691000D01*
X132044661Y-67691000D01*
X131999323Y-67686535D01*
X131961636Y-67675102D01*
X131926897Y-67656534D01*
X131896452Y-67631548D01*
X131871466Y-67601103D01*
X131852898Y-67566364D01*
X131841465Y-67528677D01*
X131837000Y-67483339D01*
X131837000Y-66646661D01*
X131841465Y-66601323D01*
X131852898Y-66563636D01*
X131871466Y-66528897D01*
X131896452Y-66498452D01*
X131926897Y-66473466D01*
X131961636Y-66454898D01*
X131999323Y-66443465D01*
X132044661Y-66439000D01*
X133131339Y-66439000D01*
X133176677Y-66443465D01*
X133176677Y-66443465D01*
G37*
G36*
X130959000Y-67498000D02*
G01*
X129297000Y-67498000D01*
X129297000Y-66746000D01*
X130959000Y-66746000D01*
X130959000Y-67498000D01*
X130959000Y-67498000D01*
G37*
G36*
X97168562Y-65244181D02*
G01*
X97203477Y-65254773D01*
X97235665Y-65271978D01*
X97263873Y-65295127D01*
X97287022Y-65323335D01*
X97304227Y-65355523D01*
X97314819Y-65390438D01*
X97319000Y-65432895D01*
X97319000Y-66574105D01*
X97314819Y-66616562D01*
X97304227Y-66651477D01*
X97287022Y-66683665D01*
X97263873Y-66711873D01*
X97235665Y-66735022D01*
X97203477Y-66752227D01*
X97168562Y-66762819D01*
X97126105Y-66767000D01*
X95659895Y-66767000D01*
X95617438Y-66762819D01*
X95582523Y-66752227D01*
X95550335Y-66735022D01*
X95522127Y-66711873D01*
X95498978Y-66683665D01*
X95481773Y-66651477D01*
X95471181Y-66616562D01*
X95467000Y-66574105D01*
X95467000Y-65432895D01*
X95471181Y-65390438D01*
X95481773Y-65355523D01*
X95498978Y-65323335D01*
X95522127Y-65295127D01*
X95550335Y-65271978D01*
X95582523Y-65254773D01*
X95617438Y-65244181D01*
X95659895Y-65240000D01*
X97126105Y-65240000D01*
X97168562Y-65244181D01*
X97168562Y-65244181D01*
G37*
G36*
X93358562Y-65244181D02*
G01*
X93393477Y-65254773D01*
X93425665Y-65271978D01*
X93453873Y-65295127D01*
X93477022Y-65323335D01*
X93494227Y-65355523D01*
X93504819Y-65390438D01*
X93509000Y-65432895D01*
X93509000Y-66574105D01*
X93504819Y-66616562D01*
X93494227Y-66651477D01*
X93477022Y-66683665D01*
X93453873Y-66711873D01*
X93425665Y-66735022D01*
X93393477Y-66752227D01*
X93358562Y-66762819D01*
X93316105Y-66767000D01*
X91849895Y-66767000D01*
X91807438Y-66762819D01*
X91772523Y-66752227D01*
X91740335Y-66735022D01*
X91712127Y-66711873D01*
X91688978Y-66683665D01*
X91671773Y-66651477D01*
X91661181Y-66616562D01*
X91657000Y-66574105D01*
X91657000Y-65432895D01*
X91661181Y-65390438D01*
X91671773Y-65355523D01*
X91688978Y-65323335D01*
X91712127Y-65295127D01*
X91740335Y-65271978D01*
X91772523Y-65254773D01*
X91807438Y-65244181D01*
X91849895Y-65240000D01*
X93316105Y-65240000D01*
X93358562Y-65244181D01*
X93358562Y-65244181D01*
G37*
G36*
X125556677Y-65173465D02*
G01*
X125594364Y-65184898D01*
X125629103Y-65203466D01*
X125659548Y-65228452D01*
X125684534Y-65258897D01*
X125703102Y-65293636D01*
X125714535Y-65331323D01*
X125719000Y-65376661D01*
X125719000Y-66213339D01*
X125714535Y-66258677D01*
X125703102Y-66296364D01*
X125684534Y-66331103D01*
X125659548Y-66361548D01*
X125629103Y-66386534D01*
X125594364Y-66405102D01*
X125556677Y-66416535D01*
X125511339Y-66421000D01*
X124424661Y-66421000D01*
X124379323Y-66416535D01*
X124341636Y-66405102D01*
X124306897Y-66386534D01*
X124276452Y-66361548D01*
X124251466Y-66331103D01*
X124232898Y-66296364D01*
X124221465Y-66258677D01*
X124217000Y-66213339D01*
X124217000Y-65376661D01*
X124221465Y-65331323D01*
X124232898Y-65293636D01*
X124251466Y-65258897D01*
X124276452Y-65228452D01*
X124306897Y-65203466D01*
X124341636Y-65184898D01*
X124379323Y-65173465D01*
X124424661Y-65169000D01*
X125511339Y-65169000D01*
X125556677Y-65173465D01*
X125556677Y-65173465D01*
G37*
G36*
X106534000Y-65847000D02*
G01*
X102762000Y-65847000D01*
X102762000Y-64855000D01*
X106534000Y-64855000D01*
X106534000Y-65847000D01*
X106534000Y-65847000D01*
G37*
G36*
X133176677Y-64393465D02*
G01*
X133214364Y-64404898D01*
X133249103Y-64423466D01*
X133279548Y-64448452D01*
X133304534Y-64478897D01*
X133323102Y-64513636D01*
X133334535Y-64551323D01*
X133339000Y-64596661D01*
X133339000Y-65433339D01*
X133334535Y-65478677D01*
X133323102Y-65516364D01*
X133304534Y-65551103D01*
X133279548Y-65581548D01*
X133249103Y-65606534D01*
X133214364Y-65625102D01*
X133176677Y-65636535D01*
X133131339Y-65641000D01*
X132044661Y-65641000D01*
X131999323Y-65636535D01*
X131961636Y-65625102D01*
X131926897Y-65606534D01*
X131896452Y-65581548D01*
X131871466Y-65551103D01*
X131852898Y-65516364D01*
X131841465Y-65478677D01*
X131837000Y-65433339D01*
X131837000Y-64596661D01*
X131841465Y-64551323D01*
X131852898Y-64513636D01*
X131871466Y-64478897D01*
X131896452Y-64448452D01*
X131926897Y-64423466D01*
X131961636Y-64404898D01*
X131999323Y-64393465D01*
X132044661Y-64389000D01*
X133131339Y-64389000D01*
X133176677Y-64393465D01*
X133176677Y-64393465D01*
G37*
G36*
X100533466Y-64157565D02*
G01*
X100572137Y-64169296D01*
X100607779Y-64188348D01*
X100639017Y-64213983D01*
X100664652Y-64245221D01*
X100683704Y-64280863D01*
X100695435Y-64319534D01*
X100700000Y-64365888D01*
X100700000Y-65017112D01*
X100695435Y-65063466D01*
X100683704Y-65102137D01*
X100664652Y-65137779D01*
X100639017Y-65169017D01*
X100607779Y-65194652D01*
X100572137Y-65213704D01*
X100533466Y-65225435D01*
X100487112Y-65230000D01*
X99410888Y-65230000D01*
X99364534Y-65225435D01*
X99325863Y-65213704D01*
X99290221Y-65194652D01*
X99258983Y-65169017D01*
X99233348Y-65137779D01*
X99214296Y-65102137D01*
X99202565Y-65063466D01*
X99198000Y-65017112D01*
X99198000Y-64365888D01*
X99202565Y-64319534D01*
X99214296Y-64280863D01*
X99233348Y-64245221D01*
X99258983Y-64213983D01*
X99290221Y-64188348D01*
X99325863Y-64169296D01*
X99364534Y-64157565D01*
X99410888Y-64153000D01*
X100487112Y-64153000D01*
X100533466Y-64157565D01*
X100533466Y-64157565D01*
G37*
G36*
X109106562Y-63466181D02*
G01*
X109141477Y-63476773D01*
X109173665Y-63493978D01*
X109201873Y-63517127D01*
X109225022Y-63545335D01*
X109242227Y-63577523D01*
X109252819Y-63612438D01*
X109257000Y-63654895D01*
X109257000Y-64796105D01*
X109252819Y-64838562D01*
X109242227Y-64873477D01*
X109225022Y-64905665D01*
X109201873Y-64933873D01*
X109173665Y-64957022D01*
X109141477Y-64974227D01*
X109106562Y-64984819D01*
X109064105Y-64989000D01*
X107597895Y-64989000D01*
X107555438Y-64984819D01*
X107520523Y-64974227D01*
X107488335Y-64957022D01*
X107460127Y-64933873D01*
X107436978Y-64905665D01*
X107419773Y-64873477D01*
X107409181Y-64838562D01*
X107405000Y-64796105D01*
X107405000Y-63654895D01*
X107409181Y-63612438D01*
X107419773Y-63577523D01*
X107436978Y-63545335D01*
X107460127Y-63517127D01*
X107488335Y-63493978D01*
X107520523Y-63476773D01*
X107555438Y-63466181D01*
X107597895Y-63462000D01*
X109064105Y-63462000D01*
X109106562Y-63466181D01*
X109106562Y-63466181D01*
G37*
G36*
X156854812Y-63089124D02*
G01*
X157018784Y-63157044D01*
X157166354Y-63255647D01*
X157291853Y-63381146D01*
X157390456Y-63528716D01*
X157458376Y-63692688D01*
X157493000Y-63866759D01*
X157493000Y-64044241D01*
X157458376Y-64218312D01*
X157390456Y-64382284D01*
X157291853Y-64529854D01*
X157166354Y-64655353D01*
X157018784Y-64753956D01*
X156854812Y-64821876D01*
X156680741Y-64856500D01*
X156503259Y-64856500D01*
X156329188Y-64821876D01*
X156165216Y-64753956D01*
X156017646Y-64655353D01*
X155892147Y-64529854D01*
X155793544Y-64382284D01*
X155725624Y-64218312D01*
X155691000Y-64044241D01*
X155691000Y-63866759D01*
X155725624Y-63692688D01*
X155793544Y-63528716D01*
X155892147Y-63381146D01*
X156017646Y-63255647D01*
X156165216Y-63157044D01*
X156329188Y-63089124D01*
X156503259Y-63054500D01*
X156680741Y-63054500D01*
X156854812Y-63089124D01*
X156854812Y-63089124D01*
G37*
G36*
X125556677Y-63123465D02*
G01*
X125594364Y-63134898D01*
X125629103Y-63153466D01*
X125659548Y-63178452D01*
X125684534Y-63208897D01*
X125703102Y-63243636D01*
X125714535Y-63281323D01*
X125719000Y-63326661D01*
X125719000Y-64163339D01*
X125714535Y-64208677D01*
X125703102Y-64246364D01*
X125684534Y-64281103D01*
X125659548Y-64311548D01*
X125629103Y-64336534D01*
X125594364Y-64355102D01*
X125556677Y-64366535D01*
X125511339Y-64371000D01*
X124424661Y-64371000D01*
X124379323Y-64366535D01*
X124341636Y-64355102D01*
X124306897Y-64336534D01*
X124276452Y-64311548D01*
X124251466Y-64281103D01*
X124232898Y-64246364D01*
X124221465Y-64208677D01*
X124217000Y-64163339D01*
X124217000Y-63326661D01*
X124221465Y-63281323D01*
X124232898Y-63243636D01*
X124251466Y-63208897D01*
X124276452Y-63178452D01*
X124306897Y-63153466D01*
X124341636Y-63134898D01*
X124379323Y-63123465D01*
X124424661Y-63119000D01*
X125511339Y-63119000D01*
X125556677Y-63123465D01*
X125556677Y-63123465D01*
G37*
G36*
X154427734Y-61598732D02*
G01*
X154637202Y-61685496D01*
X154825723Y-61811462D01*
X154986038Y-61971777D01*
X155112004Y-62160298D01*
X155198768Y-62369766D01*
X155243000Y-62592135D01*
X155243000Y-62818865D01*
X155198768Y-63041234D01*
X155112004Y-63250702D01*
X154986038Y-63439223D01*
X154825723Y-63599538D01*
X154637202Y-63725504D01*
X154427734Y-63812268D01*
X154205365Y-63856500D01*
X153978635Y-63856500D01*
X153756266Y-63812268D01*
X153546798Y-63725504D01*
X153358277Y-63599538D01*
X153197962Y-63439223D01*
X153071996Y-63250702D01*
X152985232Y-63041234D01*
X152941000Y-62818865D01*
X152941000Y-62592135D01*
X152985232Y-62369766D01*
X153071996Y-62160298D01*
X153197962Y-61971777D01*
X153358277Y-61811462D01*
X153546798Y-61685496D01*
X153756266Y-61598732D01*
X153978635Y-61554500D01*
X154205365Y-61554500D01*
X154427734Y-61598732D01*
X154427734Y-61598732D01*
G37*
G36*
X93358562Y-62269181D02*
G01*
X93393477Y-62279773D01*
X93425665Y-62296978D01*
X93453873Y-62320127D01*
X93477022Y-62348335D01*
X93494227Y-62380523D01*
X93504819Y-62415438D01*
X93509000Y-62457895D01*
X93509000Y-63599105D01*
X93504819Y-63641562D01*
X93494227Y-63676477D01*
X93477022Y-63708665D01*
X93453873Y-63736873D01*
X93425665Y-63760022D01*
X93393477Y-63777227D01*
X93358562Y-63787819D01*
X93316105Y-63792000D01*
X91849895Y-63792000D01*
X91807438Y-63787819D01*
X91772523Y-63777227D01*
X91740335Y-63760022D01*
X91712127Y-63736873D01*
X91688978Y-63708665D01*
X91671773Y-63676477D01*
X91661181Y-63641562D01*
X91657000Y-63599105D01*
X91657000Y-62457895D01*
X91661181Y-62415438D01*
X91671773Y-62380523D01*
X91688978Y-62348335D01*
X91712127Y-62320127D01*
X91740335Y-62296978D01*
X91772523Y-62279773D01*
X91807438Y-62269181D01*
X91849895Y-62265000D01*
X93316105Y-62265000D01*
X93358562Y-62269181D01*
X93358562Y-62269181D01*
G37*
G36*
X97168562Y-62269181D02*
G01*
X97203477Y-62279773D01*
X97235665Y-62296978D01*
X97263873Y-62320127D01*
X97287022Y-62348335D01*
X97304227Y-62380523D01*
X97314819Y-62415438D01*
X97319000Y-62457895D01*
X97319000Y-63599105D01*
X97314819Y-63641562D01*
X97304227Y-63676477D01*
X97287022Y-63708665D01*
X97263873Y-63736873D01*
X97235665Y-63760022D01*
X97203477Y-63777227D01*
X97168562Y-63787819D01*
X97126105Y-63792000D01*
X95659895Y-63792000D01*
X95617438Y-63787819D01*
X95582523Y-63777227D01*
X95550335Y-63760022D01*
X95522127Y-63736873D01*
X95498978Y-63708665D01*
X95481773Y-63676477D01*
X95471181Y-63641562D01*
X95467000Y-63599105D01*
X95467000Y-62457895D01*
X95471181Y-62415438D01*
X95481773Y-62380523D01*
X95498978Y-62348335D01*
X95522127Y-62320127D01*
X95550335Y-62296978D01*
X95582523Y-62279773D01*
X95617438Y-62269181D01*
X95659895Y-62265000D01*
X97126105Y-62265000D01*
X97168562Y-62269181D01*
X97168562Y-62269181D01*
G37*
G36*
X100533466Y-62282565D02*
G01*
X100572137Y-62294296D01*
X100607779Y-62313348D01*
X100639017Y-62338983D01*
X100664652Y-62370221D01*
X100683704Y-62405863D01*
X100695435Y-62444534D01*
X100700000Y-62490888D01*
X100700000Y-63142112D01*
X100695435Y-63188466D01*
X100683704Y-63227137D01*
X100664652Y-63262779D01*
X100639017Y-63294017D01*
X100607779Y-63319652D01*
X100572137Y-63338704D01*
X100533466Y-63350435D01*
X100487112Y-63355000D01*
X99410888Y-63355000D01*
X99364534Y-63350435D01*
X99325863Y-63338704D01*
X99290221Y-63319652D01*
X99258983Y-63294017D01*
X99233348Y-63262779D01*
X99214296Y-63227137D01*
X99202565Y-63188466D01*
X99198000Y-63142112D01*
X99198000Y-62490888D01*
X99202565Y-62444534D01*
X99214296Y-62405863D01*
X99233348Y-62370221D01*
X99258983Y-62338983D01*
X99290221Y-62313348D01*
X99325863Y-62294296D01*
X99364534Y-62282565D01*
X99410888Y-62278000D01*
X100487112Y-62278000D01*
X100533466Y-62282565D01*
X100533466Y-62282565D01*
G37*
G36*
X141404547Y-60838326D02*
G01*
X141508543Y-60869873D01*
X141578157Y-60890990D01*
X141599718Y-60902515D01*
X141738155Y-60976511D01*
X141878396Y-61091604D01*
X141993489Y-61231844D01*
X142033298Y-61306321D01*
X142079010Y-61391842D01*
X142096565Y-61449713D01*
X142131674Y-61565452D01*
X142145000Y-61700756D01*
X142145000Y-62251243D01*
X142131674Y-62386548D01*
X142079010Y-62560157D01*
X141993489Y-62720156D01*
X141878396Y-62860396D01*
X141738156Y-62975489D01*
X141719314Y-62985560D01*
X141578158Y-63061010D01*
X141531551Y-63075148D01*
X141404548Y-63113674D01*
X141224000Y-63131456D01*
X141043453Y-63113674D01*
X140916450Y-63075148D01*
X140869843Y-63061010D01*
X140728687Y-62985560D01*
X140709845Y-62975489D01*
X140569605Y-62860396D01*
X140454512Y-62720156D01*
X140386083Y-62592136D01*
X140368990Y-62560158D01*
X140333916Y-62444534D01*
X140316326Y-62386548D01*
X140303000Y-62251244D01*
X140303000Y-61700757D01*
X140316326Y-61565453D01*
X140368990Y-61391844D01*
X140368990Y-61391843D01*
X140400183Y-61333486D01*
X140454511Y-61231845D01*
X140569604Y-61091604D01*
X140709844Y-60976511D01*
X140790093Y-60933617D01*
X140869842Y-60890990D01*
X140939456Y-60869873D01*
X141043452Y-60838326D01*
X141224000Y-60820544D01*
X141404547Y-60838326D01*
X141404547Y-60838326D01*
G37*
G36*
X146484547Y-60838326D02*
G01*
X146588543Y-60869873D01*
X146658157Y-60890990D01*
X146679718Y-60902515D01*
X146818155Y-60976511D01*
X146958396Y-61091604D01*
X147073489Y-61231844D01*
X147113298Y-61306321D01*
X147159010Y-61391842D01*
X147176565Y-61449713D01*
X147211674Y-61565452D01*
X147225000Y-61700756D01*
X147225000Y-62251243D01*
X147211674Y-62386548D01*
X147159010Y-62560157D01*
X147073489Y-62720156D01*
X146958396Y-62860396D01*
X146818156Y-62975489D01*
X146799314Y-62985560D01*
X146658158Y-63061010D01*
X146611551Y-63075148D01*
X146484548Y-63113674D01*
X146304000Y-63131456D01*
X146123453Y-63113674D01*
X145996450Y-63075148D01*
X145949843Y-63061010D01*
X145808687Y-62985560D01*
X145789845Y-62975489D01*
X145649605Y-62860396D01*
X145534512Y-62720156D01*
X145466083Y-62592136D01*
X145448990Y-62560158D01*
X145413916Y-62444534D01*
X145396326Y-62386548D01*
X145383000Y-62251244D01*
X145383000Y-61700757D01*
X145396326Y-61565453D01*
X145448990Y-61391844D01*
X145448990Y-61391843D01*
X145480183Y-61333486D01*
X145534511Y-61231845D01*
X145649604Y-61091604D01*
X145789844Y-60976511D01*
X145870093Y-60933617D01*
X145949842Y-60890990D01*
X146019456Y-60869873D01*
X146123452Y-60838326D01*
X146304000Y-60820544D01*
X146484547Y-60838326D01*
X146484547Y-60838326D01*
G37*
G36*
X143944547Y-60838326D02*
G01*
X144048543Y-60869873D01*
X144118157Y-60890990D01*
X144139718Y-60902515D01*
X144278155Y-60976511D01*
X144418396Y-61091604D01*
X144533489Y-61231844D01*
X144573298Y-61306321D01*
X144619010Y-61391842D01*
X144636565Y-61449713D01*
X144671674Y-61565452D01*
X144685000Y-61700756D01*
X144685000Y-62251243D01*
X144671674Y-62386548D01*
X144619010Y-62560157D01*
X144533489Y-62720156D01*
X144418396Y-62860396D01*
X144278156Y-62975489D01*
X144259314Y-62985560D01*
X144118158Y-63061010D01*
X144071551Y-63075148D01*
X143944548Y-63113674D01*
X143764000Y-63131456D01*
X143583453Y-63113674D01*
X143456450Y-63075148D01*
X143409843Y-63061010D01*
X143268687Y-62985560D01*
X143249845Y-62975489D01*
X143109605Y-62860396D01*
X142994512Y-62720156D01*
X142926083Y-62592136D01*
X142908990Y-62560158D01*
X142873916Y-62444534D01*
X142856326Y-62386548D01*
X142843000Y-62251244D01*
X142843000Y-61700757D01*
X142856326Y-61565453D01*
X142908990Y-61391844D01*
X142908990Y-61391843D01*
X142940183Y-61333486D01*
X142994511Y-61231845D01*
X143109604Y-61091604D01*
X143249844Y-60976511D01*
X143330093Y-60933617D01*
X143409842Y-60890990D01*
X143479456Y-60869873D01*
X143583452Y-60838326D01*
X143764000Y-60820544D01*
X143944547Y-60838326D01*
X143944547Y-60838326D01*
G37*
G36*
X139463560Y-60828966D02*
G01*
X139496383Y-60838923D01*
X139526632Y-60855092D01*
X139553148Y-60876852D01*
X139574908Y-60903368D01*
X139591077Y-60933617D01*
X139601034Y-60966440D01*
X139605000Y-61006712D01*
X139605000Y-62945288D01*
X139601034Y-62985560D01*
X139591077Y-63018383D01*
X139574908Y-63048632D01*
X139553148Y-63075148D01*
X139526632Y-63096908D01*
X139496383Y-63113077D01*
X139463560Y-63123034D01*
X139423288Y-63127000D01*
X137944712Y-63127000D01*
X137904440Y-63123034D01*
X137871617Y-63113077D01*
X137841368Y-63096908D01*
X137814852Y-63075148D01*
X137793092Y-63048632D01*
X137776923Y-63018383D01*
X137766966Y-62985560D01*
X137763000Y-62945288D01*
X137763000Y-61006712D01*
X137766966Y-60966440D01*
X137776923Y-60933617D01*
X137793092Y-60903368D01*
X137814852Y-60876852D01*
X137841368Y-60855092D01*
X137871617Y-60838923D01*
X137904440Y-60828966D01*
X137944712Y-60825000D01*
X139423288Y-60825000D01*
X139463560Y-60828966D01*
X139463560Y-60828966D01*
G37*
G36*
X109106562Y-60491181D02*
G01*
X109141477Y-60501773D01*
X109173665Y-60518978D01*
X109201873Y-60542127D01*
X109225022Y-60570335D01*
X109242227Y-60602523D01*
X109252819Y-60637438D01*
X109257000Y-60679895D01*
X109257000Y-61821105D01*
X109252819Y-61863562D01*
X109242227Y-61898477D01*
X109225022Y-61930665D01*
X109201873Y-61958873D01*
X109173665Y-61982022D01*
X109141477Y-61999227D01*
X109106562Y-62009819D01*
X109064105Y-62014000D01*
X107597895Y-62014000D01*
X107555438Y-62009819D01*
X107520523Y-61999227D01*
X107488335Y-61982022D01*
X107460127Y-61958873D01*
X107436978Y-61930665D01*
X107419773Y-61898477D01*
X107409181Y-61863562D01*
X107405000Y-61821105D01*
X107405000Y-60679895D01*
X107409181Y-60637438D01*
X107419773Y-60602523D01*
X107436978Y-60570335D01*
X107460127Y-60542127D01*
X107488335Y-60518978D01*
X107520523Y-60501773D01*
X107555438Y-60491181D01*
X107597895Y-60487000D01*
X109064105Y-60487000D01*
X109106562Y-60491181D01*
X109106562Y-60491181D01*
G37*
G36*
X106534000Y-61637000D02*
G01*
X102762000Y-61637000D01*
X102762000Y-60645000D01*
X106534000Y-60645000D01*
X106534000Y-61637000D01*
X106534000Y-61637000D01*
G37*
G36*
X151905562Y-59402181D02*
G01*
X151940477Y-59412773D01*
X151972665Y-59429978D01*
X152000873Y-59453127D01*
X152024022Y-59481335D01*
X152041227Y-59513523D01*
X152051819Y-59548438D01*
X152056000Y-59590895D01*
X152056000Y-60732105D01*
X152051819Y-60774562D01*
X152041227Y-60809477D01*
X152024022Y-60841665D01*
X152000873Y-60869873D01*
X151972665Y-60893022D01*
X151940477Y-60910227D01*
X151905562Y-60920819D01*
X151863105Y-60925000D01*
X150396895Y-60925000D01*
X150354438Y-60920819D01*
X150319523Y-60910227D01*
X150287335Y-60893022D01*
X150259127Y-60869873D01*
X150235978Y-60841665D01*
X150218773Y-60809477D01*
X150208181Y-60774562D01*
X150204000Y-60732105D01*
X150204000Y-59590895D01*
X150208181Y-59548438D01*
X150218773Y-59513523D01*
X150235978Y-59481335D01*
X150259127Y-59453127D01*
X150287335Y-59429978D01*
X150319523Y-59412773D01*
X150354438Y-59402181D01*
X150396895Y-59398000D01*
X151863105Y-59398000D01*
X151905562Y-59402181D01*
X151905562Y-59402181D01*
G37*
G36*
X158842677Y-58943465D02*
G01*
X158880364Y-58954898D01*
X158915103Y-58973466D01*
X158945548Y-58998452D01*
X158970534Y-59028897D01*
X158989102Y-59063636D01*
X159000535Y-59101323D01*
X159005000Y-59146661D01*
X159005000Y-60233339D01*
X159000535Y-60278677D01*
X158989102Y-60316364D01*
X158970534Y-60351103D01*
X158945548Y-60381548D01*
X158915103Y-60406534D01*
X158880364Y-60425102D01*
X158842677Y-60436535D01*
X158797339Y-60441000D01*
X157960661Y-60441000D01*
X157915323Y-60436535D01*
X157877636Y-60425102D01*
X157842897Y-60406534D01*
X157812452Y-60381548D01*
X157787466Y-60351103D01*
X157768898Y-60316364D01*
X157757465Y-60278677D01*
X157753000Y-60233339D01*
X157753000Y-59146661D01*
X157757465Y-59101323D01*
X157768898Y-59063636D01*
X157787466Y-59028897D01*
X157812452Y-58998452D01*
X157842897Y-58973466D01*
X157877636Y-58954898D01*
X157915323Y-58943465D01*
X157960661Y-58939000D01*
X158797339Y-58939000D01*
X158842677Y-58943465D01*
X158842677Y-58943465D01*
G37*
G36*
X156792677Y-58943465D02*
G01*
X156830364Y-58954898D01*
X156865103Y-58973466D01*
X156895548Y-58998452D01*
X156920534Y-59028897D01*
X156939102Y-59063636D01*
X156950535Y-59101323D01*
X156955000Y-59146661D01*
X156955000Y-60233339D01*
X156950535Y-60278677D01*
X156939102Y-60316364D01*
X156920534Y-60351103D01*
X156895548Y-60381548D01*
X156865103Y-60406534D01*
X156830364Y-60425102D01*
X156792677Y-60436535D01*
X156747339Y-60441000D01*
X155910661Y-60441000D01*
X155865323Y-60436535D01*
X155827636Y-60425102D01*
X155792897Y-60406534D01*
X155762452Y-60381548D01*
X155737466Y-60351103D01*
X155718898Y-60316364D01*
X155707465Y-60278677D01*
X155703000Y-60233339D01*
X155703000Y-59146661D01*
X155707465Y-59101323D01*
X155718898Y-59063636D01*
X155737466Y-59028897D01*
X155762452Y-58998452D01*
X155792897Y-58973466D01*
X155827636Y-58954898D01*
X155865323Y-58943465D01*
X155910661Y-58939000D01*
X156747339Y-58939000D01*
X156792677Y-58943465D01*
X156792677Y-58943465D01*
G37*
G36*
X100525562Y-58514181D02*
G01*
X100560477Y-58524773D01*
X100592665Y-58541978D01*
X100620873Y-58565127D01*
X100644022Y-58593335D01*
X100661227Y-58625523D01*
X100671819Y-58660438D01*
X100676000Y-58702895D01*
X100676000Y-60169105D01*
X100671819Y-60211562D01*
X100661227Y-60246477D01*
X100644022Y-60278665D01*
X100620873Y-60306873D01*
X100592665Y-60330022D01*
X100560477Y-60347227D01*
X100525562Y-60357819D01*
X100483105Y-60362000D01*
X99341895Y-60362000D01*
X99299438Y-60357819D01*
X99264523Y-60347227D01*
X99232335Y-60330022D01*
X99204127Y-60306873D01*
X99180978Y-60278665D01*
X99163773Y-60246477D01*
X99153181Y-60211562D01*
X99149000Y-60169105D01*
X99149000Y-58702895D01*
X99153181Y-58660438D01*
X99163773Y-58625523D01*
X99180978Y-58593335D01*
X99204127Y-58565127D01*
X99232335Y-58541978D01*
X99264523Y-58524773D01*
X99299438Y-58514181D01*
X99341895Y-58510000D01*
X100483105Y-58510000D01*
X100525562Y-58514181D01*
X100525562Y-58514181D01*
G37*
G36*
X97550562Y-58514181D02*
G01*
X97585477Y-58524773D01*
X97617665Y-58541978D01*
X97645873Y-58565127D01*
X97669022Y-58593335D01*
X97686227Y-58625523D01*
X97696819Y-58660438D01*
X97701000Y-58702895D01*
X97701000Y-60169105D01*
X97696819Y-60211562D01*
X97686227Y-60246477D01*
X97669022Y-60278665D01*
X97645873Y-60306873D01*
X97617665Y-60330022D01*
X97585477Y-60347227D01*
X97550562Y-60357819D01*
X97508105Y-60362000D01*
X96366895Y-60362000D01*
X96324438Y-60357819D01*
X96289523Y-60347227D01*
X96257335Y-60330022D01*
X96229127Y-60306873D01*
X96205978Y-60278665D01*
X96188773Y-60246477D01*
X96178181Y-60211562D01*
X96174000Y-60169105D01*
X96174000Y-58702895D01*
X96178181Y-58660438D01*
X96188773Y-58625523D01*
X96205978Y-58593335D01*
X96229127Y-58565127D01*
X96257335Y-58541978D01*
X96289523Y-58524773D01*
X96324438Y-58514181D01*
X96366895Y-58510000D01*
X97508105Y-58510000D01*
X97550562Y-58514181D01*
X97550562Y-58514181D01*
G37*
G36*
X118996071Y-55388063D02*
G01*
X119126890Y-55427747D01*
X119192301Y-55447589D01*
X119265760Y-55486854D01*
X119373146Y-55544253D01*
X119373148Y-55544254D01*
X119373147Y-55544254D01*
X119531659Y-55674341D01*
X119661746Y-55832852D01*
X119758411Y-56013698D01*
X119758806Y-56015000D01*
X119817937Y-56209928D01*
X119833000Y-56362868D01*
X119833000Y-58445132D01*
X119817937Y-58598072D01*
X119808536Y-58629061D01*
X119758411Y-58794302D01*
X119661746Y-58975148D01*
X119531659Y-59133659D01*
X119373148Y-59263746D01*
X119192302Y-59360411D01*
X119126891Y-59380253D01*
X118996072Y-59419937D01*
X118792000Y-59440036D01*
X118587929Y-59419937D01*
X118457110Y-59380253D01*
X118391699Y-59360411D01*
X118210853Y-59263746D01*
X118052342Y-59133659D01*
X117922255Y-58975148D01*
X117825590Y-58794302D01*
X117775465Y-58629061D01*
X117766064Y-58598072D01*
X117751001Y-58445132D01*
X117751000Y-56362869D01*
X117766063Y-56209929D01*
X117808686Y-56069420D01*
X117825589Y-56013699D01*
X117922254Y-55832853D01*
X117963820Y-55782205D01*
X118052341Y-55674341D01*
X118210852Y-55544254D01*
X118391698Y-55447589D01*
X118457109Y-55427747D01*
X118587928Y-55388063D01*
X118792000Y-55367964D01*
X118996071Y-55388063D01*
X118996071Y-55388063D01*
G37*
G36*
X114833000Y-59435000D02*
G01*
X112751000Y-59435000D01*
X112751000Y-55373000D01*
X114833000Y-55373000D01*
X114833000Y-59435000D01*
X114833000Y-59435000D01*
G37*
G36*
X151905562Y-56427181D02*
G01*
X151940477Y-56437773D01*
X151972665Y-56454978D01*
X152000873Y-56478127D01*
X152024022Y-56506335D01*
X152041227Y-56538523D01*
X152051819Y-56573438D01*
X152056000Y-56615895D01*
X152056000Y-57757105D01*
X152051819Y-57799562D01*
X152041227Y-57834477D01*
X152024022Y-57866665D01*
X152000873Y-57894873D01*
X151972665Y-57918022D01*
X151940477Y-57935227D01*
X151905562Y-57945819D01*
X151863105Y-57950000D01*
X150396895Y-57950000D01*
X150354438Y-57945819D01*
X150319523Y-57935227D01*
X150287335Y-57918022D01*
X150259127Y-57894873D01*
X150235978Y-57866665D01*
X150218773Y-57834477D01*
X150208181Y-57799562D01*
X150204000Y-57757105D01*
X150204000Y-56615895D01*
X150208181Y-56573438D01*
X150218773Y-56538523D01*
X150235978Y-56506335D01*
X150259127Y-56478127D01*
X150287335Y-56454978D01*
X150319523Y-56437773D01*
X150354438Y-56427181D01*
X150396895Y-56423000D01*
X151863105Y-56423000D01*
X151905562Y-56427181D01*
X151905562Y-56427181D01*
G37*
G36*
X94536693Y-51301859D02*
G01*
X94802437Y-51354719D01*
X95303087Y-51562095D01*
X95490774Y-51687504D01*
X95753663Y-51863161D01*
X96136839Y-52246337D01*
X96136841Y-52246340D01*
X96437905Y-52696913D01*
X96645281Y-53197563D01*
X96682905Y-53386712D01*
X96751000Y-53729049D01*
X96751000Y-54270951D01*
X96715186Y-54451000D01*
X96645281Y-54802437D01*
X96437905Y-55303087D01*
X96147636Y-55737504D01*
X96136839Y-55753663D01*
X95753663Y-56136839D01*
X95753660Y-56136841D01*
X95303087Y-56437905D01*
X94802437Y-56645281D01*
X94573119Y-56690895D01*
X94270951Y-56751000D01*
X93729049Y-56751000D01*
X93426881Y-56690895D01*
X93197563Y-56645281D01*
X92696913Y-56437905D01*
X92246340Y-56136841D01*
X92246337Y-56136839D01*
X91863161Y-55753663D01*
X91852364Y-55737504D01*
X91562095Y-55303087D01*
X91354719Y-54802437D01*
X91284814Y-54451000D01*
X91249000Y-54270951D01*
X91249000Y-53729049D01*
X91317095Y-53386712D01*
X91354719Y-53197563D01*
X91562095Y-52696913D01*
X91863159Y-52246340D01*
X91863161Y-52246337D01*
X92246337Y-51863161D01*
X92509226Y-51687504D01*
X92696913Y-51562095D01*
X93197563Y-51354719D01*
X93463307Y-51301859D01*
X93729049Y-51249000D01*
X94270951Y-51249000D01*
X94536693Y-51301859D01*
X94536693Y-51301859D01*
G37*
G36*
X156536693Y-51301859D02*
G01*
X156802437Y-51354719D01*
X157303087Y-51562095D01*
X157490774Y-51687504D01*
X157753663Y-51863161D01*
X158136839Y-52246337D01*
X158136841Y-52246340D01*
X158437905Y-52696913D01*
X158645281Y-53197563D01*
X158682905Y-53386712D01*
X158751000Y-53729049D01*
X158751000Y-54270951D01*
X158715186Y-54451000D01*
X158645281Y-54802437D01*
X158437905Y-55303087D01*
X158147636Y-55737504D01*
X158136839Y-55753663D01*
X157753663Y-56136839D01*
X157753660Y-56136841D01*
X157303087Y-56437905D01*
X156802437Y-56645281D01*
X156573119Y-56690895D01*
X156270951Y-56751000D01*
X155729049Y-56751000D01*
X155426881Y-56690895D01*
X155197563Y-56645281D01*
X154696913Y-56437905D01*
X154246340Y-56136841D01*
X154246337Y-56136839D01*
X153863161Y-55753663D01*
X153852364Y-55737504D01*
X153562095Y-55303087D01*
X153354719Y-54802437D01*
X153284814Y-54451000D01*
X153249000Y-54270951D01*
X153249000Y-53729049D01*
X153317095Y-53386712D01*
X153354719Y-53197563D01*
X153562095Y-52696913D01*
X153863159Y-52246340D01*
X153863161Y-52246337D01*
X154246337Y-51863161D01*
X154509226Y-51687504D01*
X154696913Y-51562095D01*
X155197563Y-51354719D01*
X155463307Y-51301859D01*
X155729049Y-51249000D01*
X156270951Y-51249000D01*
X156536693Y-51301859D01*
X156536693Y-51301859D01*
G37*
G36*
X103392000Y-56015000D02*
G01*
X101790000Y-56015000D01*
X101790000Y-53713000D01*
X103392000Y-53713000D01*
X103392000Y-56015000D01*
X103392000Y-56015000D01*
G37*
G36*
X109792000Y-56015000D02*
G01*
X108190000Y-56015000D01*
X108190000Y-53713000D01*
X109792000Y-53713000D01*
X109792000Y-56015000D01*
X109792000Y-56015000D01*
G37*
G36*
X138864547Y-53218326D02*
G01*
X138974625Y-53251718D01*
X139038157Y-53270990D01*
X139059718Y-53282515D01*
X139198155Y-53356511D01*
X139338396Y-53471604D01*
X139453489Y-53611844D01*
X139473716Y-53649686D01*
X139539010Y-53771842D01*
X139543417Y-53786371D01*
X139591674Y-53945452D01*
X139605000Y-54080756D01*
X139605000Y-54631243D01*
X139591674Y-54766548D01*
X139539010Y-54940157D01*
X139453489Y-55100156D01*
X139338396Y-55240396D01*
X139198156Y-55355489D01*
X139165395Y-55373000D01*
X139038158Y-55441010D01*
X138991551Y-55455148D01*
X138864548Y-55493674D01*
X138684000Y-55511456D01*
X138503453Y-55493674D01*
X138376450Y-55455148D01*
X138329843Y-55441010D01*
X138202606Y-55373000D01*
X138169845Y-55355489D01*
X138029605Y-55240396D01*
X137914512Y-55100156D01*
X137850763Y-54980891D01*
X137828990Y-54940158D01*
X137787213Y-54802436D01*
X137776326Y-54766548D01*
X137763000Y-54631244D01*
X137763000Y-54080757D01*
X137776326Y-53945453D01*
X137828990Y-53771844D01*
X137828990Y-53771843D01*
X137894285Y-53649686D01*
X137914511Y-53611845D01*
X138029604Y-53471604D01*
X138169844Y-53356511D01*
X138255517Y-53310718D01*
X138329842Y-53270990D01*
X138393374Y-53251718D01*
X138503452Y-53218326D01*
X138684000Y-53200544D01*
X138864547Y-53218326D01*
X138864547Y-53218326D01*
G37*
G36*
X141404547Y-53218326D02*
G01*
X141514625Y-53251718D01*
X141578157Y-53270990D01*
X141599718Y-53282515D01*
X141738155Y-53356511D01*
X141878396Y-53471604D01*
X141993489Y-53611844D01*
X142013716Y-53649686D01*
X142079010Y-53771842D01*
X142083417Y-53786371D01*
X142131674Y-53945452D01*
X142145000Y-54080756D01*
X142145000Y-54631243D01*
X142131674Y-54766548D01*
X142079010Y-54940157D01*
X141993489Y-55100156D01*
X141878396Y-55240396D01*
X141738156Y-55355489D01*
X141705395Y-55373000D01*
X141578158Y-55441010D01*
X141531551Y-55455148D01*
X141404548Y-55493674D01*
X141224000Y-55511456D01*
X141043453Y-55493674D01*
X140916450Y-55455148D01*
X140869843Y-55441010D01*
X140742606Y-55373000D01*
X140709845Y-55355489D01*
X140569605Y-55240396D01*
X140454512Y-55100156D01*
X140390763Y-54980891D01*
X140368990Y-54940158D01*
X140327213Y-54802436D01*
X140316326Y-54766548D01*
X140303000Y-54631244D01*
X140303000Y-54080757D01*
X140316326Y-53945453D01*
X140368990Y-53771844D01*
X140368990Y-53771843D01*
X140434285Y-53649686D01*
X140454511Y-53611845D01*
X140569604Y-53471604D01*
X140709844Y-53356511D01*
X140795517Y-53310718D01*
X140869842Y-53270990D01*
X140933374Y-53251718D01*
X141043452Y-53218326D01*
X141224000Y-53200544D01*
X141404547Y-53218326D01*
X141404547Y-53218326D01*
G37*
G36*
X143944547Y-53218326D02*
G01*
X144054625Y-53251718D01*
X144118157Y-53270990D01*
X144139718Y-53282515D01*
X144278155Y-53356511D01*
X144418396Y-53471604D01*
X144533489Y-53611844D01*
X144553716Y-53649686D01*
X144619010Y-53771842D01*
X144623417Y-53786371D01*
X144671674Y-53945452D01*
X144685000Y-54080756D01*
X144685000Y-54631243D01*
X144671674Y-54766548D01*
X144619010Y-54940157D01*
X144533489Y-55100156D01*
X144418396Y-55240396D01*
X144278156Y-55355489D01*
X144245395Y-55373000D01*
X144118158Y-55441010D01*
X144071551Y-55455148D01*
X143944548Y-55493674D01*
X143764000Y-55511456D01*
X143583453Y-55493674D01*
X143456450Y-55455148D01*
X143409843Y-55441010D01*
X143282606Y-55373000D01*
X143249845Y-55355489D01*
X143109605Y-55240396D01*
X142994512Y-55100156D01*
X142930763Y-54980891D01*
X142908990Y-54940158D01*
X142867213Y-54802436D01*
X142856326Y-54766548D01*
X142843000Y-54631244D01*
X142843000Y-54080757D01*
X142856326Y-53945453D01*
X142908990Y-53771844D01*
X142908990Y-53771843D01*
X142974285Y-53649686D01*
X142994511Y-53611845D01*
X143109604Y-53471604D01*
X143249844Y-53356511D01*
X143335517Y-53310718D01*
X143409842Y-53270990D01*
X143473374Y-53251718D01*
X143583452Y-53218326D01*
X143764000Y-53200544D01*
X143944547Y-53218326D01*
X143944547Y-53218326D01*
G37*
G36*
X146484547Y-53218326D02*
G01*
X146594625Y-53251718D01*
X146658157Y-53270990D01*
X146679718Y-53282515D01*
X146818155Y-53356511D01*
X146958396Y-53471604D01*
X147073489Y-53611844D01*
X147093716Y-53649686D01*
X147159010Y-53771842D01*
X147163417Y-53786371D01*
X147211674Y-53945452D01*
X147225000Y-54080756D01*
X147225000Y-54631243D01*
X147211674Y-54766548D01*
X147159010Y-54940157D01*
X147073489Y-55100156D01*
X146958396Y-55240396D01*
X146818156Y-55355489D01*
X146785395Y-55373000D01*
X146658158Y-55441010D01*
X146611551Y-55455148D01*
X146484548Y-55493674D01*
X146304000Y-55511456D01*
X146123453Y-55493674D01*
X145996450Y-55455148D01*
X145949843Y-55441010D01*
X145822606Y-55373000D01*
X145789845Y-55355489D01*
X145649605Y-55240396D01*
X145534512Y-55100156D01*
X145470763Y-54980891D01*
X145448990Y-54940158D01*
X145407213Y-54802436D01*
X145396326Y-54766548D01*
X145383000Y-54631244D01*
X145383000Y-54080757D01*
X145396326Y-53945453D01*
X145448990Y-53771844D01*
X145448990Y-53771843D01*
X145514285Y-53649686D01*
X145534511Y-53611845D01*
X145649604Y-53471604D01*
X145789844Y-53356511D01*
X145875517Y-53310718D01*
X145949842Y-53270990D01*
X146013374Y-53251718D01*
X146123452Y-53218326D01*
X146304000Y-53200544D01*
X146484547Y-53218326D01*
X146484547Y-53218326D01*
G37*
G36*
X136923560Y-53208966D02*
G01*
X136956383Y-53218923D01*
X136986632Y-53235092D01*
X137013148Y-53256852D01*
X137034908Y-53283368D01*
X137051077Y-53313617D01*
X137061034Y-53346440D01*
X137065000Y-53386712D01*
X137065000Y-55325288D01*
X137061034Y-55365560D01*
X137051077Y-55398383D01*
X137034908Y-55428632D01*
X137013148Y-55455148D01*
X136986632Y-55476908D01*
X136956383Y-55493077D01*
X136923560Y-55503034D01*
X136883288Y-55507000D01*
X135404712Y-55507000D01*
X135364440Y-55503034D01*
X135331617Y-55493077D01*
X135301368Y-55476908D01*
X135274852Y-55455148D01*
X135253092Y-55428632D01*
X135236923Y-55398383D01*
X135226966Y-55365560D01*
X135223000Y-55325288D01*
X135223000Y-53386712D01*
X135226966Y-53346440D01*
X135236923Y-53313617D01*
X135253092Y-53283368D01*
X135274852Y-53256852D01*
X135301368Y-53235092D01*
X135331617Y-53218923D01*
X135364440Y-53208966D01*
X135404712Y-53205000D01*
X136883288Y-53205000D01*
X136923560Y-53208966D01*
X136923560Y-53208966D01*
G37*
G36*
X151718677Y-53235465D02*
G01*
X151756364Y-53246898D01*
X151791103Y-53265466D01*
X151821548Y-53290452D01*
X151846534Y-53320897D01*
X151865102Y-53355636D01*
X151876535Y-53393323D01*
X151881000Y-53438661D01*
X151881000Y-54275339D01*
X151876535Y-54320677D01*
X151865102Y-54358364D01*
X151846534Y-54393103D01*
X151821548Y-54423548D01*
X151791103Y-54448534D01*
X151756364Y-54467102D01*
X151718677Y-54478535D01*
X151673339Y-54483000D01*
X150586661Y-54483000D01*
X150541323Y-54478535D01*
X150503636Y-54467102D01*
X150468897Y-54448534D01*
X150438452Y-54423548D01*
X150413466Y-54393103D01*
X150394898Y-54358364D01*
X150383465Y-54320677D01*
X150379000Y-54275339D01*
X150379000Y-53438661D01*
X150383465Y-53393323D01*
X150394898Y-53355636D01*
X150413466Y-53320897D01*
X150438452Y-53290452D01*
X150468897Y-53265466D01*
X150503636Y-53246898D01*
X150541323Y-53235465D01*
X150586661Y-53231000D01*
X151673339Y-53231000D01*
X151718677Y-53235465D01*
X151718677Y-53235465D01*
G37*
G36*
X151718677Y-51185465D02*
G01*
X151756364Y-51196898D01*
X151791103Y-51215466D01*
X151821548Y-51240452D01*
X151846534Y-51270897D01*
X151865102Y-51305636D01*
X151876535Y-51343323D01*
X151881000Y-51388661D01*
X151881000Y-52225339D01*
X151876535Y-52270677D01*
X151865102Y-52308364D01*
X151846534Y-52343103D01*
X151821548Y-52373548D01*
X151791103Y-52398534D01*
X151756364Y-52417102D01*
X151718677Y-52428535D01*
X151673339Y-52433000D01*
X150586661Y-52433000D01*
X150541323Y-52428535D01*
X150503636Y-52417102D01*
X150468897Y-52398534D01*
X150438452Y-52373548D01*
X150413466Y-52343103D01*
X150394898Y-52308364D01*
X150383465Y-52270677D01*
X150379000Y-52225339D01*
X150379000Y-51388661D01*
X150383465Y-51343323D01*
X150394898Y-51305636D01*
X150413466Y-51270897D01*
X150438452Y-51240452D01*
X150468897Y-51215466D01*
X150503636Y-51196898D01*
X150541323Y-51185465D01*
X150586661Y-51181000D01*
X151673339Y-51181000D01*
X151718677Y-51185465D01*
X151718677Y-51185465D01*
G37*
M02*
