G04 #@! TF.GenerationSoftware,KiCad,Pcbnew,(6.0.0-rc1-dev-1491-g0a4812be0)*
G04 #@! TF.CreationDate,2019-06-06T13:34:42+02:00
G04 #@! TF.ProjectId,datalogger,64617461-6c6f-4676-9765-722e6b696361,v. 1.1*
G04 #@! TF.SameCoordinates,Original*
G04 #@! TF.FileFunction,Copper,L2,Bot*
G04 #@! TF.FilePolarity,Positive*
%FSLAX46Y46*%
G04 Gerber Fmt 4.6, Leading zero omitted, Abs format (unit mm)*
G04 Created by KiCad (PCBNEW (6.0.0-rc1-dev-1491-g0a4812be0)) date 2019-06-06 13:34:42*
%MOMM*%
%LPD*%
G04 APERTURE LIST*
%ADD10O,1.800000X1.070000*%
%ADD11R,1.800000X1.070000*%
%ADD12O,1.800000X1.150000*%
%ADD13O,2.000000X1.450000*%
%ADD14O,1.980000X3.960000*%
%ADD15R,1.980000X3.960000*%
%ADD16O,2.000000X1.700000*%
%ADD17C,0.100000*%
%ADD18C,1.700000*%
%ADD19C,1.500000*%
%ADD20C,2.410000*%
%ADD21C,0.500000*%
%ADD22C,1.225000*%
%ADD23C,2.200000*%
%ADD24O,1.727200X1.727200*%
%ADD25R,1.727200X1.727200*%
%ADD26O,1.740000X2.200000*%
%ADD27C,1.740000*%
%ADD28O,1.700000X1.700000*%
%ADD29R,1.700000X1.700000*%
%ADD30C,0.800000*%
%ADD31C,5.400000*%
%ADD32O,1.500000X1.500000*%
%ADD33R,1.500000X1.500000*%
%ADD34C,1.000000*%
%ADD35C,1.200000*%
%ADD36C,0.279400*%
%ADD37C,0.400000*%
%ADD38C,0.350000*%
%ADD39C,0.800000*%
%ADD40C,0.600000*%
%ADD41C,0.254000*%
G04 APERTURE END LIST*
D10*
X126746000Y-116840000D03*
D11*
X126746000Y-115570000D03*
D10*
X126746000Y-114300000D03*
X126746000Y-113030000D03*
D12*
X91903000Y-77154000D03*
X91903000Y-69404000D03*
D13*
X95703000Y-77004000D03*
X95703000Y-69554000D03*
D14*
X118792000Y-57404000D03*
D15*
X113792000Y-57404000D03*
D16*
X99822000Y-85558000D03*
D17*
G36*
X100596504Y-82209204D02*
G01*
X100620773Y-82212804D01*
X100644571Y-82218765D01*
X100667671Y-82227030D01*
X100689849Y-82237520D01*
X100710893Y-82250133D01*
X100730598Y-82264747D01*
X100748777Y-82281223D01*
X100765253Y-82299402D01*
X100779867Y-82319107D01*
X100792480Y-82340151D01*
X100802970Y-82362329D01*
X100811235Y-82385429D01*
X100817196Y-82409227D01*
X100820796Y-82433496D01*
X100822000Y-82458000D01*
X100822000Y-83658000D01*
X100820796Y-83682504D01*
X100817196Y-83706773D01*
X100811235Y-83730571D01*
X100802970Y-83753671D01*
X100792480Y-83775849D01*
X100779867Y-83796893D01*
X100765253Y-83816598D01*
X100748777Y-83834777D01*
X100730598Y-83851253D01*
X100710893Y-83865867D01*
X100689849Y-83878480D01*
X100667671Y-83888970D01*
X100644571Y-83897235D01*
X100620773Y-83903196D01*
X100596504Y-83906796D01*
X100572000Y-83908000D01*
X99072000Y-83908000D01*
X99047496Y-83906796D01*
X99023227Y-83903196D01*
X98999429Y-83897235D01*
X98976329Y-83888970D01*
X98954151Y-83878480D01*
X98933107Y-83865867D01*
X98913402Y-83851253D01*
X98895223Y-83834777D01*
X98878747Y-83816598D01*
X98864133Y-83796893D01*
X98851520Y-83775849D01*
X98841030Y-83753671D01*
X98832765Y-83730571D01*
X98826804Y-83706773D01*
X98823204Y-83682504D01*
X98822000Y-83658000D01*
X98822000Y-82458000D01*
X98823204Y-82433496D01*
X98826804Y-82409227D01*
X98832765Y-82385429D01*
X98841030Y-82362329D01*
X98851520Y-82340151D01*
X98864133Y-82319107D01*
X98878747Y-82299402D01*
X98895223Y-82281223D01*
X98913402Y-82264747D01*
X98933107Y-82250133D01*
X98954151Y-82237520D01*
X98976329Y-82227030D01*
X98999429Y-82218765D01*
X99023227Y-82212804D01*
X99047496Y-82209204D01*
X99072000Y-82208000D01*
X100572000Y-82208000D01*
X100596504Y-82209204D01*
X100596504Y-82209204D01*
G37*
D18*
X99822000Y-83058000D03*
D19*
X98361500Y-97272500D03*
X98361500Y-92392500D03*
X107134000Y-113030000D03*
X112014000Y-113030000D03*
D17*
G36*
X112322506Y-79441204D02*
G01*
X112346774Y-79444804D01*
X112370573Y-79450765D01*
X112393672Y-79459030D01*
X112415850Y-79469519D01*
X112436893Y-79482132D01*
X112456599Y-79496747D01*
X112474777Y-79513223D01*
X112491253Y-79531401D01*
X112505868Y-79551107D01*
X112518481Y-79572150D01*
X112528970Y-79594328D01*
X112537235Y-79617427D01*
X112543196Y-79641226D01*
X112546796Y-79665494D01*
X112548000Y-79689998D01*
X112548000Y-81600002D01*
X112546796Y-81624506D01*
X112543196Y-81648774D01*
X112537235Y-81672573D01*
X112528970Y-81695672D01*
X112518481Y-81717850D01*
X112505868Y-81738893D01*
X112491253Y-81758599D01*
X112474777Y-81776777D01*
X112456599Y-81793253D01*
X112436893Y-81807868D01*
X112415850Y-81820481D01*
X112393672Y-81830970D01*
X112370573Y-81839235D01*
X112346774Y-81845196D01*
X112322506Y-81848796D01*
X112298002Y-81850000D01*
X109697998Y-81850000D01*
X109673494Y-81848796D01*
X109649226Y-81845196D01*
X109625427Y-81839235D01*
X109602328Y-81830970D01*
X109580150Y-81820481D01*
X109559107Y-81807868D01*
X109539401Y-81793253D01*
X109521223Y-81776777D01*
X109504747Y-81758599D01*
X109490132Y-81738893D01*
X109477519Y-81717850D01*
X109467030Y-81695672D01*
X109458765Y-81672573D01*
X109452804Y-81648774D01*
X109449204Y-81624506D01*
X109448000Y-81600002D01*
X109448000Y-79689998D01*
X109449204Y-79665494D01*
X109452804Y-79641226D01*
X109458765Y-79617427D01*
X109467030Y-79594328D01*
X109477519Y-79572150D01*
X109490132Y-79551107D01*
X109504747Y-79531401D01*
X109521223Y-79513223D01*
X109539401Y-79496747D01*
X109559107Y-79482132D01*
X109580150Y-79469519D01*
X109602328Y-79459030D01*
X109625427Y-79450765D01*
X109649226Y-79444804D01*
X109673494Y-79441204D01*
X109697998Y-79440000D01*
X112298002Y-79440000D01*
X112322506Y-79441204D01*
X112322506Y-79441204D01*
G37*
D20*
X110998000Y-80645000D03*
D21*
X112298000Y-79690000D03*
X112298000Y-81600000D03*
X110998000Y-79690000D03*
X110998000Y-81600000D03*
X109698000Y-79690000D03*
X109698000Y-81600000D03*
D17*
G36*
X105962504Y-88050204D02*
G01*
X105986773Y-88053804D01*
X106010571Y-88059765D01*
X106033671Y-88068030D01*
X106055849Y-88078520D01*
X106076893Y-88091133D01*
X106096598Y-88105747D01*
X106114777Y-88122223D01*
X106131253Y-88140402D01*
X106145867Y-88160107D01*
X106158480Y-88181151D01*
X106168970Y-88203329D01*
X106177235Y-88226429D01*
X106183196Y-88250227D01*
X106186796Y-88274496D01*
X106188000Y-88299000D01*
X106188000Y-92549000D01*
X106186796Y-92573504D01*
X106183196Y-92597773D01*
X106177235Y-92621571D01*
X106168970Y-92644671D01*
X106158480Y-92666849D01*
X106145867Y-92687893D01*
X106131253Y-92707598D01*
X106114777Y-92725777D01*
X106096598Y-92742253D01*
X106076893Y-92756867D01*
X106055849Y-92769480D01*
X106033671Y-92779970D01*
X106010571Y-92788235D01*
X105986773Y-92794196D01*
X105962504Y-92797796D01*
X105938000Y-92799000D01*
X105213000Y-92799000D01*
X105188496Y-92797796D01*
X105164227Y-92794196D01*
X105140429Y-92788235D01*
X105117329Y-92779970D01*
X105095151Y-92769480D01*
X105074107Y-92756867D01*
X105054402Y-92742253D01*
X105036223Y-92725777D01*
X105019747Y-92707598D01*
X105005133Y-92687893D01*
X104992520Y-92666849D01*
X104982030Y-92644671D01*
X104973765Y-92621571D01*
X104967804Y-92597773D01*
X104964204Y-92573504D01*
X104963000Y-92549000D01*
X104963000Y-88299000D01*
X104964204Y-88274496D01*
X104967804Y-88250227D01*
X104973765Y-88226429D01*
X104982030Y-88203329D01*
X104992520Y-88181151D01*
X105005133Y-88160107D01*
X105019747Y-88140402D01*
X105036223Y-88122223D01*
X105054402Y-88105747D01*
X105074107Y-88091133D01*
X105095151Y-88078520D01*
X105117329Y-88068030D01*
X105140429Y-88059765D01*
X105164227Y-88053804D01*
X105188496Y-88050204D01*
X105213000Y-88049000D01*
X105938000Y-88049000D01*
X105962504Y-88050204D01*
X105962504Y-88050204D01*
G37*
D22*
X105575500Y-90424000D03*
D17*
G36*
X102837504Y-88050204D02*
G01*
X102861773Y-88053804D01*
X102885571Y-88059765D01*
X102908671Y-88068030D01*
X102930849Y-88078520D01*
X102951893Y-88091133D01*
X102971598Y-88105747D01*
X102989777Y-88122223D01*
X103006253Y-88140402D01*
X103020867Y-88160107D01*
X103033480Y-88181151D01*
X103043970Y-88203329D01*
X103052235Y-88226429D01*
X103058196Y-88250227D01*
X103061796Y-88274496D01*
X103063000Y-88299000D01*
X103063000Y-92549000D01*
X103061796Y-92573504D01*
X103058196Y-92597773D01*
X103052235Y-92621571D01*
X103043970Y-92644671D01*
X103033480Y-92666849D01*
X103020867Y-92687893D01*
X103006253Y-92707598D01*
X102989777Y-92725777D01*
X102971598Y-92742253D01*
X102951893Y-92756867D01*
X102930849Y-92769480D01*
X102908671Y-92779970D01*
X102885571Y-92788235D01*
X102861773Y-92794196D01*
X102837504Y-92797796D01*
X102813000Y-92799000D01*
X102088000Y-92799000D01*
X102063496Y-92797796D01*
X102039227Y-92794196D01*
X102015429Y-92788235D01*
X101992329Y-92779970D01*
X101970151Y-92769480D01*
X101949107Y-92756867D01*
X101929402Y-92742253D01*
X101911223Y-92725777D01*
X101894747Y-92707598D01*
X101880133Y-92687893D01*
X101867520Y-92666849D01*
X101857030Y-92644671D01*
X101848765Y-92621571D01*
X101842804Y-92597773D01*
X101839204Y-92573504D01*
X101838000Y-92549000D01*
X101838000Y-88299000D01*
X101839204Y-88274496D01*
X101842804Y-88250227D01*
X101848765Y-88226429D01*
X101857030Y-88203329D01*
X101867520Y-88181151D01*
X101880133Y-88160107D01*
X101894747Y-88140402D01*
X101911223Y-88122223D01*
X101929402Y-88105747D01*
X101949107Y-88091133D01*
X101970151Y-88078520D01*
X101992329Y-88068030D01*
X102015429Y-88059765D01*
X102039227Y-88053804D01*
X102063496Y-88050204D01*
X102088000Y-88049000D01*
X102813000Y-88049000D01*
X102837504Y-88050204D01*
X102837504Y-88050204D01*
G37*
D22*
X102450500Y-90424000D03*
D18*
X156592000Y-63955500D03*
X156592000Y-68455500D03*
D23*
X154092000Y-62705500D03*
X154092000Y-69705500D03*
D24*
X136398000Y-115951000D03*
X136398000Y-113411000D03*
X138938000Y-115951000D03*
X138938000Y-113411000D03*
X141478000Y-115951000D03*
D25*
X141478000Y-113411000D03*
D26*
X146304000Y-61976000D03*
X143764000Y-61976000D03*
X141224000Y-61976000D03*
D17*
G36*
X139328505Y-60877204D02*
G01*
X139352773Y-60880804D01*
X139376572Y-60886765D01*
X139399671Y-60895030D01*
X139421850Y-60905520D01*
X139442893Y-60918132D01*
X139462599Y-60932747D01*
X139480777Y-60949223D01*
X139497253Y-60967401D01*
X139511868Y-60987107D01*
X139524480Y-61008150D01*
X139534970Y-61030329D01*
X139543235Y-61053428D01*
X139549196Y-61077227D01*
X139552796Y-61101495D01*
X139554000Y-61125999D01*
X139554000Y-62826001D01*
X139552796Y-62850505D01*
X139549196Y-62874773D01*
X139543235Y-62898572D01*
X139534970Y-62921671D01*
X139524480Y-62943850D01*
X139511868Y-62964893D01*
X139497253Y-62984599D01*
X139480777Y-63002777D01*
X139462599Y-63019253D01*
X139442893Y-63033868D01*
X139421850Y-63046480D01*
X139399671Y-63056970D01*
X139376572Y-63065235D01*
X139352773Y-63071196D01*
X139328505Y-63074796D01*
X139304001Y-63076000D01*
X138063999Y-63076000D01*
X138039495Y-63074796D01*
X138015227Y-63071196D01*
X137991428Y-63065235D01*
X137968329Y-63056970D01*
X137946150Y-63046480D01*
X137925107Y-63033868D01*
X137905401Y-63019253D01*
X137887223Y-63002777D01*
X137870747Y-62984599D01*
X137856132Y-62964893D01*
X137843520Y-62943850D01*
X137833030Y-62921671D01*
X137824765Y-62898572D01*
X137818804Y-62874773D01*
X137815204Y-62850505D01*
X137814000Y-62826001D01*
X137814000Y-61125999D01*
X137815204Y-61101495D01*
X137818804Y-61077227D01*
X137824765Y-61053428D01*
X137833030Y-61030329D01*
X137843520Y-61008150D01*
X137856132Y-60987107D01*
X137870747Y-60967401D01*
X137887223Y-60949223D01*
X137905401Y-60932747D01*
X137925107Y-60918132D01*
X137946150Y-60905520D01*
X137968329Y-60895030D01*
X137991428Y-60886765D01*
X138015227Y-60880804D01*
X138039495Y-60877204D01*
X138063999Y-60876000D01*
X139304001Y-60876000D01*
X139328505Y-60877204D01*
X139328505Y-60877204D01*
G37*
D27*
X138684000Y-61976000D03*
D26*
X146304000Y-54356000D03*
X143764000Y-54356000D03*
X141224000Y-54356000D03*
X138684000Y-54356000D03*
D17*
G36*
X136788505Y-53257204D02*
G01*
X136812773Y-53260804D01*
X136836572Y-53266765D01*
X136859671Y-53275030D01*
X136881850Y-53285520D01*
X136902893Y-53298132D01*
X136922599Y-53312747D01*
X136940777Y-53329223D01*
X136957253Y-53347401D01*
X136971868Y-53367107D01*
X136984480Y-53388150D01*
X136994970Y-53410329D01*
X137003235Y-53433428D01*
X137009196Y-53457227D01*
X137012796Y-53481495D01*
X137014000Y-53505999D01*
X137014000Y-55206001D01*
X137012796Y-55230505D01*
X137009196Y-55254773D01*
X137003235Y-55278572D01*
X136994970Y-55301671D01*
X136984480Y-55323850D01*
X136971868Y-55344893D01*
X136957253Y-55364599D01*
X136940777Y-55382777D01*
X136922599Y-55399253D01*
X136902893Y-55413868D01*
X136881850Y-55426480D01*
X136859671Y-55436970D01*
X136836572Y-55445235D01*
X136812773Y-55451196D01*
X136788505Y-55454796D01*
X136764001Y-55456000D01*
X135523999Y-55456000D01*
X135499495Y-55454796D01*
X135475227Y-55451196D01*
X135451428Y-55445235D01*
X135428329Y-55436970D01*
X135406150Y-55426480D01*
X135385107Y-55413868D01*
X135365401Y-55399253D01*
X135347223Y-55382777D01*
X135330747Y-55364599D01*
X135316132Y-55344893D01*
X135303520Y-55323850D01*
X135293030Y-55301671D01*
X135284765Y-55278572D01*
X135278804Y-55254773D01*
X135275204Y-55230505D01*
X135274000Y-55206001D01*
X135274000Y-53505999D01*
X135275204Y-53481495D01*
X135278804Y-53457227D01*
X135284765Y-53433428D01*
X135293030Y-53410329D01*
X135303520Y-53388150D01*
X135316132Y-53367107D01*
X135330747Y-53347401D01*
X135347223Y-53329223D01*
X135365401Y-53312747D01*
X135385107Y-53298132D01*
X135406150Y-53285520D01*
X135428329Y-53275030D01*
X135451428Y-53266765D01*
X135475227Y-53260804D01*
X135499495Y-53257204D01*
X135523999Y-53256000D01*
X136764001Y-53256000D01*
X136788505Y-53257204D01*
X136788505Y-53257204D01*
G37*
D27*
X136144000Y-54356000D03*
D28*
X121700000Y-95000000D03*
X119160000Y-95000000D03*
X116620000Y-95000000D03*
X114080000Y-95000000D03*
X111540000Y-95000000D03*
D29*
X109000000Y-95000000D03*
D30*
X94776891Y-114568109D03*
X93345000Y-113975000D03*
X91913109Y-114568109D03*
X91320000Y-116000000D03*
X91913109Y-117431891D03*
X93345000Y-118025000D03*
X94776891Y-117431891D03*
X95370000Y-116000000D03*
D31*
X93345000Y-116000000D03*
D30*
X157431891Y-52568109D03*
X156000000Y-51975000D03*
X154568109Y-52568109D03*
X153975000Y-54000000D03*
X154568109Y-55431891D03*
X156000000Y-56025000D03*
X157431891Y-55431891D03*
X158025000Y-54000000D03*
D31*
X156000000Y-54000000D03*
D30*
X157431891Y-114568109D03*
X156000000Y-113975000D03*
X154568109Y-114568109D03*
X153975000Y-116000000D03*
X154568109Y-117431891D03*
X156000000Y-118025000D03*
X157431891Y-117431891D03*
X158025000Y-116000000D03*
D31*
X156000000Y-116000000D03*
D30*
X95431891Y-52568109D03*
X94000000Y-51975000D03*
X92568109Y-52568109D03*
X91975000Y-54000000D03*
X92568109Y-55431891D03*
X94000000Y-56025000D03*
X95431891Y-55431891D03*
X96025000Y-54000000D03*
D31*
X94000000Y-54000000D03*
D32*
X146304000Y-67818000D03*
D33*
X138684000Y-67818000D03*
D30*
X116586000Y-104140000D03*
X117602000Y-104394000D03*
D34*
X131826000Y-99822000D03*
X107696001Y-103505001D03*
X102933500Y-112648988D03*
D30*
X95757988Y-112648988D03*
X99338400Y-106450000D03*
X125326710Y-96977200D03*
X118377300Y-101111600D03*
X127889000Y-101111600D03*
X115207300Y-101124800D03*
X115570004Y-97917000D03*
X119676400Y-98134700D03*
X137576000Y-87989700D03*
D35*
X101981000Y-59436000D03*
X112082500Y-66040000D03*
D34*
X118364000Y-84201000D03*
D30*
X131446000Y-109114000D03*
D34*
X120000000Y-82500000D03*
X120000000Y-80000000D03*
X122000000Y-81000000D03*
X150000000Y-83000000D03*
X152000000Y-83000000D03*
X154000000Y-83000000D03*
X151000000Y-85000000D03*
X153000000Y-85000000D03*
X155000000Y-85000000D03*
X152000000Y-87000000D03*
X154000000Y-87000000D03*
X150000000Y-87000000D03*
X149000000Y-85000000D03*
X92158400Y-106000000D03*
X94000000Y-106000000D03*
X94000000Y-104000000D03*
X92158400Y-104000000D03*
X92158400Y-102000000D03*
X94000000Y-102000000D03*
X94000000Y-100000000D03*
X92158400Y-100000000D03*
X104521000Y-63246000D03*
X113284000Y-62230000D03*
X114554000Y-62230000D03*
X115824000Y-62230000D03*
X117094000Y-62230000D03*
X118364000Y-62230000D03*
X119634000Y-62230000D03*
X118872000Y-63246000D03*
X117602000Y-63246000D03*
X116332000Y-63246000D03*
X115062000Y-63246000D03*
X113792000Y-63246000D03*
X113792000Y-61214000D03*
X115062000Y-61214000D03*
X116332000Y-61214000D03*
X117602000Y-61214000D03*
X118872000Y-61214000D03*
X115316000Y-52324000D03*
X116332000Y-51562000D03*
X117348000Y-52324000D03*
X118364000Y-51562000D03*
X119380000Y-52324000D03*
X120396000Y-51562000D03*
X121412000Y-52324000D03*
X120396000Y-53086000D03*
X118364000Y-53086000D03*
X116332000Y-53086000D03*
X114300000Y-53086000D03*
X114300000Y-51562000D03*
X113284000Y-52324000D03*
X140843000Y-83439000D03*
D30*
X135182000Y-104902000D03*
X117932200Y-102740200D03*
X109390399Y-71628001D03*
X114300002Y-83566002D03*
D34*
X107442000Y-86587800D03*
D30*
X143337000Y-101514500D03*
X134593200Y-106450000D03*
X115806800Y-106184800D03*
D36*
X130988100Y-115570000D02*
X134813400Y-115570000D01*
X134813400Y-115570000D02*
X135194400Y-115951000D01*
X126746000Y-115570000D02*
X130988100Y-115570000D01*
X136398000Y-115951000D02*
X135194400Y-115951000D01*
X138684000Y-54356000D02*
X139894000Y-54356000D01*
X141224000Y-61976000D02*
X140014000Y-61976000D01*
X139894000Y-54356000D02*
X140014000Y-54476000D01*
X140014000Y-54476000D02*
X140014000Y-61976000D01*
X137601600Y-115951000D02*
X137601600Y-115482100D01*
X137601600Y-115482100D02*
X138464100Y-114619600D01*
X138464100Y-114619600D02*
X150635500Y-114619600D01*
X150635500Y-114619600D02*
X150880500Y-114864600D01*
X150880500Y-114864600D02*
X153975000Y-114864600D01*
X136398000Y-115951000D02*
X137601600Y-115951000D01*
X154568100Y-114568100D02*
X154271600Y-114864600D01*
X154271600Y-114864600D02*
X153975000Y-114864600D01*
X153975000Y-114864600D02*
X153975000Y-116000000D01*
X94776900Y-115406900D02*
X94776900Y-114568100D01*
X95370000Y-116000000D02*
X94776900Y-115406900D01*
X93345000Y-116000000D02*
X94183800Y-116000000D01*
X94183800Y-116000000D02*
X94776900Y-115406900D01*
X157431900Y-52568100D02*
X158025000Y-53161200D01*
X158025000Y-53161200D02*
X158025000Y-54000000D01*
X157431900Y-114568100D02*
X158025000Y-115161200D01*
X158025000Y-115161200D02*
X158025000Y-116000000D01*
X96025000Y-54000000D02*
X95431900Y-54593100D01*
X95431900Y-54593100D02*
X95431900Y-55431900D01*
X95370000Y-116000000D02*
X94776900Y-116593100D01*
X94776900Y-116593100D02*
X94776900Y-117431900D01*
X92568100Y-55431900D02*
X91975000Y-54838800D01*
X91975000Y-54838800D02*
X91975000Y-54000000D01*
X91320000Y-116000000D02*
X91913100Y-115406900D01*
X91913100Y-115406900D02*
X91913100Y-114568100D01*
X91913100Y-117431900D02*
X91320000Y-116838800D01*
X91320000Y-116838800D02*
X91320000Y-116000000D01*
X156592000Y-68455500D02*
X155379600Y-67243100D01*
X155379600Y-67243100D02*
X155379600Y-63484900D01*
X155379600Y-63484900D02*
X156000000Y-62864500D01*
X156000000Y-62864500D02*
X156000000Y-56025000D01*
X158025000Y-54000000D02*
X157431900Y-54593100D01*
X157431900Y-54593100D02*
X157431900Y-55431900D01*
X158025000Y-116000000D02*
X157431900Y-116593100D01*
X157431900Y-116593100D02*
X157431900Y-117431900D01*
X101981000Y-90424000D02*
X102489000Y-90424000D01*
X97043000Y-85486000D02*
X101981000Y-90424000D01*
X95703000Y-77004000D02*
X97043000Y-77004000D01*
X97043000Y-77004000D02*
X97043000Y-85486000D01*
D37*
X138684000Y-67818000D02*
X138684000Y-61976000D01*
D36*
X138684000Y-68363000D02*
X138684000Y-67818000D01*
D37*
X138684000Y-68363000D02*
X138684000Y-68908000D01*
X138684000Y-68908000D02*
X114080000Y-93512000D01*
X114080000Y-93512000D02*
X114080000Y-95000000D01*
D38*
X107696001Y-101383999D02*
X107696001Y-102797895D01*
X114080000Y-95000000D02*
X107696001Y-101383999D01*
X107696001Y-102797895D02*
X107696001Y-103505001D01*
D37*
X95757988Y-112648988D02*
X95757988Y-112648988D01*
X95757988Y-112648988D02*
X102933500Y-112648988D01*
D36*
X121700000Y-95000000D02*
X121700000Y-96190000D01*
X99314400Y-106426000D02*
X99338400Y-106450000D01*
X120345000Y-96190000D02*
X118491000Y-98044000D01*
X121700000Y-96190000D02*
X120345000Y-96190000D01*
X118491000Y-98044000D02*
X118491000Y-99930000D01*
X118491000Y-99930000D02*
X113646000Y-104775000D01*
X113646000Y-104775000D02*
X113646000Y-106426000D01*
X113646000Y-106426000D02*
X99314400Y-106426000D01*
X124926711Y-96577201D02*
X125326710Y-96977200D01*
X124539510Y-96190000D02*
X124926711Y-96577201D01*
X121700000Y-96190000D02*
X124539510Y-96190000D01*
X136398000Y-101111600D02*
X127889000Y-101111600D01*
X146304000Y-68908000D02*
X146304000Y-91205600D01*
X146304000Y-91205600D02*
X136398000Y-101111600D01*
X136398000Y-101111600D02*
X136398000Y-112207400D01*
X136398000Y-113411000D02*
X136398000Y-112207400D01*
X146304000Y-67818000D02*
X146304000Y-68908000D01*
X127889000Y-101111600D02*
X118377300Y-101111600D01*
X119160000Y-96202081D02*
X117198701Y-98163380D01*
X115607299Y-100724801D02*
X115207300Y-101124800D01*
X117198701Y-98163380D02*
X117198701Y-99133399D01*
X117198701Y-99133399D02*
X115607299Y-100724801D01*
X119160000Y-95000000D02*
X119160000Y-96202081D01*
X141224000Y-54356000D02*
X141224000Y-59905000D01*
X141224000Y-59905000D02*
X143295000Y-61976000D01*
X143764000Y-61976000D02*
X143295000Y-61976000D01*
X115970003Y-97517001D02*
X115570004Y-97917000D01*
X117890000Y-95597004D02*
X115970003Y-97517001D01*
X117890000Y-91025000D02*
X117890000Y-95597004D01*
X143295000Y-65620000D02*
X117890000Y-91025000D01*
X143295000Y-61976000D02*
X143295000Y-65620000D01*
X137576000Y-87989700D02*
X127431000Y-98134700D01*
X127431000Y-98134700D02*
X119676400Y-98134700D01*
X143764000Y-54356000D02*
X143764000Y-59905000D01*
X143764000Y-59905000D02*
X145835000Y-61976000D01*
X146304000Y-61976000D02*
X145835000Y-61976000D01*
X137576000Y-72609000D02*
X137576000Y-87989700D01*
X146304000Y-61976000D02*
X146304000Y-63881000D01*
X146304000Y-63881000D02*
X137576000Y-72609000D01*
D39*
X101727000Y-68199000D02*
X99822000Y-70104000D01*
X112082500Y-66040000D02*
X109923500Y-68199000D01*
X109923500Y-68199000D02*
X101727000Y-68199000D01*
X99822000Y-70104000D02*
X99822000Y-83058000D01*
X101981000Y-59436000D02*
X99822000Y-61595000D01*
X99822000Y-61595000D02*
X99822000Y-70104000D01*
D40*
X100163000Y-85217000D02*
X99822000Y-85558000D01*
X118364000Y-84201000D02*
X117348000Y-85217000D01*
X117348000Y-85217000D02*
X100163000Y-85217000D01*
D36*
X97115000Y-85558000D02*
X99822000Y-85558000D01*
X97043000Y-85486000D02*
X97115000Y-85558000D01*
X131446000Y-115112100D02*
X130988100Y-115570000D01*
X131446000Y-109114000D02*
X131446000Y-115112100D01*
D38*
X131826000Y-99822000D02*
X140843000Y-90805000D01*
X140843000Y-83439000D02*
X140843000Y-83439000D01*
X140843000Y-90805000D02*
X140843000Y-83439000D01*
D36*
X133020200Y-102740200D02*
X118497885Y-102740200D01*
X118497885Y-102740200D02*
X117932200Y-102740200D01*
X135182000Y-104902000D02*
X133020200Y-102740200D01*
D38*
X114300002Y-76537604D02*
X114300002Y-83000317D01*
X114300002Y-83000317D02*
X114300002Y-83566002D01*
X109390399Y-71628001D02*
X114300002Y-76537604D01*
D36*
X105664000Y-88365800D02*
X107442000Y-86587800D01*
X105664000Y-90424000D02*
X105664000Y-88365800D01*
X138938000Y-113411000D02*
X138938000Y-105913500D01*
X138938000Y-105913500D02*
X143337000Y-101514500D01*
X115806800Y-106184800D02*
X134328000Y-106184800D01*
X134328000Y-106184800D02*
X134593200Y-106450000D01*
D41*
G36*
X93350707Y-50712366D02*
G01*
X92721797Y-50902208D01*
X92142008Y-51211096D01*
X92134411Y-51216172D01*
X91834231Y-51654626D01*
X94000000Y-53820395D01*
X96165769Y-51654626D01*
X95865589Y-51216172D01*
X95286644Y-50905704D01*
X94658254Y-50714148D01*
X94116057Y-50660000D01*
X155889922Y-50660000D01*
X155350707Y-50712366D01*
X154721797Y-50902208D01*
X154142008Y-51211096D01*
X154134411Y-51216172D01*
X153834231Y-51654626D01*
X156000000Y-53820395D01*
X158165769Y-51654626D01*
X157865589Y-51216172D01*
X157286644Y-50905704D01*
X156658254Y-50714148D01*
X156116057Y-50660000D01*
X159340000Y-50660000D01*
X159340000Y-53889922D01*
X159287634Y-53350707D01*
X159097792Y-52721797D01*
X158788904Y-52142008D01*
X158783828Y-52134411D01*
X158345374Y-51834231D01*
X156179605Y-54000000D01*
X158345374Y-56165769D01*
X158783828Y-55865589D01*
X159094296Y-55286644D01*
X159285852Y-54658254D01*
X159340000Y-54116056D01*
X159340001Y-115889931D01*
X159287634Y-115350707D01*
X159097792Y-114721797D01*
X158788904Y-114142008D01*
X158783828Y-114134411D01*
X158345374Y-113834231D01*
X156179605Y-116000000D01*
X158345374Y-118165769D01*
X158783828Y-117865589D01*
X159094296Y-117286644D01*
X159285852Y-116658254D01*
X159340001Y-116116047D01*
X159340001Y-119340000D01*
X156110078Y-119340000D01*
X156649293Y-119287634D01*
X157278203Y-119097792D01*
X157857992Y-118788904D01*
X157865589Y-118783828D01*
X158165769Y-118345374D01*
X156000000Y-116179605D01*
X153834231Y-118345374D01*
X154134411Y-118783828D01*
X154713356Y-119094296D01*
X155341746Y-119285852D01*
X155883943Y-119340000D01*
X93455078Y-119340000D01*
X93994293Y-119287634D01*
X94623203Y-119097792D01*
X95202992Y-118788904D01*
X95210589Y-118783828D01*
X95510769Y-118345374D01*
X93345000Y-116179605D01*
X91179231Y-118345374D01*
X91479411Y-118783828D01*
X92058356Y-119094296D01*
X92686746Y-119285852D01*
X93228943Y-119340000D01*
X90660000Y-119340000D01*
X90660000Y-117933250D01*
X90999626Y-118165769D01*
X93165395Y-116000000D01*
X90999626Y-113834231D01*
X90660000Y-114066750D01*
X90660000Y-113654626D01*
X91179231Y-113654626D01*
X93345000Y-115820395D01*
X93359143Y-115806253D01*
X93538748Y-115985858D01*
X93524605Y-116000000D01*
X95690374Y-118165769D01*
X96128828Y-117865589D01*
X96439296Y-117286644D01*
X96575449Y-116840000D01*
X125205339Y-116840000D01*
X125227929Y-117069360D01*
X125294831Y-117289906D01*
X125403474Y-117493162D01*
X125549682Y-117671318D01*
X125727838Y-117817526D01*
X125931094Y-117926169D01*
X126151640Y-117993071D01*
X126323523Y-118010000D01*
X127168477Y-118010000D01*
X127340360Y-117993071D01*
X127560906Y-117926169D01*
X127764162Y-117817526D01*
X127942318Y-117671318D01*
X128088526Y-117493162D01*
X128197169Y-117289906D01*
X128264071Y-117069360D01*
X128286661Y-116840000D01*
X128264071Y-116610640D01*
X128204052Y-116412786D01*
X128208730Y-116405785D01*
X128248393Y-116310027D01*
X134943037Y-116310027D01*
X135041036Y-116586978D01*
X135191183Y-116839488D01*
X135387707Y-117057854D01*
X135623056Y-117233684D01*
X135888186Y-117360222D01*
X136038974Y-117405958D01*
X136271000Y-117284817D01*
X136271000Y-116078000D01*
X135063536Y-116078000D01*
X134943037Y-116310027D01*
X128248393Y-116310027D01*
X128256597Y-116290223D01*
X128281000Y-116167542D01*
X128281000Y-115855750D01*
X128122250Y-115697000D01*
X127373560Y-115697000D01*
X127340360Y-115686929D01*
X127168477Y-115670000D01*
X126323523Y-115670000D01*
X126151640Y-115686929D01*
X126118440Y-115697000D01*
X125369750Y-115697000D01*
X125211000Y-115855750D01*
X125211000Y-116167542D01*
X125235403Y-116290223D01*
X125283270Y-116405785D01*
X125287948Y-116412786D01*
X125227929Y-116610640D01*
X125205339Y-116840000D01*
X96575449Y-116840000D01*
X96630852Y-116658254D01*
X96696134Y-116004569D01*
X96632634Y-115350707D01*
X96442792Y-114721797D01*
X96133904Y-114142008D01*
X96128828Y-114134411D01*
X95690376Y-113834232D01*
X95803981Y-113720627D01*
X95767342Y-113683988D01*
X95859927Y-113683988D01*
X96059886Y-113644214D01*
X96248244Y-113566193D01*
X96371273Y-113483988D01*
X102163368Y-113483988D01*
X102209980Y-113530600D01*
X102395876Y-113654812D01*
X102602433Y-113740371D01*
X102821712Y-113783988D01*
X103045288Y-113783988D01*
X103264567Y-113740371D01*
X103471124Y-113654812D01*
X103657020Y-113530600D01*
X103815112Y-113372508D01*
X103939324Y-113186612D01*
X104024883Y-112980055D01*
X104042082Y-112893589D01*
X105749000Y-112893589D01*
X105749000Y-113166411D01*
X105802225Y-113433989D01*
X105906629Y-113686043D01*
X106058201Y-113912886D01*
X106251114Y-114105799D01*
X106477957Y-114257371D01*
X106730011Y-114361775D01*
X106997589Y-114415000D01*
X107270411Y-114415000D01*
X107537989Y-114361775D01*
X107790043Y-114257371D01*
X108016886Y-114105799D01*
X108209799Y-113912886D01*
X108361371Y-113686043D01*
X108465775Y-113433989D01*
X108519000Y-113166411D01*
X108519000Y-112893589D01*
X110629000Y-112893589D01*
X110629000Y-113166411D01*
X110682225Y-113433989D01*
X110786629Y-113686043D01*
X110938201Y-113912886D01*
X111131114Y-114105799D01*
X111357957Y-114257371D01*
X111610011Y-114361775D01*
X111877589Y-114415000D01*
X112150411Y-114415000D01*
X112417989Y-114361775D01*
X112670043Y-114257371D01*
X112896886Y-114105799D01*
X113089799Y-113912886D01*
X113241371Y-113686043D01*
X113345775Y-113433989D01*
X113399000Y-113166411D01*
X113399000Y-113030000D01*
X125205339Y-113030000D01*
X125227929Y-113259360D01*
X125294831Y-113479906D01*
X125393766Y-113665000D01*
X125294831Y-113850094D01*
X125227929Y-114070640D01*
X125205339Y-114300000D01*
X125227929Y-114529360D01*
X125287948Y-114727214D01*
X125283270Y-114734215D01*
X125235403Y-114849777D01*
X125211000Y-114972458D01*
X125211000Y-115284250D01*
X125369750Y-115443000D01*
X126118440Y-115443000D01*
X126151640Y-115453071D01*
X126323523Y-115470000D01*
X127168477Y-115470000D01*
X127340360Y-115453071D01*
X127373560Y-115443000D01*
X128122250Y-115443000D01*
X128281000Y-115284250D01*
X128281000Y-114972458D01*
X128256597Y-114849777D01*
X128208730Y-114734215D01*
X128204052Y-114727214D01*
X128264071Y-114529360D01*
X128286661Y-114300000D01*
X128264071Y-114070640D01*
X128197169Y-113850094D01*
X128098234Y-113665000D01*
X128197169Y-113479906D01*
X128264071Y-113259360D01*
X128286661Y-113030000D01*
X128264071Y-112800640D01*
X128197169Y-112580094D01*
X128088526Y-112376838D01*
X127942318Y-112198682D01*
X127764162Y-112052474D01*
X127560906Y-111943831D01*
X127340360Y-111876929D01*
X127168477Y-111860000D01*
X126323523Y-111860000D01*
X126151640Y-111876929D01*
X125931094Y-111943831D01*
X125727838Y-112052474D01*
X125549682Y-112198682D01*
X125403474Y-112376838D01*
X125294831Y-112580094D01*
X125227929Y-112800640D01*
X125205339Y-113030000D01*
X113399000Y-113030000D01*
X113399000Y-112893589D01*
X113345775Y-112626011D01*
X113241371Y-112373957D01*
X113089799Y-112147114D01*
X112896886Y-111954201D01*
X112670043Y-111802629D01*
X112417989Y-111698225D01*
X112150411Y-111645000D01*
X111877589Y-111645000D01*
X111610011Y-111698225D01*
X111357957Y-111802629D01*
X111131114Y-111954201D01*
X110938201Y-112147114D01*
X110786629Y-112373957D01*
X110682225Y-112626011D01*
X110629000Y-112893589D01*
X108519000Y-112893589D01*
X108465775Y-112626011D01*
X108361371Y-112373957D01*
X108209799Y-112147114D01*
X108016886Y-111954201D01*
X107790043Y-111802629D01*
X107537989Y-111698225D01*
X107270411Y-111645000D01*
X106997589Y-111645000D01*
X106730011Y-111698225D01*
X106477957Y-111802629D01*
X106251114Y-111954201D01*
X106058201Y-112147114D01*
X105906629Y-112373957D01*
X105802225Y-112626011D01*
X105749000Y-112893589D01*
X104042082Y-112893589D01*
X104068500Y-112760776D01*
X104068500Y-112537200D01*
X104024883Y-112317921D01*
X103939324Y-112111364D01*
X103815112Y-111925468D01*
X103657020Y-111767376D01*
X103471124Y-111643164D01*
X103264567Y-111557605D01*
X103045288Y-111513988D01*
X102821712Y-111513988D01*
X102602433Y-111557605D01*
X102395876Y-111643164D01*
X102209980Y-111767376D01*
X102163368Y-111813988D01*
X96371273Y-111813988D01*
X96248244Y-111731783D01*
X96059886Y-111653762D01*
X95859927Y-111613988D01*
X95656049Y-111613988D01*
X95456090Y-111653762D01*
X95267732Y-111731783D01*
X95098214Y-111845051D01*
X94954051Y-111989214D01*
X94840783Y-112158732D01*
X94762762Y-112347090D01*
X94722988Y-112547049D01*
X94722988Y-112750927D01*
X94762762Y-112950886D01*
X94776145Y-112983195D01*
X94631644Y-112905704D01*
X94003254Y-112714148D01*
X93349569Y-112648866D01*
X92695707Y-112712366D01*
X92066797Y-112902208D01*
X91487008Y-113211096D01*
X91479411Y-113216172D01*
X91179231Y-113654626D01*
X90660000Y-113654626D01*
X90660000Y-106348061D01*
X98303400Y-106348061D01*
X98303400Y-106551939D01*
X98343174Y-106751898D01*
X98421195Y-106940256D01*
X98534463Y-107109774D01*
X98678626Y-107253937D01*
X98848144Y-107367205D01*
X99036502Y-107445226D01*
X99236461Y-107485000D01*
X99440339Y-107485000D01*
X99640298Y-107445226D01*
X99828656Y-107367205D01*
X99998174Y-107253937D01*
X100051411Y-107200700D01*
X113607947Y-107200700D01*
X113646000Y-107204448D01*
X113684053Y-107200700D01*
X113797868Y-107189490D01*
X113943899Y-107145192D01*
X114078483Y-107073256D01*
X114196446Y-106976446D01*
X114293256Y-106858483D01*
X114365192Y-106723899D01*
X114409490Y-106577868D01*
X114424448Y-106426000D01*
X114420700Y-106387947D01*
X114420700Y-105095891D01*
X116901885Y-102614706D01*
X116897200Y-102638261D01*
X116897200Y-102842139D01*
X116936974Y-103042098D01*
X117014995Y-103230456D01*
X117128263Y-103399974D01*
X117272426Y-103544137D01*
X117441944Y-103657405D01*
X117630302Y-103735426D01*
X117830261Y-103775200D01*
X118034139Y-103775200D01*
X118234098Y-103735426D01*
X118422456Y-103657405D01*
X118591974Y-103544137D01*
X118621211Y-103514900D01*
X132699309Y-103514900D01*
X134147000Y-104962592D01*
X134147000Y-105003939D01*
X134186774Y-105203898D01*
X134264795Y-105392256D01*
X134276718Y-105410100D01*
X116495811Y-105410100D01*
X116466574Y-105380863D01*
X116297056Y-105267595D01*
X116108698Y-105189574D01*
X115908739Y-105149800D01*
X115704861Y-105149800D01*
X115504902Y-105189574D01*
X115316544Y-105267595D01*
X115147026Y-105380863D01*
X115002863Y-105525026D01*
X114889595Y-105694544D01*
X114811574Y-105882902D01*
X114771800Y-106082861D01*
X114771800Y-106286739D01*
X114811574Y-106486698D01*
X114889595Y-106675056D01*
X115002863Y-106844574D01*
X115147026Y-106988737D01*
X115316544Y-107102005D01*
X115504902Y-107180026D01*
X115704861Y-107219800D01*
X115908739Y-107219800D01*
X116108698Y-107180026D01*
X116297056Y-107102005D01*
X116466574Y-106988737D01*
X116495811Y-106959500D01*
X133688853Y-106959500D01*
X133789263Y-107109774D01*
X133933426Y-107253937D01*
X134102944Y-107367205D01*
X134291302Y-107445226D01*
X134491261Y-107485000D01*
X134695139Y-107485000D01*
X134895098Y-107445226D01*
X135083456Y-107367205D01*
X135252974Y-107253937D01*
X135397137Y-107109774D01*
X135510405Y-106940256D01*
X135588426Y-106751898D01*
X135623300Y-106576571D01*
X135623301Y-112125841D01*
X135561394Y-112158931D01*
X135333203Y-112346203D01*
X135145931Y-112574394D01*
X135006775Y-112834736D01*
X134921084Y-113117223D01*
X134892149Y-113411000D01*
X134921084Y-113704777D01*
X135006775Y-113987264D01*
X135145931Y-114247606D01*
X135333203Y-114475797D01*
X135561394Y-114663069D01*
X135601433Y-114684470D01*
X135387707Y-114844146D01*
X135191183Y-115062512D01*
X135041036Y-115315022D01*
X134943037Y-115591973D01*
X135063536Y-115824000D01*
X136271000Y-115824000D01*
X136271000Y-115804000D01*
X136525000Y-115804000D01*
X136525000Y-115824000D01*
X136545000Y-115824000D01*
X136545000Y-116078000D01*
X136525000Y-116078000D01*
X136525000Y-117284817D01*
X136757026Y-117405958D01*
X136907814Y-117360222D01*
X137172944Y-117233684D01*
X137408293Y-117057854D01*
X137604817Y-116839488D01*
X137662137Y-116743090D01*
X137685931Y-116787606D01*
X137873203Y-117015797D01*
X138101394Y-117203069D01*
X138361736Y-117342225D01*
X138644223Y-117427916D01*
X138864381Y-117449600D01*
X139011619Y-117449600D01*
X139231777Y-117427916D01*
X139514264Y-117342225D01*
X139774606Y-117203069D01*
X140002797Y-117015797D01*
X140190069Y-116787606D01*
X140208000Y-116754060D01*
X140225931Y-116787606D01*
X140413203Y-117015797D01*
X140641394Y-117203069D01*
X140901736Y-117342225D01*
X141184223Y-117427916D01*
X141404381Y-117449600D01*
X141551619Y-117449600D01*
X141771777Y-117427916D01*
X142054264Y-117342225D01*
X142314606Y-117203069D01*
X142542797Y-117015797D01*
X142730069Y-116787606D01*
X142869225Y-116527264D01*
X142954916Y-116244777D01*
X142979474Y-115995431D01*
X152648866Y-115995431D01*
X152712366Y-116649293D01*
X152902208Y-117278203D01*
X153211096Y-117857992D01*
X153216172Y-117865589D01*
X153654626Y-118165769D01*
X155820395Y-116000000D01*
X153654626Y-113834231D01*
X153216172Y-114134411D01*
X152905704Y-114713356D01*
X152714148Y-115341746D01*
X152648866Y-115995431D01*
X142979474Y-115995431D01*
X142983851Y-115951000D01*
X142954916Y-115657223D01*
X142869225Y-115374736D01*
X142730069Y-115114394D01*
X142542797Y-114886203D01*
X142534735Y-114879586D01*
X142585780Y-114864102D01*
X142696094Y-114805137D01*
X142792785Y-114725785D01*
X142872137Y-114629094D01*
X142931102Y-114518780D01*
X142967412Y-114399082D01*
X142979672Y-114274600D01*
X142979672Y-113654626D01*
X153834231Y-113654626D01*
X156000000Y-115820395D01*
X158165769Y-113654626D01*
X157865589Y-113216172D01*
X157286644Y-112905704D01*
X156658254Y-112714148D01*
X156004569Y-112648866D01*
X155350707Y-112712366D01*
X154721797Y-112902208D01*
X154142008Y-113211096D01*
X154134411Y-113216172D01*
X153834231Y-113654626D01*
X142979672Y-113654626D01*
X142979672Y-112547400D01*
X142967412Y-112422918D01*
X142931102Y-112303220D01*
X142872137Y-112192906D01*
X142792785Y-112096215D01*
X142696094Y-112016863D01*
X142585780Y-111957898D01*
X142466082Y-111921588D01*
X142341600Y-111909328D01*
X140614400Y-111909328D01*
X140489918Y-111921588D01*
X140370220Y-111957898D01*
X140259906Y-112016863D01*
X140163215Y-112096215D01*
X140083863Y-112192906D01*
X140024898Y-112303220D01*
X140009414Y-112354265D01*
X140002797Y-112346203D01*
X139774606Y-112158931D01*
X139712700Y-112125841D01*
X139712700Y-106234391D01*
X141941879Y-104005212D01*
X154313000Y-104005212D01*
X154313000Y-104228788D01*
X154356617Y-104448067D01*
X154442176Y-104654624D01*
X154566388Y-104840520D01*
X154724480Y-104998612D01*
X154910376Y-105122824D01*
X155116933Y-105208383D01*
X155336212Y-105252000D01*
X155559788Y-105252000D01*
X155779067Y-105208383D01*
X155985624Y-105122824D01*
X156171520Y-104998612D01*
X156329612Y-104840520D01*
X156453824Y-104654624D01*
X156539383Y-104448067D01*
X156583000Y-104228788D01*
X156583000Y-104005212D01*
X156539383Y-103785933D01*
X156453824Y-103579376D01*
X156329612Y-103393480D01*
X156171520Y-103235388D01*
X155985624Y-103111176D01*
X155779067Y-103025617D01*
X155559788Y-102982000D01*
X155336212Y-102982000D01*
X155116933Y-103025617D01*
X154910376Y-103111176D01*
X154724480Y-103235388D01*
X154566388Y-103393480D01*
X154442176Y-103579376D01*
X154356617Y-103785933D01*
X154313000Y-104005212D01*
X141941879Y-104005212D01*
X143397591Y-102549500D01*
X143438939Y-102549500D01*
X143638898Y-102509726D01*
X143827256Y-102431705D01*
X143996774Y-102318437D01*
X144140937Y-102174274D01*
X144254205Y-102004756D01*
X144332226Y-101816398D01*
X144372000Y-101616439D01*
X144372000Y-101412561D01*
X144332226Y-101212602D01*
X144254205Y-101024244D01*
X144140937Y-100854726D01*
X143996774Y-100710563D01*
X143827256Y-100597295D01*
X143638898Y-100519274D01*
X143438939Y-100479500D01*
X143235061Y-100479500D01*
X143035102Y-100519274D01*
X142846744Y-100597295D01*
X142677226Y-100710563D01*
X142533063Y-100854726D01*
X142419795Y-101024244D01*
X142341774Y-101212602D01*
X142302000Y-101412561D01*
X142302000Y-101453909D01*
X138417111Y-105338798D01*
X138387555Y-105363054D01*
X138290745Y-105481017D01*
X138252030Y-105553448D01*
X138218809Y-105615601D01*
X138174510Y-105761633D01*
X138159552Y-105913500D01*
X138163301Y-105951563D01*
X138163300Y-112125841D01*
X138101394Y-112158931D01*
X137873203Y-112346203D01*
X137685931Y-112574394D01*
X137668000Y-112607940D01*
X137650069Y-112574394D01*
X137462797Y-112346203D01*
X137234606Y-112158931D01*
X137172700Y-112125841D01*
X137172700Y-101432491D01*
X142579979Y-96025212D01*
X154313000Y-96025212D01*
X154313000Y-96248788D01*
X154356617Y-96468067D01*
X154442176Y-96674624D01*
X154566388Y-96860520D01*
X154724480Y-97018612D01*
X154910376Y-97142824D01*
X155116933Y-97228383D01*
X155336212Y-97272000D01*
X155559788Y-97272000D01*
X155779067Y-97228383D01*
X155985624Y-97142824D01*
X156171520Y-97018612D01*
X156329612Y-96860520D01*
X156453824Y-96674624D01*
X156539383Y-96468067D01*
X156583000Y-96248788D01*
X156583000Y-96025212D01*
X156539383Y-95805933D01*
X156453824Y-95599376D01*
X156329612Y-95413480D01*
X156171520Y-95255388D01*
X155985624Y-95131176D01*
X155779067Y-95045617D01*
X155559788Y-95002000D01*
X155336212Y-95002000D01*
X155116933Y-95045617D01*
X154910376Y-95131176D01*
X154724480Y-95255388D01*
X154566388Y-95413480D01*
X154442176Y-95599376D01*
X154356617Y-95805933D01*
X154313000Y-96025212D01*
X142579979Y-96025212D01*
X146824884Y-91780307D01*
X146854446Y-91756046D01*
X146951256Y-91638083D01*
X147023192Y-91503499D01*
X147037151Y-91457482D01*
X147067491Y-91357468D01*
X147082448Y-91205600D01*
X147078700Y-91167544D01*
X147078700Y-78888212D01*
X151205000Y-78888212D01*
X151205000Y-79111788D01*
X151248617Y-79331067D01*
X151334176Y-79537624D01*
X151458388Y-79723520D01*
X151616480Y-79881612D01*
X151802376Y-80005824D01*
X152008933Y-80091383D01*
X152228212Y-80135000D01*
X152451788Y-80135000D01*
X152671067Y-80091383D01*
X152877624Y-80005824D01*
X153063520Y-79881612D01*
X153221612Y-79723520D01*
X153345824Y-79537624D01*
X153431383Y-79331067D01*
X153475000Y-79111788D01*
X153475000Y-78888212D01*
X153431383Y-78668933D01*
X153345824Y-78462376D01*
X153221612Y-78276480D01*
X153063520Y-78118388D01*
X152877624Y-77994176D01*
X152671067Y-77908617D01*
X152451788Y-77865000D01*
X152228212Y-77865000D01*
X152008933Y-77908617D01*
X151802376Y-77994176D01*
X151616480Y-78118388D01*
X151458388Y-78276480D01*
X151334176Y-78462376D01*
X151248617Y-78668933D01*
X151205000Y-78888212D01*
X147078700Y-78888212D01*
X147078700Y-69534617D01*
X152357000Y-69534617D01*
X152357000Y-69876383D01*
X152423675Y-70211581D01*
X152554463Y-70527331D01*
X152744337Y-70811498D01*
X152986002Y-71053163D01*
X153270169Y-71243037D01*
X153585919Y-71373825D01*
X153921117Y-71440500D01*
X154262883Y-71440500D01*
X154598081Y-71373825D01*
X154913831Y-71243037D01*
X155197998Y-71053163D01*
X155439663Y-70811498D01*
X155629537Y-70527331D01*
X155760325Y-70211581D01*
X155827000Y-69876383D01*
X155827000Y-69735908D01*
X156084883Y-69858871D01*
X156368411Y-69930839D01*
X156660531Y-69946111D01*
X156950019Y-69904099D01*
X157225747Y-69806419D01*
X157363157Y-69732972D01*
X157440792Y-69483897D01*
X156592000Y-68635105D01*
X156577858Y-68649248D01*
X156398253Y-68469643D01*
X156412395Y-68455500D01*
X156771605Y-68455500D01*
X157620397Y-69304292D01*
X157869472Y-69226657D01*
X157995371Y-68962617D01*
X158067339Y-68679089D01*
X158082611Y-68386969D01*
X158040599Y-68097481D01*
X157942919Y-67821753D01*
X157869472Y-67684343D01*
X157620397Y-67606708D01*
X156771605Y-68455500D01*
X156412395Y-68455500D01*
X155563603Y-67606708D01*
X155314528Y-67684343D01*
X155188629Y-67948383D01*
X155116661Y-68231911D01*
X155113045Y-68301073D01*
X154913831Y-68167963D01*
X154598081Y-68037175D01*
X154262883Y-67970500D01*
X153921117Y-67970500D01*
X153585919Y-68037175D01*
X153270169Y-68167963D01*
X152986002Y-68357837D01*
X152744337Y-68599502D01*
X152554463Y-68883669D01*
X152423675Y-69199419D01*
X152357000Y-69534617D01*
X147078700Y-69534617D01*
X147078700Y-68973916D01*
X147288081Y-68802081D01*
X147461157Y-68591188D01*
X147589764Y-68350581D01*
X147668960Y-68089507D01*
X147695701Y-67818000D01*
X147668960Y-67546493D01*
X147632744Y-67427103D01*
X155743208Y-67427103D01*
X156592000Y-68275895D01*
X157440792Y-67427103D01*
X157363157Y-67178028D01*
X157099117Y-67052129D01*
X156815589Y-66980161D01*
X156523469Y-66964889D01*
X156233981Y-67006901D01*
X155958253Y-67104581D01*
X155820843Y-67178028D01*
X155743208Y-67427103D01*
X147632744Y-67427103D01*
X147589764Y-67285419D01*
X147461157Y-67044812D01*
X147288081Y-66833919D01*
X147077188Y-66660843D01*
X146836581Y-66532236D01*
X146575507Y-66453040D01*
X146372037Y-66433000D01*
X146235963Y-66433000D01*
X146032493Y-66453040D01*
X145771419Y-66532236D01*
X145530812Y-66660843D01*
X145319919Y-66833919D01*
X145146843Y-67044812D01*
X145018236Y-67285419D01*
X144939040Y-67546493D01*
X144912299Y-67818000D01*
X144939040Y-68089507D01*
X145018236Y-68350581D01*
X145146843Y-68591188D01*
X145319919Y-68802081D01*
X145529300Y-68973916D01*
X145529300Y-77915119D01*
X145448676Y-77861247D01*
X145214821Y-77764381D01*
X144966561Y-77715000D01*
X144713439Y-77715000D01*
X144465179Y-77764381D01*
X144231324Y-77861247D01*
X144020860Y-78001875D01*
X143841875Y-78180860D01*
X143701247Y-78391324D01*
X143604381Y-78625179D01*
X143555000Y-78873439D01*
X143555000Y-79126561D01*
X143604381Y-79374821D01*
X143701247Y-79608676D01*
X143841875Y-79819140D01*
X144020860Y-79998125D01*
X144231324Y-80138753D01*
X144465179Y-80235619D01*
X144713439Y-80285000D01*
X144966561Y-80285000D01*
X145214821Y-80235619D01*
X145448676Y-80138753D01*
X145529301Y-80084881D01*
X145529301Y-90884708D01*
X136077109Y-100336900D01*
X132841237Y-100336900D01*
X132917383Y-100153067D01*
X132961000Y-99933788D01*
X132961000Y-99832512D01*
X141387619Y-91405894D01*
X141418528Y-91380528D01*
X141519749Y-91257189D01*
X141568956Y-91165129D01*
X141594963Y-91116474D01*
X141605743Y-91080937D01*
X141641280Y-90963788D01*
X141653000Y-90844791D01*
X141653000Y-90844788D01*
X141656919Y-90805000D01*
X141653000Y-90765212D01*
X141653000Y-84234132D01*
X141724612Y-84162520D01*
X141848824Y-83976624D01*
X141934383Y-83770067D01*
X141978000Y-83550788D01*
X141978000Y-83327212D01*
X141934383Y-83107933D01*
X141848824Y-82901376D01*
X141724612Y-82715480D01*
X141566520Y-82557388D01*
X141380624Y-82433176D01*
X141174067Y-82347617D01*
X140954788Y-82304000D01*
X140731212Y-82304000D01*
X140511933Y-82347617D01*
X140305376Y-82433176D01*
X140119480Y-82557388D01*
X139961388Y-82715480D01*
X139837176Y-82901376D01*
X139751617Y-83107933D01*
X139708000Y-83327212D01*
X139708000Y-83550788D01*
X139751617Y-83770067D01*
X139837176Y-83976624D01*
X139961388Y-84162520D01*
X140033001Y-84234133D01*
X140033000Y-90469487D01*
X131815488Y-98687000D01*
X131714212Y-98687000D01*
X131494933Y-98730617D01*
X131288376Y-98816176D01*
X131102480Y-98940388D01*
X130944388Y-99098480D01*
X130820176Y-99284376D01*
X130734617Y-99490933D01*
X130691000Y-99710212D01*
X130691000Y-99933788D01*
X130734617Y-100153067D01*
X130810763Y-100336900D01*
X128578011Y-100336900D01*
X128548774Y-100307663D01*
X128379256Y-100194395D01*
X128190898Y-100116374D01*
X127990939Y-100076600D01*
X127787061Y-100076600D01*
X127587102Y-100116374D01*
X127398744Y-100194395D01*
X127229226Y-100307663D01*
X127199989Y-100336900D01*
X119151930Y-100336900D01*
X119210192Y-100227899D01*
X119254490Y-100081868D01*
X119265700Y-99968053D01*
X119269448Y-99930000D01*
X119265700Y-99891947D01*
X119265700Y-99084858D01*
X119374502Y-99129926D01*
X119574461Y-99169700D01*
X119778339Y-99169700D01*
X119978298Y-99129926D01*
X120166656Y-99051905D01*
X120336174Y-98938637D01*
X120365411Y-98909400D01*
X127392947Y-98909400D01*
X127431000Y-98913148D01*
X127469053Y-98909400D01*
X127582868Y-98898190D01*
X127728899Y-98853892D01*
X127863483Y-98781956D01*
X127981446Y-98685146D01*
X128005707Y-98655584D01*
X137636591Y-89024700D01*
X137677939Y-89024700D01*
X137877898Y-88984926D01*
X138066256Y-88906905D01*
X138235774Y-88793637D01*
X138379937Y-88649474D01*
X138493205Y-88479956D01*
X138571226Y-88291598D01*
X138611000Y-88091639D01*
X138611000Y-87887761D01*
X138571226Y-87687802D01*
X138493205Y-87499444D01*
X138379937Y-87329926D01*
X138350700Y-87300689D01*
X138350700Y-72929891D01*
X146824890Y-64455702D01*
X146854446Y-64431446D01*
X146951256Y-64313483D01*
X147023192Y-64178899D01*
X147067490Y-64032868D01*
X147078700Y-63919053D01*
X147082448Y-63881000D01*
X147078700Y-63842947D01*
X147078700Y-63498416D01*
X147144179Y-63463417D01*
X147373345Y-63275345D01*
X147561417Y-63046179D01*
X147701166Y-62784724D01*
X147777035Y-62534617D01*
X152357000Y-62534617D01*
X152357000Y-62876383D01*
X152423675Y-63211581D01*
X152554463Y-63527331D01*
X152744337Y-63811498D01*
X152986002Y-64053163D01*
X153270169Y-64243037D01*
X153585919Y-64373825D01*
X153921117Y-64440500D01*
X154262883Y-64440500D01*
X154598081Y-64373825D01*
X154913831Y-64243037D01*
X155109143Y-64112534D01*
X155164068Y-64388658D01*
X155276010Y-64658911D01*
X155438525Y-64902132D01*
X155645368Y-65108975D01*
X155888589Y-65271490D01*
X156158842Y-65383432D01*
X156445740Y-65440500D01*
X156738260Y-65440500D01*
X157025158Y-65383432D01*
X157295411Y-65271490D01*
X157538632Y-65108975D01*
X157745475Y-64902132D01*
X157907990Y-64658911D01*
X158019932Y-64388658D01*
X158077000Y-64101760D01*
X158077000Y-63809240D01*
X158019932Y-63522342D01*
X157907990Y-63252089D01*
X157745475Y-63008868D01*
X157538632Y-62802025D01*
X157295411Y-62639510D01*
X157025158Y-62527568D01*
X156738260Y-62470500D01*
X156445740Y-62470500D01*
X156158842Y-62527568D01*
X155888589Y-62639510D01*
X155827000Y-62680662D01*
X155827000Y-62534617D01*
X155760325Y-62199419D01*
X155629537Y-61883669D01*
X155439663Y-61599502D01*
X155197998Y-61357837D01*
X154913831Y-61167963D01*
X154598081Y-61037175D01*
X154262883Y-60970500D01*
X153921117Y-60970500D01*
X153585919Y-61037175D01*
X153270169Y-61167963D01*
X152986002Y-61357837D01*
X152744337Y-61599502D01*
X152554463Y-61883669D01*
X152423675Y-62199419D01*
X152357000Y-62534617D01*
X147777035Y-62534617D01*
X147787224Y-62501031D01*
X147809000Y-62279935D01*
X147809000Y-61672064D01*
X147787224Y-61450968D01*
X147701166Y-61167275D01*
X147561417Y-60905821D01*
X147373345Y-60676655D01*
X147144178Y-60488583D01*
X146882724Y-60348834D01*
X146599031Y-60262776D01*
X146304000Y-60233718D01*
X146008968Y-60262776D01*
X145725275Y-60348834D01*
X145463821Y-60488583D01*
X145452481Y-60497890D01*
X144538700Y-59584109D01*
X144538700Y-56345374D01*
X153834231Y-56345374D01*
X154134411Y-56783828D01*
X154713356Y-57094296D01*
X155341746Y-57285852D01*
X155995431Y-57351134D01*
X156649293Y-57287634D01*
X157278203Y-57097792D01*
X157857992Y-56788904D01*
X157865589Y-56783828D01*
X158165769Y-56345374D01*
X156000000Y-54179605D01*
X153834231Y-56345374D01*
X144538700Y-56345374D01*
X144538700Y-55878416D01*
X144604179Y-55843417D01*
X144833345Y-55655345D01*
X145021417Y-55426179D01*
X145034000Y-55402638D01*
X145046583Y-55426179D01*
X145234655Y-55655345D01*
X145463822Y-55843417D01*
X145725276Y-55983166D01*
X146008969Y-56069224D01*
X146304000Y-56098282D01*
X146599032Y-56069224D01*
X146882725Y-55983166D01*
X147144179Y-55843417D01*
X147373345Y-55655345D01*
X147561417Y-55426179D01*
X147701166Y-55164724D01*
X147787224Y-54881031D01*
X147809000Y-54659935D01*
X147809000Y-54052064D01*
X147803423Y-53995431D01*
X152648866Y-53995431D01*
X152712366Y-54649293D01*
X152902208Y-55278203D01*
X153211096Y-55857992D01*
X153216172Y-55865589D01*
X153654626Y-56165769D01*
X155820395Y-54000000D01*
X153654626Y-51834231D01*
X153216172Y-52134411D01*
X152905704Y-52713356D01*
X152714148Y-53341746D01*
X152648866Y-53995431D01*
X147803423Y-53995431D01*
X147787224Y-53830968D01*
X147701166Y-53547275D01*
X147561417Y-53285821D01*
X147373345Y-53056655D01*
X147144178Y-52868583D01*
X146882724Y-52728834D01*
X146599031Y-52642776D01*
X146304000Y-52613718D01*
X146008968Y-52642776D01*
X145725275Y-52728834D01*
X145463821Y-52868583D01*
X145234655Y-53056655D01*
X145046583Y-53285822D01*
X145034000Y-53309363D01*
X145021417Y-53285821D01*
X144833345Y-53056655D01*
X144604178Y-52868583D01*
X144342724Y-52728834D01*
X144059031Y-52642776D01*
X143764000Y-52613718D01*
X143468968Y-52642776D01*
X143185275Y-52728834D01*
X142923821Y-52868583D01*
X142694655Y-53056655D01*
X142506583Y-53285822D01*
X142494000Y-53309363D01*
X142481417Y-53285821D01*
X142293345Y-53056655D01*
X142064178Y-52868583D01*
X141802724Y-52728834D01*
X141519031Y-52642776D01*
X141224000Y-52613718D01*
X140928968Y-52642776D01*
X140645275Y-52728834D01*
X140383821Y-52868583D01*
X140154655Y-53056655D01*
X139966583Y-53285822D01*
X139951698Y-53313669D01*
X139862256Y-53177097D01*
X139654494Y-52965464D01*
X139409437Y-52798429D01*
X139136502Y-52682412D01*
X139044031Y-52664698D01*
X138811000Y-52785754D01*
X138811000Y-54229000D01*
X138831000Y-54229000D01*
X138831000Y-54483000D01*
X138811000Y-54483000D01*
X138811000Y-55926246D01*
X139044031Y-56047302D01*
X139136502Y-56029588D01*
X139409437Y-55913571D01*
X139654494Y-55746536D01*
X139862256Y-55534903D01*
X139951698Y-55398331D01*
X139966583Y-55426179D01*
X140154655Y-55655345D01*
X140383822Y-55843417D01*
X140449300Y-55878416D01*
X140449301Y-59866937D01*
X140445552Y-59905000D01*
X140460510Y-60056867D01*
X140483274Y-60131908D01*
X140504809Y-60202899D01*
X140576745Y-60337483D01*
X140605775Y-60372856D01*
X140498563Y-60418429D01*
X140253506Y-60585464D01*
X140100507Y-60741314D01*
X140042405Y-60632613D01*
X139931962Y-60498038D01*
X139797387Y-60387595D01*
X139643851Y-60305528D01*
X139477255Y-60254992D01*
X139304001Y-60237928D01*
X138063999Y-60237928D01*
X137890745Y-60254992D01*
X137724149Y-60305528D01*
X137570613Y-60387595D01*
X137436038Y-60498038D01*
X137325595Y-60632613D01*
X137243528Y-60786149D01*
X137192992Y-60952745D01*
X137175928Y-61125999D01*
X137175928Y-62826001D01*
X137192992Y-62999255D01*
X137243528Y-63165851D01*
X137325595Y-63319387D01*
X137436038Y-63453962D01*
X137570613Y-63564405D01*
X137724149Y-63646472D01*
X137849001Y-63684345D01*
X137849000Y-66438299D01*
X137809518Y-66442188D01*
X137689820Y-66478498D01*
X137579506Y-66537463D01*
X137482815Y-66616815D01*
X137403463Y-66713506D01*
X137344498Y-66823820D01*
X137308188Y-66943518D01*
X137295928Y-67068000D01*
X137295928Y-68568000D01*
X137308188Y-68692482D01*
X137344498Y-68812180D01*
X137403463Y-68922494D01*
X137441856Y-68969276D01*
X113518579Y-92892554D01*
X113486709Y-92918709D01*
X113432944Y-92984223D01*
X113382364Y-93045855D01*
X113304828Y-93190914D01*
X113257082Y-93348312D01*
X113240960Y-93512000D01*
X113245000Y-93553019D01*
X113245000Y-93764206D01*
X113024866Y-93944866D01*
X112839294Y-94170986D01*
X112804799Y-94235523D01*
X112735178Y-94118645D01*
X112540269Y-93902412D01*
X112306920Y-93728359D01*
X112044099Y-93603175D01*
X111896890Y-93558524D01*
X111667000Y-93679845D01*
X111667000Y-94873000D01*
X111687000Y-94873000D01*
X111687000Y-95127000D01*
X111667000Y-95127000D01*
X111667000Y-95147000D01*
X111413000Y-95147000D01*
X111413000Y-95127000D01*
X109127000Y-95127000D01*
X109127000Y-96326250D01*
X109285750Y-96485000D01*
X109912542Y-96485000D01*
X110035223Y-96460597D01*
X110150785Y-96412730D01*
X110254789Y-96343237D01*
X110343237Y-96254789D01*
X110412730Y-96150785D01*
X110460597Y-96035223D01*
X110464740Y-96014393D01*
X110539731Y-96097588D01*
X110773080Y-96271641D01*
X111035901Y-96396825D01*
X111183110Y-96441476D01*
X111412998Y-96320156D01*
X111412998Y-96485000D01*
X111449487Y-96485000D01*
X107151389Y-100783099D01*
X107120473Y-100808471D01*
X107050704Y-100893486D01*
X107019252Y-100931810D01*
X107005788Y-100957000D01*
X106944038Y-101072527D01*
X106897721Y-101225212D01*
X106890404Y-101299504D01*
X106882082Y-101383999D01*
X106886001Y-101423788D01*
X106886002Y-102709868D01*
X106814389Y-102781481D01*
X106690177Y-102967377D01*
X106604618Y-103173934D01*
X106561001Y-103393213D01*
X106561001Y-103616789D01*
X106604618Y-103836068D01*
X106690177Y-104042625D01*
X106814389Y-104228521D01*
X106972481Y-104386613D01*
X107158377Y-104510825D01*
X107364934Y-104596384D01*
X107584213Y-104640001D01*
X107807789Y-104640001D01*
X108027068Y-104596384D01*
X108233625Y-104510825D01*
X108419521Y-104386613D01*
X108577613Y-104228521D01*
X108701825Y-104042625D01*
X108787384Y-103836068D01*
X108831001Y-103616789D01*
X108831001Y-103393213D01*
X108787384Y-103173934D01*
X108701825Y-102967377D01*
X108577613Y-102781481D01*
X108506001Y-102709869D01*
X108506001Y-101719511D01*
X113768258Y-96457255D01*
X113788889Y-96463513D01*
X114007050Y-96485000D01*
X114152950Y-96485000D01*
X114371111Y-96463513D01*
X114651034Y-96378599D01*
X114909014Y-96240706D01*
X115135134Y-96055134D01*
X115320706Y-95829014D01*
X115350000Y-95774209D01*
X115379294Y-95829014D01*
X115564866Y-96055134D01*
X115790986Y-96240706D01*
X116025407Y-96366006D01*
X115509413Y-96882000D01*
X115468065Y-96882000D01*
X115268106Y-96921774D01*
X115079748Y-96999795D01*
X114910230Y-97113063D01*
X114766067Y-97257226D01*
X114652799Y-97426744D01*
X114574778Y-97615102D01*
X114535004Y-97815061D01*
X114535004Y-98018939D01*
X114574778Y-98218898D01*
X114652799Y-98407256D01*
X114766067Y-98576774D01*
X114910230Y-98720937D01*
X115079748Y-98834205D01*
X115268106Y-98912226D01*
X115468065Y-98952000D01*
X115671943Y-98952000D01*
X115871902Y-98912226D01*
X116060260Y-98834205D01*
X116229778Y-98720937D01*
X116373941Y-98576774D01*
X116424001Y-98501853D01*
X116424002Y-98812507D01*
X115146709Y-100089800D01*
X115105361Y-100089800D01*
X114905402Y-100129574D01*
X114717044Y-100207595D01*
X114547526Y-100320863D01*
X114403363Y-100465026D01*
X114290095Y-100634544D01*
X114212074Y-100822902D01*
X114172300Y-101022861D01*
X114172300Y-101226739D01*
X114212074Y-101426698D01*
X114290095Y-101615056D01*
X114403363Y-101784574D01*
X114547526Y-101928737D01*
X114717044Y-102042005D01*
X114905402Y-102120026D01*
X115105361Y-102159800D01*
X115165609Y-102159800D01*
X113125116Y-104200293D01*
X113095554Y-104224554D01*
X112998744Y-104342518D01*
X112926808Y-104477102D01*
X112890624Y-104596384D01*
X112882510Y-104623133D01*
X112867552Y-104775000D01*
X112871300Y-104813053D01*
X112871301Y-105651300D01*
X100003411Y-105651300D01*
X99998174Y-105646063D01*
X99828656Y-105532795D01*
X99640298Y-105454774D01*
X99440339Y-105415000D01*
X99236461Y-105415000D01*
X99036502Y-105454774D01*
X98848144Y-105532795D01*
X98678626Y-105646063D01*
X98534463Y-105790226D01*
X98421195Y-105959744D01*
X98343174Y-106148102D01*
X98303400Y-106348061D01*
X90660000Y-106348061D01*
X90660000Y-97136089D01*
X96976500Y-97136089D01*
X96976500Y-97408911D01*
X97029725Y-97676489D01*
X97134129Y-97928543D01*
X97285701Y-98155386D01*
X97478614Y-98348299D01*
X97705457Y-98499871D01*
X97957511Y-98604275D01*
X98225089Y-98657500D01*
X98497911Y-98657500D01*
X98765489Y-98604275D01*
X99017543Y-98499871D01*
X99244386Y-98348299D01*
X99437299Y-98155386D01*
X99588871Y-97928543D01*
X99693275Y-97676489D01*
X99746500Y-97408911D01*
X99746500Y-97136089D01*
X99693275Y-96868511D01*
X99588871Y-96616457D01*
X99437299Y-96389614D01*
X99244386Y-96196701D01*
X99017543Y-96045129D01*
X98765489Y-95940725D01*
X98497911Y-95887500D01*
X98225089Y-95887500D01*
X97957511Y-95940725D01*
X97705457Y-96045129D01*
X97478614Y-96196701D01*
X97285701Y-96389614D01*
X97134129Y-96616457D01*
X97029725Y-96868511D01*
X96976500Y-97136089D01*
X90660000Y-97136089D01*
X90660000Y-95285750D01*
X107515000Y-95285750D01*
X107515000Y-95912542D01*
X107539403Y-96035223D01*
X107587270Y-96150785D01*
X107656763Y-96254789D01*
X107745211Y-96343237D01*
X107849215Y-96412730D01*
X107964777Y-96460597D01*
X108087458Y-96485000D01*
X108714250Y-96485000D01*
X108873000Y-96326250D01*
X108873000Y-95127000D01*
X107673750Y-95127000D01*
X107515000Y-95285750D01*
X90660000Y-95285750D01*
X90660000Y-94087458D01*
X107515000Y-94087458D01*
X107515000Y-94714250D01*
X107673750Y-94873000D01*
X108873000Y-94873000D01*
X108873000Y-93673750D01*
X109127000Y-93673750D01*
X109127000Y-94873000D01*
X111413000Y-94873000D01*
X111413000Y-93679845D01*
X111183110Y-93558524D01*
X111035901Y-93603175D01*
X110773080Y-93728359D01*
X110539731Y-93902412D01*
X110464740Y-93985607D01*
X110460597Y-93964777D01*
X110412730Y-93849215D01*
X110343237Y-93745211D01*
X110254789Y-93656763D01*
X110150785Y-93587270D01*
X110035223Y-93539403D01*
X109912542Y-93515000D01*
X109285750Y-93515000D01*
X109127000Y-93673750D01*
X108873000Y-93673750D01*
X108714250Y-93515000D01*
X108087458Y-93515000D01*
X107964777Y-93539403D01*
X107849215Y-93587270D01*
X107745211Y-93656763D01*
X107656763Y-93745211D01*
X107587270Y-93849215D01*
X107539403Y-93964777D01*
X107515000Y-94087458D01*
X90660000Y-94087458D01*
X90660000Y-92256089D01*
X96976500Y-92256089D01*
X96976500Y-92528911D01*
X97029725Y-92796489D01*
X97134129Y-93048543D01*
X97285701Y-93275386D01*
X97478614Y-93468299D01*
X97705457Y-93619871D01*
X97957511Y-93724275D01*
X98225089Y-93777500D01*
X98497911Y-93777500D01*
X98765489Y-93724275D01*
X99017543Y-93619871D01*
X99244386Y-93468299D01*
X99437299Y-93275386D01*
X99588871Y-93048543D01*
X99693275Y-92796489D01*
X99746500Y-92528911D01*
X99746500Y-92256089D01*
X99693275Y-91988511D01*
X99588871Y-91736457D01*
X99437299Y-91509614D01*
X99244386Y-91316701D01*
X99017543Y-91165129D01*
X98765489Y-91060725D01*
X98497911Y-91007500D01*
X98225089Y-91007500D01*
X97957511Y-91060725D01*
X97705457Y-91165129D01*
X97478614Y-91316701D01*
X97285701Y-91509614D01*
X97134129Y-91736457D01*
X97029725Y-91988511D01*
X96976500Y-92256089D01*
X90660000Y-92256089D01*
X90660000Y-90709750D01*
X101203000Y-90709750D01*
X101203000Y-92861542D01*
X101227403Y-92984223D01*
X101275270Y-93099785D01*
X101344763Y-93203789D01*
X101433211Y-93292237D01*
X101537215Y-93361730D01*
X101652777Y-93409597D01*
X101775458Y-93434000D01*
X102164750Y-93434000D01*
X102323500Y-93275250D01*
X102323500Y-90551000D01*
X102577500Y-90551000D01*
X102577500Y-93275250D01*
X102736250Y-93434000D01*
X103125542Y-93434000D01*
X103248223Y-93409597D01*
X103363785Y-93361730D01*
X103467789Y-93292237D01*
X103556237Y-93203789D01*
X103625730Y-93099785D01*
X103673597Y-92984223D01*
X103698000Y-92861542D01*
X103698000Y-90709750D01*
X103539250Y-90551000D01*
X102577500Y-90551000D01*
X102323500Y-90551000D01*
X101361750Y-90551000D01*
X101203000Y-90709750D01*
X90660000Y-90709750D01*
X90660000Y-87986458D01*
X101203000Y-87986458D01*
X101203000Y-90138250D01*
X101361750Y-90297000D01*
X102323500Y-90297000D01*
X102323500Y-87572750D01*
X102577500Y-87572750D01*
X102577500Y-90297000D01*
X103539250Y-90297000D01*
X103698000Y-90138250D01*
X103698000Y-88299000D01*
X104324928Y-88299000D01*
X104324928Y-92549000D01*
X104341992Y-92722254D01*
X104392528Y-92888850D01*
X104474595Y-93042386D01*
X104585038Y-93176962D01*
X104719614Y-93287405D01*
X104873150Y-93369472D01*
X105039746Y-93420008D01*
X105213000Y-93437072D01*
X105938000Y-93437072D01*
X106111254Y-93420008D01*
X106277850Y-93369472D01*
X106431386Y-93287405D01*
X106565962Y-93176962D01*
X106676405Y-93042386D01*
X106758472Y-92888850D01*
X106809008Y-92722254D01*
X106826072Y-92549000D01*
X106826072Y-88299319D01*
X107402591Y-87722800D01*
X107553788Y-87722800D01*
X107773067Y-87679183D01*
X107979624Y-87593624D01*
X108165520Y-87469412D01*
X108323612Y-87311320D01*
X108447824Y-87125424D01*
X108533383Y-86918867D01*
X108577000Y-86699588D01*
X108577000Y-86476012D01*
X108533383Y-86256733D01*
X108447824Y-86050176D01*
X108323612Y-85864280D01*
X108165520Y-85706188D01*
X107979624Y-85581976D01*
X107773067Y-85496417D01*
X107553788Y-85452800D01*
X107330212Y-85452800D01*
X107110933Y-85496417D01*
X106904376Y-85581976D01*
X106718480Y-85706188D01*
X106560388Y-85864280D01*
X106436176Y-86050176D01*
X106350617Y-86256733D01*
X106307000Y-86476012D01*
X106307000Y-86627209D01*
X105523281Y-87410928D01*
X105213000Y-87410928D01*
X105039746Y-87427992D01*
X104873150Y-87478528D01*
X104719614Y-87560595D01*
X104585038Y-87671038D01*
X104474595Y-87805614D01*
X104392528Y-87959150D01*
X104341992Y-88125746D01*
X104324928Y-88299000D01*
X103698000Y-88299000D01*
X103698000Y-87986458D01*
X103673597Y-87863777D01*
X103625730Y-87748215D01*
X103556237Y-87644211D01*
X103467789Y-87555763D01*
X103363785Y-87486270D01*
X103248223Y-87438403D01*
X103125542Y-87414000D01*
X102736250Y-87414000D01*
X102577500Y-87572750D01*
X102323500Y-87572750D01*
X102164750Y-87414000D01*
X101775458Y-87414000D01*
X101652777Y-87438403D01*
X101537215Y-87486270D01*
X101433211Y-87555763D01*
X101344763Y-87644211D01*
X101275270Y-87748215D01*
X101227403Y-87863777D01*
X101203000Y-87986458D01*
X90660000Y-87986458D01*
X90660000Y-85914890D01*
X98230524Y-85914890D01*
X98232446Y-85927261D01*
X98332146Y-86201009D01*
X98483336Y-86450046D01*
X98680205Y-86664802D01*
X98915188Y-86837025D01*
X99179255Y-86960096D01*
X99462258Y-87029285D01*
X99695000Y-86885232D01*
X99695000Y-85685000D01*
X99949000Y-85685000D01*
X99949000Y-86885232D01*
X100181742Y-87029285D01*
X100464745Y-86960096D01*
X100728812Y-86837025D01*
X100963795Y-86664802D01*
X101160664Y-86450046D01*
X101311854Y-86201009D01*
X101411554Y-85927261D01*
X101413476Y-85914890D01*
X101292155Y-85685000D01*
X99949000Y-85685000D01*
X99695000Y-85685000D01*
X98351845Y-85685000D01*
X98230524Y-85914890D01*
X90660000Y-85914890D01*
X90660000Y-82458000D01*
X98183928Y-82458000D01*
X98183928Y-83658000D01*
X98200992Y-83831254D01*
X98251528Y-83997850D01*
X98333595Y-84151386D01*
X98444038Y-84285962D01*
X98578614Y-84396405D01*
X98680593Y-84450914D01*
X98680205Y-84451198D01*
X98483336Y-84665954D01*
X98332146Y-84914991D01*
X98232446Y-85188739D01*
X98230524Y-85201110D01*
X98351845Y-85431000D01*
X99695000Y-85431000D01*
X99695000Y-85411000D01*
X99949000Y-85411000D01*
X99949000Y-85431000D01*
X101292155Y-85431000D01*
X101413476Y-85201110D01*
X101411554Y-85188739D01*
X101311854Y-84914991D01*
X101160664Y-84665954D01*
X100963795Y-84451198D01*
X100963407Y-84450914D01*
X101065386Y-84396405D01*
X101199962Y-84285962D01*
X101310405Y-84151386D01*
X101392472Y-83997850D01*
X101443008Y-83831254D01*
X101460072Y-83658000D01*
X101460072Y-82458000D01*
X101443008Y-82284746D01*
X101392472Y-82118150D01*
X101310405Y-81964614D01*
X101199962Y-81830038D01*
X101065386Y-81719595D01*
X100911850Y-81637528D01*
X100857000Y-81620890D01*
X100857000Y-81516009D01*
X108812693Y-81516009D01*
X108813000Y-81601639D01*
X108813000Y-81912542D01*
X108837403Y-82035223D01*
X108885270Y-82150785D01*
X108954763Y-82254789D01*
X109043211Y-82343237D01*
X109147215Y-82412730D01*
X109262777Y-82460597D01*
X109385458Y-82485000D01*
X109612436Y-82485000D01*
X109614009Y-82485307D01*
X109699639Y-82485000D01*
X110712250Y-82485000D01*
X110744943Y-82452307D01*
X110870998Y-82476912D01*
X110870998Y-82485000D01*
X110912436Y-82485000D01*
X110914009Y-82485307D01*
X110999639Y-82485000D01*
X111125002Y-82485000D01*
X111125002Y-82477252D01*
X111250559Y-82451809D01*
X111283750Y-82485000D01*
X112212436Y-82485000D01*
X112214009Y-82485307D01*
X112299639Y-82485000D01*
X112610542Y-82485000D01*
X112733223Y-82460597D01*
X112848785Y-82412730D01*
X112952789Y-82343237D01*
X113041237Y-82254789D01*
X113110730Y-82150785D01*
X113158597Y-82035223D01*
X113183000Y-81912542D01*
X113183000Y-81685564D01*
X113183307Y-81683991D01*
X113183000Y-81598361D01*
X113183000Y-80930750D01*
X113024250Y-80772000D01*
X112611407Y-80772000D01*
X112553092Y-80748090D01*
X112381991Y-80714693D01*
X112207662Y-80715318D01*
X112036805Y-80749941D01*
X111983550Y-80772000D01*
X111311407Y-80772000D01*
X111253092Y-80748090D01*
X111081991Y-80714693D01*
X110907662Y-80715318D01*
X110736805Y-80749941D01*
X110683550Y-80772000D01*
X110011407Y-80772000D01*
X109953092Y-80748090D01*
X109781991Y-80714693D01*
X109607662Y-80715318D01*
X109436805Y-80749941D01*
X109383550Y-80772000D01*
X108971750Y-80772000D01*
X108813000Y-80930750D01*
X108813000Y-81514436D01*
X108812693Y-81516009D01*
X100857000Y-81516009D01*
X100857000Y-79606009D01*
X108812693Y-79606009D01*
X108813000Y-79691639D01*
X108813000Y-80359250D01*
X108971750Y-80518000D01*
X109384593Y-80518000D01*
X109442908Y-80541910D01*
X109614009Y-80575307D01*
X109788338Y-80574682D01*
X109959195Y-80540059D01*
X110012450Y-80518000D01*
X110684593Y-80518000D01*
X110742908Y-80541910D01*
X110914009Y-80575307D01*
X111088338Y-80574682D01*
X111259195Y-80540059D01*
X111312450Y-80518000D01*
X111984593Y-80518000D01*
X112042908Y-80541910D01*
X112214009Y-80575307D01*
X112388338Y-80574682D01*
X112559195Y-80540059D01*
X112612450Y-80518000D01*
X113024250Y-80518000D01*
X113183000Y-80359250D01*
X113183000Y-79775564D01*
X113183307Y-79773991D01*
X113183000Y-79688361D01*
X113183000Y-79377458D01*
X113158597Y-79254777D01*
X113110730Y-79139215D01*
X113041237Y-79035211D01*
X112952789Y-78946763D01*
X112848785Y-78877270D01*
X112733223Y-78829403D01*
X112610542Y-78805000D01*
X112383564Y-78805000D01*
X112381991Y-78804693D01*
X112296361Y-78805000D01*
X111283750Y-78805000D01*
X111251057Y-78837693D01*
X111125002Y-78813088D01*
X111125002Y-78805000D01*
X111083564Y-78805000D01*
X111081991Y-78804693D01*
X110996361Y-78805000D01*
X110870998Y-78805000D01*
X110870998Y-78812748D01*
X110745441Y-78838191D01*
X110712250Y-78805000D01*
X109783564Y-78805000D01*
X109781991Y-78804693D01*
X109696361Y-78805000D01*
X109385458Y-78805000D01*
X109262777Y-78829403D01*
X109147215Y-78877270D01*
X109043211Y-78946763D01*
X108954763Y-79035211D01*
X108885270Y-79139215D01*
X108837403Y-79254777D01*
X108813000Y-79377458D01*
X108813000Y-79604436D01*
X108812693Y-79606009D01*
X100857000Y-79606009D01*
X100857000Y-71526062D01*
X108355399Y-71526062D01*
X108355399Y-71729940D01*
X108395173Y-71929899D01*
X108473194Y-72118257D01*
X108586462Y-72287775D01*
X108730625Y-72431938D01*
X108900143Y-72545206D01*
X109088501Y-72623227D01*
X109277758Y-72660872D01*
X113490002Y-76873117D01*
X113490003Y-82915300D01*
X113382797Y-83075746D01*
X113304776Y-83264104D01*
X113265002Y-83464063D01*
X113265002Y-83667941D01*
X113304776Y-83867900D01*
X113382797Y-84056258D01*
X113496065Y-84225776D01*
X113640228Y-84369939D01*
X113809746Y-84483207D01*
X113998104Y-84561228D01*
X114198063Y-84601002D01*
X114401941Y-84601002D01*
X114601900Y-84561228D01*
X114790258Y-84483207D01*
X114959776Y-84369939D01*
X115103939Y-84225776D01*
X115217207Y-84056258D01*
X115295228Y-83867900D01*
X115335002Y-83667941D01*
X115335002Y-83464063D01*
X115295228Y-83264104D01*
X115217207Y-83075746D01*
X115110002Y-82915302D01*
X115110002Y-76577391D01*
X115113921Y-76537603D01*
X115110002Y-76497813D01*
X115098282Y-76378816D01*
X115051965Y-76226131D01*
X115016953Y-76160628D01*
X114976751Y-76085414D01*
X114931121Y-76029814D01*
X114875530Y-75962076D01*
X114844621Y-75936710D01*
X110423270Y-71515360D01*
X110385625Y-71326103D01*
X110307604Y-71137745D01*
X110194336Y-70968227D01*
X110050173Y-70824064D01*
X109880655Y-70710796D01*
X109692297Y-70632775D01*
X109492338Y-70593001D01*
X109288460Y-70593001D01*
X109088501Y-70632775D01*
X108900143Y-70710796D01*
X108730625Y-70824064D01*
X108586462Y-70968227D01*
X108473194Y-71137745D01*
X108395173Y-71326103D01*
X108355399Y-71526062D01*
X100857000Y-71526062D01*
X100857000Y-70532710D01*
X102155711Y-69234000D01*
X109872672Y-69234000D01*
X109923500Y-69239006D01*
X109974328Y-69234000D01*
X109974338Y-69234000D01*
X110126395Y-69219024D01*
X110321493Y-69159841D01*
X110501297Y-69063734D01*
X110658896Y-68934396D01*
X110691307Y-68894903D01*
X112337797Y-67248413D01*
X112442736Y-67227540D01*
X112667492Y-67134443D01*
X112869767Y-66999287D01*
X113041787Y-66827267D01*
X113176943Y-66624992D01*
X113270040Y-66400236D01*
X113317500Y-66161637D01*
X113317500Y-65918363D01*
X113270040Y-65679764D01*
X113176943Y-65455008D01*
X113041787Y-65252733D01*
X112869767Y-65080713D01*
X112667492Y-64945557D01*
X112442736Y-64852460D01*
X112204137Y-64805000D01*
X111960863Y-64805000D01*
X111722264Y-64852460D01*
X111497508Y-64945557D01*
X111295233Y-65080713D01*
X111123213Y-65252733D01*
X110988057Y-65455008D01*
X110894960Y-65679764D01*
X110874087Y-65784703D01*
X109494790Y-67164000D01*
X101777835Y-67164000D01*
X101727000Y-67158993D01*
X101676165Y-67164000D01*
X101676162Y-67164000D01*
X101524105Y-67178976D01*
X101329007Y-67238159D01*
X101274013Y-67267554D01*
X101149202Y-67334266D01*
X101086753Y-67385517D01*
X100991604Y-67463604D01*
X100959197Y-67503092D01*
X100857000Y-67605289D01*
X100857000Y-62023710D01*
X102236297Y-60644413D01*
X102341236Y-60623540D01*
X102565992Y-60530443D01*
X102768267Y-60395287D01*
X102940287Y-60223267D01*
X103075443Y-60020992D01*
X103168540Y-59796236D01*
X103216000Y-59557637D01*
X103216000Y-59314363D01*
X103168540Y-59075764D01*
X103075443Y-58851008D01*
X102940287Y-58648733D01*
X102768267Y-58476713D01*
X102565992Y-58341557D01*
X102341236Y-58248460D01*
X102102637Y-58201000D01*
X101859363Y-58201000D01*
X101620764Y-58248460D01*
X101396008Y-58341557D01*
X101193733Y-58476713D01*
X101021713Y-58648733D01*
X100886557Y-58851008D01*
X100793460Y-59075764D01*
X100772587Y-59180703D01*
X99126097Y-60827193D01*
X99086604Y-60859604D01*
X98957266Y-61017203D01*
X98861159Y-61197008D01*
X98801976Y-61392106D01*
X98787000Y-61544163D01*
X98787000Y-61544172D01*
X98781994Y-61595000D01*
X98787000Y-61645828D01*
X98787001Y-70053153D01*
X98787000Y-70053163D01*
X98787000Y-70053172D01*
X98781994Y-70104000D01*
X98787000Y-70154828D01*
X98787001Y-81620889D01*
X98732150Y-81637528D01*
X98578614Y-81719595D01*
X98444038Y-81830038D01*
X98333595Y-81964614D01*
X98251528Y-82118150D01*
X98200992Y-82284746D01*
X98183928Y-82458000D01*
X90660000Y-82458000D01*
X90660000Y-77947552D01*
X90800163Y-78089521D01*
X90997620Y-78223294D01*
X91217381Y-78315974D01*
X91451000Y-78364000D01*
X91776000Y-78364000D01*
X91776000Y-77281000D01*
X92030000Y-77281000D01*
X92030000Y-78364000D01*
X92355000Y-78364000D01*
X92588619Y-78315974D01*
X92808380Y-78223294D01*
X93005837Y-78089521D01*
X93173402Y-77919797D01*
X93304636Y-77720644D01*
X93394496Y-77499715D01*
X93396635Y-77467677D01*
X93311927Y-77341258D01*
X94110481Y-77341258D01*
X94122922Y-77407117D01*
X94226643Y-77653979D01*
X94376531Y-77875863D01*
X94566827Y-78064242D01*
X94790217Y-78211876D01*
X95038117Y-78313092D01*
X95301000Y-78364000D01*
X95576000Y-78364000D01*
X95576000Y-77131000D01*
X95830000Y-77131000D01*
X95830000Y-78364000D01*
X96105000Y-78364000D01*
X96367883Y-78313092D01*
X96615783Y-78211876D01*
X96839173Y-78064242D01*
X97029469Y-77875863D01*
X97179357Y-77653979D01*
X97283078Y-77407117D01*
X97295519Y-77341258D01*
X97172518Y-77131000D01*
X95830000Y-77131000D01*
X95576000Y-77131000D01*
X94233482Y-77131000D01*
X94110481Y-77341258D01*
X93311927Y-77341258D01*
X93271550Y-77281000D01*
X92030000Y-77281000D01*
X91776000Y-77281000D01*
X91756000Y-77281000D01*
X91756000Y-77027000D01*
X91776000Y-77027000D01*
X91776000Y-75944000D01*
X92030000Y-75944000D01*
X92030000Y-77027000D01*
X93271550Y-77027000D01*
X93396635Y-76840323D01*
X93394496Y-76808285D01*
X93304636Y-76587356D01*
X93173402Y-76388203D01*
X93005837Y-76218479D01*
X92808380Y-76084706D01*
X92588619Y-75992026D01*
X92355000Y-75944000D01*
X92030000Y-75944000D01*
X91776000Y-75944000D01*
X91451000Y-75944000D01*
X91217381Y-75992026D01*
X90997620Y-76084706D01*
X90800163Y-76218479D01*
X90660000Y-76360448D01*
X90660000Y-75779000D01*
X93612993Y-75779000D01*
X93632976Y-75981895D01*
X93692159Y-76176993D01*
X93788266Y-76356797D01*
X93917604Y-76514396D01*
X94075203Y-76643734D01*
X94111193Y-76662971D01*
X94110481Y-76666742D01*
X94233482Y-76877000D01*
X95576000Y-76877000D01*
X95576000Y-76247789D01*
X95613841Y-76176993D01*
X95673024Y-75981895D01*
X95693007Y-75779000D01*
X95679711Y-75644000D01*
X95830000Y-75644000D01*
X95830000Y-76877000D01*
X97172518Y-76877000D01*
X97295519Y-76666742D01*
X97283078Y-76600883D01*
X97179357Y-76354021D01*
X97029469Y-76132137D01*
X96839173Y-75943758D01*
X96615783Y-75796124D01*
X96367883Y-75694908D01*
X96105000Y-75644000D01*
X95830000Y-75644000D01*
X95679711Y-75644000D01*
X95673024Y-75576105D01*
X95613841Y-75381007D01*
X95517734Y-75201203D01*
X95388396Y-75043604D01*
X95230797Y-74914266D01*
X95050993Y-74818159D01*
X94855895Y-74758976D01*
X94703838Y-74744000D01*
X94602162Y-74744000D01*
X94450105Y-74758976D01*
X94255007Y-74818159D01*
X94075203Y-74914266D01*
X93917604Y-75043604D01*
X93788266Y-75201203D01*
X93692159Y-75381007D01*
X93632976Y-75576105D01*
X93612993Y-75779000D01*
X90660000Y-75779000D01*
X90660000Y-70779000D01*
X93612993Y-70779000D01*
X93632976Y-70981895D01*
X93692159Y-71176993D01*
X93788266Y-71356797D01*
X93917604Y-71514396D01*
X94075203Y-71643734D01*
X94255007Y-71739841D01*
X94450105Y-71799024D01*
X94602162Y-71814000D01*
X94703838Y-71814000D01*
X94855895Y-71799024D01*
X95050993Y-71739841D01*
X95230797Y-71643734D01*
X95388396Y-71514396D01*
X95517734Y-71356797D01*
X95613841Y-71176993D01*
X95673024Y-70981895D01*
X95693007Y-70779000D01*
X95673024Y-70576105D01*
X95613841Y-70381007D01*
X95576000Y-70310211D01*
X95576000Y-69681000D01*
X95830000Y-69681000D01*
X95830000Y-70914000D01*
X96105000Y-70914000D01*
X96367883Y-70863092D01*
X96615783Y-70761876D01*
X96839173Y-70614242D01*
X97029469Y-70425863D01*
X97179357Y-70203979D01*
X97283078Y-69957117D01*
X97295519Y-69891258D01*
X97172518Y-69681000D01*
X95830000Y-69681000D01*
X95576000Y-69681000D01*
X94233482Y-69681000D01*
X94110481Y-69891258D01*
X94111193Y-69895029D01*
X94075203Y-69914266D01*
X93917604Y-70043604D01*
X93788266Y-70201203D01*
X93692159Y-70381007D01*
X93632976Y-70576105D01*
X93612993Y-70779000D01*
X90660000Y-70779000D01*
X90660000Y-70197552D01*
X90800163Y-70339521D01*
X90997620Y-70473294D01*
X91217381Y-70565974D01*
X91451000Y-70614000D01*
X91776000Y-70614000D01*
X91776000Y-69531000D01*
X92030000Y-69531000D01*
X92030000Y-70614000D01*
X92355000Y-70614000D01*
X92588619Y-70565974D01*
X92808380Y-70473294D01*
X93005837Y-70339521D01*
X93173402Y-70169797D01*
X93304636Y-69970644D01*
X93394496Y-69749715D01*
X93396635Y-69717677D01*
X93271550Y-69531000D01*
X92030000Y-69531000D01*
X91776000Y-69531000D01*
X91756000Y-69531000D01*
X91756000Y-69277000D01*
X91776000Y-69277000D01*
X91776000Y-68194000D01*
X92030000Y-68194000D01*
X92030000Y-69277000D01*
X93271550Y-69277000D01*
X93311926Y-69216742D01*
X94110481Y-69216742D01*
X94233482Y-69427000D01*
X95576000Y-69427000D01*
X95576000Y-68194000D01*
X95830000Y-68194000D01*
X95830000Y-69427000D01*
X97172518Y-69427000D01*
X97295519Y-69216742D01*
X97283078Y-69150883D01*
X97179357Y-68904021D01*
X97029469Y-68682137D01*
X96839173Y-68493758D01*
X96615783Y-68346124D01*
X96367883Y-68244908D01*
X96105000Y-68194000D01*
X95830000Y-68194000D01*
X95576000Y-68194000D01*
X95301000Y-68194000D01*
X95038117Y-68244908D01*
X94790217Y-68346124D01*
X94566827Y-68493758D01*
X94376531Y-68682137D01*
X94226643Y-68904021D01*
X94122922Y-69150883D01*
X94110481Y-69216742D01*
X93311926Y-69216742D01*
X93396635Y-69090323D01*
X93394496Y-69058285D01*
X93304636Y-68837356D01*
X93173402Y-68638203D01*
X93005837Y-68468479D01*
X92808380Y-68334706D01*
X92588619Y-68242026D01*
X92355000Y-68194000D01*
X92030000Y-68194000D01*
X91776000Y-68194000D01*
X91451000Y-68194000D01*
X91217381Y-68242026D01*
X90997620Y-68334706D01*
X90800163Y-68468479D01*
X90660000Y-68610448D01*
X90660000Y-56345374D01*
X91834231Y-56345374D01*
X92134411Y-56783828D01*
X92713356Y-57094296D01*
X93341746Y-57285852D01*
X93995431Y-57351134D01*
X94649293Y-57287634D01*
X95278203Y-57097792D01*
X95857992Y-56788904D01*
X95865589Y-56783828D01*
X96165769Y-56345374D01*
X94000000Y-54179605D01*
X91834231Y-56345374D01*
X90660000Y-56345374D01*
X90660000Y-54110078D01*
X90712366Y-54649293D01*
X90902208Y-55278203D01*
X91211096Y-55857992D01*
X91216172Y-55865589D01*
X91654626Y-56165769D01*
X93820395Y-54000000D01*
X94179605Y-54000000D01*
X96345374Y-56165769D01*
X96783828Y-55865589D01*
X97020636Y-55424000D01*
X112163928Y-55424000D01*
X112163928Y-59384000D01*
X112176188Y-59508482D01*
X112212498Y-59628180D01*
X112271463Y-59738494D01*
X112350815Y-59835185D01*
X112447506Y-59914537D01*
X112557820Y-59973502D01*
X112677518Y-60009812D01*
X112802000Y-60022072D01*
X114782000Y-60022072D01*
X114906482Y-60009812D01*
X115026180Y-59973502D01*
X115136494Y-59914537D01*
X115233185Y-59835185D01*
X115312537Y-59738494D01*
X115371502Y-59628180D01*
X115407812Y-59508482D01*
X115420072Y-59384000D01*
X115420072Y-57531000D01*
X117167000Y-57531000D01*
X117167000Y-58521000D01*
X117223000Y-58835582D01*
X117339296Y-59133194D01*
X117511419Y-59402399D01*
X117732754Y-59632852D01*
X117994795Y-59815696D01*
X118287472Y-59943905D01*
X118413135Y-59974218D01*
X118665000Y-59854740D01*
X118665000Y-57531000D01*
X118919000Y-57531000D01*
X118919000Y-59854740D01*
X119170865Y-59974218D01*
X119296528Y-59943905D01*
X119589205Y-59815696D01*
X119851246Y-59632852D01*
X120072581Y-59402399D01*
X120244704Y-59133194D01*
X120361000Y-58835582D01*
X120417000Y-58521000D01*
X120417000Y-57531000D01*
X118919000Y-57531000D01*
X118665000Y-57531000D01*
X117167000Y-57531000D01*
X115420072Y-57531000D01*
X115420072Y-56287000D01*
X117167000Y-56287000D01*
X117167000Y-57277000D01*
X118665000Y-57277000D01*
X118665000Y-54953260D01*
X118919000Y-54953260D01*
X118919000Y-57277000D01*
X120417000Y-57277000D01*
X120417000Y-56287000D01*
X120361000Y-55972418D01*
X120244704Y-55674806D01*
X120072581Y-55405601D01*
X119851246Y-55175148D01*
X119589205Y-54992304D01*
X119296528Y-54864095D01*
X119170865Y-54833782D01*
X118919000Y-54953260D01*
X118665000Y-54953260D01*
X118413135Y-54833782D01*
X118287472Y-54864095D01*
X117994795Y-54992304D01*
X117732754Y-55175148D01*
X117511419Y-55405601D01*
X117339296Y-55674806D01*
X117223000Y-55972418D01*
X117167000Y-56287000D01*
X115420072Y-56287000D01*
X115420072Y-55424000D01*
X115407812Y-55299518D01*
X115371502Y-55179820D01*
X115312537Y-55069506D01*
X115233185Y-54972815D01*
X115136494Y-54893463D01*
X115026180Y-54834498D01*
X114906482Y-54798188D01*
X114782000Y-54785928D01*
X112802000Y-54785928D01*
X112677518Y-54798188D01*
X112557820Y-54834498D01*
X112447506Y-54893463D01*
X112350815Y-54972815D01*
X112271463Y-55069506D01*
X112212498Y-55179820D01*
X112176188Y-55299518D01*
X112163928Y-55424000D01*
X97020636Y-55424000D01*
X97094296Y-55286644D01*
X97285852Y-54658254D01*
X97351134Y-54004569D01*
X97302716Y-53505999D01*
X134635928Y-53505999D01*
X134635928Y-55206001D01*
X134652992Y-55379255D01*
X134703528Y-55545851D01*
X134785595Y-55699387D01*
X134896038Y-55833962D01*
X135030613Y-55944405D01*
X135184149Y-56026472D01*
X135350745Y-56077008D01*
X135523999Y-56094072D01*
X136764001Y-56094072D01*
X136937255Y-56077008D01*
X137103851Y-56026472D01*
X137257387Y-55944405D01*
X137391962Y-55833962D01*
X137502405Y-55699387D01*
X137560507Y-55590686D01*
X137713506Y-55746536D01*
X137958563Y-55913571D01*
X138231498Y-56029588D01*
X138323969Y-56047302D01*
X138557000Y-55926246D01*
X138557000Y-54483000D01*
X138537000Y-54483000D01*
X138537000Y-54229000D01*
X138557000Y-54229000D01*
X138557000Y-52785754D01*
X138323969Y-52664698D01*
X138231498Y-52682412D01*
X137958563Y-52798429D01*
X137713506Y-52965464D01*
X137560507Y-53121314D01*
X137502405Y-53012613D01*
X137391962Y-52878038D01*
X137257387Y-52767595D01*
X137103851Y-52685528D01*
X136937255Y-52634992D01*
X136764001Y-52617928D01*
X135523999Y-52617928D01*
X135350745Y-52634992D01*
X135184149Y-52685528D01*
X135030613Y-52767595D01*
X134896038Y-52878038D01*
X134785595Y-53012613D01*
X134703528Y-53166149D01*
X134652992Y-53332745D01*
X134635928Y-53505999D01*
X97302716Y-53505999D01*
X97287634Y-53350707D01*
X97097792Y-52721797D01*
X96788904Y-52142008D01*
X96783828Y-52134411D01*
X96345374Y-51834231D01*
X94179605Y-54000000D01*
X93820395Y-54000000D01*
X91654626Y-51834231D01*
X91216172Y-52134411D01*
X90905704Y-52713356D01*
X90714148Y-53341746D01*
X90660000Y-53883943D01*
X90660000Y-50660000D01*
X93889922Y-50660000D01*
X93350707Y-50712366D01*
X93350707Y-50712366D01*
G37*
X93350707Y-50712366D02*
X92721797Y-50902208D01*
X92142008Y-51211096D01*
X92134411Y-51216172D01*
X91834231Y-51654626D01*
X94000000Y-53820395D01*
X96165769Y-51654626D01*
X95865589Y-51216172D01*
X95286644Y-50905704D01*
X94658254Y-50714148D01*
X94116057Y-50660000D01*
X155889922Y-50660000D01*
X155350707Y-50712366D01*
X154721797Y-50902208D01*
X154142008Y-51211096D01*
X154134411Y-51216172D01*
X153834231Y-51654626D01*
X156000000Y-53820395D01*
X158165769Y-51654626D01*
X157865589Y-51216172D01*
X157286644Y-50905704D01*
X156658254Y-50714148D01*
X156116057Y-50660000D01*
X159340000Y-50660000D01*
X159340000Y-53889922D01*
X159287634Y-53350707D01*
X159097792Y-52721797D01*
X158788904Y-52142008D01*
X158783828Y-52134411D01*
X158345374Y-51834231D01*
X156179605Y-54000000D01*
X158345374Y-56165769D01*
X158783828Y-55865589D01*
X159094296Y-55286644D01*
X159285852Y-54658254D01*
X159340000Y-54116056D01*
X159340001Y-115889931D01*
X159287634Y-115350707D01*
X159097792Y-114721797D01*
X158788904Y-114142008D01*
X158783828Y-114134411D01*
X158345374Y-113834231D01*
X156179605Y-116000000D01*
X158345374Y-118165769D01*
X158783828Y-117865589D01*
X159094296Y-117286644D01*
X159285852Y-116658254D01*
X159340001Y-116116047D01*
X159340001Y-119340000D01*
X156110078Y-119340000D01*
X156649293Y-119287634D01*
X157278203Y-119097792D01*
X157857992Y-118788904D01*
X157865589Y-118783828D01*
X158165769Y-118345374D01*
X156000000Y-116179605D01*
X153834231Y-118345374D01*
X154134411Y-118783828D01*
X154713356Y-119094296D01*
X155341746Y-119285852D01*
X155883943Y-119340000D01*
X93455078Y-119340000D01*
X93994293Y-119287634D01*
X94623203Y-119097792D01*
X95202992Y-118788904D01*
X95210589Y-118783828D01*
X95510769Y-118345374D01*
X93345000Y-116179605D01*
X91179231Y-118345374D01*
X91479411Y-118783828D01*
X92058356Y-119094296D01*
X92686746Y-119285852D01*
X93228943Y-119340000D01*
X90660000Y-119340000D01*
X90660000Y-117933250D01*
X90999626Y-118165769D01*
X93165395Y-116000000D01*
X90999626Y-113834231D01*
X90660000Y-114066750D01*
X90660000Y-113654626D01*
X91179231Y-113654626D01*
X93345000Y-115820395D01*
X93359143Y-115806253D01*
X93538748Y-115985858D01*
X93524605Y-116000000D01*
X95690374Y-118165769D01*
X96128828Y-117865589D01*
X96439296Y-117286644D01*
X96575449Y-116840000D01*
X125205339Y-116840000D01*
X125227929Y-117069360D01*
X125294831Y-117289906D01*
X125403474Y-117493162D01*
X125549682Y-117671318D01*
X125727838Y-117817526D01*
X125931094Y-117926169D01*
X126151640Y-117993071D01*
X126323523Y-118010000D01*
X127168477Y-118010000D01*
X127340360Y-117993071D01*
X127560906Y-117926169D01*
X127764162Y-117817526D01*
X127942318Y-117671318D01*
X128088526Y-117493162D01*
X128197169Y-117289906D01*
X128264071Y-117069360D01*
X128286661Y-116840000D01*
X128264071Y-116610640D01*
X128204052Y-116412786D01*
X128208730Y-116405785D01*
X128248393Y-116310027D01*
X134943037Y-116310027D01*
X135041036Y-116586978D01*
X135191183Y-116839488D01*
X135387707Y-117057854D01*
X135623056Y-117233684D01*
X135888186Y-117360222D01*
X136038974Y-117405958D01*
X136271000Y-117284817D01*
X136271000Y-116078000D01*
X135063536Y-116078000D01*
X134943037Y-116310027D01*
X128248393Y-116310027D01*
X128256597Y-116290223D01*
X128281000Y-116167542D01*
X128281000Y-115855750D01*
X128122250Y-115697000D01*
X127373560Y-115697000D01*
X127340360Y-115686929D01*
X127168477Y-115670000D01*
X126323523Y-115670000D01*
X126151640Y-115686929D01*
X126118440Y-115697000D01*
X125369750Y-115697000D01*
X125211000Y-115855750D01*
X125211000Y-116167542D01*
X125235403Y-116290223D01*
X125283270Y-116405785D01*
X125287948Y-116412786D01*
X125227929Y-116610640D01*
X125205339Y-116840000D01*
X96575449Y-116840000D01*
X96630852Y-116658254D01*
X96696134Y-116004569D01*
X96632634Y-115350707D01*
X96442792Y-114721797D01*
X96133904Y-114142008D01*
X96128828Y-114134411D01*
X95690376Y-113834232D01*
X95803981Y-113720627D01*
X95767342Y-113683988D01*
X95859927Y-113683988D01*
X96059886Y-113644214D01*
X96248244Y-113566193D01*
X96371273Y-113483988D01*
X102163368Y-113483988D01*
X102209980Y-113530600D01*
X102395876Y-113654812D01*
X102602433Y-113740371D01*
X102821712Y-113783988D01*
X103045288Y-113783988D01*
X103264567Y-113740371D01*
X103471124Y-113654812D01*
X103657020Y-113530600D01*
X103815112Y-113372508D01*
X103939324Y-113186612D01*
X104024883Y-112980055D01*
X104042082Y-112893589D01*
X105749000Y-112893589D01*
X105749000Y-113166411D01*
X105802225Y-113433989D01*
X105906629Y-113686043D01*
X106058201Y-113912886D01*
X106251114Y-114105799D01*
X106477957Y-114257371D01*
X106730011Y-114361775D01*
X106997589Y-114415000D01*
X107270411Y-114415000D01*
X107537989Y-114361775D01*
X107790043Y-114257371D01*
X108016886Y-114105799D01*
X108209799Y-113912886D01*
X108361371Y-113686043D01*
X108465775Y-113433989D01*
X108519000Y-113166411D01*
X108519000Y-112893589D01*
X110629000Y-112893589D01*
X110629000Y-113166411D01*
X110682225Y-113433989D01*
X110786629Y-113686043D01*
X110938201Y-113912886D01*
X111131114Y-114105799D01*
X111357957Y-114257371D01*
X111610011Y-114361775D01*
X111877589Y-114415000D01*
X112150411Y-114415000D01*
X112417989Y-114361775D01*
X112670043Y-114257371D01*
X112896886Y-114105799D01*
X113089799Y-113912886D01*
X113241371Y-113686043D01*
X113345775Y-113433989D01*
X113399000Y-113166411D01*
X113399000Y-113030000D01*
X125205339Y-113030000D01*
X125227929Y-113259360D01*
X125294831Y-113479906D01*
X125393766Y-113665000D01*
X125294831Y-113850094D01*
X125227929Y-114070640D01*
X125205339Y-114300000D01*
X125227929Y-114529360D01*
X125287948Y-114727214D01*
X125283270Y-114734215D01*
X125235403Y-114849777D01*
X125211000Y-114972458D01*
X125211000Y-115284250D01*
X125369750Y-115443000D01*
X126118440Y-115443000D01*
X126151640Y-115453071D01*
X126323523Y-115470000D01*
X127168477Y-115470000D01*
X127340360Y-115453071D01*
X127373560Y-115443000D01*
X128122250Y-115443000D01*
X128281000Y-115284250D01*
X128281000Y-114972458D01*
X128256597Y-114849777D01*
X128208730Y-114734215D01*
X128204052Y-114727214D01*
X128264071Y-114529360D01*
X128286661Y-114300000D01*
X128264071Y-114070640D01*
X128197169Y-113850094D01*
X128098234Y-113665000D01*
X128197169Y-113479906D01*
X128264071Y-113259360D01*
X128286661Y-113030000D01*
X128264071Y-112800640D01*
X128197169Y-112580094D01*
X128088526Y-112376838D01*
X127942318Y-112198682D01*
X127764162Y-112052474D01*
X127560906Y-111943831D01*
X127340360Y-111876929D01*
X127168477Y-111860000D01*
X126323523Y-111860000D01*
X126151640Y-111876929D01*
X125931094Y-111943831D01*
X125727838Y-112052474D01*
X125549682Y-112198682D01*
X125403474Y-112376838D01*
X125294831Y-112580094D01*
X125227929Y-112800640D01*
X125205339Y-113030000D01*
X113399000Y-113030000D01*
X113399000Y-112893589D01*
X113345775Y-112626011D01*
X113241371Y-112373957D01*
X113089799Y-112147114D01*
X112896886Y-111954201D01*
X112670043Y-111802629D01*
X112417989Y-111698225D01*
X112150411Y-111645000D01*
X111877589Y-111645000D01*
X111610011Y-111698225D01*
X111357957Y-111802629D01*
X111131114Y-111954201D01*
X110938201Y-112147114D01*
X110786629Y-112373957D01*
X110682225Y-112626011D01*
X110629000Y-112893589D01*
X108519000Y-112893589D01*
X108465775Y-112626011D01*
X108361371Y-112373957D01*
X108209799Y-112147114D01*
X108016886Y-111954201D01*
X107790043Y-111802629D01*
X107537989Y-111698225D01*
X107270411Y-111645000D01*
X106997589Y-111645000D01*
X106730011Y-111698225D01*
X106477957Y-111802629D01*
X106251114Y-111954201D01*
X106058201Y-112147114D01*
X105906629Y-112373957D01*
X105802225Y-112626011D01*
X105749000Y-112893589D01*
X104042082Y-112893589D01*
X104068500Y-112760776D01*
X104068500Y-112537200D01*
X104024883Y-112317921D01*
X103939324Y-112111364D01*
X103815112Y-111925468D01*
X103657020Y-111767376D01*
X103471124Y-111643164D01*
X103264567Y-111557605D01*
X103045288Y-111513988D01*
X102821712Y-111513988D01*
X102602433Y-111557605D01*
X102395876Y-111643164D01*
X102209980Y-111767376D01*
X102163368Y-111813988D01*
X96371273Y-111813988D01*
X96248244Y-111731783D01*
X96059886Y-111653762D01*
X95859927Y-111613988D01*
X95656049Y-111613988D01*
X95456090Y-111653762D01*
X95267732Y-111731783D01*
X95098214Y-111845051D01*
X94954051Y-111989214D01*
X94840783Y-112158732D01*
X94762762Y-112347090D01*
X94722988Y-112547049D01*
X94722988Y-112750927D01*
X94762762Y-112950886D01*
X94776145Y-112983195D01*
X94631644Y-112905704D01*
X94003254Y-112714148D01*
X93349569Y-112648866D01*
X92695707Y-112712366D01*
X92066797Y-112902208D01*
X91487008Y-113211096D01*
X91479411Y-113216172D01*
X91179231Y-113654626D01*
X90660000Y-113654626D01*
X90660000Y-106348061D01*
X98303400Y-106348061D01*
X98303400Y-106551939D01*
X98343174Y-106751898D01*
X98421195Y-106940256D01*
X98534463Y-107109774D01*
X98678626Y-107253937D01*
X98848144Y-107367205D01*
X99036502Y-107445226D01*
X99236461Y-107485000D01*
X99440339Y-107485000D01*
X99640298Y-107445226D01*
X99828656Y-107367205D01*
X99998174Y-107253937D01*
X100051411Y-107200700D01*
X113607947Y-107200700D01*
X113646000Y-107204448D01*
X113684053Y-107200700D01*
X113797868Y-107189490D01*
X113943899Y-107145192D01*
X114078483Y-107073256D01*
X114196446Y-106976446D01*
X114293256Y-106858483D01*
X114365192Y-106723899D01*
X114409490Y-106577868D01*
X114424448Y-106426000D01*
X114420700Y-106387947D01*
X114420700Y-105095891D01*
X116901885Y-102614706D01*
X116897200Y-102638261D01*
X116897200Y-102842139D01*
X116936974Y-103042098D01*
X117014995Y-103230456D01*
X117128263Y-103399974D01*
X117272426Y-103544137D01*
X117441944Y-103657405D01*
X117630302Y-103735426D01*
X117830261Y-103775200D01*
X118034139Y-103775200D01*
X118234098Y-103735426D01*
X118422456Y-103657405D01*
X118591974Y-103544137D01*
X118621211Y-103514900D01*
X132699309Y-103514900D01*
X134147000Y-104962592D01*
X134147000Y-105003939D01*
X134186774Y-105203898D01*
X134264795Y-105392256D01*
X134276718Y-105410100D01*
X116495811Y-105410100D01*
X116466574Y-105380863D01*
X116297056Y-105267595D01*
X116108698Y-105189574D01*
X115908739Y-105149800D01*
X115704861Y-105149800D01*
X115504902Y-105189574D01*
X115316544Y-105267595D01*
X115147026Y-105380863D01*
X115002863Y-105525026D01*
X114889595Y-105694544D01*
X114811574Y-105882902D01*
X114771800Y-106082861D01*
X114771800Y-106286739D01*
X114811574Y-106486698D01*
X114889595Y-106675056D01*
X115002863Y-106844574D01*
X115147026Y-106988737D01*
X115316544Y-107102005D01*
X115504902Y-107180026D01*
X115704861Y-107219800D01*
X115908739Y-107219800D01*
X116108698Y-107180026D01*
X116297056Y-107102005D01*
X116466574Y-106988737D01*
X116495811Y-106959500D01*
X133688853Y-106959500D01*
X133789263Y-107109774D01*
X133933426Y-107253937D01*
X134102944Y-107367205D01*
X134291302Y-107445226D01*
X134491261Y-107485000D01*
X134695139Y-107485000D01*
X134895098Y-107445226D01*
X135083456Y-107367205D01*
X135252974Y-107253937D01*
X135397137Y-107109774D01*
X135510405Y-106940256D01*
X135588426Y-106751898D01*
X135623300Y-106576571D01*
X135623301Y-112125841D01*
X135561394Y-112158931D01*
X135333203Y-112346203D01*
X135145931Y-112574394D01*
X135006775Y-112834736D01*
X134921084Y-113117223D01*
X134892149Y-113411000D01*
X134921084Y-113704777D01*
X135006775Y-113987264D01*
X135145931Y-114247606D01*
X135333203Y-114475797D01*
X135561394Y-114663069D01*
X135601433Y-114684470D01*
X135387707Y-114844146D01*
X135191183Y-115062512D01*
X135041036Y-115315022D01*
X134943037Y-115591973D01*
X135063536Y-115824000D01*
X136271000Y-115824000D01*
X136271000Y-115804000D01*
X136525000Y-115804000D01*
X136525000Y-115824000D01*
X136545000Y-115824000D01*
X136545000Y-116078000D01*
X136525000Y-116078000D01*
X136525000Y-117284817D01*
X136757026Y-117405958D01*
X136907814Y-117360222D01*
X137172944Y-117233684D01*
X137408293Y-117057854D01*
X137604817Y-116839488D01*
X137662137Y-116743090D01*
X137685931Y-116787606D01*
X137873203Y-117015797D01*
X138101394Y-117203069D01*
X138361736Y-117342225D01*
X138644223Y-117427916D01*
X138864381Y-117449600D01*
X139011619Y-117449600D01*
X139231777Y-117427916D01*
X139514264Y-117342225D01*
X139774606Y-117203069D01*
X140002797Y-117015797D01*
X140190069Y-116787606D01*
X140208000Y-116754060D01*
X140225931Y-116787606D01*
X140413203Y-117015797D01*
X140641394Y-117203069D01*
X140901736Y-117342225D01*
X141184223Y-117427916D01*
X141404381Y-117449600D01*
X141551619Y-117449600D01*
X141771777Y-117427916D01*
X142054264Y-117342225D01*
X142314606Y-117203069D01*
X142542797Y-117015797D01*
X142730069Y-116787606D01*
X142869225Y-116527264D01*
X142954916Y-116244777D01*
X142979474Y-115995431D01*
X152648866Y-115995431D01*
X152712366Y-116649293D01*
X152902208Y-117278203D01*
X153211096Y-117857992D01*
X153216172Y-117865589D01*
X153654626Y-118165769D01*
X155820395Y-116000000D01*
X153654626Y-113834231D01*
X153216172Y-114134411D01*
X152905704Y-114713356D01*
X152714148Y-115341746D01*
X152648866Y-115995431D01*
X142979474Y-115995431D01*
X142983851Y-115951000D01*
X142954916Y-115657223D01*
X142869225Y-115374736D01*
X142730069Y-115114394D01*
X142542797Y-114886203D01*
X142534735Y-114879586D01*
X142585780Y-114864102D01*
X142696094Y-114805137D01*
X142792785Y-114725785D01*
X142872137Y-114629094D01*
X142931102Y-114518780D01*
X142967412Y-114399082D01*
X142979672Y-114274600D01*
X142979672Y-113654626D01*
X153834231Y-113654626D01*
X156000000Y-115820395D01*
X158165769Y-113654626D01*
X157865589Y-113216172D01*
X157286644Y-112905704D01*
X156658254Y-112714148D01*
X156004569Y-112648866D01*
X155350707Y-112712366D01*
X154721797Y-112902208D01*
X154142008Y-113211096D01*
X154134411Y-113216172D01*
X153834231Y-113654626D01*
X142979672Y-113654626D01*
X142979672Y-112547400D01*
X142967412Y-112422918D01*
X142931102Y-112303220D01*
X142872137Y-112192906D01*
X142792785Y-112096215D01*
X142696094Y-112016863D01*
X142585780Y-111957898D01*
X142466082Y-111921588D01*
X142341600Y-111909328D01*
X140614400Y-111909328D01*
X140489918Y-111921588D01*
X140370220Y-111957898D01*
X140259906Y-112016863D01*
X140163215Y-112096215D01*
X140083863Y-112192906D01*
X140024898Y-112303220D01*
X140009414Y-112354265D01*
X140002797Y-112346203D01*
X139774606Y-112158931D01*
X139712700Y-112125841D01*
X139712700Y-106234391D01*
X141941879Y-104005212D01*
X154313000Y-104005212D01*
X154313000Y-104228788D01*
X154356617Y-104448067D01*
X154442176Y-104654624D01*
X154566388Y-104840520D01*
X154724480Y-104998612D01*
X154910376Y-105122824D01*
X155116933Y-105208383D01*
X155336212Y-105252000D01*
X155559788Y-105252000D01*
X155779067Y-105208383D01*
X155985624Y-105122824D01*
X156171520Y-104998612D01*
X156329612Y-104840520D01*
X156453824Y-104654624D01*
X156539383Y-104448067D01*
X156583000Y-104228788D01*
X156583000Y-104005212D01*
X156539383Y-103785933D01*
X156453824Y-103579376D01*
X156329612Y-103393480D01*
X156171520Y-103235388D01*
X155985624Y-103111176D01*
X155779067Y-103025617D01*
X155559788Y-102982000D01*
X155336212Y-102982000D01*
X155116933Y-103025617D01*
X154910376Y-103111176D01*
X154724480Y-103235388D01*
X154566388Y-103393480D01*
X154442176Y-103579376D01*
X154356617Y-103785933D01*
X154313000Y-104005212D01*
X141941879Y-104005212D01*
X143397591Y-102549500D01*
X143438939Y-102549500D01*
X143638898Y-102509726D01*
X143827256Y-102431705D01*
X143996774Y-102318437D01*
X144140937Y-102174274D01*
X144254205Y-102004756D01*
X144332226Y-101816398D01*
X144372000Y-101616439D01*
X144372000Y-101412561D01*
X144332226Y-101212602D01*
X144254205Y-101024244D01*
X144140937Y-100854726D01*
X143996774Y-100710563D01*
X143827256Y-100597295D01*
X143638898Y-100519274D01*
X143438939Y-100479500D01*
X143235061Y-100479500D01*
X143035102Y-100519274D01*
X142846744Y-100597295D01*
X142677226Y-100710563D01*
X142533063Y-100854726D01*
X142419795Y-101024244D01*
X142341774Y-101212602D01*
X142302000Y-101412561D01*
X142302000Y-101453909D01*
X138417111Y-105338798D01*
X138387555Y-105363054D01*
X138290745Y-105481017D01*
X138252030Y-105553448D01*
X138218809Y-105615601D01*
X138174510Y-105761633D01*
X138159552Y-105913500D01*
X138163301Y-105951563D01*
X138163300Y-112125841D01*
X138101394Y-112158931D01*
X137873203Y-112346203D01*
X137685931Y-112574394D01*
X137668000Y-112607940D01*
X137650069Y-112574394D01*
X137462797Y-112346203D01*
X137234606Y-112158931D01*
X137172700Y-112125841D01*
X137172700Y-101432491D01*
X142579979Y-96025212D01*
X154313000Y-96025212D01*
X154313000Y-96248788D01*
X154356617Y-96468067D01*
X154442176Y-96674624D01*
X154566388Y-96860520D01*
X154724480Y-97018612D01*
X154910376Y-97142824D01*
X155116933Y-97228383D01*
X155336212Y-97272000D01*
X155559788Y-97272000D01*
X155779067Y-97228383D01*
X155985624Y-97142824D01*
X156171520Y-97018612D01*
X156329612Y-96860520D01*
X156453824Y-96674624D01*
X156539383Y-96468067D01*
X156583000Y-96248788D01*
X156583000Y-96025212D01*
X156539383Y-95805933D01*
X156453824Y-95599376D01*
X156329612Y-95413480D01*
X156171520Y-95255388D01*
X155985624Y-95131176D01*
X155779067Y-95045617D01*
X155559788Y-95002000D01*
X155336212Y-95002000D01*
X155116933Y-95045617D01*
X154910376Y-95131176D01*
X154724480Y-95255388D01*
X154566388Y-95413480D01*
X154442176Y-95599376D01*
X154356617Y-95805933D01*
X154313000Y-96025212D01*
X142579979Y-96025212D01*
X146824884Y-91780307D01*
X146854446Y-91756046D01*
X146951256Y-91638083D01*
X147023192Y-91503499D01*
X147037151Y-91457482D01*
X147067491Y-91357468D01*
X147082448Y-91205600D01*
X147078700Y-91167544D01*
X147078700Y-78888212D01*
X151205000Y-78888212D01*
X151205000Y-79111788D01*
X151248617Y-79331067D01*
X151334176Y-79537624D01*
X151458388Y-79723520D01*
X151616480Y-79881612D01*
X151802376Y-80005824D01*
X152008933Y-80091383D01*
X152228212Y-80135000D01*
X152451788Y-80135000D01*
X152671067Y-80091383D01*
X152877624Y-80005824D01*
X153063520Y-79881612D01*
X153221612Y-79723520D01*
X153345824Y-79537624D01*
X153431383Y-79331067D01*
X153475000Y-79111788D01*
X153475000Y-78888212D01*
X153431383Y-78668933D01*
X153345824Y-78462376D01*
X153221612Y-78276480D01*
X153063520Y-78118388D01*
X152877624Y-77994176D01*
X152671067Y-77908617D01*
X152451788Y-77865000D01*
X152228212Y-77865000D01*
X152008933Y-77908617D01*
X151802376Y-77994176D01*
X151616480Y-78118388D01*
X151458388Y-78276480D01*
X151334176Y-78462376D01*
X151248617Y-78668933D01*
X151205000Y-78888212D01*
X147078700Y-78888212D01*
X147078700Y-69534617D01*
X152357000Y-69534617D01*
X152357000Y-69876383D01*
X152423675Y-70211581D01*
X152554463Y-70527331D01*
X152744337Y-70811498D01*
X152986002Y-71053163D01*
X153270169Y-71243037D01*
X153585919Y-71373825D01*
X153921117Y-71440500D01*
X154262883Y-71440500D01*
X154598081Y-71373825D01*
X154913831Y-71243037D01*
X155197998Y-71053163D01*
X155439663Y-70811498D01*
X155629537Y-70527331D01*
X155760325Y-70211581D01*
X155827000Y-69876383D01*
X155827000Y-69735908D01*
X156084883Y-69858871D01*
X156368411Y-69930839D01*
X156660531Y-69946111D01*
X156950019Y-69904099D01*
X157225747Y-69806419D01*
X157363157Y-69732972D01*
X157440792Y-69483897D01*
X156592000Y-68635105D01*
X156577858Y-68649248D01*
X156398253Y-68469643D01*
X156412395Y-68455500D01*
X156771605Y-68455500D01*
X157620397Y-69304292D01*
X157869472Y-69226657D01*
X157995371Y-68962617D01*
X158067339Y-68679089D01*
X158082611Y-68386969D01*
X158040599Y-68097481D01*
X157942919Y-67821753D01*
X157869472Y-67684343D01*
X157620397Y-67606708D01*
X156771605Y-68455500D01*
X156412395Y-68455500D01*
X155563603Y-67606708D01*
X155314528Y-67684343D01*
X155188629Y-67948383D01*
X155116661Y-68231911D01*
X155113045Y-68301073D01*
X154913831Y-68167963D01*
X154598081Y-68037175D01*
X154262883Y-67970500D01*
X153921117Y-67970500D01*
X153585919Y-68037175D01*
X153270169Y-68167963D01*
X152986002Y-68357837D01*
X152744337Y-68599502D01*
X152554463Y-68883669D01*
X152423675Y-69199419D01*
X152357000Y-69534617D01*
X147078700Y-69534617D01*
X147078700Y-68973916D01*
X147288081Y-68802081D01*
X147461157Y-68591188D01*
X147589764Y-68350581D01*
X147668960Y-68089507D01*
X147695701Y-67818000D01*
X147668960Y-67546493D01*
X147632744Y-67427103D01*
X155743208Y-67427103D01*
X156592000Y-68275895D01*
X157440792Y-67427103D01*
X157363157Y-67178028D01*
X157099117Y-67052129D01*
X156815589Y-66980161D01*
X156523469Y-66964889D01*
X156233981Y-67006901D01*
X155958253Y-67104581D01*
X155820843Y-67178028D01*
X155743208Y-67427103D01*
X147632744Y-67427103D01*
X147589764Y-67285419D01*
X147461157Y-67044812D01*
X147288081Y-66833919D01*
X147077188Y-66660843D01*
X146836581Y-66532236D01*
X146575507Y-66453040D01*
X146372037Y-66433000D01*
X146235963Y-66433000D01*
X146032493Y-66453040D01*
X145771419Y-66532236D01*
X145530812Y-66660843D01*
X145319919Y-66833919D01*
X145146843Y-67044812D01*
X145018236Y-67285419D01*
X144939040Y-67546493D01*
X144912299Y-67818000D01*
X144939040Y-68089507D01*
X145018236Y-68350581D01*
X145146843Y-68591188D01*
X145319919Y-68802081D01*
X145529300Y-68973916D01*
X145529300Y-77915119D01*
X145448676Y-77861247D01*
X145214821Y-77764381D01*
X144966561Y-77715000D01*
X144713439Y-77715000D01*
X144465179Y-77764381D01*
X144231324Y-77861247D01*
X144020860Y-78001875D01*
X143841875Y-78180860D01*
X143701247Y-78391324D01*
X143604381Y-78625179D01*
X143555000Y-78873439D01*
X143555000Y-79126561D01*
X143604381Y-79374821D01*
X143701247Y-79608676D01*
X143841875Y-79819140D01*
X144020860Y-79998125D01*
X144231324Y-80138753D01*
X144465179Y-80235619D01*
X144713439Y-80285000D01*
X144966561Y-80285000D01*
X145214821Y-80235619D01*
X145448676Y-80138753D01*
X145529301Y-80084881D01*
X145529301Y-90884708D01*
X136077109Y-100336900D01*
X132841237Y-100336900D01*
X132917383Y-100153067D01*
X132961000Y-99933788D01*
X132961000Y-99832512D01*
X141387619Y-91405894D01*
X141418528Y-91380528D01*
X141519749Y-91257189D01*
X141568956Y-91165129D01*
X141594963Y-91116474D01*
X141605743Y-91080937D01*
X141641280Y-90963788D01*
X141653000Y-90844791D01*
X141653000Y-90844788D01*
X141656919Y-90805000D01*
X141653000Y-90765212D01*
X141653000Y-84234132D01*
X141724612Y-84162520D01*
X141848824Y-83976624D01*
X141934383Y-83770067D01*
X141978000Y-83550788D01*
X141978000Y-83327212D01*
X141934383Y-83107933D01*
X141848824Y-82901376D01*
X141724612Y-82715480D01*
X141566520Y-82557388D01*
X141380624Y-82433176D01*
X141174067Y-82347617D01*
X140954788Y-82304000D01*
X140731212Y-82304000D01*
X140511933Y-82347617D01*
X140305376Y-82433176D01*
X140119480Y-82557388D01*
X139961388Y-82715480D01*
X139837176Y-82901376D01*
X139751617Y-83107933D01*
X139708000Y-83327212D01*
X139708000Y-83550788D01*
X139751617Y-83770067D01*
X139837176Y-83976624D01*
X139961388Y-84162520D01*
X140033001Y-84234133D01*
X140033000Y-90469487D01*
X131815488Y-98687000D01*
X131714212Y-98687000D01*
X131494933Y-98730617D01*
X131288376Y-98816176D01*
X131102480Y-98940388D01*
X130944388Y-99098480D01*
X130820176Y-99284376D01*
X130734617Y-99490933D01*
X130691000Y-99710212D01*
X130691000Y-99933788D01*
X130734617Y-100153067D01*
X130810763Y-100336900D01*
X128578011Y-100336900D01*
X128548774Y-100307663D01*
X128379256Y-100194395D01*
X128190898Y-100116374D01*
X127990939Y-100076600D01*
X127787061Y-100076600D01*
X127587102Y-100116374D01*
X127398744Y-100194395D01*
X127229226Y-100307663D01*
X127199989Y-100336900D01*
X119151930Y-100336900D01*
X119210192Y-100227899D01*
X119254490Y-100081868D01*
X119265700Y-99968053D01*
X119269448Y-99930000D01*
X119265700Y-99891947D01*
X119265700Y-99084858D01*
X119374502Y-99129926D01*
X119574461Y-99169700D01*
X119778339Y-99169700D01*
X119978298Y-99129926D01*
X120166656Y-99051905D01*
X120336174Y-98938637D01*
X120365411Y-98909400D01*
X127392947Y-98909400D01*
X127431000Y-98913148D01*
X127469053Y-98909400D01*
X127582868Y-98898190D01*
X127728899Y-98853892D01*
X127863483Y-98781956D01*
X127981446Y-98685146D01*
X128005707Y-98655584D01*
X137636591Y-89024700D01*
X137677939Y-89024700D01*
X137877898Y-88984926D01*
X138066256Y-88906905D01*
X138235774Y-88793637D01*
X138379937Y-88649474D01*
X138493205Y-88479956D01*
X138571226Y-88291598D01*
X138611000Y-88091639D01*
X138611000Y-87887761D01*
X138571226Y-87687802D01*
X138493205Y-87499444D01*
X138379937Y-87329926D01*
X138350700Y-87300689D01*
X138350700Y-72929891D01*
X146824890Y-64455702D01*
X146854446Y-64431446D01*
X146951256Y-64313483D01*
X147023192Y-64178899D01*
X147067490Y-64032868D01*
X147078700Y-63919053D01*
X147082448Y-63881000D01*
X147078700Y-63842947D01*
X147078700Y-63498416D01*
X147144179Y-63463417D01*
X147373345Y-63275345D01*
X147561417Y-63046179D01*
X147701166Y-62784724D01*
X147777035Y-62534617D01*
X152357000Y-62534617D01*
X152357000Y-62876383D01*
X152423675Y-63211581D01*
X152554463Y-63527331D01*
X152744337Y-63811498D01*
X152986002Y-64053163D01*
X153270169Y-64243037D01*
X153585919Y-64373825D01*
X153921117Y-64440500D01*
X154262883Y-64440500D01*
X154598081Y-64373825D01*
X154913831Y-64243037D01*
X155109143Y-64112534D01*
X155164068Y-64388658D01*
X155276010Y-64658911D01*
X155438525Y-64902132D01*
X155645368Y-65108975D01*
X155888589Y-65271490D01*
X156158842Y-65383432D01*
X156445740Y-65440500D01*
X156738260Y-65440500D01*
X157025158Y-65383432D01*
X157295411Y-65271490D01*
X157538632Y-65108975D01*
X157745475Y-64902132D01*
X157907990Y-64658911D01*
X158019932Y-64388658D01*
X158077000Y-64101760D01*
X158077000Y-63809240D01*
X158019932Y-63522342D01*
X157907990Y-63252089D01*
X157745475Y-63008868D01*
X157538632Y-62802025D01*
X157295411Y-62639510D01*
X157025158Y-62527568D01*
X156738260Y-62470500D01*
X156445740Y-62470500D01*
X156158842Y-62527568D01*
X155888589Y-62639510D01*
X155827000Y-62680662D01*
X155827000Y-62534617D01*
X155760325Y-62199419D01*
X155629537Y-61883669D01*
X155439663Y-61599502D01*
X155197998Y-61357837D01*
X154913831Y-61167963D01*
X154598081Y-61037175D01*
X154262883Y-60970500D01*
X153921117Y-60970500D01*
X153585919Y-61037175D01*
X153270169Y-61167963D01*
X152986002Y-61357837D01*
X152744337Y-61599502D01*
X152554463Y-61883669D01*
X152423675Y-62199419D01*
X152357000Y-62534617D01*
X147777035Y-62534617D01*
X147787224Y-62501031D01*
X147809000Y-62279935D01*
X147809000Y-61672064D01*
X147787224Y-61450968D01*
X147701166Y-61167275D01*
X147561417Y-60905821D01*
X147373345Y-60676655D01*
X147144178Y-60488583D01*
X146882724Y-60348834D01*
X146599031Y-60262776D01*
X146304000Y-60233718D01*
X146008968Y-60262776D01*
X145725275Y-60348834D01*
X145463821Y-60488583D01*
X145452481Y-60497890D01*
X144538700Y-59584109D01*
X144538700Y-56345374D01*
X153834231Y-56345374D01*
X154134411Y-56783828D01*
X154713356Y-57094296D01*
X155341746Y-57285852D01*
X155995431Y-57351134D01*
X156649293Y-57287634D01*
X157278203Y-57097792D01*
X157857992Y-56788904D01*
X157865589Y-56783828D01*
X158165769Y-56345374D01*
X156000000Y-54179605D01*
X153834231Y-56345374D01*
X144538700Y-56345374D01*
X144538700Y-55878416D01*
X144604179Y-55843417D01*
X144833345Y-55655345D01*
X145021417Y-55426179D01*
X145034000Y-55402638D01*
X145046583Y-55426179D01*
X145234655Y-55655345D01*
X145463822Y-55843417D01*
X145725276Y-55983166D01*
X146008969Y-56069224D01*
X146304000Y-56098282D01*
X146599032Y-56069224D01*
X146882725Y-55983166D01*
X147144179Y-55843417D01*
X147373345Y-55655345D01*
X147561417Y-55426179D01*
X147701166Y-55164724D01*
X147787224Y-54881031D01*
X147809000Y-54659935D01*
X147809000Y-54052064D01*
X147803423Y-53995431D01*
X152648866Y-53995431D01*
X152712366Y-54649293D01*
X152902208Y-55278203D01*
X153211096Y-55857992D01*
X153216172Y-55865589D01*
X153654626Y-56165769D01*
X155820395Y-54000000D01*
X153654626Y-51834231D01*
X153216172Y-52134411D01*
X152905704Y-52713356D01*
X152714148Y-53341746D01*
X152648866Y-53995431D01*
X147803423Y-53995431D01*
X147787224Y-53830968D01*
X147701166Y-53547275D01*
X147561417Y-53285821D01*
X147373345Y-53056655D01*
X147144178Y-52868583D01*
X146882724Y-52728834D01*
X146599031Y-52642776D01*
X146304000Y-52613718D01*
X146008968Y-52642776D01*
X145725275Y-52728834D01*
X145463821Y-52868583D01*
X145234655Y-53056655D01*
X145046583Y-53285822D01*
X145034000Y-53309363D01*
X145021417Y-53285821D01*
X144833345Y-53056655D01*
X144604178Y-52868583D01*
X144342724Y-52728834D01*
X144059031Y-52642776D01*
X143764000Y-52613718D01*
X143468968Y-52642776D01*
X143185275Y-52728834D01*
X142923821Y-52868583D01*
X142694655Y-53056655D01*
X142506583Y-53285822D01*
X142494000Y-53309363D01*
X142481417Y-53285821D01*
X142293345Y-53056655D01*
X142064178Y-52868583D01*
X141802724Y-52728834D01*
X141519031Y-52642776D01*
X141224000Y-52613718D01*
X140928968Y-52642776D01*
X140645275Y-52728834D01*
X140383821Y-52868583D01*
X140154655Y-53056655D01*
X139966583Y-53285822D01*
X139951698Y-53313669D01*
X139862256Y-53177097D01*
X139654494Y-52965464D01*
X139409437Y-52798429D01*
X139136502Y-52682412D01*
X139044031Y-52664698D01*
X138811000Y-52785754D01*
X138811000Y-54229000D01*
X138831000Y-54229000D01*
X138831000Y-54483000D01*
X138811000Y-54483000D01*
X138811000Y-55926246D01*
X139044031Y-56047302D01*
X139136502Y-56029588D01*
X139409437Y-55913571D01*
X139654494Y-55746536D01*
X139862256Y-55534903D01*
X139951698Y-55398331D01*
X139966583Y-55426179D01*
X140154655Y-55655345D01*
X140383822Y-55843417D01*
X140449300Y-55878416D01*
X140449301Y-59866937D01*
X140445552Y-59905000D01*
X140460510Y-60056867D01*
X140483274Y-60131908D01*
X140504809Y-60202899D01*
X140576745Y-60337483D01*
X140605775Y-60372856D01*
X140498563Y-60418429D01*
X140253506Y-60585464D01*
X140100507Y-60741314D01*
X140042405Y-60632613D01*
X139931962Y-60498038D01*
X139797387Y-60387595D01*
X139643851Y-60305528D01*
X139477255Y-60254992D01*
X139304001Y-60237928D01*
X138063999Y-60237928D01*
X137890745Y-60254992D01*
X137724149Y-60305528D01*
X137570613Y-60387595D01*
X137436038Y-60498038D01*
X137325595Y-60632613D01*
X137243528Y-60786149D01*
X137192992Y-60952745D01*
X137175928Y-61125999D01*
X137175928Y-62826001D01*
X137192992Y-62999255D01*
X137243528Y-63165851D01*
X137325595Y-63319387D01*
X137436038Y-63453962D01*
X137570613Y-63564405D01*
X137724149Y-63646472D01*
X137849001Y-63684345D01*
X137849000Y-66438299D01*
X137809518Y-66442188D01*
X137689820Y-66478498D01*
X137579506Y-66537463D01*
X137482815Y-66616815D01*
X137403463Y-66713506D01*
X137344498Y-66823820D01*
X137308188Y-66943518D01*
X137295928Y-67068000D01*
X137295928Y-68568000D01*
X137308188Y-68692482D01*
X137344498Y-68812180D01*
X137403463Y-68922494D01*
X137441856Y-68969276D01*
X113518579Y-92892554D01*
X113486709Y-92918709D01*
X113432944Y-92984223D01*
X113382364Y-93045855D01*
X113304828Y-93190914D01*
X113257082Y-93348312D01*
X113240960Y-93512000D01*
X113245000Y-93553019D01*
X113245000Y-93764206D01*
X113024866Y-93944866D01*
X112839294Y-94170986D01*
X112804799Y-94235523D01*
X112735178Y-94118645D01*
X112540269Y-93902412D01*
X112306920Y-93728359D01*
X112044099Y-93603175D01*
X111896890Y-93558524D01*
X111667000Y-93679845D01*
X111667000Y-94873000D01*
X111687000Y-94873000D01*
X111687000Y-95127000D01*
X111667000Y-95127000D01*
X111667000Y-95147000D01*
X111413000Y-95147000D01*
X111413000Y-95127000D01*
X109127000Y-95127000D01*
X109127000Y-96326250D01*
X109285750Y-96485000D01*
X109912542Y-96485000D01*
X110035223Y-96460597D01*
X110150785Y-96412730D01*
X110254789Y-96343237D01*
X110343237Y-96254789D01*
X110412730Y-96150785D01*
X110460597Y-96035223D01*
X110464740Y-96014393D01*
X110539731Y-96097588D01*
X110773080Y-96271641D01*
X111035901Y-96396825D01*
X111183110Y-96441476D01*
X111412998Y-96320156D01*
X111412998Y-96485000D01*
X111449487Y-96485000D01*
X107151389Y-100783099D01*
X107120473Y-100808471D01*
X107050704Y-100893486D01*
X107019252Y-100931810D01*
X107005788Y-100957000D01*
X106944038Y-101072527D01*
X106897721Y-101225212D01*
X106890404Y-101299504D01*
X106882082Y-101383999D01*
X106886001Y-101423788D01*
X106886002Y-102709868D01*
X106814389Y-102781481D01*
X106690177Y-102967377D01*
X106604618Y-103173934D01*
X106561001Y-103393213D01*
X106561001Y-103616789D01*
X106604618Y-103836068D01*
X106690177Y-104042625D01*
X106814389Y-104228521D01*
X106972481Y-104386613D01*
X107158377Y-104510825D01*
X107364934Y-104596384D01*
X107584213Y-104640001D01*
X107807789Y-104640001D01*
X108027068Y-104596384D01*
X108233625Y-104510825D01*
X108419521Y-104386613D01*
X108577613Y-104228521D01*
X108701825Y-104042625D01*
X108787384Y-103836068D01*
X108831001Y-103616789D01*
X108831001Y-103393213D01*
X108787384Y-103173934D01*
X108701825Y-102967377D01*
X108577613Y-102781481D01*
X108506001Y-102709869D01*
X108506001Y-101719511D01*
X113768258Y-96457255D01*
X113788889Y-96463513D01*
X114007050Y-96485000D01*
X114152950Y-96485000D01*
X114371111Y-96463513D01*
X114651034Y-96378599D01*
X114909014Y-96240706D01*
X115135134Y-96055134D01*
X115320706Y-95829014D01*
X115350000Y-95774209D01*
X115379294Y-95829014D01*
X115564866Y-96055134D01*
X115790986Y-96240706D01*
X116025407Y-96366006D01*
X115509413Y-96882000D01*
X115468065Y-96882000D01*
X115268106Y-96921774D01*
X115079748Y-96999795D01*
X114910230Y-97113063D01*
X114766067Y-97257226D01*
X114652799Y-97426744D01*
X114574778Y-97615102D01*
X114535004Y-97815061D01*
X114535004Y-98018939D01*
X114574778Y-98218898D01*
X114652799Y-98407256D01*
X114766067Y-98576774D01*
X114910230Y-98720937D01*
X115079748Y-98834205D01*
X115268106Y-98912226D01*
X115468065Y-98952000D01*
X115671943Y-98952000D01*
X115871902Y-98912226D01*
X116060260Y-98834205D01*
X116229778Y-98720937D01*
X116373941Y-98576774D01*
X116424001Y-98501853D01*
X116424002Y-98812507D01*
X115146709Y-100089800D01*
X115105361Y-100089800D01*
X114905402Y-100129574D01*
X114717044Y-100207595D01*
X114547526Y-100320863D01*
X114403363Y-100465026D01*
X114290095Y-100634544D01*
X114212074Y-100822902D01*
X114172300Y-101022861D01*
X114172300Y-101226739D01*
X114212074Y-101426698D01*
X114290095Y-101615056D01*
X114403363Y-101784574D01*
X114547526Y-101928737D01*
X114717044Y-102042005D01*
X114905402Y-102120026D01*
X115105361Y-102159800D01*
X115165609Y-102159800D01*
X113125116Y-104200293D01*
X113095554Y-104224554D01*
X112998744Y-104342518D01*
X112926808Y-104477102D01*
X112890624Y-104596384D01*
X112882510Y-104623133D01*
X112867552Y-104775000D01*
X112871300Y-104813053D01*
X112871301Y-105651300D01*
X100003411Y-105651300D01*
X99998174Y-105646063D01*
X99828656Y-105532795D01*
X99640298Y-105454774D01*
X99440339Y-105415000D01*
X99236461Y-105415000D01*
X99036502Y-105454774D01*
X98848144Y-105532795D01*
X98678626Y-105646063D01*
X98534463Y-105790226D01*
X98421195Y-105959744D01*
X98343174Y-106148102D01*
X98303400Y-106348061D01*
X90660000Y-106348061D01*
X90660000Y-97136089D01*
X96976500Y-97136089D01*
X96976500Y-97408911D01*
X97029725Y-97676489D01*
X97134129Y-97928543D01*
X97285701Y-98155386D01*
X97478614Y-98348299D01*
X97705457Y-98499871D01*
X97957511Y-98604275D01*
X98225089Y-98657500D01*
X98497911Y-98657500D01*
X98765489Y-98604275D01*
X99017543Y-98499871D01*
X99244386Y-98348299D01*
X99437299Y-98155386D01*
X99588871Y-97928543D01*
X99693275Y-97676489D01*
X99746500Y-97408911D01*
X99746500Y-97136089D01*
X99693275Y-96868511D01*
X99588871Y-96616457D01*
X99437299Y-96389614D01*
X99244386Y-96196701D01*
X99017543Y-96045129D01*
X98765489Y-95940725D01*
X98497911Y-95887500D01*
X98225089Y-95887500D01*
X97957511Y-95940725D01*
X97705457Y-96045129D01*
X97478614Y-96196701D01*
X97285701Y-96389614D01*
X97134129Y-96616457D01*
X97029725Y-96868511D01*
X96976500Y-97136089D01*
X90660000Y-97136089D01*
X90660000Y-95285750D01*
X107515000Y-95285750D01*
X107515000Y-95912542D01*
X107539403Y-96035223D01*
X107587270Y-96150785D01*
X107656763Y-96254789D01*
X107745211Y-96343237D01*
X107849215Y-96412730D01*
X107964777Y-96460597D01*
X108087458Y-96485000D01*
X108714250Y-96485000D01*
X108873000Y-96326250D01*
X108873000Y-95127000D01*
X107673750Y-95127000D01*
X107515000Y-95285750D01*
X90660000Y-95285750D01*
X90660000Y-94087458D01*
X107515000Y-94087458D01*
X107515000Y-94714250D01*
X107673750Y-94873000D01*
X108873000Y-94873000D01*
X108873000Y-93673750D01*
X109127000Y-93673750D01*
X109127000Y-94873000D01*
X111413000Y-94873000D01*
X111413000Y-93679845D01*
X111183110Y-93558524D01*
X111035901Y-93603175D01*
X110773080Y-93728359D01*
X110539731Y-93902412D01*
X110464740Y-93985607D01*
X110460597Y-93964777D01*
X110412730Y-93849215D01*
X110343237Y-93745211D01*
X110254789Y-93656763D01*
X110150785Y-93587270D01*
X110035223Y-93539403D01*
X109912542Y-93515000D01*
X109285750Y-93515000D01*
X109127000Y-93673750D01*
X108873000Y-93673750D01*
X108714250Y-93515000D01*
X108087458Y-93515000D01*
X107964777Y-93539403D01*
X107849215Y-93587270D01*
X107745211Y-93656763D01*
X107656763Y-93745211D01*
X107587270Y-93849215D01*
X107539403Y-93964777D01*
X107515000Y-94087458D01*
X90660000Y-94087458D01*
X90660000Y-92256089D01*
X96976500Y-92256089D01*
X96976500Y-92528911D01*
X97029725Y-92796489D01*
X97134129Y-93048543D01*
X97285701Y-93275386D01*
X97478614Y-93468299D01*
X97705457Y-93619871D01*
X97957511Y-93724275D01*
X98225089Y-93777500D01*
X98497911Y-93777500D01*
X98765489Y-93724275D01*
X99017543Y-93619871D01*
X99244386Y-93468299D01*
X99437299Y-93275386D01*
X99588871Y-93048543D01*
X99693275Y-92796489D01*
X99746500Y-92528911D01*
X99746500Y-92256089D01*
X99693275Y-91988511D01*
X99588871Y-91736457D01*
X99437299Y-91509614D01*
X99244386Y-91316701D01*
X99017543Y-91165129D01*
X98765489Y-91060725D01*
X98497911Y-91007500D01*
X98225089Y-91007500D01*
X97957511Y-91060725D01*
X97705457Y-91165129D01*
X97478614Y-91316701D01*
X97285701Y-91509614D01*
X97134129Y-91736457D01*
X97029725Y-91988511D01*
X96976500Y-92256089D01*
X90660000Y-92256089D01*
X90660000Y-90709750D01*
X101203000Y-90709750D01*
X101203000Y-92861542D01*
X101227403Y-92984223D01*
X101275270Y-93099785D01*
X101344763Y-93203789D01*
X101433211Y-93292237D01*
X101537215Y-93361730D01*
X101652777Y-93409597D01*
X101775458Y-93434000D01*
X102164750Y-93434000D01*
X102323500Y-93275250D01*
X102323500Y-90551000D01*
X102577500Y-90551000D01*
X102577500Y-93275250D01*
X102736250Y-93434000D01*
X103125542Y-93434000D01*
X103248223Y-93409597D01*
X103363785Y-93361730D01*
X103467789Y-93292237D01*
X103556237Y-93203789D01*
X103625730Y-93099785D01*
X103673597Y-92984223D01*
X103698000Y-92861542D01*
X103698000Y-90709750D01*
X103539250Y-90551000D01*
X102577500Y-90551000D01*
X102323500Y-90551000D01*
X101361750Y-90551000D01*
X101203000Y-90709750D01*
X90660000Y-90709750D01*
X90660000Y-87986458D01*
X101203000Y-87986458D01*
X101203000Y-90138250D01*
X101361750Y-90297000D01*
X102323500Y-90297000D01*
X102323500Y-87572750D01*
X102577500Y-87572750D01*
X102577500Y-90297000D01*
X103539250Y-90297000D01*
X103698000Y-90138250D01*
X103698000Y-88299000D01*
X104324928Y-88299000D01*
X104324928Y-92549000D01*
X104341992Y-92722254D01*
X104392528Y-92888850D01*
X104474595Y-93042386D01*
X104585038Y-93176962D01*
X104719614Y-93287405D01*
X104873150Y-93369472D01*
X105039746Y-93420008D01*
X105213000Y-93437072D01*
X105938000Y-93437072D01*
X106111254Y-93420008D01*
X106277850Y-93369472D01*
X106431386Y-93287405D01*
X106565962Y-93176962D01*
X106676405Y-93042386D01*
X106758472Y-92888850D01*
X106809008Y-92722254D01*
X106826072Y-92549000D01*
X106826072Y-88299319D01*
X107402591Y-87722800D01*
X107553788Y-87722800D01*
X107773067Y-87679183D01*
X107979624Y-87593624D01*
X108165520Y-87469412D01*
X108323612Y-87311320D01*
X108447824Y-87125424D01*
X108533383Y-86918867D01*
X108577000Y-86699588D01*
X108577000Y-86476012D01*
X108533383Y-86256733D01*
X108447824Y-86050176D01*
X108323612Y-85864280D01*
X108165520Y-85706188D01*
X107979624Y-85581976D01*
X107773067Y-85496417D01*
X107553788Y-85452800D01*
X107330212Y-85452800D01*
X107110933Y-85496417D01*
X106904376Y-85581976D01*
X106718480Y-85706188D01*
X106560388Y-85864280D01*
X106436176Y-86050176D01*
X106350617Y-86256733D01*
X106307000Y-86476012D01*
X106307000Y-86627209D01*
X105523281Y-87410928D01*
X105213000Y-87410928D01*
X105039746Y-87427992D01*
X104873150Y-87478528D01*
X104719614Y-87560595D01*
X104585038Y-87671038D01*
X104474595Y-87805614D01*
X104392528Y-87959150D01*
X104341992Y-88125746D01*
X104324928Y-88299000D01*
X103698000Y-88299000D01*
X103698000Y-87986458D01*
X103673597Y-87863777D01*
X103625730Y-87748215D01*
X103556237Y-87644211D01*
X103467789Y-87555763D01*
X103363785Y-87486270D01*
X103248223Y-87438403D01*
X103125542Y-87414000D01*
X102736250Y-87414000D01*
X102577500Y-87572750D01*
X102323500Y-87572750D01*
X102164750Y-87414000D01*
X101775458Y-87414000D01*
X101652777Y-87438403D01*
X101537215Y-87486270D01*
X101433211Y-87555763D01*
X101344763Y-87644211D01*
X101275270Y-87748215D01*
X101227403Y-87863777D01*
X101203000Y-87986458D01*
X90660000Y-87986458D01*
X90660000Y-85914890D01*
X98230524Y-85914890D01*
X98232446Y-85927261D01*
X98332146Y-86201009D01*
X98483336Y-86450046D01*
X98680205Y-86664802D01*
X98915188Y-86837025D01*
X99179255Y-86960096D01*
X99462258Y-87029285D01*
X99695000Y-86885232D01*
X99695000Y-85685000D01*
X99949000Y-85685000D01*
X99949000Y-86885232D01*
X100181742Y-87029285D01*
X100464745Y-86960096D01*
X100728812Y-86837025D01*
X100963795Y-86664802D01*
X101160664Y-86450046D01*
X101311854Y-86201009D01*
X101411554Y-85927261D01*
X101413476Y-85914890D01*
X101292155Y-85685000D01*
X99949000Y-85685000D01*
X99695000Y-85685000D01*
X98351845Y-85685000D01*
X98230524Y-85914890D01*
X90660000Y-85914890D01*
X90660000Y-82458000D01*
X98183928Y-82458000D01*
X98183928Y-83658000D01*
X98200992Y-83831254D01*
X98251528Y-83997850D01*
X98333595Y-84151386D01*
X98444038Y-84285962D01*
X98578614Y-84396405D01*
X98680593Y-84450914D01*
X98680205Y-84451198D01*
X98483336Y-84665954D01*
X98332146Y-84914991D01*
X98232446Y-85188739D01*
X98230524Y-85201110D01*
X98351845Y-85431000D01*
X99695000Y-85431000D01*
X99695000Y-85411000D01*
X99949000Y-85411000D01*
X99949000Y-85431000D01*
X101292155Y-85431000D01*
X101413476Y-85201110D01*
X101411554Y-85188739D01*
X101311854Y-84914991D01*
X101160664Y-84665954D01*
X100963795Y-84451198D01*
X100963407Y-84450914D01*
X101065386Y-84396405D01*
X101199962Y-84285962D01*
X101310405Y-84151386D01*
X101392472Y-83997850D01*
X101443008Y-83831254D01*
X101460072Y-83658000D01*
X101460072Y-82458000D01*
X101443008Y-82284746D01*
X101392472Y-82118150D01*
X101310405Y-81964614D01*
X101199962Y-81830038D01*
X101065386Y-81719595D01*
X100911850Y-81637528D01*
X100857000Y-81620890D01*
X100857000Y-81516009D01*
X108812693Y-81516009D01*
X108813000Y-81601639D01*
X108813000Y-81912542D01*
X108837403Y-82035223D01*
X108885270Y-82150785D01*
X108954763Y-82254789D01*
X109043211Y-82343237D01*
X109147215Y-82412730D01*
X109262777Y-82460597D01*
X109385458Y-82485000D01*
X109612436Y-82485000D01*
X109614009Y-82485307D01*
X109699639Y-82485000D01*
X110712250Y-82485000D01*
X110744943Y-82452307D01*
X110870998Y-82476912D01*
X110870998Y-82485000D01*
X110912436Y-82485000D01*
X110914009Y-82485307D01*
X110999639Y-82485000D01*
X111125002Y-82485000D01*
X111125002Y-82477252D01*
X111250559Y-82451809D01*
X111283750Y-82485000D01*
X112212436Y-82485000D01*
X112214009Y-82485307D01*
X112299639Y-82485000D01*
X112610542Y-82485000D01*
X112733223Y-82460597D01*
X112848785Y-82412730D01*
X112952789Y-82343237D01*
X113041237Y-82254789D01*
X113110730Y-82150785D01*
X113158597Y-82035223D01*
X113183000Y-81912542D01*
X113183000Y-81685564D01*
X113183307Y-81683991D01*
X113183000Y-81598361D01*
X113183000Y-80930750D01*
X113024250Y-80772000D01*
X112611407Y-80772000D01*
X112553092Y-80748090D01*
X112381991Y-80714693D01*
X112207662Y-80715318D01*
X112036805Y-80749941D01*
X111983550Y-80772000D01*
X111311407Y-80772000D01*
X111253092Y-80748090D01*
X111081991Y-80714693D01*
X110907662Y-80715318D01*
X110736805Y-80749941D01*
X110683550Y-80772000D01*
X110011407Y-80772000D01*
X109953092Y-80748090D01*
X109781991Y-80714693D01*
X109607662Y-80715318D01*
X109436805Y-80749941D01*
X109383550Y-80772000D01*
X108971750Y-80772000D01*
X108813000Y-80930750D01*
X108813000Y-81514436D01*
X108812693Y-81516009D01*
X100857000Y-81516009D01*
X100857000Y-79606009D01*
X108812693Y-79606009D01*
X108813000Y-79691639D01*
X108813000Y-80359250D01*
X108971750Y-80518000D01*
X109384593Y-80518000D01*
X109442908Y-80541910D01*
X109614009Y-80575307D01*
X109788338Y-80574682D01*
X109959195Y-80540059D01*
X110012450Y-80518000D01*
X110684593Y-80518000D01*
X110742908Y-80541910D01*
X110914009Y-80575307D01*
X111088338Y-80574682D01*
X111259195Y-80540059D01*
X111312450Y-80518000D01*
X111984593Y-80518000D01*
X112042908Y-80541910D01*
X112214009Y-80575307D01*
X112388338Y-80574682D01*
X112559195Y-80540059D01*
X112612450Y-80518000D01*
X113024250Y-80518000D01*
X113183000Y-80359250D01*
X113183000Y-79775564D01*
X113183307Y-79773991D01*
X113183000Y-79688361D01*
X113183000Y-79377458D01*
X113158597Y-79254777D01*
X113110730Y-79139215D01*
X113041237Y-79035211D01*
X112952789Y-78946763D01*
X112848785Y-78877270D01*
X112733223Y-78829403D01*
X112610542Y-78805000D01*
X112383564Y-78805000D01*
X112381991Y-78804693D01*
X112296361Y-78805000D01*
X111283750Y-78805000D01*
X111251057Y-78837693D01*
X111125002Y-78813088D01*
X111125002Y-78805000D01*
X111083564Y-78805000D01*
X111081991Y-78804693D01*
X110996361Y-78805000D01*
X110870998Y-78805000D01*
X110870998Y-78812748D01*
X110745441Y-78838191D01*
X110712250Y-78805000D01*
X109783564Y-78805000D01*
X109781991Y-78804693D01*
X109696361Y-78805000D01*
X109385458Y-78805000D01*
X109262777Y-78829403D01*
X109147215Y-78877270D01*
X109043211Y-78946763D01*
X108954763Y-79035211D01*
X108885270Y-79139215D01*
X108837403Y-79254777D01*
X108813000Y-79377458D01*
X108813000Y-79604436D01*
X108812693Y-79606009D01*
X100857000Y-79606009D01*
X100857000Y-71526062D01*
X108355399Y-71526062D01*
X108355399Y-71729940D01*
X108395173Y-71929899D01*
X108473194Y-72118257D01*
X108586462Y-72287775D01*
X108730625Y-72431938D01*
X108900143Y-72545206D01*
X109088501Y-72623227D01*
X109277758Y-72660872D01*
X113490002Y-76873117D01*
X113490003Y-82915300D01*
X113382797Y-83075746D01*
X113304776Y-83264104D01*
X113265002Y-83464063D01*
X113265002Y-83667941D01*
X113304776Y-83867900D01*
X113382797Y-84056258D01*
X113496065Y-84225776D01*
X113640228Y-84369939D01*
X113809746Y-84483207D01*
X113998104Y-84561228D01*
X114198063Y-84601002D01*
X114401941Y-84601002D01*
X114601900Y-84561228D01*
X114790258Y-84483207D01*
X114959776Y-84369939D01*
X115103939Y-84225776D01*
X115217207Y-84056258D01*
X115295228Y-83867900D01*
X115335002Y-83667941D01*
X115335002Y-83464063D01*
X115295228Y-83264104D01*
X115217207Y-83075746D01*
X115110002Y-82915302D01*
X115110002Y-76577391D01*
X115113921Y-76537603D01*
X115110002Y-76497813D01*
X115098282Y-76378816D01*
X115051965Y-76226131D01*
X115016953Y-76160628D01*
X114976751Y-76085414D01*
X114931121Y-76029814D01*
X114875530Y-75962076D01*
X114844621Y-75936710D01*
X110423270Y-71515360D01*
X110385625Y-71326103D01*
X110307604Y-71137745D01*
X110194336Y-70968227D01*
X110050173Y-70824064D01*
X109880655Y-70710796D01*
X109692297Y-70632775D01*
X109492338Y-70593001D01*
X109288460Y-70593001D01*
X109088501Y-70632775D01*
X108900143Y-70710796D01*
X108730625Y-70824064D01*
X108586462Y-70968227D01*
X108473194Y-71137745D01*
X108395173Y-71326103D01*
X108355399Y-71526062D01*
X100857000Y-71526062D01*
X100857000Y-70532710D01*
X102155711Y-69234000D01*
X109872672Y-69234000D01*
X109923500Y-69239006D01*
X109974328Y-69234000D01*
X109974338Y-69234000D01*
X110126395Y-69219024D01*
X110321493Y-69159841D01*
X110501297Y-69063734D01*
X110658896Y-68934396D01*
X110691307Y-68894903D01*
X112337797Y-67248413D01*
X112442736Y-67227540D01*
X112667492Y-67134443D01*
X112869767Y-66999287D01*
X113041787Y-66827267D01*
X113176943Y-66624992D01*
X113270040Y-66400236D01*
X113317500Y-66161637D01*
X113317500Y-65918363D01*
X113270040Y-65679764D01*
X113176943Y-65455008D01*
X113041787Y-65252733D01*
X112869767Y-65080713D01*
X112667492Y-64945557D01*
X112442736Y-64852460D01*
X112204137Y-64805000D01*
X111960863Y-64805000D01*
X111722264Y-64852460D01*
X111497508Y-64945557D01*
X111295233Y-65080713D01*
X111123213Y-65252733D01*
X110988057Y-65455008D01*
X110894960Y-65679764D01*
X110874087Y-65784703D01*
X109494790Y-67164000D01*
X101777835Y-67164000D01*
X101727000Y-67158993D01*
X101676165Y-67164000D01*
X101676162Y-67164000D01*
X101524105Y-67178976D01*
X101329007Y-67238159D01*
X101274013Y-67267554D01*
X101149202Y-67334266D01*
X101086753Y-67385517D01*
X100991604Y-67463604D01*
X100959197Y-67503092D01*
X100857000Y-67605289D01*
X100857000Y-62023710D01*
X102236297Y-60644413D01*
X102341236Y-60623540D01*
X102565992Y-60530443D01*
X102768267Y-60395287D01*
X102940287Y-60223267D01*
X103075443Y-60020992D01*
X103168540Y-59796236D01*
X103216000Y-59557637D01*
X103216000Y-59314363D01*
X103168540Y-59075764D01*
X103075443Y-58851008D01*
X102940287Y-58648733D01*
X102768267Y-58476713D01*
X102565992Y-58341557D01*
X102341236Y-58248460D01*
X102102637Y-58201000D01*
X101859363Y-58201000D01*
X101620764Y-58248460D01*
X101396008Y-58341557D01*
X101193733Y-58476713D01*
X101021713Y-58648733D01*
X100886557Y-58851008D01*
X100793460Y-59075764D01*
X100772587Y-59180703D01*
X99126097Y-60827193D01*
X99086604Y-60859604D01*
X98957266Y-61017203D01*
X98861159Y-61197008D01*
X98801976Y-61392106D01*
X98787000Y-61544163D01*
X98787000Y-61544172D01*
X98781994Y-61595000D01*
X98787000Y-61645828D01*
X98787001Y-70053153D01*
X98787000Y-70053163D01*
X98787000Y-70053172D01*
X98781994Y-70104000D01*
X98787000Y-70154828D01*
X98787001Y-81620889D01*
X98732150Y-81637528D01*
X98578614Y-81719595D01*
X98444038Y-81830038D01*
X98333595Y-81964614D01*
X98251528Y-82118150D01*
X98200992Y-82284746D01*
X98183928Y-82458000D01*
X90660000Y-82458000D01*
X90660000Y-77947552D01*
X90800163Y-78089521D01*
X90997620Y-78223294D01*
X91217381Y-78315974D01*
X91451000Y-78364000D01*
X91776000Y-78364000D01*
X91776000Y-77281000D01*
X92030000Y-77281000D01*
X92030000Y-78364000D01*
X92355000Y-78364000D01*
X92588619Y-78315974D01*
X92808380Y-78223294D01*
X93005837Y-78089521D01*
X93173402Y-77919797D01*
X93304636Y-77720644D01*
X93394496Y-77499715D01*
X93396635Y-77467677D01*
X93311927Y-77341258D01*
X94110481Y-77341258D01*
X94122922Y-77407117D01*
X94226643Y-77653979D01*
X94376531Y-77875863D01*
X94566827Y-78064242D01*
X94790217Y-78211876D01*
X95038117Y-78313092D01*
X95301000Y-78364000D01*
X95576000Y-78364000D01*
X95576000Y-77131000D01*
X95830000Y-77131000D01*
X95830000Y-78364000D01*
X96105000Y-78364000D01*
X96367883Y-78313092D01*
X96615783Y-78211876D01*
X96839173Y-78064242D01*
X97029469Y-77875863D01*
X97179357Y-77653979D01*
X97283078Y-77407117D01*
X97295519Y-77341258D01*
X97172518Y-77131000D01*
X95830000Y-77131000D01*
X95576000Y-77131000D01*
X94233482Y-77131000D01*
X94110481Y-77341258D01*
X93311927Y-77341258D01*
X93271550Y-77281000D01*
X92030000Y-77281000D01*
X91776000Y-77281000D01*
X91756000Y-77281000D01*
X91756000Y-77027000D01*
X91776000Y-77027000D01*
X91776000Y-75944000D01*
X92030000Y-75944000D01*
X92030000Y-77027000D01*
X93271550Y-77027000D01*
X93396635Y-76840323D01*
X93394496Y-76808285D01*
X93304636Y-76587356D01*
X93173402Y-76388203D01*
X93005837Y-76218479D01*
X92808380Y-76084706D01*
X92588619Y-75992026D01*
X92355000Y-75944000D01*
X92030000Y-75944000D01*
X91776000Y-75944000D01*
X91451000Y-75944000D01*
X91217381Y-75992026D01*
X90997620Y-76084706D01*
X90800163Y-76218479D01*
X90660000Y-76360448D01*
X90660000Y-75779000D01*
X93612993Y-75779000D01*
X93632976Y-75981895D01*
X93692159Y-76176993D01*
X93788266Y-76356797D01*
X93917604Y-76514396D01*
X94075203Y-76643734D01*
X94111193Y-76662971D01*
X94110481Y-76666742D01*
X94233482Y-76877000D01*
X95576000Y-76877000D01*
X95576000Y-76247789D01*
X95613841Y-76176993D01*
X95673024Y-75981895D01*
X95693007Y-75779000D01*
X95679711Y-75644000D01*
X95830000Y-75644000D01*
X95830000Y-76877000D01*
X97172518Y-76877000D01*
X97295519Y-76666742D01*
X97283078Y-76600883D01*
X97179357Y-76354021D01*
X97029469Y-76132137D01*
X96839173Y-75943758D01*
X96615783Y-75796124D01*
X96367883Y-75694908D01*
X96105000Y-75644000D01*
X95830000Y-75644000D01*
X95679711Y-75644000D01*
X95673024Y-75576105D01*
X95613841Y-75381007D01*
X95517734Y-75201203D01*
X95388396Y-75043604D01*
X95230797Y-74914266D01*
X95050993Y-74818159D01*
X94855895Y-74758976D01*
X94703838Y-74744000D01*
X94602162Y-74744000D01*
X94450105Y-74758976D01*
X94255007Y-74818159D01*
X94075203Y-74914266D01*
X93917604Y-75043604D01*
X93788266Y-75201203D01*
X93692159Y-75381007D01*
X93632976Y-75576105D01*
X93612993Y-75779000D01*
X90660000Y-75779000D01*
X90660000Y-70779000D01*
X93612993Y-70779000D01*
X93632976Y-70981895D01*
X93692159Y-71176993D01*
X93788266Y-71356797D01*
X93917604Y-71514396D01*
X94075203Y-71643734D01*
X94255007Y-71739841D01*
X94450105Y-71799024D01*
X94602162Y-71814000D01*
X94703838Y-71814000D01*
X94855895Y-71799024D01*
X95050993Y-71739841D01*
X95230797Y-71643734D01*
X95388396Y-71514396D01*
X95517734Y-71356797D01*
X95613841Y-71176993D01*
X95673024Y-70981895D01*
X95693007Y-70779000D01*
X95673024Y-70576105D01*
X95613841Y-70381007D01*
X95576000Y-70310211D01*
X95576000Y-69681000D01*
X95830000Y-69681000D01*
X95830000Y-70914000D01*
X96105000Y-70914000D01*
X96367883Y-70863092D01*
X96615783Y-70761876D01*
X96839173Y-70614242D01*
X97029469Y-70425863D01*
X97179357Y-70203979D01*
X97283078Y-69957117D01*
X97295519Y-69891258D01*
X97172518Y-69681000D01*
X95830000Y-69681000D01*
X95576000Y-69681000D01*
X94233482Y-69681000D01*
X94110481Y-69891258D01*
X94111193Y-69895029D01*
X94075203Y-69914266D01*
X93917604Y-70043604D01*
X93788266Y-70201203D01*
X93692159Y-70381007D01*
X93632976Y-70576105D01*
X93612993Y-70779000D01*
X90660000Y-70779000D01*
X90660000Y-70197552D01*
X90800163Y-70339521D01*
X90997620Y-70473294D01*
X91217381Y-70565974D01*
X91451000Y-70614000D01*
X91776000Y-70614000D01*
X91776000Y-69531000D01*
X92030000Y-69531000D01*
X92030000Y-70614000D01*
X92355000Y-70614000D01*
X92588619Y-70565974D01*
X92808380Y-70473294D01*
X93005837Y-70339521D01*
X93173402Y-70169797D01*
X93304636Y-69970644D01*
X93394496Y-69749715D01*
X93396635Y-69717677D01*
X93271550Y-69531000D01*
X92030000Y-69531000D01*
X91776000Y-69531000D01*
X91756000Y-69531000D01*
X91756000Y-69277000D01*
X91776000Y-69277000D01*
X91776000Y-68194000D01*
X92030000Y-68194000D01*
X92030000Y-69277000D01*
X93271550Y-69277000D01*
X93311926Y-69216742D01*
X94110481Y-69216742D01*
X94233482Y-69427000D01*
X95576000Y-69427000D01*
X95576000Y-68194000D01*
X95830000Y-68194000D01*
X95830000Y-69427000D01*
X97172518Y-69427000D01*
X97295519Y-69216742D01*
X97283078Y-69150883D01*
X97179357Y-68904021D01*
X97029469Y-68682137D01*
X96839173Y-68493758D01*
X96615783Y-68346124D01*
X96367883Y-68244908D01*
X96105000Y-68194000D01*
X95830000Y-68194000D01*
X95576000Y-68194000D01*
X95301000Y-68194000D01*
X95038117Y-68244908D01*
X94790217Y-68346124D01*
X94566827Y-68493758D01*
X94376531Y-68682137D01*
X94226643Y-68904021D01*
X94122922Y-69150883D01*
X94110481Y-69216742D01*
X93311926Y-69216742D01*
X93396635Y-69090323D01*
X93394496Y-69058285D01*
X93304636Y-68837356D01*
X93173402Y-68638203D01*
X93005837Y-68468479D01*
X92808380Y-68334706D01*
X92588619Y-68242026D01*
X92355000Y-68194000D01*
X92030000Y-68194000D01*
X91776000Y-68194000D01*
X91451000Y-68194000D01*
X91217381Y-68242026D01*
X90997620Y-68334706D01*
X90800163Y-68468479D01*
X90660000Y-68610448D01*
X90660000Y-56345374D01*
X91834231Y-56345374D01*
X92134411Y-56783828D01*
X92713356Y-57094296D01*
X93341746Y-57285852D01*
X93995431Y-57351134D01*
X94649293Y-57287634D01*
X95278203Y-57097792D01*
X95857992Y-56788904D01*
X95865589Y-56783828D01*
X96165769Y-56345374D01*
X94000000Y-54179605D01*
X91834231Y-56345374D01*
X90660000Y-56345374D01*
X90660000Y-54110078D01*
X90712366Y-54649293D01*
X90902208Y-55278203D01*
X91211096Y-55857992D01*
X91216172Y-55865589D01*
X91654626Y-56165769D01*
X93820395Y-54000000D01*
X94179605Y-54000000D01*
X96345374Y-56165769D01*
X96783828Y-55865589D01*
X97020636Y-55424000D01*
X112163928Y-55424000D01*
X112163928Y-59384000D01*
X112176188Y-59508482D01*
X112212498Y-59628180D01*
X112271463Y-59738494D01*
X112350815Y-59835185D01*
X112447506Y-59914537D01*
X112557820Y-59973502D01*
X112677518Y-60009812D01*
X112802000Y-60022072D01*
X114782000Y-60022072D01*
X114906482Y-60009812D01*
X115026180Y-59973502D01*
X115136494Y-59914537D01*
X115233185Y-59835185D01*
X115312537Y-59738494D01*
X115371502Y-59628180D01*
X115407812Y-59508482D01*
X115420072Y-59384000D01*
X115420072Y-57531000D01*
X117167000Y-57531000D01*
X117167000Y-58521000D01*
X117223000Y-58835582D01*
X117339296Y-59133194D01*
X117511419Y-59402399D01*
X117732754Y-59632852D01*
X117994795Y-59815696D01*
X118287472Y-59943905D01*
X118413135Y-59974218D01*
X118665000Y-59854740D01*
X118665000Y-57531000D01*
X118919000Y-57531000D01*
X118919000Y-59854740D01*
X119170865Y-59974218D01*
X119296528Y-59943905D01*
X119589205Y-59815696D01*
X119851246Y-59632852D01*
X120072581Y-59402399D01*
X120244704Y-59133194D01*
X120361000Y-58835582D01*
X120417000Y-58521000D01*
X120417000Y-57531000D01*
X118919000Y-57531000D01*
X118665000Y-57531000D01*
X117167000Y-57531000D01*
X115420072Y-57531000D01*
X115420072Y-56287000D01*
X117167000Y-56287000D01*
X117167000Y-57277000D01*
X118665000Y-57277000D01*
X118665000Y-54953260D01*
X118919000Y-54953260D01*
X118919000Y-57277000D01*
X120417000Y-57277000D01*
X120417000Y-56287000D01*
X120361000Y-55972418D01*
X120244704Y-55674806D01*
X120072581Y-55405601D01*
X119851246Y-55175148D01*
X119589205Y-54992304D01*
X119296528Y-54864095D01*
X119170865Y-54833782D01*
X118919000Y-54953260D01*
X118665000Y-54953260D01*
X118413135Y-54833782D01*
X118287472Y-54864095D01*
X117994795Y-54992304D01*
X117732754Y-55175148D01*
X117511419Y-55405601D01*
X117339296Y-55674806D01*
X117223000Y-55972418D01*
X117167000Y-56287000D01*
X115420072Y-56287000D01*
X115420072Y-55424000D01*
X115407812Y-55299518D01*
X115371502Y-55179820D01*
X115312537Y-55069506D01*
X115233185Y-54972815D01*
X115136494Y-54893463D01*
X115026180Y-54834498D01*
X114906482Y-54798188D01*
X114782000Y-54785928D01*
X112802000Y-54785928D01*
X112677518Y-54798188D01*
X112557820Y-54834498D01*
X112447506Y-54893463D01*
X112350815Y-54972815D01*
X112271463Y-55069506D01*
X112212498Y-55179820D01*
X112176188Y-55299518D01*
X112163928Y-55424000D01*
X97020636Y-55424000D01*
X97094296Y-55286644D01*
X97285852Y-54658254D01*
X97351134Y-54004569D01*
X97302716Y-53505999D01*
X134635928Y-53505999D01*
X134635928Y-55206001D01*
X134652992Y-55379255D01*
X134703528Y-55545851D01*
X134785595Y-55699387D01*
X134896038Y-55833962D01*
X135030613Y-55944405D01*
X135184149Y-56026472D01*
X135350745Y-56077008D01*
X135523999Y-56094072D01*
X136764001Y-56094072D01*
X136937255Y-56077008D01*
X137103851Y-56026472D01*
X137257387Y-55944405D01*
X137391962Y-55833962D01*
X137502405Y-55699387D01*
X137560507Y-55590686D01*
X137713506Y-55746536D01*
X137958563Y-55913571D01*
X138231498Y-56029588D01*
X138323969Y-56047302D01*
X138557000Y-55926246D01*
X138557000Y-54483000D01*
X138537000Y-54483000D01*
X138537000Y-54229000D01*
X138557000Y-54229000D01*
X138557000Y-52785754D01*
X138323969Y-52664698D01*
X138231498Y-52682412D01*
X137958563Y-52798429D01*
X137713506Y-52965464D01*
X137560507Y-53121314D01*
X137502405Y-53012613D01*
X137391962Y-52878038D01*
X137257387Y-52767595D01*
X137103851Y-52685528D01*
X136937255Y-52634992D01*
X136764001Y-52617928D01*
X135523999Y-52617928D01*
X135350745Y-52634992D01*
X135184149Y-52685528D01*
X135030613Y-52767595D01*
X134896038Y-52878038D01*
X134785595Y-53012613D01*
X134703528Y-53166149D01*
X134652992Y-53332745D01*
X134635928Y-53505999D01*
X97302716Y-53505999D01*
X97287634Y-53350707D01*
X97097792Y-52721797D01*
X96788904Y-52142008D01*
X96783828Y-52134411D01*
X96345374Y-51834231D01*
X94179605Y-54000000D01*
X93820395Y-54000000D01*
X91654626Y-51834231D01*
X91216172Y-52134411D01*
X90905704Y-52713356D01*
X90714148Y-53341746D01*
X90660000Y-53883943D01*
X90660000Y-50660000D01*
X93889922Y-50660000D01*
X93350707Y-50712366D01*
G36*
X141351000Y-61849000D02*
G01*
X141371000Y-61849000D01*
X141371000Y-62103000D01*
X141351000Y-62103000D01*
X141351000Y-63546246D01*
X141584031Y-63667302D01*
X141676502Y-63649588D01*
X141949437Y-63533571D01*
X142194494Y-63366536D01*
X142402256Y-63154903D01*
X142491698Y-63018331D01*
X142506583Y-63046179D01*
X142520300Y-63062894D01*
X142520301Y-65299108D01*
X140072072Y-67747337D01*
X140072072Y-67068000D01*
X140059812Y-66943518D01*
X140023502Y-66823820D01*
X139964537Y-66713506D01*
X139885185Y-66616815D01*
X139788494Y-66537463D01*
X139678180Y-66478498D01*
X139558482Y-66442188D01*
X139519000Y-66438299D01*
X139519000Y-63684345D01*
X139643851Y-63646472D01*
X139797387Y-63564405D01*
X139931962Y-63453962D01*
X140042405Y-63319387D01*
X140100507Y-63210686D01*
X140253506Y-63366536D01*
X140498563Y-63533571D01*
X140771498Y-63649588D01*
X140863969Y-63667302D01*
X141097000Y-63546246D01*
X141097000Y-62103000D01*
X141077000Y-62103000D01*
X141077000Y-61849000D01*
X141097000Y-61849000D01*
X141097000Y-61829000D01*
X141351000Y-61829000D01*
X141351000Y-61849000D01*
X141351000Y-61849000D01*
G37*
X141351000Y-61849000D02*
X141371000Y-61849000D01*
X141371000Y-62103000D01*
X141351000Y-62103000D01*
X141351000Y-63546246D01*
X141584031Y-63667302D01*
X141676502Y-63649588D01*
X141949437Y-63533571D01*
X142194494Y-63366536D01*
X142402256Y-63154903D01*
X142491698Y-63018331D01*
X142506583Y-63046179D01*
X142520300Y-63062894D01*
X142520301Y-65299108D01*
X140072072Y-67747337D01*
X140072072Y-67068000D01*
X140059812Y-66943518D01*
X140023502Y-66823820D01*
X139964537Y-66713506D01*
X139885185Y-66616815D01*
X139788494Y-66537463D01*
X139678180Y-66478498D01*
X139558482Y-66442188D01*
X139519000Y-66438299D01*
X139519000Y-63684345D01*
X139643851Y-63646472D01*
X139797387Y-63564405D01*
X139931962Y-63453962D01*
X140042405Y-63319387D01*
X140100507Y-63210686D01*
X140253506Y-63366536D01*
X140498563Y-63533571D01*
X140771498Y-63649588D01*
X140863969Y-63667302D01*
X141097000Y-63546246D01*
X141097000Y-62103000D01*
X141077000Y-62103000D01*
X141077000Y-61849000D01*
X141097000Y-61849000D01*
X141097000Y-61829000D01*
X141351000Y-61829000D01*
X141351000Y-61849000D01*
M02*
