G04 #@! TF.GenerationSoftware,KiCad,Pcbnew,(6.0.0-rc1-dev-1491-g0a4812be0)*
G04 #@! TF.CreationDate,2019-06-06T13:34:42+02:00
G04 #@! TF.ProjectId,datalogger,64617461-6c6f-4676-9765-722e6b696361,v. 1.1*
G04 #@! TF.SameCoordinates,Original*
G04 #@! TF.FileFunction,Legend,Bot*
G04 #@! TF.FilePolarity,Positive*
%FSLAX46Y46*%
G04 Gerber Fmt 4.6, Leading zero omitted, Abs format (unit mm)*
G04 Created by KiCad (PCBNEW (6.0.0-rc1-dev-1491-g0a4812be0)) date 2019-06-06 13:34:42*
%MOMM*%
%LPD*%
G04 APERTURE LIST*
%ADD10C,0.120000*%
%ADD11C,0.010000*%
%ADD12C,0.150000*%
G04 APERTURE END LIST*
D10*
X104790064Y-88014000D02*
X103235936Y-88014000D01*
X104790064Y-92834000D02*
X103235936Y-92834000D01*
D11*
G36*
X133828808Y-72937166D02*
G01*
X133741015Y-72980540D01*
X133632751Y-73056122D01*
X133553845Y-73138542D01*
X133499805Y-73242037D01*
X133466141Y-73380843D01*
X133448363Y-73569194D01*
X133441980Y-73821328D01*
X133441607Y-73929724D01*
X133442696Y-74167287D01*
X133447222Y-74337068D01*
X133457068Y-74454550D01*
X133474118Y-74535215D01*
X133500259Y-74594545D01*
X133527458Y-74635020D01*
X133701080Y-74807225D01*
X133905538Y-74910806D01*
X134126104Y-74941960D01*
X134348046Y-74896885D01*
X134418360Y-74865009D01*
X134586689Y-74777271D01*
X134586689Y-76152172D01*
X134463838Y-76088643D01*
X134301967Y-76039491D01*
X134103005Y-76026900D01*
X133904328Y-76050147D01*
X133754290Y-76102370D01*
X133629841Y-76201826D01*
X133523508Y-76344143D01*
X133515513Y-76358755D01*
X133481793Y-76427582D01*
X133457166Y-76496956D01*
X133440214Y-76580996D01*
X133429519Y-76693816D01*
X133423662Y-76849533D01*
X133421227Y-77062265D01*
X133420787Y-77301664D01*
X133420787Y-78065443D01*
X133878820Y-78065443D01*
X133878820Y-76657108D01*
X134006933Y-76549308D01*
X134140018Y-76463079D01*
X134266048Y-76447401D01*
X134392778Y-76487747D01*
X134460317Y-76527254D01*
X134510586Y-76583527D01*
X134546338Y-76668572D01*
X134570328Y-76794394D01*
X134585311Y-76972998D01*
X134594040Y-77216391D01*
X134597114Y-77378394D01*
X134607508Y-78044623D01*
X134826115Y-78057209D01*
X135044721Y-78069795D01*
X135044721Y-73935464D01*
X134586689Y-73935464D01*
X134575011Y-74165953D01*
X134535662Y-74325950D01*
X134462166Y-74425497D01*
X134348049Y-74474639D01*
X134232754Y-74484459D01*
X134102238Y-74473175D01*
X134015617Y-74428764D01*
X133961451Y-74370081D01*
X133918810Y-74306962D01*
X133893426Y-74236645D01*
X133882131Y-74138123D01*
X133881760Y-73990387D01*
X133885560Y-73866683D01*
X133894288Y-73680328D01*
X133907280Y-73557982D01*
X133929159Y-73480377D01*
X133964546Y-73428245D01*
X133997941Y-73398111D01*
X134137475Y-73332399D01*
X134302619Y-73321787D01*
X134397446Y-73344423D01*
X134491334Y-73424881D01*
X134553526Y-73581392D01*
X134583669Y-73812852D01*
X134586689Y-73935464D01*
X135044721Y-73935464D01*
X135044721Y-72902164D01*
X134815705Y-72902164D01*
X134678206Y-72907602D01*
X134607267Y-72926909D01*
X134586697Y-72964576D01*
X134586689Y-72965692D01*
X134577145Y-73002581D01*
X134535051Y-72998393D01*
X134451361Y-72957859D01*
X134256354Y-72895850D01*
X134036954Y-72889332D01*
X133828808Y-72937166D01*
X133828808Y-72937166D01*
G37*
X133828808Y-72937166D02*
X133741015Y-72980540D01*
X133632751Y-73056122D01*
X133553845Y-73138542D01*
X133499805Y-73242037D01*
X133466141Y-73380843D01*
X133448363Y-73569194D01*
X133441980Y-73821328D01*
X133441607Y-73929724D01*
X133442696Y-74167287D01*
X133447222Y-74337068D01*
X133457068Y-74454550D01*
X133474118Y-74535215D01*
X133500259Y-74594545D01*
X133527458Y-74635020D01*
X133701080Y-74807225D01*
X133905538Y-74910806D01*
X134126104Y-74941960D01*
X134348046Y-74896885D01*
X134418360Y-74865009D01*
X134586689Y-74777271D01*
X134586689Y-76152172D01*
X134463838Y-76088643D01*
X134301967Y-76039491D01*
X134103005Y-76026900D01*
X133904328Y-76050147D01*
X133754290Y-76102370D01*
X133629841Y-76201826D01*
X133523508Y-76344143D01*
X133515513Y-76358755D01*
X133481793Y-76427582D01*
X133457166Y-76496956D01*
X133440214Y-76580996D01*
X133429519Y-76693816D01*
X133423662Y-76849533D01*
X133421227Y-77062265D01*
X133420787Y-77301664D01*
X133420787Y-78065443D01*
X133878820Y-78065443D01*
X133878820Y-76657108D01*
X134006933Y-76549308D01*
X134140018Y-76463079D01*
X134266048Y-76447401D01*
X134392778Y-76487747D01*
X134460317Y-76527254D01*
X134510586Y-76583527D01*
X134546338Y-76668572D01*
X134570328Y-76794394D01*
X134585311Y-76972998D01*
X134594040Y-77216391D01*
X134597114Y-77378394D01*
X134607508Y-78044623D01*
X134826115Y-78057209D01*
X135044721Y-78069795D01*
X135044721Y-73935464D01*
X134586689Y-73935464D01*
X134575011Y-74165953D01*
X134535662Y-74325950D01*
X134462166Y-74425497D01*
X134348049Y-74474639D01*
X134232754Y-74484459D01*
X134102238Y-74473175D01*
X134015617Y-74428764D01*
X133961451Y-74370081D01*
X133918810Y-74306962D01*
X133893426Y-74236645D01*
X133882131Y-74138123D01*
X133881760Y-73990387D01*
X133885560Y-73866683D01*
X133894288Y-73680328D01*
X133907280Y-73557982D01*
X133929159Y-73480377D01*
X133964546Y-73428245D01*
X133997941Y-73398111D01*
X134137475Y-73332399D01*
X134302619Y-73321787D01*
X134397446Y-73344423D01*
X134491334Y-73424881D01*
X134553526Y-73581392D01*
X134583669Y-73812852D01*
X134586689Y-73935464D01*
X135044721Y-73935464D01*
X135044721Y-72902164D01*
X134815705Y-72902164D01*
X134678206Y-72907602D01*
X134607267Y-72926909D01*
X134586697Y-72964576D01*
X134586689Y-72965692D01*
X134577145Y-73002581D01*
X134535051Y-72998393D01*
X134451361Y-72957859D01*
X134256354Y-72895850D01*
X134036954Y-72889332D01*
X133828808Y-72937166D01*
G36*
X132091779Y-76041247D02*
G01*
X131895889Y-76093514D01*
X131746767Y-76188253D01*
X131641535Y-76312338D01*
X131608821Y-76365296D01*
X131584669Y-76420768D01*
X131567784Y-76491730D01*
X131556873Y-76591154D01*
X131550640Y-76732016D01*
X131547791Y-76927289D01*
X131547032Y-77189948D01*
X131547016Y-77259633D01*
X131547016Y-78065443D01*
X131746885Y-78065443D01*
X131874370Y-78056515D01*
X131968634Y-78033896D01*
X131992251Y-78019946D01*
X132056815Y-77995870D01*
X132122759Y-78019946D01*
X132231332Y-78050003D01*
X132389042Y-78062100D01*
X132563844Y-78056851D01*
X132723693Y-78034869D01*
X132817016Y-78006663D01*
X132997609Y-77890731D01*
X133110470Y-77729847D01*
X133161209Y-77515936D01*
X133161680Y-77510443D01*
X133157227Y-77415547D01*
X132754557Y-77415547D01*
X132719354Y-77523484D01*
X132662014Y-77584229D01*
X132546913Y-77630172D01*
X132394986Y-77648512D01*
X132240061Y-77639485D01*
X132115964Y-77603332D01*
X132081197Y-77580137D01*
X132020444Y-77472960D01*
X132005049Y-77351120D01*
X132005049Y-77191017D01*
X132235403Y-77191017D01*
X132454241Y-77207863D01*
X132620137Y-77255593D01*
X132723338Y-77329986D01*
X132754557Y-77415547D01*
X133157227Y-77415547D01*
X133150713Y-77276731D01*
X133073631Y-77091946D01*
X132928714Y-76952206D01*
X132908683Y-76939495D01*
X132822610Y-76898105D01*
X132716073Y-76873041D01*
X132567141Y-76860858D01*
X132390213Y-76858057D01*
X132005049Y-76857902D01*
X132005049Y-76696443D01*
X132021387Y-76571168D01*
X132063078Y-76487241D01*
X132067959Y-76482773D01*
X132160736Y-76446059D01*
X132300784Y-76431828D01*
X132455555Y-76438821D01*
X132592499Y-76465780D01*
X132673759Y-76506212D01*
X132717790Y-76538601D01*
X132764285Y-76544784D01*
X132828451Y-76518248D01*
X132925495Y-76452479D01*
X133070626Y-76340963D01*
X133083947Y-76330516D01*
X133077121Y-76291862D01*
X133020178Y-76227572D01*
X132933630Y-76156131D01*
X132837992Y-76096021D01*
X132807944Y-76081827D01*
X132698341Y-76053503D01*
X132537735Y-76033300D01*
X132358302Y-76025196D01*
X132349911Y-76025180D01*
X132091779Y-76041247D01*
X132091779Y-76041247D01*
G37*
X132091779Y-76041247D02*
X131895889Y-76093514D01*
X131746767Y-76188253D01*
X131641535Y-76312338D01*
X131608821Y-76365296D01*
X131584669Y-76420768D01*
X131567784Y-76491730D01*
X131556873Y-76591154D01*
X131550640Y-76732016D01*
X131547791Y-76927289D01*
X131547032Y-77189948D01*
X131547016Y-77259633D01*
X131547016Y-78065443D01*
X131746885Y-78065443D01*
X131874370Y-78056515D01*
X131968634Y-78033896D01*
X131992251Y-78019946D01*
X132056815Y-77995870D01*
X132122759Y-78019946D01*
X132231332Y-78050003D01*
X132389042Y-78062100D01*
X132563844Y-78056851D01*
X132723693Y-78034869D01*
X132817016Y-78006663D01*
X132997609Y-77890731D01*
X133110470Y-77729847D01*
X133161209Y-77515936D01*
X133161680Y-77510443D01*
X133157227Y-77415547D01*
X132754557Y-77415547D01*
X132719354Y-77523484D01*
X132662014Y-77584229D01*
X132546913Y-77630172D01*
X132394986Y-77648512D01*
X132240061Y-77639485D01*
X132115964Y-77603332D01*
X132081197Y-77580137D01*
X132020444Y-77472960D01*
X132005049Y-77351120D01*
X132005049Y-77191017D01*
X132235403Y-77191017D01*
X132454241Y-77207863D01*
X132620137Y-77255593D01*
X132723338Y-77329986D01*
X132754557Y-77415547D01*
X133157227Y-77415547D01*
X133150713Y-77276731D01*
X133073631Y-77091946D01*
X132928714Y-76952206D01*
X132908683Y-76939495D01*
X132822610Y-76898105D01*
X132716073Y-76873041D01*
X132567141Y-76860858D01*
X132390213Y-76858057D01*
X132005049Y-76857902D01*
X132005049Y-76696443D01*
X132021387Y-76571168D01*
X132063078Y-76487241D01*
X132067959Y-76482773D01*
X132160736Y-76446059D01*
X132300784Y-76431828D01*
X132455555Y-76438821D01*
X132592499Y-76465780D01*
X132673759Y-76506212D01*
X132717790Y-76538601D01*
X132764285Y-76544784D01*
X132828451Y-76518248D01*
X132925495Y-76452479D01*
X133070626Y-76340963D01*
X133083947Y-76330516D01*
X133077121Y-76291862D01*
X133020178Y-76227572D01*
X132933630Y-76156131D01*
X132837992Y-76096021D01*
X132807944Y-76081827D01*
X132698341Y-76053503D01*
X132537735Y-76033300D01*
X132358302Y-76025196D01*
X132349911Y-76025180D01*
X132091779Y-76041247D01*
G36*
X130797475Y-76029540D02*
G01*
X130735163Y-76048218D01*
X130715075Y-76089255D01*
X130714230Y-76107782D01*
X130710625Y-76159383D01*
X130685800Y-76167484D01*
X130618737Y-76132108D01*
X130578902Y-76107937D01*
X130453227Y-76056175D01*
X130303123Y-76030581D01*
X130145737Y-76028613D01*
X129998214Y-76047729D01*
X129877700Y-76085387D01*
X129801340Y-76139044D01*
X129786281Y-76206158D01*
X129793881Y-76224333D01*
X129849282Y-76299777D01*
X129935190Y-76392568D01*
X129950728Y-76407568D01*
X130032612Y-76476540D01*
X130103263Y-76498825D01*
X130202068Y-76483272D01*
X130241652Y-76472938D01*
X130364828Y-76448116D01*
X130451436Y-76459278D01*
X130524576Y-76498646D01*
X130591574Y-76551479D01*
X130640918Y-76617924D01*
X130675209Y-76710652D01*
X130697048Y-76842334D01*
X130709034Y-77025641D01*
X130713769Y-77273246D01*
X130714230Y-77422744D01*
X130714230Y-78065443D01*
X131130623Y-78065443D01*
X131130623Y-76025115D01*
X130922426Y-76025115D01*
X130797475Y-76029540D01*
X130797475Y-76029540D01*
G37*
X130797475Y-76029540D02*
X130735163Y-76048218D01*
X130715075Y-76089255D01*
X130714230Y-76107782D01*
X130710625Y-76159383D01*
X130685800Y-76167484D01*
X130618737Y-76132108D01*
X130578902Y-76107937D01*
X130453227Y-76056175D01*
X130303123Y-76030581D01*
X130145737Y-76028613D01*
X129998214Y-76047729D01*
X129877700Y-76085387D01*
X129801340Y-76139044D01*
X129786281Y-76206158D01*
X129793881Y-76224333D01*
X129849282Y-76299777D01*
X129935190Y-76392568D01*
X129950728Y-76407568D01*
X130032612Y-76476540D01*
X130103263Y-76498825D01*
X130202068Y-76483272D01*
X130241652Y-76472938D01*
X130364828Y-76448116D01*
X130451436Y-76459278D01*
X130524576Y-76498646D01*
X130591574Y-76551479D01*
X130640918Y-76617924D01*
X130675209Y-76710652D01*
X130697048Y-76842334D01*
X130709034Y-77025641D01*
X130713769Y-77273246D01*
X130714230Y-77422744D01*
X130714230Y-78065443D01*
X131130623Y-78065443D01*
X131130623Y-76025115D01*
X130922426Y-76025115D01*
X130797475Y-76029540D01*
G36*
X128174230Y-78065443D02*
G01*
X128403246Y-78065443D01*
X128536175Y-78061546D01*
X128605405Y-78045407D01*
X128630332Y-78010354D01*
X128632262Y-77986653D01*
X128636466Y-77939123D01*
X128662974Y-77930008D01*
X128732633Y-77959308D01*
X128786804Y-77986653D01*
X128994777Y-78051451D01*
X129220853Y-78055201D01*
X129404655Y-78006873D01*
X129575813Y-77890118D01*
X129706284Y-77717781D01*
X129777727Y-77514506D01*
X129779546Y-77503141D01*
X129790161Y-77379136D01*
X129795440Y-77201117D01*
X129795016Y-77066480D01*
X129340172Y-77066480D01*
X129329635Y-77245428D01*
X129305666Y-77392924D01*
X129273217Y-77476217D01*
X129150456Y-77590041D01*
X129004701Y-77630845D01*
X128854393Y-77597848D01*
X128725951Y-77499422D01*
X128677308Y-77433224D01*
X128648866Y-77354231D01*
X128635544Y-77238926D01*
X128632262Y-77065736D01*
X128638135Y-76894229D01*
X128653647Y-76743540D01*
X128675638Y-76642698D01*
X128679303Y-76633659D01*
X128767988Y-76526195D01*
X128897428Y-76467195D01*
X129042257Y-76457669D01*
X129177109Y-76498626D01*
X129276617Y-76591076D01*
X129286940Y-76609473D01*
X129319250Y-76721646D01*
X129336852Y-76882934D01*
X129340172Y-77066480D01*
X129795016Y-77066480D01*
X129794800Y-76998212D01*
X129791806Y-76889010D01*
X129771442Y-76618856D01*
X129729117Y-76416024D01*
X129658706Y-76266077D01*
X129554088Y-76154579D01*
X129452521Y-76089127D01*
X129310616Y-76043117D01*
X129134121Y-76027336D01*
X128953393Y-76040190D01*
X128798787Y-76080081D01*
X128717101Y-76127801D01*
X128632262Y-76204579D01*
X128632262Y-75233967D01*
X128174230Y-75233967D01*
X128174230Y-78065443D01*
X128174230Y-78065443D01*
G37*
X128174230Y-78065443D02*
X128403246Y-78065443D01*
X128536175Y-78061546D01*
X128605405Y-78045407D01*
X128630332Y-78010354D01*
X128632262Y-77986653D01*
X128636466Y-77939123D01*
X128662974Y-77930008D01*
X128732633Y-77959308D01*
X128786804Y-77986653D01*
X128994777Y-78051451D01*
X129220853Y-78055201D01*
X129404655Y-78006873D01*
X129575813Y-77890118D01*
X129706284Y-77717781D01*
X129777727Y-77514506D01*
X129779546Y-77503141D01*
X129790161Y-77379136D01*
X129795440Y-77201117D01*
X129795016Y-77066480D01*
X129340172Y-77066480D01*
X129329635Y-77245428D01*
X129305666Y-77392924D01*
X129273217Y-77476217D01*
X129150456Y-77590041D01*
X129004701Y-77630845D01*
X128854393Y-77597848D01*
X128725951Y-77499422D01*
X128677308Y-77433224D01*
X128648866Y-77354231D01*
X128635544Y-77238926D01*
X128632262Y-77065736D01*
X128638135Y-76894229D01*
X128653647Y-76743540D01*
X128675638Y-76642698D01*
X128679303Y-76633659D01*
X128767988Y-76526195D01*
X128897428Y-76467195D01*
X129042257Y-76457669D01*
X129177109Y-76498626D01*
X129276617Y-76591076D01*
X129286940Y-76609473D01*
X129319250Y-76721646D01*
X129336852Y-76882934D01*
X129340172Y-77066480D01*
X129795016Y-77066480D01*
X129794800Y-76998212D01*
X129791806Y-76889010D01*
X129771442Y-76618856D01*
X129729117Y-76416024D01*
X129658706Y-76266077D01*
X129554088Y-76154579D01*
X129452521Y-76089127D01*
X129310616Y-76043117D01*
X129134121Y-76027336D01*
X128953393Y-76040190D01*
X128798787Y-76080081D01*
X128717101Y-76127801D01*
X128632262Y-76204579D01*
X128632262Y-75233967D01*
X128174230Y-75233967D01*
X128174230Y-78065443D01*
G36*
X126411058Y-76045935D02*
G01*
X126195752Y-76691344D01*
X125980445Y-77336754D01*
X125912936Y-77107738D01*
X125872309Y-76966204D01*
X125818867Y-76774936D01*
X125761158Y-76564693D01*
X125730645Y-76451918D01*
X125615864Y-76025115D01*
X125142313Y-76025115D01*
X125283861Y-76472738D01*
X125353567Y-76692903D01*
X125437777Y-76958471D01*
X125525719Y-77235492D01*
X125604228Y-77482492D01*
X125783048Y-78044623D01*
X125976118Y-78057185D01*
X126169189Y-78069746D01*
X126273882Y-77724070D01*
X126338447Y-77509335D01*
X126408908Y-77272604D01*
X126470489Y-77063526D01*
X126472919Y-77055205D01*
X126518915Y-76913537D01*
X126559497Y-76816874D01*
X126587920Y-76780321D01*
X126593761Y-76784549D01*
X126614262Y-76841217D01*
X126653215Y-76962605D01*
X126705878Y-77133448D01*
X126767509Y-77338482D01*
X126800857Y-77451262D01*
X126981454Y-78065443D01*
X127364733Y-78065443D01*
X127671133Y-77097328D01*
X127757209Y-76825759D01*
X127835620Y-76579138D01*
X127902661Y-76369048D01*
X127954631Y-76207076D01*
X127987826Y-76104808D01*
X127997916Y-76074928D01*
X127989928Y-76044334D01*
X127927208Y-76030935D01*
X127796685Y-76032275D01*
X127776253Y-76033288D01*
X127534208Y-76045935D01*
X127375683Y-76628885D01*
X127317415Y-76841486D01*
X127265345Y-77028377D01*
X127224056Y-77173331D01*
X127198134Y-77260120D01*
X127193344Y-77274269D01*
X127173496Y-77257998D01*
X127133470Y-77173697D01*
X127077862Y-77032842D01*
X127011269Y-76846911D01*
X126954976Y-76678956D01*
X126740422Y-76021209D01*
X126411058Y-76045935D01*
X126411058Y-76045935D01*
G37*
X126411058Y-76045935D02*
X126195752Y-76691344D01*
X125980445Y-77336754D01*
X125912936Y-77107738D01*
X125872309Y-76966204D01*
X125818867Y-76774936D01*
X125761158Y-76564693D01*
X125730645Y-76451918D01*
X125615864Y-76025115D01*
X125142313Y-76025115D01*
X125283861Y-76472738D01*
X125353567Y-76692903D01*
X125437777Y-76958471D01*
X125525719Y-77235492D01*
X125604228Y-77482492D01*
X125783048Y-78044623D01*
X125976118Y-78057185D01*
X126169189Y-78069746D01*
X126273882Y-77724070D01*
X126338447Y-77509335D01*
X126408908Y-77272604D01*
X126470489Y-77063526D01*
X126472919Y-77055205D01*
X126518915Y-76913537D01*
X126559497Y-76816874D01*
X126587920Y-76780321D01*
X126593761Y-76784549D01*
X126614262Y-76841217D01*
X126653215Y-76962605D01*
X126705878Y-77133448D01*
X126767509Y-77338482D01*
X126800857Y-77451262D01*
X126981454Y-78065443D01*
X127364733Y-78065443D01*
X127671133Y-77097328D01*
X127757209Y-76825759D01*
X127835620Y-76579138D01*
X127902661Y-76369048D01*
X127954631Y-76207076D01*
X127987826Y-76104808D01*
X127997916Y-76074928D01*
X127989928Y-76044334D01*
X127927208Y-76030935D01*
X127796685Y-76032275D01*
X127776253Y-76033288D01*
X127534208Y-76045935D01*
X127375683Y-76628885D01*
X127317415Y-76841486D01*
X127265345Y-77028377D01*
X127224056Y-77173331D01*
X127198134Y-77260120D01*
X127193344Y-77274269D01*
X127173496Y-77257998D01*
X127133470Y-77173697D01*
X127077862Y-77032842D01*
X127011269Y-76846911D01*
X126954976Y-76678956D01*
X126740422Y-76021209D01*
X126411058Y-76045935D01*
G36*
X124069330Y-76037480D02*
G01*
X123893821Y-76080109D01*
X123843088Y-76102693D01*
X123744746Y-76161847D01*
X123669273Y-76228472D01*
X123613429Y-76314135D01*
X123573974Y-76430405D01*
X123547668Y-76588848D01*
X123531271Y-76801034D01*
X123521543Y-77078529D01*
X123517849Y-77263885D01*
X123504255Y-78065443D01*
X123736456Y-78065443D01*
X123877323Y-78059536D01*
X123949898Y-78039350D01*
X123968656Y-78005453D01*
X123978559Y-77968799D01*
X124022834Y-77975807D01*
X124083164Y-78005197D01*
X124234197Y-78050246D01*
X124428307Y-78062385D01*
X124632469Y-78042529D01*
X124813660Y-77991592D01*
X124829911Y-77984522D01*
X124995509Y-77868188D01*
X125104676Y-77706467D01*
X125154909Y-77517430D01*
X125151072Y-77449515D01*
X124741237Y-77449515D01*
X124705125Y-77540914D01*
X124598058Y-77606411D01*
X124425316Y-77641563D01*
X124333000Y-77646231D01*
X124179150Y-77634282D01*
X124076885Y-77587844D01*
X124051934Y-77565771D01*
X123984339Y-77445681D01*
X123968656Y-77336754D01*
X123968656Y-77191017D01*
X124171648Y-77191017D01*
X124407613Y-77203043D01*
X124573119Y-77240871D01*
X124677695Y-77307121D01*
X124701109Y-77336656D01*
X124741237Y-77449515D01*
X125151072Y-77449515D01*
X125143705Y-77319148D01*
X125068560Y-77129692D01*
X124966032Y-77001656D01*
X124903935Y-76946302D01*
X124843145Y-76909924D01*
X124764048Y-76887744D01*
X124647029Y-76874982D01*
X124472473Y-76866857D01*
X124403237Y-76864521D01*
X123968656Y-76850321D01*
X123969293Y-76718784D01*
X123986124Y-76580519D01*
X124046974Y-76496917D01*
X124169905Y-76443507D01*
X124173203Y-76442555D01*
X124347496Y-76421555D01*
X124518048Y-76448985D01*
X124644800Y-76515689D01*
X124695658Y-76548625D01*
X124750435Y-76544068D01*
X124834728Y-76496349D01*
X124884227Y-76462671D01*
X124981045Y-76390716D01*
X125041018Y-76336779D01*
X125050641Y-76321337D01*
X125011015Y-76241424D01*
X124893936Y-76145989D01*
X124843082Y-76113789D01*
X124696887Y-76058332D01*
X124499863Y-76026913D01*
X124281011Y-76019855D01*
X124069330Y-76037480D01*
X124069330Y-76037480D01*
G37*
X124069330Y-76037480D02*
X123893821Y-76080109D01*
X123843088Y-76102693D01*
X123744746Y-76161847D01*
X123669273Y-76228472D01*
X123613429Y-76314135D01*
X123573974Y-76430405D01*
X123547668Y-76588848D01*
X123531271Y-76801034D01*
X123521543Y-77078529D01*
X123517849Y-77263885D01*
X123504255Y-78065443D01*
X123736456Y-78065443D01*
X123877323Y-78059536D01*
X123949898Y-78039350D01*
X123968656Y-78005453D01*
X123978559Y-77968799D01*
X124022834Y-77975807D01*
X124083164Y-78005197D01*
X124234197Y-78050246D01*
X124428307Y-78062385D01*
X124632469Y-78042529D01*
X124813660Y-77991592D01*
X124829911Y-77984522D01*
X124995509Y-77868188D01*
X125104676Y-77706467D01*
X125154909Y-77517430D01*
X125151072Y-77449515D01*
X124741237Y-77449515D01*
X124705125Y-77540914D01*
X124598058Y-77606411D01*
X124425316Y-77641563D01*
X124333000Y-77646231D01*
X124179150Y-77634282D01*
X124076885Y-77587844D01*
X124051934Y-77565771D01*
X123984339Y-77445681D01*
X123968656Y-77336754D01*
X123968656Y-77191017D01*
X124171648Y-77191017D01*
X124407613Y-77203043D01*
X124573119Y-77240871D01*
X124677695Y-77307121D01*
X124701109Y-77336656D01*
X124741237Y-77449515D01*
X125151072Y-77449515D01*
X125143705Y-77319148D01*
X125068560Y-77129692D01*
X124966032Y-77001656D01*
X124903935Y-76946302D01*
X124843145Y-76909924D01*
X124764048Y-76887744D01*
X124647029Y-76874982D01*
X124472473Y-76866857D01*
X124403237Y-76864521D01*
X123968656Y-76850321D01*
X123969293Y-76718784D01*
X123986124Y-76580519D01*
X124046974Y-76496917D01*
X124169905Y-76443507D01*
X124173203Y-76442555D01*
X124347496Y-76421555D01*
X124518048Y-76448985D01*
X124644800Y-76515689D01*
X124695658Y-76548625D01*
X124750435Y-76544068D01*
X124834728Y-76496349D01*
X124884227Y-76462671D01*
X124981045Y-76390716D01*
X125041018Y-76336779D01*
X125050641Y-76321337D01*
X125011015Y-76241424D01*
X124893936Y-76145989D01*
X124843082Y-76113789D01*
X124696887Y-76058332D01*
X124499863Y-76026913D01*
X124281011Y-76019855D01*
X124069330Y-76037480D01*
G36*
X122092893Y-76024460D02*
G01*
X121932818Y-76056017D01*
X121841688Y-76102743D01*
X121745821Y-76180370D01*
X121882213Y-76352579D01*
X121966306Y-76456867D01*
X122023408Y-76507746D01*
X122080156Y-76515519D01*
X122163189Y-76490488D01*
X122202167Y-76476327D01*
X122361074Y-76455433D01*
X122506601Y-76500220D01*
X122613440Y-76601399D01*
X122630795Y-76633659D01*
X122649697Y-76719115D01*
X122664284Y-76876606D01*
X122673874Y-77094969D01*
X122677781Y-77363038D01*
X122677836Y-77401172D01*
X122677836Y-78065443D01*
X123135869Y-78065443D01*
X123135869Y-76025115D01*
X122906852Y-76025115D01*
X122774801Y-76028563D01*
X122706008Y-76043907D01*
X122680570Y-76078648D01*
X122677836Y-76111416D01*
X122677836Y-76197717D01*
X122568122Y-76111416D01*
X122442320Y-76052538D01*
X122273319Y-76023426D01*
X122092893Y-76024460D01*
X122092893Y-76024460D01*
G37*
X122092893Y-76024460D02*
X121932818Y-76056017D01*
X121841688Y-76102743D01*
X121745821Y-76180370D01*
X121882213Y-76352579D01*
X121966306Y-76456867D01*
X122023408Y-76507746D01*
X122080156Y-76515519D01*
X122163189Y-76490488D01*
X122202167Y-76476327D01*
X122361074Y-76455433D01*
X122506601Y-76500220D01*
X122613440Y-76601399D01*
X122630795Y-76633659D01*
X122649697Y-76719115D01*
X122664284Y-76876606D01*
X122673874Y-77094969D01*
X122677781Y-77363038D01*
X122677836Y-77401172D01*
X122677836Y-78065443D01*
X123135869Y-78065443D01*
X123135869Y-76025115D01*
X122906852Y-76025115D01*
X122774801Y-76028563D01*
X122706008Y-76043907D01*
X122680570Y-76078648D01*
X122677836Y-76111416D01*
X122677836Y-76197717D01*
X122568122Y-76111416D01*
X122442320Y-76052538D01*
X122273319Y-76023426D01*
X122092893Y-76024460D01*
G36*
X120777158Y-76035999D02*
G01*
X120578124Y-76087746D01*
X120411439Y-76194544D01*
X120330731Y-76274326D01*
X120198432Y-76462931D01*
X120122610Y-76681720D01*
X120096562Y-76950668D01*
X120096429Y-76972410D01*
X120096197Y-77191017D01*
X121354405Y-77191017D01*
X121327585Y-77305525D01*
X121279159Y-77409232D01*
X121194404Y-77517290D01*
X121176677Y-77534541D01*
X121024320Y-77627904D01*
X120850576Y-77643738D01*
X120650589Y-77582313D01*
X120616689Y-77565771D01*
X120512712Y-77515484D01*
X120443069Y-77486834D01*
X120430917Y-77484184D01*
X120388499Y-77509913D01*
X120307601Y-77572861D01*
X120266535Y-77607259D01*
X120181440Y-77686276D01*
X120153497Y-77738451D01*
X120172890Y-77786446D01*
X120183257Y-77799570D01*
X120253469Y-77857008D01*
X120369326Y-77926813D01*
X120450131Y-77967564D01*
X120679499Y-78039362D01*
X120933436Y-78062625D01*
X121173926Y-78035059D01*
X121241279Y-78015321D01*
X121449738Y-77903612D01*
X121604254Y-77731721D01*
X121705722Y-77497979D01*
X121755035Y-77200716D01*
X121760449Y-77045279D01*
X121744641Y-76818973D01*
X121345377Y-76818973D01*
X121306760Y-76835702D01*
X121202958Y-76848829D01*
X121052044Y-76856575D01*
X120949803Y-76857902D01*
X120765899Y-76856623D01*
X120649826Y-76850638D01*
X120586148Y-76836724D01*
X120559433Y-76811655D01*
X120554230Y-76775280D01*
X120589927Y-76663229D01*
X120679804Y-76552488D01*
X120798034Y-76467489D01*
X120916310Y-76432718D01*
X121076956Y-76463563D01*
X121216022Y-76552732D01*
X121312443Y-76681263D01*
X121345377Y-76818973D01*
X121744641Y-76818973D01*
X121737428Y-76715733D01*
X121666376Y-76453175D01*
X121545790Y-76255525D01*
X121374166Y-76120702D01*
X121150002Y-76046626D01*
X121028562Y-76032360D01*
X120777158Y-76035999D01*
X120777158Y-76035999D01*
G37*
X120777158Y-76035999D02*
X120578124Y-76087746D01*
X120411439Y-76194544D01*
X120330731Y-76274326D01*
X120198432Y-76462931D01*
X120122610Y-76681720D01*
X120096562Y-76950668D01*
X120096429Y-76972410D01*
X120096197Y-77191017D01*
X121354405Y-77191017D01*
X121327585Y-77305525D01*
X121279159Y-77409232D01*
X121194404Y-77517290D01*
X121176677Y-77534541D01*
X121024320Y-77627904D01*
X120850576Y-77643738D01*
X120650589Y-77582313D01*
X120616689Y-77565771D01*
X120512712Y-77515484D01*
X120443069Y-77486834D01*
X120430917Y-77484184D01*
X120388499Y-77509913D01*
X120307601Y-77572861D01*
X120266535Y-77607259D01*
X120181440Y-77686276D01*
X120153497Y-77738451D01*
X120172890Y-77786446D01*
X120183257Y-77799570D01*
X120253469Y-77857008D01*
X120369326Y-77926813D01*
X120450131Y-77967564D01*
X120679499Y-78039362D01*
X120933436Y-78062625D01*
X121173926Y-78035059D01*
X121241279Y-78015321D01*
X121449738Y-77903612D01*
X121604254Y-77731721D01*
X121705722Y-77497979D01*
X121755035Y-77200716D01*
X121760449Y-77045279D01*
X121744641Y-76818973D01*
X121345377Y-76818973D01*
X121306760Y-76835702D01*
X121202958Y-76848829D01*
X121052044Y-76856575D01*
X120949803Y-76857902D01*
X120765899Y-76856623D01*
X120649826Y-76850638D01*
X120586148Y-76836724D01*
X120559433Y-76811655D01*
X120554230Y-76775280D01*
X120589927Y-76663229D01*
X120679804Y-76552488D01*
X120798034Y-76467489D01*
X120916310Y-76432718D01*
X121076956Y-76463563D01*
X121216022Y-76552732D01*
X121312443Y-76681263D01*
X121345377Y-76818973D01*
X121744641Y-76818973D01*
X121737428Y-76715733D01*
X121666376Y-76453175D01*
X121545790Y-76255525D01*
X121374166Y-76120702D01*
X121150002Y-76046626D01*
X121028562Y-76032360D01*
X120777158Y-76035999D01*
G36*
X135913390Y-72923802D02*
G01*
X135695553Y-73020108D01*
X135530184Y-73180919D01*
X135417043Y-73406482D01*
X135355888Y-73697042D01*
X135351505Y-73742408D01*
X135348070Y-74062256D01*
X135392602Y-74342614D01*
X135482391Y-74569847D01*
X135530471Y-74642941D01*
X135697945Y-74797643D01*
X135911232Y-74897838D01*
X136149846Y-74939418D01*
X136393303Y-74918272D01*
X136578370Y-74853145D01*
X136737521Y-74743393D01*
X136867596Y-74599496D01*
X136869846Y-74596130D01*
X136922670Y-74507314D01*
X136956999Y-74418005D01*
X136977788Y-74305294D01*
X136989991Y-74146273D01*
X136995367Y-74015868D01*
X136997605Y-73897611D01*
X136581294Y-73897611D01*
X136577225Y-74015335D01*
X136562455Y-74172049D01*
X136536398Y-74272621D01*
X136489407Y-74344173D01*
X136445397Y-74385971D01*
X136289377Y-74473484D01*
X136126131Y-74485179D01*
X135974096Y-74422212D01*
X135898080Y-74351653D01*
X135843303Y-74280550D01*
X135811263Y-74212512D01*
X135797200Y-74123967D01*
X135796358Y-73991339D01*
X135800691Y-73869195D01*
X135810011Y-73694710D01*
X135824788Y-73581538D01*
X135851420Y-73507721D01*
X135896309Y-73451298D01*
X135931880Y-73419050D01*
X136080671Y-73334340D01*
X136241187Y-73330117D01*
X136375780Y-73380292D01*
X136490600Y-73485075D01*
X136559004Y-73657198D01*
X136581294Y-73897611D01*
X136997605Y-73897611D01*
X137000276Y-73756548D01*
X136991893Y-73562610D01*
X136966772Y-73416745D01*
X136921468Y-73301641D01*
X136852536Y-73199986D01*
X136826978Y-73169802D01*
X136667175Y-73019412D01*
X136495769Y-72931566D01*
X136286151Y-72894762D01*
X136183936Y-72891754D01*
X135913390Y-72923802D01*
X135913390Y-72923802D01*
G37*
X135913390Y-72923802D02*
X135695553Y-73020108D01*
X135530184Y-73180919D01*
X135417043Y-73406482D01*
X135355888Y-73697042D01*
X135351505Y-73742408D01*
X135348070Y-74062256D01*
X135392602Y-74342614D01*
X135482391Y-74569847D01*
X135530471Y-74642941D01*
X135697945Y-74797643D01*
X135911232Y-74897838D01*
X136149846Y-74939418D01*
X136393303Y-74918272D01*
X136578370Y-74853145D01*
X136737521Y-74743393D01*
X136867596Y-74599496D01*
X136869846Y-74596130D01*
X136922670Y-74507314D01*
X136956999Y-74418005D01*
X136977788Y-74305294D01*
X136989991Y-74146273D01*
X136995367Y-74015868D01*
X136997605Y-73897611D01*
X136581294Y-73897611D01*
X136577225Y-74015335D01*
X136562455Y-74172049D01*
X136536398Y-74272621D01*
X136489407Y-74344173D01*
X136445397Y-74385971D01*
X136289377Y-74473484D01*
X136126131Y-74485179D01*
X135974096Y-74422212D01*
X135898080Y-74351653D01*
X135843303Y-74280550D01*
X135811263Y-74212512D01*
X135797200Y-74123967D01*
X135796358Y-73991339D01*
X135800691Y-73869195D01*
X135810011Y-73694710D01*
X135824788Y-73581538D01*
X135851420Y-73507721D01*
X135896309Y-73451298D01*
X135931880Y-73419050D01*
X136080671Y-73334340D01*
X136241187Y-73330117D01*
X136375780Y-73380292D01*
X136490600Y-73485075D01*
X136559004Y-73657198D01*
X136581294Y-73897611D01*
X136997605Y-73897611D01*
X137000276Y-73756548D01*
X136991893Y-73562610D01*
X136966772Y-73416745D01*
X136921468Y-73301641D01*
X136852536Y-73199986D01*
X136826978Y-73169802D01*
X136667175Y-73019412D01*
X136495769Y-72931566D01*
X136286151Y-72894762D01*
X136183936Y-72891754D01*
X135913390Y-72923802D01*
G36*
X132000675Y-72948526D02*
G01*
X131959181Y-72968061D01*
X131815566Y-73073263D01*
X131679764Y-73226793D01*
X131578362Y-73395845D01*
X131549520Y-73473567D01*
X131523206Y-73612398D01*
X131507515Y-73780177D01*
X131505609Y-73849459D01*
X131505377Y-74068066D01*
X132763585Y-74068066D01*
X132736766Y-74182574D01*
X132670934Y-74318004D01*
X132555839Y-74435046D01*
X132418913Y-74510442D01*
X132331658Y-74526098D01*
X132213328Y-74507099D01*
X132072149Y-74459446D01*
X132024189Y-74437521D01*
X131846829Y-74348944D01*
X131695470Y-74464391D01*
X131608131Y-74542474D01*
X131561658Y-74606922D01*
X131559305Y-74625837D01*
X131600822Y-74671681D01*
X131691810Y-74741349D01*
X131774395Y-74795700D01*
X131997249Y-74893405D01*
X132247087Y-74937628D01*
X132494710Y-74926130D01*
X132692098Y-74866029D01*
X132895576Y-74737284D01*
X133040179Y-74567774D01*
X133130639Y-74348462D01*
X133171689Y-74070309D01*
X133175329Y-73943034D01*
X133160761Y-73651375D01*
X133158972Y-73642891D01*
X132742059Y-73642891D01*
X132730577Y-73670242D01*
X132683384Y-73685324D01*
X132586049Y-73691788D01*
X132424136Y-73693285D01*
X132361790Y-73693312D01*
X132172103Y-73691052D01*
X132051811Y-73682844D01*
X131987116Y-73666550D01*
X131964220Y-73640027D01*
X131963410Y-73631510D01*
X131989540Y-73563825D01*
X132054937Y-73469005D01*
X132083052Y-73435805D01*
X132187426Y-73341906D01*
X132296225Y-73304988D01*
X132354843Y-73301902D01*
X132513426Y-73340493D01*
X132646413Y-73444155D01*
X132730772Y-73594717D01*
X132732267Y-73599623D01*
X132742059Y-73642891D01*
X133158972Y-73642891D01*
X133112316Y-73421722D01*
X133025045Y-73237983D01*
X132918311Y-73107557D01*
X132720980Y-72966131D01*
X132489015Y-72890556D01*
X132242288Y-72883724D01*
X132000675Y-72948526D01*
X132000675Y-72948526D01*
G37*
X132000675Y-72948526D02*
X131959181Y-72968061D01*
X131815566Y-73073263D01*
X131679764Y-73226793D01*
X131578362Y-73395845D01*
X131549520Y-73473567D01*
X131523206Y-73612398D01*
X131507515Y-73780177D01*
X131505609Y-73849459D01*
X131505377Y-74068066D01*
X132763585Y-74068066D01*
X132736766Y-74182574D01*
X132670934Y-74318004D01*
X132555839Y-74435046D01*
X132418913Y-74510442D01*
X132331658Y-74526098D01*
X132213328Y-74507099D01*
X132072149Y-74459446D01*
X132024189Y-74437521D01*
X131846829Y-74348944D01*
X131695470Y-74464391D01*
X131608131Y-74542474D01*
X131561658Y-74606922D01*
X131559305Y-74625837D01*
X131600822Y-74671681D01*
X131691810Y-74741349D01*
X131774395Y-74795700D01*
X131997249Y-74893405D01*
X132247087Y-74937628D01*
X132494710Y-74926130D01*
X132692098Y-74866029D01*
X132895576Y-74737284D01*
X133040179Y-74567774D01*
X133130639Y-74348462D01*
X133171689Y-74070309D01*
X133175329Y-73943034D01*
X133160761Y-73651375D01*
X133158972Y-73642891D01*
X132742059Y-73642891D01*
X132730577Y-73670242D01*
X132683384Y-73685324D01*
X132586049Y-73691788D01*
X132424136Y-73693285D01*
X132361790Y-73693312D01*
X132172103Y-73691052D01*
X132051811Y-73682844D01*
X131987116Y-73666550D01*
X131964220Y-73640027D01*
X131963410Y-73631510D01*
X131989540Y-73563825D01*
X132054937Y-73469005D01*
X132083052Y-73435805D01*
X132187426Y-73341906D01*
X132296225Y-73304988D01*
X132354843Y-73301902D01*
X132513426Y-73340493D01*
X132646413Y-73444155D01*
X132730772Y-73594717D01*
X132732267Y-73599623D01*
X132742059Y-73642891D01*
X133158972Y-73642891D01*
X133112316Y-73421722D01*
X133025045Y-73237983D01*
X132918311Y-73107557D01*
X132720980Y-72966131D01*
X132489015Y-72890556D01*
X132242288Y-72883724D01*
X132000675Y-72948526D01*
G36*
X127461582Y-72895003D02*
G01*
X127303900Y-72924907D01*
X127140315Y-72987452D01*
X127122836Y-72995426D01*
X126998783Y-73060656D01*
X126912871Y-73121274D01*
X126885102Y-73160106D01*
X126911547Y-73223437D01*
X126975780Y-73316881D01*
X127004292Y-73351762D01*
X127121789Y-73489066D01*
X127273268Y-73399691D01*
X127417430Y-73340152D01*
X127584000Y-73308326D01*
X127743738Y-73306316D01*
X127867406Y-73336221D01*
X127897084Y-73354886D01*
X127953602Y-73440466D01*
X127960471Y-73539049D01*
X127918180Y-73616062D01*
X127893164Y-73630998D01*
X127818204Y-73649547D01*
X127686439Y-73671348D01*
X127524009Y-73692180D01*
X127494044Y-73695447D01*
X127233160Y-73740575D01*
X127043945Y-73817230D01*
X126918457Y-73932491D01*
X126848757Y-74093435D01*
X126827044Y-74290015D01*
X126857039Y-74513473D01*
X126954441Y-74688949D01*
X127119639Y-74816758D01*
X127353023Y-74897218D01*
X127612098Y-74928962D01*
X127823367Y-74928580D01*
X127994735Y-74899749D01*
X128111770Y-74859944D01*
X128259650Y-74790587D01*
X128396313Y-74710097D01*
X128444885Y-74674670D01*
X128569803Y-74572705D01*
X128268491Y-74267813D01*
X128097204Y-74381165D01*
X127925406Y-74466300D01*
X127741952Y-74510830D01*
X127565603Y-74515528D01*
X127415119Y-74481170D01*
X127309260Y-74408529D01*
X127275079Y-74347238D01*
X127280206Y-74248941D01*
X127365143Y-74173773D01*
X127529657Y-74121866D01*
X127709899Y-74097875D01*
X127987291Y-74052104D01*
X128193365Y-73965748D01*
X128330878Y-73836280D01*
X128402587Y-73661172D01*
X128412521Y-73453565D01*
X128363452Y-73236714D01*
X128251580Y-73072805D01*
X128075903Y-72961088D01*
X127835419Y-72900814D01*
X127657257Y-72888999D01*
X127461582Y-72895003D01*
X127461582Y-72895003D01*
G37*
X127461582Y-72895003D02*
X127303900Y-72924907D01*
X127140315Y-72987452D01*
X127122836Y-72995426D01*
X126998783Y-73060656D01*
X126912871Y-73121274D01*
X126885102Y-73160106D01*
X126911547Y-73223437D01*
X126975780Y-73316881D01*
X127004292Y-73351762D01*
X127121789Y-73489066D01*
X127273268Y-73399691D01*
X127417430Y-73340152D01*
X127584000Y-73308326D01*
X127743738Y-73306316D01*
X127867406Y-73336221D01*
X127897084Y-73354886D01*
X127953602Y-73440466D01*
X127960471Y-73539049D01*
X127918180Y-73616062D01*
X127893164Y-73630998D01*
X127818204Y-73649547D01*
X127686439Y-73671348D01*
X127524009Y-73692180D01*
X127494044Y-73695447D01*
X127233160Y-73740575D01*
X127043945Y-73817230D01*
X126918457Y-73932491D01*
X126848757Y-74093435D01*
X126827044Y-74290015D01*
X126857039Y-74513473D01*
X126954441Y-74688949D01*
X127119639Y-74816758D01*
X127353023Y-74897218D01*
X127612098Y-74928962D01*
X127823367Y-74928580D01*
X127994735Y-74899749D01*
X128111770Y-74859944D01*
X128259650Y-74790587D01*
X128396313Y-74710097D01*
X128444885Y-74674670D01*
X128569803Y-74572705D01*
X128268491Y-74267813D01*
X128097204Y-74381165D01*
X127925406Y-74466300D01*
X127741952Y-74510830D01*
X127565603Y-74515528D01*
X127415119Y-74481170D01*
X127309260Y-74408529D01*
X127275079Y-74347238D01*
X127280206Y-74248941D01*
X127365143Y-74173773D01*
X127529657Y-74121866D01*
X127709899Y-74097875D01*
X127987291Y-74052104D01*
X128193365Y-73965748D01*
X128330878Y-73836280D01*
X128402587Y-73661172D01*
X128412521Y-73453565D01*
X128363452Y-73236714D01*
X128251580Y-73072805D01*
X128075903Y-72961088D01*
X127835419Y-72900814D01*
X127657257Y-72888999D01*
X127461582Y-72895003D01*
G36*
X125485479Y-72926805D02*
G01*
X125274864Y-73041505D01*
X125110085Y-73222574D01*
X125032446Y-73369838D01*
X124999114Y-73499907D01*
X124977517Y-73685333D01*
X124968261Y-73898939D01*
X124971955Y-74113550D01*
X124989206Y-74301991D01*
X125009357Y-74402637D01*
X125077333Y-74540323D01*
X125195058Y-74686566D01*
X125336935Y-74814452D01*
X125477368Y-74897063D01*
X125480793Y-74898373D01*
X125655055Y-74934472D01*
X125861573Y-74935365D01*
X126057826Y-74902501D01*
X126133604Y-74876161D01*
X126328779Y-74765484D01*
X126468562Y-74620478D01*
X126560401Y-74428503D01*
X126611746Y-74176920D01*
X126623363Y-74045142D01*
X126621881Y-73879553D01*
X126175541Y-73879553D01*
X126160506Y-74121177D01*
X126117228Y-74305303D01*
X126048449Y-74422949D01*
X125999450Y-74456590D01*
X125873907Y-74480050D01*
X125724682Y-74473104D01*
X125595667Y-74439345D01*
X125561834Y-74420772D01*
X125472572Y-74312599D01*
X125413655Y-74147051D01*
X125388576Y-73945581D01*
X125400826Y-73729646D01*
X125428204Y-73599690D01*
X125506809Y-73449191D01*
X125630896Y-73355114D01*
X125780339Y-73322587D01*
X125935013Y-73356738D01*
X126053826Y-73440273D01*
X126116265Y-73509193D01*
X126152707Y-73577126D01*
X126170077Y-73669064D01*
X126175301Y-73809999D01*
X126175541Y-73879553D01*
X126621881Y-73879553D01*
X126620215Y-73693495D01*
X126562944Y-73405134D01*
X126451543Y-73180049D01*
X126286007Y-73018230D01*
X126066330Y-72919666D01*
X126019158Y-72908236D01*
X125735664Y-72881406D01*
X125485479Y-72926805D01*
X125485479Y-72926805D01*
G37*
X125485479Y-72926805D02*
X125274864Y-73041505D01*
X125110085Y-73222574D01*
X125032446Y-73369838D01*
X124999114Y-73499907D01*
X124977517Y-73685333D01*
X124968261Y-73898939D01*
X124971955Y-74113550D01*
X124989206Y-74301991D01*
X125009357Y-74402637D01*
X125077333Y-74540323D01*
X125195058Y-74686566D01*
X125336935Y-74814452D01*
X125477368Y-74897063D01*
X125480793Y-74898373D01*
X125655055Y-74934472D01*
X125861573Y-74935365D01*
X126057826Y-74902501D01*
X126133604Y-74876161D01*
X126328779Y-74765484D01*
X126468562Y-74620478D01*
X126560401Y-74428503D01*
X126611746Y-74176920D01*
X126623363Y-74045142D01*
X126621881Y-73879553D01*
X126175541Y-73879553D01*
X126160506Y-74121177D01*
X126117228Y-74305303D01*
X126048449Y-74422949D01*
X125999450Y-74456590D01*
X125873907Y-74480050D01*
X125724682Y-74473104D01*
X125595667Y-74439345D01*
X125561834Y-74420772D01*
X125472572Y-74312599D01*
X125413655Y-74147051D01*
X125388576Y-73945581D01*
X125400826Y-73729646D01*
X125428204Y-73599690D01*
X125506809Y-73449191D01*
X125630896Y-73355114D01*
X125780339Y-73322587D01*
X125935013Y-73356738D01*
X126053826Y-73440273D01*
X126116265Y-73509193D01*
X126152707Y-73577126D01*
X126170077Y-73669064D01*
X126175301Y-73809999D01*
X126175541Y-73879553D01*
X126621881Y-73879553D01*
X126620215Y-73693495D01*
X126562944Y-73405134D01*
X126451543Y-73180049D01*
X126286007Y-73018230D01*
X126066330Y-72919666D01*
X126019158Y-72908236D01*
X125735664Y-72881406D01*
X125485479Y-72926805D01*
G36*
X124218492Y-73550311D02*
G01*
X124214556Y-73855698D01*
X124200177Y-74087660D01*
X124171496Y-74255786D01*
X124124652Y-74369671D01*
X124055789Y-74438905D01*
X123961046Y-74473080D01*
X123843738Y-74481811D01*
X123720877Y-74472028D01*
X123627556Y-74436287D01*
X123559916Y-74364995D01*
X123514099Y-74248561D01*
X123486245Y-74077391D01*
X123472496Y-73841896D01*
X123468984Y-73550311D01*
X123468984Y-72902164D01*
X123010951Y-72902164D01*
X123010951Y-74900853D01*
X123239967Y-74900853D01*
X123378029Y-74895258D01*
X123449122Y-74875611D01*
X123468984Y-74838313D01*
X123480946Y-74805094D01*
X123528553Y-74812121D01*
X123624515Y-74859132D01*
X123844452Y-74931654D01*
X124077726Y-74926516D01*
X124301245Y-74847766D01*
X124407687Y-74785558D01*
X124488878Y-74718204D01*
X124548192Y-74633928D01*
X124589004Y-74520957D01*
X124614688Y-74367515D01*
X124628619Y-74161827D01*
X124634171Y-73892118D01*
X124634885Y-73683551D01*
X124634885Y-72902164D01*
X124218492Y-72902164D01*
X124218492Y-73550311D01*
X124218492Y-73550311D01*
G37*
X124218492Y-73550311D02*
X124214556Y-73855698D01*
X124200177Y-74087660D01*
X124171496Y-74255786D01*
X124124652Y-74369671D01*
X124055789Y-74438905D01*
X123961046Y-74473080D01*
X123843738Y-74481811D01*
X123720877Y-74472028D01*
X123627556Y-74436287D01*
X123559916Y-74364995D01*
X123514099Y-74248561D01*
X123486245Y-74077391D01*
X123472496Y-73841896D01*
X123468984Y-73550311D01*
X123468984Y-72902164D01*
X123010951Y-72902164D01*
X123010951Y-74900853D01*
X123239967Y-74900853D01*
X123378029Y-74895258D01*
X123449122Y-74875611D01*
X123468984Y-74838313D01*
X123480946Y-74805094D01*
X123528553Y-74812121D01*
X123624515Y-74859132D01*
X123844452Y-74931654D01*
X124077726Y-74926516D01*
X124301245Y-74847766D01*
X124407687Y-74785558D01*
X124488878Y-74718204D01*
X124548192Y-74633928D01*
X124589004Y-74520957D01*
X124614688Y-74367515D01*
X124628619Y-74161827D01*
X124634171Y-73892118D01*
X124634885Y-73683551D01*
X124634885Y-72902164D01*
X124218492Y-72902164D01*
X124218492Y-73550311D01*
G36*
X120165712Y-72919602D02*
G01*
X119924457Y-73022090D01*
X119848469Y-73071981D01*
X119751352Y-73148651D01*
X119690388Y-73208936D01*
X119679803Y-73228571D01*
X119709692Y-73272142D01*
X119786181Y-73346077D01*
X119847418Y-73397679D01*
X120015033Y-73532378D01*
X120147386Y-73421010D01*
X120249664Y-73349113D01*
X120349390Y-73324296D01*
X120463525Y-73330357D01*
X120644766Y-73375418D01*
X120769525Y-73468949D01*
X120845342Y-73620154D01*
X120879760Y-73838236D01*
X120879769Y-73838373D01*
X120876792Y-74082124D01*
X120830533Y-74260966D01*
X120738258Y-74382730D01*
X120675350Y-74423964D01*
X120508283Y-74475311D01*
X120329838Y-74475342D01*
X120174585Y-74425522D01*
X120137836Y-74401180D01*
X120045670Y-74339004D01*
X119973613Y-74328813D01*
X119895898Y-74375092D01*
X119809982Y-74458212D01*
X119673989Y-74598521D01*
X119824977Y-74722978D01*
X120058260Y-74863443D01*
X120321327Y-74932666D01*
X120596240Y-74927653D01*
X120776784Y-74881755D01*
X120987806Y-74768249D01*
X121156574Y-74589685D01*
X121233247Y-74463639D01*
X121295346Y-74282791D01*
X121326419Y-74053745D01*
X121326658Y-73805510D01*
X121296257Y-73567093D01*
X121235408Y-73367503D01*
X121225824Y-73347039D01*
X121083898Y-73146341D01*
X120891741Y-73000217D01*
X120664536Y-72911698D01*
X120417465Y-72883815D01*
X120165712Y-72919602D01*
X120165712Y-72919602D01*
G37*
X120165712Y-72919602D02*
X119924457Y-73022090D01*
X119848469Y-73071981D01*
X119751352Y-73148651D01*
X119690388Y-73208936D01*
X119679803Y-73228571D01*
X119709692Y-73272142D01*
X119786181Y-73346077D01*
X119847418Y-73397679D01*
X120015033Y-73532378D01*
X120147386Y-73421010D01*
X120249664Y-73349113D01*
X120349390Y-73324296D01*
X120463525Y-73330357D01*
X120644766Y-73375418D01*
X120769525Y-73468949D01*
X120845342Y-73620154D01*
X120879760Y-73838236D01*
X120879769Y-73838373D01*
X120876792Y-74082124D01*
X120830533Y-74260966D01*
X120738258Y-74382730D01*
X120675350Y-74423964D01*
X120508283Y-74475311D01*
X120329838Y-74475342D01*
X120174585Y-74425522D01*
X120137836Y-74401180D01*
X120045670Y-74339004D01*
X119973613Y-74328813D01*
X119895898Y-74375092D01*
X119809982Y-74458212D01*
X119673989Y-74598521D01*
X119824977Y-74722978D01*
X120058260Y-74863443D01*
X120321327Y-74932666D01*
X120596240Y-74927653D01*
X120776784Y-74881755D01*
X120987806Y-74768249D01*
X121156574Y-74589685D01*
X121233247Y-74463639D01*
X121295346Y-74282791D01*
X121326419Y-74053745D01*
X121326658Y-73805510D01*
X121296257Y-73567093D01*
X121235408Y-73367503D01*
X121225824Y-73347039D01*
X121083898Y-73146341D01*
X120891741Y-73000217D01*
X120664536Y-72911698D01*
X120417465Y-72883815D01*
X120165712Y-72919602D01*
G36*
X118640208Y-72895019D02*
G01*
X118533586Y-72920922D01*
X118329170Y-73015772D01*
X118154375Y-73160633D01*
X118033403Y-73334320D01*
X118016783Y-73373317D01*
X117993984Y-73475465D01*
X117978025Y-73626573D01*
X117972590Y-73779301D01*
X117972590Y-74068066D01*
X118576361Y-74068066D01*
X118825381Y-74069007D01*
X119000811Y-74074723D01*
X119112335Y-74089550D01*
X119169640Y-74117827D01*
X119182412Y-74163890D01*
X119160338Y-74232077D01*
X119120795Y-74311863D01*
X119010491Y-74445017D01*
X118857208Y-74511355D01*
X118669859Y-74509194D01*
X118457637Y-74436991D01*
X118274227Y-74347883D01*
X118122038Y-74468220D01*
X117969849Y-74588558D01*
X118113026Y-74720843D01*
X118304172Y-74845832D01*
X118539247Y-74921189D01*
X118792102Y-74942278D01*
X119036587Y-74904460D01*
X119076033Y-74891628D01*
X119290910Y-74779414D01*
X119450750Y-74612118D01*
X119558920Y-74384748D01*
X119618790Y-74092308D01*
X119619487Y-74086040D01*
X119624848Y-73767332D01*
X119603177Y-73653632D01*
X119180131Y-73653632D01*
X119141278Y-73671116D01*
X119035795Y-73684508D01*
X118880293Y-73692155D01*
X118781751Y-73693312D01*
X118597987Y-73692588D01*
X118483086Y-73687983D01*
X118422634Y-73675848D01*
X118402217Y-73652530D01*
X118407419Y-73614382D01*
X118411783Y-73599623D01*
X118486276Y-73460944D01*
X118603434Y-73349179D01*
X118706827Y-73300066D01*
X118844184Y-73303032D01*
X118983371Y-73364278D01*
X119100126Y-73465683D01*
X119170190Y-73589122D01*
X119180131Y-73653632D01*
X119603177Y-73653632D01*
X119571421Y-73487020D01*
X119465428Y-73251780D01*
X119313089Y-73068284D01*
X119120626Y-72943209D01*
X118894258Y-72883229D01*
X118640208Y-72895019D01*
X118640208Y-72895019D01*
G37*
X118640208Y-72895019D02*
X118533586Y-72920922D01*
X118329170Y-73015772D01*
X118154375Y-73160633D01*
X118033403Y-73334320D01*
X118016783Y-73373317D01*
X117993984Y-73475465D01*
X117978025Y-73626573D01*
X117972590Y-73779301D01*
X117972590Y-74068066D01*
X118576361Y-74068066D01*
X118825381Y-74069007D01*
X119000811Y-74074723D01*
X119112335Y-74089550D01*
X119169640Y-74117827D01*
X119182412Y-74163890D01*
X119160338Y-74232077D01*
X119120795Y-74311863D01*
X119010491Y-74445017D01*
X118857208Y-74511355D01*
X118669859Y-74509194D01*
X118457637Y-74436991D01*
X118274227Y-74347883D01*
X118122038Y-74468220D01*
X117969849Y-74588558D01*
X118113026Y-74720843D01*
X118304172Y-74845832D01*
X118539247Y-74921189D01*
X118792102Y-74942278D01*
X119036587Y-74904460D01*
X119076033Y-74891628D01*
X119290910Y-74779414D01*
X119450750Y-74612118D01*
X119558920Y-74384748D01*
X119618790Y-74092308D01*
X119619487Y-74086040D01*
X119624848Y-73767332D01*
X119603177Y-73653632D01*
X119180131Y-73653632D01*
X119141278Y-73671116D01*
X119035795Y-73684508D01*
X118880293Y-73692155D01*
X118781751Y-73693312D01*
X118597987Y-73692588D01*
X118483086Y-73687983D01*
X118422634Y-73675848D01*
X118402217Y-73652530D01*
X118407419Y-73614382D01*
X118411783Y-73599623D01*
X118486276Y-73460944D01*
X118603434Y-73349179D01*
X118706827Y-73300066D01*
X118844184Y-73303032D01*
X118983371Y-73364278D01*
X119100126Y-73465683D01*
X119170190Y-73589122D01*
X119180131Y-73653632D01*
X119603177Y-73653632D01*
X119571421Y-73487020D01*
X119465428Y-73251780D01*
X119313089Y-73068284D01*
X119120626Y-72943209D01*
X118894258Y-72883229D01*
X118640208Y-72895019D01*
G36*
X130004892Y-72936563D02*
G01*
X129901260Y-72986062D01*
X129800894Y-73057561D01*
X129724432Y-73139853D01*
X129668738Y-73244811D01*
X129630677Y-73384313D01*
X129607115Y-73570233D01*
X129594915Y-73814448D01*
X129590944Y-74128833D01*
X129590882Y-74161754D01*
X129589967Y-74900853D01*
X130048000Y-74900853D01*
X130048000Y-74219481D01*
X130048326Y-73967050D01*
X130050581Y-73784093D01*
X130056681Y-73656807D01*
X130068541Y-73571386D01*
X130088076Y-73514026D01*
X130117203Y-73470924D01*
X130157776Y-73428334D01*
X130299731Y-73336824D01*
X130454694Y-73319843D01*
X130602323Y-73377701D01*
X130653663Y-73420763D01*
X130691353Y-73461249D01*
X130718413Y-73504607D01*
X130736603Y-73564463D01*
X130747684Y-73654441D01*
X130753414Y-73788168D01*
X130755556Y-73979270D01*
X130755869Y-74211911D01*
X130755869Y-74900853D01*
X131213902Y-74900853D01*
X131213902Y-72902164D01*
X130984885Y-72902164D01*
X130847386Y-72907602D01*
X130776447Y-72926909D01*
X130755878Y-72964576D01*
X130755869Y-72965692D01*
X130746325Y-73002581D01*
X130704233Y-72998395D01*
X130620541Y-72957861D01*
X130430727Y-72898224D01*
X130213599Y-72891591D01*
X130004892Y-72936563D01*
X130004892Y-72936563D01*
G37*
X130004892Y-72936563D02*
X129901260Y-72986062D01*
X129800894Y-73057561D01*
X129724432Y-73139853D01*
X129668738Y-73244811D01*
X129630677Y-73384313D01*
X129607115Y-73570233D01*
X129594915Y-73814448D01*
X129590944Y-74128833D01*
X129590882Y-74161754D01*
X129589967Y-74900853D01*
X130048000Y-74900853D01*
X130048000Y-74219481D01*
X130048326Y-73967050D01*
X130050581Y-73784093D01*
X130056681Y-73656807D01*
X130068541Y-73571386D01*
X130088076Y-73514026D01*
X130117203Y-73470924D01*
X130157776Y-73428334D01*
X130299731Y-73336824D01*
X130454694Y-73319843D01*
X130602323Y-73377701D01*
X130653663Y-73420763D01*
X130691353Y-73461249D01*
X130718413Y-73504607D01*
X130736603Y-73564463D01*
X130747684Y-73654441D01*
X130753414Y-73788168D01*
X130755556Y-73979270D01*
X130755869Y-74211911D01*
X130755869Y-74900853D01*
X131213902Y-74900853D01*
X131213902Y-72902164D01*
X130984885Y-72902164D01*
X130847386Y-72907602D01*
X130776447Y-72926909D01*
X130755878Y-72964576D01*
X130755869Y-72965692D01*
X130746325Y-73002581D01*
X130704233Y-72998395D01*
X130620541Y-72957861D01*
X130430727Y-72898224D01*
X130213599Y-72891591D01*
X130004892Y-72936563D01*
G36*
X121549131Y-72900231D02*
G01*
X121405908Y-72943989D01*
X121313694Y-72999280D01*
X121283656Y-73043004D01*
X121291924Y-73094834D01*
X121345573Y-73176259D01*
X121390937Y-73233927D01*
X121484454Y-73338182D01*
X121554713Y-73382045D01*
X121614607Y-73379182D01*
X121792280Y-73333967D01*
X121922766Y-73336020D01*
X122028727Y-73387261D01*
X122064300Y-73417252D01*
X122178164Y-73522778D01*
X122178164Y-74900853D01*
X122636197Y-74900853D01*
X122636197Y-72902164D01*
X122407180Y-72902164D01*
X122269682Y-72907602D01*
X122198742Y-72926909D01*
X122178173Y-72964576D01*
X122178164Y-72965692D01*
X122168450Y-73005146D01*
X122124522Y-73000000D01*
X122063656Y-72971536D01*
X121937946Y-72918569D01*
X121835866Y-72886703D01*
X121704520Y-72878533D01*
X121549131Y-72900231D01*
X121549131Y-72900231D01*
G37*
X121549131Y-72900231D02*
X121405908Y-72943989D01*
X121313694Y-72999280D01*
X121283656Y-73043004D01*
X121291924Y-73094834D01*
X121345573Y-73176259D01*
X121390937Y-73233927D01*
X121484454Y-73338182D01*
X121554713Y-73382045D01*
X121614607Y-73379182D01*
X121792280Y-73333967D01*
X121922766Y-73336020D01*
X122028727Y-73387261D01*
X122064300Y-73417252D01*
X122178164Y-73522778D01*
X122178164Y-74900853D01*
X122636197Y-74900853D01*
X122636197Y-72902164D01*
X122407180Y-72902164D01*
X122269682Y-72907602D01*
X122198742Y-72926909D01*
X122178173Y-72964576D01*
X122178164Y-72965692D01*
X122168450Y-73005146D01*
X122124522Y-73000000D01*
X122063656Y-72971536D01*
X121937946Y-72918569D01*
X121835866Y-72886703D01*
X121704520Y-72878533D01*
X121549131Y-72900231D01*
G36*
X126259695Y-59097960D02*
G01*
X126071443Y-60096542D01*
X125376817Y-60382889D01*
X124682192Y-60669237D01*
X123848872Y-60102586D01*
X123615499Y-59944811D01*
X123404543Y-59803939D01*
X123225847Y-59686401D01*
X123089256Y-59598629D01*
X123004614Y-59547055D01*
X122981563Y-59535935D01*
X122940037Y-59564535D01*
X122851302Y-59643604D01*
X122725303Y-59763041D01*
X122571986Y-59912744D01*
X122401298Y-60082615D01*
X122223186Y-60262551D01*
X122047594Y-60442454D01*
X121884470Y-60612222D01*
X121743759Y-60761754D01*
X121635408Y-60880952D01*
X121569363Y-60959713D01*
X121553574Y-60986072D01*
X121576297Y-61034666D01*
X121640001Y-61141126D01*
X121737987Y-61295039D01*
X121863559Y-61485991D01*
X122010018Y-61703569D01*
X122094885Y-61827671D01*
X122249574Y-62054279D01*
X122387030Y-62258770D01*
X122500586Y-62430965D01*
X122583572Y-62560685D01*
X122629322Y-62637751D01*
X122636197Y-62653947D01*
X122620612Y-62699975D01*
X122578132Y-62807250D01*
X122515165Y-62960687D01*
X122438121Y-63145206D01*
X122353410Y-63345721D01*
X122267442Y-63547152D01*
X122186627Y-63734415D01*
X122117373Y-63892428D01*
X122066092Y-64006107D01*
X122039191Y-64060370D01*
X122037604Y-64062506D01*
X121995365Y-64072867D01*
X121882874Y-64095982D01*
X121711791Y-64129579D01*
X121493777Y-64171385D01*
X121240491Y-64219127D01*
X121092712Y-64246659D01*
X120822062Y-64298190D01*
X120577603Y-64347225D01*
X120371700Y-64391081D01*
X120216723Y-64427074D01*
X120125038Y-64452521D01*
X120106607Y-64460595D01*
X120088555Y-64515242D01*
X120073990Y-64638662D01*
X120062902Y-64816423D01*
X120055281Y-65034091D01*
X120051116Y-65277235D01*
X120050398Y-65531423D01*
X120053118Y-65782220D01*
X120059265Y-66015196D01*
X120068829Y-66215918D01*
X120081801Y-66369954D01*
X120098171Y-66462870D01*
X120107989Y-66482213D01*
X120166677Y-66505398D01*
X120291034Y-66538544D01*
X120464610Y-66577758D01*
X120670958Y-66619145D01*
X120742989Y-66632534D01*
X121090281Y-66696147D01*
X121364617Y-66747378D01*
X121575061Y-66788261D01*
X121730678Y-66820834D01*
X121840533Y-66847132D01*
X121913689Y-66869192D01*
X121959213Y-66889049D01*
X121986167Y-66908741D01*
X121989939Y-66912632D01*
X122027585Y-66975324D01*
X122085014Y-67097331D01*
X122156492Y-67263712D01*
X122236285Y-67459529D01*
X122318657Y-67669840D01*
X122397875Y-67879708D01*
X122468204Y-68074191D01*
X122523911Y-68238350D01*
X122559259Y-68357245D01*
X122568516Y-68415936D01*
X122567744Y-68417992D01*
X122536380Y-68465964D01*
X122465226Y-68571516D01*
X122361760Y-68723660D01*
X122233460Y-68911410D01*
X122087801Y-69123780D01*
X122046320Y-69184130D01*
X121898413Y-69402929D01*
X121768261Y-69602562D01*
X121662955Y-69771565D01*
X121589584Y-69898475D01*
X121555237Y-69971829D01*
X121553574Y-69980841D01*
X121582431Y-70028207D01*
X121662169Y-70122042D01*
X121782538Y-70252261D01*
X121933287Y-70408779D01*
X122104164Y-70581510D01*
X122284921Y-70760371D01*
X122465306Y-70935276D01*
X122635068Y-71096140D01*
X122783958Y-71232878D01*
X122901724Y-71335407D01*
X122978117Y-71393640D01*
X122999250Y-71403148D01*
X123048440Y-71380754D01*
X123149153Y-71320356D01*
X123284983Y-71232129D01*
X123389490Y-71161115D01*
X123578851Y-71030811D01*
X123803101Y-70877384D01*
X124028036Y-70724201D01*
X124148968Y-70642218D01*
X124558296Y-70365353D01*
X124901898Y-70551136D01*
X125058435Y-70632523D01*
X125191546Y-70695784D01*
X125281611Y-70731865D01*
X125304537Y-70736885D01*
X125332105Y-70699817D01*
X125386492Y-70595069D01*
X125463637Y-70432303D01*
X125559482Y-70221181D01*
X125669966Y-69971365D01*
X125791029Y-69692517D01*
X125918611Y-69394299D01*
X126048653Y-69086374D01*
X126177094Y-68778404D01*
X126299874Y-68480050D01*
X126412933Y-68200975D01*
X126512212Y-67950841D01*
X126593651Y-67739310D01*
X126653189Y-67576043D01*
X126686766Y-67470705D01*
X126692166Y-67434527D01*
X126649366Y-67388381D01*
X126555656Y-67313472D01*
X126430627Y-67225364D01*
X126420133Y-67218394D01*
X126096980Y-66959721D01*
X125836413Y-66657938D01*
X125640690Y-66322695D01*
X125512068Y-65963642D01*
X125452805Y-65590426D01*
X125465161Y-65212700D01*
X125551393Y-64840111D01*
X125713759Y-64482310D01*
X125761528Y-64404027D01*
X126009991Y-64087919D01*
X126303519Y-63834079D01*
X126631953Y-63643827D01*
X126985135Y-63518485D01*
X127352905Y-63459372D01*
X127725103Y-63467807D01*
X128091571Y-63545112D01*
X128442149Y-63692606D01*
X128766677Y-63911610D01*
X128867064Y-64000498D01*
X129122551Y-64278744D01*
X129308722Y-64571656D01*
X129436430Y-64899986D01*
X129507556Y-65225133D01*
X129525114Y-65590702D01*
X129466566Y-65958086D01*
X129337858Y-66314866D01*
X129144938Y-66648626D01*
X128893752Y-66946947D01*
X128590248Y-67197411D01*
X128550360Y-67223813D01*
X128423991Y-67310272D01*
X128327927Y-67385184D01*
X128282000Y-67433015D01*
X128281332Y-67434527D01*
X128291192Y-67486267D01*
X128330278Y-67603696D01*
X128394528Y-67777154D01*
X128479880Y-67996979D01*
X128582273Y-68253513D01*
X128697646Y-68537096D01*
X128821937Y-68838067D01*
X128951084Y-69146767D01*
X129081026Y-69453536D01*
X129207702Y-69748714D01*
X129327049Y-70022640D01*
X129435006Y-70265656D01*
X129527512Y-70468101D01*
X129600504Y-70620315D01*
X129649923Y-70712638D01*
X129669823Y-70736885D01*
X129730634Y-70718004D01*
X129844418Y-70667364D01*
X129991555Y-70594017D01*
X130072462Y-70551136D01*
X130416065Y-70365353D01*
X130825393Y-70642218D01*
X131034346Y-70784054D01*
X131263113Y-70940141D01*
X131477491Y-71087109D01*
X131584871Y-71161115D01*
X131735898Y-71262531D01*
X131863782Y-71342898D01*
X131951842Y-71392041D01*
X131980445Y-71402429D01*
X132022076Y-71374405D01*
X132114211Y-71296172D01*
X132247918Y-71175852D01*
X132414265Y-71021568D01*
X132604320Y-70841443D01*
X132724521Y-70725790D01*
X132934815Y-70519167D01*
X133116556Y-70334358D01*
X133262397Y-70179270D01*
X133364991Y-70061807D01*
X133416991Y-69989875D01*
X133421980Y-69975278D01*
X133398829Y-69919753D01*
X133334854Y-69807484D01*
X133237153Y-69649837D01*
X133112820Y-69458179D01*
X132968954Y-69243876D01*
X132928041Y-69184130D01*
X132778967Y-68966982D01*
X132645225Y-68771475D01*
X132534291Y-68608599D01*
X132453644Y-68489337D01*
X132410759Y-68424678D01*
X132406617Y-68417992D01*
X132412812Y-68366462D01*
X132445700Y-68253166D01*
X132499545Y-68093042D01*
X132568613Y-67901032D01*
X132647169Y-67692074D01*
X132729480Y-67481109D01*
X132809811Y-67283076D01*
X132882428Y-67112916D01*
X132941595Y-66985567D01*
X132981580Y-66915971D01*
X132984422Y-66912632D01*
X133008873Y-66892742D01*
X133050169Y-66873073D01*
X133117377Y-66851589D01*
X133219559Y-66826253D01*
X133365781Y-66795029D01*
X133565107Y-66755882D01*
X133826603Y-66706775D01*
X134159331Y-66645672D01*
X134231372Y-66632534D01*
X134444885Y-66591282D01*
X134631022Y-66550926D01*
X134773334Y-66515361D01*
X134855371Y-66488480D01*
X134866372Y-66482213D01*
X134884498Y-66426654D01*
X134899233Y-66302495D01*
X134910564Y-66124169D01*
X134918484Y-65906109D01*
X134922981Y-65662746D01*
X134924046Y-65408514D01*
X134921670Y-65157845D01*
X134915841Y-64925171D01*
X134906551Y-64724924D01*
X134893789Y-64571538D01*
X134877546Y-64479444D01*
X134867754Y-64460595D01*
X134813239Y-64441582D01*
X134689104Y-64410650D01*
X134507715Y-64370482D01*
X134281440Y-64323762D01*
X134022647Y-64273173D01*
X133881649Y-64246659D01*
X133614127Y-64196650D01*
X133375562Y-64151346D01*
X133177614Y-64113021D01*
X133031943Y-64083947D01*
X132950209Y-64066397D01*
X132936757Y-64062506D01*
X132914021Y-64018638D01*
X132865960Y-63912976D01*
X132798981Y-63760613D01*
X132719490Y-63576646D01*
X132633892Y-63376170D01*
X132548595Y-63174281D01*
X132470005Y-62986073D01*
X132404527Y-62826642D01*
X132358569Y-62711084D01*
X132338537Y-62654494D01*
X132338164Y-62652021D01*
X132360874Y-62607379D01*
X132424541Y-62504647D01*
X132522475Y-62354037D01*
X132647983Y-62165757D01*
X132794374Y-61950018D01*
X132879475Y-61826098D01*
X133034545Y-61598883D01*
X133172275Y-61392595D01*
X133285947Y-61217671D01*
X133368839Y-61084545D01*
X133414231Y-61003653D01*
X133420787Y-60985520D01*
X133392605Y-60943312D01*
X133314696Y-60853191D01*
X133197010Y-60725254D01*
X133049500Y-60569596D01*
X132882119Y-60396315D01*
X132704819Y-60215507D01*
X132527552Y-60037267D01*
X132360270Y-59871693D01*
X132212925Y-59728880D01*
X132095470Y-59618925D01*
X132017857Y-59551924D01*
X131991892Y-59535935D01*
X131949616Y-59558419D01*
X131848499Y-59621585D01*
X131698373Y-59719003D01*
X131509070Y-59844243D01*
X131290421Y-59990875D01*
X131125489Y-60102586D01*
X130292169Y-60669237D01*
X129597544Y-60382889D01*
X128902918Y-60096542D01*
X128714666Y-59097960D01*
X128526413Y-58099377D01*
X126447948Y-58099377D01*
X126259695Y-59097960D01*
X126259695Y-59097960D01*
G37*
X126259695Y-59097960D02*
X126071443Y-60096542D01*
X125376817Y-60382889D01*
X124682192Y-60669237D01*
X123848872Y-60102586D01*
X123615499Y-59944811D01*
X123404543Y-59803939D01*
X123225847Y-59686401D01*
X123089256Y-59598629D01*
X123004614Y-59547055D01*
X122981563Y-59535935D01*
X122940037Y-59564535D01*
X122851302Y-59643604D01*
X122725303Y-59763041D01*
X122571986Y-59912744D01*
X122401298Y-60082615D01*
X122223186Y-60262551D01*
X122047594Y-60442454D01*
X121884470Y-60612222D01*
X121743759Y-60761754D01*
X121635408Y-60880952D01*
X121569363Y-60959713D01*
X121553574Y-60986072D01*
X121576297Y-61034666D01*
X121640001Y-61141126D01*
X121737987Y-61295039D01*
X121863559Y-61485991D01*
X122010018Y-61703569D01*
X122094885Y-61827671D01*
X122249574Y-62054279D01*
X122387030Y-62258770D01*
X122500586Y-62430965D01*
X122583572Y-62560685D01*
X122629322Y-62637751D01*
X122636197Y-62653947D01*
X122620612Y-62699975D01*
X122578132Y-62807250D01*
X122515165Y-62960687D01*
X122438121Y-63145206D01*
X122353410Y-63345721D01*
X122267442Y-63547152D01*
X122186627Y-63734415D01*
X122117373Y-63892428D01*
X122066092Y-64006107D01*
X122039191Y-64060370D01*
X122037604Y-64062506D01*
X121995365Y-64072867D01*
X121882874Y-64095982D01*
X121711791Y-64129579D01*
X121493777Y-64171385D01*
X121240491Y-64219127D01*
X121092712Y-64246659D01*
X120822062Y-64298190D01*
X120577603Y-64347225D01*
X120371700Y-64391081D01*
X120216723Y-64427074D01*
X120125038Y-64452521D01*
X120106607Y-64460595D01*
X120088555Y-64515242D01*
X120073990Y-64638662D01*
X120062902Y-64816423D01*
X120055281Y-65034091D01*
X120051116Y-65277235D01*
X120050398Y-65531423D01*
X120053118Y-65782220D01*
X120059265Y-66015196D01*
X120068829Y-66215918D01*
X120081801Y-66369954D01*
X120098171Y-66462870D01*
X120107989Y-66482213D01*
X120166677Y-66505398D01*
X120291034Y-66538544D01*
X120464610Y-66577758D01*
X120670958Y-66619145D01*
X120742989Y-66632534D01*
X121090281Y-66696147D01*
X121364617Y-66747378D01*
X121575061Y-66788261D01*
X121730678Y-66820834D01*
X121840533Y-66847132D01*
X121913689Y-66869192D01*
X121959213Y-66889049D01*
X121986167Y-66908741D01*
X121989939Y-66912632D01*
X122027585Y-66975324D01*
X122085014Y-67097331D01*
X122156492Y-67263712D01*
X122236285Y-67459529D01*
X122318657Y-67669840D01*
X122397875Y-67879708D01*
X122468204Y-68074191D01*
X122523911Y-68238350D01*
X122559259Y-68357245D01*
X122568516Y-68415936D01*
X122567744Y-68417992D01*
X122536380Y-68465964D01*
X122465226Y-68571516D01*
X122361760Y-68723660D01*
X122233460Y-68911410D01*
X122087801Y-69123780D01*
X122046320Y-69184130D01*
X121898413Y-69402929D01*
X121768261Y-69602562D01*
X121662955Y-69771565D01*
X121589584Y-69898475D01*
X121555237Y-69971829D01*
X121553574Y-69980841D01*
X121582431Y-70028207D01*
X121662169Y-70122042D01*
X121782538Y-70252261D01*
X121933287Y-70408779D01*
X122104164Y-70581510D01*
X122284921Y-70760371D01*
X122465306Y-70935276D01*
X122635068Y-71096140D01*
X122783958Y-71232878D01*
X122901724Y-71335407D01*
X122978117Y-71393640D01*
X122999250Y-71403148D01*
X123048440Y-71380754D01*
X123149153Y-71320356D01*
X123284983Y-71232129D01*
X123389490Y-71161115D01*
X123578851Y-71030811D01*
X123803101Y-70877384D01*
X124028036Y-70724201D01*
X124148968Y-70642218D01*
X124558296Y-70365353D01*
X124901898Y-70551136D01*
X125058435Y-70632523D01*
X125191546Y-70695784D01*
X125281611Y-70731865D01*
X125304537Y-70736885D01*
X125332105Y-70699817D01*
X125386492Y-70595069D01*
X125463637Y-70432303D01*
X125559482Y-70221181D01*
X125669966Y-69971365D01*
X125791029Y-69692517D01*
X125918611Y-69394299D01*
X126048653Y-69086374D01*
X126177094Y-68778404D01*
X126299874Y-68480050D01*
X126412933Y-68200975D01*
X126512212Y-67950841D01*
X126593651Y-67739310D01*
X126653189Y-67576043D01*
X126686766Y-67470705D01*
X126692166Y-67434527D01*
X126649366Y-67388381D01*
X126555656Y-67313472D01*
X126430627Y-67225364D01*
X126420133Y-67218394D01*
X126096980Y-66959721D01*
X125836413Y-66657938D01*
X125640690Y-66322695D01*
X125512068Y-65963642D01*
X125452805Y-65590426D01*
X125465161Y-65212700D01*
X125551393Y-64840111D01*
X125713759Y-64482310D01*
X125761528Y-64404027D01*
X126009991Y-64087919D01*
X126303519Y-63834079D01*
X126631953Y-63643827D01*
X126985135Y-63518485D01*
X127352905Y-63459372D01*
X127725103Y-63467807D01*
X128091571Y-63545112D01*
X128442149Y-63692606D01*
X128766677Y-63911610D01*
X128867064Y-64000498D01*
X129122551Y-64278744D01*
X129308722Y-64571656D01*
X129436430Y-64899986D01*
X129507556Y-65225133D01*
X129525114Y-65590702D01*
X129466566Y-65958086D01*
X129337858Y-66314866D01*
X129144938Y-66648626D01*
X128893752Y-66946947D01*
X128590248Y-67197411D01*
X128550360Y-67223813D01*
X128423991Y-67310272D01*
X128327927Y-67385184D01*
X128282000Y-67433015D01*
X128281332Y-67434527D01*
X128291192Y-67486267D01*
X128330278Y-67603696D01*
X128394528Y-67777154D01*
X128479880Y-67996979D01*
X128582273Y-68253513D01*
X128697646Y-68537096D01*
X128821937Y-68838067D01*
X128951084Y-69146767D01*
X129081026Y-69453536D01*
X129207702Y-69748714D01*
X129327049Y-70022640D01*
X129435006Y-70265656D01*
X129527512Y-70468101D01*
X129600504Y-70620315D01*
X129649923Y-70712638D01*
X129669823Y-70736885D01*
X129730634Y-70718004D01*
X129844418Y-70667364D01*
X129991555Y-70594017D01*
X130072462Y-70551136D01*
X130416065Y-70365353D01*
X130825393Y-70642218D01*
X131034346Y-70784054D01*
X131263113Y-70940141D01*
X131477491Y-71087109D01*
X131584871Y-71161115D01*
X131735898Y-71262531D01*
X131863782Y-71342898D01*
X131951842Y-71392041D01*
X131980445Y-71402429D01*
X132022076Y-71374405D01*
X132114211Y-71296172D01*
X132247918Y-71175852D01*
X132414265Y-71021568D01*
X132604320Y-70841443D01*
X132724521Y-70725790D01*
X132934815Y-70519167D01*
X133116556Y-70334358D01*
X133262397Y-70179270D01*
X133364991Y-70061807D01*
X133416991Y-69989875D01*
X133421980Y-69975278D01*
X133398829Y-69919753D01*
X133334854Y-69807484D01*
X133237153Y-69649837D01*
X133112820Y-69458179D01*
X132968954Y-69243876D01*
X132928041Y-69184130D01*
X132778967Y-68966982D01*
X132645225Y-68771475D01*
X132534291Y-68608599D01*
X132453644Y-68489337D01*
X132410759Y-68424678D01*
X132406617Y-68417992D01*
X132412812Y-68366462D01*
X132445700Y-68253166D01*
X132499545Y-68093042D01*
X132568613Y-67901032D01*
X132647169Y-67692074D01*
X132729480Y-67481109D01*
X132809811Y-67283076D01*
X132882428Y-67112916D01*
X132941595Y-66985567D01*
X132981580Y-66915971D01*
X132984422Y-66912632D01*
X133008873Y-66892742D01*
X133050169Y-66873073D01*
X133117377Y-66851589D01*
X133219559Y-66826253D01*
X133365781Y-66795029D01*
X133565107Y-66755882D01*
X133826603Y-66706775D01*
X134159331Y-66645672D01*
X134231372Y-66632534D01*
X134444885Y-66591282D01*
X134631022Y-66550926D01*
X134773334Y-66515361D01*
X134855371Y-66488480D01*
X134866372Y-66482213D01*
X134884498Y-66426654D01*
X134899233Y-66302495D01*
X134910564Y-66124169D01*
X134918484Y-65906109D01*
X134922981Y-65662746D01*
X134924046Y-65408514D01*
X134921670Y-65157845D01*
X134915841Y-64925171D01*
X134906551Y-64724924D01*
X134893789Y-64571538D01*
X134877546Y-64479444D01*
X134867754Y-64460595D01*
X134813239Y-64441582D01*
X134689104Y-64410650D01*
X134507715Y-64370482D01*
X134281440Y-64323762D01*
X134022647Y-64273173D01*
X133881649Y-64246659D01*
X133614127Y-64196650D01*
X133375562Y-64151346D01*
X133177614Y-64113021D01*
X133031943Y-64083947D01*
X132950209Y-64066397D01*
X132936757Y-64062506D01*
X132914021Y-64018638D01*
X132865960Y-63912976D01*
X132798981Y-63760613D01*
X132719490Y-63576646D01*
X132633892Y-63376170D01*
X132548595Y-63174281D01*
X132470005Y-62986073D01*
X132404527Y-62826642D01*
X132358569Y-62711084D01*
X132338537Y-62654494D01*
X132338164Y-62652021D01*
X132360874Y-62607379D01*
X132424541Y-62504647D01*
X132522475Y-62354037D01*
X132647983Y-62165757D01*
X132794374Y-61950018D01*
X132879475Y-61826098D01*
X133034545Y-61598883D01*
X133172275Y-61392595D01*
X133285947Y-61217671D01*
X133368839Y-61084545D01*
X133414231Y-61003653D01*
X133420787Y-60985520D01*
X133392605Y-60943312D01*
X133314696Y-60853191D01*
X133197010Y-60725254D01*
X133049500Y-60569596D01*
X132882119Y-60396315D01*
X132704819Y-60215507D01*
X132527552Y-60037267D01*
X132360270Y-59871693D01*
X132212925Y-59728880D01*
X132095470Y-59618925D01*
X132017857Y-59551924D01*
X131991892Y-59535935D01*
X131949616Y-59558419D01*
X131848499Y-59621585D01*
X131698373Y-59719003D01*
X131509070Y-59844243D01*
X131290421Y-59990875D01*
X131125489Y-60102586D01*
X130292169Y-60669237D01*
X129597544Y-60382889D01*
X128902918Y-60096542D01*
X128714666Y-59097960D01*
X128526413Y-58099377D01*
X126447948Y-58099377D01*
X126259695Y-59097960D01*
D12*
X105298714Y-86556380D02*
X104727285Y-86556380D01*
X105013000Y-87556380D02*
X105013000Y-86556380D01*
X104393952Y-87556380D02*
X104393952Y-86556380D01*
X104393952Y-87032571D02*
X103822523Y-87032571D01*
X103822523Y-87556380D02*
X103822523Y-86556380D01*
X102822523Y-87556380D02*
X103393952Y-87556380D01*
X103108238Y-87556380D02*
X103108238Y-86556380D01*
X103203476Y-86699238D01*
X103298714Y-86794476D01*
X103393952Y-86842095D01*
M02*
