G04 #@! TF.GenerationSoftware,KiCad,Pcbnew,(6.0.0-rc1-dev-1491-g0a4812be0)*
G04 #@! TF.CreationDate,2019-06-12T10:43:46+02:00
G04 #@! TF.ProjectId,datalogger,64617461-6c6f-4676-9765-722e6b696361,v. 1.1*
G04 #@! TF.SameCoordinates,Original*
G04 #@! TF.FileFunction,Legend,Bot*
G04 #@! TF.FilePolarity,Positive*
%FSLAX46Y46*%
G04 Gerber Fmt 4.6, Leading zero omitted, Abs format (unit mm)*
G04 Created by KiCad (PCBNEW (6.0.0-rc1-dev-1491-g0a4812be0)) date 2019-06-12 10:43:46*
%MOMM*%
%LPD*%
G04 APERTURE LIST*
%ADD10C,0.120000*%
%ADD11C,0.010000*%
%ADD12C,0.150000*%
G04 APERTURE END LIST*
D10*
X104790064Y-88014000D02*
X103235936Y-88014000D01*
X104790064Y-92834000D02*
X103235936Y-92834000D01*
D11*
G36*
X123751695Y-73525960D02*
G01*
X123563443Y-74524542D01*
X122868817Y-74810889D01*
X122174192Y-75097237D01*
X121340872Y-74530586D01*
X121107499Y-74372811D01*
X120896543Y-74231939D01*
X120717847Y-74114401D01*
X120581256Y-74026629D01*
X120496614Y-73975055D01*
X120473563Y-73963935D01*
X120432037Y-73992535D01*
X120343302Y-74071604D01*
X120217303Y-74191041D01*
X120063986Y-74340744D01*
X119893298Y-74510615D01*
X119715186Y-74690551D01*
X119539594Y-74870454D01*
X119376470Y-75040222D01*
X119235759Y-75189754D01*
X119127408Y-75308952D01*
X119061363Y-75387713D01*
X119045574Y-75414072D01*
X119068297Y-75462666D01*
X119132001Y-75569126D01*
X119229987Y-75723039D01*
X119355559Y-75913991D01*
X119502018Y-76131569D01*
X119586885Y-76255671D01*
X119741574Y-76482279D01*
X119879030Y-76686770D01*
X119992586Y-76858965D01*
X120075572Y-76988685D01*
X120121322Y-77065751D01*
X120128197Y-77081947D01*
X120112612Y-77127975D01*
X120070132Y-77235250D01*
X120007165Y-77388687D01*
X119930121Y-77573206D01*
X119845410Y-77773721D01*
X119759442Y-77975152D01*
X119678627Y-78162415D01*
X119609373Y-78320428D01*
X119558092Y-78434107D01*
X119531191Y-78488370D01*
X119529604Y-78490506D01*
X119487365Y-78500867D01*
X119374874Y-78523982D01*
X119203791Y-78557579D01*
X118985777Y-78599385D01*
X118732491Y-78647127D01*
X118584712Y-78674659D01*
X118314062Y-78726190D01*
X118069603Y-78775225D01*
X117863700Y-78819081D01*
X117708723Y-78855074D01*
X117617038Y-78880521D01*
X117598607Y-78888595D01*
X117580555Y-78943242D01*
X117565990Y-79066662D01*
X117554902Y-79244423D01*
X117547281Y-79462091D01*
X117543116Y-79705235D01*
X117542398Y-79959423D01*
X117545118Y-80210220D01*
X117551265Y-80443196D01*
X117560829Y-80643918D01*
X117573801Y-80797954D01*
X117590171Y-80890870D01*
X117599989Y-80910213D01*
X117658677Y-80933398D01*
X117783034Y-80966544D01*
X117956610Y-81005758D01*
X118162958Y-81047145D01*
X118234989Y-81060534D01*
X118582281Y-81124147D01*
X118856617Y-81175378D01*
X119067061Y-81216261D01*
X119222678Y-81248834D01*
X119332533Y-81275132D01*
X119405689Y-81297192D01*
X119451213Y-81317049D01*
X119478167Y-81336741D01*
X119481939Y-81340632D01*
X119519585Y-81403324D01*
X119577014Y-81525331D01*
X119648492Y-81691712D01*
X119728285Y-81887529D01*
X119810657Y-82097840D01*
X119889875Y-82307708D01*
X119960204Y-82502191D01*
X120015911Y-82666350D01*
X120051259Y-82785245D01*
X120060516Y-82843936D01*
X120059744Y-82845992D01*
X120028380Y-82893964D01*
X119957226Y-82999516D01*
X119853760Y-83151660D01*
X119725460Y-83339410D01*
X119579801Y-83551780D01*
X119538320Y-83612130D01*
X119390413Y-83830929D01*
X119260261Y-84030562D01*
X119154955Y-84199565D01*
X119081584Y-84326475D01*
X119047237Y-84399829D01*
X119045574Y-84408841D01*
X119074431Y-84456207D01*
X119154169Y-84550042D01*
X119274538Y-84680261D01*
X119425287Y-84836779D01*
X119596164Y-85009510D01*
X119776921Y-85188371D01*
X119957306Y-85363276D01*
X120127068Y-85524140D01*
X120275958Y-85660878D01*
X120393724Y-85763407D01*
X120470117Y-85821640D01*
X120491250Y-85831148D01*
X120540440Y-85808754D01*
X120641153Y-85748356D01*
X120776983Y-85660129D01*
X120881490Y-85589115D01*
X121070851Y-85458811D01*
X121295101Y-85305384D01*
X121520036Y-85152201D01*
X121640968Y-85070218D01*
X122050296Y-84793353D01*
X122393898Y-84979136D01*
X122550435Y-85060523D01*
X122683546Y-85123784D01*
X122773611Y-85159865D01*
X122796537Y-85164885D01*
X122824105Y-85127817D01*
X122878492Y-85023069D01*
X122955637Y-84860303D01*
X123051482Y-84649181D01*
X123161966Y-84399365D01*
X123283029Y-84120517D01*
X123410611Y-83822299D01*
X123540653Y-83514374D01*
X123669094Y-83206404D01*
X123791874Y-82908050D01*
X123904933Y-82628975D01*
X124004212Y-82378841D01*
X124085651Y-82167310D01*
X124145189Y-82004043D01*
X124178766Y-81898705D01*
X124184166Y-81862527D01*
X124141366Y-81816381D01*
X124047656Y-81741472D01*
X123922627Y-81653364D01*
X123912133Y-81646394D01*
X123588980Y-81387721D01*
X123328413Y-81085938D01*
X123132690Y-80750695D01*
X123004068Y-80391642D01*
X122944805Y-80018426D01*
X122957161Y-79640700D01*
X123043393Y-79268111D01*
X123205759Y-78910310D01*
X123253528Y-78832027D01*
X123501991Y-78515919D01*
X123795519Y-78262079D01*
X124123953Y-78071827D01*
X124477135Y-77946485D01*
X124844905Y-77887372D01*
X125217103Y-77895807D01*
X125583571Y-77973112D01*
X125934149Y-78120606D01*
X126258677Y-78339610D01*
X126359064Y-78428498D01*
X126614551Y-78706744D01*
X126800722Y-78999656D01*
X126928430Y-79327986D01*
X126999556Y-79653133D01*
X127017114Y-80018702D01*
X126958566Y-80386086D01*
X126829858Y-80742866D01*
X126636938Y-81076626D01*
X126385752Y-81374947D01*
X126082248Y-81625411D01*
X126042360Y-81651813D01*
X125915991Y-81738272D01*
X125819927Y-81813184D01*
X125774000Y-81861015D01*
X125773332Y-81862527D01*
X125783192Y-81914267D01*
X125822278Y-82031696D01*
X125886528Y-82205154D01*
X125971880Y-82424979D01*
X126074273Y-82681513D01*
X126189646Y-82965096D01*
X126313937Y-83266067D01*
X126443084Y-83574767D01*
X126573026Y-83881536D01*
X126699702Y-84176714D01*
X126819049Y-84450640D01*
X126927006Y-84693656D01*
X127019512Y-84896101D01*
X127092504Y-85048315D01*
X127141923Y-85140638D01*
X127161823Y-85164885D01*
X127222634Y-85146004D01*
X127336418Y-85095364D01*
X127483555Y-85022017D01*
X127564462Y-84979136D01*
X127908065Y-84793353D01*
X128317393Y-85070218D01*
X128526346Y-85212054D01*
X128755113Y-85368141D01*
X128969491Y-85515109D01*
X129076871Y-85589115D01*
X129227898Y-85690531D01*
X129355782Y-85770898D01*
X129443842Y-85820041D01*
X129472445Y-85830429D01*
X129514076Y-85802405D01*
X129606211Y-85724172D01*
X129739918Y-85603852D01*
X129906265Y-85449568D01*
X130096320Y-85269443D01*
X130216521Y-85153790D01*
X130426815Y-84947167D01*
X130608556Y-84762358D01*
X130754397Y-84607270D01*
X130856991Y-84489807D01*
X130908991Y-84417875D01*
X130913980Y-84403278D01*
X130890829Y-84347753D01*
X130826854Y-84235484D01*
X130729153Y-84077837D01*
X130604820Y-83886179D01*
X130460954Y-83671876D01*
X130420041Y-83612130D01*
X130270967Y-83394982D01*
X130137225Y-83199475D01*
X130026291Y-83036599D01*
X129945644Y-82917337D01*
X129902759Y-82852678D01*
X129898617Y-82845992D01*
X129904812Y-82794462D01*
X129937700Y-82681166D01*
X129991545Y-82521042D01*
X130060613Y-82329032D01*
X130139169Y-82120074D01*
X130221480Y-81909109D01*
X130301811Y-81711076D01*
X130374428Y-81540916D01*
X130433595Y-81413567D01*
X130473580Y-81343971D01*
X130476422Y-81340632D01*
X130500873Y-81320742D01*
X130542169Y-81301073D01*
X130609377Y-81279589D01*
X130711559Y-81254253D01*
X130857781Y-81223029D01*
X131057107Y-81183882D01*
X131318603Y-81134775D01*
X131651331Y-81073672D01*
X131723372Y-81060534D01*
X131936885Y-81019282D01*
X132123022Y-80978926D01*
X132265334Y-80943361D01*
X132347371Y-80916480D01*
X132358372Y-80910213D01*
X132376498Y-80854654D01*
X132391233Y-80730495D01*
X132402564Y-80552169D01*
X132410484Y-80334109D01*
X132414981Y-80090746D01*
X132416046Y-79836514D01*
X132413670Y-79585845D01*
X132407841Y-79353171D01*
X132398551Y-79152924D01*
X132385789Y-78999538D01*
X132369546Y-78907444D01*
X132359754Y-78888595D01*
X132305239Y-78869582D01*
X132181104Y-78838650D01*
X131999715Y-78798482D01*
X131773440Y-78751762D01*
X131514647Y-78701173D01*
X131373649Y-78674659D01*
X131106127Y-78624650D01*
X130867562Y-78579346D01*
X130669614Y-78541021D01*
X130523943Y-78511947D01*
X130442209Y-78494397D01*
X130428757Y-78490506D01*
X130406021Y-78446638D01*
X130357960Y-78340976D01*
X130290981Y-78188613D01*
X130211490Y-78004646D01*
X130125892Y-77804170D01*
X130040595Y-77602281D01*
X129962005Y-77414073D01*
X129896527Y-77254642D01*
X129850569Y-77139084D01*
X129830537Y-77082494D01*
X129830164Y-77080021D01*
X129852874Y-77035379D01*
X129916541Y-76932647D01*
X130014475Y-76782037D01*
X130139983Y-76593757D01*
X130286374Y-76378018D01*
X130371475Y-76254098D01*
X130526545Y-76026883D01*
X130664275Y-75820595D01*
X130777947Y-75645671D01*
X130860839Y-75512545D01*
X130906231Y-75431653D01*
X130912787Y-75413520D01*
X130884605Y-75371312D01*
X130806696Y-75281191D01*
X130689010Y-75153254D01*
X130541500Y-74997596D01*
X130374119Y-74824315D01*
X130196819Y-74643507D01*
X130019552Y-74465267D01*
X129852270Y-74299693D01*
X129704925Y-74156880D01*
X129587470Y-74046925D01*
X129509857Y-73979924D01*
X129483892Y-73963935D01*
X129441616Y-73986419D01*
X129340499Y-74049585D01*
X129190373Y-74147003D01*
X129001070Y-74272243D01*
X128782421Y-74418875D01*
X128617489Y-74530586D01*
X127784169Y-75097237D01*
X127089544Y-74810889D01*
X126394918Y-74524542D01*
X126206666Y-73525960D01*
X126018413Y-72527377D01*
X123939948Y-72527377D01*
X123751695Y-73525960D01*
X123751695Y-73525960D01*
G37*
X123751695Y-73525960D02*
X123563443Y-74524542D01*
X122868817Y-74810889D01*
X122174192Y-75097237D01*
X121340872Y-74530586D01*
X121107499Y-74372811D01*
X120896543Y-74231939D01*
X120717847Y-74114401D01*
X120581256Y-74026629D01*
X120496614Y-73975055D01*
X120473563Y-73963935D01*
X120432037Y-73992535D01*
X120343302Y-74071604D01*
X120217303Y-74191041D01*
X120063986Y-74340744D01*
X119893298Y-74510615D01*
X119715186Y-74690551D01*
X119539594Y-74870454D01*
X119376470Y-75040222D01*
X119235759Y-75189754D01*
X119127408Y-75308952D01*
X119061363Y-75387713D01*
X119045574Y-75414072D01*
X119068297Y-75462666D01*
X119132001Y-75569126D01*
X119229987Y-75723039D01*
X119355559Y-75913991D01*
X119502018Y-76131569D01*
X119586885Y-76255671D01*
X119741574Y-76482279D01*
X119879030Y-76686770D01*
X119992586Y-76858965D01*
X120075572Y-76988685D01*
X120121322Y-77065751D01*
X120128197Y-77081947D01*
X120112612Y-77127975D01*
X120070132Y-77235250D01*
X120007165Y-77388687D01*
X119930121Y-77573206D01*
X119845410Y-77773721D01*
X119759442Y-77975152D01*
X119678627Y-78162415D01*
X119609373Y-78320428D01*
X119558092Y-78434107D01*
X119531191Y-78488370D01*
X119529604Y-78490506D01*
X119487365Y-78500867D01*
X119374874Y-78523982D01*
X119203791Y-78557579D01*
X118985777Y-78599385D01*
X118732491Y-78647127D01*
X118584712Y-78674659D01*
X118314062Y-78726190D01*
X118069603Y-78775225D01*
X117863700Y-78819081D01*
X117708723Y-78855074D01*
X117617038Y-78880521D01*
X117598607Y-78888595D01*
X117580555Y-78943242D01*
X117565990Y-79066662D01*
X117554902Y-79244423D01*
X117547281Y-79462091D01*
X117543116Y-79705235D01*
X117542398Y-79959423D01*
X117545118Y-80210220D01*
X117551265Y-80443196D01*
X117560829Y-80643918D01*
X117573801Y-80797954D01*
X117590171Y-80890870D01*
X117599989Y-80910213D01*
X117658677Y-80933398D01*
X117783034Y-80966544D01*
X117956610Y-81005758D01*
X118162958Y-81047145D01*
X118234989Y-81060534D01*
X118582281Y-81124147D01*
X118856617Y-81175378D01*
X119067061Y-81216261D01*
X119222678Y-81248834D01*
X119332533Y-81275132D01*
X119405689Y-81297192D01*
X119451213Y-81317049D01*
X119478167Y-81336741D01*
X119481939Y-81340632D01*
X119519585Y-81403324D01*
X119577014Y-81525331D01*
X119648492Y-81691712D01*
X119728285Y-81887529D01*
X119810657Y-82097840D01*
X119889875Y-82307708D01*
X119960204Y-82502191D01*
X120015911Y-82666350D01*
X120051259Y-82785245D01*
X120060516Y-82843936D01*
X120059744Y-82845992D01*
X120028380Y-82893964D01*
X119957226Y-82999516D01*
X119853760Y-83151660D01*
X119725460Y-83339410D01*
X119579801Y-83551780D01*
X119538320Y-83612130D01*
X119390413Y-83830929D01*
X119260261Y-84030562D01*
X119154955Y-84199565D01*
X119081584Y-84326475D01*
X119047237Y-84399829D01*
X119045574Y-84408841D01*
X119074431Y-84456207D01*
X119154169Y-84550042D01*
X119274538Y-84680261D01*
X119425287Y-84836779D01*
X119596164Y-85009510D01*
X119776921Y-85188371D01*
X119957306Y-85363276D01*
X120127068Y-85524140D01*
X120275958Y-85660878D01*
X120393724Y-85763407D01*
X120470117Y-85821640D01*
X120491250Y-85831148D01*
X120540440Y-85808754D01*
X120641153Y-85748356D01*
X120776983Y-85660129D01*
X120881490Y-85589115D01*
X121070851Y-85458811D01*
X121295101Y-85305384D01*
X121520036Y-85152201D01*
X121640968Y-85070218D01*
X122050296Y-84793353D01*
X122393898Y-84979136D01*
X122550435Y-85060523D01*
X122683546Y-85123784D01*
X122773611Y-85159865D01*
X122796537Y-85164885D01*
X122824105Y-85127817D01*
X122878492Y-85023069D01*
X122955637Y-84860303D01*
X123051482Y-84649181D01*
X123161966Y-84399365D01*
X123283029Y-84120517D01*
X123410611Y-83822299D01*
X123540653Y-83514374D01*
X123669094Y-83206404D01*
X123791874Y-82908050D01*
X123904933Y-82628975D01*
X124004212Y-82378841D01*
X124085651Y-82167310D01*
X124145189Y-82004043D01*
X124178766Y-81898705D01*
X124184166Y-81862527D01*
X124141366Y-81816381D01*
X124047656Y-81741472D01*
X123922627Y-81653364D01*
X123912133Y-81646394D01*
X123588980Y-81387721D01*
X123328413Y-81085938D01*
X123132690Y-80750695D01*
X123004068Y-80391642D01*
X122944805Y-80018426D01*
X122957161Y-79640700D01*
X123043393Y-79268111D01*
X123205759Y-78910310D01*
X123253528Y-78832027D01*
X123501991Y-78515919D01*
X123795519Y-78262079D01*
X124123953Y-78071827D01*
X124477135Y-77946485D01*
X124844905Y-77887372D01*
X125217103Y-77895807D01*
X125583571Y-77973112D01*
X125934149Y-78120606D01*
X126258677Y-78339610D01*
X126359064Y-78428498D01*
X126614551Y-78706744D01*
X126800722Y-78999656D01*
X126928430Y-79327986D01*
X126999556Y-79653133D01*
X127017114Y-80018702D01*
X126958566Y-80386086D01*
X126829858Y-80742866D01*
X126636938Y-81076626D01*
X126385752Y-81374947D01*
X126082248Y-81625411D01*
X126042360Y-81651813D01*
X125915991Y-81738272D01*
X125819927Y-81813184D01*
X125774000Y-81861015D01*
X125773332Y-81862527D01*
X125783192Y-81914267D01*
X125822278Y-82031696D01*
X125886528Y-82205154D01*
X125971880Y-82424979D01*
X126074273Y-82681513D01*
X126189646Y-82965096D01*
X126313937Y-83266067D01*
X126443084Y-83574767D01*
X126573026Y-83881536D01*
X126699702Y-84176714D01*
X126819049Y-84450640D01*
X126927006Y-84693656D01*
X127019512Y-84896101D01*
X127092504Y-85048315D01*
X127141923Y-85140638D01*
X127161823Y-85164885D01*
X127222634Y-85146004D01*
X127336418Y-85095364D01*
X127483555Y-85022017D01*
X127564462Y-84979136D01*
X127908065Y-84793353D01*
X128317393Y-85070218D01*
X128526346Y-85212054D01*
X128755113Y-85368141D01*
X128969491Y-85515109D01*
X129076871Y-85589115D01*
X129227898Y-85690531D01*
X129355782Y-85770898D01*
X129443842Y-85820041D01*
X129472445Y-85830429D01*
X129514076Y-85802405D01*
X129606211Y-85724172D01*
X129739918Y-85603852D01*
X129906265Y-85449568D01*
X130096320Y-85269443D01*
X130216521Y-85153790D01*
X130426815Y-84947167D01*
X130608556Y-84762358D01*
X130754397Y-84607270D01*
X130856991Y-84489807D01*
X130908991Y-84417875D01*
X130913980Y-84403278D01*
X130890829Y-84347753D01*
X130826854Y-84235484D01*
X130729153Y-84077837D01*
X130604820Y-83886179D01*
X130460954Y-83671876D01*
X130420041Y-83612130D01*
X130270967Y-83394982D01*
X130137225Y-83199475D01*
X130026291Y-83036599D01*
X129945644Y-82917337D01*
X129902759Y-82852678D01*
X129898617Y-82845992D01*
X129904812Y-82794462D01*
X129937700Y-82681166D01*
X129991545Y-82521042D01*
X130060613Y-82329032D01*
X130139169Y-82120074D01*
X130221480Y-81909109D01*
X130301811Y-81711076D01*
X130374428Y-81540916D01*
X130433595Y-81413567D01*
X130473580Y-81343971D01*
X130476422Y-81340632D01*
X130500873Y-81320742D01*
X130542169Y-81301073D01*
X130609377Y-81279589D01*
X130711559Y-81254253D01*
X130857781Y-81223029D01*
X131057107Y-81183882D01*
X131318603Y-81134775D01*
X131651331Y-81073672D01*
X131723372Y-81060534D01*
X131936885Y-81019282D01*
X132123022Y-80978926D01*
X132265334Y-80943361D01*
X132347371Y-80916480D01*
X132358372Y-80910213D01*
X132376498Y-80854654D01*
X132391233Y-80730495D01*
X132402564Y-80552169D01*
X132410484Y-80334109D01*
X132414981Y-80090746D01*
X132416046Y-79836514D01*
X132413670Y-79585845D01*
X132407841Y-79353171D01*
X132398551Y-79152924D01*
X132385789Y-78999538D01*
X132369546Y-78907444D01*
X132359754Y-78888595D01*
X132305239Y-78869582D01*
X132181104Y-78838650D01*
X131999715Y-78798482D01*
X131773440Y-78751762D01*
X131514647Y-78701173D01*
X131373649Y-78674659D01*
X131106127Y-78624650D01*
X130867562Y-78579346D01*
X130669614Y-78541021D01*
X130523943Y-78511947D01*
X130442209Y-78494397D01*
X130428757Y-78490506D01*
X130406021Y-78446638D01*
X130357960Y-78340976D01*
X130290981Y-78188613D01*
X130211490Y-78004646D01*
X130125892Y-77804170D01*
X130040595Y-77602281D01*
X129962005Y-77414073D01*
X129896527Y-77254642D01*
X129850569Y-77139084D01*
X129830537Y-77082494D01*
X129830164Y-77080021D01*
X129852874Y-77035379D01*
X129916541Y-76932647D01*
X130014475Y-76782037D01*
X130139983Y-76593757D01*
X130286374Y-76378018D01*
X130371475Y-76254098D01*
X130526545Y-76026883D01*
X130664275Y-75820595D01*
X130777947Y-75645671D01*
X130860839Y-75512545D01*
X130906231Y-75431653D01*
X130912787Y-75413520D01*
X130884605Y-75371312D01*
X130806696Y-75281191D01*
X130689010Y-75153254D01*
X130541500Y-74997596D01*
X130374119Y-74824315D01*
X130196819Y-74643507D01*
X130019552Y-74465267D01*
X129852270Y-74299693D01*
X129704925Y-74156880D01*
X129587470Y-74046925D01*
X129509857Y-73979924D01*
X129483892Y-73963935D01*
X129441616Y-73986419D01*
X129340499Y-74049585D01*
X129190373Y-74147003D01*
X129001070Y-74272243D01*
X128782421Y-74418875D01*
X128617489Y-74530586D01*
X127784169Y-75097237D01*
X127089544Y-74810889D01*
X126394918Y-74524542D01*
X126206666Y-73525960D01*
X126018413Y-72527377D01*
X123939948Y-72527377D01*
X123751695Y-73525960D01*
G36*
X119041131Y-87328231D02*
G01*
X118897908Y-87371989D01*
X118805694Y-87427280D01*
X118775656Y-87471004D01*
X118783924Y-87522834D01*
X118837573Y-87604259D01*
X118882937Y-87661927D01*
X118976454Y-87766182D01*
X119046713Y-87810045D01*
X119106607Y-87807182D01*
X119284280Y-87761967D01*
X119414766Y-87764020D01*
X119520727Y-87815261D01*
X119556300Y-87845252D01*
X119670164Y-87950778D01*
X119670164Y-89328853D01*
X120128197Y-89328853D01*
X120128197Y-87330164D01*
X119899180Y-87330164D01*
X119761682Y-87335602D01*
X119690742Y-87354909D01*
X119670173Y-87392576D01*
X119670164Y-87393692D01*
X119660450Y-87433146D01*
X119616522Y-87428000D01*
X119555656Y-87399536D01*
X119429946Y-87346569D01*
X119327866Y-87314703D01*
X119196520Y-87306533D01*
X119041131Y-87328231D01*
X119041131Y-87328231D01*
G37*
X119041131Y-87328231D02*
X118897908Y-87371989D01*
X118805694Y-87427280D01*
X118775656Y-87471004D01*
X118783924Y-87522834D01*
X118837573Y-87604259D01*
X118882937Y-87661927D01*
X118976454Y-87766182D01*
X119046713Y-87810045D01*
X119106607Y-87807182D01*
X119284280Y-87761967D01*
X119414766Y-87764020D01*
X119520727Y-87815261D01*
X119556300Y-87845252D01*
X119670164Y-87950778D01*
X119670164Y-89328853D01*
X120128197Y-89328853D01*
X120128197Y-87330164D01*
X119899180Y-87330164D01*
X119761682Y-87335602D01*
X119690742Y-87354909D01*
X119670173Y-87392576D01*
X119670164Y-87393692D01*
X119660450Y-87433146D01*
X119616522Y-87428000D01*
X119555656Y-87399536D01*
X119429946Y-87346569D01*
X119327866Y-87314703D01*
X119196520Y-87306533D01*
X119041131Y-87328231D01*
G36*
X127496892Y-87364563D02*
G01*
X127393260Y-87414062D01*
X127292894Y-87485561D01*
X127216432Y-87567853D01*
X127160738Y-87672811D01*
X127122677Y-87812313D01*
X127099115Y-87998233D01*
X127086915Y-88242448D01*
X127082944Y-88556833D01*
X127082882Y-88589754D01*
X127081967Y-89328853D01*
X127540000Y-89328853D01*
X127540000Y-88647481D01*
X127540326Y-88395050D01*
X127542581Y-88212093D01*
X127548681Y-88084807D01*
X127560541Y-87999386D01*
X127580076Y-87942026D01*
X127609203Y-87898924D01*
X127649776Y-87856334D01*
X127791731Y-87764824D01*
X127946694Y-87747843D01*
X128094323Y-87805701D01*
X128145663Y-87848763D01*
X128183353Y-87889249D01*
X128210413Y-87932607D01*
X128228603Y-87992463D01*
X128239684Y-88082441D01*
X128245414Y-88216168D01*
X128247556Y-88407270D01*
X128247869Y-88639911D01*
X128247869Y-89328853D01*
X128705902Y-89328853D01*
X128705902Y-87330164D01*
X128476885Y-87330164D01*
X128339386Y-87335602D01*
X128268447Y-87354909D01*
X128247878Y-87392576D01*
X128247869Y-87393692D01*
X128238325Y-87430581D01*
X128196233Y-87426395D01*
X128112541Y-87385861D01*
X127922727Y-87326224D01*
X127705599Y-87319591D01*
X127496892Y-87364563D01*
X127496892Y-87364563D01*
G37*
X127496892Y-87364563D02*
X127393260Y-87414062D01*
X127292894Y-87485561D01*
X127216432Y-87567853D01*
X127160738Y-87672811D01*
X127122677Y-87812313D01*
X127099115Y-87998233D01*
X127086915Y-88242448D01*
X127082944Y-88556833D01*
X127082882Y-88589754D01*
X127081967Y-89328853D01*
X127540000Y-89328853D01*
X127540000Y-88647481D01*
X127540326Y-88395050D01*
X127542581Y-88212093D01*
X127548681Y-88084807D01*
X127560541Y-87999386D01*
X127580076Y-87942026D01*
X127609203Y-87898924D01*
X127649776Y-87856334D01*
X127791731Y-87764824D01*
X127946694Y-87747843D01*
X128094323Y-87805701D01*
X128145663Y-87848763D01*
X128183353Y-87889249D01*
X128210413Y-87932607D01*
X128228603Y-87992463D01*
X128239684Y-88082441D01*
X128245414Y-88216168D01*
X128247556Y-88407270D01*
X128247869Y-88639911D01*
X128247869Y-89328853D01*
X128705902Y-89328853D01*
X128705902Y-87330164D01*
X128476885Y-87330164D01*
X128339386Y-87335602D01*
X128268447Y-87354909D01*
X128247878Y-87392576D01*
X128247869Y-87393692D01*
X128238325Y-87430581D01*
X128196233Y-87426395D01*
X128112541Y-87385861D01*
X127922727Y-87326224D01*
X127705599Y-87319591D01*
X127496892Y-87364563D01*
G36*
X116132208Y-87323019D02*
G01*
X116025586Y-87348922D01*
X115821170Y-87443772D01*
X115646375Y-87588633D01*
X115525403Y-87762320D01*
X115508783Y-87801317D01*
X115485984Y-87903465D01*
X115470025Y-88054573D01*
X115464590Y-88207301D01*
X115464590Y-88496066D01*
X116068361Y-88496066D01*
X116317381Y-88497007D01*
X116492811Y-88502723D01*
X116604335Y-88517550D01*
X116661640Y-88545827D01*
X116674412Y-88591890D01*
X116652338Y-88660077D01*
X116612795Y-88739863D01*
X116502491Y-88873017D01*
X116349208Y-88939355D01*
X116161859Y-88937194D01*
X115949637Y-88864991D01*
X115766227Y-88775883D01*
X115614038Y-88896220D01*
X115461849Y-89016558D01*
X115605026Y-89148843D01*
X115796172Y-89273832D01*
X116031247Y-89349189D01*
X116284102Y-89370278D01*
X116528587Y-89332460D01*
X116568033Y-89319628D01*
X116782910Y-89207414D01*
X116942750Y-89040118D01*
X117050920Y-88812748D01*
X117110790Y-88520308D01*
X117111487Y-88514040D01*
X117116848Y-88195332D01*
X117095177Y-88081632D01*
X116672131Y-88081632D01*
X116633278Y-88099116D01*
X116527795Y-88112508D01*
X116372293Y-88120155D01*
X116273751Y-88121312D01*
X116089987Y-88120588D01*
X115975086Y-88115983D01*
X115914634Y-88103848D01*
X115894217Y-88080530D01*
X115899419Y-88042382D01*
X115903783Y-88027623D01*
X115978276Y-87888944D01*
X116095434Y-87777179D01*
X116198827Y-87728066D01*
X116336184Y-87731032D01*
X116475371Y-87792278D01*
X116592126Y-87893683D01*
X116662190Y-88017122D01*
X116672131Y-88081632D01*
X117095177Y-88081632D01*
X117063421Y-87915020D01*
X116957428Y-87679780D01*
X116805089Y-87496284D01*
X116612626Y-87371209D01*
X116386258Y-87311229D01*
X116132208Y-87323019D01*
X116132208Y-87323019D01*
G37*
X116132208Y-87323019D02*
X116025586Y-87348922D01*
X115821170Y-87443772D01*
X115646375Y-87588633D01*
X115525403Y-87762320D01*
X115508783Y-87801317D01*
X115485984Y-87903465D01*
X115470025Y-88054573D01*
X115464590Y-88207301D01*
X115464590Y-88496066D01*
X116068361Y-88496066D01*
X116317381Y-88497007D01*
X116492811Y-88502723D01*
X116604335Y-88517550D01*
X116661640Y-88545827D01*
X116674412Y-88591890D01*
X116652338Y-88660077D01*
X116612795Y-88739863D01*
X116502491Y-88873017D01*
X116349208Y-88939355D01*
X116161859Y-88937194D01*
X115949637Y-88864991D01*
X115766227Y-88775883D01*
X115614038Y-88896220D01*
X115461849Y-89016558D01*
X115605026Y-89148843D01*
X115796172Y-89273832D01*
X116031247Y-89349189D01*
X116284102Y-89370278D01*
X116528587Y-89332460D01*
X116568033Y-89319628D01*
X116782910Y-89207414D01*
X116942750Y-89040118D01*
X117050920Y-88812748D01*
X117110790Y-88520308D01*
X117111487Y-88514040D01*
X117116848Y-88195332D01*
X117095177Y-88081632D01*
X116672131Y-88081632D01*
X116633278Y-88099116D01*
X116527795Y-88112508D01*
X116372293Y-88120155D01*
X116273751Y-88121312D01*
X116089987Y-88120588D01*
X115975086Y-88115983D01*
X115914634Y-88103848D01*
X115894217Y-88080530D01*
X115899419Y-88042382D01*
X115903783Y-88027623D01*
X115978276Y-87888944D01*
X116095434Y-87777179D01*
X116198827Y-87728066D01*
X116336184Y-87731032D01*
X116475371Y-87792278D01*
X116592126Y-87893683D01*
X116662190Y-88017122D01*
X116672131Y-88081632D01*
X117095177Y-88081632D01*
X117063421Y-87915020D01*
X116957428Y-87679780D01*
X116805089Y-87496284D01*
X116612626Y-87371209D01*
X116386258Y-87311229D01*
X116132208Y-87323019D01*
G36*
X117657712Y-87347602D02*
G01*
X117416457Y-87450090D01*
X117340469Y-87499981D01*
X117243352Y-87576651D01*
X117182388Y-87636936D01*
X117171803Y-87656571D01*
X117201692Y-87700142D01*
X117278181Y-87774077D01*
X117339418Y-87825679D01*
X117507033Y-87960378D01*
X117639386Y-87849010D01*
X117741664Y-87777113D01*
X117841390Y-87752296D01*
X117955525Y-87758357D01*
X118136766Y-87803418D01*
X118261525Y-87896949D01*
X118337342Y-88048154D01*
X118371760Y-88266236D01*
X118371769Y-88266373D01*
X118368792Y-88510124D01*
X118322533Y-88688966D01*
X118230258Y-88810730D01*
X118167350Y-88851964D01*
X118000283Y-88903311D01*
X117821838Y-88903342D01*
X117666585Y-88853522D01*
X117629836Y-88829180D01*
X117537670Y-88767004D01*
X117465613Y-88756813D01*
X117387898Y-88803092D01*
X117301982Y-88886212D01*
X117165989Y-89026521D01*
X117316977Y-89150978D01*
X117550260Y-89291443D01*
X117813327Y-89360666D01*
X118088240Y-89355653D01*
X118268784Y-89309755D01*
X118479806Y-89196249D01*
X118648574Y-89017685D01*
X118725247Y-88891639D01*
X118787346Y-88710791D01*
X118818419Y-88481745D01*
X118818658Y-88233510D01*
X118788257Y-87995093D01*
X118727408Y-87795503D01*
X118717824Y-87775039D01*
X118575898Y-87574341D01*
X118383741Y-87428217D01*
X118156536Y-87339698D01*
X117909465Y-87311815D01*
X117657712Y-87347602D01*
X117657712Y-87347602D01*
G37*
X117657712Y-87347602D02*
X117416457Y-87450090D01*
X117340469Y-87499981D01*
X117243352Y-87576651D01*
X117182388Y-87636936D01*
X117171803Y-87656571D01*
X117201692Y-87700142D01*
X117278181Y-87774077D01*
X117339418Y-87825679D01*
X117507033Y-87960378D01*
X117639386Y-87849010D01*
X117741664Y-87777113D01*
X117841390Y-87752296D01*
X117955525Y-87758357D01*
X118136766Y-87803418D01*
X118261525Y-87896949D01*
X118337342Y-88048154D01*
X118371760Y-88266236D01*
X118371769Y-88266373D01*
X118368792Y-88510124D01*
X118322533Y-88688966D01*
X118230258Y-88810730D01*
X118167350Y-88851964D01*
X118000283Y-88903311D01*
X117821838Y-88903342D01*
X117666585Y-88853522D01*
X117629836Y-88829180D01*
X117537670Y-88767004D01*
X117465613Y-88756813D01*
X117387898Y-88803092D01*
X117301982Y-88886212D01*
X117165989Y-89026521D01*
X117316977Y-89150978D01*
X117550260Y-89291443D01*
X117813327Y-89360666D01*
X118088240Y-89355653D01*
X118268784Y-89309755D01*
X118479806Y-89196249D01*
X118648574Y-89017685D01*
X118725247Y-88891639D01*
X118787346Y-88710791D01*
X118818419Y-88481745D01*
X118818658Y-88233510D01*
X118788257Y-87995093D01*
X118727408Y-87795503D01*
X118717824Y-87775039D01*
X118575898Y-87574341D01*
X118383741Y-87428217D01*
X118156536Y-87339698D01*
X117909465Y-87311815D01*
X117657712Y-87347602D01*
G36*
X121710492Y-87978311D02*
G01*
X121706556Y-88283698D01*
X121692177Y-88515660D01*
X121663496Y-88683786D01*
X121616652Y-88797671D01*
X121547789Y-88866905D01*
X121453046Y-88901080D01*
X121335738Y-88909811D01*
X121212877Y-88900028D01*
X121119556Y-88864287D01*
X121051916Y-88792995D01*
X121006099Y-88676561D01*
X120978245Y-88505391D01*
X120964496Y-88269896D01*
X120960984Y-87978311D01*
X120960984Y-87330164D01*
X120502951Y-87330164D01*
X120502951Y-89328853D01*
X120731967Y-89328853D01*
X120870029Y-89323258D01*
X120941122Y-89303611D01*
X120960984Y-89266313D01*
X120972946Y-89233094D01*
X121020553Y-89240121D01*
X121116515Y-89287132D01*
X121336452Y-89359654D01*
X121569726Y-89354516D01*
X121793245Y-89275766D01*
X121899687Y-89213558D01*
X121980878Y-89146204D01*
X122040192Y-89061928D01*
X122081004Y-88948957D01*
X122106688Y-88795515D01*
X122120619Y-88589827D01*
X122126171Y-88320118D01*
X122126885Y-88111551D01*
X122126885Y-87330164D01*
X121710492Y-87330164D01*
X121710492Y-87978311D01*
X121710492Y-87978311D01*
G37*
X121710492Y-87978311D02*
X121706556Y-88283698D01*
X121692177Y-88515660D01*
X121663496Y-88683786D01*
X121616652Y-88797671D01*
X121547789Y-88866905D01*
X121453046Y-88901080D01*
X121335738Y-88909811D01*
X121212877Y-88900028D01*
X121119556Y-88864287D01*
X121051916Y-88792995D01*
X121006099Y-88676561D01*
X120978245Y-88505391D01*
X120964496Y-88269896D01*
X120960984Y-87978311D01*
X120960984Y-87330164D01*
X120502951Y-87330164D01*
X120502951Y-89328853D01*
X120731967Y-89328853D01*
X120870029Y-89323258D01*
X120941122Y-89303611D01*
X120960984Y-89266313D01*
X120972946Y-89233094D01*
X121020553Y-89240121D01*
X121116515Y-89287132D01*
X121336452Y-89359654D01*
X121569726Y-89354516D01*
X121793245Y-89275766D01*
X121899687Y-89213558D01*
X121980878Y-89146204D01*
X122040192Y-89061928D01*
X122081004Y-88948957D01*
X122106688Y-88795515D01*
X122120619Y-88589827D01*
X122126171Y-88320118D01*
X122126885Y-88111551D01*
X122126885Y-87330164D01*
X121710492Y-87330164D01*
X121710492Y-87978311D01*
G36*
X122977479Y-87354805D02*
G01*
X122766864Y-87469505D01*
X122602085Y-87650574D01*
X122524446Y-87797838D01*
X122491114Y-87927907D01*
X122469517Y-88113333D01*
X122460261Y-88326939D01*
X122463955Y-88541550D01*
X122481206Y-88729991D01*
X122501357Y-88830637D01*
X122569333Y-88968323D01*
X122687058Y-89114566D01*
X122828935Y-89242452D01*
X122969368Y-89325063D01*
X122972793Y-89326373D01*
X123147055Y-89362472D01*
X123353573Y-89363365D01*
X123549826Y-89330501D01*
X123625604Y-89304161D01*
X123820779Y-89193484D01*
X123960562Y-89048478D01*
X124052401Y-88856503D01*
X124103746Y-88604920D01*
X124115363Y-88473142D01*
X124113881Y-88307553D01*
X123667541Y-88307553D01*
X123652506Y-88549177D01*
X123609228Y-88733303D01*
X123540449Y-88850949D01*
X123491450Y-88884590D01*
X123365907Y-88908050D01*
X123216682Y-88901104D01*
X123087667Y-88867345D01*
X123053834Y-88848772D01*
X122964572Y-88740599D01*
X122905655Y-88575051D01*
X122880576Y-88373581D01*
X122892826Y-88157646D01*
X122920204Y-88027690D01*
X122998809Y-87877191D01*
X123122896Y-87783114D01*
X123272339Y-87750587D01*
X123427013Y-87784738D01*
X123545826Y-87868273D01*
X123608265Y-87937193D01*
X123644707Y-88005126D01*
X123662077Y-88097064D01*
X123667301Y-88237999D01*
X123667541Y-88307553D01*
X124113881Y-88307553D01*
X124112215Y-88121495D01*
X124054944Y-87833134D01*
X123943543Y-87608049D01*
X123778007Y-87446230D01*
X123558330Y-87347666D01*
X123511158Y-87336236D01*
X123227664Y-87309406D01*
X122977479Y-87354805D01*
X122977479Y-87354805D01*
G37*
X122977479Y-87354805D02*
X122766864Y-87469505D01*
X122602085Y-87650574D01*
X122524446Y-87797838D01*
X122491114Y-87927907D01*
X122469517Y-88113333D01*
X122460261Y-88326939D01*
X122463955Y-88541550D01*
X122481206Y-88729991D01*
X122501357Y-88830637D01*
X122569333Y-88968323D01*
X122687058Y-89114566D01*
X122828935Y-89242452D01*
X122969368Y-89325063D01*
X122972793Y-89326373D01*
X123147055Y-89362472D01*
X123353573Y-89363365D01*
X123549826Y-89330501D01*
X123625604Y-89304161D01*
X123820779Y-89193484D01*
X123960562Y-89048478D01*
X124052401Y-88856503D01*
X124103746Y-88604920D01*
X124115363Y-88473142D01*
X124113881Y-88307553D01*
X123667541Y-88307553D01*
X123652506Y-88549177D01*
X123609228Y-88733303D01*
X123540449Y-88850949D01*
X123491450Y-88884590D01*
X123365907Y-88908050D01*
X123216682Y-88901104D01*
X123087667Y-88867345D01*
X123053834Y-88848772D01*
X122964572Y-88740599D01*
X122905655Y-88575051D01*
X122880576Y-88373581D01*
X122892826Y-88157646D01*
X122920204Y-88027690D01*
X122998809Y-87877191D01*
X123122896Y-87783114D01*
X123272339Y-87750587D01*
X123427013Y-87784738D01*
X123545826Y-87868273D01*
X123608265Y-87937193D01*
X123644707Y-88005126D01*
X123662077Y-88097064D01*
X123667301Y-88237999D01*
X123667541Y-88307553D01*
X124113881Y-88307553D01*
X124112215Y-88121495D01*
X124054944Y-87833134D01*
X123943543Y-87608049D01*
X123778007Y-87446230D01*
X123558330Y-87347666D01*
X123511158Y-87336236D01*
X123227664Y-87309406D01*
X122977479Y-87354805D01*
G36*
X124953582Y-87323003D02*
G01*
X124795900Y-87352907D01*
X124632315Y-87415452D01*
X124614836Y-87423426D01*
X124490783Y-87488656D01*
X124404871Y-87549274D01*
X124377102Y-87588106D01*
X124403547Y-87651437D01*
X124467780Y-87744881D01*
X124496292Y-87779762D01*
X124613789Y-87917066D01*
X124765268Y-87827691D01*
X124909430Y-87768152D01*
X125076000Y-87736326D01*
X125235738Y-87734316D01*
X125359406Y-87764221D01*
X125389084Y-87782886D01*
X125445602Y-87868466D01*
X125452471Y-87967049D01*
X125410180Y-88044062D01*
X125385164Y-88058998D01*
X125310204Y-88077547D01*
X125178439Y-88099348D01*
X125016009Y-88120180D01*
X124986044Y-88123447D01*
X124725160Y-88168575D01*
X124535945Y-88245230D01*
X124410457Y-88360491D01*
X124340757Y-88521435D01*
X124319044Y-88718015D01*
X124349039Y-88941473D01*
X124446441Y-89116949D01*
X124611639Y-89244758D01*
X124845023Y-89325218D01*
X125104098Y-89356962D01*
X125315367Y-89356580D01*
X125486735Y-89327749D01*
X125603770Y-89287944D01*
X125751650Y-89218587D01*
X125888313Y-89138097D01*
X125936885Y-89102670D01*
X126061803Y-89000705D01*
X125760491Y-88695813D01*
X125589204Y-88809165D01*
X125417406Y-88894300D01*
X125233952Y-88938830D01*
X125057603Y-88943528D01*
X124907119Y-88909170D01*
X124801260Y-88836529D01*
X124767079Y-88775238D01*
X124772206Y-88676941D01*
X124857143Y-88601773D01*
X125021657Y-88549866D01*
X125201899Y-88525875D01*
X125479291Y-88480104D01*
X125685365Y-88393748D01*
X125822878Y-88264280D01*
X125894587Y-88089172D01*
X125904521Y-87881565D01*
X125855452Y-87664714D01*
X125743580Y-87500805D01*
X125567903Y-87389088D01*
X125327419Y-87328814D01*
X125149257Y-87316999D01*
X124953582Y-87323003D01*
X124953582Y-87323003D01*
G37*
X124953582Y-87323003D02*
X124795900Y-87352907D01*
X124632315Y-87415452D01*
X124614836Y-87423426D01*
X124490783Y-87488656D01*
X124404871Y-87549274D01*
X124377102Y-87588106D01*
X124403547Y-87651437D01*
X124467780Y-87744881D01*
X124496292Y-87779762D01*
X124613789Y-87917066D01*
X124765268Y-87827691D01*
X124909430Y-87768152D01*
X125076000Y-87736326D01*
X125235738Y-87734316D01*
X125359406Y-87764221D01*
X125389084Y-87782886D01*
X125445602Y-87868466D01*
X125452471Y-87967049D01*
X125410180Y-88044062D01*
X125385164Y-88058998D01*
X125310204Y-88077547D01*
X125178439Y-88099348D01*
X125016009Y-88120180D01*
X124986044Y-88123447D01*
X124725160Y-88168575D01*
X124535945Y-88245230D01*
X124410457Y-88360491D01*
X124340757Y-88521435D01*
X124319044Y-88718015D01*
X124349039Y-88941473D01*
X124446441Y-89116949D01*
X124611639Y-89244758D01*
X124845023Y-89325218D01*
X125104098Y-89356962D01*
X125315367Y-89356580D01*
X125486735Y-89327749D01*
X125603770Y-89287944D01*
X125751650Y-89218587D01*
X125888313Y-89138097D01*
X125936885Y-89102670D01*
X126061803Y-89000705D01*
X125760491Y-88695813D01*
X125589204Y-88809165D01*
X125417406Y-88894300D01*
X125233952Y-88938830D01*
X125057603Y-88943528D01*
X124907119Y-88909170D01*
X124801260Y-88836529D01*
X124767079Y-88775238D01*
X124772206Y-88676941D01*
X124857143Y-88601773D01*
X125021657Y-88549866D01*
X125201899Y-88525875D01*
X125479291Y-88480104D01*
X125685365Y-88393748D01*
X125822878Y-88264280D01*
X125894587Y-88089172D01*
X125904521Y-87881565D01*
X125855452Y-87664714D01*
X125743580Y-87500805D01*
X125567903Y-87389088D01*
X125327419Y-87328814D01*
X125149257Y-87316999D01*
X124953582Y-87323003D01*
G36*
X129492675Y-87376526D02*
G01*
X129451181Y-87396061D01*
X129307566Y-87501263D01*
X129171764Y-87654793D01*
X129070362Y-87823845D01*
X129041520Y-87901567D01*
X129015206Y-88040398D01*
X128999515Y-88208177D01*
X128997609Y-88277459D01*
X128997377Y-88496066D01*
X130255585Y-88496066D01*
X130228766Y-88610574D01*
X130162934Y-88746004D01*
X130047839Y-88863046D01*
X129910913Y-88938442D01*
X129823658Y-88954098D01*
X129705328Y-88935099D01*
X129564149Y-88887446D01*
X129516189Y-88865521D01*
X129338829Y-88776944D01*
X129187470Y-88892391D01*
X129100131Y-88970474D01*
X129053658Y-89034922D01*
X129051305Y-89053837D01*
X129092822Y-89099681D01*
X129183810Y-89169349D01*
X129266395Y-89223700D01*
X129489249Y-89321405D01*
X129739087Y-89365628D01*
X129986710Y-89354130D01*
X130184098Y-89294029D01*
X130387576Y-89165284D01*
X130532179Y-88995774D01*
X130622639Y-88776462D01*
X130663689Y-88498309D01*
X130667329Y-88371034D01*
X130652761Y-88079375D01*
X130650972Y-88070891D01*
X130234059Y-88070891D01*
X130222577Y-88098242D01*
X130175384Y-88113324D01*
X130078049Y-88119788D01*
X129916136Y-88121285D01*
X129853790Y-88121312D01*
X129664103Y-88119052D01*
X129543811Y-88110844D01*
X129479116Y-88094550D01*
X129456220Y-88068027D01*
X129455410Y-88059510D01*
X129481540Y-87991825D01*
X129546937Y-87897005D01*
X129575052Y-87863805D01*
X129679426Y-87769906D01*
X129788225Y-87732988D01*
X129846843Y-87729902D01*
X130005426Y-87768493D01*
X130138413Y-87872155D01*
X130222772Y-88022717D01*
X130224267Y-88027623D01*
X130234059Y-88070891D01*
X130650972Y-88070891D01*
X130604316Y-87849722D01*
X130517045Y-87665983D01*
X130410311Y-87535557D01*
X130212980Y-87394131D01*
X129981015Y-87318556D01*
X129734288Y-87311724D01*
X129492675Y-87376526D01*
X129492675Y-87376526D01*
G37*
X129492675Y-87376526D02*
X129451181Y-87396061D01*
X129307566Y-87501263D01*
X129171764Y-87654793D01*
X129070362Y-87823845D01*
X129041520Y-87901567D01*
X129015206Y-88040398D01*
X128999515Y-88208177D01*
X128997609Y-88277459D01*
X128997377Y-88496066D01*
X130255585Y-88496066D01*
X130228766Y-88610574D01*
X130162934Y-88746004D01*
X130047839Y-88863046D01*
X129910913Y-88938442D01*
X129823658Y-88954098D01*
X129705328Y-88935099D01*
X129564149Y-88887446D01*
X129516189Y-88865521D01*
X129338829Y-88776944D01*
X129187470Y-88892391D01*
X129100131Y-88970474D01*
X129053658Y-89034922D01*
X129051305Y-89053837D01*
X129092822Y-89099681D01*
X129183810Y-89169349D01*
X129266395Y-89223700D01*
X129489249Y-89321405D01*
X129739087Y-89365628D01*
X129986710Y-89354130D01*
X130184098Y-89294029D01*
X130387576Y-89165284D01*
X130532179Y-88995774D01*
X130622639Y-88776462D01*
X130663689Y-88498309D01*
X130667329Y-88371034D01*
X130652761Y-88079375D01*
X130650972Y-88070891D01*
X130234059Y-88070891D01*
X130222577Y-88098242D01*
X130175384Y-88113324D01*
X130078049Y-88119788D01*
X129916136Y-88121285D01*
X129853790Y-88121312D01*
X129664103Y-88119052D01*
X129543811Y-88110844D01*
X129479116Y-88094550D01*
X129456220Y-88068027D01*
X129455410Y-88059510D01*
X129481540Y-87991825D01*
X129546937Y-87897005D01*
X129575052Y-87863805D01*
X129679426Y-87769906D01*
X129788225Y-87732988D01*
X129846843Y-87729902D01*
X130005426Y-87768493D01*
X130138413Y-87872155D01*
X130222772Y-88022717D01*
X130224267Y-88027623D01*
X130234059Y-88070891D01*
X130650972Y-88070891D01*
X130604316Y-87849722D01*
X130517045Y-87665983D01*
X130410311Y-87535557D01*
X130212980Y-87394131D01*
X129981015Y-87318556D01*
X129734288Y-87311724D01*
X129492675Y-87376526D01*
G36*
X133405390Y-87351802D02*
G01*
X133187553Y-87448108D01*
X133022184Y-87608919D01*
X132909043Y-87834482D01*
X132847888Y-88125042D01*
X132843505Y-88170408D01*
X132840070Y-88490256D01*
X132884602Y-88770614D01*
X132974391Y-88997847D01*
X133022471Y-89070941D01*
X133189945Y-89225643D01*
X133403232Y-89325838D01*
X133641846Y-89367418D01*
X133885303Y-89346272D01*
X134070370Y-89281145D01*
X134229521Y-89171393D01*
X134359596Y-89027496D01*
X134361846Y-89024130D01*
X134414670Y-88935314D01*
X134448999Y-88846005D01*
X134469788Y-88733294D01*
X134481991Y-88574273D01*
X134487367Y-88443868D01*
X134489605Y-88325611D01*
X134073294Y-88325611D01*
X134069225Y-88443335D01*
X134054455Y-88600049D01*
X134028398Y-88700621D01*
X133981407Y-88772173D01*
X133937397Y-88813971D01*
X133781377Y-88901484D01*
X133618131Y-88913179D01*
X133466096Y-88850212D01*
X133390080Y-88779653D01*
X133335303Y-88708550D01*
X133303263Y-88640512D01*
X133289200Y-88551967D01*
X133288358Y-88419339D01*
X133292691Y-88297195D01*
X133302011Y-88122710D01*
X133316788Y-88009538D01*
X133343420Y-87935721D01*
X133388309Y-87879298D01*
X133423880Y-87847050D01*
X133572671Y-87762340D01*
X133733187Y-87758117D01*
X133867780Y-87808292D01*
X133982600Y-87913075D01*
X134051004Y-88085198D01*
X134073294Y-88325611D01*
X134489605Y-88325611D01*
X134492276Y-88184548D01*
X134483893Y-87990610D01*
X134458772Y-87844745D01*
X134413468Y-87729641D01*
X134344536Y-87627986D01*
X134318978Y-87597802D01*
X134159175Y-87447412D01*
X133987769Y-87359566D01*
X133778151Y-87322762D01*
X133675936Y-87319754D01*
X133405390Y-87351802D01*
X133405390Y-87351802D01*
G37*
X133405390Y-87351802D02*
X133187553Y-87448108D01*
X133022184Y-87608919D01*
X132909043Y-87834482D01*
X132847888Y-88125042D01*
X132843505Y-88170408D01*
X132840070Y-88490256D01*
X132884602Y-88770614D01*
X132974391Y-88997847D01*
X133022471Y-89070941D01*
X133189945Y-89225643D01*
X133403232Y-89325838D01*
X133641846Y-89367418D01*
X133885303Y-89346272D01*
X134070370Y-89281145D01*
X134229521Y-89171393D01*
X134359596Y-89027496D01*
X134361846Y-89024130D01*
X134414670Y-88935314D01*
X134448999Y-88846005D01*
X134469788Y-88733294D01*
X134481991Y-88574273D01*
X134487367Y-88443868D01*
X134489605Y-88325611D01*
X134073294Y-88325611D01*
X134069225Y-88443335D01*
X134054455Y-88600049D01*
X134028398Y-88700621D01*
X133981407Y-88772173D01*
X133937397Y-88813971D01*
X133781377Y-88901484D01*
X133618131Y-88913179D01*
X133466096Y-88850212D01*
X133390080Y-88779653D01*
X133335303Y-88708550D01*
X133303263Y-88640512D01*
X133289200Y-88551967D01*
X133288358Y-88419339D01*
X133292691Y-88297195D01*
X133302011Y-88122710D01*
X133316788Y-88009538D01*
X133343420Y-87935721D01*
X133388309Y-87879298D01*
X133423880Y-87847050D01*
X133572671Y-87762340D01*
X133733187Y-87758117D01*
X133867780Y-87808292D01*
X133982600Y-87913075D01*
X134051004Y-88085198D01*
X134073294Y-88325611D01*
X134489605Y-88325611D01*
X134492276Y-88184548D01*
X134483893Y-87990610D01*
X134458772Y-87844745D01*
X134413468Y-87729641D01*
X134344536Y-87627986D01*
X134318978Y-87597802D01*
X134159175Y-87447412D01*
X133987769Y-87359566D01*
X133778151Y-87322762D01*
X133675936Y-87319754D01*
X133405390Y-87351802D01*
G36*
X118269158Y-90463999D02*
G01*
X118070124Y-90515746D01*
X117903439Y-90622544D01*
X117822731Y-90702326D01*
X117690432Y-90890931D01*
X117614610Y-91109720D01*
X117588562Y-91378668D01*
X117588429Y-91400410D01*
X117588197Y-91619017D01*
X118846405Y-91619017D01*
X118819585Y-91733525D01*
X118771159Y-91837232D01*
X118686404Y-91945290D01*
X118668677Y-91962541D01*
X118516320Y-92055904D01*
X118342576Y-92071738D01*
X118142589Y-92010313D01*
X118108689Y-91993771D01*
X118004712Y-91943484D01*
X117935069Y-91914834D01*
X117922917Y-91912184D01*
X117880499Y-91937913D01*
X117799601Y-92000861D01*
X117758535Y-92035259D01*
X117673440Y-92114276D01*
X117645497Y-92166451D01*
X117664890Y-92214446D01*
X117675257Y-92227570D01*
X117745469Y-92285008D01*
X117861326Y-92354813D01*
X117942131Y-92395564D01*
X118171499Y-92467362D01*
X118425436Y-92490625D01*
X118665926Y-92463059D01*
X118733279Y-92443321D01*
X118941738Y-92331612D01*
X119096254Y-92159721D01*
X119197722Y-91925979D01*
X119247035Y-91628716D01*
X119252449Y-91473279D01*
X119236641Y-91246973D01*
X118837377Y-91246973D01*
X118798760Y-91263702D01*
X118694958Y-91276829D01*
X118544044Y-91284575D01*
X118441803Y-91285902D01*
X118257899Y-91284623D01*
X118141826Y-91278638D01*
X118078148Y-91264724D01*
X118051433Y-91239655D01*
X118046230Y-91203280D01*
X118081927Y-91091229D01*
X118171804Y-90980488D01*
X118290034Y-90895489D01*
X118408310Y-90860718D01*
X118568956Y-90891563D01*
X118708022Y-90980732D01*
X118804443Y-91109263D01*
X118837377Y-91246973D01*
X119236641Y-91246973D01*
X119229428Y-91143733D01*
X119158376Y-90881175D01*
X119037790Y-90683525D01*
X118866166Y-90548702D01*
X118642002Y-90474626D01*
X118520562Y-90460360D01*
X118269158Y-90463999D01*
X118269158Y-90463999D01*
G37*
X118269158Y-90463999D02*
X118070124Y-90515746D01*
X117903439Y-90622544D01*
X117822731Y-90702326D01*
X117690432Y-90890931D01*
X117614610Y-91109720D01*
X117588562Y-91378668D01*
X117588429Y-91400410D01*
X117588197Y-91619017D01*
X118846405Y-91619017D01*
X118819585Y-91733525D01*
X118771159Y-91837232D01*
X118686404Y-91945290D01*
X118668677Y-91962541D01*
X118516320Y-92055904D01*
X118342576Y-92071738D01*
X118142589Y-92010313D01*
X118108689Y-91993771D01*
X118004712Y-91943484D01*
X117935069Y-91914834D01*
X117922917Y-91912184D01*
X117880499Y-91937913D01*
X117799601Y-92000861D01*
X117758535Y-92035259D01*
X117673440Y-92114276D01*
X117645497Y-92166451D01*
X117664890Y-92214446D01*
X117675257Y-92227570D01*
X117745469Y-92285008D01*
X117861326Y-92354813D01*
X117942131Y-92395564D01*
X118171499Y-92467362D01*
X118425436Y-92490625D01*
X118665926Y-92463059D01*
X118733279Y-92443321D01*
X118941738Y-92331612D01*
X119096254Y-92159721D01*
X119197722Y-91925979D01*
X119247035Y-91628716D01*
X119252449Y-91473279D01*
X119236641Y-91246973D01*
X118837377Y-91246973D01*
X118798760Y-91263702D01*
X118694958Y-91276829D01*
X118544044Y-91284575D01*
X118441803Y-91285902D01*
X118257899Y-91284623D01*
X118141826Y-91278638D01*
X118078148Y-91264724D01*
X118051433Y-91239655D01*
X118046230Y-91203280D01*
X118081927Y-91091229D01*
X118171804Y-90980488D01*
X118290034Y-90895489D01*
X118408310Y-90860718D01*
X118568956Y-90891563D01*
X118708022Y-90980732D01*
X118804443Y-91109263D01*
X118837377Y-91246973D01*
X119236641Y-91246973D01*
X119229428Y-91143733D01*
X119158376Y-90881175D01*
X119037790Y-90683525D01*
X118866166Y-90548702D01*
X118642002Y-90474626D01*
X118520562Y-90460360D01*
X118269158Y-90463999D01*
G36*
X119584893Y-90452460D02*
G01*
X119424818Y-90484017D01*
X119333688Y-90530743D01*
X119237821Y-90608370D01*
X119374213Y-90780579D01*
X119458306Y-90884867D01*
X119515408Y-90935746D01*
X119572156Y-90943519D01*
X119655189Y-90918488D01*
X119694167Y-90904327D01*
X119853074Y-90883433D01*
X119998601Y-90928220D01*
X120105440Y-91029399D01*
X120122795Y-91061659D01*
X120141697Y-91147115D01*
X120156284Y-91304606D01*
X120165874Y-91522969D01*
X120169781Y-91791038D01*
X120169836Y-91829172D01*
X120169836Y-92493443D01*
X120627869Y-92493443D01*
X120627869Y-90453115D01*
X120398852Y-90453115D01*
X120266801Y-90456563D01*
X120198008Y-90471907D01*
X120172570Y-90506648D01*
X120169836Y-90539416D01*
X120169836Y-90625717D01*
X120060122Y-90539416D01*
X119934320Y-90480538D01*
X119765319Y-90451426D01*
X119584893Y-90452460D01*
X119584893Y-90452460D01*
G37*
X119584893Y-90452460D02*
X119424818Y-90484017D01*
X119333688Y-90530743D01*
X119237821Y-90608370D01*
X119374213Y-90780579D01*
X119458306Y-90884867D01*
X119515408Y-90935746D01*
X119572156Y-90943519D01*
X119655189Y-90918488D01*
X119694167Y-90904327D01*
X119853074Y-90883433D01*
X119998601Y-90928220D01*
X120105440Y-91029399D01*
X120122795Y-91061659D01*
X120141697Y-91147115D01*
X120156284Y-91304606D01*
X120165874Y-91522969D01*
X120169781Y-91791038D01*
X120169836Y-91829172D01*
X120169836Y-92493443D01*
X120627869Y-92493443D01*
X120627869Y-90453115D01*
X120398852Y-90453115D01*
X120266801Y-90456563D01*
X120198008Y-90471907D01*
X120172570Y-90506648D01*
X120169836Y-90539416D01*
X120169836Y-90625717D01*
X120060122Y-90539416D01*
X119934320Y-90480538D01*
X119765319Y-90451426D01*
X119584893Y-90452460D01*
G36*
X121561330Y-90465480D02*
G01*
X121385821Y-90508109D01*
X121335088Y-90530693D01*
X121236746Y-90589847D01*
X121161273Y-90656472D01*
X121105429Y-90742135D01*
X121065974Y-90858405D01*
X121039668Y-91016848D01*
X121023271Y-91229034D01*
X121013543Y-91506529D01*
X121009849Y-91691885D01*
X120996255Y-92493443D01*
X121228456Y-92493443D01*
X121369323Y-92487536D01*
X121441898Y-92467350D01*
X121460656Y-92433453D01*
X121470559Y-92396799D01*
X121514834Y-92403807D01*
X121575164Y-92433197D01*
X121726197Y-92478246D01*
X121920307Y-92490385D01*
X122124469Y-92470529D01*
X122305660Y-92419592D01*
X122321911Y-92412522D01*
X122487509Y-92296188D01*
X122596676Y-92134467D01*
X122646909Y-91945430D01*
X122643072Y-91877515D01*
X122233237Y-91877515D01*
X122197125Y-91968914D01*
X122090058Y-92034411D01*
X121917316Y-92069563D01*
X121825000Y-92074231D01*
X121671150Y-92062282D01*
X121568885Y-92015844D01*
X121543934Y-91993771D01*
X121476339Y-91873681D01*
X121460656Y-91764754D01*
X121460656Y-91619017D01*
X121663648Y-91619017D01*
X121899613Y-91631043D01*
X122065119Y-91668871D01*
X122169695Y-91735121D01*
X122193109Y-91764656D01*
X122233237Y-91877515D01*
X122643072Y-91877515D01*
X122635705Y-91747148D01*
X122560560Y-91557692D01*
X122458032Y-91429656D01*
X122395935Y-91374302D01*
X122335145Y-91337924D01*
X122256048Y-91315744D01*
X122139029Y-91302982D01*
X121964473Y-91294857D01*
X121895237Y-91292521D01*
X121460656Y-91278321D01*
X121461293Y-91146784D01*
X121478124Y-91008519D01*
X121538974Y-90924917D01*
X121661905Y-90871507D01*
X121665203Y-90870555D01*
X121839496Y-90849555D01*
X122010048Y-90876985D01*
X122136800Y-90943689D01*
X122187658Y-90976625D01*
X122242435Y-90972068D01*
X122326728Y-90924349D01*
X122376227Y-90890671D01*
X122473045Y-90818716D01*
X122533018Y-90764779D01*
X122542641Y-90749337D01*
X122503015Y-90669424D01*
X122385936Y-90573989D01*
X122335082Y-90541789D01*
X122188887Y-90486332D01*
X121991863Y-90454913D01*
X121773011Y-90447855D01*
X121561330Y-90465480D01*
X121561330Y-90465480D01*
G37*
X121561330Y-90465480D02*
X121385821Y-90508109D01*
X121335088Y-90530693D01*
X121236746Y-90589847D01*
X121161273Y-90656472D01*
X121105429Y-90742135D01*
X121065974Y-90858405D01*
X121039668Y-91016848D01*
X121023271Y-91229034D01*
X121013543Y-91506529D01*
X121009849Y-91691885D01*
X120996255Y-92493443D01*
X121228456Y-92493443D01*
X121369323Y-92487536D01*
X121441898Y-92467350D01*
X121460656Y-92433453D01*
X121470559Y-92396799D01*
X121514834Y-92403807D01*
X121575164Y-92433197D01*
X121726197Y-92478246D01*
X121920307Y-92490385D01*
X122124469Y-92470529D01*
X122305660Y-92419592D01*
X122321911Y-92412522D01*
X122487509Y-92296188D01*
X122596676Y-92134467D01*
X122646909Y-91945430D01*
X122643072Y-91877515D01*
X122233237Y-91877515D01*
X122197125Y-91968914D01*
X122090058Y-92034411D01*
X121917316Y-92069563D01*
X121825000Y-92074231D01*
X121671150Y-92062282D01*
X121568885Y-92015844D01*
X121543934Y-91993771D01*
X121476339Y-91873681D01*
X121460656Y-91764754D01*
X121460656Y-91619017D01*
X121663648Y-91619017D01*
X121899613Y-91631043D01*
X122065119Y-91668871D01*
X122169695Y-91735121D01*
X122193109Y-91764656D01*
X122233237Y-91877515D01*
X122643072Y-91877515D01*
X122635705Y-91747148D01*
X122560560Y-91557692D01*
X122458032Y-91429656D01*
X122395935Y-91374302D01*
X122335145Y-91337924D01*
X122256048Y-91315744D01*
X122139029Y-91302982D01*
X121964473Y-91294857D01*
X121895237Y-91292521D01*
X121460656Y-91278321D01*
X121461293Y-91146784D01*
X121478124Y-91008519D01*
X121538974Y-90924917D01*
X121661905Y-90871507D01*
X121665203Y-90870555D01*
X121839496Y-90849555D01*
X122010048Y-90876985D01*
X122136800Y-90943689D01*
X122187658Y-90976625D01*
X122242435Y-90972068D01*
X122326728Y-90924349D01*
X122376227Y-90890671D01*
X122473045Y-90818716D01*
X122533018Y-90764779D01*
X122542641Y-90749337D01*
X122503015Y-90669424D01*
X122385936Y-90573989D01*
X122335082Y-90541789D01*
X122188887Y-90486332D01*
X121991863Y-90454913D01*
X121773011Y-90447855D01*
X121561330Y-90465480D01*
G36*
X123903058Y-90473935D02*
G01*
X123687752Y-91119344D01*
X123472445Y-91764754D01*
X123404936Y-91535738D01*
X123364309Y-91394204D01*
X123310867Y-91202936D01*
X123253158Y-90992693D01*
X123222645Y-90879918D01*
X123107864Y-90453115D01*
X122634313Y-90453115D01*
X122775861Y-90900738D01*
X122845567Y-91120903D01*
X122929777Y-91386471D01*
X123017719Y-91663492D01*
X123096228Y-91910492D01*
X123275048Y-92472623D01*
X123468118Y-92485185D01*
X123661189Y-92497746D01*
X123765882Y-92152070D01*
X123830447Y-91937335D01*
X123900908Y-91700604D01*
X123962489Y-91491526D01*
X123964919Y-91483205D01*
X124010915Y-91341537D01*
X124051497Y-91244874D01*
X124079920Y-91208321D01*
X124085761Y-91212549D01*
X124106262Y-91269217D01*
X124145215Y-91390605D01*
X124197878Y-91561448D01*
X124259509Y-91766482D01*
X124292857Y-91879262D01*
X124473454Y-92493443D01*
X124856733Y-92493443D01*
X125163133Y-91525328D01*
X125249209Y-91253759D01*
X125327620Y-91007138D01*
X125394661Y-90797048D01*
X125446631Y-90635076D01*
X125479826Y-90532808D01*
X125489916Y-90502928D01*
X125481928Y-90472334D01*
X125419208Y-90458935D01*
X125288685Y-90460275D01*
X125268253Y-90461288D01*
X125026208Y-90473935D01*
X124867683Y-91056885D01*
X124809415Y-91269486D01*
X124757345Y-91456377D01*
X124716056Y-91601331D01*
X124690134Y-91688120D01*
X124685344Y-91702269D01*
X124665496Y-91685998D01*
X124625470Y-91601697D01*
X124569862Y-91460842D01*
X124503269Y-91274911D01*
X124446976Y-91106956D01*
X124232422Y-90449209D01*
X123903058Y-90473935D01*
X123903058Y-90473935D01*
G37*
X123903058Y-90473935D02*
X123687752Y-91119344D01*
X123472445Y-91764754D01*
X123404936Y-91535738D01*
X123364309Y-91394204D01*
X123310867Y-91202936D01*
X123253158Y-90992693D01*
X123222645Y-90879918D01*
X123107864Y-90453115D01*
X122634313Y-90453115D01*
X122775861Y-90900738D01*
X122845567Y-91120903D01*
X122929777Y-91386471D01*
X123017719Y-91663492D01*
X123096228Y-91910492D01*
X123275048Y-92472623D01*
X123468118Y-92485185D01*
X123661189Y-92497746D01*
X123765882Y-92152070D01*
X123830447Y-91937335D01*
X123900908Y-91700604D01*
X123962489Y-91491526D01*
X123964919Y-91483205D01*
X124010915Y-91341537D01*
X124051497Y-91244874D01*
X124079920Y-91208321D01*
X124085761Y-91212549D01*
X124106262Y-91269217D01*
X124145215Y-91390605D01*
X124197878Y-91561448D01*
X124259509Y-91766482D01*
X124292857Y-91879262D01*
X124473454Y-92493443D01*
X124856733Y-92493443D01*
X125163133Y-91525328D01*
X125249209Y-91253759D01*
X125327620Y-91007138D01*
X125394661Y-90797048D01*
X125446631Y-90635076D01*
X125479826Y-90532808D01*
X125489916Y-90502928D01*
X125481928Y-90472334D01*
X125419208Y-90458935D01*
X125288685Y-90460275D01*
X125268253Y-90461288D01*
X125026208Y-90473935D01*
X124867683Y-91056885D01*
X124809415Y-91269486D01*
X124757345Y-91456377D01*
X124716056Y-91601331D01*
X124690134Y-91688120D01*
X124685344Y-91702269D01*
X124665496Y-91685998D01*
X124625470Y-91601697D01*
X124569862Y-91460842D01*
X124503269Y-91274911D01*
X124446976Y-91106956D01*
X124232422Y-90449209D01*
X123903058Y-90473935D01*
G36*
X125666230Y-92493443D02*
G01*
X125895246Y-92493443D01*
X126028175Y-92489546D01*
X126097405Y-92473407D01*
X126122332Y-92438354D01*
X126124262Y-92414653D01*
X126128466Y-92367123D01*
X126154974Y-92358008D01*
X126224633Y-92387308D01*
X126278804Y-92414653D01*
X126486777Y-92479451D01*
X126712853Y-92483201D01*
X126896655Y-92434873D01*
X127067813Y-92318118D01*
X127198284Y-92145781D01*
X127269727Y-91942506D01*
X127271546Y-91931141D01*
X127282161Y-91807136D01*
X127287440Y-91629117D01*
X127287016Y-91494480D01*
X126832172Y-91494480D01*
X126821635Y-91673428D01*
X126797666Y-91820924D01*
X126765217Y-91904217D01*
X126642456Y-92018041D01*
X126496701Y-92058845D01*
X126346393Y-92025848D01*
X126217951Y-91927422D01*
X126169308Y-91861224D01*
X126140866Y-91782231D01*
X126127544Y-91666926D01*
X126124262Y-91493736D01*
X126130135Y-91322229D01*
X126145647Y-91171540D01*
X126167638Y-91070698D01*
X126171303Y-91061659D01*
X126259988Y-90954195D01*
X126389428Y-90895195D01*
X126534257Y-90885669D01*
X126669109Y-90926626D01*
X126768617Y-91019076D01*
X126778940Y-91037473D01*
X126811250Y-91149646D01*
X126828852Y-91310934D01*
X126832172Y-91494480D01*
X127287016Y-91494480D01*
X127286800Y-91426212D01*
X127283806Y-91317010D01*
X127263442Y-91046856D01*
X127221117Y-90844024D01*
X127150706Y-90694077D01*
X127046088Y-90582579D01*
X126944521Y-90517127D01*
X126802616Y-90471117D01*
X126626121Y-90455336D01*
X126445393Y-90468190D01*
X126290787Y-90508081D01*
X126209101Y-90555801D01*
X126124262Y-90632579D01*
X126124262Y-89661967D01*
X125666230Y-89661967D01*
X125666230Y-92493443D01*
X125666230Y-92493443D01*
G37*
X125666230Y-92493443D02*
X125895246Y-92493443D01*
X126028175Y-92489546D01*
X126097405Y-92473407D01*
X126122332Y-92438354D01*
X126124262Y-92414653D01*
X126128466Y-92367123D01*
X126154974Y-92358008D01*
X126224633Y-92387308D01*
X126278804Y-92414653D01*
X126486777Y-92479451D01*
X126712853Y-92483201D01*
X126896655Y-92434873D01*
X127067813Y-92318118D01*
X127198284Y-92145781D01*
X127269727Y-91942506D01*
X127271546Y-91931141D01*
X127282161Y-91807136D01*
X127287440Y-91629117D01*
X127287016Y-91494480D01*
X126832172Y-91494480D01*
X126821635Y-91673428D01*
X126797666Y-91820924D01*
X126765217Y-91904217D01*
X126642456Y-92018041D01*
X126496701Y-92058845D01*
X126346393Y-92025848D01*
X126217951Y-91927422D01*
X126169308Y-91861224D01*
X126140866Y-91782231D01*
X126127544Y-91666926D01*
X126124262Y-91493736D01*
X126130135Y-91322229D01*
X126145647Y-91171540D01*
X126167638Y-91070698D01*
X126171303Y-91061659D01*
X126259988Y-90954195D01*
X126389428Y-90895195D01*
X126534257Y-90885669D01*
X126669109Y-90926626D01*
X126768617Y-91019076D01*
X126778940Y-91037473D01*
X126811250Y-91149646D01*
X126828852Y-91310934D01*
X126832172Y-91494480D01*
X127287016Y-91494480D01*
X127286800Y-91426212D01*
X127283806Y-91317010D01*
X127263442Y-91046856D01*
X127221117Y-90844024D01*
X127150706Y-90694077D01*
X127046088Y-90582579D01*
X126944521Y-90517127D01*
X126802616Y-90471117D01*
X126626121Y-90455336D01*
X126445393Y-90468190D01*
X126290787Y-90508081D01*
X126209101Y-90555801D01*
X126124262Y-90632579D01*
X126124262Y-89661967D01*
X125666230Y-89661967D01*
X125666230Y-92493443D01*
G36*
X128289475Y-90457540D02*
G01*
X128227163Y-90476218D01*
X128207075Y-90517255D01*
X128206230Y-90535782D01*
X128202625Y-90587383D01*
X128177800Y-90595484D01*
X128110737Y-90560108D01*
X128070902Y-90535937D01*
X127945227Y-90484175D01*
X127795123Y-90458581D01*
X127637737Y-90456613D01*
X127490214Y-90475729D01*
X127369700Y-90513387D01*
X127293340Y-90567044D01*
X127278281Y-90634158D01*
X127285881Y-90652333D01*
X127341282Y-90727777D01*
X127427190Y-90820568D01*
X127442728Y-90835568D01*
X127524612Y-90904540D01*
X127595263Y-90926825D01*
X127694068Y-90911272D01*
X127733652Y-90900938D01*
X127856828Y-90876116D01*
X127943436Y-90887278D01*
X128016576Y-90926646D01*
X128083574Y-90979479D01*
X128132918Y-91045924D01*
X128167209Y-91138652D01*
X128189048Y-91270334D01*
X128201034Y-91453641D01*
X128205769Y-91701246D01*
X128206230Y-91850744D01*
X128206230Y-92493443D01*
X128622623Y-92493443D01*
X128622623Y-90453115D01*
X128414426Y-90453115D01*
X128289475Y-90457540D01*
X128289475Y-90457540D01*
G37*
X128289475Y-90457540D02*
X128227163Y-90476218D01*
X128207075Y-90517255D01*
X128206230Y-90535782D01*
X128202625Y-90587383D01*
X128177800Y-90595484D01*
X128110737Y-90560108D01*
X128070902Y-90535937D01*
X127945227Y-90484175D01*
X127795123Y-90458581D01*
X127637737Y-90456613D01*
X127490214Y-90475729D01*
X127369700Y-90513387D01*
X127293340Y-90567044D01*
X127278281Y-90634158D01*
X127285881Y-90652333D01*
X127341282Y-90727777D01*
X127427190Y-90820568D01*
X127442728Y-90835568D01*
X127524612Y-90904540D01*
X127595263Y-90926825D01*
X127694068Y-90911272D01*
X127733652Y-90900938D01*
X127856828Y-90876116D01*
X127943436Y-90887278D01*
X128016576Y-90926646D01*
X128083574Y-90979479D01*
X128132918Y-91045924D01*
X128167209Y-91138652D01*
X128189048Y-91270334D01*
X128201034Y-91453641D01*
X128205769Y-91701246D01*
X128206230Y-91850744D01*
X128206230Y-92493443D01*
X128622623Y-92493443D01*
X128622623Y-90453115D01*
X128414426Y-90453115D01*
X128289475Y-90457540D01*
G36*
X129583779Y-90469247D02*
G01*
X129387889Y-90521514D01*
X129238767Y-90616253D01*
X129133535Y-90740338D01*
X129100821Y-90793296D01*
X129076669Y-90848768D01*
X129059784Y-90919730D01*
X129048873Y-91019154D01*
X129042640Y-91160016D01*
X129039791Y-91355289D01*
X129039032Y-91617948D01*
X129039016Y-91687633D01*
X129039016Y-92493443D01*
X129238885Y-92493443D01*
X129366370Y-92484515D01*
X129460634Y-92461896D01*
X129484251Y-92447946D01*
X129548815Y-92423870D01*
X129614759Y-92447946D01*
X129723332Y-92478003D01*
X129881042Y-92490100D01*
X130055844Y-92484851D01*
X130215693Y-92462869D01*
X130309016Y-92434663D01*
X130489609Y-92318731D01*
X130602470Y-92157847D01*
X130653209Y-91943936D01*
X130653680Y-91938443D01*
X130649227Y-91843547D01*
X130246557Y-91843547D01*
X130211354Y-91951484D01*
X130154014Y-92012229D01*
X130038913Y-92058172D01*
X129886986Y-92076512D01*
X129732061Y-92067485D01*
X129607964Y-92031332D01*
X129573197Y-92008137D01*
X129512444Y-91900960D01*
X129497049Y-91779120D01*
X129497049Y-91619017D01*
X129727403Y-91619017D01*
X129946241Y-91635863D01*
X130112137Y-91683593D01*
X130215338Y-91757986D01*
X130246557Y-91843547D01*
X130649227Y-91843547D01*
X130642713Y-91704731D01*
X130565631Y-91519946D01*
X130420714Y-91380206D01*
X130400683Y-91367495D01*
X130314610Y-91326105D01*
X130208073Y-91301041D01*
X130059141Y-91288858D01*
X129882213Y-91286057D01*
X129497049Y-91285902D01*
X129497049Y-91124443D01*
X129513387Y-90999168D01*
X129555078Y-90915241D01*
X129559959Y-90910773D01*
X129652736Y-90874059D01*
X129792784Y-90859828D01*
X129947555Y-90866821D01*
X130084499Y-90893780D01*
X130165759Y-90934212D01*
X130209790Y-90966601D01*
X130256285Y-90972784D01*
X130320451Y-90946248D01*
X130417495Y-90880479D01*
X130562626Y-90768963D01*
X130575947Y-90758516D01*
X130569121Y-90719862D01*
X130512178Y-90655572D01*
X130425630Y-90584131D01*
X130329992Y-90524021D01*
X130299944Y-90509827D01*
X130190341Y-90481503D01*
X130029735Y-90461300D01*
X129850302Y-90453196D01*
X129841911Y-90453180D01*
X129583779Y-90469247D01*
X129583779Y-90469247D01*
G37*
X129583779Y-90469247D02*
X129387889Y-90521514D01*
X129238767Y-90616253D01*
X129133535Y-90740338D01*
X129100821Y-90793296D01*
X129076669Y-90848768D01*
X129059784Y-90919730D01*
X129048873Y-91019154D01*
X129042640Y-91160016D01*
X129039791Y-91355289D01*
X129039032Y-91617948D01*
X129039016Y-91687633D01*
X129039016Y-92493443D01*
X129238885Y-92493443D01*
X129366370Y-92484515D01*
X129460634Y-92461896D01*
X129484251Y-92447946D01*
X129548815Y-92423870D01*
X129614759Y-92447946D01*
X129723332Y-92478003D01*
X129881042Y-92490100D01*
X130055844Y-92484851D01*
X130215693Y-92462869D01*
X130309016Y-92434663D01*
X130489609Y-92318731D01*
X130602470Y-92157847D01*
X130653209Y-91943936D01*
X130653680Y-91938443D01*
X130649227Y-91843547D01*
X130246557Y-91843547D01*
X130211354Y-91951484D01*
X130154014Y-92012229D01*
X130038913Y-92058172D01*
X129886986Y-92076512D01*
X129732061Y-92067485D01*
X129607964Y-92031332D01*
X129573197Y-92008137D01*
X129512444Y-91900960D01*
X129497049Y-91779120D01*
X129497049Y-91619017D01*
X129727403Y-91619017D01*
X129946241Y-91635863D01*
X130112137Y-91683593D01*
X130215338Y-91757986D01*
X130246557Y-91843547D01*
X130649227Y-91843547D01*
X130642713Y-91704731D01*
X130565631Y-91519946D01*
X130420714Y-91380206D01*
X130400683Y-91367495D01*
X130314610Y-91326105D01*
X130208073Y-91301041D01*
X130059141Y-91288858D01*
X129882213Y-91286057D01*
X129497049Y-91285902D01*
X129497049Y-91124443D01*
X129513387Y-90999168D01*
X129555078Y-90915241D01*
X129559959Y-90910773D01*
X129652736Y-90874059D01*
X129792784Y-90859828D01*
X129947555Y-90866821D01*
X130084499Y-90893780D01*
X130165759Y-90934212D01*
X130209790Y-90966601D01*
X130256285Y-90972784D01*
X130320451Y-90946248D01*
X130417495Y-90880479D01*
X130562626Y-90768963D01*
X130575947Y-90758516D01*
X130569121Y-90719862D01*
X130512178Y-90655572D01*
X130425630Y-90584131D01*
X130329992Y-90524021D01*
X130299944Y-90509827D01*
X130190341Y-90481503D01*
X130029735Y-90461300D01*
X129850302Y-90453196D01*
X129841911Y-90453180D01*
X129583779Y-90469247D01*
G36*
X131320808Y-87365166D02*
G01*
X131233015Y-87408540D01*
X131124751Y-87484122D01*
X131045845Y-87566542D01*
X130991805Y-87670037D01*
X130958141Y-87808843D01*
X130940363Y-87997194D01*
X130933980Y-88249328D01*
X130933607Y-88357724D01*
X130934696Y-88595287D01*
X130939222Y-88765068D01*
X130949068Y-88882550D01*
X130966118Y-88963215D01*
X130992259Y-89022545D01*
X131019458Y-89063020D01*
X131193080Y-89235225D01*
X131397538Y-89338806D01*
X131618104Y-89369960D01*
X131840046Y-89324885D01*
X131910360Y-89293009D01*
X132078689Y-89205271D01*
X132078689Y-90580172D01*
X131955838Y-90516643D01*
X131793967Y-90467491D01*
X131595005Y-90454900D01*
X131396328Y-90478147D01*
X131246290Y-90530370D01*
X131121841Y-90629826D01*
X131015508Y-90772143D01*
X131007513Y-90786755D01*
X130973793Y-90855582D01*
X130949166Y-90924956D01*
X130932214Y-91008996D01*
X130921519Y-91121816D01*
X130915662Y-91277533D01*
X130913227Y-91490265D01*
X130912787Y-91729664D01*
X130912787Y-92493443D01*
X131370820Y-92493443D01*
X131370820Y-91085108D01*
X131498933Y-90977308D01*
X131632018Y-90891079D01*
X131758048Y-90875401D01*
X131884778Y-90915747D01*
X131952317Y-90955254D01*
X132002586Y-91011527D01*
X132038338Y-91096572D01*
X132062328Y-91222394D01*
X132077311Y-91400998D01*
X132086040Y-91644391D01*
X132089114Y-91806394D01*
X132099508Y-92472623D01*
X132318115Y-92485209D01*
X132536721Y-92497795D01*
X132536721Y-88363464D01*
X132078689Y-88363464D01*
X132067011Y-88593953D01*
X132027662Y-88753950D01*
X131954166Y-88853497D01*
X131840049Y-88902639D01*
X131724754Y-88912459D01*
X131594238Y-88901175D01*
X131507617Y-88856764D01*
X131453451Y-88798081D01*
X131410810Y-88734962D01*
X131385426Y-88664645D01*
X131374131Y-88566123D01*
X131373760Y-88418387D01*
X131377560Y-88294683D01*
X131386288Y-88108328D01*
X131399280Y-87985982D01*
X131421159Y-87908377D01*
X131456546Y-87856245D01*
X131489941Y-87826111D01*
X131629475Y-87760399D01*
X131794619Y-87749787D01*
X131889446Y-87772423D01*
X131983334Y-87852881D01*
X132045526Y-88009392D01*
X132075669Y-88240852D01*
X132078689Y-88363464D01*
X132536721Y-88363464D01*
X132536721Y-87330164D01*
X132307705Y-87330164D01*
X132170206Y-87335602D01*
X132099267Y-87354909D01*
X132078697Y-87392576D01*
X132078689Y-87393692D01*
X132069145Y-87430581D01*
X132027051Y-87426393D01*
X131943361Y-87385859D01*
X131748354Y-87323850D01*
X131528954Y-87317332D01*
X131320808Y-87365166D01*
X131320808Y-87365166D01*
G37*
X131320808Y-87365166D02*
X131233015Y-87408540D01*
X131124751Y-87484122D01*
X131045845Y-87566542D01*
X130991805Y-87670037D01*
X130958141Y-87808843D01*
X130940363Y-87997194D01*
X130933980Y-88249328D01*
X130933607Y-88357724D01*
X130934696Y-88595287D01*
X130939222Y-88765068D01*
X130949068Y-88882550D01*
X130966118Y-88963215D01*
X130992259Y-89022545D01*
X131019458Y-89063020D01*
X131193080Y-89235225D01*
X131397538Y-89338806D01*
X131618104Y-89369960D01*
X131840046Y-89324885D01*
X131910360Y-89293009D01*
X132078689Y-89205271D01*
X132078689Y-90580172D01*
X131955838Y-90516643D01*
X131793967Y-90467491D01*
X131595005Y-90454900D01*
X131396328Y-90478147D01*
X131246290Y-90530370D01*
X131121841Y-90629826D01*
X131015508Y-90772143D01*
X131007513Y-90786755D01*
X130973793Y-90855582D01*
X130949166Y-90924956D01*
X130932214Y-91008996D01*
X130921519Y-91121816D01*
X130915662Y-91277533D01*
X130913227Y-91490265D01*
X130912787Y-91729664D01*
X130912787Y-92493443D01*
X131370820Y-92493443D01*
X131370820Y-91085108D01*
X131498933Y-90977308D01*
X131632018Y-90891079D01*
X131758048Y-90875401D01*
X131884778Y-90915747D01*
X131952317Y-90955254D01*
X132002586Y-91011527D01*
X132038338Y-91096572D01*
X132062328Y-91222394D01*
X132077311Y-91400998D01*
X132086040Y-91644391D01*
X132089114Y-91806394D01*
X132099508Y-92472623D01*
X132318115Y-92485209D01*
X132536721Y-92497795D01*
X132536721Y-88363464D01*
X132078689Y-88363464D01*
X132067011Y-88593953D01*
X132027662Y-88753950D01*
X131954166Y-88853497D01*
X131840049Y-88902639D01*
X131724754Y-88912459D01*
X131594238Y-88901175D01*
X131507617Y-88856764D01*
X131453451Y-88798081D01*
X131410810Y-88734962D01*
X131385426Y-88664645D01*
X131374131Y-88566123D01*
X131373760Y-88418387D01*
X131377560Y-88294683D01*
X131386288Y-88108328D01*
X131399280Y-87985982D01*
X131421159Y-87908377D01*
X131456546Y-87856245D01*
X131489941Y-87826111D01*
X131629475Y-87760399D01*
X131794619Y-87749787D01*
X131889446Y-87772423D01*
X131983334Y-87852881D01*
X132045526Y-88009392D01*
X132075669Y-88240852D01*
X132078689Y-88363464D01*
X132536721Y-88363464D01*
X132536721Y-87330164D01*
X132307705Y-87330164D01*
X132170206Y-87335602D01*
X132099267Y-87354909D01*
X132078697Y-87392576D01*
X132078689Y-87393692D01*
X132069145Y-87430581D01*
X132027051Y-87426393D01*
X131943361Y-87385859D01*
X131748354Y-87323850D01*
X131528954Y-87317332D01*
X131320808Y-87365166D01*
D12*
X105298714Y-86556380D02*
X104727285Y-86556380D01*
X105013000Y-87556380D02*
X105013000Y-86556380D01*
X104393952Y-87556380D02*
X104393952Y-86556380D01*
X104393952Y-87032571D02*
X103822523Y-87032571D01*
X103822523Y-87556380D02*
X103822523Y-86556380D01*
X102822523Y-87556380D02*
X103393952Y-87556380D01*
X103108238Y-87556380D02*
X103108238Y-86556380D01*
X103203476Y-86699238D01*
X103298714Y-86794476D01*
X103393952Y-86842095D01*
M02*
