G04 #@! TF.GenerationSoftware,KiCad,Pcbnew,(6.0.0-rc1-dev-1491-g0a4812be0)*
G04 #@! TF.CreationDate,2019-06-11T15:11:38+02:00
G04 #@! TF.ProjectId,datalogger,64617461-6c6f-4676-9765-722e6b696361,v. 1.1*
G04 #@! TF.SameCoordinates,Original*
G04 #@! TF.FileFunction,Paste,Bot*
G04 #@! TF.FilePolarity,Positive*
%FSLAX46Y46*%
G04 Gerber Fmt 4.6, Leading zero omitted, Abs format (unit mm)*
G04 Created by KiCad (PCBNEW (6.0.0-rc1-dev-1491-g0a4812be0)) date 2019-06-11 15:11:38*
%MOMM*%
%LPD*%
G04 APERTURE LIST*
%ADD10C,0.100000*%
%ADD11C,1.225000*%
G04 APERTURE END LIST*
D10*
G36*
X105962504Y-88050204D02*
G01*
X105986773Y-88053804D01*
X106010571Y-88059765D01*
X106033671Y-88068030D01*
X106055849Y-88078520D01*
X106076893Y-88091133D01*
X106096598Y-88105747D01*
X106114777Y-88122223D01*
X106131253Y-88140402D01*
X106145867Y-88160107D01*
X106158480Y-88181151D01*
X106168970Y-88203329D01*
X106177235Y-88226429D01*
X106183196Y-88250227D01*
X106186796Y-88274496D01*
X106188000Y-88299000D01*
X106188000Y-92549000D01*
X106186796Y-92573504D01*
X106183196Y-92597773D01*
X106177235Y-92621571D01*
X106168970Y-92644671D01*
X106158480Y-92666849D01*
X106145867Y-92687893D01*
X106131253Y-92707598D01*
X106114777Y-92725777D01*
X106096598Y-92742253D01*
X106076893Y-92756867D01*
X106055849Y-92769480D01*
X106033671Y-92779970D01*
X106010571Y-92788235D01*
X105986773Y-92794196D01*
X105962504Y-92797796D01*
X105938000Y-92799000D01*
X105213000Y-92799000D01*
X105188496Y-92797796D01*
X105164227Y-92794196D01*
X105140429Y-92788235D01*
X105117329Y-92779970D01*
X105095151Y-92769480D01*
X105074107Y-92756867D01*
X105054402Y-92742253D01*
X105036223Y-92725777D01*
X105019747Y-92707598D01*
X105005133Y-92687893D01*
X104992520Y-92666849D01*
X104982030Y-92644671D01*
X104973765Y-92621571D01*
X104967804Y-92597773D01*
X104964204Y-92573504D01*
X104963000Y-92549000D01*
X104963000Y-88299000D01*
X104964204Y-88274496D01*
X104967804Y-88250227D01*
X104973765Y-88226429D01*
X104982030Y-88203329D01*
X104992520Y-88181151D01*
X105005133Y-88160107D01*
X105019747Y-88140402D01*
X105036223Y-88122223D01*
X105054402Y-88105747D01*
X105074107Y-88091133D01*
X105095151Y-88078520D01*
X105117329Y-88068030D01*
X105140429Y-88059765D01*
X105164227Y-88053804D01*
X105188496Y-88050204D01*
X105213000Y-88049000D01*
X105938000Y-88049000D01*
X105962504Y-88050204D01*
X105962504Y-88050204D01*
G37*
D11*
X105575500Y-90424000D03*
D10*
G36*
X102837504Y-88050204D02*
G01*
X102861773Y-88053804D01*
X102885571Y-88059765D01*
X102908671Y-88068030D01*
X102930849Y-88078520D01*
X102951893Y-88091133D01*
X102971598Y-88105747D01*
X102989777Y-88122223D01*
X103006253Y-88140402D01*
X103020867Y-88160107D01*
X103033480Y-88181151D01*
X103043970Y-88203329D01*
X103052235Y-88226429D01*
X103058196Y-88250227D01*
X103061796Y-88274496D01*
X103063000Y-88299000D01*
X103063000Y-92549000D01*
X103061796Y-92573504D01*
X103058196Y-92597773D01*
X103052235Y-92621571D01*
X103043970Y-92644671D01*
X103033480Y-92666849D01*
X103020867Y-92687893D01*
X103006253Y-92707598D01*
X102989777Y-92725777D01*
X102971598Y-92742253D01*
X102951893Y-92756867D01*
X102930849Y-92769480D01*
X102908671Y-92779970D01*
X102885571Y-92788235D01*
X102861773Y-92794196D01*
X102837504Y-92797796D01*
X102813000Y-92799000D01*
X102088000Y-92799000D01*
X102063496Y-92797796D01*
X102039227Y-92794196D01*
X102015429Y-92788235D01*
X101992329Y-92779970D01*
X101970151Y-92769480D01*
X101949107Y-92756867D01*
X101929402Y-92742253D01*
X101911223Y-92725777D01*
X101894747Y-92707598D01*
X101880133Y-92687893D01*
X101867520Y-92666849D01*
X101857030Y-92644671D01*
X101848765Y-92621571D01*
X101842804Y-92597773D01*
X101839204Y-92573504D01*
X101838000Y-92549000D01*
X101838000Y-88299000D01*
X101839204Y-88274496D01*
X101842804Y-88250227D01*
X101848765Y-88226429D01*
X101857030Y-88203329D01*
X101867520Y-88181151D01*
X101880133Y-88160107D01*
X101894747Y-88140402D01*
X101911223Y-88122223D01*
X101929402Y-88105747D01*
X101949107Y-88091133D01*
X101970151Y-88078520D01*
X101992329Y-88068030D01*
X102015429Y-88059765D01*
X102039227Y-88053804D01*
X102063496Y-88050204D01*
X102088000Y-88049000D01*
X102813000Y-88049000D01*
X102837504Y-88050204D01*
X102837504Y-88050204D01*
G37*
D11*
X102450500Y-90424000D03*
M02*
